<?xml version="1.0" encoding="UTF-8"?>
<svg id="Layer_1" xmlns="http://www.w3.org/2000/svg" version="1.1" viewBox="0 0 792 612">
  <!-- Generator: Adobe Illustrator 29.0.1, SVG Export Plug-In . SVG Version: 2.1.0 Build 192)  -->
  <defs>
    <style>
      .st0 {
        fill: #f2f6fa;
      }

      .st1 {
        fill: #f16c8d;
      }

      .st2 {
        fill: #343e43;
      }

      .st3 {
        fill: #fefefe;
      }

      .st4 {
        fill: #484f54;
      }

      .st5, .st6 {
        fill: #231f20;
        stroke: #231f20;
        stroke-miterlimit: 10;
      }

      .st7 {
        fill: #fbfbfb;
      }

      .st6 {
        stroke-width: 2px;
      }

      .st8 {
        fill: #bdc0c6;
      }
    </style>
  </defs>
  <g id="mS78bT">
    <g>
      <path class="st1" d="M790.2,65c1.8,5.1.9,12.6,1.1,18.1,0,2.1,0,4.3,0,6.4H.9c0-1.4,0-2.8,0-4.3.1-6.2-1-15.8,1.1-21.3s12-12.8,19.6-12.8h747.9c8.1-.3,18,6.3,20.7,13.9ZM24,65.2c-4.9,1.4-5.3,9.5-.2,10.5,11.4,2.2,8.8-13,.2-10.5ZM43.2,65.2c-4.9,1.4-5.3,9.5-.2,10.5,11.4,2.2,8.8-13,.2-10.5ZM62.3,65.2c-4.9,1.4-5.3,9.5-.2,10.5,11.4,2.2,8.8-13,.2-10.5Z"/>
      <path class="st3" d="M791.3,89.5c2.2,150.1-1.7,300.4,0,450.6.1,5.6-3.3,9.7-5.4,14.3-4.4,3-8.6,6.4-14.3,6.4-202.3-.3-404.6.2-606.9,0l68.7-137.2-136.4-66.7-87.9,29.7c-1.8,1.1-7.2,10.3-8.2,12.6C1.8,295.9-.4,192.6.9,89.5h790.4Z"/>
      <path class="st0" d="M62.3,65.2c8.6-2.5,11.2,12.6-.2,10.5s-4.7-9,.2-10.5Z"/>
      <path class="st0" d="M43.2,65.2c8.6-2.5,11.2,12.6-.2,10.5s-4.7-9,.2-10.5Z"/>
      <path class="st0" d="M24,65.2c8.6-2.5,11.2,12.6-.2,10.5s-4.7-9,.2-10.5Z"/>
      <path class="st4" d="M164.7,560.8c-1.3,0-3.1,0-4.3,0l69.1-136.1-132.5-64-1.3.2c-7.4,10.4-14.1,21.1-19.3,32.8s-6.2,15.8-8.1,24.5c-4.5.7-35-13-40.9-16-3.2-1.6-16.6-11-18.6-10.7l-8,13.9c0-1.8-2-1.8,0-6.4s6.4-11.5,8.2-12.6l87.9-29.7,136.4,66.7-68.7,137.2ZM66.8,415c2.6-19.8,13.8-36.6,24-53.2l-78.2,26.6c-2.4,3.1,49.2,27.4,54.2,26.6Z"/>
      <path class="st0" d="M76.4,393.7c5.2-11.7,11.9-22.4,19.3-32.8l1.3-.2,132.5,64-69.1,136.1c-47.3,0-94.7,0-142,0-5.2-.6-9.4-3.1-13.3-6.4-1.4-3.3-3.9-6.3-4.3-10.1-.9-46.2,1.2-92.6,0-138.9l8-13.9c2-.3,15.4,9.1,18.6,10.7-.4,2.3,1.2,2.3,2.6,3.2,4.7,3.1,38.3,22,41,19.2l5.3-30.9ZM30.8,438.6c-1,.6-1.6,4.4-.2,5.7,5.6,5.2,31.3,2,32-5.4.8-9-11,0-15.6.5s-15.1-1.5-16.2-.8ZM150.6,486.6c-1.2-1.2-6-2.5-8.2-4.1-5.3-3.8-9.4-14.1-10.7-14.8-3-1.8-6.6-.8-6.1,3,.9,7.3,14.2,21.6,21.6,22s6-3.4,3.3-6.1ZM44.2,473.8c-8.9.4-13,17.7-5.3,19.8,9.6,2.6,15.9-20.3,5.3-19.8ZM112.3,505.6c-9.1,1.4-12,22-1.8,19.6,9.7-2.3,11.8-21.2,1.8-19.6ZM46.6,518.2c9.4-.5,19.5,2,27.6,7s8.5,8.4,10.7,9.5,3,0,3.2-1.1c.9-4.4-18.1-15.6-22.4-17s-20.3-6.1-19.1,1.5Z"/>
      <path class="st7" d="M66.8,415c-5,.8-56.6-23.5-54.2-26.6l78.2-26.6c-10.2,16.5-21.4,33.4-24,53.2Z"/>
      <path class="st8" d="M76.4,393.7l-5.3,30.9c-2.7,2.8-36.3-16.1-41-19.2s-3-.9-2.6-3.2c5.9,3,36.3,16.7,40.9,16,1.9-8.7,4.5-16.4,8.1-24.5Z"/>
      <path class="st2" d="M30.8,438.6c1.1-.7,12.5,1.3,16.2.8s16.4-9.4,15.6-.5c-.7,7.4-26.4,10.6-32,5.4-1.4-1.4-.8-5.1.2-5.7Z"/>
      <path class="st2" d="M150.6,486.6c2.7,2.7.3,6.3-3.3,6.1-7.4-.4-20.7-14.7-21.6-22-.5-3.8,3.1-4.8,6.1-3s5.4,11.1,10.7,14.8c2.1,1.5,7,2.9,8.2,4.1Z"/>
      <path class="st2" d="M44.2,473.8c10.6-.5,4.3,22.3-5.3,19.8-7.8-2.1-3.7-19.3,5.3-19.8Z"/>
      <path class="st2" d="M112.3,505.6c9.9-1.6,7.8,17.3-1.8,19.6-10.1,2.4-7.3-18.2,1.8-19.6Z"/>
      <path class="st4" d="M46.6,518.2c-1.3-7.6,14.6-3,19.1-1.5s23.3,12.6,22.4,17-1.8,1.8-3.2,1.1c-2.2-1.1-7.1-7.3-10.7-9.5-8-5-18.1-7.5-27.6-7Z"/>
    </g>
  </g>
  <g>
    <path class="st6" d="M361.7,259.2c-7.3-.1-13.5-.2-18.8-.3-5.2,0-10,0-14.3,0-.1,11.8-.1,21.5,0,29.2,0,7.6.2,12.4.2,14.4h-14c0-1.9,0-7,.1-15.2,0-8.2.2-17.6.3-28.4l-52,.4-5.8-10.8c15.5-16.9,29.1-32.3,41.1-46.1,11.9-13.8,18.6-21.5,19.9-23l10.6,6.3c-.2,10.4-.4,23.1-.4,38.1,0,15,0,23,0,24,3,0,6.8,0,11.5,0,4.7,0,11.9-.2,21.5-.3v11.9ZM315.4,198.4h-.2c0,0-42.5,49-42.5,49l.2.2c.7,0,2.6,0,5.7,0,3.1,0,7.8,0,14,0h9.5c4,0,8.4,0,13.1,0v-23.2c0-6.9,0-15.6.2-26Z"/>
    <path class="st6" d="M468.4,228.2c0,7.2-1.2,13.9-3.7,20-2.5,6.2-5.9,11.3-10.3,15.5-4.4,4.2-9.4,7.4-15.1,9.6-5.7,2.2-11.9,3.4-18.6,3.4s-12.8-1.1-18.5-3.4c-5.7-2.2-10.7-5.5-14.9-9.6s-8-9.8-10.4-15.9c-2.4-6-3.6-12.6-3.6-19.9s1.1-13.4,3.3-19.1c2.2-5.7,5.4-10.8,9.5-15.2,4-4.3,9-7.7,15.1-10.3,6.1-2.5,12.6-3.8,19.6-3.8s13.6,1.2,19.5,3.6c5.9,2.4,10.8,5.7,14.8,9.9,4.3,4.5,7.6,9.6,9.9,15.4,2.3,5.8,3.4,12.3,3.4,19.7ZM453.7,229c0-5.8-.9-11.2-2.7-16.2-1.8-5-4.3-9.2-7.7-12.6-2.8-2.9-6.1-5.2-9.8-6.7-3.8-1.6-7.9-2.4-12.5-2.4s-9.5.9-13.2,2.6c-3.6,1.7-6.7,3.9-9.3,6.4-3.2,3.2-5.8,7.2-7.6,12.3-1.9,5-2.8,10.2-2.8,15.5s.9,11.2,2.7,16c1.8,4.9,4.6,9.1,8.4,12.8,2.7,2.6,5.8,4.7,9.5,6.2,3.6,1.5,7.6,2.3,12,2.3s8.6-.7,12.3-2.2c3.7-1.5,7-3.6,9.7-6.2,3.6-3.4,6.3-7.5,8.2-12.2,1.9-4.8,2.9-9.9,2.9-15.5Z"/>
    <path class="st6" d="M529.8,273.9h-14.2c0-1.9.2-7.4.4-16.4.2-9,.3-21.4.3-37.4s0-6.8,0-12.1c0-5.3,0-9.4-.1-12.4h-.3c-2.7,1.4-6.6,3.8-11.7,7-5.1,3.2-10.6,6.6-16.5,10.3l-5.2-8c7.3-5.1,15-10.5,23.1-16.1,8.2-5.7,12.8-8.9,14-9.7l10.4,7.2c-.1,8.8-.2,17.8-.3,27,0,9.2,0,14.6,0,16.3,0,7.2,0,15.8.1,26,0,10.2.2,16.3.2,18.2Z"/>
  </g>
  <g>
    <path class="st5" d="M249,372.1c0,3.9,0,7.1,0,9.6,0,2.5,0,4.7,0,6.6s0,4.3,0,5.9c0,1.6,0,3,0,4.2,0,2.3-.3,4.4-1,6.2s-1.8,3.4-3.2,4.7c-1.4,1.3-3.2,2.4-5.2,3.1s-4.5,1.1-7.2,1.1-5.1-.4-7.2-1.1-3.8-1.8-5.2-3.2c-1.4-1.3-2.5-2.9-3.2-4.7s-1-3.9-1-6.2,0-2.6,0-4.2c0-1.6,0-3.6,0-5.9s0-4.1,0-6.6c0-2.5,0-5.7,0-9.6h5c0,.5,0,2.2,0,5.2s0,6.8,0,11.6,0,3,0,4.5c0,1.6,0,3.2,0,4.8,0,3.7,1.1,6.5,3.2,8.4s5,2.9,8.6,2.9,6.9-.9,8.8-2.7c2-1.8,2.9-4.7,2.9-8.6s0-3.2,0-4.8c0-1.6,0-3.1,0-4.5,0-4.8,0-8.7,0-11.8,0-3.1,0-4.7,0-5h5Z"/>
    <path class="st5" d="M286.5,412.7h-4.8c0-.6,0-2.4,0-5.6,0-3.2,0-5.1,0-5.9s0-2.6,0-4.7c0-2.1,0-3.6,0-4.5,0-2.3-.5-4-1.3-5-.8-1-2.3-1.5-4.3-1.5s-2.8.4-4.6,1.1-3.7,1.7-5.5,2.8c0,.2,0,1.4,0,3.6,0,2.2,0,4.2,0,6s0,5.2,0,8.5c0,3.3,0,5.1,0,5.2h-4.8c0-.1,0-1.4,0-3.7,0-2.3,0-5.8,0-10.4s0-4.6,0-7.5c0-2.9,0-5.9-.1-9.1h4.7v3.5s0,0,0,0c2.8-1.6,5.2-2.7,7.1-3.4,1.9-.6,3.5-1,4.7-1,2.6,0,4.7.8,6.2,2.4,1.6,1.6,2.4,3.9,2.4,6.7s0,4.7,0,6.6,0,3.4,0,4.5c0,1.8,0,4.1,0,6.9,0,2.8,0,4.2,0,4.4Z"/>
    <path class="st5" d="M318.5,395.4c0,5,0,9.1,0,12.3,0,3.2,0,4.9,0,5.1-.2,0-1.1,0-2.8.2-1.7.1-3.8.2-6.5.2s-3.3-.2-5-.5c-1.7-.3-3.1-.7-4.3-1.3-1.6-.7-2.9-1.8-3.9-3.1-1-1.3-1.5-2.9-1.5-4.7s.6-3.6,1.8-5c1.2-1.4,2.8-2.5,4.9-3.4,1.3-.5,3.1-1,5.3-1.5,2.2-.4,4.7-.8,7.5-1-.1-1.6-.5-2.9-1.2-3.9-.7-1-1.6-1.8-2.9-2.3-.9-.4-1.9-.6-3-.8s-2.4-.2-3.8-.2-1.7,0-2.3,0c-.6,0-1.5,0-2.6.2l.5-4c.3,0,.9,0,1.8-.1.9,0,2.1,0,3.7,0,2.4,0,4.5.2,6.4.7,1.9.5,3.4,1.3,4.7,2.4,1.2,1.1,2,2.4,2.6,3.9.6,1.5.9,3.8.9,6.7ZM313.8,402.8v-2.6c0-1.1,0-2.3,0-3.6-.9,0-2.4.2-4.7.5-2.2.3-4.1.8-5.6,1.4-1.1.4-2.1,1.1-3,1.9s-1.3,1.9-1.3,3.2.4,2.5,1.1,3.3c.7.8,1.8,1.5,3.1,1.9,1,.3,2.1.6,3.3.7,1.2.2,2.5.2,3.8.2s.9,0,1.5,0c.6,0,1.2,0,1.9,0,0-.1,0-.8,0-2,0-1.2,0-2.8,0-4.8Z"/>
    <path class="st5" d="M354.3,412.7h-4.6v-3.5h0c-1.4.9-3.2,1.9-5.3,2.8-2.1,1-4.2,1.5-6.2,1.5s-5-.8-6.6-2.5c-1.6-1.7-2.4-4-2.4-7s0-3.5,0-5.8c0-2.2,0-3.9,0-4.9,0-1.8,0-4.1,0-6.8,0-2.7,0-4.2,0-4.6h4.8c0,.3,0,1.7,0,4.4,0,2.7,0,4.8,0,6.3s0,3.1,0,5.2c0,2.1,0,3.6,0,4.4,0,2.4.5,4.1,1.2,5.2.8,1.1,2.1,1.7,3.8,1.7s3.8-.5,5.9-1.5,3.7-1.8,4.7-2.5c0-.2,0-1.4,0-3.4,0-2,0-4.5,0-7.4s0-4.7,0-7.6c0-3,0-4.6,0-4.8h4.8c0,.3,0,1.5,0,3.4,0,1.9,0,5.2,0,9.9s0,4.9,0,6.9c0,2,0,5.5,0,10.5Z"/>
    <path class="st5" d="M382.1,409l-.5,3.9c-.1,0-.5,0-1,0-.6,0-1,0-1.4,0-4.1,0-7.3-.9-9.4-2.6-2.1-1.7-3.2-4.4-3.2-8s0-4.7,0-7.2c0-2.6,0-5.8,0-9.6h-5.1v-3.6h5.4v-7.2h4.4v7.2h10.9v3.6h-10.9c0,.4,0,1.7,0,3.8,0,2.1,0,3.7,0,4.7v7.5c0,2.6.7,4.5,2.1,5.7,1.4,1.2,3.6,1.7,6.6,1.7s.8,0,1.3,0c.5,0,.8,0,1,0Z"/>
    <path class="st5" d="M415,412.7h-4.8c0-.6,0-2.4,0-5.5,0-3,0-5.1,0-6s0-2.6,0-4.7c0-2.1,0-3.6,0-4.5,0-2.3-.5-4-1.3-5-.8-1-2.3-1.5-4.3-1.5s-2.6.3-4.4,1c-1.8.7-3.7,1.6-5.7,2.8v23.3c.1,0-4.7,0-4.7,0,0-.8,0-4,0-9.5,0-5.6,0-10.2,0-13.8s0-5.3,0-8.9c0-3.6,0-7.7-.1-12.3h4.8v17.3c-.1,0,0,0,0,0,2.9-1.6,5.3-2.7,7.1-3.4,1.8-.6,3.4-.9,4.7-.9,2.6,0,4.7.8,6.2,2.4,1.6,1.6,2.4,3.9,2.4,6.7s0,4.7,0,6.6,0,3.4,0,4.5c0,1.8,0,4,0,6.3,0,2.4,0,4,0,4.9Z"/>
    <path class="st5" d="M452.9,397.4c0,2.3-.4,4.6-1.3,6.7-.8,2.1-2,4-3.6,5.5-1.3,1.3-2.8,2.2-4.4,2.9-1.6.7-3.5,1-5.5,1s-3.8-.3-5.5-1-3.2-1.6-4.6-2.9c-1.5-1.5-2.7-3.3-3.6-5.5-.8-2.2-1.3-4.5-1.3-6.9s.4-4.5,1.1-6.4c.7-2,1.8-3.7,3.4-5.3,1.4-1.4,2.9-2.5,4.7-3.3,1.8-.8,3.7-1.1,5.7-1.1s4,.3,5.7,1c1.7.7,3.2,1.7,4.6,3.1,1.5,1.6,2.7,3.4,3.4,5.4.7,2,1.1,4.2,1.1,6.6ZM448,397.6c0-1.9-.3-3.8-.9-5.6-.6-1.8-1.6-3.3-2.9-4.6-.8-.8-1.7-1.4-2.8-1.8-1.1-.4-2.2-.6-3.4-.6s-2.6.2-3.6.7c-1,.4-2,1.1-2.9,2.1-1.1,1.1-1.9,2.5-2.5,4.2-.6,1.7-.9,3.5-.9,5.3s.3,4,.9,5.7c.6,1.7,1.6,3.2,3,4.5.8.7,1.7,1.2,2.7,1.6,1,.4,2.1.6,3.3.6s2.5-.2,3.6-.7c1.1-.4,2.1-1.1,2.9-1.9,1.2-1.2,2-2.6,2.6-4.2.6-1.7.9-3.4.9-5.2Z"/>
    <path class="st5" d="M479,385.6c-1.1.3-2.8.8-5.1,1.7-2.3.8-4.9,2-7.9,3.4,0,.2,0,1.2,0,3,0,1.8,0,3.5,0,5.1,0,2.4,0,5.2,0,8.5,0,3.3,0,5.1,0,5.5h-4.8c0-.3,0-1.5,0-3.4,0-1.9,0-5.2,0-9.9s0-4.5,0-7.9c0-3.4,0-6.6,0-9.6h4.7v4.6h0c2.3-1.3,4.5-2.4,6.8-3.3,2.2-1,4-1.6,5.3-1.9l.9,4.2Z"/>
    <path class="st5" d="M490.6,376.1h-5.3v-5.2h5.3v5.2ZM490.3,412.7h-4.8c0-.3,0-2.3,0-6,0-3.7,0-6.7,0-9.1s0-4.4,0-6.9c0-2.5,0-5.4-.1-8.8h4.8c0,2.9,0,5.6-.1,8.2,0,2.5,0,4.8,0,6.8,0,4.7,0,8.5,0,11.3,0,2.9,0,4.3,0,4.4Z"/>
    <path class="st5" d="M523.8,412.6c-.1,0-1.8,0-5.1,0-3.3,0-5.7,0-7.3,0s-4.5,0-7.3,0c-2.9,0-4.4,0-4.5,0l-1-2.9c2-2.6,4.7-6,8-10.3,3.3-4.3,6.7-8.7,10.2-13.2h0c-.9,0-1.8,0-2.7,0-.9,0-1.8,0-2.6,0-1.9,0-4.4,0-7.4,0-3,0-4.6,0-4.7,0v-3.8c.2,0,1.8,0,4.9,0,3.1,0,5,0,5.7,0,1.4,0,3.6,0,6.6,0,3,0,4.6,0,4.9,0l1.5,2.9c-3.5,4.3-7.2,9.1-11.2,14.3-4,5.2-6.3,8.3-7,9.1h0c.8,0,1.8,0,3,0,1.2,0,2.6,0,4,0,4.1,0,7.1,0,8.9,0,1.9,0,2.9,0,3,0v3.9Z"/>
    <path class="st5" d="M555,396.3h-21.9c0,2.1.5,4.1,1.4,5.9.9,1.8,2.3,3.3,4.1,4.4,1.2.7,2.5,1.3,4,1.7,1.5.4,3.3.6,5.4.6s2.2,0,3.2,0c1,0,1.6-.1,1.8-.1l-.5,4c-.2,0-.7,0-1.6.1s-2,0-3.2,0c-3.2,0-6.1-.4-8.5-1.3-2.4-.8-4.4-2-5.9-3.5-1.3-1.2-2.4-2.8-3.4-4.7-.9-1.9-1.4-4.1-1.4-6.4s.3-4.4,1-6.3c.7-1.9,1.7-3.6,3.1-5.2,1.2-1.4,2.7-2.4,4.4-3.2,1.8-.7,3.6-1.1,5.5-1.1s3.6.3,5,.8c1.5.6,2.7,1.4,3.8,2.6,1.2,1.3,2.1,2.9,2.7,4.8.6,1.9,1,4.2,1,6.8ZM550.3,392.9c-.3-2.5-1.2-4.5-2.6-5.9-1.4-1.4-3.2-2.1-5.5-2.1s-4.2.7-5.7,2.2c-1.5,1.4-2.6,3.4-3.2,5.9h16.9Z"/>
    <path class="st5" d="M586.4,413.2c-.1,0-.5,0-1.2,0-.6,0-1.2,0-1.5,0-3.8,0-6.8-.2-9-.5-2.2-.3-4.3-1-6.3-2-2.7-1.3-4.7-3-6.1-5.2s-2.1-4.5-2.1-7.2.8-5.8,2.3-8.2c1.6-2.4,3.8-4.2,6.7-5.6,1.7-.8,3.7-1.4,5.9-1.8,2.2-.4,4.4-.6,6.6-.6v-14c0,0,4.7,0,4.7,0,0,.4,0,3.2,0,8.5,0,5.3,0,10.6,0,16s0,8.1,0,11.6c0,3.4,0,6.4,0,8.9ZM581.7,391.9v-5.6c-2,0-3.9.2-5.7.5-1.8.3-3.3.8-4.6,1.4-2,.9-3.6,2.3-4.7,4-1.1,1.7-1.7,3.8-1.7,6.1s.5,3.9,1.6,5.4c1.1,1.5,2.4,2.7,4,3.5,1.4.7,3,1.3,4.7,1.7,1.7.4,3.6.6,5.5.6h.8c0-.2,0-1.7,0-4.5,0-2.8,0-7.2,0-13Z"/>
  </g>
  <text/>
</svg>