<?xml version="1.0" encoding="UTF-8"?>
<svg id="Layer_1" xmlns="http://www.w3.org/2000/svg" version="1.1" viewBox="0 0 792 612">
  <!-- Generator: Adobe Illustrator 29.0.1, SVG Export Plug-In . SVG Version: 2.1.0 Build 192)  -->
  <defs>
    <style>
      .st0 {
        fill: #f2f6fa;
      }

      .st1 {
        fill: #231f20;
      }

      .st2 {
        fill: #f16c8d;
      }

      .st3 {
        fill: #343e43;
      }

      .st4 {
        fill: #fefefe;
      }

      .st5 {
        fill: #484f54;
      }

      .st6 {
        fill: #fbfbfb;
      }

      .st7 {
        fill: #bdc0c6;
      }
    </style>
  </defs>
  <g id="mS78bT">
    <g>
      <path class="st2" d="M789.9,65.3c1.8,5.1.9,12.6,1.1,18.1s0,4.3,0,6.4H1.3c0-1.4,0-2.8,0-4.3.1-6.2-1-15.8,1.1-21.3s12-12.8,19.6-12.8h747.3c8.1-.3,18,6.3,20.7,13.9ZM24.3,65.4c-4.9,1.4-5.3,9.5-.2,10.4,11.4,2.2,8.8-12.9.2-10.4ZM43.5,65.4c-4.9,1.4-5.3,9.5-.2,10.4,11.4,2.2,8.8-12.9.2-10.4ZM62.6,65.4c-4.9,1.4-5.3,9.5-.2,10.4,11.4,2.2,8.8-12.9.2-10.4Z"/>
      <path class="st4" d="M790.9,89.7c2.2,150-1.7,300.2,0,450.2.1,5.6-3.3,9.7-5.4,14.3-4.4,3-8.6,6.4-14.3,6.4-202.1-.3-404.3.2-606.4,0l68.6-137.1-136.3-66.7-87.8,29.7c-1.8,1.1-7.2,10.3-8.2,12.5C2.2,295.9,0,192.7,1.3,89.7h789.7Z"/>
      <path class="st0" d="M62.6,65.4c8.6-2.5,11.2,12.6-.2,10.4s-4.7-9,.2-10.4Z"/>
      <path class="st0" d="M43.5,65.4c8.6-2.5,11.2,12.6-.2,10.4s-4.7-9,.2-10.4Z"/>
      <path class="st0" d="M24.3,65.4c8.6-2.5,11.2,12.6-.2,10.4s-4.7-9,.2-10.4Z"/>
      <path class="st5" d="M164.9,560.5c-1.3,0-3.1,0-4.3,0l69-136-132.3-63.9-1.3.2c-7.4,10.4-14.1,21.1-19.3,32.8-3.6,8.1-6.2,15.8-8.1,24.5-4.5.7-34.9-13-40.8-16-3.2-1.6-16.6-11-18.5-10.7l-8,13.9c0-1.8-2-1.8,0-6.4s6.4-11.5,8.2-12.5l87.8-29.7,136.3,66.7-68.6,137.1ZM67.1,414.9c2.6-19.8,13.8-36.6,23.9-53.1l-78.1,26.6c-2.4,3.1,49.2,27.4,54.2,26.6Z"/>
      <path class="st0" d="M76.7,393.7c5.2-11.7,11.9-22.4,19.3-32.8l1.3-.2,132.3,63.9-69,136c-47.3,0-94.6,0-141.9,0-5.2-.6-9.4-3.1-13.3-6.4-1.4-3.3-3.9-6.3-4.3-10.1-.9-46.2,1.2-92.6,0-138.7l8-13.9c2-.3,15.4,9.1,18.5,10.7-.4,2.3,1.2,2.3,2.6,3.2,4.7,3.1,38.2,21.9,41,19.1l5.3-30.8ZM31.2,438.5c-1,.6-1.6,4.4-.2,5.7,5.6,5.2,31.3,2,32-5.4s-11,0-15.6.5-15.1-1.5-16.2-.8ZM150.8,486.4c-1.2-1.2-6-2.5-8.1-4.1-5.3-3.8-9.4-14.1-10.7-14.8-3-1.8-6.5-.8-6.1,3,.9,7.3,14.2,21.6,21.6,22s6-3.4,3.3-6.1ZM44.5,473.7c-8.9.4-13,17.7-5.3,19.8,9.6,2.6,15.9-20.3,5.3-19.8ZM112.6,505.4c-9.1,1.4-12,22-1.8,19.6,9.6-2.3,11.8-21.1,1.8-19.6ZM47,518c9.4-.5,19.5,2,27.5,7s8.5,8.3,10.7,9.5,3,0,3.2-1.1c.9-4.4-18-15.6-22.4-16.9-4.5-1.4-20.3-6.1-19.1,1.5Z"/>
      <path class="st6" d="M67.1,414.9c-5,.8-56.6-23.5-54.2-26.6l78.1-26.6c-10.2,16.5-21.4,33.4-23.9,53.1Z"/>
      <path class="st7" d="M76.7,393.7l-5.3,30.8c-2.7,2.8-36.2-16-41-19.1s-3-.9-2.6-3.2c5.9,3,36.3,16.7,40.8,16,1.9-8.7,4.5-16.4,8.1-24.5Z"/>
      <path class="st3" d="M31.2,438.5c1.1-.7,12.5,1.3,16.2.8s16.4-9.4,15.6-.5-26.4,10.6-32,5.4c-1.4-1.4-.8-5.1.2-5.7Z"/>
      <path class="st3" d="M150.8,486.4c2.7,2.7.3,6.3-3.3,6.1-7.4-.4-20.7-14.7-21.6-22-.5-3.8,3.1-4.8,6.1-3s5.4,11.1,10.7,14.8,7,2.9,8.1,4.1Z"/>
      <path class="st3" d="M44.5,473.7c10.6-.5,4.3,22.3-5.3,19.8-7.8-2.1-3.7-19.3,5.3-19.8Z"/>
      <path class="st3" d="M112.6,505.4c9.9-1.6,7.8,17.3-1.8,19.6-10.1,2.4-7.3-18.1,1.8-19.6Z"/>
      <path class="st5" d="M47,518c-1.3-7.6,14.6-3,19.1-1.5,4.3,1.4,23.3,12.6,22.4,16.9s-1.8,1.8-3.2,1.1c-2.2-1.1-7.1-7.3-10.7-9.5-8-5-18.1-7.5-27.5-7Z"/>
    </g>
  </g>
  <g>
    <path class="st1" d="M335.9,276.5c-7.3-.1-13.5-.2-18.8-.3-5.2,0-10,0-14.3,0-.1,11.8-.1,21.5,0,29.2s.2,12.4.2,14.3h-14c0-1.9,0-7,.1-15.2s.2-17.6.3-28.3l-51.9.4-5.8-10.8c15.4-16.9,29.1-32.2,41.1-46,11.9-13.8,18.6-21.5,19.9-23l10.6,6.3c-.2,10.4-.4,23-.4,38.1,0,15,0,23,0,24,3,0,6.8,0,11.5,0,4.7,0,11.9-.2,21.5-.3v11.9ZM289.6,215.8h-.2c0,0-42.4,49-42.4,49l.2.2c.7,0,2.6,0,5.7,0,3.1,0,7.8,0,13.9,0h9.5c4,0,8.4,0,13.1,0v-23.2c0-6.9,0-15.6.2-25.9Z"/>
    <path class="st1" d="M442.5,245.5c0,7.2-1.2,13.9-3.7,20-2.5,6.1-5.9,11.3-10.3,15.5-4.4,4.2-9.4,7.4-15.1,9.6s-11.9,3.4-18.6,3.4-12.8-1.1-18.5-3.4-10.7-5.4-14.8-9.6-8-9.8-10.4-15.8c-2.4-6-3.6-12.6-3.6-19.8s1.1-13.4,3.3-19.1c2.2-5.7,5.4-10.8,9.5-15.2,4-4.3,9-7.7,15.1-10.3,6.1-2.5,12.6-3.8,19.6-3.8s13.6,1.2,19.4,3.6c5.9,2.4,10.8,5.7,14.8,9.9,4.3,4.5,7.6,9.6,9.9,15.4,2.3,5.8,3.4,12.3,3.4,19.7ZM427.8,246.4c0-5.8-.9-11.2-2.7-16.2-1.8-5-4.3-9.2-7.7-12.6-2.8-2.9-6.1-5.1-9.8-6.7-3.8-1.6-7.9-2.4-12.5-2.4s-9.5.9-13.2,2.6-6.7,3.9-9.3,6.4c-3.2,3.1-5.8,7.2-7.6,12.3-1.9,5-2.8,10.2-2.8,15.5s.9,11.2,2.7,16c1.8,4.9,4.6,9.1,8.4,12.8,2.7,2.6,5.8,4.7,9.4,6.2,3.6,1.5,7.6,2.3,12,2.3s8.6-.7,12.3-2.2c3.7-1.5,6.9-3.6,9.7-6.2,3.6-3.4,6.3-7.5,8.2-12.2,1.9-4.8,2.9-9.9,2.9-15.5Z"/>
    <path class="st1" d="M560.6,276.5c-7.3-.1-13.5-.2-18.8-.3-5.2,0-10,0-14.3,0-.1,11.8-.1,21.5,0,29.2s.2,12.4.2,14.3h-14c0-1.9,0-7,.1-15.2s.2-17.6.3-28.3l-51.9.4-5.8-10.8c15.4-16.9,29.1-32.2,41.1-46,11.9-13.8,18.6-21.5,19.9-23l10.6,6.3c-.2,10.4-.4,23-.4,38.1,0,15,0,23,0,24,3,0,6.8,0,11.5,0,4.7,0,11.9-.2,21.5-.3v11.9ZM514.4,215.8h-.2c0,0-42.4,49-42.4,49l.2.2c.7,0,2.6,0,5.7,0,3.1,0,7.8,0,13.9,0h9.5c4,0,8.4,0,13.1,0v-23.2c0-6.9,0-15.6.2-25.9Z"/>
  </g>
  <text/>
  <g>
    <path class="st1" d="M228.4,379.2c0,2.6-.8,4.9-2.5,7-1.7,2.1-3.9,3.5-6.7,4.2-1.2.3-2.5.5-3.9.7-1.4.1-3,.2-4.7.2v11.2c0,0-4.3,0-4.3,0,0-1.1,0-3,0-5.9,0-2.9,0-7.3,0-13.3s0-4.2,0-7c0-2.8,0-5.8-.1-9.2.8,0,1.5,0,2.2,0h1.8c3,0,5.6.2,7.8.6,2.1.4,3.9,1.1,5.4,2,1.6,1,2.8,2.3,3.7,3.9s1.3,3.5,1.3,5.7ZM223.9,379.2c0-1.8-.4-3.4-1.2-4.6-.8-1.3-2.1-2.3-3.8-3-1.1-.5-2.2-.7-3.4-.9-1.2-.1-2.5-.2-3.8-.2h-1c0,.2,0,1.5,0,4,0,2.5,0,4.4,0,5.8s0,2.8,0,4.6c0,1.8,0,2.8,0,3h1.1c1.2,0,2.4,0,3.8-.2,1.3-.2,2.5-.4,3.4-.9,1.7-.7,2.9-1.7,3.8-2.9.9-1.3,1.3-2.8,1.3-4.7Z"/>
    <path class="st1" d="M252.9,387.5c0,4.4,0,7.9,0,10.7,0,2.8,0,4.2,0,4.4-.2,0-1,0-2.5.2-1.5.1-3.4.2-5.7.2s-2.9-.1-4.4-.4c-1.5-.3-2.7-.6-3.8-1.1-1.4-.7-2.6-1.5-3.4-2.7-.9-1.1-1.3-2.5-1.3-4.1s.5-3.1,1.5-4.4c1-1.2,2.5-2.2,4.3-3,1.1-.5,2.7-.9,4.6-1.3,1.9-.4,4.1-.7,6.6-.9-.1-1.4-.4-2.5-1-3.4-.6-.9-1.4-1.6-2.6-2-.8-.3-1.6-.5-2.6-.7s-2.1-.2-3.3-.2-1.5,0-2,0c-.6,0-1.3,0-2.3.1l.4-3.5c.3,0,.8,0,1.6,0,.8,0,1.9,0,3.2,0,2.1,0,3.9.2,5.6.6,1.6.4,3,1.1,4.1,2.1,1,.9,1.8,2.1,2.3,3.4.5,1.3.8,3.3.8,5.9ZM248.8,393.8v-2.3c0-.9,0-2,0-3.2-.8,0-2.1.2-4.1.5-1.9.3-3.6.7-4.9,1.2-1,.4-1.9.9-2.6,1.7s-1.2,1.7-1.2,2.8.3,2.2,1,2.9c.7.7,1.5,1.3,2.7,1.7.9.3,1.8.5,2.9.6,1,.1,2.2.2,3.3.2s.8,0,1.3,0c.5,0,1,0,1.6,0,0-.1,0-.7,0-1.7,0-1,0-2.4,0-4.2Z"/>
    <path class="st1" d="M282.6,375.5c0,.4,0,2.1,0,5.2,0,3.1,0,6.1,0,8.9s0,3.8,0,5.8c0,2,0,3.8,0,5.4,0,3-.5,5.4-1.5,7.1-1,1.7-2.5,3.1-4.4,4.1-1.5.8-3.3,1.4-5.5,1.8-2.2.4-4.8.7-7.8.7l-.4-3.4c2.1,0,3.9-.1,5.6-.3s3.1-.5,4.5-1c2.1-.8,3.5-1.8,4.3-3.1.8-1.3,1.2-2.8,1.3-4.7h-1.3c-2.1,0-4.3-.3-6.5-.8s-4.1-1.3-5.7-2.4c-1.6-1-2.8-2.4-3.8-4.1-1-1.7-1.5-3.7-1.5-6.2s.7-4.6,2-6.5c1.4-1.9,3.2-3.4,5.5-4.5,1.6-.8,3.4-1.3,5.3-1.7,1.9-.3,4.2-.5,6.9-.5h3ZM278.5,389.6c0-1.3,0-2.9,0-4.8,0-1.9,0-3.9,0-5.9h-.7c-1.6,0-3.1.1-4.3.3-1.2.2-2.5.6-3.9,1.2-1.8.8-3.2,1.9-4.1,3.4-1,1.5-1.4,3.2-1.4,5.1s.5,3.6,1.4,5c.9,1.4,2.2,2.4,3.8,3.2,1.1.5,2.3.9,3.7,1.2,1.4.3,2.9.5,4.5.5h1c0-.2,0-1.2,0-2.9,0-1.8,0-3.8,0-6.2Z"/>
    <path class="st1" d="M312.8,388.2h-19.1c0,1.9.4,3.6,1.2,5.1.8,1.6,2,2.9,3.6,3.9,1,.7,2.2,1.1,3.5,1.5,1.3.3,2.9.5,4.7.5s1.9,0,2.8,0c.8,0,1.4,0,1.5-.1l-.5,3.5c-.1,0-.6,0-1.4,0s-1.7,0-2.8,0c-2.8,0-5.3-.4-7.4-1.1-2.1-.7-3.8-1.7-5.1-3-1.1-1.1-2.1-2.5-2.9-4.1-.8-1.7-1.2-3.5-1.2-5.6s.3-3.8.9-5.5c.6-1.6,1.5-3.1,2.7-4.5,1-1.2,2.3-2.1,3.9-2.8,1.5-.7,3.1-1,4.8-1s3.1.2,4.4.7c1.3.5,2.4,1.2,3.3,2.2,1,1.1,1.8,2.5,2.4,4.2.5,1.7.8,3.6.8,5.9ZM308.7,385.2c-.3-2.2-1-3.9-2.2-5.1-1.2-1.2-2.8-1.9-4.8-1.9s-3.6.6-4.9,1.9c-1.3,1.3-2.2,3-2.8,5.1h14.7Z"/>
    <path class="st1" d="M365.2,367.1c0,2.8,0,5.9,0,9.5,0,3.6,0,6.1,0,7.7,0,5,0,9,0,11.9,0,3,0,4.5,0,4.7l-3.5,1.7c-5.3-7.2-10.3-13.7-14.9-19.5-4.6-5.8-7.3-9.1-8-10h0c0,4.8,0,10.6,0,17.5,0,6.9.1,10.9.1,11.9h-4.1c0-.4,0-2,0-4.7,0-2.7,0-6.5,0-11.3s0-4.5,0-7.7c0-3.2,0-6.6-.1-10.1l4-1.9c.3.4,3,3.8,8.1,10.3,5.1,6.5,9.9,12.4,14.4,18h0c0-2.7,0-7.3-.1-13.7,0-6.4-.1-11.2-.1-14.3h4.1Z"/>
    <path class="st1" d="M399.7,389.1c0,2-.4,4-1.1,5.9-.7,1.9-1.8,3.5-3.2,4.8-1.2,1.1-2.5,2-3.9,2.5-1.4.6-3,.9-4.8.9s-3.3-.3-4.8-.9-2.8-1.4-4-2.5c-1.3-1.3-2.4-2.9-3.1-4.8-.7-1.9-1.1-3.9-1.1-6s.3-3.9.9-5.6c.6-1.7,1.6-3.2,2.9-4.6,1.2-1.2,2.6-2.2,4.1-2.8,1.6-.7,3.2-1,5-1s3.5.3,5,.9c1.5.6,2.8,1.5,4,2.7,1.3,1.4,2.3,3,3,4.7.7,1.7,1,3.6,1,5.7ZM395.5,389.3c0-1.7-.3-3.3-.8-4.8-.5-1.6-1.4-2.9-2.5-4-.7-.7-1.5-1.2-2.4-1.5-.9-.4-1.9-.5-3-.5s-2.3.2-3.2.6c-.9.4-1.7,1-2.5,1.8-.9,1-1.7,2.2-2.2,3.7-.5,1.5-.8,3-.8,4.6s.3,3.5.8,5c.5,1.5,1.4,2.8,2.6,3.9.7.6,1.5,1.1,2.4,1.4.9.3,1.9.5,2.9.5s2.1-.2,3.1-.6c1-.4,1.8-1,2.5-1.7,1-1,1.8-2.3,2.3-3.7.5-1.4.8-3,.8-4.6Z"/>
    <path class="st1" d="M421.6,399.3l-.5,3.4c-.1,0-.4,0-.9,0-.5,0-.9,0-1.3,0-3.6,0-6.4-.8-8.2-2.3s-2.8-3.8-2.8-6.9,0-4.1,0-6.3c0-2.2,0-5,0-8.3h-4.4v-3.1h4.7v-6.3h3.8v6.3h9.5v3.1h-9.5c0,.4,0,1.5,0,3.3,0,1.8,0,3.2,0,4.1v6.6c0,2.3.6,3.9,1.9,5,1.2,1,3.1,1.5,5.7,1.5s.7,0,1.1,0c.4,0,.7,0,.8,0Z"/>
    <path class="st1" d="M464.9,370.9c-.3,0-1.5,0-3.5,0s-4.5,0-7.4,0-2.5,0-3.6,0c-1.1,0-2,0-2.8,0,0,2,0,4.2,0,6.5s0,4.4,0,6.1c.2,0,.8,0,1.8,0,1,0,2,0,2.9,0,2.9,0,5.6,0,8.2,0,2.6,0,4,0,4.3,0v3.7c-.3,0-2,0-4.9,0-2.9,0-5.5,0-7.8,0s-1.6,0-2.6,0c-1,0-1.6,0-1.9,0,0,3.1,0,6.1,0,8.9,0,2.8,0,5,0,6.7h-4.4c0-1.1,0-2.9,0-5.7,0-2.7,0-6.6,0-11.7s0-4.6,0-7.9c0-3.3,0-6.6-.1-10.1,1.3,0,2.9,0,4.7,0,1.9,0,3.8,0,5.9,0,3.1,0,5.6,0,7.6,0,2,0,3.2,0,3.4,0v3.7Z"/>
    <path class="st1" d="M495.4,389.1c0,2-.4,4-1.1,5.9-.7,1.9-1.8,3.5-3.2,4.8-1.2,1.1-2.5,2-3.9,2.5s-3,.9-4.8.9-3.3-.3-4.8-.9-2.8-1.4-4-2.5c-1.3-1.3-2.4-2.9-3.1-4.8-.7-1.9-1.1-3.9-1.1-6s.3-3.9.9-5.6c.6-1.7,1.6-3.2,2.9-4.6,1.2-1.2,2.6-2.2,4.1-2.8s3.2-1,5-1,3.5.3,5,.9c1.5.6,2.8,1.5,4,2.7,1.3,1.4,2.3,3,3,4.7.7,1.7,1,3.6,1,5.7ZM491.2,389.3c0-1.7-.3-3.3-.8-4.8-.5-1.6-1.4-2.9-2.5-4-.7-.7-1.5-1.2-2.4-1.5-.9-.4-1.9-.5-3-.5s-2.3.2-3.2.6c-.9.4-1.7,1-2.5,1.8-.9,1-1.7,2.2-2.2,3.7-.5,1.5-.8,3-.8,4.6s.3,3.5.8,5c.5,1.5,1.4,2.8,2.6,3.9.7.6,1.5,1.1,2.4,1.4.9.3,1.9.5,2.9.5s2.1-.2,3.1-.6c1-.4,1.8-1,2.5-1.7,1-1,1.8-2.3,2.3-3.7.5-1.4.8-3,.8-4.6Z"/>
    <path class="st1" d="M524.6,402.5h-4v-3.1h0c-1.2.8-2.8,1.6-4.6,2.5-1.8.9-3.7,1.3-5.4,1.3s-4.3-.7-5.7-2.2c-1.4-1.4-2.1-3.5-2.1-6.1s0-3.1,0-5c0-1.9,0-3.4,0-4.2,0-1.6,0-3.6,0-5.9s0-3.7,0-4h4.2c0,.2,0,1.5,0,3.8,0,2.3,0,4.2,0,5.5s0,2.7,0,4.6c0,1.8,0,3.1,0,3.9,0,2.1.4,3.6,1.1,4.6.7,1,1.8,1.5,3.3,1.5s3.3-.4,5.2-1.3c1.9-.8,3.3-1.6,4.1-2.2,0-.2,0-1.2,0-2.9,0-1.7,0-3.9,0-6.5s0-4.1,0-6.7c0-2.6,0-4,0-4.2h4.2c0,.3,0,1.3,0,3,0,1.7,0,4.6,0,8.6s0,4.3,0,6,0,4.8,0,9.2Z"/>
    <path class="st1" d="M556.2,402.5h-4.2c0-.5,0-2.1,0-4.9,0-2.8,0-4.5,0-5.1s0-2.3,0-4.1c0-1.8,0-3.1,0-3.9,0-2-.4-3.5-1.2-4.4-.7-.9-2-1.3-3.8-1.3s-2.4.3-4,1-3.2,1.4-4.8,2.4c0,.2,0,1.2,0,3.1,0,1.9,0,3.6,0,5.2s0,4.5,0,7.4c0,2.9,0,4.4,0,4.6h-4.2c0-.1,0-1.2,0-3.2,0-2,0-5.1,0-9.1s0-4,0-6.5c0-2.5,0-5.1,0-7.9h4.1v3s0,0,0,0c2.5-1.4,4.5-2.4,6.2-3,1.6-.6,3-.8,4.1-.8,2.3,0,4.1.7,5.4,2.1,1.4,1.4,2.1,3.4,2.1,5.8s0,4.1,0,5.8c0,1.6,0,2.9,0,3.9,0,1.6,0,3.6,0,6,0,2.4,0,3.7,0,3.8Z"/>
    <path class="st1" d="M586.1,402.9c-.1,0-.4,0-1,0-.6,0-1,0-1.3,0-3.3,0-5.9-.1-7.8-.4-1.9-.3-3.7-.9-5.5-1.7-2.3-1.1-4.1-2.6-5.3-4.5-1.2-1.9-1.8-3.9-1.8-6.2s.7-5.1,2-7.1c1.4-2.1,3.3-3.7,5.9-4.9,1.5-.7,3.2-1.2,5.2-1.6,1.9-.4,3.8-.5,5.7-.5v-12.2c0,0,4.1,0,4.1,0,0,.4,0,2.8,0,7.4s0,9.2,0,13.9,0,7.1,0,10.1c0,3,0,5.6,0,7.8ZM582,384.4v-4.9c-1.8,0-3.4.2-5,.4-1.6.3-2.9.7-4,1.2-1.8.8-3.1,2-4.1,3.5-1,1.5-1.5,3.3-1.5,5.3s.5,3.4,1.4,4.7,2.1,2.3,3.5,3.1c1.2.7,2.6,1.1,4.1,1.5s3.1.5,4.8.5h.7c0-.2,0-1.5,0-4s0-6.2,0-11.3Z"/>
  </g>
</svg>