<?xml version="1.0" encoding="UTF-8"?>
<svg xmlns="http://www.w3.org/2000/svg" version="1.1" viewBox="0 0 841.89 595.28">
  <defs>
    <style>
      .cls-1 {
        stroke: #231f20;
        stroke-miterlimit: 10;
        stroke-width: 2px;
      }
    </style>
  </defs>
  <!-- Generator: Adobe Illustrator 28.6.0, SVG Export Plug-In . SVG Version: 1.2.0 Build 709)  -->
  <g>
    <g id="Layer_1">
      <g>
        <path class="cls-1" d="M454.55,70.51c3.89,2.33,5.31,5.8,5.65,10.28.87,11.49,2.28,22.94,3.19,34.42.25,3.17,1.37,4.56,4.48,5.38,15.35,4.06,29.89,10.18,43.47,18.42,2.54,1.54,4.03,1.09,6.1-.67,9.01-7.65,18.16-15.15,27.28-22.68,5.84-4.83,9.21-4.69,14.57.66,13.92,13.89,27.82,27.79,41.71,41.72,5.31,5.33,5.44,8.66.58,14.56-7.52,9.13-15.02,18.27-22.67,27.29-1.78,2.09-2.12,3.65-.64,6.15,8.2,13.77,14.42,28.42,18.48,43.93.67,2.56,1.92,3.55,4.5,3.77,11.19.96,22.36,2.15,33.54,3.12,10.24.88,12.19,2.9,12.19,13.2,0,18.92.01,37.85,0,56.77,0,7.68-2.17,10.11-9.69,10.87-11.76,1.18-23.52,2.4-35.3,3.38-2.92.24-4.46,1.13-5.23,4.1-4.03,15.53-10.26,30.17-18.52,43.91-1.37,2.28-1.24,3.75.49,5.78,7.57,8.89,14.96,17.93,22.4,26.93,5.41,6.54,5.3,9.7-.57,15.58-13.69,13.7-27.39,27.4-41.1,41.07-5.57,5.55-8.85,5.71-14.9.73-9.02-7.42-18.06-14.82-26.94-22.39-2.21-1.88-3.8-2.38-6.52-.76-13.63,8.13-28.14,14.31-43.51,18.34-2.88.75-3.95,2.16-4.2,5.16-.99,12.22-2.25,24.42-3.48,36.63-.59,5.84-3.4,8.52-9.23,8.54-19.81.07-39.62.07-59.43,0-5.94-.02-8.81-2.87-9.41-8.92-1.2-12.21-2.45-24.41-3.48-36.63-.22-2.57-.89-3.9-3.56-4.61-15.64-4.15-30.44-10.37-44.33-18.68-2.35-1.41-3.84-1.06-5.8.6-9.15,7.72-18.4,15.33-27.64,22.95-5.63,4.65-9.08,4.53-14.23-.6-14.04-13.98-28.05-27.98-42.04-42.01-5.08-5.09-5.22-8.64-.6-14.26,7.6-9.25,15.16-18.54,22.95-27.63,1.96-2.28,1.69-3.88.32-6.18-8.14-13.64-14.32-28.14-18.26-43.54-.78-3.03-2.36-3.85-5.22-4.09-12.07-1.03-24.13-2.25-36.18-3.46-6.14-.62-8.8-3.25-8.83-9.42-.12-20.55-.12-41.1,0-61.65.04-5.94,2.51-8.56,8.57-9.22,12.04-1.32,24.11-2.42,36.18-3.47,3.15-.27,4.77-1.29,5.67-4.69,4-15.21,10.13-29.59,18.21-43.09,1.45-2.42,1.28-4.03-.55-6.17-7.76-9.12-15.34-18.38-22.96-27.62-4.44-5.38-4.36-9.08.48-13.94,14.08-14.14,28.2-28.25,42.35-42.33,5.01-4.99,8.46-5.13,13.9-.66,10.16,8.35,20.27,16.76,29.81,24.66,12.16-5.39,23.81-10.7,35.59-15.69,4.19-1.77,8.78-2.6,13.03-4.24,1.26-.49,2.75-2.19,2.9-3.48,1.34-11.59,2.59-23.21,3.46-34.84.35-4.69,1.49-8.59,5.52-11.29h67.42ZM586.19,428.75c-7.94-9.6-15.85-19.13-23.73-28.69-4.49-5.45-4.79-7.89-.98-13.9,10.04-15.87,17.13-32.94,21.59-51.17,1.72-7.06,3.67-8.37,11.08-9.03,12.18-1.1,24.35-2.36,36.71-3.57v-49.64c-1.83-.25-3.55-.56-5.3-.73-10.59-1-21.19-1.94-31.78-2.97-6.92-.67-9.08-2.18-10.51-8.11-4.54-18.83-11.94-36.41-22.22-52.82-3.27-5.22-2.91-7.95,1.1-12.83,6.76-8.22,13.59-16.39,20.38-24.58,1.27-1.54,2.51-3.11,3.34-4.13-11.92-11.93-23.39-23.39-35.14-35.15-9.32,7.71-18.97,15.71-28.64,23.7-5.13,4.24-7.49,4.56-13.16.99-16.14-10.15-33.42-17.5-52-21.87-6.47-1.52-8.01-3.8-8.62-10.52-1.12-12.32-2.38-24.62-3.58-37.01h-47.48c-1.26,12.52-2.48,24.84-3.73,37.15-.74,7.25-1.9,8.73-9.13,10.47-17.96,4.32-34.74,11.33-50.39,21.17-6.93,4.36-8.76,4.08-14.98-1.07-9.4-7.8-18.81-15.59-27.75-23.01-11.87,11.87-23.43,23.44-35.19,35.2,7.63,9.22,15.54,18.77,23.44,28.33,4.5,5.44,4.67,7.51,1.19,13.52-2.66,4.6-5.85,9-7.79,13.89-5.05,12.72-9.77,25.59-14.13,38.57-1.64,4.87-4.19,7.56-9.26,7.97-4.42.36-8.83.8-13.24,1.23-8.36.82-16.71,1.65-25.19,2.49v49.74c12.11,1.2,24,2.45,35.91,3.54,8.69.8,10.17,1.74,12.16,10.01,4.22,17.53,11.13,33.88,20.64,49.18,4.78,7.69,4.55,9.13-1.19,16.05-7.63,9.19-15.24,18.4-22.56,27.24,11.83,11.81,23.39,23.35,35.2,35.14,8.97-7.41,18.3-15.11,27.62-22.82,6.32-5.23,8.24-5.48,15.36-1.1,13.79,8.5,28.36,15.19,44.02,19.37,15.26,4.07,14.52,2.94,16.02,19.52.9,9.97,1.95,19.92,2.96,30.07h47.47c1.22-12.62,2.47-25.08,3.62-37.55.56-6.08,2.18-8.67,7.62-9.95,19.15-4.53,36.96-12.14,53.64-22.53,4.83-3.01,7.58-2.63,12.06,1.05,8.57,7.04,17.09,14.13,25.64,21.18,1.32,1.09,2.69,2.11,3.84,3,11.79-11.78,23.18-23.16,35.05-35.02Z"/>
        <path class="cls-1" d="M420.91,167.73c71.43-.05,129.66,58.15,129.83,129.74.17,71.42-58.07,129.68-129.73,129.76-71.56.08-129.76-58.09-129.78-129.69-.01-71.6,58.09-129.77,129.67-129.81ZM420.83,183.64c-63.09.32-113.92,51.34-113.67,114.09.25,63.02,51.51,114.02,114.14,113.57,62.9-.45,113.67-51.37,113.52-113.85-.15-62.93-51.43-114.12-113.99-113.81Z"/>
        <path class="cls-1" d="M420.74,373.1c-18.91,0-37.82.01-56.73,0-8.16,0-10.66-2.49-10.67-10.5-.02-13.15-.1-26.3.02-39.45.19-20.66,13.92-35.34,34.46-37.37,4.57-.45,7.59,1.48,10.35,4.62,5.3,6.02,11.9,9.44,19.95,10.2,8.9.84,16.7-1.71,23.16-7.71,8.55-7.92,15.41-9.13,26.06-3.79,14,7.02,21.08,18.48,21.27,34.07.17,13.44.1,26.89.02,40.33-.04,6.84-2.87,9.57-9.82,9.59-19.35.05-38.71.02-58.06.02ZM472.38,356.95c0-12.93.51-25.5-.18-38.01-.45-8.21-5.9-13.68-13.63-16.38-1.42-.49-3.93.01-5.02,1.03-18.8,17.62-47.15,17.3-64.54.24-2-1.97-3.89-2.17-6.36-1.15-7.27,3.03-12.49,8.35-12.96,16.07-.77,12.62-.21,25.32-.21,38.2h102.89Z"/>
        <path class="cls-1" d="M421.1,282.57c-21.69.09-39.75-17.82-39.94-39.62-.19-21.56,17.83-39.67,39.68-39.89,21.55-.22,39.77,17.88,39.9,39.63.13,21.68-17.88,39.79-39.64,39.87ZM420.92,266.62c13.06.02,23.73-10.49,23.88-23.51.14-13.12-10.66-24.1-23.77-24.16-13.01-.05-24.13,11.11-23.96,24.06.17,12.99,10.87,23.59,23.85,23.61Z"/>
      </g>
    </g>
  </g>
</svg>