<?xml version="1.0" encoding="UTF-8"?>
<svg xmlns="http://www.w3.org/2000/svg" version="1.1" viewBox="0 0 841.89 595.28">
  <!-- Generator: Adobe Illustrator 28.6.0, SVG Export Plug-In . SVG Version: 1.2.0 Build 709)  -->
  <g>
    <g id="Layer_1">
      <path d="M229,258.73c2.85-3.01,5.3-6.56,8.61-8.94,54.08-38.81,108.27-77.46,162.42-116.17,3.01-2.15,6.05-4.02,9.94-3.47,5.98.85,9.85,5.54,9.86,12.14.04,18.71.01,37.42.02,56.13,0,1.36,0,2.73,0,4.2,7.05,1.19,13.95,2.08,20.73,3.56,71.18,15.46,121.3,56.58,149.7,123.72,12.1,28.6,18.15,58.72,20.48,89.6.83,10.93,1.13,21.91,1.44,32.88.21,7.32-3.9,12.21-10.3,12.84-5.95.59-10.59-3.71-12.21-10.67-13.91-59.67-50.16-99.8-107.05-121.54-19.47-7.44-39.88-10.75-60.67-11.72-.59-.03-1.18,0-2.12,0,0,1.61,0,2.96,0,4.3,0,18.09-.06,36.17.04,54.26.03,5.14-1.36,9.47-6.12,11.9-4.72,2.41-9.04,1.18-13.25-1.83-55.05-39.39-110.16-78.7-165.17-118.14-2.51-1.8-4.25-4.67-6.34-7.04,0-2,0-3.99,0-5.99Z"/>
    </g>
  </g>
</svg>