<?xml version="1.0" encoding="UTF-8"?>
<svg xmlns="http://www.w3.org/2000/svg" version="1.1" viewBox="0 0 841.89 595.28">
  <!-- Generator: Adobe Illustrator 28.6.0, SVG Export Plug-In . SVG Version: 1.2.0 Build 709)  -->
  <g>
    <g id="Layer_1">
      <g>
        <path d="M248.91,227.48c.46-1.26.96-2.5,1.37-3.77,2.41-7.45,6.87-13.24,13.8-16.96,43.47-23.37,86.94-46.71,130.41-70.07,9.31-5,18.55-4.93,27.85.08,18.86,10.17,37.76,20.28,56.65,30.41,3.83-4.04,7.47-8.12,11.37-11.93,3.69-3.61,6.91-3.92,9.43-1.33,2.59,2.65,1.85,6-1.88,9.61-20.41,19.73-28.22,43.67-21.57,71.23,6.68,27.71,24.6,45.85,52.01,53.63,49.87,14.15,98.31-27.95,92.03-79.58-5.63-46.31-52.12-75.61-96.41-60.77-.94.32-1.88.68-2.85.88-3.25.7-5.93-.72-6.89-3.59-.94-2.79.32-5.99,3.49-6.88,7.06-1.97,14.16-4.22,21.39-5.04,45.38-5.18,87.57,28.94,92.47,74.43,4.94,45.9-26.34,87.17-71.85,93.46-32.22,4.45-58.75-6.91-79.29-32.15-.47-.58-.92-1.17-1.5-1.91-.81.32-1.62.56-2.36.94-19.87,10.13-39.72,20.3-59.62,30.36-2.14,1.08-3.1,2.23-3.09,4.79.08,55.78.06,111.57.07,167.35,0,1.08.13,2.16.23,3.74,1.57-.72,2.79-1.23,3.96-1.82,41.97-21.38,83.88-42.85,125.93-64.07,8.7-4.39,12.71-10.76,12.59-20.5-.26-20.71-.14-41.43.02-62.15.01-2.03.83-4.57,2.2-5.91,1.1-1.07,4.09-1.47,5.4-.71,1.63.95,3.18,3.31,3.37,5.2.47,4.82.17,9.72.17,14.59,0,16.85-.01,33.69,0,50.54.02,12.81-5.53,22.18-17.03,28.03-42.97,21.88-85.92,43.8-128.87,65.7-9.1,4.64-18.16,4.53-27.26-.11-43.06-21.98-86.12-43.94-129.2-65.87-8.41-4.28-13.81-10.85-15.87-20.1-.1-.45-.43-.85-.66-1.27,0-56.16,0-112.32,0-168.48ZM402.5,474.54c.1-1.59.2-2.45.2-3.3,0-56.03-.01-112.06.07-168.09,0-2.62-1.17-3.64-3.25-4.7-45.09-22.93-90.14-45.92-135.21-68.9-1.05-.54-2.15-.97-3.74-1.68-.17,2.24-.41,3.94-.41,5.64-.02,52.04,0,104.07-.04,156.11,0,8.31,3.49,14.22,10.96,18.01,38.32,19.47,76.6,39.03,114.89,58.55,5.3,2.7,10.63,5.37,16.53,8.35ZM266.89,218.01c1.1.69,1.49.98,1.93,1.2,45.73,23.32,91.45,46.66,137.23,69.86,1.32.67,3.62.49,5.01-.2,15.72-7.85,31.34-15.87,46.99-23.85,4.86-2.48,9.72-4.96,14.69-7.5-13.32-27.03-13.11-53.76.38-80.59-1.17-.69-2.21-1.33-3.29-1.91-17.12-9.21-34.32-18.26-51.33-27.67-7.04-3.9-13.43-3.74-20.47.07-36.91,20.03-73.94,39.83-110.93,59.72-6.57,3.53-13.13,7.07-20.21,10.87Z"/>
        <path d="M572.25,217.64c4.56,4.48,8.78,8.53,12.9,12.67,7.66,7.7,8.06,18.55,1.02,25.71-7.17,7.29-18.08,6.95-25.96-.86-4.15-4.11-8.24-8.28-13.02-13.1-4.78,5.03-9.07,10.05-13.88,14.51-8.89,8.26-22.94,5.26-27.87-5.68-2.94-6.53-1.73-14.08,3.42-19.4,4.41-4.56,9.06-8.89,14.06-13.76-4.72-4.67-9.13-8.99-13.49-13.36-5.12-5.13-6.8-11.29-4.65-18.19,3.9-12.54,19.35-16.35,29.04-7.17,4.6,4.36,8.88,9.04,13.92,14.2,4.91-5.13,9.24-10.12,14.05-14.59,9.81-9.1,25.52-4.42,28.83,8.5,1.64,6.39.04,12.13-4.61,16.86-4.36,4.44-8.84,8.78-13.75,13.63ZM580.89,191.17c-1.74-2.05-2.89-4.25-4.7-5.31-2.59-1.51-5.31-.62-7.48,1.55-5.38,5.38-10.75,10.78-16.16,16.14-3.64,3.6-6.33,3.63-9.92.09-5.24-5.17-10.4-10.43-15.64-15.6-3.43-3.39-7.09-3.74-9.89-1.07-2.88,2.75-2.55,6.59.96,10.14,5.18,5.23,10.44,10.39,15.6,15.64,3.43,3.49,3.43,6.21.03,9.66-5.08,5.16-10.23,10.24-15.33,15.37-3.72,3.74-4.2,7.6-1.32,10.43,2.88,2.82,6.57,2.31,10.4-1.5,4.95-4.93,9.87-9.89,14.83-14.82,4.03-4,6.47-4.02,10.48-.06,5.14,5.09,10.22,10.25,15.37,15.34,3.39,3.36,7.12,3.74,9.88,1.11,2.85-2.72,2.52-6.67-.93-10.17-4.91-4.97-9.88-9.88-14.81-14.83-4.54-4.55-4.55-6.79-.1-11.26,5.02-5.04,10.12-10,15.04-15.14,1.38-1.44,2.22-3.39,3.7-5.71Z"/>
      </g>
    </g>
  </g>
</svg>