<?xml version="1.0" encoding="UTF-8"?>
<svg xmlns="http://www.w3.org/2000/svg" version="1.1" viewBox="0 0 841.89 595.28">
  <defs>
    <style>
      .cls-1 {
        fill: #390b04;
      }
    </style>
  </defs>
  <!-- Generator: Adobe Illustrator 28.6.0, SVG Export Plug-In . SVG Version: 1.2.0 Build 709)  -->
  <g>
    <g id="Layer_1">
      <g>
        <g id="TWg2xq">
          <g>
            <path class="cls-1" d="M435.03,207.07v7.82c-3.53,1.03-5.86,4.25-9.23,5.35-3.55,1.16-5.09,3.42-5.55,6.82-.29,0-.58,0-.87,0-2.17-.15-3.75,1.31-5.61,2.02-4.88,1.88-6.8,6.87-10.76,9.78-3.83,2.81-7.18,2.83-10.76-.46-1.69-1.55-2.44-4.63-5.49-4.35-4.01.36-7.38-1.86-9.66-4.14-3.81-3.81-7.86-3.48-11.85-2.17-5.49,1.81-11.74,1.81-16.21,6.52-1.24,1.31-3.3,1.98-5.35,2.53-7.43,2.01-14.9-.73-22.28.67-1.05.2-1.95-.37-2.71-1.11-6.9-6.64-15.41-6.64-24.08-5.69-1.83.2-3.74.93-3.91,3.36h-1.74c-3.88-2.09-4.99.68-6.09,3.48-.58,0-1.16,0-1.74,0-2.16.46-3.84,1.58-5.56,3.04-5.3,4.52-10.84,8.64-18.55,7.44-2.26-.35-4.66-.33-6.93,0-5.7.84-9-2.92-11.61-6.65-3.36-4.81-7.36-8.8-12.61-10.78-4.61-1.73-9.97-2.07-14.65.26-5.29,2.63-9.86,6.62-16.47,5.88-12.58-1.4-25.32,1.98-37.98-2.46-5.62-1.97-10.25-4.81-13.52-8.88-7.49-9.33-17.84-10.18-27.76-9.13-12.14,1.28-23.21-1.59-34.51-4.51-1.79-.46-3.43-1.52-4.72-2.98-1.49-1.68-3.5-2.89-5.57-3.15-3.96-.49-5.3-2.99-6.04-6.3,5.77,3.03,12.07,4.56,17.72,8.41,6.29,4.29,14.57,4.93,22.34,5.45,6.61.44,13.23-.19,19.88.74,4.07.57,8.35,1.9,12.65-.48,2.04-1.14,4.29.37,4.73,3.01.44,2.6,1.86,3.78,4.43,3.72,1.19-.03,2.74,0,3.09,1.11,1.21,3.83,4.71,3.13,7.37,3.91,2.14.62,3.98.21,4.36-2.67.41-3.2,2.67-4.14,5.63-4.1,4.2.06,8.39.08,12.59,0,2.88-.06,5.15.62,6.03,3.72.47,1.66,1.93,2.58,3.29,2.15,2.77-.88,5.86-.27,8.36-2.85,2.22-2.3,5.73-2.18,8.24.05,2.22,1.98,3.65,2.75,5.03-.59.75-1.81,2.39-2.42,4.24-2.45,2.17-.04,4.34-.01,6.51-.02,1.29.76,2.7.9,4.18.89,2.37-.02,5.26.33,6.4,2.09,3.92,6.09,9.73,5.98,15.75,5.7,3.01-.14,5.52.25,5.96,4,.22,1.84,1.71,2.1,3.27,2.09,1.33-.01,3.19-.02,3.22-1.5.13-5.92,4.38-4.75,7.72-4.51,6.63.47,13.58.2,18.58-3.86,4.74-3.85,9.6-3.71,14.73-4,13.15-.74,26.26,1.33,39.39.74,4.28-.19,9.93,1.24,11.14-5.6.13-.71.89-1.25,1.66-1.16,4.09.5,8.78-1.93,12.09,2.51.78,1.05,2.18,1.23,3.16.57,3.88-2.62,8.17-.96,12.25-1.4,1.68-.18,2.72.75,3.33,2.23,1.55,3.77,4.52,5.06,8.37,4.69,2.64-.25,4.53.4,6.19,2.82,1.76,2.57,7.05,2.25,8.63-.3,2.07-3.36,5.07-4.39,8.74-4.25,2.42-.48,3.87-1.93,4.35-4.34v-2.61c.87,0,1.74,0,2.61,0,1.08-.03,2.15-.42,2.4-1.46,1.35-5.68,5.09-6.1,9.77-4.62Z"/>
            <path class="cls-1" d="M288.96,234h1.74c1.95.27,3.66-.78,5.49-1.01,5.6-.71,11.62.64,16.2,2.38,4.34,1.64,8.34,4.67,13.44,5.38,5.44.76,11.02,2.35,16.18.08,4.42-1.94,7.72-1.78,10.89,1.79.2.23.84.06,1.27.08.17,2.49-.99,3.65-3.48,3.47-3.8-3.64-4.93-3.61-7.73.75-1.05,1.63-2.47,2.34-3.98,1.73-6.03-2.43-12.98-.64-18.72-4.22-.87,0-1.74,0-2.61,0-.27-2.06-1.89-2.31-3.48-2.6-2.03-.58-4.06-1.16-6.08-1.74-.29-.29-.58-.58-.87-.87-.35-1.85-1.17-2.29-2.61-.87-2.36-.74-4.84-1.36-7.22-.79-3.74.9-7.37,2.24-11.04,3.4-5.02.83-2.68,4.35-2.58,7.05-.95,1.12-1.9,2.24-2.85,3.37-2.74,2.26-6.3,3.68-7.63,7.4-.34.12-.67.24-1.01.36-.58.27-.81.73-.74,1.35-1.43,1.03-2.85,2.07-4.28,3.1-.81.25-1.85.27-2.39.79-5.25,5.04-11.52,4.98-18.05,3.78-.22,0-.36-.11-.44-.31.19-2.64-1.6-2.66-3.45-2.59-.53-.33-1.05-.66-1.58-.98.17-1.94-1.83-2.81-2.23-4.46,0-.96.83-2.63-1.42-1.6-.41-.12-.83-.24-1.25-.36-.16-.43-.31-.87-.47-1.3,0-.33,0-.65-.01-.98-.56-4.89-6.06-9.6-12.76-11.09-7.76-1.73-13.69,3.5-20.47,5.42-1.74.49-2.82,3.36-4.2,5.13-.16.14-.31.14-.46-.03-1.52.04-3.47-.94-3.9,1.66-1.15.59-2.3,1.19-3.45,1.78-8.13,1.55-16.26,2.25-24.36-.18-.26-2.04,1.03-2.8,2.69-3.3.76-.23,1.97.14,2.07-1.06.1-1.26-1.1-1.61-2.01-1.93-.93-.33-1.96-.38-2.93-.59-4.18-.89-8.57-1.24-12.47-2.81-5.86-2.36-11.08-6.1-16.96-8.6-9-3.84-17.28-4.22-24.75,3.02-1.96,1.9-4.45,3.39-6.08,5.4-2.21,2.72-5.69,4.55-6.46,8.37-.35.5-.7,1-1.04,1.5-2.98,1.49-6.14,2.33-9.45,2.7-.01-.2-.06-.38-.14-.56.63-1.31,1.23-2.55.5-4.1-.67-1.43-.07-2.84,1.47-2.97,4.86-.44,7.89-4.52,12.38-5.9,2.62-.8,4.99-3.4,5.91-6.52.31-1.04,1.33-2.23-.04-3.1-1.07-.69-2.18.02-3.29.41-1.65.58-2.05,2.98-4.19,2.74-5.83-.67-12.18,1.99-17.41-2.74-.57-.51-1.62-.66-2.45-.68-4.99-.08-7.84-2.75-9.3-7.32-1.64-5.14-8.53-10.09-13.86-10.09v-12.16c1.54.15,3.61-.67,4.48.86,1.62,2.84,4.76,3.05,6.88,4.7,3.8,2.95,8.29,4.63,12.19,7.4,3,2.14,6.6,5.45,10.9,4.22,5.45-1.56,11-.58,16.69-2.81,9.1-3.57,18.65-1.36,27.09,4.17,2.39,1.57,4.86,2.8,6.86,5.08,5.25,5.99,12.8,8.46,20.07,10.02,9.42,2.01,19.28,1.64,28.91.97,6.75-.47,14.14.19,19.5-5.67.6-.66,1.9-1.17,2.76-1.03,4.78.76,9.78,0,14.37,2.19,4.74,2.27,8,6.1,11.08,10.1,2.3,2.99,5.51,5.38,8.78,5.62,8.45.61,17.34,1.17,22.55-7.99.36-.64,1.38-1.15,2.16-1.25,4.19-.58,6.06-3.46,7.3-7.03.58,0,1.16,0,1.74,0,2.32-.64,4.22-2.03,6.09-3.48Z"/>
            <path class="cls-1" d="M221.15,218.36c-2.17,0-4.34-.02-6.51.02-1.85.03-3.49.63-4.24,2.45-1.39,3.34-2.81,2.57-5.03.59-2.51-2.23-6.01-2.35-8.24-.05-2.5,2.58-5.59,1.97-8.36,2.85-1.36.43-2.82-.5-3.29-2.15-.88-3.1-3.15-3.78-6.03-3.72-4.19.09-8.39.07-12.59,0-2.96-.04-5.22.89-5.63,4.1-.37,2.87-2.22,3.29-4.36,2.67-2.66-.78-6.16-.07-7.37-3.91-.35-1.11-1.9-1.14-3.09-1.11-2.57.06-3.99-1.12-4.43-3.72-.45-2.64-2.69-4.14-4.73-3.01-4.29,2.38-8.58,1.05-12.65.48-6.65-.93-13.27-.3-19.88-.74-7.77-.52-16.05-1.16-22.34-5.45-5.64-3.85-11.94-5.38-17.72-8.41-2.03,0-4.06,0-6.09,0v-21.72c1.3.03,2.05-.89,2.95-1.61,3.25-2.61,6.19-6.09,9.91-7.49,6.09-2.28,12.57-3.92,19.23-3.92,105.18-.02,210.37-.01,315.55,0,2.01,0,3.98.02,6,.61,7.88,2.32,16.09,3.71,22.82,8.94v33.01c-4.68-1.47-8.42-1.05-9.77,4.62-.25,1.03-1.32,1.42-2.4,1.46,1.5-3.39.84-6.07-2.61-7.82-.14-2.76.56-5.06,3.22-6.48,1.16-.62,1.97-1.69,1.97-3.13,0-5.56.63-11.19-1.82-16.48-.53-1.16-.86-2.51-2.5-2.58.17-1.77-.46-3.61-2.08-3.89-6.22-1.07-11.7-4.81-18.19-4.81-93.87.01-187.75,0-281.62.01-5.14,0-10.23.6-15.44.21-4.48-.33-9.08.2-13.67-.09-4.23-.27-8.1,1.36-10.69,5.09-4.04.61-5.15,3.24-5.3,6.97-.1,2.6,1.51,4.55,1.82,6.92.11,1.62.06,3.32-1.03,4.54-1.79,2.01-1.42,3.57.58,5,4.09,2.93,8.55,4.92,13.49,6.2,4.76,1.24,10.01,1.92,13.16,6.58,1.1,1.63,2.4,1.64,3.26-.13.74-1.52,1.58-3.12,3.33-2.97,5.98.53,12.44-2.25,17.86,2.53,1.25,1.1,3.01.83,4.6.83,6.66,0,13.31-.01,19.97,0,1.42,0,3.16-.46,4.12.8,2.88,3.79,7.11,3.35,10.97,3.46,8.82.25,17.65.09,26.47.07,2.36,0,4.64-.03,6.16,2.27.83,1.25,2.7,1.81,3.37.84,2.94-4.23,7.61-2.8,11.46-3.79,4.24-1.09,7.1,1.16,7.44,5.02Z"/>
            <path class="cls-1" d="M58.56,167.1c0-3.19-1.24-7.61.35-9.21,1.59-1.59,6.03-.35,9.21-.35h361.25q5.65,0,5.65,5.65v2.17c-1.45-.57-2.87-1.51-4.36-1.65-7.3-.72-14.62-1.74-21.93-1.75-106.47-.11-212.94-.15-319.41.1-6.45.02-13.09.24-19.65,2-3.67.98-7.03,3.55-11.11,3.04Z"/>
            <path class="cls-1" d="M58.56,199.25c2.03,0,4.06,0,6.09,0,.74,3.31,2.09,5.81,6.04,6.3,2.07.26,4.08,1.47,5.57,3.15,1.29,1.46,2.93,2.51,4.72,2.98,11.3,2.92,22.37,5.78,34.51,4.51,9.92-1.04,20.27-.19,27.76,9.13,3.27,4.07,7.9,6.91,13.52,8.88,12.66,4.44,25.4,1.06,37.98,2.46,6.61.74,11.19-3.25,16.47-5.88,4.68-2.33,10.04-1.99,14.65-.26,5.25,1.97,9.26,5.97,12.61,10.78,2.61,3.73,5.91,7.49,11.61,6.65,2.27-.33,4.67-.35,6.93,0,7.71,1.2,13.26-2.92,18.55-7.44,1.71-1.46,3.4-2.58,5.56-3.04-1.25,3.57-3.11,6.46-7.3,7.03-.78.11-1.8.62-2.16,1.25-5.21,9.16-14.1,8.6-22.55,7.99-3.28-.24-6.48-2.63-8.78-5.62-3.08-4-6.35-7.83-11.08-10.1-4.59-2.2-9.59-1.44-14.37-2.19-.86-.14-2.16.37-2.76,1.03-5.36,5.85-12.75,5.2-19.5,5.67-9.63.67-19.49,1.04-28.91-.97-7.27-1.55-14.82-4.03-20.07-10.02-2-2.28-4.47-3.51-6.86-5.08-8.43-5.53-17.99-7.74-27.09-4.17-5.69,2.23-11.24,1.26-16.69,2.81-4.3,1.23-7.9-2.08-10.9-4.22-3.9-2.78-8.38-4.45-12.19-7.4-2.12-1.65-5.26-1.85-6.88-4.7-.87-1.52-2.94-.71-4.48-.86v-8.69Z"/>
            <path class="cls-1" d="M435.03,252.24c-8.41.39-13.28,6.19-18.2,11.9-2.62,3.04-4.96,6.3-8.77,8.16-8.09,3.95-14.26-.4-20.33-4.62-4.49-3.11-8.59-6.78-12.94-10.11-5.44-4.16-15.38-3.94-20.71.34-1.8,1.44-3.6,2.89-5.42,4.3-9.6,7.4-19.27,4.88-28.85.03-2.42-1.23-4.58-3-6.83-4.56-12.42-8.62-20.77-7.29-32.37,2.61-5.03,4.29-8.98,9.82-13.82,14.35-9.33,8.73-18.5,9.71-26.42-1.9-1.46-2.14-2.95-4.3-4.69-6.21-2.33-2.56-4.63-5.29-7.45-7.21-4.78-3.25-9.95-1.78-15-.18-7.05,2.24-13.07,6.71-20.16,8.95-12.38,3.9-24.48,3.27-36.32-1.71-6.52-2.75-12.8-6.08-19.19-9.14-11.51-5.49-21.3-2.69-30.36,5.71-6.16,5.72-13.38,9.34-22.31,8.44-6.29-.63-12.57-6.54-12.37-12.2,1.8.45,2.37,2.31,3.75,3.23.49.63.98,1.27,1.46,1.9,3.75,5.26,15.7,6.24,19.76,1.6.15-.17.05-.56.07-.84.6-.31,1.2-.62,1.8-.93,3.16,1.13,4.41-.73,5.18-3.32h0c2.55.25,4.04-.86,4.39-3.43h0c1.93.13,3.46-.27,3.44-2.65h0c1.03.17,2.03.07,2.93-.48,8.49-5.28,16.75-2.2,24.8,1.03,5.45,2.19,10.49,5.37,15.87,7.78,16.07,7.19,31.89,6.36,47.31-2.01,8.15-4.42,16.27-8.59,25.89-4.61,1.69,1.05,3.04,2.43,4.37,3.92,2.95,3.3,4.88,7.41,8.39,10.24.87,2.04,3.18,2.53,4.46,4.12,2.46,4.03,4.71,4.62,7.83,2.04.84-.12,1.68-.25,2.52-.37,1.53,1.61,2.34,1.21,2.53-.91.54-.27,1.08-.55,1.62-.82,1.38.2,2.72.33,2.8-1.66,1.3-1.85,3.75-2.66,4.54-4.98l-.09-.1c1.58-.16,2.32-1.16,2.61-2.61h-.02c.7.1.95-.24.89-.89v.1c4.44-2.8,7.64-6.92,11.32-10.52,1.29,0,2.54-.05,2.47-1.85h0c.71-.04,1.52.11,2.11-.18,5.83-2.86,11.76-4.46,18.13-1.8.13.06.44-.3.66-.46,4.67,1.59,8.25,4.95,12.28,7.58-.02.75.13,1.41.85,1.82,5.8,3.38,12.17,4.82,18.76,4.72,1.81-.03,4.78,0,5.48-3,1.73-1.15,3.46-2.3,5.19-3.45.29.01.65.14.85.02,6.63-4.31,13.67-7.13,21.8-5.97,1.09.17,1.96.73,2.7,1.52-.03,1.93,1.25,1.91,2.62,1.77h0c0,2.41,1.54,2.79,3.49,2.64,1.75,1.41,3.49,2.81,5.24,4.22-.15,1.91,1.13,1.97,2.49,1.93.32.24.65.47.97.71-.07,2.03,1.28,1.94,2.67,1.78,7.02,3.98,13.89,4.64,20.4-1.03,1.11-.97,2.56-1.9,1.97-3.9-1.45.69-2.56,1.45-3.67,2.36-4.68,3.84-14.17,3.66-18.11-.28-.48-.48-3.4-1.96.16-2.54,7.09,4.3,14.14,3.77,20.31-2.66,0,0,.19-.17.18-.17.93-.58,1.66-1.61,2.97-1.36.85,1.33,1.69,2.49,3.19.58,1.25-1.58,2.61-3.07,3.92-4.6,3.78-2.09,7.3-4.84,11.98-4.54v4.34Z"/>
            <path class="cls-1" d="M58.56,167.1c4.08.51,7.44-2.05,11.11-3.04,6.56-1.76,13.2-1.98,19.65-2,106.47-.25,212.94-.22,319.41-.1,7.31,0,14.63,1.02,21.93,1.75,1.49.15,2.91,1.08,4.36,1.65v8.69c-6.73-5.22-14.94-6.62-22.82-8.94-2.02-.59-3.99-.61-6-.61-105.18,0-210.37-.01-315.55,0-6.66,0-13.14,1.64-19.23,3.92-3.72,1.39-6.67,4.88-9.91,7.49-.91.73-1.66,1.64-2.95,1.61v-10.43Z"/>
            <path class="cls-1" d="M76.27,262.42c-1.38-.93-1.96-2.79-3.75-3.23-.38-.84-.75-1.68-1.13-2.52.78-3.37-2.79-5.5-2.5-8.73.65-.1,2.2.63,1.57-.82-1.31-3.01-1.85-6.66-5.53-8.09-1.8-1.66-4.1-2.01-6.37-2.43v-16.51c5.34,0,12.22,4.96,13.86,10.09,1.46,4.57,4.31,7.24,9.3,7.32.83.01,1.88.16,2.45.68,5.23,4.73,11.58,2.07,17.41,2.74,2.14.24,2.54-2.16,4.19-2.74,1.1-.39,2.22-1.09,3.29-.41,1.37.88.35,2.07.04,3.1-.92,3.12-3.29,5.72-5.91,6.52-4.49,1.38-7.52,5.46-12.38,5.9-1.54.14-2.14,1.54-1.47,2.97.73,1.55.13,2.8-.5,4.1-1.41.17-2.81.33-4.22.5-.72-.09-1.45-.17-2.17-.26-.59-.75-1.26-1.25-2.26-.76-.54-.2-1.09-.4-1.63-.6-.28-.18-.55-.36-.83-.54-.02-2.58-1.81-3.11-4.47-3.88.91,2.56,1.54,4.36,3.64,5.19l.2,1.45c-.28.31-.56.63-.84.94Z"/>
            <path class="cls-1" d="M419.38,227.05c.29,0,.58,0,.87,0,1.93-1.01,4.88,0,5.93-2.64,1.63-4.12,4.73-5.45,8.85-5.18v8.69c-6.73.17-10.01,5.94-14.78,9.24-2.72,1.88-4.73,4.64-6.22,7.64-1.81,3.66-.9,5.71,2.74,6.58-.79,1.98-3.39,1.7-4.34,3.48-1.19.5-2.55,1.63-3.54,1.37-3.79-.99-7.71-.98-11.48-1.75-2.73-.56-5.37-2.24-5.85-5.65-.32-2.3-1.26-3.16-3.44-1.53-1.05.79-2.6-.24-2.16-.84,2.5-3.4-1.38-5-1.99-7.41,1.14-.97,2.23-.61,2.9.06,2.89,2.91,6.78,2.72,10.34,3.59.82.2,1.75.31,2.42.76,2.82,1.94,4.59.7,5.93-1.84,2.1-3.96,5.11-6.95,9.23-8.77,2.58-1.14,4.22-2.95,4.62-5.8Z"/>
            <path class="cls-1" d="M416.76,251.37c-3.64-.87-4.55-2.93-2.74-6.58,1.49-3,3.51-5.76,6.22-7.64,4.77-3.3,8.05-9.07,14.78-9.24v14.77c-.87,0-1.74,0-2.61,0-1.38-2.02-2.05-1.85-3.48.88-.39.68-1.04.82-1.75.83-.44-2.33-1.66-1.77-3.03-.85-3.06,2.05-5.56,4.61-7.39,7.82h0Z"/>
            <path class="cls-1" d="M68.89,247.94c-.3,3.23,3.28,5.36,2.5,8.73-2.16-.53-2.27-2.74-3.24-4.18-2.35-3.49-5.25-5.43-9.59-4.59,0-1.74,0-3.48,0-5.21,2.02.33,4.03.66,6.05.99,0,0-.02-.08-.02-.08.31.85.76,1.43,1.77.91l-.06-.06c-.56,1.08.41,1.5.92,2.12l.04.37.35.11c.32.5.55,1.15,1.36.93l-.09-.02Z"/>
            <path class="cls-1" d="M435.03,219.23c-4.12-.28-7.22,1.06-8.85,5.18-1.05,2.65-4,1.63-5.93,2.64.46-3.4,2-5.66,5.55-6.82,3.37-1.1,5.7-4.31,9.23-5.35v4.34Z"/>
            <path class="cls-1" d="M432.42,242.69h2.61v5.21c-4.68-.3-8.21,2.45-11.98,4.54-.2-.2-.4-.41-.59-.61,1.58-2.35,3.98-3.6,6.4-4.84,1.2.01,2.27-.19,3.05-1.81-1.36.15-2.3.25-3.23.35-.45,0-.9,0-1.36,0-.04-.38-.08-.75-.12-1.13.71-.01,1.36-.14,1.75-.83,1.16-.29,2.32-.59,3.48-.88Z"/>
            <path class="cls-1" d="M58.56,236.6c2.27.42,4.57.77,6.37,2.43-.76.5-1.52,1-2.28,1.5-1.36-.15-2.72-.3-4.09-.45v-3.48Z"/>
            <path class="cls-1" d="M58.56,240.08c1.36.15,2.72.3,4.09.45.34,1.25,2.48,1.37,1.97,3.15-2.02-.33-4.03-.66-6.05-.99,0-.87,0-1.74,0-2.61Z"/>
            <path class="cls-1" d="M420.25,205.33c3.45,1.75,4.11,4.42,2.61,7.82-.87,0-1.74,0-2.61,0-.14-1.05.29-2.5-1.56-2.36-.3.02-.78.5-.8.8-.14,1.85,1.32,1.42,2.36,1.56v2.61c-2.42.48-3.87,1.93-4.35,4.34-3.67-.13-6.66.9-8.74,4.25-1.58,2.55-6.87,2.86-8.63.3-1.66-2.42-3.55-3.08-6.19-2.82-3.85.37-6.82-.92-8.37-4.69-.61-1.48-1.65-2.41-3.33-2.23-4.08.44-8.37-1.22-12.25,1.4-.98.66-2.38.48-3.16-.57-3.31-4.43-8-2.01-12.09-2.51-.77-.09-1.54.44-1.66,1.16-1.21,6.84-6.86,5.41-11.14,5.6-13.13.6-26.25-1.48-39.39-.74-5.13.29-9.99.15-14.73,4-5,4.06-11.95,4.33-18.58,3.86-3.34-.24-7.59-1.41-7.72,4.51-.03,1.48-1.89,1.49-3.22,1.5-1.56.01-3.05-.25-3.27-2.09-.44-3.75-2.95-4.14-5.96-4-6.01.28-11.82.39-15.75-5.7-1.13-1.76-4.03-2.11-6.4-2.09-1.48.01-2.88-.13-4.18-.89-.34-3.87-3.2-6.12-7.44-5.02-3.85.99-8.52-.45-11.46,3.79-.67.96-2.54.41-3.37-.84-1.52-2.3-3.81-2.28-6.16-2.27-8.83.03-17.66.18-26.47-.07-3.85-.11-8.09.34-10.97-3.46-.96-1.26-2.69-.8-4.12-.8-6.66-.02-13.31-.01-19.97,0-1.59,0-3.35.28-4.6-.83-5.42-4.78-11.88-2-17.86-2.53-1.75-.15-2.58,1.45-3.33,2.97-.86,1.76-2.15,1.76-3.26.13-3.15-4.66-8.4-5.35-13.16-6.58-4.94-1.28-9.39-3.27-13.49-6.2-2-1.43-2.37-2.99-.58-5,1.09-1.23,1.14-2.92,1.03-4.54,1.09.06,2.16.43,2.36,1.55.94,5.28,6.3,6.46,9.44,9.54,2.34,2.3,7.26,2.6,11.05,2.69,12.89.3,25.79.1,38.68.13,2.33,0,5.12-.63,5.52-2.65,1.06-5.36,4.84-4.27,8.28-4.3,4.2-.04,8.4.03,12.61-.02,2.2-.03,4.03.16,4.31,3,.17,1.75,1.42,2.91,3.2,3.02,3.31.2,6.52.95,9.88,1.03,10.28.24,20.49-1.73,30.75-.91,10.68.85,21.38.48,32.05.97,5.74.26,10.58-2.86,16.1-2.95.54,0,1.43-.77,1.54-1.31.61-2.95,2.76-2.85,5.02-2.85,35.35.02,70.71.02,106.06,0,2.42,0,4.58-.11,5.02,3.25.29,2.18,2.48,2.56,4.39,2.83,2.13.3,4.56.05,6.34,1,3.99,2.12,10.94.89,10.29,8.8-.15,1.82,1.44,3.82,3.86,4.08,2.63.28,4.03-1.1,4.64-3.54.51-2.03,1.93-2.6,3.93-2.53,3.23.11,6.27-.65,8.95-2.57Z"/>
            <path class="cls-1" d="M419.38,227.05c-.39,2.84-2.04,4.66-4.62,5.8-4.11,1.82-7.13,4.81-9.23,8.77-1.34,2.53-3.11,3.77-5.93,1.84-.67-.46-1.59-.56-2.42-.76-3.56-.87-7.45-.68-10.34-3.59-.67-.67-1.75-1.04-2.9-.06.61,2.41,4.5,4.01,1.99,7.41-.44.6,1.11,1.63,2.16.84,2.18-1.63,3.12-.77,3.44,1.53.48,3.42,3.12,5.1,5.85,5.65,3.77.77,7.68.76,11.48,1.75.99.26,2.35-.88,3.54-1.37.18.99.36,1.98.53,2.97,0,0-.19.17-.19.17-2.13-1.67-3.53,1.12-5.6.85-5.73-.75-11.62.37-17.29-1.39-.89-.58-1.78-1.15-2.67-1.73-.35-.68-.98-.84-1.67-.89-.55-1.11-1.42-1.71-2.68-1.7l-.02-.02c-.3-2.01-2.18-2.45-3.46-3.48-.76-1.38-1.71-2.51-3.44-2.62,0,0-.02-.02-.02-.02-.37-2.76-2.69-3.3-4.72-4.34-5.72-2.93-11.36-.65-17.03.03-.43-.02-1.07.14-1.27-.08-3.17-3.57-6.47-3.73-10.89-1.79-5.16,2.27-10.73.68-16.18-.08-5.1-.71-9.1-3.73-13.44-5.38-4.58-1.73-10.6-3.09-16.2-2.38-1.83.23-3.54,1.28-5.49,1.01.17-2.43,2.08-3.15,3.91-3.36,8.67-.96,17.19-.96,24.08,5.69.77.74,1.66,1.31,2.71,1.11,7.38-1.4,14.86,1.34,22.28-.67,2.04-.55,4.1-1.22,5.35-2.53,4.47-4.7,10.72-4.71,16.21-6.52,3.99-1.31,8.04-1.64,11.85,2.17,2.28,2.28,5.66,4.51,9.66,4.14,3.05-.28,3.8,2.8,5.49,4.35,3.58,3.29,6.93,3.27,10.76.46,3.96-2.9,5.88-7.9,10.76-9.78,1.86-.71,3.43-2.17,5.61-2.02Z"/>
            <path class="cls-1" d="M288.96,234c-1.86,1.45-3.76,2.83-6.09,3.48,1.1-2.79,2.2-5.56,6.09-3.48Z"/>
            <path class="cls-1" d="M415.9,220.1c.48-2.42,1.93-3.86,4.35-4.34-.48,2.42-1.93,3.86-4.35,4.34Z"/>
            <path class="cls-1" d="M387.21,255.71c.89.58,1.78,1.15,2.67,1.73-1.28,2.79,2.59,1.43,2.58,3.2-3.56.58-.64,2.06-.16,2.54,3.95,3.94,13.43,4.12,18.11.28,1.11-.91,2.22-1.68,3.67-2.36.59,2-.86,2.94-1.97,3.9-6.51,5.67-13.38,5.01-20.4,1.03-.65-.95-1.55-1.53-2.67-1.78-.32-.24-.65-.47-.97-.71-.51-1.06-1.4-1.61-2.49-1.93-1.75-1.41-3.49-2.81-5.24-4.22-.84-1.31-1.94-2.28-3.49-2.64,0,0,0,0,0,0-.58-1.03-1.47-1.59-2.62-1.77-.74-.79-1.61-1.35-2.7-1.52-6.95-3.8-15.8-1.47-22.65,5.95-1.73,1.15-3.46,2.3-5.19,3.45-3.77,1.33-7.65,1.4-11.57.96-4.83-.55-9.12-2.69-13.52-4.5-4.03-2.63-7.6-5.99-12.28-7.58-6.25-4.09-14.38-3.14-20.91,2.45,0,0,0,0,0,0-1.16.18-2.03.73-2.47,1.85-3.68,3.6-6.88,7.73-11.31,10.52-.03-1.36-.06-2.71-.08-4.07-.07-.62.16-1.08.74-1.35.65.75.91.41,1.01-.36,1.32-3.72,4.89-5.14,7.63-7.4,3.2-.11,5.71-1.38,7.18-4.35l.41-.04.41.03c5.08-1.13,10.12-2.93,15.42-1.08,1.56.18,2.95,4.28,4.68.19.27-.02.53-.04.8-.05,2.92,1.93,5.85,3.85,8.77,5.78-1.1,3.8,2.11,3.21,4.02,3.94,1.91,1.02,3.79,2.11,6.08,1.94,1.52.33,3.05.66,4.57.99.31.03.63.07.94.1.56.05,1.13.1,1.69.15,1.29.67,2.54.64,3.74-.22,1.75-.25,3.18-1.15,4.55-2.19l-.08.03c1.94.12,2.66-1.75,4.08-2.49.86-1.45,3.42-1.34,3.34-3.64l-.02.02c.55.37.95.05,1.33-.32-.44-.2-.88-.4-1.33-.61.01-.55.02-1.11.03-1.66,1.36-.12,2.87.4,3.63-1.48.68-1.68,2.45-1.59,3.94-2.09,6.12-2.06,11.5-.06,16.8,2.67,0,0,.02.02.02.02.15,2.19.17,4.53,3.44,2.62,1.29,1.03,3.16,1.47,3.46,3.48-.06.13-.13.25-.19.38.07-.12.14-.24.21-.36,1.26,0,2.13.59,2.68,1.7-.02.82.06,1.73.95,1.96.67.17.64-.59.72-1.08Z"/>
            <path class="cls-1" d="M99.48,256.75c.77-3.82,4.26-5.66,6.46-8.37,1.63-2.01,4.12-3.5,6.08-5.4,7.47-7.25,15.75-6.86,24.75-3.02,5.88,2.51,11.1,6.24,16.96,8.6,3.9,1.57,8.3,1.92,12.47,2.81.98.21,2.01.26,2.93.59.91.33,2.11.67,2.01,1.93-.09,1.2-1.31.83-2.07,1.06-1.66.49-2.95,1.26-2.69,3.3-2.31-.22-4.62-.44-6.93-.66-.77-.64-1.5-1.35-2.65-1.03-.06-.76-.29-1.37-1.1-1.66-5.73-2.02-10.93-5.22-16.53-7.45-6.58-2.62-13.31-5.64-20.62-2.21-3.33,1.07-6.24,2.83-8.78,5.22-1.55.16-2.5.91-2.51,2.57-2.76.89-4.7,3.49-7.78,3.72Z"/>
            <path class="cls-1" d="M351.55,247.9c-.01.55-.02,1.11-.03,1.66,0,.31,0,.61,0,.92,0,0,.02-.02.02-.02-.96.26-1.92.52-2.88.78-1.07.33-2.15.66-3.22.99-1.61.34-3.28.59-3.44,2.74-.82.98-1.95,1.03-3.1,1.05-1.39-.6-2.79-.69-4.19-.05-1.91-.08-3.83-.16-5.74-.23-.98-1.26-2.62-.75-3.81-1.44.14-.26.2-.54.18-.84.2-1.96,1.58-2.04,3.13-2.12.98-.05,2.73.63,2.6-1.19-.1-1.38-1.71-1.63-2.78-1.3-4.28,1.32-6.1-1.57-8.01-4.41,5.74,3.58,12.69,1.78,18.72,4.22,1.51.61,2.93-.1,3.98-1.73,2.8-4.35,3.93-4.39,7.73-.75.02.71.16,1.36.86,1.73Z"/>
            <path class="cls-1" d="M288.94,247.01l-.41-.03s-.41.04-.41.04c-.58.02-1.16.04-1.74.06,0-2.04,0-4.08-.01-6.13,3.68-1.16,7.3-2.5,11.04-3.4,2.38-.57,4.86.05,7.22.79.21,2.27,1.48,1.34,2.61.87.29.29.58.58.87.87-.44,1-1.13,1.99.35,2.79,1.27.68,1.45,1.91,1.4,3.2-.27,0-.53.03-.8.05-1.45-.71-2.61-2.26-4.55-1.56-4.41-1.68-8.83-1.37-13.24,0-1.17.36-2.58.66-2.32,2.45Z"/>
            <path class="cls-1" d="M309.84,246.07c.05-1.29-.13-2.52-1.4-3.2-1.48-.79-.78-1.79-.35-2.79,2.03.58,4.06,1.16,6.08,1.74.27,2.06,1.89,2.31,3.48,2.6.87,0,1.74,0,2.61,0,1.91,2.84,3.72,5.73,8.01,4.41,1.07-.33,2.69-.08,2.78,1.3.13,1.83-1.62,1.15-2.6,1.19-1.55.07-2.92.16-3.13,2.11-.21.24-.41.47-.62.71l-.95-.23c-1.36-1.57-3.35-1.6-5.14-2.09-2.92-1.93-5.85-3.85-8.77-5.78Z"/>
            <path class="cls-1" d="M235.98,255.56c0,.33,0,.65.01.98-.8.33-.89,1.01-.85,1.75-.77-.83-1.52-1.68-2.3-2.49-5.9-6.17-11.92-7.74-18.4-4.47-2.58,1.3-5.13,2.42-8.02,2.67-.11-.06-.21-.12-.32-.19.09.07.19.14.28.21-.09,1.87-1.48,1.64-2.71,1.67-.31-.39-.62-.78-.94-1.18,6.61-9.19,23.6-9.97,30.9-1.41.74.86,1.1,2.07,2.34,2.45Z"/>
            <path class="cls-1" d="M159.45,257.59c2.31.22,4.62.44,6.93.66,8.1,2.43,16.23,1.73,24.36.18,2.04,1.39,3.31.36,4.35-1.38.56-.09,1.12-.17,1.67-.26.05.55.09,1.11.14,1.66-3.35,2.22-7.11,3.22-11.04,3.74-.41.11-.81.23-1.22.34-8.68.8-17.28,1-25.32-3.19.04-.58.09-1.17.13-1.75Z"/>
            <path class="cls-1" d="M235.98,255.56c-1.24-.38-1.61-1.59-2.34-2.45-7.3-8.56-24.29-7.78-30.9,1.41-1.29,1.09-2.77.56-4.19.5,1.38-1.77,2.45-4.64,4.2-5.13,6.78-1.92,12.72-7.15,20.47-5.42,6.7,1.5,12.2,6.2,12.76,11.09Z"/>
            <path class="cls-1" d="M268.25,268.04c-.78,2.32-3.24,3.13-4.54,4.98-.29-.01-.58-.02-.87-.04-.49-.64-.67-.32-.76.25l.11.07c-2.51-.98-4.57,2.08-7.11.81,2.16-1.47,5.23-1.59,6.74-4.33-1.39-.45-2.46.15-3.52.18-3.91.13-8.31,2.84-11.47-1.82,6.53,1.2,12.8,1.27,18.05-3.78.55-.52,1.58-.54,2.39-.79.64,1.42-4.23,4.04.97,4.46Z"/>
            <path class="cls-1" d="M78.57,259.26c.54.2,1.09.4,1.63.6.48,1.06,1.3,1.14,2.26.76.72.09,1.45.17,2.17.26,1.43,1.25,2.89,1.23,4.36.06,3.3-.36,6.47-1.21,9.45-2.7.84.11,1.65.27,2.03,1.17-6.05,5.19-12.83,6.02-20.19,3.36-1.05-.17-1.75-.86-2.41-1.6.24-.64.47-1.28.71-1.93Z"/>
            <path class="cls-1" d="M351.55,247.9c-.69-.38-.84-1.02-.86-1.73,2.49.17,3.65-.98,3.48-3.47,5.67-.68,11.3-2.96,17.03-.03,2.03,1.04,4.35,1.57,4.72,4.34-5.3-2.74-10.68-4.73-16.8-2.67-1.49.5-3.26.41-3.94,2.09-.76,1.88-2.27,1.36-3.63,1.48Z"/>
            <path class="cls-1" d="M246.83,268.15c3.15,4.66,7.56,1.96,11.47,1.82,1.06-.04,2.13-.63,3.52-.18-1.52,2.73-4.59,2.86-6.74,4.33-.59.05-1.17.09-1.76.14-.58,0-1.15,0-1.73,0-3.98-.73-6.38-3.93-9.49-6.03-.16-1.53-2.11-2.11-2.02-3.78.43-.06.86-.12,1.29-.18.53.33,1.05.66,1.58.98.73,1.43,1.65,2.59,3.45,2.59.08.2.22.31.44.31Z"/>
            <path class="cls-1" d="M286.35,240.95c0,2.04,0,4.08.01,6.13-.62,1-1.69.73-2.59.93-.1-2.7-2.44-6.22,2.58-7.05Z"/>
            <path class="cls-1" d="M268.25,268.04c-5.21-.42-.33-3.04-.97-4.46,1.43-1.03,2.85-2.07,4.28-3.1.03,1.36.06,2.71.08,4.07,0,0,0-.1,0-.1-.55.04-.84.35-.89.89,0,0,.02,0,.02,0-2.12-.38-2.98.5-2.61,2.61l.09.1Z"/>
            <path class="cls-1" d="M100.47,259.42c-.38-.9-1.19-1.05-2.03-1.17.35-.5.7-1,1.04-1.5,3.08-.23,5.02-2.82,7.78-3.72-1.04,3.43-3.25,5.61-6.8,6.38Z"/>
            <path class="cls-1" d="M241.36,264.26c-.43.06-.86.12-1.29.18-2.03-1.56-3.12-3.79-4.26-5.97.22-.21.44-.42.66-.63.41.12.83.24,1.24.36.19.78.7,1.28,1.42,1.6.41,1.66,2.4,2.52,2.23,4.46Z"/>
            <path class="cls-1" d="M198.55,255.02c1.42.07,2.9.59,4.19-.5.31.39.62.78.94,1.17-2.26.92-4.52,1.84-6.78,2.76-.05-.55-.09-1.11-.14-1.66.44-.6.89-1.2,1.33-1.8.14.16.3.17.46.03Z"/>
            <path class="cls-1" d="M283.77,248c.9-.2,1.97.07,2.59-.93.58-.02,1.16-.04,1.74-.06-1.47,2.97-3.97,4.23-7.18,4.35.95-1.12,1.9-2.24,2.84-3.37Z"/>
            <path class="cls-1" d="M195.09,257.05c-1.04,1.75-2.31,2.77-4.35,1.38,1.15-.59,2.3-1.19,3.45-1.78.3.13.6.27.9.4Z"/>
            <path class="cls-1" d="M88.99,260.94c-1.47,1.17-2.92,1.19-4.36-.06,1.41-.17,2.81-.33,4.22-.5.08.18.13.37.14.56Z"/>
            <path class="cls-1" d="M246.39,267.83c-1.8,0-2.73-1.16-3.45-2.59,1.85-.07,3.64-.05,3.45,2.59Z"/>
            <path class="cls-1" d="M195.09,257.05c-.3-.13-.6-.27-.9-.4.43-2.6,2.38-1.62,3.9-1.66-.44.6-.88,1.2-1.33,1.8-.56.09-1.12.17-1.67.26Z"/>
            <path class="cls-1" d="M307.22,239.21c-1.12.48-2.4,1.4-2.61-.87,1.44-1.42,2.26-.98,2.61.87Z"/>
            <path class="cls-1" d="M317.66,244.42c-1.59-.3-3.21-.54-3.48-2.6,1.59.3,3.21.55,3.48,2.6Z"/>
            <path class="cls-1" d="M239.13,259.8c-.71-.32-1.23-.82-1.42-1.6,2.24-1.03,1.42.64,1.42,1.6Z"/>
            <path class="cls-1" d="M235.15,258.29c-.04-.74.05-1.42.85-1.75.16.43.31.87.47,1.3-.22.21-.44.42-.66.63-.23-.01-.45-.07-.66-.18Z"/>
            <path class="cls-1" d="M273.3,258.76c-.1.77-.36,1.11-1.01.36.34-.12.67-.24,1.01-.36Z"/>
            <path class="cls-1" d="M420.25,205.33c-2.68,1.92-5.72,2.68-8.95,2.57-2.01-.07-3.42.5-3.93,2.53-.61,2.44-2.02,3.82-4.64,3.54-2.43-.26-4.01-2.26-3.86-4.08.65-7.9-6.3-6.68-10.29-8.8-1.79-.95-4.21-.7-6.34-1-1.91-.27-4.1-.65-4.39-2.83-.45-3.36-2.6-3.25-5.02-3.25-35.35.02-70.71.02-106.06,0-2.26,0-4.41-.11-5.02,2.85-.11.54-1,1.31-1.54,1.31-5.52.08-10.36,3.21-16.1,2.95-10.67-.49-21.37-.12-32.05-.97-10.26-.82-20.47,1.16-30.75.91-3.35-.08-6.57-.84-9.88-1.03-1.78-.11-3.03-1.27-3.2-3.02-.28-2.84-2.11-3.03-4.31-3-4.2.05-8.4-.02-12.61.02-3.44.03-7.22-1.06-8.28,4.3-.4,2.02-3.19,2.65-5.52,2.65-12.9-.02-25.8.18-38.68-.13-3.79-.09-8.71-.39-11.05-2.69-3.14-3.08-8.5-4.26-9.44-9.54-.2-1.12-1.27-1.49-2.36-1.55-.31-2.37-1.92-4.32-1.82-6.92.15-3.74,1.26-6.37,5.3-6.97-.07,2.39-.45,5.08,3.48,3.47,0,6.9,0,6.96,7.09,7.77,1.56.18,3.03.48,3.66,1.86.99,2.17,2.98,2.52,4.82,3.28,3.34,1.39,6.84.77,10.28,1.02,2.37.17,5.32-.02,6.18,2.87.88,2.92,2.68,3.33,5.24,3.2,2.6-.14,5.21-.12,7.82,0,2.85.12,5.37.18,6.33-3.48.51-1.95,2.78-2.09,4.59-2.71,3.63-1.24,7.89-.92,10.5-4.88,1.42-2.16,18.63-1.54,20.45.27,3.94,3.91,9.46,4.19,13.98.71,2.39-1.84,4.69-1.82,7.02.21,2.93,2.54,6.52,3.67,10.27,3.72,10.86.15,21.72.01,32.58.09,2.2.02,3.67-.4,4.9-2.56,2.04-3.6,6.15-3.97,8.95-.77,1.69,1.94,2.71,1.54,4.18.1,3.15-3.08,6.39-2.86,9.56-.05,1.99,1.77,3.63,1.71,5.59-.25,2.64-2.64,5.71-2.67,8.42-.07,1.69,1.63,3.07,2.2,4.49-.04,1.7-2.69,4.24-2.94,6.87-2.19,2.63.76,5.05.56,7.64-.13,5.37-1.43,10.76-1.02,16.28-.49,6.23.6,12.45,2.18,18.9.55,3.06-.77,6.91-1.44,9.1,2.73,1.07,2.04,2.88,1.18,3.7-.44,1.22-2.4,3.14-2.67,5.43-2.54,1.88.11,3.88-.75,5.53-.56,9.42,1.14,20.08-4.6,28.09,4.79.32.38,1.05.49,1.61.59,2.47.45,4.05,2.15,5.5,3.96,5.07,6.34,17.91,8.57,24.83,4.26,6.65,2.15,6.8,1.91,7.01-5.54.14-5.1-.98-10.29.82-15.31,1.65.07,1.97,1.42,2.5,2.58,2.44,5.29,1.82,10.92,1.82,16.48,0,1.44-.81,2.5-1.97,3.13-2.66,1.42-3.36,3.72-3.22,6.48Z"/>
            <path class="cls-1" d="M82.91,176.66c-3.93,1.61-3.55-1.09-3.48-3.47,2.59-3.74,6.46-5.36,10.69-5.09,4.59.29,9.19-.24,13.67.09,5.21.39,10.3-.21,15.44-.21,93.87,0,187.75,0,281.62-.01,6.5,0,11.98,3.73,18.19,4.81,1.62.28,2.24,2.12,2.08,3.89-1.79,5.02-.67,10.21-.82,15.31-.21,7.45-.36,7.7-7.01,5.54,0-2.9.02-5.79-.01-8.69-.01-1.12.36-2.48-.76-3.23-2.27-1.51-2.52-4.08-2.53-6.16-.03-4.87-3.56-6.75-6.89-6.88-12.01-.48-24.16-1.15-36.02.23-5.54.64-10.37.5-15.5-.85-1.37-.36-2.86-.25-4.28-.5-6.31-1.09-12.2,1.86-18.44,1.79-13.13-.14-26.28.24-39.4-.13-10.78-.3-21.7,1.74-32.36-1.55-.61-.19-1.45.09-2.09.38-3.15,1.41-6.49,1.09-9.81,1.31-6.53.44-13.01-1.74-19.43-.76-5.65.86-11.25.54-16.86.68-3.17.08-6.22-1.03-9.45-.89-10.02.44-20.06.55-30.09.94-8.11.32-16.16-.8-24.23-.79-4.71,0-9.56,2.08-14.09,1.41-8.63-1.28-17.36.5-25.9-1.44-1.63-.37-3.48-.38-5.1.51-2.57,1.41-5.15,1.18-7.97.66-3.43-.63-6.94-.39-9.16,3.09Z"/>
            <path class="cls-1" d="M235.15,258.29c.21.11.43.17.66.18,1.15,2.19,2.24,4.41,4.26,5.97-.08,1.66,1.86,2.24,2.02,3.78-.05.8-.1,1.6-.15,2.39-3.51-2.83-5.45-6.94-8.39-10.24-1.33-1.49-2.69-2.87-4.38-3.92-1.48-3.49-4.64-3.53-7.65-3.48-6.87.1-12.84,3.12-18.75,6.21-5.27,2.76-10.66,5.18-16.59,6.13-11.81,1.9-22.99-.16-33.64-5.46-7.35-3.65-14.35-8.1-22.57-9.71-6.62-1.3-12.62-.3-17.61,4.61,0,0,0,0,0,0-1.56.36-2.66,1.3-3.44,2.66,0,0,0,0,0,0-1.9.59-3.23,1.9-4.39,3.44,0,0,0,0,0,0-2.01.67-3.63,1.94-5.18,3.32-.6.31-1.2.62-1.8.93-5.53,1.46-11.04,3.53-16.7.47,1.46-1.28-1.09-1.7-.6-2.77,7.36,2.65,14.14,1.83,20.2-3.36,3.54-.77,5.75-2.95,6.8-6.38,0-1.67.96-2.41,2.51-2.57.27.49.5,1.39.81,1.41,2.69.23,7.13-3.54,7.97-6.63,7.31-3.42,14.03-.41,20.62,2.21,5.61,2.23,10.81,5.43,16.53,7.45.82.29,1.05.9,1.1,1.66-.05,1.73.75,2.69,2.51,2.78,8.04,4.2,16.64,4,25.32,3.19.41-.11.81-.23,1.22-.34,3.93-.51,7.69-1.52,11.04-3.74,2.26-.92,4.52-1.84,6.78-2.76,1.23-.03,2.61.2,2.71-1.67l.04-.03c2.89-.26,5.43-1.37,8.02-2.67,6.49-3.27,12.5-1.7,18.4,4.47.78.82,1.54,1.66,2.3,2.49Z"/>
            <path class="cls-1" d="M112.38,254.75c4.98-4.91,10.98-5.91,17.61-4.61,8.23,1.61,15.23,6.06,22.57,9.71,10.65,5.29,21.83,7.35,33.64,5.46,5.93-.95,11.32-3.37,16.59-6.13,5.91-3.09,11.87-6.11,18.75-6.21,3.01-.04,6.16,0,7.65,3.48-9.62-3.98-17.74.19-25.89,4.61-15.42,8.37-31.24,9.2-47.31,2.01-5.38-2.4-10.42-5.59-15.87-7.78-8.05-3.23-16.31-6.3-24.8-1.03-.9.56-1.9.66-2.93.49Z"/>
            <path class="cls-1" d="M392.47,260.64c.01-1.77-3.86-.41-2.58-3.2,5.67,1.76,11.56.64,17.29,1.39,2.07.27,3.47-2.51,5.6-.85-6.16,6.43-13.21,6.96-20.31,2.66Z"/>
            <path class="cls-1" d="M318.61,257.31c4.4,1.81,8.7,3.96,13.52,4.5,3.92.45,7.79.37,11.57-.96-.7,3-3.67,2.98-5.48,3-6.59.1-12.97-1.34-18.76-4.72-.71-.41-.87-1.08-.85-1.82Z"/>
            <path class="cls-1" d="M241.95,270.62c.05-.8.1-1.6.15-2.39,3.11,2.09,5.51,5.29,9.49,6.03.57.68,1.15.67,1.73,0,.59-.05,1.17-.09,1.76-.14,2.55,1.27,4.6-1.8,7.11-.81-.43.46-.85.92-1.28,1.38-.54.27-1.08.55-1.62.82-.92.08-1.88.07-2.53.91-.84.12-1.68.25-2.52.37-2.77-.06-5.29-1.08-7.83-2.04-1.28-1.6-3.59-2.08-4.46-4.12Z"/>
            <path class="cls-1" d="M348.89,257.41c6.85-7.42,15.7-9.75,22.65-5.95-8.13-1.16-15.17,1.66-21.8,5.97-.2.13-.56,0-.85-.02Z"/>
            <path class="cls-1" d="M80.87,265.55c5.66,3.06,11.17.99,16.7-.47-.02.28.08.67-.07.84-4.07,4.63-16.01,3.66-19.76-1.6,1.05.41,2.09.82,3.14,1.23Z"/>
            <path class="cls-1" d="M285.42,252.18c6.53-5.59,14.66-6.54,20.91-2.45-.23.16-.53.52-.66.46-6.38-2.66-12.3-1.06-18.13,1.8-.59.29-1.4.13-2.11.19Z"/>
            <path class="cls-1" d="M423.04,252.44c-1.31,1.53-2.68,3.02-3.92,4.6-1.5,1.91-2.34.75-3.19-.58-.76-3.17,2.63-2.96,3.76-4.58.93.34,1.85.46,2.77-.05.2.21.39.41.59.62Z"/>
            <path class="cls-1" d="M419.68,251.87c-1.13,1.63-4.51,1.41-3.76,4.58-1.31-.25-2.04.78-2.97,1.36-.18-.99-.35-1.98-.53-2.97.95-1.77,3.55-1.49,4.34-3.48,0,0,0,0,0,0,.56,0,1.12,0,1.68,0,.35-.02.69-.04,1.04-.05.15.15.21.34.19.55Z"/>
            <path class="cls-1" d="M246.41,274.74c2.54.97,5.06,1.98,7.83,2.04-3.12,2.57-5.37,1.99-7.83-2.04Z"/>
            <path class="cls-1" d="M99.37,264.15c1.55-1.38,3.18-2.65,5.18-3.32-.77,2.59-2.02,4.45-5.18,3.32Z"/>
            <path class="cls-1" d="M80.87,265.55c-1.05-.41-2.09-.82-3.14-1.23-.49-.63-.98-1.27-1.46-1.9.28-.31.56-.63.84-.94.29,0,.54-.09.75-.3.66.75,1.37,1.43,2.41,1.6-.49,1.07,2.06,1.49.6,2.77Z"/>
            <path class="cls-1" d="M104.56,260.84c1.16-1.54,2.49-2.84,4.39-3.44-.34,2.57-1.84,3.68-4.39,3.44Z"/>
            <path class="cls-1" d="M376.87,254.75c1.55.37,2.65,1.33,3.49,2.64-1.95.15-3.5-.22-3.49-2.64Z"/>
            <path class="cls-1" d="M108.94,257.41c.78-1.37,1.88-2.3,3.44-2.66.02,2.39-1.51,2.79-3.44,2.66Z"/>
            <path class="cls-1" d="M256.76,276.41c.65-.84,1.61-.83,2.53-.91-.19,2.12-1,2.52-2.53.91Z"/>
            <path class="cls-1" d="M268.15,267.94c-.37-2.11.49-2.98,2.61-2.61-.29,1.45-1.02,2.45-2.61,2.61Z"/>
            <path class="cls-1" d="M374.24,252.99c1.15.18,2.04.74,2.62,1.77-1.37.14-2.65.16-2.62-1.77Z"/>
            <path class="cls-1" d="M260.91,274.68c.43-.46.85-.92,1.28-1.38,0,0-.11-.07-.11-.07.29.04.55-.04.76-.25.29.01.58.02.87.04-.08,1.99-1.42,1.86-2.8,1.66Z"/>
            <path class="cls-1" d="M282.95,254.02c.44-1.13,1.32-1.68,2.47-1.85.06,1.8-1.18,1.85-2.47,1.85Z"/>
            <path class="cls-1" d="M385.59,261.61c1.08.32,1.98.87,2.49,1.93-1.36.04-2.64-.02-2.49-1.93Z"/>
            <path class="cls-1" d="M389.05,264.24c1.12.25,2.02.84,2.67,1.78-1.39.15-2.74.24-2.67-1.78Z"/>
            <path class="cls-1" d="M270.74,265.33c.05-.55.34-.85.89-.89.06.65-.2.99-.89.89Z"/>
            <path class="cls-1" d="M64.61,243.68c.52-1.78-1.63-1.9-1.97-3.15.76-.5,1.52-1,2.28-1.5,3.68,1.43,4.22,5.08,5.53,8.09.63,1.45-.92.73-1.57.82,0,0,.09.02.09.02-.21-.66-.76-.84-1.36-.93l-.35-.11s-.04-.37-.04-.37c.03-.85.19-1.76-.92-2.12,0,0,.06.06.06.06-.24-.99-.95-1.06-1.77-.91l.02.08Z"/>
            <path class="cls-1" d="M76.91,260.03c-2.1-.83-2.73-2.63-3.64-5.19,2.66.77,4.45,1.3,4.47,3.88-.28.44-.55.87-.83,1.31Z"/>
            <path class="cls-1" d="M76.91,260.03c.28-.44.55-.87.83-1.31.27.18.55.36.83.54-.24.64-.47,1.29-.71,1.93-.2.21-.45.31-.75.3-.07-.48-.13-.97-.2-1.45Z"/>
            <path class="cls-1" d="M82.46,260.62c-.97.38-1.78.29-2.26-.76,1-.49,1.68,0,2.26.76Z"/>
            <path class="cls-1" d="M418.45,251.37c-.56,0-1.12,0-1.68,0,1.83-3.21,4.33-5.77,7.39-7.82,1.37-.91,2.59-1.47,3.03.85.04.37.08.75.12,1.12-2.6,1.68-5.2,3.35-7.8,5.03-.36.27-.71.55-1.07.82Z"/>
            <path class="cls-1" d="M432.42,242.69c-1.16.29-2.32.59-3.48.88,1.43-2.73,2.1-2.9,3.48-.88Z"/>
            <path class="cls-1" d="M66.31,244.44c1.11.36.95,1.27.92,2.12-.5-.62-1.48-1.03-.92-2.12Z"/>
            <path class="cls-1" d="M64.59,243.6c.82-.15,1.54-.08,1.77.91-1.02.52-1.46-.06-1.77-.91Z"/>
            <path class="cls-1" d="M67.62,247.04c.6.09,1.15.27,1.36.93-.81.22-1.04-.43-1.36-.93Z"/>
            <path class="cls-1" d="M419.52,250.55c2.6-1.68,5.2-3.35,7.8-5.03.45,0,.9,0,1.36,0,.06.48.12.97.18,1.46-2.42,1.24-4.83,2.49-6.4,4.84-.92.5-1.84.38-2.77.04.02-.21-.05-.39-.19-.55.1-.25.11-.51.03-.77Z"/>
            <path class="cls-1" d="M428.86,246.99c-.06-.49-.12-.97-.18-1.46.94-.1,1.88-.2,3.23-.35-.78,1.62-1.86,1.82-3.05,1.81Z"/>
            <path class="cls-1" d="M420.25,213.15c-1.05-.14-2.51.29-2.36-1.56.02-.3.5-.78.8-.8,1.85-.14,1.42,1.32,1.56,2.36Z"/>
            <path class="cls-1" d="M379.38,249.63c-3.27,1.92-3.3-.43-3.44-2.62,1.73.1,2.68,1.23,3.44,2.62Z"/>
            <path class="cls-1" d="M387.21,255.71c-.07.48-.05,1.25-.72,1.08-.9-.23-.97-1.14-.95-1.96.69.05,1.32.21,1.67.89Z"/>
            <path class="cls-1" d="M328.96,255.73c1.91.08,3.83.16,5.75.23,1.37,2.16,2.77,2.17,4.19.05,1.15-.01,2.28-.07,3.1-1.05.78.47,2.73-.66,2.21,1.6-1.37,1.03-2.81,1.93-4.55,2.19-1.28-.53-2.55-.78-3.75.22-.56-.05-1.13-.1-1.69-.15-.26-.56-.57-.61-.94-.1-1.52-.33-3.05-.66-4.57-.99.08-.67.17-1.33.25-2Z"/>
            <path class="cls-1" d="M288.94,247.01c-.27-1.79,1.15-2.09,2.32-2.45,4.4-1.37,8.83-1.68,13.24,0-.05.46-.09.91-.14,1.37-5.29-1.85-10.33-.05-15.42,1.08Z"/>
            <path class="cls-1" d="M318.61,251.85c1.8.49,3.79.51,5.14,2.09-.38.62-.75,1.24-1.13,1.85-1.91-.73-5.12-.14-4.02-3.94Z"/>
            <path class="cls-1" d="M322.63,255.79c.38-.62.75-1.24,1.13-1.85.32.08.63.15.95.23,0,0,.19.19.19.19l.26-.06c1.19.69,2.84.19,3.81,1.44-.08.67-.17,1.33-.25,2-2.29.17-4.17-.91-6.08-1.94Z"/>
            <path class="cls-1" d="M304.35,245.92c.05-.46.09-.91.14-1.37,1.94-.7,3.1.85,4.55,1.56-1.73,4.08-3.13-.01-4.68-.19Z"/>
            <path class="cls-1" d="M344.21,256.57c.52-2.26-1.43-1.13-2.21-1.6.16-2.15,1.84-2.4,3.44-2.74,0,.3.02.59.03.89-.28,1.23-3.02,1.5-1.35,3.48l.08-.03Z"/>
            <path class="cls-1" d="M344.12,256.59c-1.67-1.98,1.07-2.25,1.35-3.48.85-.11,1.7-.22,2.55-.33l.18,1.31c-1.41.74-2.13,2.61-4.08,2.49Z"/>
            <path class="cls-1" d="M348.2,254.1c-.06-.44-.12-.88-.18-1.31.21-.52.43-1.03.64-1.55.96-.26,1.92-.52,2.88-.78.08,2.3-2.48,2.19-3.34,3.64Z"/>
            <path class="cls-1" d="M335.91,258.98c1.19-1,2.46-.75,3.75-.22-1.2.86-2.45.89-3.75.22Z"/>
            <path class="cls-1" d="M351.52,250.48c0-.31,0-.61,0-.92.44.2.88.4,1.33.61-.38.36-.77.68-1.33.32Z"/>
            <path class="cls-1" d="M333.28,258.72c.37-.51.69-.45.94.1-.31-.03-.63-.07-.94-.1Z"/>
            <path class="cls-1" d="M382.86,253.13c-.07.12-.14.24-.21.36.06-.13.13-.25.19-.38,0,0,.02.02.02.02Z"/>
            <path class="cls-1" d="M118.55,245.24c-.84,3.09-5.28,6.86-7.97,6.63-.31-.03-.54-.92-.81-1.41,2.54-2.39,5.45-4.15,8.78-5.22Z"/>
            <path class="cls-1" d="M159.32,259.34c-1.76-.09-2.57-1.05-2.51-2.78,1.14-.33,1.88.39,2.65,1.03-.04.58-.09,1.17-.13,1.75Z"/>
            <path class="cls-1" d="M338.9,256.01c-1.42,2.12-2.82,2.12-4.19-.05,1.41-.65,2.8-.56,4.19.05Z"/>
            <path class="cls-1" d="M348.67,251.24c-.21.52-.43,1.03-.64,1.55-.85.11-1.7.22-2.55.33,0-.3-.02-.59-.03-.89,1.07-.33,2.15-.66,3.22-.99Z"/>
            <path class="cls-1" d="M325.15,254.29l-.26.06s-.19-.19-.19-.19c.21-.24.42-.48.62-.71.02.3-.04.58-.18.84Z"/>
            <path class="cls-1" d="M206.38,254.03c-.09-.07-.19-.14-.28-.21.11.06.21.12.32.19,0,0-.04.03-.04.03Z"/>
            <path class="cls-1" d="M185.86,262.19c-.41.11-.81.23-1.22.34.41-.11.81-.23,1.22-.34Z"/>
            <path class="cls-1" d="M262.84,272.99c-.21.21-.46.29-.76.25.09-.56.27-.89.76-.25Z"/>
            <path class="cls-1" d="M253.32,274.25c-.58.67-1.16.68-1.73,0,.58,0,1.15,0,1.73,0Z"/>
            <path class="cls-1" d="M82.91,176.66c2.22-3.48,5.73-3.72,9.16-3.09,2.82.51,5.41.75,7.97-.66,1.62-.89,3.48-.88,5.1-.51,8.55,1.93,17.27.15,25.9,1.44,4.52.67,9.38-1.4,14.09-1.41,8.07,0,16.12,1.11,24.23.79,10.03-.39,20.06-.51,30.09-.94,3.24-.14,6.29.97,9.45.89,5.62-.14,11.21.18,16.86-.68,6.42-.98,12.9,1.2,19.43.76,3.31-.22,6.65.1,9.81-1.31.64-.28,1.48-.57,2.09-.38,10.65,3.29,21.57,1.25,32.36,1.55,13.13.37,26.27-.01,39.4.13,6.23.07,12.13-2.88,18.44-1.79,1.41.24,2.9.13,4.28.5,5.13,1.36,9.97,1.5,15.5.85,11.86-1.38,24.01-.71,36.02-.23,3.32.13,6.86,2.01,6.89,6.88.01,2.08.26,4.65,2.53,6.16,1.12.75.75,2.1.76,3.23.04,2.9.01,5.79.01,8.69-6.92,4.31-19.76,2.08-24.83-4.26-1.45-1.81-3.03-3.51-5.5-3.96-.56-.1-1.28-.21-1.61-.59-8.01-9.39-18.67-3.65-28.09-4.79-1.65-.2-3.65.66-5.53.56-2.3-.13-4.21.14-5.43,2.54-.82,1.62-2.63,2.48-3.7.44-2.2-4.17-6.05-3.5-9.1-2.73-6.45,1.62-12.67.05-18.9-.55-5.52-.53-10.91-.95-16.28.49-2.59.69-5.01.89-7.64.13-2.62-.75-5.16-.5-6.87,2.19-1.42,2.24-2.8,1.67-4.49.04-2.71-2.6-5.78-2.57-8.42.07-1.96,1.96-3.59,2.02-5.59.25-3.17-2.81-6.41-3.03-9.56.05-1.47,1.44-2.49,1.84-4.18-.1-2.8-3.2-6.91-2.83-8.95.77-1.22,2.17-2.69,2.58-4.9,2.56-10.86-.08-21.72.06-32.58-.09-3.75-.05-7.35-1.18-10.27-3.72-2.33-2.03-4.63-2.04-7.02-.21-4.52,3.47-10.04,3.19-13.98-.71-1.82-1.81-19.04-2.42-20.45-.27-2.61,3.96-6.87,3.64-10.5,4.88-1.81.62-4.08.76-4.59,2.71-.96,3.66-3.47,3.6-6.33,3.48-2.6-.11-5.22-.13-7.82,0-2.56.13-4.36-.28-5.24-3.2-.87-2.89-3.81-2.7-6.18-2.87-3.44-.25-6.94.37-10.28-1.02-1.84-.77-3.83-1.12-4.82-3.28-.63-1.39-2.11-1.68-3.66-1.86-7.09-.82-7.08-.87-7.09-7.77Z"/>
            <path class="cls-1" d="M419.52,250.55c.08.26.07.51-.03.77-.35.02-.69.04-1.04.05.36-.27.71-.55,1.07-.82Z"/>
          </g>
        </g>
        <g id="TWg2xq-2" data-name="TWg2xq">
          <g>
            <path class="cls-1" d="M820.95,209.23v8.16c-3.63,1.08-6.03,4.43-9.5,5.58-3.65,1.21-5.24,3.56-5.71,7.11-.3,0-.6,0-.89,0-2.24-.15-3.86,1.37-5.77,2.11-5.02,1.96-7,7.17-11.08,10.2-3.94,2.93-7.38,2.95-11.07-.48-1.74-1.62-2.51-4.83-5.65-4.54-4.12.38-7.6-1.94-9.94-4.32-3.92-3.98-8.09-3.63-12.2-2.26-5.65,1.89-12.09,1.89-16.68,6.8-1.28,1.37-3.4,2.06-5.5,2.64-7.64,2.1-15.34-.76-22.93.7-1.08.21-2-.39-2.79-1.16-7.1-6.93-15.86-6.93-24.79-5.93-1.89.21-3.85.97-4.03,3.5h-1.79c-4-2.18-5.14.71-6.26,3.63-.6,0-1.19,0-1.79,0-2.22.48-3.95,1.65-5.72,3.17-5.45,4.71-11.16,9.01-19.1,7.76-2.33-.37-4.8-.35-7.13,0-5.86.87-9.27-3.05-11.95-6.94-3.45-5.01-7.58-9.18-12.98-11.24-4.75-1.81-10.27-2.16-15.08.27-5.44,2.75-10.15,6.91-16.95,6.14-12.95-1.47-26.06,2.07-39.09-2.57-5.78-2.06-10.55-5.02-13.91-9.27-7.71-9.73-18.36-10.62-28.57-9.53-12.49,1.33-23.89-1.66-35.52-4.7-1.84-.48-3.53-1.58-4.86-3.1-1.53-1.75-3.61-3.02-5.74-3.29-4.07-.51-5.45-3.12-6.22-6.58,5.94,3.16,12.42,4.76,18.23,8.77,6.48,4.47,15,5.15,23,5.69,6.8.46,13.62-.2,20.46.78,4.19.6,8.6,1.99,13.02-.5,2.1-1.18,4.41.39,4.87,3.14.46,2.72,1.92,3.95,4.56,3.88,1.23-.03,2.82,0,3.18,1.15,1.25,4,4.84,3.26,7.58,4.08,2.2.65,4.1.22,4.48-2.78.43-3.34,2.75-4.32,5.8-4.27,4.32.06,8.64.08,12.96,0,2.96-.06,5.31.65,6.21,3.88.48,1.73,1.99,2.7,3.38,2.25,2.85-.92,6.03-.28,8.61-2.98,2.29-2.4,5.9-2.27,8.48.06,2.29,2.06,3.76,2.87,5.18-.62.77-1.89,2.46-2.52,4.37-2.55,2.23-.04,4.47-.01,6.7-.02,1.33.79,2.78.94,4.3.93,2.44-.02,5.42.34,6.58,2.18,4.04,6.36,10.02,6.24,16.21,5.95,3.1-.14,5.68.26,6.14,4.17.22,1.92,1.76,2.19,3.36,2.18,1.37-.01,3.28-.02,3.31-1.56.13-6.18,4.51-4.95,7.95-4.71,6.83.49,13.97.21,19.12-4.03,4.88-4.01,9.88-3.87,15.16-4.17,13.53-.78,27.03,1.39,40.55.77,4.4-.2,10.22,1.29,11.46-5.84.13-.74.92-1.31,1.71-1.21,4.21.52,9.04-2.01,12.45,2.62.8,1.09,2.25,1.28,3.26.59,3.99-2.74,8.41-1,12.6-1.46,1.72-.19,2.8.78,3.42,2.32,1.6,3.93,4.65,5.28,8.61,4.89,2.72-.27,4.66.42,6.37,2.95,1.81,2.68,7.26,2.35,8.88-.31,2.13-3.5,5.22-4.58,8.99-4.44,2.49-.5,3.98-2.01,4.47-4.53v-2.72c.89,0,1.79,0,2.68,0,1.11-.04,2.22-.44,2.47-1.52,1.39-5.92,5.24-6.36,10.06-4.82Z"/>
            <path class="cls-1" d="M670.61,237.32h1.79c2,.28,3.76-.82,5.65-1.06,5.76-.74,11.96.67,16.68,2.48,4.47,1.71,8.58,4.87,13.83,5.61,5.6.79,11.34,2.45,16.65.08,4.55-2.03,7.95-1.85,11.21,1.87.21.23.86.07,1.31.08.17,2.6-1.02,3.81-3.58,3.62-3.91-3.8-5.08-3.76-7.96.78-1.08,1.7-2.54,2.44-4.1,1.8-6.2-2.54-13.36-.67-19.27-4.4-.89,0-1.79,0-2.68,0-.28-2.15-1.95-2.41-3.58-2.72-2.09-.6-4.18-1.21-6.26-1.81-.3-.3-.6-.6-.9-.91-.36-1.93-1.2-2.39-2.68-.91-2.43-.77-4.98-1.42-7.43-.83-3.85.93-7.58,2.34-11.37,3.55-5.17.87-2.76,4.54-2.66,7.36-.98,1.17-1.95,2.34-2.93,3.51-2.82,2.36-6.49,3.84-7.85,7.72-.35.13-.69.25-1.04.38-.6.28-.83.76-.76,1.41-1.47,1.08-2.94,2.16-4.41,3.24-.83.26-1.9.28-2.46.83-5.41,5.26-11.86,5.19-18.58,3.94-.22,0-.38-.11-.45-.33.19-2.76-1.64-2.78-3.55-2.7-.54-.34-1.08-.68-1.62-1.03.17-2.03-1.88-2.93-2.3-4.66,0-1,.85-2.75-1.46-1.67-.43-.13-.85-.25-1.28-.37-.16-.45-.32-.9-.48-1.36,0-.34,0-.68-.01-1.02-.58-5.11-6.24-10.01-13.14-11.57-7.98-1.81-14.09,3.65-21.07,5.66-1.79.52-2.9,3.5-4.32,5.35-.17.15-.32.14-.47-.03-1.56.04-3.57-.98-4.02,1.73-1.18.62-2.36,1.24-3.55,1.86-8.37,1.61-16.73,2.34-25.07-.19-.27-2.13,1.06-2.93,2.77-3.44.78-.24,2.03.15,2.13-1.1.1-1.32-1.13-1.68-2.07-2.02-.96-.35-2.01-.4-3.02-.62-4.3-.93-8.82-1.29-12.83-2.93-6.03-2.46-11.4-6.36-17.45-8.98-9.27-4-17.78-4.4-25.47,3.15-2.02,1.99-4.58,3.54-6.26,5.63-2.27,2.83-5.86,4.75-6.65,8.74-.36.52-.72,1.04-1.08,1.56-3.07,1.56-6.32,2.44-9.72,2.82-.01-.2-.06-.4-.14-.59.65-1.36,1.26-2.66.52-4.28-.69-1.5-.07-2.96,1.51-3.1,5-.46,8.12-4.71,12.74-6.15,2.69-.84,5.13-3.54,6.08-6.8.32-1.08,1.36-2.32-.04-3.24-1.1-.72-2.25.02-3.38.43-1.7.61-2.11,3.11-4.31,2.86-6.01-.69-12.54,2.08-17.92-2.86-.58-.53-1.67-.69-2.52-.71-5.14-.08-8.07-2.87-9.57-7.64-1.69-5.36-8.78-10.53-14.27-10.53v-12.69c1.59.15,3.72-.69,4.61.89,1.67,2.97,4.89,3.18,7.08,4.9,3.91,3.08,8.53,4.83,12.54,7.72,3.09,2.23,6.79,5.68,11.22,4.4,5.61-1.62,11.33-.6,17.18-2.93,9.36-3.73,19.2-1.42,27.88,4.35,2.46,1.64,5,2.92,7.06,5.3,5.41,6.25,13.17,8.83,20.66,10.45,9.7,2.1,19.85,1.71,29.76,1.01,6.95-.49,14.55.19,20.07-5.91.62-.69,1.95-1.22,2.84-1.08,4.92.79,10.06,0,14.79,2.29,4.87,2.36,8.24,6.37,11.41,10.54,2.37,3.12,5.67,5.61,9.04,5.86,8.7.64,17.84,1.22,23.21-8.34.37-.66,1.42-1.2,2.22-1.31,4.32-.6,6.24-3.61,7.52-7.34.6,0,1.19,0,1.79,0,2.39-.67,4.35-2.12,6.26-3.63Z"/>
            <path class="cls-1" d="M600.82,221.01c-2.23,0-4.47-.02-6.7.02-1.91.03-3.59.66-4.37,2.55-1.43,3.49-2.89,2.68-5.18.62-2.58-2.33-6.19-2.45-8.48-.06-2.58,2.7-5.76,2.06-8.61,2.98-1.4.45-2.9-.52-3.38-2.25-.9-3.23-3.24-3.95-6.21-3.88-4.32.09-8.64.07-12.96,0-3.05-.04-5.37.93-5.8,4.27-.38,3-2.28,3.43-4.48,2.78-2.74-.81-6.33-.08-7.58-4.08-.36-1.16-1.95-1.18-3.18-1.15-2.64.07-4.11-1.16-4.56-3.88-.46-2.75-2.77-4.32-4.87-3.14-4.42,2.49-8.83,1.1-13.02.5-6.84-.98-13.66-.31-20.46-.78-7.99-.54-16.52-1.21-23-5.69-5.81-4.01-12.29-5.61-18.23-8.77-2.09,0-4.18,0-6.26,0v-22.66c1.33.03,2.11-.93,3.04-1.68,3.34-2.72,6.37-6.36,10.2-7.81,6.27-2.38,12.94-4.09,19.79-4.09,108.26-.02,216.51-.01,324.77,0,2.07,0,4.1.02,6.18.64,8.11,2.42,16.56,3.88,23.49,9.32v34.44c-4.82-1.54-8.67-1.1-10.06,4.82-.25,1.08-1.36,1.48-2.47,1.52,1.54-3.54.86-6.33-2.69-8.16-.15-2.88.57-5.28,3.31-6.76,1.2-.65,2.03-1.76,2.03-3.26,0-5.8.64-11.67-1.87-17.19-.55-1.21-.88-2.62-2.58-2.69.17-1.85-.47-3.77-2.14-4.06-6.4-1.12-12.04-5.01-18.72-5.01-96.62.02-193.23.01-289.85.01-5.29,0-10.53.63-15.89.22-4.61-.35-9.34.21-14.07-.09-4.35-.28-8.33,1.41-11,5.31-4.16.63-5.3,3.38-5.45,7.28-.11,2.71,1.55,4.75,1.87,7.22.12,1.69.06,3.46-1.06,4.74-1.84,2.09-1.46,3.72.6,5.21,4.21,3.06,8.8,5.13,13.88,6.47,4.9,1.29,10.3,2.01,13.55,6.87,1.14,1.7,2.47,1.71,3.35-.13.76-1.59,1.62-3.26,3.42-3.1,6.16.55,12.8-2.34,18.38,2.64,1.29,1.15,3.1.87,4.74.86,6.85,0,13.7-.01,20.55,0,1.46,0,3.25-.48,4.24.83,2.97,3.95,7.32,3.49,11.29,3.61,9.08.26,18.16.1,27.25.07,2.43,0,4.77-.03,6.34,2.37.85,1.31,2.78,1.88,3.47.88,3.02-4.42,7.83-2.92,11.79-3.95,4.36-1.14,7.31,1.21,7.65,5.24Z"/>
            <path class="cls-1" d="M433.48,167.54c0-3.32-1.28-7.94.36-9.6,1.64-1.66,6.2-.36,9.48-.36h371.8q5.82,0,5.82,5.89v2.27c-1.49-.6-2.95-1.57-4.49-1.73-7.51-.75-15.05-1.81-22.57-1.82-109.58-.11-219.16-.16-328.74.11-6.64.02-13.48.25-20.23,2.08-3.78,1.03-7.24,3.7-11.44,3.17Z"/>
            <path class="cls-1" d="M433.48,201.07c2.09,0,4.18,0,6.26,0,.77,3.45,2.15,6.07,6.22,6.58,2.13.27,4.2,1.53,5.74,3.29,1.33,1.52,3.02,2.62,4.86,3.1,11.63,3.05,23.03,6.03,35.52,4.7,10.21-1.09,20.86-.2,28.57,9.53,3.36,4.25,8.13,7.21,13.91,9.27,13.03,4.64,26.14,1.1,39.09,2.57,6.81.77,11.51-3.39,16.95-6.14,4.82-2.43,10.34-2.08,15.08-.27,5.4,2.06,9.53,6.23,12.98,11.24,2.68,3.9,6.09,7.81,11.95,6.94,2.33-.35,4.81-.37,7.13,0,7.94,1.25,13.64-3.05,19.1-7.76,1.77-1.53,3.5-2.69,5.72-3.17-1.28,3.73-3.2,6.74-7.52,7.34-.8.11-1.85.65-2.22,1.31-5.36,9.56-14.51,8.97-23.21,8.34-3.37-.25-6.67-2.74-9.04-5.86-3.17-4.17-6.53-8.17-11.41-10.54-4.72-2.29-9.87-1.5-14.79-2.29-.89-.14-2.22.39-2.84,1.08-5.52,6.11-13.12,5.42-20.07,5.91-9.91.7-20.06,1.09-29.76-1.01-7.49-1.62-15.25-4.2-20.66-10.45-2.06-2.38-4.6-3.67-7.06-5.3-8.68-5.77-18.52-8.08-27.88-4.35-5.85,2.33-11.57,1.31-17.18,2.93-4.43,1.28-8.13-2.17-11.22-4.4-4.02-2.9-8.63-4.64-12.54-7.72-2.18-1.72-5.41-1.93-7.08-4.9-.89-1.59-3.02-.74-4.61-.89v-9.06Z"/>
            <path class="cls-1" d="M820.95,256.36c-8.65.41-13.67,6.45-18.73,12.42-2.69,3.18-5.11,6.57-9.02,8.51-8.32,4.12-14.67-.42-20.93-4.81-4.62-3.25-8.84-7.08-13.32-10.55-5.6-4.34-15.83-4.11-21.32.35-1.85,1.51-3.7,3.02-5.58,4.49-9.88,7.72-19.83,5.09-29.69.03-2.49-1.28-4.71-3.13-7.02-4.76-12.79-8.99-21.38-7.61-33.31,2.72-5.17,4.48-9.24,10.24-14.23,14.97-9.6,9.11-19.04,10.13-27.19-1.99-1.5-2.24-3.03-4.49-4.82-6.48-2.4-2.67-4.77-5.52-7.67-7.52-4.91-3.39-10.24-1.86-15.44-.19-7.26,2.33-13.45,7-20.75,9.33-12.74,4.07-25.2,3.41-37.38-1.79-6.71-2.87-13.17-6.35-19.75-9.53-11.85-5.73-21.92-2.81-31.25,5.96-6.34,5.96-13.77,9.75-22.96,8.81-6.48-.66-12.94-6.82-12.73-12.72,1.85.47,2.44,2.41,3.86,3.37.5.66,1.01,1.32,1.51,1.98,3.86,5.48,16.16,6.51,20.34,1.67.15-.18.06-.58.07-.88.62-.32,1.24-.65,1.86-.97,3.26,1.18,4.54-.76,5.33-3.46h0c2.63.26,4.16-.9,4.52-3.58h0c1.99.14,3.56-.28,3.54-2.77h0c1.06.18,2.09.08,3.02-.51,8.74-5.51,17.24-2.3,25.52,1.07,5.61,2.28,10.8,5.61,16.33,8.11,16.54,7.5,32.82,6.63,48.69-2.09,8.39-4.61,16.75-8.96,26.65-4.81,1.74,1.1,3.13,2.54,4.5,4.09,3.03,3.44,5.03,7.73,8.64,10.68.9,2.13,3.27,2.64,4.59,4.3,2.53,4.2,4.85,4.82,8.06,2.13.87-.13,1.73-.26,2.6-.39,1.58,1.68,2.41,1.26,2.61-.95.55-.29,1.11-.57,1.66-.86,1.42.21,2.8.34,2.88-1.73,1.34-1.93,3.86-2.77,4.67-5.2l-.09-.11c1.63-.16,2.39-1.21,2.68-2.72h-.02c.72.11.98-.25.92-.93v.11c4.57-2.92,7.86-7.22,11.65-10.98,1.33,0,2.61-.06,2.54-1.93h0c.73-.04,1.57.12,2.18-.18,6-2.98,12.1-4.65,18.66-1.88.14.06.45-.31.68-.48,4.81,1.66,8.49,5.16,12.63,7.91-.02.78.14,1.47.87,1.9,5.97,3.53,12.53,5.03,19.31,4.93,1.86-.03,4.92,0,5.64-3.13,1.78-1.2,3.56-2.4,5.35-3.59.29.01.67.15.87.02,6.83-4.5,14.07-7.43,22.44-6.23,1.12.18,2.02.76,2.78,1.59-.03,2.01,1.29,1.99,2.7,1.84h0c0,2.52,1.59,2.91,3.59,2.75,1.8,1.47,3.59,2.93,5.39,4.4-.16,1.99,1.16,2.05,2.56,2.01.33.25.67.49,1,.74-.07,2.11,1.32,2.02,2.75,1.86,7.22,4.15,14.29,4.84,21-1.07,1.14-1.01,2.64-1.98,2.03-4.07-1.49.72-2.63,1.51-3.78,2.47-4.82,4-14.58,3.82-18.64-.29-.5-.5-3.5-2.04.16-2.65,7.3,4.49,14.55,3.93,20.9-2.77,0,0,.19-.18.19-.18.96-.61,1.71-1.68,3.06-1.42.88,1.39,1.74,2.6,3.29.61,1.28-1.65,2.69-3.2,4.04-4.8,3.89-2.18,7.51-5.05,12.34-4.73v4.53Z"/>
            <path class="cls-1" d="M433.48,167.54c4.2.53,7.66-2.14,11.44-3.17,6.75-1.83,13.58-2.07,20.23-2.08,109.58-.26,219.16-.22,328.74-.11,7.53,0,15.06,1.07,22.57,1.82,1.54.15,2.99,1.13,4.49,1.73v9.06c-6.93-5.45-15.38-6.91-23.49-9.32-2.07-.62-4.1-.64-6.18-.64-108.26,0-216.51-.01-324.77,0-6.85,0-13.52,1.71-19.79,4.09-3.83,1.45-6.86,5.09-10.2,7.81-.93.76-1.7,1.71-3.04,1.68v-10.88Z"/>
            <path class="cls-1" d="M451.7,266.98c-1.42-.97-2.01-2.91-3.86-3.37-.39-.88-.78-1.75-1.16-2.63.8-3.52-2.87-5.73-2.57-9.1.67-.1,2.27.65,1.62-.86-1.35-3.14-1.91-6.95-5.69-8.44-1.85-1.73-4.22-2.09-6.56-2.53v-17.22c5.49,0,12.58,5.17,14.27,10.53,1.5,4.77,4.43,7.56,9.57,7.64.86.01,1.94.17,2.52.71,5.39,4.94,11.92,2.16,17.92,2.86,2.2.25,2.62-2.25,4.31-2.86,1.14-.41,2.28-1.14,3.38-.43,1.41.92.36,2.16.04,3.24-.95,3.26-3.39,5.96-6.08,6.8-4.62,1.44-7.74,5.7-12.74,6.15-1.58.14-2.2,1.61-1.51,3.1.75,1.62.14,2.92-.51,4.28-1.45.17-2.89.35-4.34.52-.74-.09-1.49-.18-2.23-.27-.6-.79-1.3-1.3-2.33-.79-.56-.21-1.12-.42-1.68-.63-.28-.19-.57-.37-.85-.56-.02-2.69-1.86-3.25-4.6-4.05.94,2.67,1.58,4.55,3.75,5.42l.2,1.51c-.29.33-.58.66-.87.98Z"/>
            <path class="cls-1" d="M804.84,230.07c.3,0,.6,0,.89,0,1.98-1.06,5.02,0,6.1-2.76,1.68-4.3,4.87-5.69,9.11-5.4v9.06c-6.93.18-10.3,6.19-15.22,9.64-2.8,1.96-4.87,4.84-6.4,7.97-1.86,3.81-.93,5.96,2.82,6.87-.81,2.07-3.48,1.78-4.47,3.63-1.23.52-2.62,1.7-3.65,1.43-3.91-1.03-7.94-1.02-11.81-1.82-2.81-.58-5.53-2.33-6.02-5.9-.33-2.4-1.3-3.3-3.54-1.6-1.08.82-2.68-.25-2.23-.88,2.57-3.55-1.43-5.22-2.05-7.73,1.18-1.01,2.29-.64,2.98.07,2.97,3.03,6.98,2.84,10.64,3.74.85.21,1.8.32,2.49.8,2.9,2.02,4.72.73,6.1-1.92,2.16-4.13,5.26-7.25,9.5-9.15,2.65-1.19,4.35-3.08,4.75-6.05Z"/>
            <path class="cls-1" d="M802.15,255.45c-3.75-.91-4.68-3.05-2.82-6.87,1.53-3.13,3.61-6.01,6.4-7.97,4.91-3.44,8.29-9.46,15.22-9.64v15.41c-.89,0-1.79,0-2.68,0-1.42-2.11-2.11-1.93-3.58.92-.4.71-1.07.85-1.8.86-.45-2.43-1.71-1.84-3.12-.89-3.15,2.13-5.73,4.81-7.61,8.15h0Z"/>
            <path class="cls-1" d="M444.11,251.87c-.31,3.37,3.37,5.59,2.57,9.1-2.22-.56-2.33-2.86-3.33-4.36-2.42-3.64-5.4-5.66-9.87-4.79,0-1.81,0-3.63,0-5.44,2.08.34,4.15.69,6.23,1.03,0,0-.02-.09-.02-.09.32.89.78,1.5,1.82.95l-.06-.07c-.58,1.13.43,1.56.95,2.21l.04.39.36.11c.33.52.56,1.2,1.4.97l-.09-.02Z"/>
            <path class="cls-1" d="M820.95,221.92c-4.24-.29-7.43,1.1-9.11,5.4-1.08,2.76-4.12,1.7-6.1,2.76.47-3.55,2.06-5.9,5.71-7.11,3.47-1.15,5.87-4.5,9.5-5.58v4.53Z"/>
            <path class="cls-1" d="M818.26,246.39h2.68v5.43c-4.82-.32-8.45,2.56-12.34,4.73-.2-.21-.41-.43-.61-.64,1.62-2.45,4.1-3.76,6.59-5.05,1.23.01,2.34-.2,3.14-1.89-1.4.15-2.36.26-3.33.37-.47,0-.93,0-1.4,0-.04-.39-.09-.78-.13-1.17.73-.01,1.4-.15,1.8-.86,1.19-.31,2.39-.61,3.58-.92Z"/>
            <path class="cls-1" d="M433.48,240.04c2.34.44,4.7.8,6.55,2.53-.78.52-1.57,1.04-2.35,1.57-1.4-.16-2.8-.32-4.21-.47v-3.63Z"/>
            <path class="cls-1" d="M433.48,243.67c1.4.16,2.8.32,4.21.47.35,1.3,2.55,1.43,2.02,3.28-2.08-.34-4.15-.69-6.23-1.03,0-.91,0-1.81,0-2.72Z"/>
            <path class="cls-1" d="M805.73,207.42c3.55,1.82,4.23,4.62,2.69,8.16-.89,0-1.79,0-2.68,0-.15-1.09.3-2.61-1.61-2.47-.31.02-.8.53-.83.84-.15,1.93,1.36,1.48,2.43,1.63v2.72c-2.49.5-3.98,2.01-4.47,4.53-3.78-.14-6.86.94-8.99,4.44-1.62,2.66-7.07,2.99-8.88.31-1.71-2.52-3.66-3.21-6.37-2.95-3.96.39-7.02-.96-8.61-4.89-.63-1.55-1.7-2.51-3.42-2.32-4.2.46-8.61-1.28-12.6,1.46-1.01.69-2.45.5-3.26-.59-3.41-4.62-8.23-2.1-12.45-2.62-.79-.1-1.58.46-1.71,1.21-1.24,7.14-7.06,5.64-11.46,5.84-13.52.62-27.01-1.54-40.55-.77-5.28.3-10.28.16-15.16,4.17-5.15,4.23-12.3,4.52-19.12,4.03-3.44-.25-7.82-1.47-7.95,4.71-.03,1.54-1.94,1.55-3.31,1.56-1.6.01-3.14-.26-3.36-2.18-.45-3.91-3.04-4.32-6.14-4.17-6.19.29-12.17.41-16.21-5.95-1.17-1.84-4.14-2.2-6.58-2.18-1.52.01-2.97-.13-4.3-.93-.35-4.03-3.29-6.38-7.65-5.24-3.96,1.04-8.77-.46-11.79,3.95-.69,1.01-2.61.43-3.47-.88-1.57-2.4-3.92-2.38-6.34-2.37-9.08.03-18.17.19-27.25-.07-3.97-.11-8.32.35-11.29-3.61-.98-1.31-2.77-.83-4.24-.83-6.85-.02-13.7-.01-20.55,0-1.64,0-3.45.29-4.74-.86-5.58-4.98-12.22-2.09-18.38-2.64-1.8-.16-2.66,1.51-3.42,3.1-.89,1.84-2.22,1.84-3.35.13-3.24-4.86-8.65-5.58-13.55-6.87-5.08-1.34-9.67-3.41-13.88-6.47-2.05-1.49-2.44-3.12-.6-5.21,1.12-1.28,1.18-3.05,1.06-4.74,1.12.07,2.23.45,2.43,1.62.97,5.51,6.48,6.74,9.71,9.96,2.41,2.4,7.47,2.71,11.37,2.8,13.26.32,26.54.11,39.81.13,2.4,0,5.27-.66,5.68-2.76,1.09-5.59,4.99-4.45,8.52-4.49,4.32-.04,8.65.03,12.97-.03,2.27-.03,4.15.17,4.44,3.13.18,1.82,1.46,3.04,3.29,3.15,3.4.2,6.71.99,10.17,1.08,10.58.25,21.09-1.81,31.65-.95,10.99.89,22.01.5,32.99,1.01,5.91.28,10.89-2.99,16.57-3.07.56,0,1.47-.81,1.59-1.37.63-3.08,2.84-2.97,5.17-2.97,36.39.02,72.77.02,109.16,0,2.49,0,4.71-.12,5.17,3.39.3,2.27,2.55,2.67,4.51,2.95,2.2.32,4.69.05,6.53,1.04,4.1,2.21,11.26.93,10.59,9.18-.15,1.89,1.48,3.99,3.98,4.26,2.7.29,4.14-1.15,4.78-3.69.53-2.12,1.98-2.71,4.05-2.64,3.32.12,6.46-.68,9.21-2.68Z"/>
            <path class="cls-1" d="M804.84,230.07c-.4,2.97-2.1,4.86-4.75,6.05-4.23,1.9-7.33,5.02-9.5,9.15-1.38,2.64-3.2,3.94-6.1,1.92-.69-.48-1.64-.59-2.49-.8-3.66-.9-7.67-.71-10.64-3.74-.69-.7-1.81-1.08-2.98-.07.63,2.52,4.63,4.18,2.05,7.73-.45.63,1.14,1.7,2.23.88,2.24-1.7,3.21-.8,3.54,1.6.49,3.56,3.21,5.32,6.02,5.9,3.88.8,7.91.79,11.81,1.82,1.02.27,2.42-.92,3.65-1.43.18,1.03.37,2.06.55,3.1,0,0-.19.18-.19.17-2.19-1.74-3.63,1.16-5.76.88-5.9-.78-11.96.38-17.79-1.45-.92-.6-1.84-1.2-2.75-1.8-.36-.71-1.01-.88-1.72-.93-.56-1.16-1.46-1.78-2.75-1.77l-.02-.02c-.31-2.1-2.24-2.56-3.57-3.63-.78-1.44-1.76-2.62-3.54-2.73,0,0-.02-.02-.02-.02-.38-2.88-2.77-3.44-4.86-4.52-5.89-3.06-11.69-.68-17.52.03-.45-.02-1.1.15-1.31-.08-3.26-3.72-6.66-3.89-11.21-1.87-5.31,2.36-11.05.71-16.65-.08-5.25-.74-9.37-3.9-13.83-5.61-4.71-1.81-10.91-3.22-16.68-2.48-1.89.24-3.65,1.34-5.65,1.06.17-2.54,2.14-3.29,4.03-3.5,8.93-1,17.69-1,24.79,5.93.79.77,1.71,1.37,2.79,1.16,7.6-1.46,15.29,1.4,22.93-.7,2.1-.58,4.22-1.27,5.5-2.64,4.6-4.91,11.03-4.91,16.68-6.8,4.11-1.37,8.28-1.71,12.2,2.26,2.35,2.38,5.82,4.7,9.94,4.32,3.14-.29,3.91,2.92,5.65,4.54,3.69,3.43,7.13,3.41,11.07.48,4.07-3.03,6.05-8.24,11.08-10.2,1.91-.74,3.53-2.26,5.77-2.11Z"/>
            <path class="cls-1" d="M670.61,237.32c-1.92,1.51-3.87,2.96-6.26,3.63,1.13-2.91,2.27-5.8,6.26-3.63Z"/>
            <path class="cls-1" d="M801.26,222.82c.49-2.52,1.99-4.03,4.47-4.53-.49,2.52-1.99,4.03-4.47,4.53Z"/>
            <path class="cls-1" d="M771.73,259.98c.92.6,1.84,1.2,2.75,1.8-1.32,2.91,2.67,1.49,2.66,3.34-3.66.61-.66,2.15-.16,2.65,4.06,4.11,13.82,4.3,18.64.29,1.15-.95,2.29-1.75,3.78-2.47.6,2.09-.89,3.06-2.03,4.07-6.7,5.91-13.77,5.23-21,1.07-.67-.99-1.6-1.6-2.75-1.86-.33-.25-.67-.49-1-.74-.52-1.1-1.45-1.68-2.56-2.01-1.8-1.47-3.59-2.93-5.39-4.4-.86-1.37-1.99-2.37-3.59-2.76,0,0,0,0,0,0-.6-1.07-1.51-1.66-2.7-1.84-.76-.83-1.66-1.41-2.78-1.59-7.15-3.96-16.26-1.53-23.31,6.21-1.78,1.2-3.56,2.4-5.35,3.59-3.88,1.39-7.87,1.47-11.9,1-4.97-.57-9.38-2.81-13.92-4.7-4.14-2.75-7.83-6.25-12.63-7.91-6.44-4.27-14.8-3.27-21.52,2.55,0,0,0,0,0,0-1.19.18-2.09.76-2.54,1.93-3.79,3.76-7.08,8.06-11.64,10.98-.03-1.41-.06-2.83-.09-4.24-.08-.65.16-1.13.76-1.41.67.78.93.43,1.04-.38,1.36-3.88,5.03-5.36,7.85-7.72,3.3-.12,5.87-1.44,7.39-4.54l.43-.04.43.03c5.23-1.18,10.42-3.06,15.87-1.13,1.6.19,3.04,4.46,4.82.2.27-.03.55-.04.82-.05,3.01,2.01,6.02,4.02,9.03,6.03-1.14,3.96,2.17,3.35,4.13,4.11,1.96,1.07,3.9,2.2,6.26,2.02,1.57.34,3.14.69,4.7,1.03.32.04.65.07.97.11.58.05,1.16.11,1.74.16,1.33.7,2.62.67,3.85-.23,1.8-.26,3.28-1.2,4.69-2.28l-.09.03c2,.13,2.74-1.82,4.19-2.6.88-1.51,3.52-1.39,3.44-3.8l-.02.02c.57.38.97.05,1.37-.33-.46-.21-.91-.42-1.37-.63.01-.58.02-1.16.03-1.74,1.4-.12,2.95.41,3.73-1.55.7-1.76,2.53-1.66,4.06-2.18,6.3-2.15,11.83-.07,17.29,2.79,0,0,.02.02.02.02.15,2.28.18,4.73,3.54,2.73,1.33,1.07,3.26,1.53,3.57,3.63-.07.13-.13.27-.2.4.07-.13.14-.25.22-.38,1.29,0,2.19.61,2.75,1.77-.02.86.06,1.81.98,2.05.69.18.66-.62.74-1.12Z"/>
            <path class="cls-1" d="M475.6,261.06c.79-3.99,4.38-5.9,6.65-8.74,1.68-2.1,4.24-3.65,6.26-5.63,7.69-7.56,16.21-7.16,25.47-3.15,6.05,2.62,11.42,6.51,17.45,8.98,4.02,1.64,8.54,2.01,12.83,2.93,1.01.22,2.06.27,3.02.62.93.34,2.17.7,2.07,2.02-.1,1.25-1.35.87-2.13,1.1-1.71.51-3.04,1.31-2.77,3.44-2.38-.23-4.76-.46-7.13-.69-.79-.66-1.55-1.41-2.72-1.07-.06-.79-.29-1.43-1.14-1.73-5.89-2.1-11.25-5.45-17.02-7.77-6.77-2.73-13.69-5.88-21.22-2.31-3.42,1.11-6.42,2.95-9.04,5.44-1.6.17-2.58.94-2.58,2.68-2.84.93-4.84,3.64-8.01,3.88Z"/>
            <path class="cls-1" d="M735.03,251.82c-.01.58-.02,1.16-.03,1.74,0,.32,0,.64,0,.96,0,0,.02-.02.03-.02-.99.27-1.97.54-2.96.81-1.1.35-2.21.69-3.31,1.04-1.65.35-3.38.62-3.55,2.86-.85,1.02-2.01,1.08-3.19,1.09-1.43-.63-2.87-.72-4.32-.05-1.97-.08-3.94-.16-5.91-.24-1.01-1.31-2.7-.78-3.92-1.5.14-.27.2-.57.18-.87.21-2.04,1.63-2.13,3.22-2.21,1.01-.05,2.8.66,2.67-1.24-.1-1.44-1.76-1.7-2.86-1.36-4.41,1.38-6.28-1.64-8.24-4.6,5.91,3.73,13.06,1.86,19.27,4.4,1.56.64,3.02-.1,4.1-1.8,2.88-4.54,4.04-4.58,7.96-.78.02.74.17,1.41.88,1.81Z"/>
            <path class="cls-1" d="M670.58,250.89l-.43-.03s-.43.04-.43.04c-.6.02-1.2.04-1.79.06,0-2.13,0-4.26-.01-6.39,3.78-1.21,7.52-2.61,11.37-3.55,2.45-.6,5,.05,7.43.83.22,2.37,1.53,1.4,2.68.91.3.3.6.6.9.91-.45,1.04-1.16,2.08.36,2.91,1.31.71,1.49,1.99,1.44,3.34-.27,0-.55.03-.82.05-1.49-.75-2.69-2.36-4.68-1.63-4.54-1.76-9.09-1.43-13.62,0-1.2.38-2.66.69-2.38,2.56Z"/>
            <path class="cls-1" d="M692.09,249.91c.05-1.35-.13-2.63-1.44-3.34-1.52-.83-.81-1.87-.36-2.91,2.09.6,4.18,1.21,6.26,1.81.27,2.15,1.95,2.41,3.58,2.72.89,0,1.79,0,2.68,0,1.96,2.96,3.83,5.98,8.24,4.6,1.1-.34,2.76-.08,2.86,1.36.13,1.91-1.67,1.2-2.67,1.24-1.59.08-3.01.17-3.22,2.21-.21.25-.43.49-.64.74l-.98-.24c-1.4-1.64-3.44-1.67-5.3-2.18-3.01-2.01-6.02-4.02-9.03-6.03Z"/>
            <path class="cls-1" d="M616.08,259.82c0,.34,0,.68.01,1.02-.82.35-.92,1.05-.87,1.83-.79-.87-1.57-1.75-2.37-2.6-6.07-6.44-12.27-8.08-18.94-4.66-2.66,1.36-5.28,2.52-8.25,2.79-.11-.06-.22-.13-.33-.19.1.07.19.15.29.22-.1,1.95-1.52,1.71-2.79,1.74-.32-.41-.64-.82-.96-1.23,6.8-9.59,24.29-10.4,31.8-1.47.76.9,1.14,2.16,2.41,2.55Z"/>
            <path class="cls-1" d="M537.32,261.93c2.38.23,4.76.46,7.13.69,8.34,2.54,16.7,1.81,25.07.19,2.1,1.45,3.4.38,4.47-1.44.57-.09,1.15-.18,1.72-.27.05.58.09,1.16.14,1.73-3.45,2.31-7.32,3.36-11.37,3.9-.42.12-.83.24-1.25.36-8.93.84-17.78,1.05-26.06-3.33.05-.61.09-1.22.14-1.83Z"/>
            <path class="cls-1" d="M616.08,259.82c-1.28-.39-1.66-1.65-2.41-2.55-7.51-8.93-25-8.12-31.8,1.47-1.33,1.13-2.85.59-4.31.52,1.42-1.85,2.52-4.84,4.32-5.35,6.98-2.01,13.09-7.46,21.07-5.66,6.9,1.56,12.56,6.47,13.14,11.57Z"/>
            <path class="cls-1" d="M649.29,272.84c-.8,2.43-3.33,3.27-4.67,5.2-.3-.01-.6-.03-.9-.04-.51-.67-.68-.33-.78.26l.11.07c-2.59-1.03-4.7,2.17-7.32.85,2.22-1.53,5.38-1.66,6.94-4.51-1.43-.47-2.53.15-3.62.19-4.02.14-8.56,2.96-11.8-1.9,6.72,1.26,13.17,1.32,18.58-3.94.56-.55,1.63-.56,2.46-.83.66,1.48-4.36,4.21,1,4.65Z"/>
            <path class="cls-1" d="M454.07,263.67c.56.21,1.12.42,1.68.63.5,1.1,1.33,1.19,2.33.79.74.09,1.49.18,2.23.27,1.48,1.3,2.97,1.29,4.48.07,3.4-.38,6.66-1.26,9.72-2.82.86.12,1.69.28,2.09,1.22-6.23,5.42-13.21,6.28-20.78,3.51-1.08-.18-1.8-.89-2.49-1.67.24-.67.49-1.34.73-2.01Z"/>
            <path class="cls-1" d="M735.03,251.82c-.71-.39-.86-1.07-.88-1.81,2.57.18,3.76-1.03,3.58-3.62,5.83-.71,11.63-3.09,17.52-.03,2.09,1.08,4.47,1.64,4.86,4.52-5.46-2.86-10.99-4.94-17.29-2.79-1.53.52-3.36.42-4.06,2.18-.78,1.96-2.34,1.42-3.73,1.55Z"/>
            <path class="cls-1" d="M627.25,272.95c3.25,4.86,7.78,2.04,11.8,1.9,1.09-.04,2.2-.66,3.62-.19-1.56,2.85-4.72,2.98-6.94,4.51-.6.05-1.21.1-1.81.14-.59,0-1.19,0-1.78,0-4.09-.76-6.57-4.1-9.77-6.29-.17-1.6-2.17-2.21-2.08-3.94.44-.06.88-.13,1.33-.19.54.34,1.08.68,1.62,1.03.75,1.49,1.7,2.7,3.55,2.7.08.21.23.32.45.33Z"/>
            <path class="cls-1" d="M667.93,244.57c0,2.13,0,4.26.01,6.39-.63,1.04-1.74.76-2.67.97-.1-2.82-2.51-6.49,2.66-7.36Z"/>
            <path class="cls-1" d="M649.29,272.84c-5.36-.44-.34-3.17-1-4.65,1.47-1.08,2.94-2.16,4.41-3.24.03,1.41.06,2.83.09,4.24,0,0,0-.11,0-.11-.57.04-.87.36-.92.93,0,0,.02,0,.02,0-2.18-.39-3.06.53-2.68,2.72l.09.11Z"/>
            <path class="cls-1" d="M476.61,263.84c-.39-.94-1.23-1.1-2.09-1.22.36-.52.72-1.04,1.08-1.56,3.16-.24,5.17-2.94,8.01-3.88-1.07,3.58-3.35,5.85-6.99,6.66Z"/>
            <path class="cls-1" d="M621.62,268.89c-.44.06-.88.13-1.33.19-2.09-1.63-3.21-3.95-4.39-6.23.23-.22.45-.44.68-.66.43.13.85.25,1.28.38.19.82.72,1.34,1.46,1.67.42,1.73,2.47,2.63,2.3,4.66Z"/>
            <path class="cls-1" d="M577.56,259.25c1.47.07,2.99.62,4.31-.52.32.41.64.82.96,1.22-2.32.96-4.65,1.92-6.98,2.88-.05-.58-.09-1.16-.14-1.73.46-.63.91-1.25,1.37-1.88.15.17.3.18.47.03Z"/>
            <path class="cls-1" d="M665.27,251.93c.93-.21,2.03.08,2.67-.97.6-.02,1.2-.04,1.79-.06-1.51,3.09-4.09,4.42-7.39,4.54.97-1.17,1.95-2.34,2.93-3.51Z"/>
            <path class="cls-1" d="M574,261.37c-1.07,1.82-2.38,2.89-4.47,1.44,1.18-.62,2.36-1.24,3.55-1.86.31.14.62.28.93.42Z"/>
            <path class="cls-1" d="M464.8,265.43c-1.51,1.22-3.01,1.24-4.48-.07,1.45-.17,2.9-.35,4.34-.52.08.19.13.38.14.59Z"/>
            <path class="cls-1" d="M626.79,272.62c-1.85,0-2.81-1.21-3.55-2.7,1.91-.08,3.74-.05,3.55,2.7Z"/>
            <path class="cls-1" d="M574,261.37c-.31-.14-.62-.28-.93-.42.44-2.71,2.45-1.69,4.02-1.73-.45.63-.91,1.25-1.36,1.88-.57.09-1.15.18-1.72.27Z"/>
            <path class="cls-1" d="M689.4,242.76c-1.16.5-2.47,1.46-2.68-.91,1.48-1.48,2.32-1.02,2.68.91Z"/>
            <path class="cls-1" d="M700.14,248.2c-1.63-.31-3.31-.57-3.58-2.72,1.63.31,3.31.57,3.58,2.72Z"/>
            <path class="cls-1" d="M619.32,264.24c-.74-.33-1.26-.85-1.46-1.67,2.31-1.07,1.47.67,1.46,1.67Z"/>
            <path class="cls-1" d="M615.22,262.66c-.04-.77.05-1.48.87-1.83.16.45.32.91.48,1.36-.22.22-.45.44-.68.66-.24-.01-.47-.07-.68-.19Z"/>
            <path class="cls-1" d="M654.49,263.16c-.11.8-.37,1.16-1.04.38.35-.13.69-.25,1.04-.38Z"/>
            <path class="cls-1" d="M805.73,207.42c-2.76,2-5.89,2.8-9.21,2.68-2.06-.07-3.52.52-4.05,2.64-.63,2.54-2.07,3.98-4.78,3.69-2.5-.27-4.13-2.36-3.98-4.26.67-8.24-6.49-6.97-10.59-9.18-1.84-.99-4.33-.73-6.53-1.04-1.96-.28-4.22-.68-4.51-2.95-.46-3.5-2.68-3.39-5.17-3.39-36.39.02-72.77.02-109.16,0-2.33,0-4.54-.11-5.17,2.97-.12.56-1.03,1.36-1.59,1.37-5.68.09-10.66,3.35-16.57,3.07-10.98-.51-22-.12-32.99-1.01-10.56-.85-21.07,1.21-31.65.95-3.45-.08-6.76-.87-10.17-1.08-1.84-.11-3.11-1.33-3.29-3.15-.29-2.97-2.17-3.16-4.44-3.13-4.32.05-8.65-.02-12.97.03-3.54.03-7.43-1.11-8.52,4.49-.41,2.1-3.28,2.76-5.68,2.76-13.27-.02-26.55.18-39.81-.13-3.91-.09-8.96-.4-11.37-2.8-3.23-3.22-8.75-4.45-9.71-9.96-.21-1.17-1.31-1.55-2.43-1.62-.32-2.48-1.98-4.51-1.87-7.22.15-3.9,1.29-6.64,5.45-7.28-.07,2.49-.46,5.3,3.58,3.62,0,7.2,0,7.26,7.29,8.11,1.6.19,3.12.5,3.77,1.94,1.02,2.26,3.07,2.63,4.96,3.43,3.43,1.45,7.04.81,10.58,1.07,2.44.18,5.47-.02,6.36,2.99.9,3.05,2.76,3.48,5.39,3.34,2.67-.14,5.37-.12,8.04,0,2.94.12,5.52.19,6.51-3.63.53-2.03,2.87-2.18,4.73-2.82,3.73-1.29,8.12-.96,10.8-5.09,1.46-2.25,19.18-1.61,21.05.28,4.06,4.08,9.73,4.37,14.39.74,2.46-1.92,4.83-1.9,7.23.22,3.01,2.65,6.72,3.83,10.57,3.88,11.17.16,22.35.01,33.53.09,2.27.02,3.78-.42,5.04-2.67,2.1-3.76,6.33-4.15,9.21-.8,1.74,2.02,2.79,1.61,4.3.1,3.24-3.21,6.58-2.98,9.84-.05,2.05,1.85,3.73,1.78,5.75-.26,2.72-2.75,5.88-2.78,8.67-.07,1.74,1.7,3.16,2.3,4.62-.04,1.75-2.81,4.37-3.07,7.07-2.28,2.71.79,5.2.58,7.87-.14,5.52-1.49,11.07-1.06,16.76-.51,6.41.62,12.82,2.27,19.46.58,3.15-.8,7.11-1.5,9.37,2.85,1.1,2.12,2.96,1.23,3.81-.46,1.26-2.51,3.23-2.78,5.59-2.65,1.93.11,3.99-.79,5.69-.58,9.7,1.19,20.67-4.8,28.91,5,.33.4,1.08.51,1.66.62,2.54.47,4.17,2.24,5.66,4.13,5.22,6.62,18.44,8.94,25.56,4.45,6.84,2.25,7,1.99,7.21-5.78.15-5.32-1-10.74.84-15.97,1.7.07,2.03,1.49,2.58,2.69,2.51,5.52,1.88,11.39,1.87,17.19,0,1.5-.83,2.61-2.03,3.26-2.74,1.49-3.46,3.88-3.31,6.76Z"/>
            <path class="cls-1" d="M458.54,177.51c-4.04,1.68-3.65-1.14-3.58-3.62,2.66-3.9,6.65-5.59,11-5.31,4.73.3,9.46-.25,14.07.09,5.36.4,10.6-.22,15.89-.22,96.62,0,193.23,0,289.85-.01,6.68,0,12.33,3.89,18.72,5.01,1.67.29,2.31,2.21,2.14,4.06-1.84,5.23-.69,10.65-.84,15.97-.22,7.77-.37,8.03-7.21,5.78,0-3.02.02-6.04-.01-9.06-.01-1.17.37-2.59-.78-3.37-2.34-1.58-2.59-4.26-2.61-6.43-.03-5.08-3.67-7.04-7.09-7.18-12.36-.5-24.86-1.2-37.07.24-5.7.67-10.67.52-15.95-.89-1.41-.38-2.95-.26-4.4-.52-6.49-1.14-12.56,1.94-18.97,1.87-13.52-.15-27.05.25-40.56-.14-11.1-.32-22.34,1.82-33.3-1.62-.62-.2-1.5.1-2.15.39-3.24,1.47-6.68,1.14-10.09,1.37-6.73.46-13.39-1.82-20-.8-5.82.9-11.57.56-17.36.71-3.26.08-6.4-1.08-9.73-.93-10.32.46-20.65.57-30.97.98-8.35.33-16.63-.83-24.94-.82-4.84,0-9.84,2.17-14.5,1.47-8.89-1.34-17.86.52-26.66-1.5-1.67-.38-3.58-.4-5.25.53-2.64,1.47-5.3,1.23-8.21.69-3.53-.65-7.15-.41-9.43,3.22Z"/>
            <path class="cls-1" d="M615.22,262.66c.21.11.44.17.68.19,1.18,2.28,2.3,4.61,4.39,6.23-.09,1.74,1.92,2.34,2.08,3.94-.05.83-.1,1.67-.15,2.5-3.61-2.95-5.6-7.24-8.64-10.68-1.37-1.56-2.77-2.99-4.5-4.09-1.53-3.64-4.78-3.68-7.87-3.63-7.07.1-13.21,3.25-19.29,6.48-5.42,2.88-10.97,5.41-17.07,6.4-12.16,1.98-23.66-.17-34.62-5.69-7.56-3.81-14.77-8.45-23.23-10.13-6.81-1.35-12.99-.31-18.12,4.81,0,0,0,0,0,0-1.6.37-2.74,1.35-3.54,2.78,0,0,0,0,0,0-1.95.62-3.33,1.98-4.52,3.59,0,0,0,0,0,0-2.06.7-3.73,2.03-5.33,3.46-.62.32-1.24.65-1.86.97-5.69,1.53-11.36,3.68-17.19.49,1.5-1.34-1.12-1.77-.62-2.89,7.58,2.77,14.56,1.91,20.79-3.51,3.64-.81,5.92-3.08,6.99-6.66,0-1.74.99-2.52,2.59-2.68.28.51.51,1.45.83,1.48,2.77.24,7.34-3.69,8.21-6.92,7.52-3.57,14.44-.42,21.22,2.31,5.77,2.33,11.12,5.67,17.02,7.77.84.3,1.08.94,1.14,1.73-.05,1.81.77,2.8,2.59,2.9,8.28,4.38,17.13,4.17,26.06,3.33.42-.12.83-.24,1.25-.36,4.04-.53,7.92-1.59,11.37-3.9,2.33-.96,4.65-1.92,6.98-2.88,1.26-.03,2.69.21,2.79-1.74l.04-.03c2.97-.27,5.59-1.43,8.25-2.79,6.67-3.42,12.87-1.77,18.94,4.66.8.85,1.58,1.73,2.37,2.6Z"/>
            <path class="cls-1" d="M488.87,258.98c5.13-5.12,11.31-6.16,18.12-4.81,8.47,1.68,15.67,6.32,23.23,10.13,10.96,5.52,22.46,7.67,34.62,5.69,6.1-.99,11.65-3.52,17.07-6.4,6.08-3.23,12.22-6.37,19.29-6.48,3.09-.05,6.34,0,7.87,3.63-9.9-4.16-18.26.19-26.65,4.81-15.87,8.73-32.16,9.59-48.69,2.09-5.53-2.51-10.72-5.83-16.33-8.11-8.28-3.37-16.78-6.58-25.52-1.07-.92.58-1.95.68-3.02.52Z"/>
            <path class="cls-1" d="M777.14,265.12c.01-1.85-3.98-.43-2.66-3.34,5.83,1.83,11.9.67,17.79,1.45,2.13.28,3.57-2.62,5.76-.88-6.34,6.71-13.6,7.26-20.9,2.77Z"/>
            <path class="cls-1" d="M701.12,261.65c4.53,1.89,8.95,4.13,13.92,4.7,4.03.46,8.02.39,11.9-1-.72,3.13-3.77,3.1-5.64,3.13-6.78.1-13.34-1.4-19.31-4.93-.73-.43-.89-1.12-.87-1.9Z"/>
            <path class="cls-1" d="M622.22,275.52c.05-.83.1-1.66.15-2.5,3.2,2.18,5.68,5.52,9.77,6.29.59.71,1.19.7,1.78,0,.6-.05,1.21-.1,1.81-.14,2.62,1.32,4.73-1.87,7.32-.85-.44.48-.88.96-1.32,1.44-.55.29-1.11.57-1.66.86-.95.09-1.94.08-2.61.95-.87.13-1.73.26-2.6.39-2.85-.06-5.45-1.12-8.06-2.13-1.32-1.67-3.7-2.17-4.59-4.3Z"/>
            <path class="cls-1" d="M732.29,261.75c7.05-7.74,16.16-10.17,23.31-6.21-8.37-1.21-15.61,1.73-22.44,6.23-.2.13-.58,0-.87-.02Z"/>
            <path class="cls-1" d="M456.44,270.24c5.82,3.19,11.5,1.04,17.19-.49-.02.3.08.7-.07.88-4.19,4.83-16.48,3.81-20.34-1.67,1.08.43,2.15.86,3.23,1.29Z"/>
            <path class="cls-1" d="M666.97,256.29c6.72-5.83,15.09-6.82,21.52-2.55-.23.17-.55.54-.68.48-6.56-2.78-12.66-1.11-18.66,1.88-.61.3-1.44.14-2.18.19Z"/>
            <path class="cls-1" d="M808.61,256.56c-1.35,1.6-2.75,3.15-4.04,4.8-1.55,1.99-2.41.78-3.29-.61-.78-3.31,2.7-3.08,3.87-4.78.96.35,1.91.48,2.85-.05.2.21.41.43.61.64Z"/>
            <path class="cls-1" d="M805.15,255.96c-1.16,1.7-4.65,1.47-3.87,4.78-1.35-.26-2.1.81-3.06,1.42-.18-1.03-.36-2.06-.55-3.09.98-1.85,3.66-1.56,4.47-3.63,0,0,0,0,0,0,.58,0,1.15,0,1.73,0,.36-.02.71-.04,1.07-.06.15.16.22.35.2.57Z"/>
            <path class="cls-1" d="M626.82,279.83c2.61,1.01,5.2,2.07,8.06,2.13-3.21,2.69-5.53,2.07-8.06-2.13Z"/>
            <path class="cls-1" d="M475.48,268.78c1.6-1.44,3.27-2.76,5.33-3.46-.8,2.7-2.08,4.65-5.33,3.46Z"/>
            <path class="cls-1" d="M456.44,270.24c-1.08-.43-2.15-.86-3.23-1.29-.5-.66-1-1.32-1.51-1.98.29-.33.58-.65.86-.98.3,0,.56-.1.77-.31.68.78,1.41,1.49,2.48,1.67-.51,1.12,2.12,1.55.62,2.89Z"/>
            <path class="cls-1" d="M480.82,265.32c1.19-1.6,2.57-2.97,4.52-3.59-.35,2.68-1.89,3.84-4.52,3.59Z"/>
            <path class="cls-1" d="M761.08,258.97c1.6.38,2.73,1.39,3.59,2.76-2,.16-3.6-.23-3.59-2.76Z"/>
            <path class="cls-1" d="M485.33,261.74c.8-1.42,1.94-2.4,3.54-2.78.02,2.49-1.55,2.91-3.54,2.78Z"/>
            <path class="cls-1" d="M637.47,281.57c.67-.87,1.66-.86,2.61-.95-.2,2.21-1.03,2.63-2.61.95Z"/>
            <path class="cls-1" d="M649.2,272.73c-.38-2.2.51-3.11,2.68-2.72-.3,1.51-1.05,2.56-2.68,2.72Z"/>
            <path class="cls-1" d="M758.38,257.13c1.19.18,2.1.77,2.7,1.84-1.41.15-2.73.17-2.7-1.84Z"/>
            <path class="cls-1" d="M641.74,279.77c.44-.48.88-.96,1.32-1.44,0,0-.11-.07-.11-.07.3.04.56-.04.78-.26.3.01.6.03.9.04-.08,2.07-1.46,1.94-2.88,1.73Z"/>
            <path class="cls-1" d="M664.43,258.21c.46-1.17,1.35-1.75,2.54-1.93.07,1.88-1.22,1.93-2.54,1.93Z"/>
            <path class="cls-1" d="M770.06,266.13c1.11.33,2.04.91,2.56,2.01-1.4.04-2.72-.02-2.56-2.01Z"/>
            <path class="cls-1" d="M773.62,268.88c1.15.26,2.08.87,2.75,1.86-1.43.16-2.82.25-2.75-1.86Z"/>
            <path class="cls-1" d="M651.86,270.01c.05-.57.35-.89.92-.93.06.68-.2,1.04-.92.93Z"/>
            <path class="cls-1" d="M439.71,247.42c.53-1.86-1.68-1.98-2.02-3.28.78-.52,1.56-1.04,2.35-1.56,3.79,1.49,4.35,5.3,5.69,8.44.65,1.51-.95.76-1.62.86,0,0,.09.03.09.03-.22-.69-.78-.87-1.4-.97l-.36-.11s-.04-.39-.04-.39c.03-.89.2-1.84-.95-2.21,0,0,.06.07.06.07-.24-1.04-.97-1.11-1.82-.95l.02.09Z"/>
            <path class="cls-1" d="M452.37,264.48c-2.16-.87-2.81-2.75-3.75-5.42,2.74.8,4.58,1.35,4.6,4.05-.28.46-.57.91-.85,1.37Z"/>
            <path class="cls-1" d="M452.37,264.48c.28-.46.57-.91.85-1.37.28.19.57.37.85.56-.24.67-.49,1.34-.73,2.01-.21.22-.47.32-.77.31-.07-.5-.13-1.01-.2-1.51Z"/>
            <path class="cls-1" d="M458.08,265.1c-1,.39-1.83.31-2.33-.79,1.03-.51,1.73,0,2.33.79Z"/>
            <path class="cls-1" d="M803.88,255.45c-.58,0-1.15,0-1.73,0,1.88-3.34,4.46-6.02,7.61-8.15,1.41-.95,2.67-1.54,3.12.89.04.39.09.78.13,1.17-2.68,1.75-5.35,3.5-8.03,5.25-.37.29-.73.57-1.1.86Z"/>
            <path class="cls-1" d="M818.26,246.39c-1.19.31-2.39.61-3.58.92,1.47-2.85,2.16-3.02,3.58-.92Z"/>
            <path class="cls-1" d="M441.45,248.22c1.15.37.98,1.32.95,2.21-.52-.65-1.53-1.08-.95-2.21Z"/>
            <path class="cls-1" d="M439.69,247.34c.85-.16,1.58-.09,1.82.95-1.05.55-1.51-.06-1.82-.95Z"/>
            <path class="cls-1" d="M442.8,250.93c.62.1,1.18.28,1.4.97-.84.23-1.07-.45-1.4-.97Z"/>
            <path class="cls-1" d="M804.98,254.59c2.68-1.75,5.35-3.5,8.03-5.25.47,0,.93,0,1.4,0,.06.51.12,1.01.18,1.52-2.49,1.29-4.97,2.6-6.59,5.05-.95.52-1.9.4-2.85.05.02-.22-.05-.41-.2-.57.1-.26.11-.53.03-.8Z"/>
            <path class="cls-1" d="M814.59,250.87c-.06-.51-.12-1.01-.18-1.52.96-.1,1.93-.21,3.33-.37-.8,1.69-1.91,1.9-3.14,1.89Z"/>
            <path class="cls-1" d="M805.73,215.57c-1.08-.15-2.58.3-2.43-1.63.02-.31.52-.81.83-.84,1.9-.15,1.46,1.37,1.61,2.47Z"/>
            <path class="cls-1" d="M763.67,253.63c-3.36,2-3.39-.45-3.54-2.73,1.78.11,2.76,1.28,3.54,2.73Z"/>
            <path class="cls-1" d="M771.73,259.98c-.08.5-.05,1.31-.74,1.12-.93-.24-1-1.19-.98-2.05.71.05,1.36.21,1.72.93Z"/>
            <path class="cls-1" d="M711.78,260c1.97.08,3.94.16,5.91.24,1.41,2.26,2.85,2.26,4.32.05,1.18-.01,2.35-.07,3.19-1.09.8.49,2.81-.69,2.27,1.67-1.41,1.08-2.89,2.02-4.69,2.28-1.32-.55-2.63-.81-3.85.23-.58-.05-1.16-.11-1.74-.16-.26-.58-.59-.64-.97-.11-1.57-.34-3.14-.69-4.7-1.03.09-.69.17-1.39.26-2.08Z"/>
            <path class="cls-1" d="M670.58,250.89c-.27-1.87,1.18-2.18,2.38-2.56,4.53-1.43,9.08-1.75,13.62,0-.05.48-.09.95-.14,1.43-5.45-1.93-10.63-.05-15.87,1.13Z"/>
            <path class="cls-1" d="M701.13,255.95c1.85.51,3.9.54,5.29,2.18-.39.65-.77,1.29-1.16,1.94-1.97-.76-5.27-.15-4.13-4.11Z"/>
            <path class="cls-1" d="M705.26,260.06c.39-.65.77-1.29,1.16-1.94.33.08.65.16.98.24,0,0,.19.2.19.2l.26-.06c1.23.72,2.92.2,3.92,1.5-.09.69-.17,1.39-.26,2.08-2.35.18-4.3-.95-6.26-2.02Z"/>
            <path class="cls-1" d="M686.45,249.76c.05-.48.09-.95.14-1.43,1.99-.73,3.19.88,4.68,1.63-1.78,4.26-3.22-.01-4.82-.2Z"/>
            <path class="cls-1" d="M727.47,260.87c.53-2.36-1.47-1.17-2.27-1.67.17-2.24,1.89-2.51,3.55-2.86,0,.31.02.62.03.92-.28,1.28-3.11,1.56-1.39,3.63l.09-.03Z"/>
            <path class="cls-1" d="M727.39,260.9c-1.72-2.07,1.1-2.35,1.39-3.63.88-.11,1.75-.23,2.63-.34l.18,1.37c-1.45.78-2.2,2.73-4.19,2.6Z"/>
            <path class="cls-1" d="M731.58,258.3c-.06-.46-.12-.91-.18-1.37.22-.54.44-1.08.66-1.62.99-.27,1.97-.54,2.96-.81.08,2.4-2.56,2.29-3.44,3.8Z"/>
            <path class="cls-1" d="M718.93,263.38c1.23-1.04,2.53-.78,3.85-.23-1.24.9-2.52.93-3.85.23Z"/>
            <path class="cls-1" d="M735,254.52c0-.32,0-.64,0-.96.45.21.91.42,1.37.63-.39.38-.8.71-1.37.33Z"/>
            <path class="cls-1" d="M716.22,263.11c.38-.53.71-.47.97.11-.32-.04-.65-.07-.97-.11Z"/>
            <path class="cls-1" d="M767.26,257.28c-.07.13-.14.25-.22.38.07-.13.13-.27.2-.4,0,0,.02.02.02.02Z"/>
            <path class="cls-1" d="M495.22,249.05c-.87,3.23-5.44,7.16-8.21,6.92-.32-.03-.55-.96-.83-1.48,2.61-2.49,5.61-4.33,9.04-5.44Z"/>
            <path class="cls-1" d="M537.18,263.76c-1.81-.09-2.64-1.09-2.59-2.9,1.18-.34,1.93.41,2.72,1.07-.05.61-.09,1.22-.14,1.83Z"/>
            <path class="cls-1" d="M722.01,260.29c-1.46,2.21-2.9,2.21-4.32-.05,1.45-.67,2.88-.58,4.32.05Z"/>
            <path class="cls-1" d="M732.06,255.31c-.22.54-.44,1.08-.66,1.62-.88.11-1.75.23-2.63.34,0-.31-.02-.62-.03-.92,1.1-.35,2.21-.69,3.31-1.04Z"/>
            <path class="cls-1" d="M707.86,258.49l-.26.06s-.19-.2-.19-.2c.21-.25.43-.5.64-.74.02.31-.04.6-.18.88Z"/>
            <path class="cls-1" d="M585.62,258.22c-.1-.07-.19-.15-.29-.22.11.06.22.13.33.19,0,0-.04.03-.04.03Z"/>
            <path class="cls-1" d="M564.49,266.73c-.42.12-.84.24-1.25.36.42-.12.84-.24,1.25-.36Z"/>
            <path class="cls-1" d="M643.72,278c-.22.22-.48.3-.78.26.1-.59.27-.93.78-.26Z"/>
            <path class="cls-1" d="M633.92,279.32c-.6.7-1.19.71-1.78,0,.59,0,1.19,0,1.78,0Z"/>
            <path class="cls-1" d="M458.54,177.51c2.29-3.63,5.9-3.88,9.43-3.22,2.9.54,5.56.78,8.21-.69,1.67-.93,3.58-.92,5.25-.53,8.8,2.02,17.77.16,26.66,1.5,4.65.7,9.65-1.47,14.5-1.47,8.31,0,16.6,1.15,24.94.82,10.32-.41,20.65-.53,30.97-.98,3.33-.15,6.47,1.01,9.73.93,5.78-.15,11.54.19,17.36-.71,6.61-1.02,13.28,1.25,20,.8,3.41-.23,6.85.1,10.09-1.37.65-.3,1.53-.59,2.15-.39,10.96,3.43,22.2,1.3,33.3,1.62,13.51.38,27.04-.01,40.56.14,6.41.07,12.48-3.01,18.97-1.87,1.45.25,2.99.14,4.4.52,5.28,1.42,10.26,1.56,15.95.89,12.21-1.44,24.72-.75,37.07-.24,3.42.14,7.06,2.09,7.09,7.18.01,2.17.27,4.85,2.61,6.43,1.16.78.77,2.2.78,3.37.04,3.02.01,6.04.01,9.06-7.12,4.49-20.33,2.17-25.56-4.45-1.49-1.89-3.12-3.66-5.66-4.13-.58-.11-1.32-.22-1.66-.62-8.24-9.79-19.21-3.8-28.91-5-1.7-.21-3.76.69-5.69.58-2.36-.14-4.33.14-5.59,2.65-.85,1.69-2.71,2.58-3.81.46-2.26-4.35-6.22-3.65-9.37-2.85-6.64,1.69-13.04.05-19.46-.58-5.68-.55-11.23-.99-16.76.51-2.66.72-5.16.93-7.87.14-2.7-.79-5.31-.52-7.07,2.28-1.46,2.34-2.88,1.74-4.62.04-2.79-2.71-5.95-2.68-8.67.07-2.02,2.04-3.7,2.1-5.75.26-3.26-2.93-6.6-3.16-9.84.05-1.52,1.5-2.56,1.92-4.3-.1-2.88-3.34-7.12-2.96-9.21.8-1.26,2.26-2.77,2.69-5.04,2.67-11.18-.08-22.35.07-33.53-.09-3.86-.05-7.56-1.23-10.57-3.88-2.4-2.11-4.76-2.13-7.23-.22-4.66,3.62-10.34,3.33-14.39-.74-1.88-1.89-19.59-2.53-21.05-.28-2.68,4.13-7.07,3.8-10.8,5.09-1.86.64-4.2.79-4.73,2.82-.99,3.82-3.57,3.75-6.51,3.63-2.68-.11-5.37-.14-8.04,0-2.63.14-4.49-.29-5.39-3.34-.89-3.01-3.92-2.82-6.36-2.99-3.54-.26-7.15.38-10.58-1.07-1.89-.8-3.94-1.17-4.96-3.43-.65-1.45-2.17-1.76-3.77-1.94-7.3-.85-7.29-.91-7.29-8.11Z"/>
            <path class="cls-1" d="M804.98,254.59c.08.27.07.54-.03.8-.36.02-.71.04-1.07.06.37-.29.73-.57,1.1-.86Z"/>
          </g>
        </g>
      </g>
    </g>
  </g>
</svg>