<?xml version="1.0" encoding="UTF-8"?>
<svg xmlns="http://www.w3.org/2000/svg" version="1.1" viewBox="0 0 841.89 595.28">
  <!-- Generator: Adobe Illustrator 28.6.0, SVG Export Plug-In . SVG Version: 1.2.0 Build 709)  -->
  <g>
    <g id="Layer_1">
      <path d="M767.43,366.98c-.09-.25-.14-.41-.24-.7-1.1,1.11-2.08,2.22-3.19,3.2-4.76,4.19-10.2,5.28-16.24,3.41-4.59-1.42-8.61-3.95-12.62-6.51-4.25-2.72-8.36-5.65-12.95-7.8-2.68-1.25-5.45-2.2-8.44-2.31-4.5-.16-8.23,1.69-11.32,4.79-1.87,1.88-3.5,4.01-5.27,5.99-3.03,3.38-6.57,5.95-11.21,6.58-3.45.47-6.74-.28-9.92-1.59-4.78-1.97-9.01-4.89-13.32-7.68-3.86-2.5-7.7-5.05-12.03-6.7-3.82-1.46-7.69-2.02-11.66-.51-3.14,1.2-5.59,3.31-7.79,5.77-1.97,2.2-3.79,4.57-5.97,6.55-4.68,4.27-10.19,5.28-16.22,3.4-4.59-1.43-8.61-3.96-12.61-6.52-4.2-2.68-8.26-5.58-12.79-7.72-2.7-1.27-5.5-2.25-8.51-2.37-4.47-.18-8.16,1.65-11.28,4.68-1.35,1.31-2.45,2.86-3.75,4.22-4.9,5.17-10.49,8.48-18.9,5.92-4.6-1.4-8.61-3.94-12.62-6.51-4.27-2.73-8.41-5.69-13.03-7.84-2.66-1.24-5.4-2.17-8.35-2.28-4.5-.16-8.23,1.67-11.33,4.78-1.9,1.9-3.52,4.07-5.33,6.06-3.91,4.33-8.55,7.12-14.65,6.59-2.74-.24-5.33-1.09-7.81-2.26-5.33-2.49-10.06-5.95-15.01-9.06-3.7-2.32-7.47-4.51-11.77-5.61-5.74-1.46-10.61.19-14.72,4.21-1.92,1.88-3.54,4.05-5.34,6.05-3.03,3.38-6.57,5.95-11.21,6.58-3.45.47-6.74-.27-9.92-1.58-4.78-1.97-9.01-4.88-13.32-7.68-3.86-2.5-7.7-5.05-12.03-6.71-3.82-1.46-7.69-2.02-11.66-.51-3.14,1.2-5.59,3.31-7.79,5.77-1.97,2.2-3.79,4.57-5.97,6.55-4.68,4.27-10.18,5.29-16.22,3.4-4.59-1.43-8.59-3.99-12.62-6.51-4.22-2.64-8.47-5.25-12.81-7.69-2.6-1.46-5.48-2.28-8.49-2.4-4.5-.18-8.24,1.65-11.34,4.75-1.9,1.9-3.53,4.06-5.33,6.06-3.74,4.14-8.14,6.94-14,6.66-2.98-.14-5.76-1.03-8.45-2.28-5.33-2.47-10.06-5.94-15.01-9.05-3.7-2.32-7.47-4.52-11.76-5.62-5.81-1.49-10.72.21-14.86,4.3-1.89,1.87-3.48,4.02-5.27,6-3.75,4.14-8.15,6.93-14.01,6.65-2.98-.15-5.76-1.04-8.44-2.28-5.33-2.47-10.06-5.94-15.01-9.05-3.7-2.32-7.47-4.52-11.76-5.62-5.78-1.48-10.67.2-14.79,4.26-1.91,1.88-3.53,4.06-5.33,6.06-3.91,4.33-8.55,7.12-14.64,6.6-2.74-.24-5.33-1.09-7.81-2.25-5.33-2.48-10.06-5.95-15.01-9.06-3.7-2.32-7.47-4.51-11.77-5.61-5.7-1.46-10.53.19-14.67,4.14-1.36,1.3-2.48,2.83-3.75,4.23-2.98,3.28-6.03,6.49-10.44,7.9-3.41,1.09-6.8.87-10.16-.18-4.56-1.41-8.56-3.92-12.54-6.47-4.22-2.7-8.31-5.62-12.87-7.77-2.7-1.28-5.5-2.25-8.51-2.36-4.5-.17-8.21,1.68-11.34,4.75-1.55,1.52-2.93,3.23-4.35,4.81v-129.31h803.98c.02.31.05.63.05.94,0,42.7.01,85.4-.05,128.09,0,1.05-.65,2.14-1.17,3.13-1.15,2.17-2.46,4.24-4.55,5.68-2.36,1.62-4.76,1.51-7.2.22-3.13-1.66-5.38-4.33-7.81-6.8-2.62-2.67-5.29-5.28-7.99-7.87-.54-.52-1.28-.88-1.98-1.2-2.89-1.3-5.59-.58-7.5,2.27-1.47,2.19-2.63,4.59-3.92,6.9-.14.26-.24.54-.4.9Z"/>
    </g>
  </g>
</svg>