<?xml version="1.0" encoding="UTF-8"?>
<svg xmlns="http://www.w3.org/2000/svg" version="1.1" viewBox="0 0 841.89 595.28">
  <!-- Generator: Adobe Illustrator 28.6.0, SVG Export Plug-In . SVG Version: 1.2.0 Build 709)  -->
  <g>
    <g id="Layer_1">
      <g>
        <path d="M676.94,394.8c-2.7,2.58-5,5.89-8.17,7.64-55.5,30.66-111.13,61.1-166.67,91.71-5.09,2.81-9.4,2.68-14.48-.12-55.66-30.72-111.39-61.32-167.19-91.81-5.33-2.91-7.87-6.68-7.56-12.76.28-5.64.06-11.3.06-17.74h-5.45c-25.16,0-50.33.02-75.49-.03-2.13,0-4.37-.12-6.38-.76-4.37-1.39-6.98-5.62-6.62-10.05.38-4.61,3.95-8.42,8.61-9.02,1.81-.23,3.66-.14,5.49-.14,26.32,0,52.65,0,79.4,0v-52c-1.64,0-3.39,0-5.15,0-17,0-34,.01-50.99-.02-4.81,0-8.48-2.1-10.08-6.71-1.34-3.88-.86-8,2.62-10.41,2.41-1.67,5.76-2.7,8.7-2.74,18.15-.24,36.31-.12,54.9-.12v-36h-5.66c-35.16,0-70.32,0-105.49,0-1.67,0-3.35.1-4.99-.14-5.42-.79-8.89-5.08-8.64-10.47.24-5.11,3.96-8.97,9.29-9.29,3.82-.23,7.66-.09,11.5-.09,32.83,0,65.66,0,98.49,0h5.93c0-6.57.13-12.69-.04-18.8-.14-5.26,2.08-8.74,6.67-11.25,56.19-30.79,112.35-61.63,168.46-92.56,4.72-2.6,8.87-2.74,13.61-.13,56.12,30.92,112.31,61.73,168.41,92.69,2.62,1.45,4.6,4.06,6.88,6.14v71c-4.73,5.86-8.57,7.56-13.34,5.93-4.73-1.62-6.65-5.4-6.65-13.14,0-12.33,0-24.66,0-36.98v-6.44c-15.5,8.52-30.11,16.43-44.53,24.65-1.35.77-2.23,3.47-2.25,5.29-.17,15.82-.15,31.65-.07,47.48.02,4.37-1.3,7.91-5.19,10.07-12.22,6.79-24.4,13.64-36.77,20.15-6.99,3.68-14.17-.5-14.84-8.38-.32-3.81-.1-7.66-.1-11.49,0-9.93,0-19.87,0-30.53-2.32,1.14-3.95,1.86-5.51,2.72-12.84,7.04-25.6,14.22-38.54,21.06-3.26,1.73-4.3,3.7-4.29,7.34.13,51.81.09,103.62.09,155.43v5.38c1.48-.65,2.38-.96,3.22-1.42,48.57-26.66,97.16-53.3,145.64-80.11,1.55-.86,2.96-3.48,3-5.31.27-11.49.08-22.99.17-34.48.04-5.24,2.88-9.06,7.2-10.2,4.84-1.28,8.83.51,11.76,5.27.35.56.67,1.14,1.01,1.71v50ZM484.72,469.5c.12-1.48.22-2.14.22-2.8,0-53.13-.03-106.26.1-159.39,0-3.34-1.57-4.56-4.07-5.93-48-26.29-95.95-52.66-143.93-78.99-1.11-.61-2.29-1.09-3.88-1.83-.09,1.62-.2,2.73-.2,3.83,0,52.63.04,105.26-.12,157.89-.01,3.6,1.73,4.86,4.31,6.27,36.33,19.9,72.62,39.85,108.93,59.78,12.66,6.95,25.33,13.87,38.64,21.17ZM542.49,260.18c-15.07-8.28-29.34-16.11-43.6-23.95-34.54-18.97-69.07-37.97-103.67-56.85-1.68-.91-4.42-1.74-5.82-1-15.12,8-30.08,16.32-45.16,24.61.47.47.66.76.91.9,49.1,27.01,98.2,54.01,147.36,80.92,1.21.66,3.35.85,4.51.22,14.93-8.02,29.77-16.23,45.47-24.85ZM646.07,203.32c-2.63-1.49-4.74-2.72-6.89-3.9-46.67-25.64-93.34-51.29-140.06-76.84-1.71-.94-4.46-1.97-5.83-1.25-14.55,7.68-28.92,15.71-43.98,23.99,8.99,4.95,17.39,9.6,25.8,14.22,40.4,22.19,80.8,44.4,121.26,66.48,1.77.97,4.7,1.75,6.22.95,14.43-7.58,28.66-15.52,43.48-23.64ZM412.79,165.4c.64.7.9,1.16,1.29,1.37,48.98,26.94,97.97,53.87,146.99,80.75.91.5,2.38.97,3.14.58,4.96-2.5,9.79-5.25,15.42-8.33-10.69-5.88-20.43-11.24-30.17-16.59-39.08-21.47-78.16-42.95-117.28-64.33-1.54-.84-3.94-1.64-5.3-1.03-4.78,2.15-9.27,4.93-14.08,7.58ZM573.21,302.28c5.67-3.11,10.47-5.65,15.15-8.39.82-.48,1.61-1.79,1.62-2.72.11-11.1.07-22.19.07-34.27-5.6,3.09-10.54,5.69-15.31,8.57-.86.52-1.45,2.17-1.46,3.3-.11,10.79-.06,21.57-.06,33.51Z"/>
        <path d="M164.94,358.8c2.82-5.54,7.33-7.67,13.47-7.13,3.79.33,7.64-.08,11.45.16,5.3.33,9,4.2,9.24,9.29.26,5.36-3.18,9.96-8.59,10.39-5.61.44-11.43.87-16.86-.21-3.21-.64-5.82-4.23-8.71-6.49,0-2,0-4,0-6Z"/>
        <path d="M676.94,310.8c-.7.86-1.39,1.73-2.09,2.59-3.9,4.74-10.66,5.21-14.88,1.04-4.16-4.11-3.96-10.67.44-14.54,4.42-3.88,11.25-2.99,14.76,1.95.66.94,1.19,1.97,1.78,2.96v6Z"/>
        <path d="M205.77,289.43c.11-5.5,4.49-9.73,9.98-9.66,5.38.07,9.87,4.59,9.85,9.92-.01,5.51-4.91,10.22-10.37,9.98-5.44-.24-9.58-4.72-9.47-10.24Z"/>
      </g>
    </g>
  </g>
</svg>