<?xml version="1.0" encoding="UTF-8"?>
<svg xmlns="http://www.w3.org/2000/svg" version="1.1" viewBox="0 0 841.89 595.28">
  <!-- Generator: Adobe Illustrator 28.6.0, SVG Export Plug-In . SVG Version: 1.2.0 Build 709)  -->
  <g>
    <g id="Layer_1">
      <g>
        <path d="M307.14,141.88c0-4.35-.07-8.09.01-11.82.15-6.98,5.38-12.19,12.08-12.13,6.51.06,11.66,5.23,11.84,12.01.1,3.84.02,7.68.02,11.73h35.95c0-3.45-.02-7.01,0-10.56.04-7.71,4.86-13.08,11.79-13.17,7.08-.1,12.11,5.36,12.16,13.21.02,3.46,0,6.92,0,10.56h35.94c0-3.05,0-6.11,0-9.17,0-9.05,4.47-14.54,11.87-14.6,7.53-.06,12.08,5.5,12.08,14.78,0,2.86,0,5.73,0,9.17,1.45,0,2.76,0,4.06,0,13.97,0,27.94,0,41.92,0,9.18,0,13.91,4.65,13.91,13.7,0,102.68,0,205.36,0,308.04,0,8.98-4.66,13.71-13.53,13.71-78.84,0-157.68,0-236.52,0-8.67,0-13.48-4.77-13.48-13.39,0-102.93,0-205.86,0-308.79,0-8.45,4.79-13.25,13.19-13.27,14.1-.03,28.19,0,42.29,0,1.34,0,2.68,0,4.41,0ZM271.46,166.03v287.06h215.18V166.08h-35.75c0,3.83.04,7.43,0,11.03-.09,7.32-5.13,12.66-11.93,12.68-6.79.02-11.92-5.33-12.01-12.6-.05-3.7,0-7.39,0-11.07h-35.94c0,3.76.03,7.25,0,10.73-.07,7.58-5.11,12.98-12.05,12.94-6.92-.04-11.85-5.45-11.9-13.09-.02-3.56,0-7.12,0-10.67h-35.94c0,3.89.05,7.6-.01,11.31-.12,7.23-5.34,12.55-12.15,12.45-6.65-.1-11.68-5.39-11.78-12.45-.06-3.71,0-7.42,0-11.31h-35.68Z"/>
        <path d="M522.77,284.15c0-25.58-.13-51.16.05-76.74.14-19.68,16.08-35.42,35.55-35.56,19.72-.14,35.8,15.5,36.25,35.26.03,1.12.02,2.25.02,3.37,0,50.16.04,100.33-.1,150.49,0,3.35-.85,6.98-2.3,10-7.14,14.82-14.68,29.44-21.95,44.2-2.4,4.87-5.82,8.16-11.44,8.22-5.81.06-9.31-3.28-11.77-8.29-7.31-14.87-14.87-29.62-22.1-44.53-1.31-2.69-2.1-5.92-2.11-8.91-.16-25.83-.09-51.66-.09-77.49ZM558.69,384.64c3.79-7.56,7.26-14.27,10.49-21.1.87-1.83,1.43-4,1.44-6.02.09-34.67.06-69.35.05-104.02,0-1.2-.11-2.39-.16-3.49h-23.62c-.08.54-.15.79-.15,1.04-.01,35.92-.02,71.84,0,107.77,0,.96.12,2.03.54,2.88,3.61,7.38,7.3,14.72,11.41,22.95ZM570.66,225.59c0-6.4.14-12.38-.04-18.35-.19-6.04-4.97-10.9-10.85-11.41-6.08-.52-12.12,3.57-12.7,9.66-.63,6.62-.14,13.34-.14,20.09h23.73Z"/>
        <path d="M318.82,256.86c1.41-1.33,2.41-2.23,3.36-3.18,9.88-9.87,19.72-19.76,29.62-29.6,5.44-5.4,12.69-5.59,17.62-.57,4.8,4.88,4.63,12.1-.61,17.37-13.53,13.62-27.09,27.19-40.71,40.72-5.64,5.6-12.43,5.47-18.15-.18-5.5-5.43-10.96-10.9-16.39-16.39-5.43-5.49-5.69-12.66-.73-17.63,4.96-4.97,12.15-4.71,17.63.72,2.81,2.79,5.48,5.72,8.36,8.74Z"/>
        <path d="M319.13,322.69c11.12-11.14,21.88-21.88,32.59-32.67,2.99-3.02,6.45-4.69,10.73-4.07,4.71.68,8.07,3.3,9.67,7.78,1.7,4.79.6,9.13-2.97,12.71-11.07,11.14-22.19,22.23-33.29,33.33-2.73,2.73-5.4,5.53-8.22,8.17-5.19,4.88-11.97,4.9-17.07-.06-5.9-5.73-11.71-11.56-17.45-17.44-4.99-5.11-5.07-12.28-.34-17.09,4.81-4.89,12.1-4.78,17.37.32,2.94,2.85,5.79,5.8,8.99,9.02Z"/>
        <path d="M318.93,388.78c11.27-11.29,22.02-22.02,32.72-32.81,2.99-3.01,6.42-4.74,10.71-4.15,4.71.65,8.1,3.24,9.72,7.71,1.74,4.77.69,9.13-2.88,12.73-8.86,8.95-17.78,17.82-26.68,26.73-4.76,4.76-9.48,9.55-14.29,14.27-5.73,5.63-12.49,5.65-18.15.07-5.59-5.51-11.14-11.07-16.66-16.66-5.26-5.33-5.51-12.42-.72-17.36,4.88-5.04,12.2-4.89,17.62.47,2.83,2.8,5.5,5.75,8.6,9.01Z"/>
        <path d="M426.88,267.68c-9.61,0-19.21.03-28.82,0-7.62-.03-13.03-5.01-13.05-11.93-.02-6.97,5.34-12,12.95-12.01,19.34-.03,38.67-.03,58.01,0,7.54.01,12.95,5.16,12.87,12.11-.08,6.79-5.42,11.79-12.77,11.83-9.73.05-19.46.01-29.19.01Z"/>
        <path d="M426.6,333.57c-9.48,0-18.96.02-28.44,0-7.66-.02-13.07-4.93-13.14-11.84-.07-7.1,5.34-12.1,13.23-12.1,19.09-.02,38.17-.02,57.26,0,7.91,0,13.36,4.95,13.34,12.02-.03,7.06-5.47,11.92-13.43,11.93-9.61.02-19.21,0-28.82,0Z"/>
        <path d="M426.9,399.47c-9.61,0-19.21.03-28.82,0-7.63-.03-13.04-4.99-13.07-11.91-.03-6.97,5.33-12.02,12.93-12.03,19.34-.03,38.67-.03,58.01,0,7.55.01,12.96,5.14,12.89,12.09-.06,6.79-5.41,11.81-12.75,11.85-9.73.05-19.46.01-29.19.01Z"/>
      </g>
    </g>
  </g>
</svg>