<?xml version="1.0" encoding="UTF-8"?>
<svg xmlns="http://www.w3.org/2000/svg" version="1.1" viewBox="0 0 841.89 595.28">
  <!-- Generator: Adobe Illustrator 28.6.0, SVG Export Plug-In . SVG Version: 1.2.0 Build 709)  -->
  <g>
    <g id="Layer_1">
      <path d="M576.28,200.09c-.29,18.4-6.12,32.76-17.82,44.53-24.9,25.03-49.97,49.9-74.93,74.88-37.14,37.15-74.23,74.35-111.43,111.43-1.74,1.74-4.3,3.13-6.7,3.66-28.46,6.3-56.96,12.42-85.45,18.56-9.31,2.01-16.72-5.84-14.68-15.13,6.19-28.23,12.15-56.52,18.38-84.74.56-2.53,1.91-5.26,3.72-7.07,49.61-49.74,99.31-99.37,149.02-149.01,13.59-13.57,26.54-27.89,40.99-40.48,35.07-30.59,88.87-11.62,97.81,34.01.72,3.65.89,7.42,1.11,9.37ZM292.63,425.41c.8,0,1.29.08,1.73-.01,19.86-4.25,39.72-8.44,59.54-12.87,2.25-.5,4.56-1.98,6.22-3.63,45.5-45.36,90.92-90.81,136.37-136.22.96-.96,2.24-1.6,3.1-2.2-17.48-17.48-34.3-34.3-51.22-51.22-.07.06-.48.33-.82.67-46.49,46.49-92.98,92.98-139.42,139.52-1.06,1.06-1.83,2.67-2.18,4.15-1.96,8.5-3.76,17.03-5.59,25.56-2.58,12.02-5.14,24.04-7.75,36.26ZM467.3,201.68c16.42,16.43,33.19,33.21,49.5,49.54,8.19-7.92,16.95-16.07,25.35-24.58,13.17-13.34,13.51-34.98,1.05-48.85-12.44-13.85-34.49-16.33-48.61-4.18-10.04,8.64-18.6,19.02-27.3,28.08Z"/>
    </g>
  </g>
</svg>