<?xml version="1.0" encoding="UTF-8"?>
<svg xmlns="http://www.w3.org/2000/svg" version="1.1" viewBox="0 0 841.89 595.28">
  <defs>
    <style>
      .cls-1 {
        fill: #f8595f;
      }

      .cls-2 {
        fill: #fefefe;
      }
    </style>
  </defs>
  <!-- Generator: Adobe Illustrator 28.6.0, SVG Export Plug-In . SVG Version: 1.2.0 Build 709)  -->
  <g>
    <g id="Layer_1">
      <g>
        <path class="cls-2" d="M584.05,251.97c-.01-6.28-1.15-14.77-3.31-23.14-12.22-47.38-59.67-75.42-106.63-62.8-21.1,5.67-37.75,18.11-51.15,35.08-1.96,2.49-2.82,2.4-4.67-.04-5.84-7.68-12.82-14.25-20.51-20.08-35.91-27.26-87.06-23.48-116.51,10.02-27.07,30.8-30.92,66.1-15.16,103.51,9.52,22.59,24.84,41.32,41.71,58.79,26.56,27.48,56.85,50.34,88.7,71.25,15.92,10.45,31.98,10.55,47.95.18,24.16-15.71,47.31-32.78,68.78-52.04,21.63-19.39,41.43-40.35,55.81-65.87,9.17-16.28,15.17-33.53,14.98-54.85Z"/>
        <path d="M584.05,251.97c.19,21.33-5.8,38.57-14.98,54.85-14.38,25.52-34.19,46.48-55.81,65.87-21.48,19.25-44.62,36.33-68.78,52.04-15.96,10.38-32.03,10.27-47.95-.18-31.85-20.9-62.15-43.77-88.7-71.25-16.88-17.46-32.19-36.2-41.71-58.79-15.76-37.41-11.91-72.71,15.16-103.51,29.45-33.5,80.6-37.29,116.51-10.02,7.69,5.84,14.67,12.4,20.51,20.08,1.85,2.43,2.71,2.53,4.67.04,13.4-16.97,30.05-29.42,51.15-35.08,46.97-12.62,94.41,15.42,106.63,62.8,2.16,8.36,3.3,16.86,3.31,23.14ZM275.95,254.26c-.24,9.78,1.84,19.09,5.33,28.12,7.96,20.61,21.16,37.74,36.04,53.68,26.11,27.98,56.44,50.8,88.12,72.01,10.44,6.99,20.03,6.97,30.43.01,23.66-15.82,46.61-32.56,67.63-51.78,18.09-16.54,34.83-34.28,47.53-55.47,11.74-19.59,17.39-40.31,12.56-63.25-10.09-47.91-61.41-70.6-103.19-45.49-12.68,7.62-22.24,18.33-30.02,30.75-.33.53-.62,1.08-.95,1.61-4.72,7.58-12.66,7.8-17.33.27-6.1-9.81-13.13-18.75-22.06-26.19-24.25-20.2-57.38-22.59-82.99-5.29-21.47,14.51-30.4,35.76-31.1,61.01Z"/>
        <path class="cls-1" d="M275.95,254.26c.7-25.25,9.63-46.51,31.1-61.01,25.61-17.3,58.74-14.91,82.99,5.29,8.92,7.43,15.96,16.37,22.06,26.19,4.67,7.52,12.61,7.31,17.33-.27.33-.53.62-1.08.95-1.61,7.78-12.43,17.34-23.13,30.02-30.75,41.79-25.11,93.1-2.42,103.19,45.49,4.83,22.94-.82,43.66-12.56,63.25-12.7,21.19-29.44,38.93-47.53,55.47-21.02,19.23-43.97,35.96-67.63,51.78-10.4,6.95-19.99,6.98-30.43-.01-31.68-21.21-62.01-44.03-88.12-72.01-14.87-15.94-28.08-33.07-36.04-53.68-3.49-9.03-5.57-18.34-5.33-28.12Z"/>
      </g>
    </g>
  </g>
</svg>