<?xml version="1.0" encoding="UTF-8"?>
<svg xmlns="http://www.w3.org/2000/svg" version="1.1" viewBox="0 0 841.89 595.28">
  <!-- Generator: Adobe Illustrator 28.6.0, SVG Export Plug-In . SVG Version: 1.2.0 Build 709)  -->
  <g>
    <g id="Layer_1">
      <g id="Z8f3kx.tif">
        <g>
          <path d="M440.15,507.39c-31.92,0-63.84,0-95.76,0-43.9,0-79.55-35.66-79.57-79.64-.01-31.75-.04-63.5.02-95.26.02-8.9,5.86-15.64,14.07-16.61,8.02-.95,15.62,4.4,17.4,12.44.46,2.08.41,4.29.41,6.44.02,30.92,0,61.84.02,92.76.01,26.88,21.26,47.94,48.2,47.93,63.67-.03,127.34-.03,191.01,0,26.91.01,48.13-21.08,48.14-47.99.01-31.59-.04-63.17.03-94.76.03-12.18,10.93-20.11,21.68-15.79,6.26,2.52,10.09,7.39,10.12,14.14.14,34.24,1.1,68.53-.29,102.72-1.66,40.93-37.56,73.51-78.75,73.6-16.13.04-32.25-.01-48.38-.02-16.13,0-32.25,0-48.38,0v.02Z"/>
          <path d="M440.45,99.03c-1.54,1.46-2.86,2.67-4.13,3.94-63.35,63.38-126.71,126.75-190.01,190.19-5.2,5.21-10.82,8.28-18.27,5.89-10.95-3.52-14.72-16.69-7.34-25.49,1.07-1.27,2.29-2.4,3.47-3.58,67.48-67.48,134.96-134.96,202.44-202.45,9.89-9.89,17.8-9.88,27.75.07,67.72,67.71,135.42,135.45,203.18,203.12,5.25,5.25,8.06,10.97,5.52,18.35-3.67,10.65-16.6,14.26-25.26,7.11-1.41-1.16-2.65-2.52-3.94-3.81-62.99-63.04-125.98-126.08-188.98-189.11-1.38-1.38-2.82-2.71-4.42-4.24Z"/>
        </g>
      </g>
    </g>
  </g>
</svg>