<?xml version="1.0" encoding="UTF-8"?>
<svg xmlns="http://www.w3.org/2000/svg" version="1.1" viewBox="0 0 841.89 595.28">
  <defs>
    <style>
      .cls-1 {
        fill: #f7bfd1;
      }

      .cls-2 {
        fill: #f6bfd1;
      }

      .cls-3 {
        fill: #f9e3e9;
      }

      .cls-4 {
        fill: #f9cfdb;
      }

      .cls-5 {
        fill: #f6bfd0;
      }

      .cls-6 {
        fill: #f9e4e9;
      }
    </style>
  </defs>
  <!-- Generator: Adobe Illustrator 28.6.0, SVG Export Plug-In . SVG Version: 1.2.0 Build 709)  -->
  <g>
    <g id="Layer_1">
      <g>
        <path class="cls-2" d="M499.11,134.29c-1.81,4.12-4.99,7.34-7.33,11.14-3.87,6.29-8.26,12.27-12.37,18.42-1.24,1.86-2.45,2.34-4.64,1.23-1.68-.86-3.76-.95-5.68-1.28-2.52-.44-3.68-1.63-3.58-4.43.22-5.79.1-11.59.03-17.38-.02-1.2.77-3.03-.85-3.47-1.69-.46-2.31,1.42-2.95,2.59-2.89,5.36-7.12,9.79-10.24,14.97-1.18,1.96-2.54,2.11-4.39,1.29-1-.44-2-.89-3.05-1.2-6.1-1.78-6.03-1.76-6.13-8.18-.07-4.57-.98-9.11-.63-13.7h11.83c-.1,1.73.24,3.49-.3,5.2-.22.69-.15,1.35.59,1.64.64.25.98-.27,1.24-.76,1.05-2.01,2.7-3.72,3.07-6.08h21.69c0,3.72-.01,7.44.01,11.16,0,1.06-.31,2.49.96,2.88,1.59.49,2.13-1.27,2.39-2.16.83-2.86,2.85-4.84,4.62-7,1.2-1.47,2.14-3.02,2.54-4.88h13.15Z"/>
        <path class="cls-1" d="M547.75,134.29c.19,1.11.99,1.35,1.94,1.3,4.49-.25,8.89,1.14,13.39.67,3.2-.34,6.28.69,9.45.7,1.48,0,2.15.88,2.17,2.31,0,.11,0,.22.01.33.53,6.34.26,6.73-6.2,6.48-3.58-.14-7.14-.69-10.7-1.11-1.55-.18-3.28-.51-4.28.86-1.08,1.48-.56,3.39-.36,5.1.13,1.14,1.22,1.16,2.08,1.08,4.39-.38,8.7.83,13.06.64,2.48-.11,3.46.8,3.11,3.21-.19,1.29-.51,2.57-.58,3.86-.11,2.01-1.01,2.23-2.82,1.86-4.17-.87-8.48,0-12.7-.92-2.6-.56-2.97,1.59-2.95,3.6.02,1.9-.54,4.3,2.61,4.17,5.36-.21,10.65,1.17,16.01.67,2.2-.2,3.34.53,3.07,2.92-.11.97-.09,1.97,0,2.95.19,2.22-.86,3.38-3.01,3.31-5.88-.22-11.79-.28-17.63-.92-3.51-.39-6.98-.2-10.46-.33-1.71-.07-3.34-.35-3.04-2.43,1.84-12.84.65-25.9,2.82-38.72.09-.53.27-1.05.42-1.58,1.53,0,3.07,0,4.6,0Z"/>
        <path class="cls-1" d="M536.58,134.29c-.02,9.36-1.77,10.72-10.68,7.88-3.06-.97-6.29-.37-9.33-1.58-1.47-.59-2.39,1.06-2.26,2.45.14,1.57-1.31,3.94,1.79,4.39,4.2.62,8.37,1.42,12.58,1.92,2.45.29,3.75.96,2.72,3.7-.41,1.11-.54,2.33-.73,3.51-.27,1.68-1.24,2.13-2.81,1.87-4.18-.7-8.42-1.09-12.52-2.09-2.65-.64-3.14.8-3.48,2.57-.36,1.84-1.06,3.67,1.93,4.56,4.76,1.42,9.71,1.24,14.49,2.3,3.78.84,4.05,1.23,3.7,5.73-.24,3.02-1.83,3.77-4.59,3.54-5.72-.49-11.27-1.83-16.87-3.03-3.05-.65-6.25-.94-9.29-1.21-3.07-.27-3.21-1.69-2.7-3.39,2.16-7.15,1.68-14.67,3.42-21.87.89-3.68,1.18-7.51,1.74-11.27,10.96,0,21.91,0,32.87,0Z"/>
        <path class="cls-1" d="M260.46,363.61c.05-7.2-.38-14.38-1.27-21.52-.68-5.43-.15-5.92,5.31-6.11,7.84-.27,15.64-1.27,23.51-1.31,2.24-.01,3.82.3,4.03,3.03.35,4.58,0,5.66-3.28,6.01-4.55.49-9.14.77-13.71.79-2.89.01-3.41,1.3-3.48,3.81-.08,2.84,1.49,2.74,3.53,2.87,3.96.25,7.81-.82,11.76-.77,2.37.03,3.54.66,3.2,3.16-.06.43,0,.87,0,1.31,0,4.78,0,4.95-4.67,4.74-3.75-.17-7.38.84-11.1.73-2.52-.08-1.86,1.85-1.99,3.27h-11.83Z"/>
        <path class="cls-2" d="M163.82,171.74c2.11-.52,4.25-.97,6.33-1.58,1.34-.39,1.9-.19,2.26,1.31,2.17,9.17,5.4,18.05,7.23,27.32.22,1.1.81,2.11,1.94,1.64,4.6-1.91,9.56-2.48,14.25-4.02,2.14-.7,4.16-1,4.33,2.31.06,1.05.73,2.06.96,3.12.41,1.89.17,2.81-2.27,3.58-7.43,2.35-15.2,3.42-22.48,6.24-3.93,1.52-4.76,1.29-6.05-2.81-1.76-5.57-3.02-11.3-4.57-16.94-.32-1.18-.21-2.74-1.92-3.09,0-5.69,0-11.39,0-17.08Z"/>
        <path class="cls-6" d="M163.82,234.17c10.38-2.57,7.52-2.34,10.46,7.37,1.98,6.55,4.15,13.06,5.46,19.81.29,1.5,1.69,1.12,2.73.88,4.63-1.07,9.31-2.02,13.86-3.36,2.75-.81,3.6.44,4.1,2.64.17.74.2,1.51.35,2.26.75,3.72.41,3.75-3.21,4.64-7.38,1.81-14.86,3.34-21.98,6.11-2.9,1.13-4.67.42-5.22-2.63-1.12-6.32-3.79-12.23-4.71-18.6-.14-.98-.63-1.89-1.84-2.03v-17.08Z"/>
        <path class="cls-6" d="M604.95,267.68c-2.36-.23-3.64.76-3.27,3.19,1.38,8.99-.17,18.11,1.18,27.1.28,1.88-.41,2.65-2.28,2.57-1.53-.07-3.06,0-4.6,0-5.04,0-5.47-.24-5.45-5.61.03-7.65-1.19-15.25-.7-22.9.17-2.69-.69-3.94-3.64-3.16-1.23.33-2.61.11-3.92.12-5.31,0-7.19-2.66-5.46-7.79.33-.97.89-1.76,2.07-1.79,8.26-.21,16.53.02,24.76-.92.43-.05.87,0,1.31,0v9.2Z"/>
        <path class="cls-2" d="M604.95,326.16c-2.58-.38-3.49.68-3.33,3.3.53,8.57.38,17.19,1.33,25.74.23,2.1-.25,3.39-2.76,3.19-1.4-.11-2.85,0-4.23.25-4.54.84-5.43.39-5.42-4.2.02-7.85-1.32-15.67-.67-23.52.28-3.38-.88-4.57-4.2-4.15-2.26.28-4.57.21-6.86.29-.42.01-1.07.16-1.23-.05-1.88-2.42-.69-5.23-.82-7.86-.09-1.78,1.51-1.54,2.67-1.53,8.51.07,16.99-1.12,25.5-.67v9.2Z"/>
        <path class="cls-2" d="M604.95,205.91c-2.86-.91-3.5.3-3.33,3.02.52,8.49.39,17.01,1.34,25.47.28,2.45-.16,4.19-3.22,3.71-.43-.07-.87,0-1.31,0-7.71,0-7.6,0-7.97-7.79-.33-6.98-.86-13.96-.6-20.95.08-2.16-.74-2.94-2.86-2.83-2.4.13-4.83-.11-7.23.07-2.53.19-3.15-.87-3.14-3.25.04-6.32.2-5.89,7.03-6.23,7.11-.35,14.2-.22,21.29-.42v9.2Z"/>
        <path class="cls-1" d="M163.82,292.65c.11-.02.22-.02.32-.05,9.99-3.08,7.19-3.53,9.95,6.06,1.99,6.92,4.46,13.75,5.57,20.93.25,1.64,1.45,1.27,2.55.99,4.45-1.13,8.91-2.2,13.35-3.37,2.61-.68,4.33-.37,4.94,2.79.97,5.02,1.02,5.28-2.88,6.21-7.42,1.76-14.74,3.82-21.94,6.34-2.92,1.02-5.21-.36-5.79-4.08-.9-5.82-3.46-11.19-4.18-17.03-.14-1.11-.55-2.15-1.9-2.36,0-5.48,0-10.95,0-16.43Z"/>
        <path class="cls-1" d="M604.95,145.46c-2.37-.25-3.42.75-3.31,3.2.4,8.83.71,17.66,1.05,26.49.02.43.25,1,.05,1.27-1.39,1.94-3.55,2.1-5.58,1.83-2.04-.27-4.84,1.49-5.96-1.73-.42-1.22-.64-2.56-.69-3.85-.27-7.86-.58-15.72-.63-23.58-.01-2.65-1.14-3.2-3.38-2.97-1.84.19-3.61.75-5.51.7-2.81-.08-4.24-1.23-4.34-4.13-.16-4.64.11-5.19,3.72-5.68.97-.13,1.97-.13,2.95-.07,7.23.44,14.4-.91,21.62-.67v9.2Z"/>
        <path class="cls-5" d="M354.47,363.61c-.52-2.76-3.01-2.08-4.72-2.56-3.98-1.14-7.33-3.1-9.96-6.32-4.75-5.81-.89-13.83,4.05-16.34,8.91-4.55,17.52-2.5,26.04,1.18,1.49.64,2.02,1.94,1.39,3.55-.67,1.72-1.96,3.07-2.77,4.76-.62,1.3-2.51.76-3.82-.01-3.37-1.99-7.03-2.99-10.92-2.54-1.5.17-3.49.21-3.82,2.38-.33,2.19,1.21,2.83,2.88,3.73,3.94,2.12,8.64,2.11,12.36,4.73,2.65,1.87,5.05,3.84,5.07,7.47h-15.78Z"/>
        <path class="cls-1" d="M221.68,363.61c.03-6.24-1.81-12.23-2.4-18.4-.21-2.2.03-3.25,2.31-3.6,6.97-1.07,13.89-2.51,20.95-2.99,1.94-.13,3.87-.56,5.8-.87.53-.08,1.21-.48,1.57-.28,2.3,1.28,1.48,3.76,1.92,5.71.26,1.17.75,3.01-1.49,3.32-4.95.67-9.89,1.59-14.86,1.91-2.97.19-3.4,1.54-3.31,3.95.13,3.69,1.18,5.44,3.79,5.29,2.81-.15,5.6-.69,8.39-1.07.32-.04.63-.18.94-.27,5.23-1.58,6.61-.69,7.24,4.69.1.86.04,1.75.05,2.62h-30.9Z"/>
        <path class="cls-1" d="M395.89,363.61c-.94-3.27-1.37-6.51-.32-9.89,1.77-5.67,6.98-7.98,12.34-8.51,7.05-.7,13.24,1.79,19.18,5.13,2.56,1.44,2.73,2.91.88,5.19-3.72,4.59-3.85,4.78-8.87,1.5-2.63-1.72-5.47-1.99-8.31-2.57-1.76-.36-2.92.49-3.5,2.19-.56,1.67.21,2.72,1.53,3.55,1.53.96,3.48,1.39,4.14,3.41h-17.09Z"/>
        <path class="cls-5" d="M178.94,134.29q.98,6.1,6.99,4.63c3.69-.91,7.4-1.8,11.04-2.88,2.32-.69,3.27.26,3.65,2.35,1.15,6.37.92,6.57-5.59,8.19-6.55,1.63-13.18,2.94-19.58,5.15-3.03,1.05-4.64-.02-5.54-3.53-1.18-4.63-2.31-9.28-3.46-13.92h12.49Z"/>
        <path class="cls-1" d="M318.32,363.61c-.45-8.84.76-17.64.64-26.47-.03-1.87.76-2.49,2.55-2.46,11.1.19,9.44-1.44,9.18,8.68-.17,6.75-.55,13.49-.54,20.25h-11.83Z"/>
        <path class="cls-2" d="M426.13,134.29c-1.62,9.83-10.3,12.14-17.63,10.95-5.54-.9-10.69-2.63-15.39-5.61-1.91-1.21-3.72-2.72-3.8-5.34h36.82Z"/>
        <path class="cls-1" d="M200.64,363.61c-.89-4.77-1.61-9.59-2.76-14.3-.54-2.23-.3-3.26,2.09-3.59,1.93-.27,3.91-.6,5.71-1.3,2.77-1.06,3.54.48,4,2.62,1.17,5.52,2.3,11.05,3.45,16.57h-12.49Z"/>
        <path class="cls-2" d="M215.76,134.29c.02.11.04.21.05.32.21,2.27,2.7,5.13.45,6.6-2.65,1.74-6.12,2.66-9.6,2.24-1.13-.14-1.36-.92-1.51-1.81-.41-2.45-.82-4.9-1.23-7.35h11.83Z"/>
        <path class="cls-2" d="M163.82,354.41c1.98.08,3.81-.62,5.67-1.14,1.87-.52,2.83.21,3.28,2.01.7,2.79,1.48,5.55,2.22,8.33-3.29,0-6.58-.07-9.86.04-1.15.04-1.4-.2-1.35-1.35.11-2.62.04-5.26.04-7.88Z"/>
        <path class="cls-5" d="M436.65,363.61c0-2.39.01-4.79,0-7.18,0-1.86.94-2.28,2.54-1.69,1.22.45,2.41,1.03,3.65,1.39,5.63,1.65,5.63,1.63,5.63,7.48h-11.83Z"/>
        <path class="cls-4" d="M485.96,134.29c-.4,1.86-1.34,3.41-2.54,4.88-1.77,2.16-3.79,4.14-4.62,7-.26.9-.8,2.65-2.39,2.16-1.27-.39-.95-1.82-.96-2.88-.02-3.72-.01-7.44-.01-11.16h10.52Z"/>
        <path class="cls-2" d="M236.14,134.29c.64,3.11-.98,4.34-3.8,4.55-.54.04-1.09.02-1.63.1q-5.6.85-7.06-4.65h12.49Z"/>
        <path class="cls-4" d="M453.74,134.29c-.37,2.36-2.03,4.07-3.07,6.08-.26.49-.59,1.01-1.24.76-.74-.29-.81-.95-.59-1.64.54-1.71.2-3.47.3-5.2h4.6Z"/>
        <path class="cls-2" d="M361.05,134.29c-.55,2.12-2.61,1.57-3.82,1.68-3.18.28-6.55.64-9.33-1.68h13.15Z"/>
        <path class="cls-6" d="M475.97,270.6c.91.13,1.32-.46,1.68-.97,3.5-5.13,7.08-10.2,10.4-15.44,2.66-4.18,8.34-5.24,12.13-1.93,1.45,1.26.45,2.86-.2,3.85-6.85,10.42-13.83,20.75-20.78,31.1-.94,1.41-2.47,1.01-3.59.75-3.07-.71-6.07-1.72-9.08-2.69-1.25-.41-.97-1.6-.94-2.53.15-6.12-.15-12.22-.68-18.32-.08-.9.42-2.16-.98-2.43-1.08-.21-1.42.82-1.89,1.53-2.98,4.44-6.01,8.83-8.92,13.32-2.3,3.56-4.01,4.18-7.84,2.51-.1-.04-.19-.12-.29-.16-2.37-.98-5.88-.35-6.96-2.95-.87-2.1.22-4.93-.13-7.35-1.31-9.01.26-18.14-1.24-27.12-.36-2.17.93-4.26.2-6.47-.25-.74.62-1.14,1.31-1.05,3.24.42,6.31,1.53,9.22,2.94,1.23.59,1.09,2.26,1.11,3.6.08,6.86.19,13.71.26,20.57,0,.6.06,1.12.65,1.35.65.26.95-.27,1.3-.7,2.8-3.49,5.43-7.11,7.65-11.01,1.64-2.89,4.16-5.2,5.52-8.28.11-.24.5-.51.77-.51,3.33-.05,6.42,1.14,9.4,2.35,2.11.86,1.36,3.24,1.39,5.03.09,6.96-.22,13.92.55,21.04Z"/>
        <path class="cls-1" d="M449.52,322.44c3.58-5.4,6.91-10.2,9.98-15.15,1.38-2.22,3.47-3.92,4.43-6.44.36-.96,1.3-1.07,2.22-.59.58.29,1.14.69,1.75.84q7.53,1.83,7.54,9.5c0,5.21,0,10.42.02,15.63,0,.77-.04,1.64.74,2.05,1.21.63,1.52-.63,1.93-1.22,3.95-5.71,7.88-11.43,11.68-17.23,1.18-1.81,2.36-2.1,4.37-1.45,7.92,2.58,8.12,3.4,2.99,10.22-4.57,6.07-8.89,12.33-12.75,18.9-1.58,2.7-3.85,4.97-5.53,7.66-.62,1-1.86,1.51-3.2,1.13-.31-.09-.62-.23-.93-.32q-9.17-2.71-9.18-12.34c0-3.39.06-6.79-.08-10.17-.06-1.36-.58-2.71-1.04-4.72-3.87,4.62-6.9,9.17-9.83,13.78-3.43,5.39-3.66,6.95-11.09,4.42-5.57-1.9-5.25-1.97-5.62-7.77-.67-10.59-.46-21.18-.63-31.77-.09-5.4-.25-5.39,5.15-3.81.62.18,1.27.3,1.92.4,2.76.42,4.26,1.74,4.19,4.8-.16,7.09,1.05,14.16.63,21.27-.03.6.17,1.21.36,2.42Z"/>
        <path class="cls-5" d="M449.92,200.95c3.8-5.59,7.64-11.2,11.43-16.84,3.21-4.77,4.05-4.47,9.59-3.12,4.55,1.11,4.58,3.59,4.54,7.09-.06,6.42.17,12.84.27,19.26,0,.46,0,.89.56,1,.61.13,1.07-.17,1.39-.64,4.03-6.05,8.18-12.03,12-18.21,1.02-1.65,1.79-2.14,3.58-1.67,1.89.49,3.86.67,5.79,1.03,2.61.49,3.18,2.07,1.48,4.1-3.17,3.78-5.47,8.15-8.26,12.18-4.45,6.43-8.79,12.94-13.23,19.38-.41.59-1.14,1.05-1.81,1.36-.94.43-10.44-2.57-11.06-3.36-.75-.95-.59-2.07-.6-3.15-.01-5.91,0-11.82-.01-17.74,0-.97.16-2.17-.97-2.57-1.18-.42-1.71.68-2.24,1.48-3.26,4.88-6.56,9.73-9.74,14.66-1.38,2.14-3.14,2.92-5.57,2.37-.32-.07-.62-.23-.93-.32-8.16-2.42-7.65-2.45-8.29-10.88-.78-10.36.14-20.75-1.18-31.07-.37-2.87.51-4.28,3.62-2.99.29.12.65.04.98.1,6.55,1.22,7.23,2.04,7.24,8.7.01,6.11-.26,12.24.66,18.32.08.51-.08,1.12.78,1.5Z"/>
        <path class="cls-3" d="M498.32,288.25c2.17-7.23,2.43-15.54,4.28-23.6.8-3.48.64-7.13,1.73-10.6.44-1.4.78-1.98,2.42-1.72,9.24,1.47,18.49,2.84,27.75,4.17,2.15.31,2.82,1.28,2.07,3.3-.23.61-.38,1.26-.5,1.9-.82,4.16-1.5,4.56-5.67,3.82-4.17-.75-8.43-1.12-12.55-2.09-2.74-.65-2.94,1.08-3.42,2.72-.56,1.91-.31,3.54,2.06,3.91,3.54.56,7.08,1.17,10.65,1.54,3.64.37,4.67,1.58,4.13,5.43-.5,3.54-1.5,4.14-5.11,3.54-3.75-.62-7.56-.79-11.3-1.62-3.28-.72-3.05,2.54-3.75,4.25-.84,2.07,1.2,2.5,2.67,2.77,5.25.97,10.49,1.98,15.78,2.65,2.12.27,2.55,1.17,2.43,2.95-.09,1.3-.04,2.59-.37,3.89-.5,2-1.7,2.82-3.59,2.38-9.03-2.11-18.3-2.66-27.38-4.5-2.88-.58-1.99-2.62-2.34-5.1Z"/>
        <path class="cls-2" d="M530.52,323.53c-3.25.34-6.09-1.57-9.25-1.7-1.52-.07-3.05-.2-4.57-.25-2.11-.07-2.51,1.28-2.48,3.03.03,1.68-.1,3.25,2.31,3.55,4.1.51,8.16,1.38,12.26,1.9,1.77.23,2.58.94,2.53,2.69-.03,1.31.11,2.65-.07,3.93-.24,1.73-1.14,2.69-3.16,2.34-4.29-.73-8.63-1.16-12.9-1.99-1.94-.38-3.3.14-3.4,1.88-.1,1.74-1.48,4.07,1.68,5.14,5.15,1.76,10.56,1.42,15.8,2.33,2.08.36,2.72.97,2.75,3.03.09,6.89-.13,7.02-7.19,5.83-7.61-1.29-15.27-2.26-22.89-3.52-3.65-.6-4.75-.92-3.35-5.04,1.07-3.15,1.32-6.6,1.76-9.94,1.03-7.86,2.83-15.62,3.38-23.55.13-1.83,1.2-2.76,3.01-2.79.98-.02,2.02-.11,2.94.15,7.05,2.03,14.42,2.23,21.56,3.71,2.5.52,5.81-.27,5.36,4.16-.43,4.29-1.27,5.1-6.08,5.09Z"/>
        <path class="cls-2" d="M508.23,189.96c6.01,1,12.02,2.01,18.04,2.98,2.68.43,5.37.95,8.08,1.09,2.28.11,3.5.47,2.12,3-.3.55-.43,1.24-.51,1.88-.54,4.53-1.61,5.29-6.04,4-4.02-1.17-8.11-1.61-12.27-1.61-1.98,0-3.31.29-3.48,2.77-.17,2.63,1.06,3.69,3.34,3.75,4.08.11,7.93,1.41,11.92,1.98,1.92.27,2.85.89,2.16,2.98-.27.81-.21,1.72-.28,2.59-.18,2.38-1.61,3.47-3.77,2.87-4.15-1.14-8.46-.78-12.61-1.68-1.89-.41-3.2.35-3.19,2.21.01,1.7-1.97,4.29,1.66,4.88,5.16.84,10.27,2.06,15.46,2.51,2.78.24,3.39,1.26,3.13,3.6-.12,1.08-.29,2.15-.37,3.24-.16,2.14-1.4,2.79-3.34,2.47-9.22-1.52-18.43-3.1-27.65-4.56-2.67-.42-2.43-2.4-2.07-3.99,1.97-8.49,2.33-17.22,4.2-25.72.58-2.64.81-5.34,1.32-7.99.56-2.94,1.8-3.32,4.16-3.23Z"/>
        <path class="cls-1" d="M279.5,305.13c2.95.37,6.24-.73,9.61-.85,5.45-.19,6.2.97,6.21,5.47,0,2.89-1.7,3.77-4.15,3.92-9.13.55-18.27,1.07-27.4,1.64-2.14.13-2.61-1.2-2.63-2.89-.08-5.89.06-11.77-.63-17.65-.61-5.18-.75-10.41-1.32-15.6-.51-4.66.1-5.39,4.68-5.59,8.49-.37,16.99-.78,25.45-1.49,2.29-.19,2.61.55,2.71,2.38.38,6.92.32,7.1-6.56,6.98-3.84-.07-7.62.44-11.42.69-2.94.19-2.42,2.32-2.37,4.09.05,1.84.64,3.02,3.02,2.73,4.21-.5,8.47-.59,12.71-.91,2-.15,2.83.68,2.66,2.66-.08.98-.08,1.97,0,2.95.2,2.38-.58,3.39-3.23,3.71-3.93.48-7.84.63-11.76.49-2.54-.09-2.89,1.19-2.79,3.23.1,1.99-.28,4.16,2.81,4.04,1.31-.05,2.63,0,4.41,0Z"/>
        <path class="cls-6" d="M565.82,268.34c-2.94-.11-5.87.11-8.81-.54-2.01-.44-4.04-.08-4.01,2.86.02,2.37.16,4.66,3.42,4.22,4.36-.59,8.65,1.54,13.02.23.35-.11,1.03.03,1.2.28,1.43,2.12.69,4.34.33,6.6-.31,1.9-1.38,2.23-2.99,2.13-3.59-.23-7.18.26-10.78-.54-3.66-.81-5.8,1.98-4.8,5.74.29,1.1.99,1.21,1.9,1.38,5.05.94,10.17.8,15.26.91,3.67.08,4.31.53,3.89,4.32-.07.65-.1,1.32-.03,1.97.27,2.67-1.08,3.5-3.53,3.32-9.23-.69-18.46-1.35-27.7-1.99-1.67-.11-2.18-1-2.33-2.54-.29-3.09.5-6.08.7-9.12.61-9.12,1.35-18.24,1.91-27.36.12-1.92.93-2.47,2.65-2.37,4.35.25,8.76.12,13.05.79,4.16.66,8.29.39,12.43.51,3.77.11,4.13.43,4.13,4.53,0,4.34-.29,4.67-4.28,4.68-1.53,0-3.07,0-4.6,0Z"/>
        <path class="cls-1" d="M266.14,194.74c-3.86.01-3.83,0-4.41-4.59-1.14-9.09-1.53-18.23-1.9-27.37-.1-2.4-.95-4.7-.71-7.15.13-1.4.43-2.24,2.05-2.3,6.86-.22,13.67-1.35,20.55-1.34,2.38,0,4.77-.41,7.15-.62,2.2-.19,3.31.73,3.15,3.03-.07.98-.08,1.97,0,2.95.2,2.44-.94,3.22-3.31,3.26-4.25.07-8.46.73-12.74.71-2.14-.01-4.6.09-4.45,3.7.11,2.75.92,3.6,3.62,3.49,3.82-.16,7.57-.96,11.43-.78,2.32.11,3.91.35,3.5,3.21-.09.62.05,1.32.26,1.93.81,2.46-.1,3.36-2.62,3.52-4.12.26-8.22.9-12.34,1.21-1.92.14-3.26.57-3.06,2.81.2,2.31.7,4.56,3.67,4.43,4.68-.2,9.37-.42,14.01-.99,3.7-.45,4.17-.33,4.67,3.34.15,1.08.47,2.13.6,3.21.16,1.37-.23,2.27-1.89,2.38-8.91.6-17.82,1.27-27.23,1.96Z"/>
        <path class="cls-6" d="M265.04,257.32c-1.78.39-3.13-.67-3.59-3.82-.59-4.01-.56-8.06-.79-12.05-.45-7.94-1.31-15.86-1.71-23.8-.06-1.27.05-1.8,1.38-1.88,6.2-.41,12.39-.94,18.58-1.28,2.72-.15,5.43-.17,8.15-.6,3.51-.56,4.74.58,4.94,3.88.27,4.25-.34,4.88-4.16,5.26-3.92.39-7.83.57-11.75.73-1.76.07-4.39-.37-4.49,2.92-.13,4.04-.03,4.39,4.08,4.17,3.81-.21,7.59-.7,11.43-.68,2.34.02,2.99.85,2.98,3.08-.01,4.83.06,4.67-4.62,5.71-2.96.66-5.88.33-8.82.47-3.81.17-4.54.88-4.35,4.39.16,2.94,1.39,3.9,4.97,3.45,4.43-.56,8.85-1.15,13.32-1.32,2.69-.11,3.75.95,4.04,3.45.67,5.81.7,5.56-5.32,5.88-7.71.41-15.4,1.28-24.29,2.06Z"/>
        <path class="cls-2" d="M548.65,316.3c6.92,1.66,15.2-.19,23.32,1.25,2.16.38,2.75,1.42,2.6,3.32-.02.21-.13.42-.17.63-.97,5.23-.96,5.08-6.46,4.73-4.15-.26-8.32,0-12.48-.11-2.19-.06-2.54,1.09-2.46,2.88.08,1.77-.2,3.83,2.46,3.68,4.39-.24,8.71.71,13.07.65,2.4-.03,3.18.94,2.87,3.12-.21,1.51-.42,3.02-.74,4.51-.38,1.76-1.81,1.84-3.11,1.47-4.17-1.19-8.51.1-12.7-1.06-1.75-.48-2.68.87-2.45,2.56.25,1.9-1.32,4.84,2.24,5.14,2.94.25,5.92.23,8.86.03,2.99-.2,5.85.77,8.8.73.32,0,.84,0,.93.19,1.34,2.48-.24,5,.04,7.53.17,1.53-1.33,1.48-2.41,1.44-5.12-.21-10.29-.1-15.35-.81-3.95-.55-7.85-.41-11.77-.45-2.81-.03-4.22-1.25-3.84-3.98,1.23-8.98.96-18.05,1.81-27.05.18-1.96.01-3.96.32-5.89.72-4.54.8-4.53,6.63-4.52Z"/>
        <path class="cls-1" d="M565.36,238.26c-7.5-.49-15-.97-22.5-1.48-2.13-.15-3.06-1.24-2.84-3.48.66-6.61,1.18-13.23,1.16-19.88-.02-5.24.69-10.41,1.24-15.61.19-1.83.83-2.51,2.62-2.41,9.14.47,18.29.91,27.43,1.35,1.46.07,2.19.83,2.22,2.28,0,.11,0,.22.01.33.59,6.58.58,6.43-6,6.63-3.96.12-7.8-.9-11.75-.75-2.27.08-3.78.63-3.96,3.25-.19,2.65,1.14,3.06,3.46,3.53,4.22.86,8.5.08,12.7,1.04,1.86.43,2.45,1.07,2.22,2.76-.16,1.18-.58,2.36-.56,3.54.03,1.95-.94,2.38-2.65,2.38-4.04,0-8.01-.89-12.08-.76-2.71.09-3.67,1.08-3.77,3.68-.1,2.66.91,3.33,3.55,3.77,5.21.86,10.47,0,15.65,1.1,1.95.41,2.55,1.21,2.55,3.02.01,4.54-.96,5.59-5.41,5.6-1.09,0-2.19,0-3.28,0,0,.05,0,.1,0,.15Z"/>
        <path class="cls-6" d="M354.94,258.48c-6.37.13-12.2-1.89-17.88-4.47-2.01-.91-2.98-2.24-1.29-4.34.33-.41.37-1.03.62-1.5,2.57-4.79,2.43-4.56,7.11-1.77,4.31,2.57,9.18,3.11,14.13,2.1,1.02-.21,1.9-.92,1.92-1.99.03-1.64-1.23-2.46-2.57-3.04-4.19-1.8-8.45-3.45-12.59-5.36-5.57-2.56-6.76-4.93-6.34-11.82.26-4.23,3.41-7.81,7.77-9.54,8.59-3.41,16.49-.98,24.37,2.39,1.26.54,1.64,1.54,1.2,2.66-.8,2.01-1.62,4.08-2.81,5.86-.86,1.28-2.21.27-3.24-.25-3.7-1.86-7.64-2.51-11.74-2.47-1.67.02-3.1.35-3.59,2.16-.49,1.84.61,2.52,2.11,3.43,3.52,2.13,7.61,2.54,11.25,4.33,7.79,3.82,10.31,10.68,5.5,17.83-2.83,4.22-7.61,5.58-12.61,5.76-.44.02-.88,0-1.31,0Z"/>
        <path class="cls-2" d="M353.89,273.62c5.88-.57,11.08,1.64,16.24,4.01.46.21,1.1.63,1.16,1.03.39,2.62-1.39,4.44-2.62,6.43-.89,1.44-2.26.99-3.52.47-3.73-1.54-7.41-3.19-11.64-2.81-1.82.16-3.29.52-3.59,2.56-.26,1.79.77,2.67,2.32,3.47,3.21,1.67,6.77,2.33,10.04,3.77,6.88,3.04,9,6.08,8.57,13.56-.27,4.65-5.32,8.24-10.95,9.69-8.39,2.17-15.61-.55-22.85-3.96-2.16-1.02-3.19-2.43-.95-4.46.16-.15.3-.32.45-.48,1.28-1.29.52-4.52,3.32-4.15,1.85.24,3.62,1.44,5.31,2.4,3.28,1.86,6.87,1.88,10.43,1.89,1.66,0,3.63-.69,3.71-2.52.08-1.63-1.43-2.76-3.17-3.28-3.86-1.16-7.51-2.85-11.2-4.43-4.7-2.01-7.33-5.45-7.31-10.57.02-5.22,3.12-8.56,7.35-11.15,2.8-1.71,5.82-1.55,8.87-1.46Z"/>
        <path class="cls-1" d="M409.55,282.72c6.54.73,12.82,2.18,18.36,6.03,1.83,1.27,1.69,2.61.66,4.17-.54.82-1.26,1.52-1.77,2.35-1.3,2.13-2.78,2.49-4.86.94-2.83-2.1-6.02-3.43-9.51-4.09-2.33-.45-4.55.08-5.06,2.38-.43,1.97,1.24,3.32,3.2,4.29,4.93,2.43,10.22,4.34,13.58,9.21,3.11,4.5,2.35,10.51-1.8,14.14-5.38,4.69-11.53,4.57-17.83,2.98-4.61-1.17-9.01-2.94-12.87-5.95-2.37-1.85-2.77-3.04-.84-5.33.35-.42.77-.77,1.14-1.18,2.98-3.23,2.78-2.97,6.21-.44,3.67,2.71,7.96,4.35,12.6,4.54,1.2.05,2.8-.24,3.31-1.68.54-1.53-.35-2.62-1.51-3.66-1.27-1.13-2.71-1.85-4.26-2.36-4.03-1.32-7.28-3.74-10.27-6.67-5.08-4.98-3.88-13.85,2.4-17.28,2.84-1.55,5.82-2.47,9.11-2.39Z"/>
        <path class="cls-2" d="M354.51,196.12c-7.19.05-12.62-2.36-17.98-5.18-1.63-.85-1.78-1.65-.99-3.06.32-.57.44-1.25.78-1.8,2.7-4.51,3.36-4.54,8-1.9,3.67,2.09,7.91,2.19,12,2.59,1.61.16,2.65-.99,2.73-2.66.09-2.07-1.2-3.13-2.98-3.8-4.03-1.52-8.13-2.76-12.07-4.68-6.92-3.38-8.05-12-2.95-17.81,2.75-3.13,6.02-4.07,9.99-4.6,6.34-.85,12.13.49,17.75,3.04,3.39,1.54,3.48,2.65,1.15,5.67-.45.59-.75,1.31-1.09,1.98-.77,1.5-1.55,1.96-3.34,1.01-3.89-2.06-8.25-2.54-12.61-2.75-1.56-.07-2.37,1.12-2.82,2.34-.43,1.16-.23,2.32.96,3.19,2.09,1.52,4.63,1.86,6.92,2.85,2.21.95,4.55,1.62,6.69,2.68,5.41,2.68,6.82,5.51,6.27,11.92-.36,4.23-3.74,8.17-8.36,9.54-2.93.87-5.84,2-8.03,1.42Z"/>
        <path class="cls-3" d="M410.96,267.67c-7.29.19-13.56-2.57-19.41-6.61-2.1-1.45-2.1-3.18-.72-5.03,3.34-4.51,3.33-4.44,8.2-1.4,3.35,2.09,6.95,3.6,10.97,3.84,1.73.1,3.32-.02,3.97-2.03.7-2.14-.92-3.03-2.28-3.81-2.92-1.68-6.04-3.02-8.94-4.73-4.22-2.48-7.52-5.24-7.68-11.09-.23-8.21,9.6-13.34,15.38-12.44,5.66.89,10.96,2.53,16.04,5.15,3.44,1.78,3.82,2.98,1.37,5.89-.35.41-.7.85-.94,1.33-1.13,2.23-2.45,3.02-4.85,1.36-3.15-2.18-6.61-3.79-10.56-3.95-1.67-.07-3.44-.15-4.19,1.76-.79,2,.77,3.18,2.06,4.02,2.09,1.35,4.45,2.26,6.65,3.45,3.07,1.66,6.23,3.35,8.13,6.37,5.64,8.97-1.63,16.82-9.91,17.88-1.08.14-2.19.02-3.28.02Z"/>
        <path class="cls-1" d="M411.68,205.26c-7.45.28-13.35-2.49-19.04-5.75-1.32-.75-3.12-1.97-2.5-3.85.78-2.38,2.28-4.5,4.44-5.92.87-.57,1.53.49,2.24.95,4.21,2.69,8.17,5.97,13.7,5.4,1.63-.17,3.15-.3,3.63-2.12.46-1.73-.78-2.59-2.07-3.31-3.05-1.7-6.06-3.49-9.18-5.06-6.1-3.07-9-7.54-7.49-14.01,1.03-4.42,4.17-7.96,9.16-8.72,8.42-1.28,16.21.59,23.35,5.21,2.09,1.35,2.25,2.56.38,4.62-4.16,4.58-4.06,4.83-9.2,1.51-2.58-1.67-5.18-2.69-8.29-2.5-1.65.11-3.12.33-3.61,2.14-.51,1.91.46,3.14,2.12,3.94,3.93,1.88,7.7,4.02,11.41,6.31,8.05,4.97,5.86,15.93-.63,19.12-2.94,1.45-5.78,2.48-8.42,2.04Z"/>
        <path class="cls-6" d="M237.52,236.79c3.12-.38,6.9-.86,10.69-1.31,2.57-.31,4.03.6,3.73,3.45-.07.64.02,1.32.16,1.95.59,2.78-.73,3.61-3.33,3.85-4,.38-7.95,1.18-11.93,1.77-1.45.21-2.03.69-1.65,2.38.73,3.29-.06,6.78,1.19,10.04.55,1.44-.32,1.97-1.61,2.15-1.08.15-2.15.36-3.22.55-5.75,1.04-5.9.28-7.4-5.32-2.26-8.44-1.65-17.27-4.27-25.61-.67-2.14-.58-4.52-.8-6.8-.18-1.88.65-2.69,2.59-2.95,8.84-1.2,17.66-2.56,26.48-3.83,1.83-.26,3.28.02,3.18,2.45-.04.95.4,1.91.55,2.88.34,2.18-.36,3.51-2.78,3.89-3.88.61-7.74,1.16-11.68,1.3-4.67.16-5.33.87-5.22,4.74.11,3.95.64,4.45,5.32,4.41Z"/>
        <path class="cls-2" d="M251.82,280.44c.33,2.44-.5,3.27-2.49,3.86-4.76,1.4-9.72,1.09-14.54,2.01-2.36.45-2.64,1.2-2.59,2.98.03,1.2-.06,2.44.24,3.58.6,2.24,1.62,3.63,4.47,2.54,3.88-1.49,8.16-1.14,12.2-1.99,1.36-.28,2.38.69,2.64,1.95.38,1.8.6,3.66.64,5.5.03,1.45-1.24,1.5-2.37,1.66-4.31.59-8.59,1.36-12.91,1.84-1.89.21-2.34,1.06-2.31,2.76.03,2.43.7,4.73,1.17,7.07.76,3.81.02,4.82-3.86,5.36-.22.03-.44,0-.65.04-6.75.83-7.11.41-7.83-6.34-.73-6.91-1.25-13.91-2.87-20.63-.78-3.24-.45-6.49-1.35-9.58-.86-2.92.66-3.8,3.02-4.16,7.6-1.16,15.23-2.19,22.81-3.46,6.96-1.17,5.43-.78,6.58,5.03Z"/>
        <path class="cls-2" d="M251.91,161.07c.19,1.91-.76,2.69-2.86,2.83-4.12.29-8.22.82-12.32,1.32-4.1.5-6.32,4.91-4.28,8.48.68,1.19,1.91,1.42,3.16,1.26,4.2-.53,8.42-.98,12.59-1.72,2.45-.43,3.52.37,3.71,2.74.07.86.22,1.73.43,2.57.48,1.92-.19,2.81-2.19,3.09-3.88.54-7.63,1.76-11.58,2.01-2.96.18-4.26,1.86-3.73,4.84.37,2.03.66,4.08,1.15,6.09.68,2.83-.21,4.4-3.21,4.66-2.06.18-4.14-.02-6.17.64-.8.26-1.44-.25-1.6-1.2-1.09-6.42-2.55-12.81-3.2-19.27-.54-5.32-1.39-10.56-2.55-15.75-.65-2.92.02-4.34,3.14-5.02,7.14-1.56,14.4-2.19,21.6-3.32.43-.07.88-.05,1.3-.12,5.74-1.05,6.66-.26,6.6,5.88Z"/>
        <path class="cls-3" d="M330.8,224.97c-.92,8.05-.37,18.22-1.3,28.32-.16,1.72-.79,2.89-2.62,2.37-2.17-.61-4.35-.49-6.52-.44-1.93.04-2.82-.57-2.73-2.63.38-8.49.5-16.99,1.23-25.46.28-3.26.18-6.56.07-9.84-.09-2.47.72-3.51,3.37-3.55,8.5-.1,8.5-.19,8.49,11.22Z"/>
        <path class="cls-6" d="M198.05,229.01c-.8-2.66.92-3.51,3.21-3.93,1.39-.25,2.87-.33,4.15-.87,2.91-1.21,3.81.14,4.34,2.74,2.03,10.02,4.19,20.01,6.26,30.03.39,1.91.55,3.87.86,5.79.19,1.21-.5,1.44-1.49,1.63-1.92.37-3.93.63-5.71,1.38-2.85,1.19-4.06-.13-4.65-2.59-.86-3.6-1.64-7.21-2.37-10.83-1.25-6.13-2.09-12.36-3.95-18.36-.49-1.59-.82-3.17-.65-5Z"/>
        <path class="cls-2" d="M216.98,199.56c.1.87-.2,1.45-1.05,1.79-1.19.48-2.19,1.39-3.64,1.3-2.15-.12-4.83,2.2-6.14.65-1.51-1.78-1.64-4.8-2.18-7.33-2.08-9.66-4.02-19.35-6.14-29.01-.67-3.04-.21-3.99,2.83-4.44,1.61-.24,3.28-.38,4.81-.88,2.3-.75,3.38-.21,3.89,2.27,2.41,11.68,4.96,23.33,7.46,35,.05.21.1.42.15.64Z"/>
        <path class="cls-2" d="M330.82,159.89c-1.51,9.17.05,20.02-1.29,30.76-.23,1.87-.55,2.76-2.79,2.3-2-.41-4.14-.2-6.21-.17-1.86.03-3.13-.68-2.83-2.65,1.32-8.77-.02-17.64,1.1-26.43.41-3.23.2-6.55.15-9.82-.03-1.8.62-2.66,2.48-2.52.76.06,1.53,0,2.3,0,7.89.05,7.04-.81,7.09,8.51Z"/>
        <path class="cls-5" d="M330.8,279.32c-1.48,10.5.1,21.13-1.32,31.64-.07.54.03,1.31-.29,1.56-2.87,2.31-6.24.91-9.38,1.04-2.04.08-2.34-1.89-2.11-3.4,1.41-9.31-.27-18.74,1.2-28.05.23-1.49.06-3.05.07-4.58,0-.87-.15-1.78.03-2.62,1.13-5.05,5.14-1.9,7.78-2.55,1.87-.46,4.14-.4,4.02,2.69-.05,1.42,0,2.84,0,4.26Z"/>
        <path class="cls-5" d="M206.51,281.95c2.06-.22,2.94,1,3.15,2.67,1.06,8.63,3.77,16.93,4.96,25.56.41,3.02,1.53,6.06,2.27,9.11.39,1.62.09,2.61-1.67,3.27-2.39.89-4.92.96-7.34,1.56-1.38.35-1.97-.64-2.25-1.8-1.01-4.11-2.14-8.19-2.96-12.33-1.51-7.56-2.74-15.18-4.94-22.58-.61-2.06-.61-3.66,2.09-4.07,2.25-.34,4.47-.92,6.71-1.39Z"/>
      </g>
    </g>
  </g>
</svg>