<?xml version="1.0" encoding="UTF-8"?>
<svg xmlns="http://www.w3.org/2000/svg" version="1.1" viewBox="0 0 841.89 595.28">
  <defs>
    <style>
      .cls-1 {
        fill: #442240;
      }
    </style>
  </defs>
  <!-- Generator: Adobe Illustrator 28.6.0, SVG Export Plug-In . SVG Version: 1.2.0 Build 709)  -->
  <g>
    <g id="Layer_1">
      <g>
        <path class="cls-1" d="M350,566.7c.42.17.88.3.79.91-.26-.3-.53-.61-.79-.91Z"/>
        <path class="cls-1" d="M351.57,569.52c.46.23.71.57.63,1.11-.21-.37-.42-.74-.63-1.11Z"/>
        <path class="cls-1" d="M225.53,21.22c-.18.37-.37.75-.55,1.12.18-.37.37-.75.55-1.12Z"/>
        <path class="cls-1" d="M568.83,97.51c-.04.25-.07.5-.11.75-.05-.18-.12-.36-.12-.55,0-.06.15-.13.23-.2Z"/>
        <path class="cls-1" d="M665.43,84.36l-.03-.55c.06.18.12.36.18.54,0,0-.15,0-.15,0Z"/>
        <path class="cls-1" d="M407.48,532.44c.15-.59.6-.82,1.14-.94-.38.31-.76.63-1.14.94Z"/>
        <path class="cls-1" d="M555.13,12.68c-.22.11-.43.22-.65.33.15-.24.37-.35.65-.33Z"/>
        <g>
          <path class="cls-1" d="M677.37,101.7c0,.65.01,1.31.02,1.96.01.66.03,1.32.04,1.99.06,3.3.12,6.6.17,9.9.1,2.95-1.16,6.02.76,8.82,2.13,1.41,4.1-.04,6.01-.53,15.98-4.1,31.83-8.75,48.35-10.26.74.13,1.6-.06,2.05.81,1.56,5.58,3.93,11,2.93,17.05-.48,2.89-.92,5.82-.98,8.75-.4,20.13-.7,40.27-1.04,60.4-6.41.54-9.42,4.4-10.09,12.98-2.86-3.2-2.43-7.33-3.18-11.13-.02-13.18-.04-26.36-.06-39.55.36-4.54-.8-9.23-.24-13.52.86-6.51.64-13,1.19-19.47.18-2.15-.33-2.9-2.77-2.18-11.62,3.43-23.17,7.14-35.05,9.58-2.34.48-2.17,1.34-1.14,2.86-9.63,3.94-10.93,7.22-5.96,16.78,3.45,6.65,3.59,13.69,2.64,20.65-.97,7.09-3.6,14.16-8.95,18.91-4.6,4.09-6.82,9.03-7.29,14.33-.69,7.78-.82,15.73.46,23.56-2.32-.67-2.56-2.55-2.73-4.55-.18-2.25-.48-4.5-.72-6.74.03-9.87.07-19.73.1-29.6,1.03-18.15.25-36.3.24-54.46.03-3.81.06-7.62.09-11.43.02-1.45.04-2.9.06-4.36.04-3.5.08-7,.12-10.5.71-11.56-.35-23.16.97-34.71,4.72-2.27,9.3-4.72,11.43-9.97,2.1,2.53,2.5,5.51,2.48,8.68-.05,7.01.01,14.01.03,21.02,0,.64,0,1.29.01,1.93,0,.67.02,1.33.03,2Z"/>
          <path class="cls-1" d="M808.2,106.64c-1.03,35.25-.03,70.5-.48,105.75-2.95-1.04-1.83-3.57-1.83-5.49-.08-19.75-.04-39.5-.1-59.25,0-1.54.71-3.45-1.92-5.17,0,2.49,0,4.27,0,6.04.01,8.47-.08,16.95-1.01,25.38-.15,1.4.56,4.26-1.99,3.3-2.04-.77-6.79.05-5.51-4.29,1.23-4.18-1.15-8.04,0-12.19.39-1.4.55-4.38-1.9-5.63-.55-3.05-.56-6.1-.04-9.15.98-6.11.96-12.23-.03-18.34-.59-5.01.72-10.05-.32-15.05.92-2.23.37-3.27-2.13-2.45-10.89,3.55-21.78,7.14-32.02,10.5,3.68,13.63.55,27.15,1.86,40.4-.12,8.92-.23,17.84-.35,26.77-.91,2.58-1.62,5.25-2.77,7.72-1.99,4.28-2.6,9.4-7.06,12.27.5-1.55,1.02-3.1,1.48-4.66,1.73-5.81.13-10.15-4.55-12.42-.04-1.53.19-3.15-1.44-4.12.14-.6.28-1.21.43-1.81,1.3-.29,1.93-1.12,1.97-2.44.4-15.9-.03-31.79-1.44-47.62-.5-5.63-.86-11,1.47-16.38,1.01-2.35,2.83-4.94.86-7.76,5.49-3.99,11.8-6.22,18.09-8.51,2.4-.33,4.71-.94,6.76-2.31,1.04-.16,2.28.27,2.96-.98,3.75-.43,7.02-2.31,10.51-3.51,10.43-1.16,17.17,2.6,20.49,11.43Z"/>
          <path class="cls-1" d="M639.78,69.16c.06-3.33,2.37-3.74,5-4.08,3.98-.52,8.08-.43,11.89-1.96,1.18.38,2.21.18,3-.84.98-.13,1.95-.27,2.93-.4.65.04,1.31.08,1.96.12.64.09,1.29.18,1.93.26,2.04,1.64,5.6,1.22,6.29,4.68-4.2,3.19-8.01,7.06-13.86,7.14-1.59.02-3.56.19-4.69,1.1-5.7,4.6-10.33,3.58-14.36-2.16,0-.66,0-1.32,0-1.98,0,0,.01,0,.01,0,.43-.34.87-.68,1.3-1.02-.48-.3-.95-.6-1.43-.9l.05.03Z"/>
          <path class="cls-1" d="M723,59.93c.19.39.38.78.57,1.18-.19-.39-.38-.78-.57-1.18Z"/>
          <path class="cls-1" d="M793.46,155.07c2.45,1.25,2.29,4.23,1.9,5.63-1.14,4.15,1.24,8.01,0,12.19-1.28,4.34,3.47,3.52,5.51,4.29,2.55.96,1.84-1.9,1.99-3.3.93-8.43,1.02-16.91,1.01-25.38,0-1.77,0-3.54,0-6.04,2.64,1.72,1.92,3.63,1.92,5.17.06,19.75.01,39.5.1,59.25,0,1.92-1.11,4.46,1.83,5.49-.01,1.33-.02,2.65-.03,3.98-.81.25-1.66.67-1.67,1.55-.07,6.5-.07,13-.03,19.5,0,.9.79,1.35,1.59,1.64.12,2.64.23,5.28.35,7.93-.02.99-.03,1.99-.05,2.98,0,.98,0,1.97,0,2.95-.42,1.97-.57,3.95-.13,5.94-.19,2.96-.38,5.91-.58,8.87-.14,1.32-.28,2.63-.42,3.95-1.16,4.24-2.33,8.49-3.49,12.73-2.31,4.99-3.17,10.57-6.1,15.31-.87-.96-1.79-1.87-2.59-2.88q-3.4-4.26-5.4.53c-.24.57-.31,1.32-1.38,1.32-.49-1.05-1.02-2.17-1.55-3.29.24-.94.4-1.91.75-2.82,8.28-21.92,6.34-44.79,6.26-67.48-.01-14.43.04-28.85-.08-43.28-.04-4.74.57-9.5-.4-14.21.46-2.47.43-4.93.04-7.41.57-1.44.55-2.88-.01-4.31.22-.27.44-.54.66-.82Z"/>
          <path class="cls-1" d="M807.58,239.06c-.8-.29-1.59-.74-1.59-1.64-.04-6.5-.04-13,.03-19.5,0-.88.86-1.3,1.67-1.55-.04,7.57-.07,15.13-.11,22.7Z"/>
          <path class="cls-1" d="M363.42,413.02c-3.8,1.05-5.8,4.57-8.95,6.55-23.8,14.94-44.84,33.28-65.44,52.28-13.79,12.71-26.63,26.35-40.08,39.37-11.21,10.85-22.76,21.26-36.23,29.26-24.7,14.67-50.9,18.81-78.75,10.94-13.61-5.22-25.7-12.47-33.98-25-7.92-11.98-12.08-24.87-9.44-39.29,2.07-11.3,8.62-20.06,16.79-27.74,1.17-1.1,2.78-1.75,3.59-3.7-26.47-6.43-48.11-20.12-64.01-42.37.34-2.4-.48-4.43-1.66-6.51-1.44-2.54-3.92-5.63-3.4-7.9,1.21-5.3-.6-9.32-3.01-13.5-.76-1.33-.8-3.09,1.15-2.65,5.97,1.37,3.33-2.18,2.84-4.58-.26-1.28-.48-2.56-.77-3.83-1.13-4.94-.97-10.16-3.08-15.96-.56,1.74-.8,2.49-1.04,3.23-.63,2.03-1.82,3.87-4.06,3.59-2.65-.33-1.46-2.82-1.68-4.42-.62-4.55,2.21-8.39,2.76-12.73.15-1.23-.55-3.56,1.6-3.5,1.81.05,2.28,1.96,2.56,3.7.45,2.75-.26,6.05,3.18,7.56.55,3.28-.44,6.67.67,9.92,0,5.6.39,11.13,2.99,16.26,1.22,8.98,5.49,16.71,10.37,24.04,7.97,11.96,18.73,20.96,31.47,27.49,9.62,4.93,19.68,8.64,30.45,10.44,9.17,1.53,18.34.59,27.51.85-1.36,2.31-3.64,1.81-5.71,1.83-6.09.03-12.18.01-18.27.01-.02.51-.04,1.02-.06,1.53,6.89-.05,13.36,1.97,19.9,3.59,1.99.49,4.41.75,4.2,3.79-2.51,1.36-5.5.55-8.37,2.08,4.57-.21,7.16,2.91,10.24,5.12.61.59,1.21,1.19,1.82,1.78.6.76,1.2,1.52,1.81,2.29l-.06-.07c.77,2.25,1.71,4.46,2.29,6.76,2.57,10.16-2.95,18.24-14,15.59-1.75-.42-3.58-1.45-5.59-.4.72,2.93,2.39,4.62,4.88,5.4,4.01,1.25,8.16,1.18,12.2.35,13.95-2.86,25.98-9.77,37.26-18.16,7.82-5.23,14.95-11.24,20.92-18.55h-.02c1.06.03,1.99-.18,2.44-1.29,0,0,.29-.24.29-.24,2.72-2.18,5.43-4.36,8.15-6.54,7.34-4.89,14.06-10.55,20.57-16.48,1.11-.5,2.16-1.07,2.7-2.25.25-.12.31-.31.18-.56,3.02-2.05,6.05-4.11,9.07-6.16,1.94-1.09,4.06-1.95,5-4.22.64-.57,1.28-1.14,1.91-1.71,2.6-.62,4.58-2.37,6.65-3.88,14.75-10.77,30.83-19.29,47.29-26.94,11.32-5.27,22.89-10.08,34.19-15.43,10.24-4.86,20.29-10.01,31.25-13.27,6-1.78,11.98-3.68,18.54-5.43-9.94-2.64-19.02-5.74-25.91-13.13,1.66-.99,2.19-2.67,2.7-4.37,1.05-3.48,2.85-5.68,6.89-3.96l-.08-.07c.17.48.44.67.9.29,4.34,2.43,8.48,5.36,13.72,5.54,4.67,2.87,10.39,3.28,15.12,2.85,21.59-1.98,38.22-12.24,48.04-32.22,2.06-4.31,5.03-8.17,6.33-12.85.85-1.4,1.7-2.8,2.55-4.2,4.52,9.2,11.93,14.78,21.72,17.39l.12-.26c1.96,1.71,4.38,1.87,6.8,2.03,13,2.65,25.08.68,36.02-7.13.36-.24.72-.48,1.08-.72l-.14.19c.66-.42,1.31-.85,1.97-1.27l-.12.09c.61-.37,1.22-.74,1.83-1.1,0,0,.21-.15.21-.15.36-.27.72-.54,1.08-.81.32-.22.63-.44.95-.66.36-.46.72-.92,1.07-1.37l-.23.1.12.22c.64-.44,1.28-.88,1.92-1.33,0,0-.06.05-.06.05l1.1-1.07-.03.19c1.03-.33,1.71-1.04,2.1-2.03l-.2.06c.38-.38.77-.77,1.15-1.15l-.15.16c.37-.39.73-.77,1.1-1.16l-.05.12c.62-.71,1.25-1.42,1.87-2.12.35-.33.7-.65,1.05-.98,1.97-.58,1.51-2.99,2.97-3.96.26-.44.53-.89.79-1.33.34-.54.67-1.08,1.01-1.61.42.5,1.3,1.18,1.19,1.46-2.26,5.54-.56,12.03-4.24,17.26-1.13,1.61-1.7,3.69.84,4.95.05.21.12.42.22.61-11.96,10.28-25.49,17.07-41.37,18.61-4.27.24-8.53.48-12.8.73-8.82-1.35-17.35-3.58-25.01-8.41-.9-.57-2.08-1.6-2.86.06-2.88,6.16-8.07,10.26-12.93,14.65-.66.59-1.31,1.25-.77,2.03.5.72,1.35.44,2.2.15,8.9-2.98,18.11-4.46,27.38-5.68.7.47,1.37.39,2.01-.13,3.99.13,7.98.27,11.92-.66,3.62.78,7.23.77,10.83-.11,12.44.94,24.74,2.64,36.56,6.9.46.74,1.16.97,1.99.89.95.63,1.85,1.35,2.86,1.87,18.44,9.55,24.86,40.06,8.81,56.93-6.12,6.43-13.6,8.48-21.49,10.44-5.12.58-10-.56-14.82-2.13-6-3.87-6.09-3.89-7.56,2.58-5.58,24.61-28.18,35.11-51.59,31.53-15.09-2.31-26.29-9.95-29.76-26.14-.78-3.61.51-6.53,1.56-9.63.51-1.52,1.9-2.71,1.78-4.53-1.36-.99-2.9-.65-4.24-.29-17.45,4.72-35.6,5.52-53.15,9.65-2.22.52-5.14-.05-6.32,2.9-1.32,1.45-1.05,3.85-2.96,4.95-.99,0-1.97,0-2.96,0-.99,0-1.99,0-2.98,0-1.24-.02-2.48-.04-3.72-.06ZM251.49,439.53c-.66.1-1.09.42-1.16,1.13l.16-.24c-.89.06-1.59.43-1.97,1.28l.06-.06c-3.32,1.9-6.39,4.12-9.08,6.86l.18-.08c-.81.1-1.69.08-1.97,1.12-14.92,11.34-28.43,24.39-43.2,35.9-11.69,9.11-23.53,18.15-38.67,20.91-10.26,1.86-20.05.83-28.62-5.7-5.38-4.1-7.12-10.57-4.56-15.73,2.9-5.84,7.16-7.37,14.59-5.29,1.51.42,3.22,1.78,4.59.27,1.36-1.5.41-3.47.03-5.19-.44-2.01-1.75-3.47-3.35-4.73-6.87-5.39-17.49-4.64-24.55.63-12.21,9.12-14.74,23.83-10.21,37.84,6.48,20.03,28.31,35.08,50,34.87.89.51,1.82.58,2.8.3,1.05.06,2.1.12,3.15.19,1.48,1.06,3.19.71,4.78.6,13.42-.89,26.21-4.13,38.22-10.32,12.85-6.62,23.69-15.85,33.75-26.07,4.92-5,10.42-9.46,14.24-15.48,1.44-1.38,2.89-2.77,4.33-4.15.24-.24.48-.48.72-.72,8.43-8.08,16.79-16.23,25.3-24.23,7.34-6.89,14.28-14.25,22.79-19.8,3.43.05,5.28-1.78,5.98-4.99.37-.3.74-.6,1.1-.89,2.55.23,4.46-1.33,6.01-2.84,4.38-4.24,9.6-7.2,14.55-10.62,3.39-2.34,7.92-3.31,9.83-7.58l-.07.02c1.63.26,2.68-.35,3-2.04h-.07c4.38-1.08,8.01-3.42,11.13-6.61h.01c1.68.06,3.16-.25,3.91-2l.03-.02c7.63-1.41,14.73-4.59,21.53-7.94,19.52-9.6,40.76-10.22,61.62-12.58,8.81-1,17.93-1.42,26.63,1.72l-.06-.05c.45.74,1.15,1.02,1.98,1.05h0c.58.35,1.16.7,1.73,1.05l.21.14c.61,2.56,2.24,4.12,4.74,4.8l.14.25c.53,2.96-.75,5.73-.9,8.62l-.06.05c-.64.35-1.28.7-1.92,1.05l.03-.02c-.81.07-1.64.08-2.44.23-3.72.71-7.64,2.48-6.83-4.51.31-2.7-2.41-5.38-5.4-6.34-2.86-.92-5.57-.48-7.09,2.66h-.02c-2-.16-3.07.68-3,2.76-.34.4-.68.8-1.02,1.2-.3.33-.6.66-.9.99l.02-.02c-.33.51-.66,1.02-1,1.53l.03.35c-2.98,3.6-1.6,8.95,3.04,11.83l-.03-.03c.24,3,2.02,4.14,4.84,4.03l.05.04c.21,1.9,1.01,3.06,2.9,4.05,12.45,6.52,24.79,4.97,37.14-.12,2.56-1.06,4.49-2.7,4.3-5.84.34-.37.68-.75,1.02-1.12,1.37-.1,1.95-.8,1.68-2.17l.02.16c1.04-.45,1.2-1.36,1.21-2.34l-.08-.3s.24-.2.24-.2c2.58-1.93,2.67-4.81,2.9-7.64,1.6-1.47.41-3.54,1.11-5.2,3.52-4.13,2.17-12.18-2.46-14.73-.23-.3-.46-.6-.69-.9-.26-.39-.53-.78-.79-1.17-6.66-10.31-17.16-14.2-28.36-16.74-10.48-2.37-21.24-.24-31.79-1.68-1.33-3.24,1.88-2.54,3-3.02,21.93-9.41,43.94-3.58,65.94-.15,6.9,2.89,13.8,5.78,20.7,8.67l.07.09c-.13,2,.36,3.58,2.68,3.9.83.46,1.09,1.18.98,2.08-.98,1.18-.68,2.59-.68,3.94,0,0,.01-.04.01-.04l-1.08,1.6-.06.29-.29.03c-.57.35-1.14.7-1.71,1.06-2.16,1.79-3.9.57-5.59-.81-1.8-1.47-3.18-3.32-4.15-5.4-2.22-4.74-5.74-1.94-8.42-1.15-3.25.96-.36,3.31,0,4.72.73,2.89,2.29,5.58,3.5,8.34.03,1.2.55,1.98,1.81,2.14l.12.12c.16,1.23.88,1.79,2.1,1.73l-.04-.05c1.89,4.26,6.16,4.97,9.71,4.96,12.13-.02,22.71-3.87,28-15.86,2.19-4.98,3.83-10.67-.58-15.75l.2-.22c.03-1.08-.22-2.04-1.12-2.73l.19-.24c-.34-.52-.68-1.05-1.02-1.57-6.42-11.28-16.55-16.64-28.96-19.11-15.99-3.18-31.81-1.6-47.57.9-19.34,3.07-37.78,9.56-56.32,15.65-10.37,3.41-21.03,5.95-31.44,9.24-21.42,6.77-41.55,16.65-61.86,26.08-.66-.13-1.03.15-1.14.8,0,0,.04-.14.04-.14-8.31,4.46-17.84,6.5-25.29,12.67-5.32,2.74-10.63,5.48-15.95,8.22-2.56.7-4.99,1.7-7.09,3.36-5.79,2.75-10.64,6.95-15.93,10.47-4.86,3.23-10.05,6.12-13.82,10.77-.35.36-.7.72-1.05,1.08l.11-.16Z"/>
          <path class="cls-1" d="M96.43,291.65c.9-.26,2.46-.35,2.58-.82.4-1.56-1.19-2.12-2.2-2.85-12-8.61-20.05-20.44-27.15-33.06.29-.39.83-.8.82-1.18-.21-5,4.51-2.71,6.65-4.25,1.34-.96,1.72,2.18,2.7,3.29,2.47,2.78,3.05,7.45,7.78,8.01.26.07.52.13.78.16,0,0-.03-.03-.03-.03.08.57.16,1.15.24,1.72.32,3.54,2.12,5.69,5.74,6.13l.07.08c.14.83.53,1.43,1.44,1.55l-.1-.09c.37.32.74.65,1.1.98l-.08.39.11-.38c-.52,2.98,1.37,3.32,3.6,3.3,0,0-.05-.04-.05-.04.37.34.74.69,1.1,1.03.3.28.6.57.9.85.37.36.74.71,1.11,1.07l-.05-.06c.4,4.18,3.15,5.67,6.88,6.06.31.29.62.58.93.87.39.36.78.71,1.18,1.07,7.09,4.93,13.8,10.37,21.13,14.99,10.39,6.54,20.1,14.02,28.07,23.51-.02.38-.03.75-.05,1.13-5.23-4.56-9.69-2.59-13.88,1.64-1.03-.56-2.32-2.92-2.69.51-.34,3.1.95,5.88,1.42,8.82.75,4.65,1.67,9.27-.51,13.8-.39-9.11-3.09-17.34-9.31-24.21-.84-.93-1.56-2.64-3.02-1.71-1.18.75-.83,2.44-.22,3.63,5.06,9.88,3.74,19.76-.76,29.21-2.84,5.98-6.23,12.23-14.64,11.65,6.13-3.3,11.31-7.44,13.06-14.64,5-8.7,3.59-24.06-2.99-32.5-.37-.41-.73-.81-1.1-1.22,0,0,.21.03.21.03-.46-.65-.92-1.31-1.38-1.96-.12-.94-.8-.97-1.52-.96-1.36-2.5-3.46-4.18-5.84-5.66-7.07-4.42-14.83-6.56-23.05-7.29-1.03-2.47-2.02-2.4-2.97.05l-4.82.73c1.66-2.57,1.39-4.03-2.09-3.65.14-3.23,1.32-5.24,4.82-6.32,2.02-.63,4.94-.71,6.05-3.38Z"/>
          <path class="cls-1" d="M87.61,260.79c-4.73-.56-5.31-5.23-7.78-8.01-.98-1.11-1.36-4.25-2.7-3.29-2.14,1.54-6.86-.75-6.65,4.25.02.38-.53.78-.82,1.18-10.77-19.01-13.79-39.46-11.38-60.94,1.99-17.7,9.73-32.9,20.36-46.83,1.18-1.34,2.36-2.68,3.55-4.02.25-.03.35-.17.3-.42,2.61-2.59,4.86-5.57,8.01-7.59.08.97.28,2.77.86,2.56,4.37-1.62,7.06,2.58,10.8,2.88-.46.46-.89.98-1.4,1.37-17.79,13.74-28.28,32.1-30.74,54.1-2.63,23.53,3.69,45.35,17.59,64.76Z"/>
          <path class="cls-1" d="M96.43,291.65c-1.11,2.67-4.03,2.75-6.05,3.38-3.5,1.09-4.68,3.09-4.82,6.32,0,0,0,0,0,0-2.9,1.15-5.87,2.23-6.86,5.68-15.14,5.15-25.29,15.6-31.84,29.9-2.26,1.04-3.47,2.46-1.8,4.93,0,.67,0,1.33.01,2-.31.32-.62.65-.93.97-.84.75-.99,1.68-.71,2.73-.16.74-.32,1.48-.48,2.23-.09.1-.28.21-.26.29.04.23.16.45.25.68.2,1.73.21,3.44-.61,5.04-3.44-1.51-2.73-4.81-3.18-7.56-.28-1.74-.76-3.65-2.56-3.7-2.15-.06-1.44,2.27-1.6,3.5-.54,4.34-3.37,8.18-2.76,12.73.22,1.6-.97,4.09,1.68,4.42,2.23.28,3.43-1.56,4.06-3.59.23-.75.48-1.49,1.04-3.23,2.11,5.8,1.95,11.02,3.08,15.96.29,1.27.51,2.56.77,3.83.49,2.4,3.13,5.94-2.84,4.58-1.95-.45-1.91,1.32-1.15,2.65,2.41,4.19,4.21,8.2,3.01,13.5-.52,2.27,1.96,5.37,3.4,7.9,1.18,2.08,2,4.11,1.66,6.51-5.84-7.41-9.9-15.77-12.73-24.7-9.93-31.32-3.82-58.75,20.06-81.83,8.08-7.81,18.1-11.43,28.76-13.56,4.39-.88,8.78-2.53,13.41-1.59ZM40.9,331.85c.81-.03,1.63-.15,1.77-1.13.14-.97-.51-1.42-1.37-1.5-.82-.07-1.63.13-1.78,1.11-.15.97.51,1.37,1.38,1.52Z"/>
          <path class="cls-1" d="M769.26,344.72c-1.61,1.1-3.23,2.2-4.84,3.29-.97-2.65-6.85-5.94-9.49-5.01-1.37.48-2.09.58-2.46-.94,8.6-5.61,14.48-13.66,20.43-21.84,5.63-7.73,8.56-16.74,13.35-24.83.53,1.12,1.06,2.24,1.55,3.29,1.07,0,1.14-.75,1.38-1.32q2.01-4.8,5.4-.53c.8,1.01,1.72,1.92,2.59,2.88-1.73,5.16-2.96,10.55-6.74,14.78-.38-.62-.41-1.54-1.4-1.6-.1,0-.32.21-.31.31.09.98.98,1.04,1.62,1.38-3.8,9.69-9.66,17.99-16.95,25.35-1.48,1.5-2.76,3.18-4.14,4.78Z"/>
          <path class="cls-1" d="M680.41,231.26c-.36.84-1.14.87-1.87.97-.86.04-1.59.3-2.03,1.1,0,0,.08-.1.07-.1-.38.28-.77.56-1.15.84-.28.11-.56.15-.86.12-3.08.05-6.16.1-9.24.15,0,0-.07.04-.07.04-1.28-7.83-1.15-15.78-.46-23.56.47-5.3,2.69-10.25,7.29-14.33,5.35-4.75,7.98-11.82,8.95-18.91.95-6.97.82-14.01-2.64-20.65-4.97-9.56-3.66-12.83,5.96-16.78,1.68,1.67,3.97,2.71,5.15,4.9-1.26.9-1.13,2.11-1.02,3.49.36,4.17.55,8.36.81,12.55.25,3.63-.89,7.17-.92,10.72-.15,15.91.03,31.82.08,47.73,0,0,.09-.09.09-.09-.93.43-1.14,1.24-1.14,2.16.09.25.05.47-.12.68-.29.39-.58.79-.87,1.18,0,0,.08-.08.08-.08-1.55.59-2.27,1.58-1.55,3.25,0,0-.16.22-.16.22-2.39-.61-2.34,1.01-2.35,2.57-.29.29-.58.57-.87.86-.39.33-.78.65-1.17.98ZM679.46,206.1c-.09-2.12-.05-3.44-.26-4.71-.08-.51-.65-1.22-1.13-1.34-.98-.26-1.45.56-1.56,1.41-.39,3.22-.77,6.45-1.04,9.68-.08.96.1,2.18,1.26,2.36,1.27.19,1.47-1.01,1.65-1.96.39-2.07,1.28-4.07,1.08-5.44Z"/>
          <path class="cls-1" d="M747.55,190.65c4.68,2.27,6.28,6.61,4.55,12.42-.47,1.56-.99,3.11-1.48,4.66-.85,1.68-2.2,2.86-3.81,3.76-2.5-.29-3.31,1.09-3.26,3.32-1.97,1.72-4.16,2.82-6.88,2.4-3.86-.7-7.46-2.19-11.06-3.68,0,0,0,.03,0,.03.68-8.58,3.68-12.44,10.09-12.98.7.3,1.4.6,2.1.9,4.22-2.44,7.45-5.59,7.79-10.83.66,0,1.31,0,1.97,0Z"/>
          <path class="cls-1" d="M663.39,78.05c-5.65,0-10.57,2.36-15.58,4.57-2.51,1.11-5.11,2.18-7.95,2.27-2.45-1.07-4.45-2.19-4.05-5.62.34-2.95.41-5.63,4.05-6.24,4.03,5.74,8.66,6.76,14.36,2.16,1.13-.92,3.1-1.08,4.69-1.1,5.85-.08,9.67-3.95,13.86-7.14,1.08-.33,1.74.07,2.04,1.14-2.13,5.25-6.7,7.7-11.43,9.97Z"/>
          <path class="cls-1" d="M734.77,114.38c2.33.95,3.23,3.1,4.29,5.12.16,3.11.68,6.24.43,9.31-1.5,18.33-1.25,36.72-2.2,55.06-.3,5.85-1.27,11.78.49,17.6-.7-.3-1.4-.6-2.1-.9.33-20.13.63-40.27,1.04-60.4.06-2.92.5-5.85.98-8.75,1-6.04-1.37-11.47-2.93-17.05Z"/>
          <path class="cls-1" d="M730.53,112.17c.73.48,1.98.13,2.2,1.4-16.52,1.51-32.38,6.16-48.35,10.26-1.92.49-3.88,1.94-6.01.53.34-.31.68-.62,1.02-.93,2.07-.36,4.29-.27,5.95-1.92,9.1-2.09,18.23-4.02,27.28-6.32,5.91-1.5,11.84-2.67,17.92-3.03Z"/>
          <path class="cls-1" d="M746.53,184.72c.26-19.18-.22-38.33-2.04-57.43-.22-2.28-.56-4.54-.85-6.82.64-4.05,1.57-7.94,5.74-9.96,1.97,2.82.16,5.42-.86,7.76-2.33,5.38-1.97,10.74-1.47,16.38,1.4,15.83,1.84,31.72,1.44,47.62-.03,1.32-.66,2.15-1.97,2.44Z"/>
          <path class="cls-1" d="M793.43,145.92c-.22-2.18-.45-4.36-.67-6.54.51-1.39.48-2.79.04-4.19.2-2.54.4-5.07.6-7.6.99,6.11,1.01,12.22.03,18.34Z"/>
          <path class="cls-1" d="M745.58,190.65c0-1.4-.41-2.84.53-4.12,1.63.97,1.4,2.59,1.44,4.12-.66,0-1.31,0-1.97,0Z"/>
          <path class="cls-1" d="M616.74,97.7c-.73-3.74-.64-7.52-.06-11.24.88-5.66,3.97-9.59,9.58-11.3,4.53-1.38,9.06-2.74,13.59-4.1,0,.66,0,1.32,0,1.98-3.64.62-3.71,3.29-4.05,6.24-.4,3.42,1.6,4.55,4.05,5.62-1.87,1.07-3.92,1.53-6.04,1.75-3.28-.92-6.94-.9-7.82-5.68-.3-1.63-2.9-2.49-4.6-.02-1.02,1.48-1.76,2.95-2.44,4.64-1.57,3.95.67,8.51-2.22,12.12Z"/>
          <path class="cls-1" d="M639.86,71.05c-.04-.64-.09-1.28-.13-1.92.48.3.95.6,1.43.9-.43.34-.87.68-1.3,1.02Z"/>
          <path class="cls-1" d="M367.14,413.08c.99,0,1.99,0,2.98,0-.22.92-.49,1.83-1.71,1.67-.93-.12-1.09-.92-1.28-1.66Z"/>
          <path class="cls-1" d="M145.77,444.8c6.91-2.42,14.01-4.28,20.7-7.37,14.27-6.58,26.2-15.93,35.18-28.93.64-.92,1.59-1.63,2.39-2.44,2.24,2.55-2.84,3.96-.84,6.74,2.78-1.98,5.29-4.73,8.38-5.74,5.23-1.71,5.9-5.58,6.34-9.91.13-1.3-.09-2.65.06-3.95.4-3.39,2.01-6.32,4.6-8.35,2.17-1.7,5.51-6.03,5.62-8.56,3.99,8.15,10.93,12.51,19.33,14.97,6.79,1.12,13.25.66,18.89-3.86,1.39-.05,2.69-.23,2.95-1.98,5.69-1.45,8.48-5.54,9.87-10.89,3.97-1.94,5.04-6.07,6.79-9.52,1.2-2.35,2.39-3.68,5.05-3.34.31.32.63.64.94.95.34.32.67.65,1.01.97.33.33.66.65,1,.98.06,2.02,2.39,2.35,2.95,4-4.94,1.5-3.16,5.32-2.97,8.59-1.69.09-1.88,1.57-2.51,2.67-6.46,11.27-15.59,19.17-28.33,22.53-1.05.28-2.33.28-2.81,1.61-5.5.05-11.01.48-16.49-.36-6.41-1.88-11.73-5.6-16.56-10.05-2.07-1.9-3.09-1.76-3.96,1.04-1.01,3.22-2.41,6.31-3.65,9.46l-2.2,3.9c-.55.9-1.1,1.8-1.64,2.7-1.14,1.55-2.27,3.11-3.41,4.66l-.03.02c-9.31,11.91-20.3,21.97-33.06,30.09-1.35.56-2.71,1.11-4.06,1.69-9.46,4.07-19.03,7.75-29.46,8.43.21-3.04-2.21-3.3-4.2-3.79-6.54-1.62-13.01-3.64-19.9-3.59.02-.51.04-1.02.06-1.53,6.09,0,12.18.02,18.27-.01,2.08-.01,4.35.48,5.71-1.83Z"/>
          <path class="cls-1" d="M581.51,299.49c-5.17-2.14-10.05-4.81-14.53-8.19-1.03-.78-2.39-2.03-3.04.08-1.92,6.22-7.28,9.52-11.36,13.9-2.55-1.26-1.98-3.34-.84-4.95,3.68-5.23,1.99-11.72,4.24-17.26.11-.28-.77-.96-1.18-1.46,2.97-6.48,7.57-12.11,9.87-18.95.27-.3.54-.59.81-.89,2.06,5.15,3.8,10.46,7.33,14.89.02.82.3,1.43,1.22,1.54l.08.09c.28.3.57.6.85.9l.1.1c.05.57.34.85.93.78l.14.13c.05.97.69,1.21,1.51,1.22,0,0,.11.09.11.09,7.14,6.34,15.05,6.46,23.43,2.92,1.21-1.85,3.15-2.15,5.11-2.39.96,2.12,2.66,3.44,4.37,4.98,2.13,1.92,5.94,1.54,6.76,5.03-11.3,5.66-23.01,9.35-35.88,7.42Z"/>
          <path class="cls-1" d="M365.35,306.19c2.04,8.62,6.74,15.71,12.66,22.1,1.08,1.17,2.75,1.83,3.14,3.6-4.04-1.72-5.84.48-6.89,3.96-.51,1.7-1.04,3.38-2.7,4.37-1.35-1.13-2.7-2.25-4.3-3.59-4.27,13.25-10.73,24.65-22.81,31.95-.88-.82-.49-1.73-.29-2.7.76-3.76-.52-6.06-4.64-6.19,1.4-2.25,3.65-3.99,4.04-6.83,1.21-.3,1.81-1.03,1.68-2.31l-.04.13c.81-.35,1.12-1.02,1.2-1.84l.05-.07c.3-.37.6-.73.9-1.1,0,0-.1.09-.1.09l.85-1.29-.14.05c3.02-.57,3.49-2.71,3.25-5.28,3.16-10.45,6.15-20.94,6.35-31.98,1.7-3.34-.08-7.1,1.42-10.49.28,5.7.24,11.39.31,17.08.02,1.28-.22,3.7,2.13,2.28,2.1-1.27,4.49-2.96,3.13-6.33-2.25-5.57-2.65-11.42-2.35-17.35l.04-.03c.26,0,.52.02.78.02.8,3.13.33,6.55,2.11,9.47l-.24.07s.05.25.05.25c.14.66.28,1.31.42,1.97Z"/>
          <path class="cls-1" d="M359.23,406.07c7.85-4.31,16.12-7.72,24.36-11.18,17.33-7.29,35.65-9.27,54.17-10.51,8.05-.54,16.04-1.67,24.04.09,2.54.56,5.18.91,7.22,2.81-8.71-3.14-17.82-2.71-26.63-1.72-20.86,2.36-42.1,2.98-61.62,12.58-6.8,3.35-13.9,6.53-21.53,7.94Z"/>
          <path class="cls-1" d="M522.38,391.11c1.1.24,2.24.38,3.31.73,20.64,6.76,35.94-5.61,33.83-27.37,4.4,5.08,2.77,10.77.57,15.75-5.28,11.98-15.86,15.84-28,15.86-3.55,0-7.82-.7-9.71-4.96Z"/>
          <path class="cls-1" d="M455.15,418.96c10.6,6.77,21.72,8.62,33.78,4.14,3.93-1.46,7.42-3.38,10.56-6.06.19,3.14-1.74,4.79-4.3,5.85-12.35,5.1-24.69,6.64-37.14.12-1.89-.99-2.69-2.16-2.9-4.05Z"/>
          <path class="cls-1" d="M474.91,404.23c-7.25,4.95-13.21,3.12-14.88-4.93-.99-4.8-3.7-4.07-6.89-3.03,1.52-3.14,4.23-3.58,7.09-2.66,2.99.96,5.71,3.64,5.4,6.34-.81,6.99,3.12,5.22,6.83,4.51.8-.15,1.63-.16,2.44-.23Z"/>
          <path class="cls-1" d="M310.9,437.76c5.67-5.68,12.11-10.37,18.91-14.55,3.74-2.3,7.65-4.33,11.48-6.49-1.91,4.28-6.43,5.24-9.83,7.58-4.95,3.41-10.17,6.38-14.55,10.62-1.56,1.51-3.46,3.07-6.01,2.84Z"/>
          <path class="cls-1" d="M512.43,359.84c8.34-.54,15.62,1.43,20.7,8.67-6.9-2.89-13.8-5.78-20.7-8.67Z"/>
          <path class="cls-1" d="M506.52,388.31c-.46-1.6-.93-3.2-1.39-4.81,4.64,2.55,5.98,10.6,2.46,14.73-.13-2.6-.26-5.21-.39-7.81.25-.86.22-1.63-.68-2.12Z"/>
          <path class="cls-1" d="M447.25,403.09c-1.13,4.49,1.83,7.94,3.04,11.83-4.64-2.88-6.01-8.23-3.04-11.83Z"/>
          <path class="cls-1" d="M344.15,414.7c3.12-3.19,6.99-5.13,11.13-6.61-3.12,3.19-6.75,5.53-11.13,6.61Z"/>
          <path class="cls-1" d="M477.77,394.53c2.42,3.16,2.26,6.05-.9,8.62.15-2.89,1.43-5.66.9-8.62Z"/>
          <path class="cls-1" d="M303.82,443.64c1.78-1.92,3.19-4.28,5.98-4.99-.7,3.21-2.56,5.04-5.98,4.99Z"/>
          <path class="cls-1" d="M505.54,403.08c.31.12.62.24.94.35-.23,2.83-.33,5.7-2.9,7.64.13-2.79,2.32-5.08,1.97-7.99Z"/>
          <path class="cls-1" d="M472.89,389.47c2.21.98,3.86,2.51,4.74,4.8-2.51-.69-4.13-2.25-4.74-4.8Z"/>
          <path class="cls-1" d="M450.26,414.89c2.26.56,3.48,2.38,4.84,4.03-2.82.11-4.6-1.03-4.84-4.03Z"/>
          <path class="cls-1" d="M533.2,368.6c1.46.91,2.36,2.2,2.68,3.9-2.32-.32-2.81-1.89-2.68-3.9Z"/>
          <path class="cls-1" d="M536.86,374.58c1.4,1.59,1.2,2.91-.68,3.94,0-1.35-.3-2.76.68-3.94Z"/>
          <path class="cls-1" d="M453.13,396.29c-1,.92-2,1.83-3,2.75-.07-2.08,1-2.92,3-2.75Z"/>
          <path class="cls-1" d="M355.29,408.08c1.02-1.21,2.37-1.81,3.91-1.99-.75,1.75-2.24,2.06-3.91,1.99Z"/>
          <path class="cls-1" d="M341.22,416.73c.65-1.19,1.64-1.88,3-2.03-.32,1.68-1.36,2.29-3,2.03Z"/>
          <path class="cls-1" d="M500.51,415.92c.26-.96.68-1.79,1.68-2.17.27,1.37-.31,2.07-1.68,2.17Z"/>
          <path class="cls-1" d="M520.32,389.43c.9.33,1.76.72,2.1,1.73-1.22.05-1.94-.5-2.1-1.73Z"/>
          <path class="cls-1" d="M518.38,387.16c.6.71,1.21,1.43,1.81,2.14-1.26-.16-1.78-.95-1.81-2.14Z"/>
          <path class="cls-1" d="M559.71,364.25c-1-.65-1.09-1.68-1.12-2.73.91.69,1.15,1.65,1.12,2.73Z"/>
          <path class="cls-1" d="M536.19,378.48c.06.82-.22,1.41-1.08,1.6.36-.53.72-1.07,1.08-1.6Z"/>
          <path class="cls-1" d="M534.75,380.4c-.24.89-.89,1.1-1.71,1.06.57-.35,1.14-.7,1.71-1.06Z"/>
          <path class="cls-1" d="M468.95,387.22c.89-.08,1.61.17,1.98,1.05-.83-.03-1.53-.31-1.98-1.05Z"/>
          <path class="cls-1" d="M470.94,388.28c.8-.02,1.46.2,1.74,1.05-.58-.35-1.16-.7-1.74-1.05Z"/>
          <path class="cls-1" d="M476.8,403.2c-.38.83-1.03,1.15-1.92,1.05.64-.35,1.28-.7,1.92-1.05Z"/>
          <path class="cls-1" d="M502.2,413.91c-.15-1.06.41-1.76,1.21-2.34-.01.98-.17,1.89-1.21,2.34Z"/>
          <path class="cls-1" d="M448.22,401.22c-.33.51-.66,1.02-1,1.53.33-.51.66-1.02,1-1.53Z"/>
          <path class="cls-1" d="M449.11,400.24c-.3.33-.6.66-.9.99.3-.33.6-.66.9-.99Z"/>
          <path class="cls-1" d="M504.43,382.6c-.26-.39-.53-.78-.79-1.17.26.39.53.78.79,1.17Z"/>
          <path class="cls-1" d="M252.43,438.62c-.35.36-.7.72-1.05,1.08.35-.36.7-.72,1.05-1.08Z"/>
          <path class="cls-1" d="M558.78,361.27c-.74-.27-.96-.86-1.02-1.57.34.52.68,1.05,1.02,1.57Z"/>
          <path class="cls-1" d="M255.02,488.39c.24-.24.48-.48.72-.72-.24.24-.48.48-.72.72Z"/>
          <path class="cls-1" d="M552.98,284.57c.26-.44.53-.89.79-1.33-.26.44-.53.89-.79,1.33Z"/>
          <path class="cls-1" d="M381.07,331.82c.31.05.61.14.9.29-.45.38-.72.19-.9-.29Z"/>
          <path class="cls-1" d="M545.05,293.66c.38-.38.77-.76,1.15-1.15-.38.38-.77.77-1.15,1.15Z"/>
          <path class="cls-1" d="M542.07,296.52c.37-.36.74-.71,1.1-1.07-.37.36-.74.71-1.1,1.07Z"/>
          <path class="cls-1" d="M539.25,298.85c.36-.46.72-.91,1.07-1.37-.36.46-.72.91-1.07,1.37Z"/>
          <path class="cls-1" d="M537.22,300.32c.36-.27.72-.54,1.08-.82-.36.27-.72.54-1.08.82Z"/>
          <path class="cls-1" d="M532.39,303.28c.36-.24.72-.48,1.08-.72-.36.24-.72.48-1.08.72Z"/>
          <path class="cls-1" d="M91.48,339.93s.14-.23.14-.23c0,0,.25.11.25.11,3.61-.44,7.2-1.13,10.85-.32,0,0,.15-.06.15-.06-.85,1.8-1.71,3.59-2.56,5.39-.32.32-.64.64-.96.96-1.82.35-1.95,1.7-1.89,3.17-.12.93-.24,1.86-.36,2.79-1.46,3.25-.76,6.3.86,9.28,3.8,7,9.96,8.74,17.32,7.87,1.11.8,2.08.77,2.87-.46h-.1c8.41.58,11.79-5.68,14.64-11.65,4.5-9.45,5.82-19.33.76-29.21-.61-1.18-.95-2.87.22-3.63,1.46-.93,2.17.78,3.02,1.71,6.22,6.87,8.92,15.1,9.31,24.21-.4,9.93-4.64,18.23-12.34,24.08-10.44,7.94-21.96,12.55-36.34,4.9,3.57,5.24,7.55,7.29,11.22,9.66,14.9,9.63,32.77,8.41,44.44-2.93,12.21-11.87,14.24-30.6,5.15-45.76-2.9-4.84-7.22-8.48-10.35-13.09,4.19-4.24,8.65-6.2,13.88-1.64.36-.02.71-.04,1.07-.07,0,0-.01-.04-.01-.04-.4,2.79,1.61,4.52,2.93,6.52,5.22,7.89,8.91,16.19,8.94,25.96.01,5.26-1.04,10.4-1.01,15.63,0,0,0,.36,0,.36-.77.53-.98,1.31-.94,2.19,0,0,.07-.1.07-.1-.37.37-.74.75-1.11,1.12-6.4,18.26-24.45,32.66-47.64,30.22-9.02-.95-16.99-4.11-24.56-8.76-.12-1.23-.85-1.78-2.02-1.86-.33-.26-.66-.52-.99-.78-.34-.4-.68-.8-1.01-1.19,0,0,.05.09.05.09-.37-.35-.73-.7-1.1-1.04,0,0,.09.1.08.1-.37-.36-.73-.72-1.1-1.08,0,0,.11.08.1.08-.37-.36-.74-.71-1.11-1.07,0,0,.11.09.11.09-.37-.36-.74-.72-1.1-1.08,0,0,.11.09.11.09-.34-.37-.68-.75-1.03-1.12,0,0,.09.04.09.04-.39-.34-.77-.67-1.16-1.01-.27-.35-.54-.7-.81-1.05-.08-.87-.43-1.56-1.3-1.89-.22-.37-.43-.75-.65-1.12l-1.13-1.9s.05.08.05.08c-.01-.86-.27-1.6-1.07-2.05,0,0,.07.1.07.1,0-.93-.31-1.71-1.14-2.22,0,0,.09-.23.09-.23-1.82-9.43-2.77-18.88-.92-28.43,0,0-.05.09-.05.09.76-.46,1.01-1.2,1.06-2.03,0,0-.03.04-.03.04,1.41-.17,2.01-.92,1.64-2.34,0,0-.04.15-.04.15.66-.12,1.03-.51,1.11-1.18,0,0-.13.14-.13.14.67-.1,1.03-.48,1.07-1.16,0,0-.1.13-.1.13.69-.05,1.06-.43,1.14-1.1,0,0-.1.17-.1.17.41-.36.82-.71,1.23-1.07,0,0-.16.21-.16.21.42-.35.84-.69,1.26-1.04,0,0-.15.15-.15.15.4-.3.79-.6,1.19-.89Z"/>
          <path class="cls-1" d="M103.5,277.46c2.3,2.02,4.59,4.04,6.88,6.06-3.73-.39-6.49-1.88-6.88-6.06Z"/>
          <path class="cls-1" d="M90.47,263.88c1.29,1.63,2.58,3.27,3.87,4.9-3.63-.44-5.42-2.59-5.74-6.13.63.41,1.25.82,1.88,1.23Z"/>
          <path class="cls-1" d="M87.66,305c-.7.08-1.4.17-2.1.25,0-1.3,0-2.59,0-3.89,0,0,0,0,0,0,3.48-.38,3.75,1.08,2.09,3.65Z"/>
          <path class="cls-1" d="M96.88,271.3c1.2,1.1,2.4,2.2,3.6,3.3-2.23.03-4.12-.32-3.6-3.3Z"/>
          <path class="cls-1" d="M95.44,304.22c-.99.02-1.98.03-2.97.05.95-2.45,1.94-2.52,2.97-.05Z"/>
          <path class="cls-1" d="M94.41,268.86c.48.52.96,1.03,1.44,1.55-.91-.12-1.29-.72-1.44-1.55Z"/>
          <path class="cls-1" d="M95.75,270.32c.37.32.73.65,1.1.97-.37-.32-.73-.65-1.1-.97Z"/>
          <path class="cls-1" d="M100.43,274.56c.37.34.74.69,1.1,1.03-.37-.34-.74-.69-1.1-1.03Z"/>
          <path class="cls-1" d="M102.43,276.45c.37.36.74.71,1.11,1.07-.37-.36-.74-.71-1.11-1.07Z"/>
          <path class="cls-1" d="M111.32,284.38c.39.36.78.71,1.18,1.07-.39-.36-.78-.71-1.18-1.07Z"/>
          <path class="cls-1" d="M162.72,325.01c-.36.02-.71.04-1.07.07.02-.38.03-.75.05-1.13.34.35.68.71,1.02,1.07Z"/>
          <path class="cls-1" d="M128.12,321.28c-.36-.41-.73-.81-1.1-1.22.36.41.73.81,1.1,1.22Z"/>
          <path class="cls-1" d="M118.37,131.04c-5.89,2.34-11.08,5.87-16.2,9.52-3.74-.3-6.43-4.49-10.8-2.88-.58.21-.78-1.59-.86-2.56,6.53-6.5,14.17-11.29,22.65-14.79,1.16,1.38,2.57,1.32,3.94.5,1.94-1.17,3.84-2.29,5.32.46,1.39,2.57-.41,3.95-2.27,5.09-1.84,1.14-2.06,2.77-1.78,4.65Z"/>
          <path class="cls-1" d="M85.55,301.36c0,1.3,0,2.59,0,3.89-2.29.6-4.57,1.2-6.86,1.79.99-3.46,3.96-4.53,6.86-5.68Z"/>
          <path class="cls-1" d="M40.89,331.84c-.86-.15-1.52-.54-1.37-1.51.15-.98.96-1.17,1.78-1.11.86.07,1.52.52,1.37,1.5-.15.98-.96,1.1-1.78,1.13Z"/>
          <path class="cls-1" d="M46.85,336.94c-.6,1.64-1.2,3.29-1.8,4.93-1.67-2.47-.46-3.89,1.8-4.93Z"/>
          <path class="cls-1" d="M44.14,344.84c.11,1,.07,1.96-.71,2.73-.28-1.04-.12-1.97.71-2.73Z"/>
          <path class="cls-1" d="M42.94,349.8c0,.32,0,.64-.01.96-.09-.22-.21-.44-.25-.68-.01-.08.17-.19.26-.29Z"/>
          <path class="cls-1" d="M118.37,131.04c-.28-1.88-.07-3.51,1.78-4.65,1.86-1.15,3.65-2.52,2.27-5.09-1.48-2.75-3.38-1.63-5.32-.46-1.37.83-2.78.88-3.94-.5,4.84-3.32,10.67-4.3,15.89-6.73,14.98-4.17,30.08-5.24,45.17-.86,24.52,7.12,43.39,21.43,55.2,44.43.67,1.3,1.46,2.54,2.19,3.8.91,2.75,1.83,5.5,2.74,8.25,3.26,9.89,4.91,20.12,3.68,30.4-.92,7.64-3.54,15.07-5.4,22.6-.71.49-.87,1.22-.85,2.02-.6,1.32-1.2,2.63-1.81,3.95-3.62,6.81-8.65,12.5-14.23,17.74l-.18.12c-.24-.06-.38.03-.4.28-7.81,5.68-16.52,9.32-25.86,11.58-10.56,1.62-20.49-1.02-30.3-5.02,2.39,3.77,5.93,5.54,9.09,7.8,8.67,6.18,18.63,10.59,25.81,18.81-.62,1.45-1.99,2.88-.55,4.5,2.05,2.3,2.61,4.36-.06,6.72-1.24,1.1-.15,2.11,1.06,2.49,1.26.4,2.72.54,3.15,2,1.09,3.73,3.43,6.63,5.93,9.47,1.04,1.19.49,2.09-.89,2.58-13.14-20.02-34.23-30.5-52.93-43.75-8.2-5.81-14.84-13.13-22.33-19.6-.37-.46-.74-.92-1.11-1.37-.85-.86-1.7-1.72-2.55-2.58-2.11-3.31-4.21-6.63-6.32-9.94l.02.02c.22-2.26-.99-4.12-1.74-6.1-8.13-21.35-2.77-41.66,14.76-55.92,21.63-17.59,57.77-5.21,62.52,21.41,1.8,10.1-2.4,18.99-11.39,24.1-1.03,0-2.06,0-3.09.01-3.98-2.27-4.81-5.12-2.34-9.24,3.4-5.66,2.13-9.53-3.94-12.25-5.71-2.56-11.64-2.21-16.86,1.03-10.49,6.53-13.28,20.82-6.59,31.66,3.18,7.86,9.77,11.92,16.98,15.31,7.71,5.33,15.97,5.26,24.51,2.49,5.78-1.25,11.34-3.18,15.79-7.19,9.26-8.35,14.93-18.87,17.89-30.92,2.18-5.7,2.08-11.58,1.33-17.5-7.08-55.9-64.23-75.86-103.55-57.12-1.03.49-2.14.82-3.21,1.22ZM164.65,173.79c-3.25-2.21-5.95-1.94-8.52-1.7-20.45,1.9-34.65,20.72-30.88,40.79,1.87,9.94,6.88,18.39,12.58,26.5.56.79,1.25,2.08,3.2,1.03-6.77-12.64-11.01-25.92-6.93-40.34,4.25-14.99,14.41-23.8,30.55-26.28Z"/>
          <path class="cls-1" d="M586.49,92.97c9.76-.73,17.58,3.01,23.84,10.34-.04,6.54.4,13.14-.29,19.61-.49,4.57,1.47,10.38-4.68,13.19-1.39.64-.96,2.3-.44,3.55,2.25,5.37,1.21,10.12-2.62,14.37-1.98-.36-5.58,4.17-5.66-1.88,1.3,1.42,1.74.99,1.74-.75-.03-10.75-.03-21.5-.04-32.25,0-1.02-.29-1.92-1.14-2.57-.53-8.32-1.45-9.05-9.79-7.95-7.46.98-13.84,4.96-20.79,7.37-1.76.61-1.16,2.01-1.08,3.3.82,13.62-.04,27.23-.13,40.85-.02,3.38-1.05,5.48-4.5,6.5-5.5,1.62-10.91,3.53-16.31,5.44-1.74.62-4.09.37-4.8,2.81-1.05,1.63-1.04,3.26.05,4.87.07,1.99.14,3.97.21,5.96-1.44-2.46-1.61-5.26-1.93-7.96-.24-2.04-1.11-2.89-3.11-2.9-5.11-.03-7.53-3.73-9.95-7.4-.3-6.46,5.75-5.39,9.03-7.61,1.45.08,2.7-.4,3.79-1.35,1.92.29,3.52-.6,5.14-1.38,7.57-1.06,7.46-1.06,7.64-8.56.19-8.2.6-16.39.95-24.58.31-7.26,3.42-13.23,8.54-18.24,1.98-1.94,3.98-3.87,5.97-5.8.56-.39,1.11-.79,1.67-1.18,6.23-1.92,12.47-3.84,18.7-5.76Z"/>
          <path class="cls-1" d="M456.21,211.1c6.22-9.55,13.97-17.93,20.74-27.06,5.04-2.94,9.79-6.33,15.13-8.83,9.05-4.24,18.29-7.07,28.39-5.9,1.99.23,3.54-.1,4.61-1.87,2.42,3.68,4.84,7.38,9.95,7.4,1.99.01,2.86.86,3.11,2.9.32,2.71.49,5.5,1.93,7.96,1.17,1.36,1.75,3.38,3.97,3.59,0,1.09,0,2.19.01,3.28-2.84-2.14-5.29-4.69-8.86-5.97-18.19-6.53-34.37-2.24-48.79,9.44-16.4,13.29-24.47,31.16-26.55,51.94-2.26.92-2.38,1.91-.08,2.95l.28,3.94c-.81,5.31.49,10.55.56,15.83-3.04-2.78-2.18-6.9-2.16-9.99.04-5.99-1.36-8.09-7.2-5.83.86-3.96,1.72-7.92,2.57-11.88,1.82-2.07,2.18-4.06-.33-5.89-.07-.66-.13-1.33-.2-1.99,1.75-.45,1.73-1.59,1.32-3.04-.99-3.54-1.02-6.71,2.82-8.85,1.8-1,1.67-2.95.26-4.17-2.73-2.36-2.6-5.01-1.48-7.96Z"/>
          <path class="cls-1" d="M393.22,205.25c.99-.34,1.99-.68,2.98-1.02,2.5-.92,5-1.84,7.5-2.76-1.36,4.71,5.03,8.08,2.26,13.04-.82.52-1.6,1.12-2.47,1.53-25.64,12.06-36.21,33.91-39.31,60.6-2.31,5.8-.38,11.89-1.17,17.79-.26,0-.52,0-.78-.02-.12-.63-.25-1.25-.37-1.88-.13.08-.39.2-.39.22.22.57.48,1.13.72,1.69-.3,5.93.1,11.78,2.35,17.35,1.36,3.37-1.03,5.06-3.13,6.33-2.35,1.42-2.12-1-2.13-2.28-.07-5.69-.03-11.39-.31-17.08-1.5,3.4.28,7.15-1.42,10.49-.14-9.51-.28-19.01-.42-28.52.34-10.94.58-21.87-.14-32.81.09-2.62.17-5.24.26-7.85,1.63-.31,1.93-1.49,1.99-2.92.15-3.46-1.57-6.75,5.22-7.09,9.28-.47,14.31-7.86,16.47-16.77,3.69-3.29,7.75-6.02,12.27-8.04Z"/>
          <path class="cls-1" d="M405.96,214.51c2.77-4.96-3.62-8.32-2.26-13.04.8-.58,1.61-1.15,2.41-1.73.51-.08,1.02-.16,1.54-.24.71.04,1.37-.03,1.71-.8.82.75,1.52.14,2.24-.21,1.72-.05,3.46.09,5.06-.76,1.29-.1,2.58-.19,3.86-.29.32-.02.65-.03.97-.05,2.64.03,5.28.06,7.91.08,5.07.88,10.05,2.1,14.8,4.12,4.19,2.93,8.93,5.17,12.01,9.5-1.12,2.95-1.25,5.61,1.48,7.96,1.41,1.22,1.54,3.16-.26,4.17-3.84,2.14-3.81,5.32-2.82,8.85.41,1.45.43,2.59-1.32,3.04-.18-.35-.36-.69-.54-1.04-1.68-12.75-10.52-18.63-21.64-21.81-8.52-2.43-16.93-.53-25.14,2.23Z"/>
          <path class="cls-1" d="M307.64,232.21c1.52.13,1.93-1.14,2.59-2.09.2-.14.37-.31.53-.5,1.32-.53,2.64-1.05,3.95-1.58.59.7,1.27.79,2.17.6,5.57-1.17,9.62,3.13,8.77,9.26-2.3,2.94.25,5.82.18,8.77-.26,10.62-.02,21.26.03,31.89-.13,7.94-.27,15.87-.4,23.81-2.62,2.3-4.76,4.82-5.21,8.51-.17,1.44-1.26,2.55-2.62,3.37-4.62,2.81-8.42,6.34-9.81,11.84-.91-1.67-1.98-3.27-1.96-5.3.06-7.15.09-14.29.14-21.44.29-.75.78-1.49.84-2.26,1.14-15.26,1.17-30.55,1.05-45.84,0-1.16-.05-2.31-.86-3.26.26-3.4-.45-4.54-4.3-3.05-8.36,3.23-16.82,6.34-25.87,7.3-1.91.2-3.59,1.3-3.73,3.65-4.83-3.84-7.94-8.15-3.82-14.37,9.64-5.21,20.34-7.37,30.66-10.64,1.98.09,3.95.18,5.93.28.58.35,1.17.7,1.75,1.05Z"/>
          <path class="cls-1" d="M325.66,237.92c.85-6.14-3.2-10.44-8.77-9.26-.9.19-1.58.1-2.17-.6,13.97-7.41,28.48-13.31,44.26-15.57,6.24-.89,11.06.9,13.4,7.45,3.14-2.1,5.25-5.19,8.58-6.65-2.15,8.92-7.18,16.31-16.47,16.77-6.79.34-5.08,3.63-5.22,7.09-.06,1.43-.36,2.61-1.99,2.92-.04-2.63-.37-5.29-.07-7.88.48-4.08-1.07-4.26-4.38-3.12-9,3.08-18.1,5.91-27.15,8.84Z"/>
          <path class="cls-1" d="M310.76,229.63c-.16.19-.33.35-.53.5-.15-.24-.2-.51-.13-.79.25.02.47.12.66.29Z"/>
          <path class="cls-1" d="M617.39,292.07c-.82-3.49-4.63-3.11-6.76-5.03-1.71-1.54-3.41-2.87-4.37-4.98.7-.4,1.39-.79,2.09-1.19l.08-.07c2.14-.52,4.07-1.42,5.67-2.97l.28-.17c.35-.22.69-.45,1.04-.67,2.56-1.44,4.9-3.16,6.86-5.38l.7-.68.24-.07v-.25c5.77-6.42,9.28-13.83,9.87-22.53v.03c.83.09,1.47.28,1.97,1.14,9.43,16.38,19.25,19.57,36.62,11.98,0,0-.14-.05-.14-.05,1.2.07,2.25-.24,3.04-1.22l-.08.14c1.88-.21,3.59-.83,4.97-2.18l-.09.05c.85-.02,1.64-.17,2.07-1.03l-.02.09c3.71-1.77,7.18-3.86,9.9-7.01l-.09.05c.37-.36.74-.71,1.11-1.07l-.1.14c.36-.37.73-.75,1.09-1.12,0,0-.1.12-.1.12.36-.37.71-.74,1.07-1.12l-.06.1c.82-.44,1.26-1.09,1.17-2.05l-.19.14c.73-.02.9-.53.98-1.12,1.5-2.2,2.87-4.46,2.93-7.24,1.25.18,2.21.81,2.93,1.83.59,2.9,3.19,5.44-.61,8.63-4.67,3.93-7.75,9.2-5.39,15.84,1.22,3.43.67,6.02-2.87,7.57-.34.08-.68.16-1.01.24-4.82-.03-9.31-2.42-14.28-1.73-17.55,2.45-32.15,19.12-32.15,36.9-1.72,5.67-1.44,11.31.27,16.92-.1.81.04,1.53.72,2.07.3.79.6,1.58.9,2.37,3.61,12.31,11.79,20.33,23.31,25.46,29.43,13.09,56.07,5.82,81.49-10.87.38,1.52,1.09,1.42,2.46.94,2.63-.93,8.51,2.36,9.49,5.01-1.77,2.29-4.35,3.48-6.82,4.71-13.18,6.58-25.49,14.95-39.96,18.92-3.57.98-7.04.64-10.54,1.11-21.32,2.88-39.87-3.55-56.18-17.19,0,0,0,.01,0,.01-2.99-3.36-5.98-6.72-8.97-10.08-9.87-13.23-12.66-28.1-10.2-44.18,1.62-6.7,4.15-13.1,6.53-19.55.39-1.06.88-2.34-.49-3.02-1.12-.56-1.7.56-2.39,1.2-5.4,4.94-10.84,9.82-18.01,12.13Z"/>
          <path class="cls-1" d="M756.3,359.06c.14.2.27.39.41.59-.16-.2-.31-.39-.47-.59,0,0,.06,0,.06,0Z"/>
          <path class="cls-1" d="M754.46,359.75c-.31.07-.61.13-.92.2.27-.24.58-.3.92-.2Z"/>
          <path class="cls-1" d="M790.34,314.59c-.64-.34-1.53-.4-1.62-1.38,0-.1.21-.32.31-.31.99.06,1.02.98,1.4,1.6,0,0-.09.09-.09.09Z"/>
          <path class="cls-1" d="M247.75,136.89c-.08-2.12,1.18-2.62,2.98-2.47-.28,1.68-1.64,2.06-2.98,2.47Z"/>
          <path class="cls-1" d="M632.96,366.37c.31,0,.63.02.94.03,0,0-.47.1-.47.1l-.47-.13Z"/>
          <path class="cls-1" d="M630.48,216.34c-.14,3.6-.27,7.19-.41,10.79-3.6,6.15-4.53,13.66-9.73,18.99-.41-.03-.83-.06-1.24-.09.48-5.85,1.06-11.71-3.43-16.53,1.45-11.79,1.47-23.64,1.21-35.49-.04-1.78-.52-3.55-.77-5.32-.11-.82-.1-1.7-1.2-1.81-1.45-.14-1.45,1.01-1.61,1.94-.22,1.3-.43,2.6-.57,3.91-1.44,13.11-1.08,26.29-1.5,39.44-3.21-2.67-5.98-1.68-8.49,1.07-1.18,1.29-2.59,1.99-4.34,1.98-.02-15.3-.22-30.6.04-45.9.09-5.63-.51-12.15,7.22-14.16.28-.07.39-.85.57-1.3,6.71-2.07,13.43-4.08,20.11-6.24,3.23-1.04,4.62-.97,4.26,3.3-.55,6.52-.17,13.13-.18,19.7-.3,8.57-.51,17.15.06,25.72Z"/>
          <path class="cls-1" d="M602.3,154.03c3.83-4.25,4.87-9,2.62-14.37-.52-1.25-.95-2.91.44-3.55,6.15-2.81,4.19-8.62,4.68-13.19.69-6.47.25-13.07.29-19.61,4.04,5.87,2.97,12.48,2.29,18.84-.42,3.94-.21,7.85-.44,11.76-.08,1.35.06,2.91,1.58,3,1.02.06,1.36-1.29,1.73-2.51,1.46-4.95,1.09-10,1.24-15,.2-6.55.08-13.11.1-19.66,3,.08,4.73-1.24,5.32-4.31.53-2.78,1.81-5.16,5.02-5.69,3.11,1.83,3.66,4.88,3.64,8.06-.08,14.11-.36,28.23-.28,42.34.02,4-1.73,5.97-5.16,7.19-7.56,2.7-15.23,4.98-23.07,6.7Z"/>
          <path class="cls-1" d="M565.44,231.25c0,.63,0,1.26,0,1.88-.26.29-.26.58,0,.87-.05.7-.11,1.39-.16,2.09-.1,1.73-.2,3.46-.3,5.19-.29,4.14-1.63,7.41-6.25,8.43-1.38.31-2.59,1.35-3.88,2.05-.02-1.27-1.17-2.54-.24-3.8,2.91-3.92,2.48-9.16,5.3-13.15,1.35-1.91.88-3.64-.9-5.64-4.12-4.61-7.98-9.53-7.1-16.45.42-3.29-.28-6.54-.96-9.77-.33-1.57-1.09-2.3-2.63-2.33-1.43-2.68-2.85-5.36-4.28-8.03,0-1.09,0-2.19-.01-3.28,5.91-1.22,11.88-2.2,17.69-3.77,3.27-.88,4.15-.53,4.03,3.07-.4,11.77-.46,23.55-.59,35.33-.03,2.44.19,4.88.3,7.32Z"/>
          <path class="cls-1" d="M596.12,229.09c.37-17.61.74-35.22,1.11-52.82,2.28-3.48,6.12-1.15,8.99-2.41-.19.45-.29,1.22-.57,1.3-7.73,2.01-7.13,8.53-7.22,14.16-.26,15.29-.06,30.6-.04,45.89-.16,3.9.43,7.72.85,11.59.91,8.37,1.03,8.7,9.53,9.31-1.49.56-2.97,1.13-4.46,1.69-5.25-1.09-6.75-4.97-7.06-9.64-.42-6.35-.76-12.71-1.14-19.06Z"/>
          <path class="cls-1" d="M627.18,89.74c-3.21.54-4.49,2.91-5.02,5.69-.59,3.07-2.32,4.39-5.32,4.31-.03-.68-.06-1.36-.1-2.04,2.89-3.61.65-8.17,2.22-12.12.67-1.69,1.42-3.17,2.44-4.64,1.71-2.47,4.3-1.61,4.6.02.88,4.78,4.54,4.77,7.82,5.68-1.86,1.8-5.47-.16-6.64,3.1Z"/>
          <path class="cls-1" d="M597.2,116.58c.85.65,1.14,1.55,1.14,2.57.01,10.75.01,21.5.04,32.25,0,1.74-.44,2.17-1.74.75-.05-11.86-.23-23.72.56-35.57Z"/>
          <path class="cls-1" d="M539.84,179.75c-1.09-1.61-1.1-3.23-.05-4.87.02,1.62.03,3.24.05,4.87Z"/>
          <path class="cls-1" d="M693.21,270.71c3.54-1.55,4.09-4.14,2.87-7.57-2.36-6.65.73-11.92,5.39-15.84,3.8-3.2,1.19-5.73.61-8.63,1.74.91,3.54,1.73,5.2,2.76,20.7,12.83,45.04,1.02,54.03-14.73v14.1c-.53,1.01-.61,2.03-.12,3.08-.1,2.02-.19,4.04-.29,6.06-.41,4.77-.82,9.55-1.23,14.32-1.58-3.93-1.57-8.02-.79-12.04.8-4.11.49-8.2.37-12.29-.06-2.11-1.37-2.72-3.44-2.08-2.04.64-1.85,1.49-1.12,3.25,2.06,4.93,2.57,9.62-2.08,13.83-2.32,2.1-3.24,4.56-2.22,8.64.77,3.09.72,7.15,1.03,10.78.14,1.62-.67,3.31-2.09,3.58-2.73.52-4.38,2.72-6.76,3.67,1.58-6.35,3.27-12.69,4.72-19.07,1-4.4.02-5.34-4.11-3.37-7.51,3.58-15.28,3.84-23.28,2.95-3.17-.8-6.33-1.6-9.5-2.42-1.04-.27-2.32-1.38-3.08-.11-.83,1.39.49,2.43,1.5,3.24,5.64,4.48,9.62,10.17,12.3,16.82,1.27,7.79,2.94,15.62-1.94,22.89,2.14-5.34-3.28-9.84-1.62-15.39.53-1.76-1.35-5.21-4.19-5.16-3.03.05-2.19,3.05-2.38,5.06-.16,1.7.58,3.8-1.96,4.45-.35-3.77-.39-7.61-2.8-10.84-.21-1.2-.87-1.96-2.11-2.15,0,0,.07.07.07.07-2.42-4.36-6.97-5.74-10.99-7.85Z"/>
          <path class="cls-1" d="M736.66,217.2c-1.24.28-2.48.55-3.72.83-2.49-1.44-6.27-.76-7.34-4.51,3.6,1.49,7.2,2.98,11.06,3.68Z"/>
          <path class="cls-1" d="M761.19,243.87c-.49-1.05-.41-2.07.12-3.08-.04,1.03-.08,2.05-.12,3.08Z"/>
          <path class="cls-1" d="M688.47,219.54c-.06-15.91-.24-31.82-.08-47.73.03-3.55,1.17-7.09.92-10.72.31-.03.63-.06.94-.08.03,11.51.05,23.02.08,34.52,0,6.07,0,12.14,0,18.21,0,2.13.15,4.31-1.86,5.8Z"/>
          <path class="cls-1" d="M690.24,161c-.31.03-.63.06-.94.08-.26-4.18-.44-8.37-.8-12.55-.12-1.37-.24-2.59,1.02-3.49,2.73,5.2.88,10.61.73,15.95Z"/>
          <path class="cls-1" d="M671.39,236.2c-2.19-.07-4.44.08-6.06-1.85,3.08-.05,6.16-.1,9.24-.15-.42,1.69-2.41.87-3.18,2Z"/>
          <path class="cls-1" d="M682.44,229.42c.01-1.56-.04-3.18,2.35-2.57-.54,1.08-1.22,2.04-2.35,2.57Z"/>
          <path class="cls-1" d="M684.95,226.63c-.72-1.67,0-2.66,1.55-3.25-.03,1.32-.54,2.41-1.55,3.25Z"/>
          <path class="cls-1" d="M676.5,233.33c.44-.8,1.18-1.06,2.03-1.1-.25,1.15-1.17,1.07-2.03,1.1Z"/>
          <path class="cls-1" d="M687.42,221.61c0-.92.21-1.73,1.14-2.16-.09.87,0,1.84-1.14,2.16Z"/>
          <path class="cls-1" d="M686.42,223.46c.29-.39.58-.79.87-1.18.17.74-.32.98-.87,1.18Z"/>
          <path class="cls-1" d="M680.41,231.26c.39-.33.78-.65,1.17-.98-.39.33-.78.65-1.17.98Z"/>
          <path class="cls-1" d="M675.43,234.07c.38-.28.77-.56,1.15-.84-.23.5-.35,1.13-1.15.84Z"/>
          <path class="cls-1" d="M679.46,206.1c.2,1.37-.69,3.36-1.08,5.44-.18.95-.38,2.15-1.65,1.96-1.16-.18-1.34-1.4-1.26-2.36.28-3.23.65-6.46,1.04-9.68.1-.85.57-1.66,1.56-1.41.48.12,1.05.83,1.13,1.34.21,1.28.17,2.6.26,4.71Z"/>
          <path class="cls-1" d="M746.8,211.49c-1.09,1.1-2.17,2.21-3.26,3.32-.06-2.23.75-3.6,3.26-3.32Z"/>
          <path class="cls-1" d="M742.57,281.59c2.38-.95,4.03-3.15,6.76-3.67,1.42-.27,2.23-1.96,2.09-3.58-.31-3.63-.26-7.69-1.03-10.78-1.02-4.08-.1-6.54,2.22-8.64,4.65-4.21,4.14-8.91,2.08-13.83-.74-1.76-.92-2.61,1.12-3.25,2.07-.65,3.38-.04,3.44,2.08.12,4.09.43,8.18-.37,12.29-.78,4.02-.79,8.11.79,12.04.36,1.54.07,3.02-.43,4.48-.82.24-1.48.64-1.7,1.55-2.25,9.29-7.26,17.37-11.32,25.88-1.17,2.45-3.63,4.32-3.43,7.41,0,0,.03-.15.03-.15-.81.35-1.12,1.03-1.24,1.84,0,0-.04.05-.04.05-.3.34-.61.68-.91,1.02h.01c-.33.34-.65.7-.98,1.06,0,0,.07-.07.07-.07-.35.36-.7.73-1.04,1.09,0,0,.09-.1.09-.1-.36.37-.71.74-1.07,1.11,0,0,.12-.1.12-.1-1.08.35-1.77,1.05-2.04,2.16,0,0,.13-.16.13-.16-.38.38-.76.75-1.14,1.13,0,0,.13-.15.13-.15-.38.38-.75.75-1.13,1.12,0,0,.13-.14.13-.14-.38.36-.76.72-1.14,1.08,0,0,.11-.11.11-.11-.37.34-.75.68-1.12,1.02,0,0,.05-.03.05-.03-.51.15-1.55-.34-1.14.94-2.74,1.91-5.49,3.82-8.23,5.73-.71.34-1.43.69-2.15,1.03l-.35-.07s-.27.24-.26.24c-.62.27-1.24.54-1.86.81,0,0-.1.03-.1.03-9.27,3.05-18.72,3.6-28.32,1.91-4.71-1.7-7.87-5.4-11.26-8.79-.24-.32-.48-.63-.73-.95,0,0,.04.06.04.06-.33-.5-.66-1-.98-1.5.16-.66-.08-1.15-.65-1.5-.79-4.4-1.39-8.81,1.71-12.66,3.56-4.43,6.54-3.99,8.56,1.21,2.84,7.3,8.52,9.16,15.26,5.3,6.14-3.52,6.22-9.82,7.68-15.54,2.54-.65,1.79-2.75,1.96-4.45.19-2.01-.64-5.01,2.38-5.06,2.84-.05,4.72,3.4,4.19,5.16-1.67,5.55,3.76,10.05,1.62,15.39,0,0,0,0,0,0-.13.05-.39.11-.38.15.01.23.09.46.14.68.22.82-.03,1.51-.61,2.09-3.05.29-2.18,2.6-2.28,4.42,1.05,2.02,2.38,1.04,3.65.31,3.86-2.22,7.27-4.93,10.34-8.22,5.57-5.97,9.32-12.98,12.54-20.36Z"/>
          <path class="cls-1" d="M742.8,303.55c-.2-3.08,2.25-4.95,3.43-7.41,4.06-8.5,9.07-16.58,11.32-25.88.22-.91.89-1.3,1.7-1.55-2.6,12.97-8.22,24.52-16.45,34.83Z"/>
          <path class="cls-1" d="M735.79,311.47c.27-1.11.96-1.81,2.04-2.16-.37,1.01-1,1.78-2.04,2.16Z"/>
          <path class="cls-1" d="M741.6,305.25c.12-.81.43-1.49,1.24-1.84-.03.87-.46,1.47-1.24,1.84Z"/>
          <path class="cls-1" d="M730.66,316.17c-.41-1.28.63-.79,1.14-.94-.38.31-.76.63-1.14.94Z"/>
          <path class="cls-1" d="M677.42,316.11c.24.32.49.64.73.95-.24-.32-.49-.64-.73-.95Z"/>
          <path class="cls-1" d="M676.48,314.66c.33.5.66,1,.98,1.5-.33-.5-.66-1-.98-1.5Z"/>
          <path class="cls-1" d="M731.76,315.26c.37-.34.74-.68,1.12-1.02-.37.34-.75.68-1.12,1.02Z"/>
          <path class="cls-1" d="M732.77,314.36c.38-.36.76-.72,1.14-1.08-.38.36-.76.72-1.14,1.08Z"/>
          <path class="cls-1" d="M733.78,313.42c.38-.37.75-.75,1.13-1.12-.38.37-.75.75-1.13,1.12Z"/>
          <path class="cls-1" d="M734.78,312.44c.38-.38.76-.75,1.14-1.13-.38.37-.76.75-1.14,1.13Z"/>
          <path class="cls-1" d="M737.71,309.41c.36-.37.71-.74,1.07-1.11-.36.37-.71.74-1.07,1.11Z"/>
          <path class="cls-1" d="M738.7,308.4c.35-.36.7-.73,1.04-1.09-.35.36-.7.73-1.04,1.09Z"/>
          <path class="cls-1" d="M739.67,307.38c.33-.36.65-.71.98-1.07-.33.36-.65.71-.98,1.07Z"/>
          <path class="cls-1" d="M740.65,306.32c.3-.34.61-.68.91-1.02-.3.34-.61.68-.91,1.02Z"/>
          <path class="cls-1" d="M202.54,307.27c1.37-.49,1.93-1.4.89-2.58-2.5-2.84-4.84-5.73-5.93-9.47-.43-1.46-1.89-1.6-3.15-2-1.21-.38-2.3-1.4-1.06-2.49,2.67-2.36,2.11-4.42.06-6.72-1.45-1.62-.07-3.05.55-4.5.76.44,1.52.89,2.28,1.33,1.41,1.56,2.48,3.58,4.95,3.74-.29,1.29.25,2.04,1.56,2.42.47-1.5-.49-1.99-1.51-2.45-1.19-1.7-2.38-3.4-3.57-5.11-.63-3.29-2.97-6.24-1.99-9.86,4.9,1.07,9.8,2.15,14.69,3.22-1.94,3.06.87,2.65,2.32,3.08,8.97,2.62,9.58,3.14,10.02,12.37.4,8.31.4,16.63.57,24.95-.32,8.29-.67,16.58-.17,24.87-.27,12.7-1.36,25.51,4.7,37.41-.07.12-.22.32-.19.35.16.17.37.3.56.45h.11c-.11,2.54-3.46,6.87-5.62,8.57-2.6,2.04-4.21,4.96-4.6,8.35-.15,1.3.07,2.64-.06,3.95-.44,4.34-1.11,8.21-6.34,9.91-3.08,1.01-5.59,3.76-8.38,5.74-2-2.78,3.07-4.19.84-6.74,4.21-8.34,8.83-16.49,11.56-25.5,1.09-3.61,2.18-7.22,2.17-11.05,1.93-14.97.02-29.44-5.59-43.44-1.65-7.07-6.08-12.72-9.64-18.81Z"/>
          <path class="cls-1" d="M170.23,334.59c5.11,10.42,7.69,21.28,5.6,32.93-.89,1.8-.61,4.08-2.26,5.57-.04-5.23,1.02-10.37,1.01-15.63-.03-9.77-3.72-18.08-8.94-25.96-1.32-2-3.34-3.73-2.93-6.52,3.37,2.53,4.98,6.44,7.53,9.61Z"/>
          <path class="cls-1" d="M82.53,349.68c-1.86,9.55-.91,19,.92,28.43-4.65-7.93-4.88-16.38-2.88-25.07.66-1.12,1.31-2.24,1.97-3.36Z"/>
          <path class="cls-1" d="M97.36,396.27c1.17.08,1.91.63,2.02,1.86-1.14-.11-1.46-1.12-2.02-1.86Z"/>
          <path class="cls-1" d="M172.63,375.65c-.04-.88.17-1.66.94-2.19,0,.87-.14,1.67-.94,2.19Z"/>
          <path class="cls-1" d="M83.35,378.34c.83.51,1.13,1.29,1.14,2.22-.81-.52-1.08-1.31-1.14-2.22Z"/>
          <path class="cls-1" d="M84.42,380.46c.8.45,1.06,1.19,1.07,2.05-.8-.45-1.02-1.21-1.07-2.05Z"/>
          <path class="cls-1" d="M85.44,382.43l1.13,1.9c-.38-.63-.75-1.27-1.13-1.9Z"/>
          <path class="cls-1" d="M87.21,385.45c.87.33,1.22,1.02,1.3,1.89-.43-.63-.87-1.26-1.3-1.89Z"/>
          <path class="cls-1" d="M95.35,394.29c.34.4.68.8,1.01,1.19-.34-.4-.68-.8-1.01-1.19Z"/>
          <path class="cls-1" d="M94.3,393.34c.37.35.73.7,1.1,1.04-.66-.04-1.04-.37-1.1-1.04Z"/>
          <path class="cls-1" d="M93.29,392.37c.36.36.73.72,1.1,1.08-.67-.04-1.05-.39-1.1-1.08Z"/>
          <path class="cls-1" d="M92.29,391.39c.37.36.74.71,1.11,1.07-.68-.03-1.05-.39-1.11-1.07Z"/>
          <path class="cls-1" d="M91.3,390.4c.37.36.74.72,1.1,1.08-.68-.04-1.04-.41-1.1-1.08Z"/>
          <path class="cls-1" d="M90.39,389.37c.34.37.68.75,1.03,1.12-.69-.06-.99-.46-1.03-1.12Z"/>
          <path class="cls-1" d="M89.32,388.4c.39.34.77.67,1.16,1.01-.39-.34-.77-.67-1.16-1.01Z"/>
          <path class="cls-1" d="M171.58,376.66c.37-.37.74-.75,1.11-1.12-.37.37-.74.75-1.11,1.12Z"/>
          <path class="cls-1" d="M451.24,254.89c5.84-2.26,7.25-.15,7.2,5.83-.02,3.09-.88,7.21,2.16,9.99.03.68.06,1.36.09,2.04-.1.56-.21,1.12-.31,1.68-2.09,3.48-5.5,5.88-7.34,9.65-6.99,14.29-17.29,24.77-33.53,28.09-2.57-.06-5.14-.12-7.72-.17-8.9-2.74-14.12-9.04-17.03-17.59-.12-3.23,2.17-3.51,4.56-3.83,23.32-3.13,41.88-13.19,51.92-35.68Z"/>
          <path class="cls-1" d="M549.68,208.43c-.46-2.61-.91-5.22-1.37-7.83,1.54.03,2.3.76,2.63,2.33.68,3.23,1.37,6.48.96,9.77-.88,6.92,2.98,11.84,7.1,16.45,1.79,2,2.25,3.73.9,5.64-2.82,4-2.38,9.23-5.3,13.15-.94,1.26.22,2.53.24,3.8-1.03,1.67-2.07,3.35-3.1,5.02,0,0,.03-.05.03-.05-1.58.79-2.19,2.4-2.98,3.77-4.13,7.15-10.35,12.06-17.16,16.39-3.4-2.24-6.83-2.53-10.75-1.04-4.19,1.59-8.15.1-11.38-2.7-3.69-3.21-2.24-9.58,2.38-11.22,1.08-.38,2.22-.57,3.32-.92,1.06-.34,2.48-.45,2.55-1.9.08-1.49-1.84-1.14-2.38-2.16,7.9-3.41,15.26-7.77,21.35-13.84,9.54-9.5,14.34-20.98,12.97-34.67Z"/>
          <path class="cls-1" d="M510.84,233.63c-4.53,4.89-10.31,7.72-16.41,10.04-2.36.19-3.06-1.02-2.97-3.22.18-4.53.65-8.98,2.33-13.24,2.85-.51,3.2-2.85,3.83-5.08,2.85-9.98,12.54-16.96,21.76-15.73,0,0-.01-.01-.01-.01.91,4.31,1.28,8.59-.21,12.9-.79,2.27-1.9,4.5-1.78,7.02,0,0,.02-.03.02-.03-2.96.39-4.09,2.21-3.97,5.04-.55,1.09-1.22,2.03-2.54,2.25-.17-.15-.34-.31-.51-.46.15.18.3.35.45.53Z"/>
          <path class="cls-1" d="M515.36,256.94c.54,1.02,2.46.67,2.38,2.16-.07,1.45-1.49,1.56-2.55,1.9-1.09.35-2.24.54-3.32.92-4.61,1.64-6.06,8.01-2.38,11.22,3.23,2.81,7.19,4.3,11.38,2.7,3.92-1.49,7.35-1.19,10.75,1.04-7.64,6.13-16.31,7.55-25.72,5.67-6.83-2.8-11.11-7.86-13.13-14.91-.75-3.81-.19-5.99,4.68-6.14,4.32-.13,8.59-1.79,12.88-2.78,2.08,1.64,3.04.15,3.97-1.43.35-.12.7-.24,1.05-.36Z"/>
          <path class="cls-1" d="M519.39,206.4c-9.22-1.23-18.91,5.75-21.76,15.73-.64,2.23-.98,4.57-3.83,5.08.8-2.53,1.61-5.05,2.41-7.58,3.59-6.65,7.61-12.91,15.38-15.28,2.88-.88,5.85-1.09,7.81,2.05Z"/>
          <path class="cls-1" d="M514.31,257.3c-.93,1.57-1.88,3.07-3.97,1.43,1.32-.48,2.64-.95,3.97-1.43Z"/>
          <path class="cls-1" d="M461.2,273.73c-.27.23-.55.47-.82.7.1-.56.21-1.12.31-1.68.17.33.34.65.51.98Z"/>
          <path class="cls-1" d="M339.5,359.69c4.12.13,5.4,2.43,4.64,6.19-.2.97-.59,1.88.29,2.7-10.1,7.22-21.36,11.95-33.32,14.89-6.85,1.68-12.37-1.55-17.1-6.3-.19-3.27-1.98-7.09,2.97-8.59.98.01,1.95.03,2.93.04.2,1.19.65,2.46,1.91,2.58,5.76.56,11.35,2.26,17.31-.19,7.29-2.99,14.23-6.36,20.36-11.32Z"/>
          <path class="cls-1" d="M291.09,361.68c-2.66-.34-3.85.99-5.05,3.34-1.76,3.46-2.82,7.59-6.79,9.52,0,0-.34-.3-.34-.3,1.66-4.38,5.05-7.91,6.18-12.55.17-.25.23-.53.18-.83,1.83-.93,1.13-3.69,3.31-4.52.68,1.26,1.34,2.5,2.01,3.74.2.49.4.98.6,1.47l-.11.14Z"/>
          <path class="cls-1" d="M247.54,391.27c3.02-1.77,6.59-.03,9.65-1.53,0,0,.25-.08.25-.08,1.27-.2,2.65-.08,3.57-1.27,1.34.41,2.49.04,3.49-.89.57-.11,1.14-.22,1.72-.32l.21.22c-5.63,4.53-12.1,4.99-18.89,3.86Z"/>
          <path class="cls-1" d="M279.25,374.54c-1.39,5.35-4.18,9.44-9.87,10.89l-.16-.16c.05-.26.13-.52.24-.77l-.05.02c.36-.36.73-.71,1.09-1.07l.04.18c3.64-2.37,5.27-6.54,8.37-9.4l.34.3Z"/>
          <path class="cls-1" d="M299.92,368.62c-.98-.01-1.95-.03-2.93-.04-.57-1.64-2.89-1.98-2.95-4,0,0,.16-.12.16-.12.57.17,1.14.35,1.7.52l-.18-.25c.41.38.81.75,1.22,1.13l-.16-.08c.48.8,1.17,1.19,2.1,1.17l-.15-.25c.03.75.57.91,1.16,1.01.03.27.08.53.14.79,0,0-.11.12-.11.12Z"/>
          <path class="cls-1" d="M269.38,385.43c-.26,1.75-1.56,1.93-2.95,1.98,0,0-.21-.22-.21-.22.05-.25.14-.49.25-.71h0c.91-.41,1.83-.8,2.74-1.2l.16.16Z"/>
          <path class="cls-1" d="M294.03,364.59c-.33-.33-.66-.65-1-.98l.14-.11c.29.03.57.07.86.13h0c.08.28.13.56.15.84l-.16.12Z"/>
          <path class="cls-1" d="M293.03,363.6c-.34-.32-.67-.65-1.01-.97l.14-.11c.28.03.56.08.83.13l.04.04c.08.26.13.53.14.8l-.14.11Z"/>
          <path class="cls-1" d="M292.03,362.63c-.31-.32-.63-.64-.94-.95,0,0,.11-.14.11-.14.32.33.65.66.97.99l-.14.11Z"/>
          <path class="cls-1" d="M100.31,344.81c.85-1.79,1.7-3.59,2.56-5.39.89.53,1.77,1.07,2.65,1.61-.03.26.04.49.23.69-.17.38-.33.76-.5,1.13,0,0,.08-.05.08-.04-.56.14-1.24.14-1.09,1.03,0,0,.04-.21.04-.21-1.05-.29-1.74.08-2.05,1.13,0,0-.04-.17-.03-.17-.59.1-1.19.2-1.78.31,0,0-.1-.08-.1-.08Z"/>
          <path class="cls-1" d="M102.72,339.48c-3.64-.8-7.24-.11-10.85.32,3.55-2.31,7.15-3.08,10.85-.32Z"/>
          <path class="cls-1" d="M85.15,345.43c.36,1.42-.23,2.17-1.64,2.34.55-.78,1.1-1.56,1.64-2.34Z"/>
          <path class="cls-1" d="M83.54,347.74c-.05.84-.3,1.57-1.06,2.03.03-.84.3-1.57,1.06-2.03Z"/>
          <path class="cls-1" d="M86.22,344.4c-.07.67-.45,1.06-1.11,1.18.37-.39.74-.79,1.11-1.18Z"/>
          <path class="cls-1" d="M87.16,343.38c-.03.68-.39,1.06-1.07,1.16.35-.39.71-.77,1.07-1.16Z"/>
          <path class="cls-1" d="M88.2,342.41c-.08.68-.45,1.05-1.14,1.1.38-.37.76-.74,1.14-1.1Z"/>
          <path class="cls-1" d="M89.33,341.51c-.41.36-.82.71-1.23,1.07.41-.36.82-.71,1.23-1.07Z"/>
          <path class="cls-1" d="M90.44,340.68c-.42.35-.84.69-1.26,1.04.42-.34.84-.69,1.26-1.04Z"/>
          <path class="cls-1" d="M91.48,339.93c-.39.3-.79.59-1.19.89.39-.3.79-.6,1.19-.89Z"/>
          <path class="cls-1" d="M582.25,282.96c6.09,3.17,12.58,1.24,18.9,1.48-8.37,3.55-16.29,3.42-23.43-2.92,1.51.48,3.02.96,4.53,1.44Z"/>
          <path class="cls-1" d="M576.1,280.22c.51.41,1.01.81,1.52,1.22-.82-.01-1.47-.24-1.52-1.22Z"/>
          <path class="cls-1" d="M572.79,276.68c.41.51.81,1.03,1.22,1.54-.91-.11-1.2-.72-1.22-1.54Z"/>
          <path class="cls-1" d="M574.08,278.31c.28.3.57.6.85.9-.28-.3-.57-.6-.85-.9Z"/>
          <path class="cls-1" d="M575.03,279.32c.31.26.62.52.93.78-.58.07-.88-.21-.93-.78Z"/>
          <path class="cls-1" d="M339.5,359.69c-6.13,4.96-13.08,8.33-20.36,11.32-5.97,2.45-11.56.75-17.31.19-1.26-.12-1.71-1.39-1.91-2.58,0,0,.11-.12.11-.12,7.93,2.49,15.61,2.34,23.38-1.11,7.8-3.46,14.02-8.84,20.01-14.65l.12.11c-.39,2.84-2.64,4.59-4.04,6.83Z"/>
          <path class="cls-1" d="M347.95,346.52c1.09-1.76,2.17-3.52,3.25-5.28.23,2.57-.24,4.71-3.25,5.28Z"/>
          <path class="cls-1" d="M343.54,350.97c.56-.14,1.12-.28,1.69-.42.13,1.27-.48,2.01-1.68,2.31,0,0-.12-.11-.12-.11.04-.59.08-1.19.11-1.78Z"/>
          <path class="cls-1" d="M345.18,350.68c.09-.82.4-1.49,1.2-1.84-.08.83-.4,1.49-1.2,1.84Z"/>
          <path class="cls-1" d="M346.44,348.77c.3-.37.6-.73.9-1.1-.3.37-.6.73-.9,1.1Z"/>
          <path class="cls-1" d="M347.24,347.76c.28-.43.57-.86.85-1.29-.28.43-.57.86-.85,1.29Z"/>
          <path class="cls-1" d="M126.16,242.55c.37.46.74.92,1.11,1.37-.37-.46-.74-.92-1.11-1.37Z"/>
          <path class="cls-1" d="M99.08,347.63c-.54.44-1.08.87-1.62,1.31-.06-1.47.07-2.82,1.89-3.17,0,0,.08.1.08.1-.1.6-.2,1.2-.3,1.81,0,0-.05-.05-.05-.05Z"/>
          <path class="cls-1" d="M115.28,368.88c.95-.15,1.91-.31,2.87-.46-.78,1.23-1.76,1.26-2.87.46Z"/>
          <path class="cls-1" d="M99.35,345.77c.32-.32.64-.64.96-.96,0,0,.1.08.1.08-.33.33-.65.66-.98.99l-.08-.1Z"/>
          <path class="cls-1" d="M421.49,197.41c-.32.02-.65.03-.97.05.32-.02.65-.03.97-.05Z"/>
          <path class="cls-1" d="M419.59,165.73c.37.37.74.75,1.12,1.12-.37-.37-.74-.75-1.12-1.12Z"/>
          <path class="cls-1" d="M453.81,243.01c-.11-1.96-.22-3.92-.33-5.89,2.52,1.83,2.15,3.81.33,5.89Z"/>
          <path class="cls-1" d="M459.83,247.99c-.03.98-.05,1.97-.08,2.95-2.29-1.05-2.18-2.03.08-2.95Z"/>
          <path class="cls-1" d="M362.2,294.45c-.25-.56-.5-1.12-.72-1.69,0-.02.25-.14.39-.22.12.63.25,1.25.37,1.88,0,0-.04.03-.04.03Z"/>
          <path class="cls-1" d="M256.22,351.39c-2.01-6.36-.35-12.97-1.35-19.39.12-7.66.23-15.32.35-22.98.16-3.21.33-6.43.49-9.64,1.12-1.93,1.12-3.88.09-5.85,0-4.98.01-9.95.02-14.93.39-6.87.49-13.73-.36-20.58,1.65-4.62,1.11-8.71-2.9-11.95,3.1-.63,6.24-1,8.92,1.07,1.53,1.18,1.86.2,2.52-.77,1.38-2.03,2.79-4.05,5.32-4.83-4.12,6.22-1.01,10.53,3.82,14.37,1.8,4.07,1.2,8.39,1.27,12.62.29,18.18.46,36.37.68,54.55-.31,3.31-.61,6.63-.92,9.94-1.27-1.57-.85-3.45-.86-5.21-.03-11.81.02-23.63-.05-35.44,0-1.67.69-3.57-.83-5.08-2.35,2.88-2.64,4.67-1.67,9.9.76,4.1-5.07,15.07-8.48,14.59-7.47-1.05-5.65,4-5.73,7.64-.24,10.66-.24,21.32-.33,31.98Z"/>
          <path class="cls-1" d="M252.55,246.05c4.01,3.24,4.55,7.33,2.9,11.95-14.33,7.13-30,10.16-45.15,14.8-4.9-1.07-9.8-2.15-14.69-3.22-.57-1.92,1.1-3.18,1.41-4.84,5.5-5.56,13.16-6.33,19.95-9.02,11.86-3.22,23.72-6.45,35.58-9.67Z"/>
          <path class="cls-1" d="M272.35,218.18c1.73-1.1,3.4-1.48,4.91.37-1.69.65-3.3.1-4.91-.37Z"/>
          <path class="cls-1" d="M305.89,231.16c.33-.15.67-.3,1-.45.25.5.5,1,.75,1.5-.58-.35-1.17-.7-1.75-1.05Z"/>
          <path class="cls-1" d="M308.03,328.93c-.07-.94-.14-1.88-.2-2.83,1.39-5.5,5.19-9.03,9.81-11.84,1.35-.82,2.44-1.94,2.62-3.37.45-3.69,2.59-6.22,5.21-8.51.14,1.38.27,2.76.41,4.14-.15.18-.14.35.05.51.08,4.36.16,8.73.24,13.09-.3,3.41.16,6.9-1.13,10.2-2.58,6.56-7.31,7.73-12.58,3.05-1.21-1.08-2.3-2.29-3.45-3.44-.38-.34-.76-.68-1.13-1.02l.17.03Z"/>
          <path class="cls-1" d="M306,299.36c-.13-4.95-.25-9.89-.38-14.84.47-12.18.94-24.35,1.4-36.53.81.95.85,2.1.86,3.26.12,15.29.09,30.58-1.05,45.84-.06.77-.55,1.51-.84,2.26Z"/>
          <path class="cls-1" d="M239.77,114.86c-.3.12-.59.23-.89.35.08-.66.26-1.08.89-.35Z"/>
          <path class="cls-1" d="M693.23,248.12c.36-.37.71-.74,1.07-1.12-.36.37-.71.74-1.07,1.12Z"/>
          <path class="cls-1" d="M692.24,249.12c.36-.37.73-.75,1.09-1.12-.36.37-.73.75-1.09,1.12Z"/>
          <path class="cls-1" d="M691.23,250.04c.37-.35.74-.71,1.11-1.07-.37.35-.74.71-1.11,1.07Z"/>
          <path class="cls-1" d="M622.29,271.61c.24-.23.47-.46.71-.68-.24.23-.47.46-.71.68Z"/>
          <path class="cls-1" d="M614.39,277.65c.35-.23.7-.45,1.04-.67-.35.23-.69.45-1.04.67Z"/>
          <path class="cls-1" d="M609.22,255.85l-.15.26s-.3-.01-.3-.01c-8.5-.61-8.61-.94-9.53-9.31-.42-3.86-1.01-7.69-.85-11.59,1.76.02,3.16-.69,4.34-1.97,2.52-2.74,5.28-3.74,8.49-1.07,3.96,3.23,2.93-1.83,4.44-2.67,4.5,4.81,3.91,10.68,3.43,16.53.1.42.21.85.31,1.27,0,0,.07-.11.07-.1-.37.4-.74.8-1.1,1.2,0,0,.16-.16.16-.16-.35.4-.7.81-1.05,1.21,0,0,.13-.14.12-.14-.66.1-1.03.47-1.12,1.13,0,0,.12-.15.12-.15-.39.37-.78.74-1.17,1.11,0,0,.14-.17.14-.17-.41.36-.82.71-1.24,1.06,0,0,.16-.19.16-.19-.41.36-.83.73-1.24,1.09-.32.26-.64.52-.96.77-1.44-.04-2.82.04-3.08,1.9Z"/>
          <path class="cls-1" d="M619.42,247.29c-.1-.42-.21-.85-.31-1.27.41.03.83.06,1.24.09-.31.39-.62.79-.93,1.18Z"/>
          <path class="cls-1" d="M609.22,255.85c.26-1.87,1.64-1.95,3.08-1.9-.78,1.04-1.86,1.59-3.08,1.9Z"/>
          <path class="cls-1" d="M618.38,248.38c.37-.4.74-.8,1.1-1.2-.37.4-.74.8-1.1,1.2Z"/>
          <path class="cls-1" d="M617.48,249.43c.35-.4.7-.81,1.05-1.21-.35.4-.7.81-1.05,1.21Z"/>
          <path class="cls-1" d="M616.49,250.42c.09-.66.46-1.03,1.12-1.13-.37.38-.74.75-1.12,1.13Z"/>
          <path class="cls-1" d="M615.44,251.38c.39-.37.78-.74,1.17-1.11-.39.37-.78.74-1.17,1.11Z"/>
          <path class="cls-1" d="M614.34,252.28c.41-.35.82-.71,1.24-1.06-.41.35-.82.71-1.24,1.06Z"/>
          <path class="cls-1" d="M613.26,253.18c.41-.36.83-.72,1.24-1.09-.41.36-.83.73-1.24,1.09Z"/>
          <path class="cls-1" d="M718.33,305.43c-.48,1.61-.92,3.25-2.28,4.41.1-1.81-.77-4.13,2.28-4.41Z"/>
          <path class="cls-1" d="M719.18,302.51c0,.3-.07.58-.24.83-.05-.23-.13-.45-.14-.68,0-.04.25-.1.38-.15Z"/>
          <path class="cls-1" d="M227.74,375.49c.34.17.46.43.37.8-.19-.15-.4-.28-.56-.45-.03-.03.12-.23.19-.35Z"/>
          <path class="cls-1" d="M517.39,226.31c-.12-2.52.99-4.75,1.78-7.02,1.5-4.31,1.13-8.58.21-12.9,4.15,5.25,3.44,12.36-1.99,19.91Z"/>
          <path class="cls-1" d="M513.44,231.31c-.12-2.82,1.01-4.65,3.97-5.04-.96,1.96-2.08,3.8-3.97,5.04Z"/>
          <path class="cls-1" d="M510.84,233.63c-.15-.18-.3-.35-.45-.53.17.15.34.3.51.46,0,0-.06.07-.06.07Z"/>
          <path class="cls-1" d="M265.2,354.68c-1.94.55-3.47,2.34-5.74,1.91-1.18-1.67-3.28-2.77-3.25-5.21.09-10.66.09-21.32.33-31.98.08-3.64-1.74-8.69,5.73-7.64,3.4.48,9.24-10.49,8.48-14.59-.98-5.24-.69-7.03,1.67-9.9,1.52,1.51.82,3.4.83,5.08.07,11.81.02,23.63.05,35.44,0,1.77-.41,3.64.86,5.21,0,0,.37-.06.37-.06-.86,8.21-2.8,15.95-9.32,21.73Z"/>
          <path class="cls-1" d="M269.41,384.52c.36-.35.73-.71,1.09-1.07-.36.35-.73.71-1.09,1.07Z"/>
          <path class="cls-1" d="M295.71,364.73c.41.37.81.75,1.22,1.12-.41-.37-.81-.75-1.22-1.12Z"/>
          <path class="cls-1" d="M400.88,244.46c2.88-5.14,7.22-8.67,12.42-11.25,7.14-3.55,11.98-.69,12.47,7.14.66,10.47-5.75,17.14-12.56,23.45-4.71,4.37-10.4,7.46-16.02,10.57-3.29.05-3.56-2.1-3.45-4.62.32-7.64,2.55-14.78,5.62-21.71.53-1.18,1.02-2.38,1.53-3.58Z"/>
          <path class="cls-1" d="M307.86,328.9c.38.34.76.68,1.13,1.02-.38-.34-.76-.68-1.13-1.02Z"/>
          <path class="cls-1" d="M325.92,307.02c-.19-.15-.2-.32-.05-.51,0,0,.28.24.28.24l-.23.27Z"/>
          <path class="cls-1" d="M255.71,299.37c-.12-.6-.25-1.2-.37-1.8.15-1.35.31-2.7.46-4.05,1.03,1.97,1.03,3.92-.09,5.85Z"/>
        </g>
      </g>
    </g>
  </g>
</svg>