<?xml version="1.0" encoding="UTF-8"?>
<svg xmlns="http://www.w3.org/2000/svg" version="1.1" viewBox="0 0 841.9 595.3">
  <defs>
    <style>
      .cls-1 {
        fill: #fff;
      }
    </style>
  </defs>
  <!-- Generator: Adobe Illustrator 28.6.0, SVG Export Plug-In . SVG Version: 1.2.0 Build 709)  -->
  <g>
    <g id="Layer_1">
      <g id="Layer_1-2" data-name="Layer_1">
        <g>
          <path class="cls-1" d="M350,566.7c.4.2.9.3.8.9-.3-.3-.5-.6-.8-.9Z"/>
          <path class="cls-1" d="M351.6,569.5c.5.2.7.6.6,1.1-.2-.4-.4-.7-.6-1.1Z"/>
          <path class="cls-1" d="M225.5,21.2c-.2.4-.4.8-.6,1.1.2-.4.4-.8.6-1.1Z"/>
          <path class="cls-1" d="M568.8,97.5c0,.2,0,.5-.1.8,0-.2-.1-.4-.1-.6s.2-.1.2-.2Z"/>
          <path class="cls-1" d="M665.4,84.4v-.6c0,.2,0,.4.1.5h-.2,0Z"/>
          <path class="cls-1" d="M407.5,532.4c.1-.6.6-.8,1.1-.9-.4.3-.8.6-1.1.9Z"/>
          <path class="cls-1" d="M555.1,12.7c-.2.1-.4.2-.7.3.2-.2.4-.4.7-.3Z"/>
          <g>
            <path class="cls-1" d="M677.4,101.7c0,.7,0,1.3,0,2,0,.7,0,1.3,0,2,0,3.3.1,6.6.2,9.9,0,2.9-1.2,6,.8,8.8,2.1,1.4,4.1,0,6-.5,16-4.1,31.8-8.8,48.3-10.3.7.1,1.6,0,2,.8,1.6,5.6,3.9,11,2.9,17-.5,2.9-.9,5.8-1,8.8-.4,20.1-.7,40.3-1,60.4-6.4.5-9.4,4.4-10.1,13-2.9-3.2-2.4-7.3-3.2-11.1,0-13.2,0-26.4,0-39.6.4-4.5-.8-9.2-.2-13.5.9-6.5.6-13,1.2-19.5.2-2.2-.3-2.9-2.8-2.2-11.6,3.4-23.2,7.1-35,9.6-2.3.5-2.2,1.3-1.1,2.9-9.6,3.9-10.9,7.2-6,16.8,3.5,6.6,3.6,13.7,2.6,20.6-1,7.1-3.6,14.2-9,18.9-4.6,4.1-6.8,9-7.3,14.3-.7,7.8-.8,15.7.5,23.6-2.3-.7-2.6-2.6-2.7-4.6-.2-2.2-.5-4.5-.7-6.7,0-9.9,0-19.7,0-29.6,1-18.1.2-36.3.2-54.5,0-3.8,0-7.6,0-11.4,0-1.4,0-2.9,0-4.4,0-3.5,0-7,.1-10.5.7-11.6-.3-23.2,1-34.7,4.7-2.3,9.3-4.7,11.4-10,2.1,2.5,2.5,5.5,2.5,8.7,0,7,0,14,0,21,0,.6,0,1.3,0,1.9,0,.7,0,1.3,0,2h0Z"/>
            <path class="cls-1" d="M808.2,106.6c-1,35.2,0,70.5-.5,105.8-3-1-1.8-3.6-1.8-5.5,0-19.8,0-39.5,0-59.2,0-1.5.7-3.4-1.9-5.2v6c0,8.5,0,16.9-1,25.4-.2,1.4.6,4.3-2,3.3-2-.8-6.8,0-5.5-4.3,1.2-4.2-1.2-8,0-12.2.4-1.4.5-4.4-1.9-5.6-.5-3.1-.6-6.1,0-9.1,1-6.1,1-12.2,0-18.3-.6-5,.7-10.1-.3-15.1.9-2.2.4-3.3-2.1-2.4-10.9,3.6-21.8,7.1-32,10.5,3.7,13.6.5,27.1,1.9,40.4-.1,8.9-.2,17.8-.3,26.8-.9,2.6-1.6,5.2-2.8,7.7-2,4.3-2.6,9.4-7.1,12.3.5-1.6,1-3.1,1.5-4.7,1.7-5.8.1-10.1-4.5-12.4,0-1.5.2-3.1-1.4-4.1.1-.6.3-1.2.4-1.8,1.3-.3,1.9-1.1,2-2.4.4-15.9,0-31.8-1.4-47.6-.5-5.6-.9-11,1.5-16.4,1-2.3,2.8-4.9.9-7.8,5.5-4,11.8-6.2,18.1-8.5,2.4-.3,4.7-.9,6.8-2.3,1-.2,2.3.3,3-1,3.8-.4,7-2.3,10.5-3.5,10.4-1.2,17.2,2.6,20.5,11.4h0Z"/>
            <path class="cls-1" d="M639.8,69.2c0-3.3,2.4-3.7,5-4.1,4-.5,8.1-.4,11.9-2,1.2.4,2.2.2,3-.8,1-.1,2-.3,2.9-.4.7,0,1.3,0,2,.1.6,0,1.3.2,1.9.3,2,1.6,5.6,1.2,6.3,4.7-4.2,3.2-8,7.1-13.9,7.1-1.6,0-3.6.2-4.7,1.1-5.7,4.6-10.3,3.6-14.4-2.2v-2h0c.4-.3.9-.7,1.3-1-.5-.3-1-.6-1.4-.9h0s0,0,0,0Z"/>
            <path class="cls-1" d="M723,59.9c.2.4.4.8.6,1.2-.2-.4-.4-.8-.6-1.2Z"/>
            <path class="cls-1" d="M793.5,155.1c2.5,1.2,2.3,4.2,1.9,5.6-1.1,4.1,1.2,8,0,12.2-1.3,4.3,3.5,3.5,5.5,4.3,2.5,1,1.8-1.9,2-3.3.9-8.4,1-16.9,1-25.4v-6c2.6,1.7,1.9,3.6,1.9,5.2,0,19.8,0,39.5,0,59.2,0,1.9-1.1,4.5,1.8,5.5,0,1.3,0,2.6,0,4-.8.2-1.7.7-1.7,1.6,0,6.5,0,13,0,19.5,0,.9.8,1.4,1.6,1.6.1,2.6.2,5.3.3,7.9,0,1,0,2,0,3v2.9c-.4,2-.6,4-.1,5.9-.2,3-.4,5.9-.6,8.9-.1,1.3-.3,2.6-.4,4-1.2,4.2-2.3,8.5-3.5,12.7-2.3,5-3.2,10.6-6.1,15.3-.9-1-1.8-1.9-2.6-2.9-2.3-2.8-4.1-2.7-5.4.5-.2.6-.3,1.3-1.4,1.3-.5-1-1-2.2-1.5-3.3.2-.9.4-1.9.8-2.8,8.3-21.9,6.3-44.8,6.3-67.5,0-14.4,0-28.9,0-43.3,0-4.7.6-9.5-.4-14.2.5-2.5.4-4.9,0-7.4.6-1.4.5-2.9,0-4.3.2-.3.4-.5.7-.8h0Z"/>
            <path class="cls-1" d="M807.6,239.1c-.8-.3-1.6-.7-1.6-1.6,0-6.5,0-13,0-19.5,0-.9.9-1.3,1.7-1.6,0,7.6,0,15.1-.1,22.7h0Z"/>
            <path class="cls-1" d="M363.4,413c-3.8,1-5.8,4.6-9,6.5-23.8,14.9-44.8,33.3-65.4,52.3-13.8,12.7-26.6,26.4-40.1,39.4-11.2,10.8-22.8,21.3-36.2,29.3-24.7,14.7-50.9,18.8-78.8,10.9-13.6-5.2-25.7-12.5-34-25-7.9-12-12.1-24.9-9.4-39.3,2.1-11.3,8.6-20.1,16.8-27.7,1.2-1.1,2.8-1.8,3.6-3.7-26.5-6.4-48.1-20.1-64-42.4.3-2.4-.5-4.4-1.7-6.5-1.4-2.5-3.9-5.6-3.4-7.9,1.2-5.3-.6-9.3-3-13.5-.8-1.3-.8-3.1,1.2-2.6,6,1.4,3.3-2.2,2.8-4.6-.3-1.3-.5-2.6-.8-3.8-1.1-4.9-1-10.2-3.1-16-.6,1.7-.8,2.5-1,3.2-.6,2-1.8,3.9-4.1,3.6-2.6-.3-1.5-2.8-1.7-4.4-.6-4.5,2.2-8.4,2.8-12.7.2-1.2-.5-3.6,1.6-3.5,1.8,0,2.3,2,2.6,3.7.5,2.8-.3,6,3.2,7.6.5,3.3-.4,6.7.7,9.9,0,5.6.4,11.1,3,16.3,1.2,9,5.5,16.7,10.4,24,8,12,18.7,21,31.5,27.5,9.6,4.9,19.7,8.6,30.5,10.4,9.2,1.5,18.3.6,27.5.9-1.4,2.3-3.6,1.8-5.7,1.8-6.1,0-12.2,0-18.3,0,0,.5,0,1,0,1.5,6.9,0,13.4,2,19.9,3.6,2,.5,4.4.8,4.2,3.8-2.5,1.4-5.5.5-8.4,2.1,4.6-.2,7.2,2.9,10.2,5.1.6.6,1.2,1.2,1.8,1.8.6.8,1.2,1.5,1.8,2.3h0c.8,2.2,1.7,4.4,2.3,6.7,2.6,10.2-2.9,18.2-14,15.6-1.8-.4-3.6-1.5-5.6-.4.7,2.9,2.4,4.6,4.9,5.4,4,1.2,8.2,1.2,12.2.4,13.9-2.9,26-9.8,37.3-18.2,7.8-5.2,14.9-11.2,20.9-18.5h0c1.1,0,2-.2,2.4-1.3l.3-.2c2.7-2.2,5.4-4.4,8.1-6.5,7.3-4.9,14.1-10.5,20.6-16.5,1.1-.5,2.2-1.1,2.7-2.2.2-.1.3-.3.2-.6,3-2,6.1-4.1,9.1-6.2,1.9-1.1,4.1-2,5-4.2.6-.6,1.3-1.1,1.9-1.7,2.6-.6,4.6-2.4,6.6-3.9,14.8-10.8,30.8-19.3,47.3-26.9,11.3-5.3,22.9-10.1,34.2-15.4,10.2-4.9,20.3-10,31.2-13.3,6-1.8,12-3.7,18.5-5.4-9.9-2.6-19-5.7-25.9-13.1,1.7-1,2.2-2.7,2.7-4.4,1-3.5,2.9-5.7,6.9-4h0c.2.4.4.6.9.2,4.3,2.4,8.5,5.4,13.7,5.5,4.7,2.9,10.4,3.3,15.1,2.9,21.6-2,38.2-12.2,48-32.2,2.1-4.3,5-8.2,6.3-12.9.9-1.4,1.7-2.8,2.5-4.2,4.5,9.2,11.9,14.8,21.7,17.4v-.3c2.1,1.7,4.5,1.9,6.9,2,13,2.6,25.1.7,36-7.1.4-.2.7-.5,1.1-.7v.2c.5-.4,1.2-.9,1.8-1.3h-.1c.6-.3,1.2-.6,1.8-1h.2c.4-.4.7-.7,1.1-1,.3-.2.6-.4,1-.7.4-.5.7-.9,1.1-1.4h-.2c0,.1.1.3.1.3.6-.4,1.3-.9,1.9-1.3h0s1.1-1,1.1-1v.2c1-.3,1.7-1,2.1-2h-.2c.4-.3.8-.7,1.2-1.1l-.2.2c.4-.4.7-.8,1.1-1.2h0c.6-.6,1.2-1.3,1.9-2,.3-.3.7-.6,1-1,2-.6,1.5-3,3-4,.3-.4.5-.9.8-1.3.3-.5.7-1.1,1-1.6.4.5,1.3,1.2,1.2,1.5-2.3,5.5-.6,12-4.2,17.3-1.1,1.6-1.7,3.7.8,5,0,.2.1.4.2.6-12,10.3-25.5,17.1-41.4,18.6-4.3.2-8.5.5-12.8.7-8.8-1.4-17.4-3.6-25-8.4-.9-.6-2.1-1.6-2.9,0-2.9,6.2-8.1,10.3-12.9,14.6-.7.6-1.3,1.2-.8,2,.5.7,1.4.4,2.2.1,8.9-3,18.1-4.5,27.4-5.7.7.5,1.4.4,2-.1,4,.1,8,.3,11.9-.7,3.6.8,7.2.8,10.8-.1,12.4.9,24.7,2.6,36.6,6.9.5.7,1.2,1,2,.9,1,.6,1.8,1.4,2.9,1.9,18.4,9.5,24.9,40.1,8.8,56.9-6.1,6.4-13.6,8.5-21.5,10.4-5.1.6-10-.6-14.8-2.1-6-3.9-6.1-3.9-7.6,2.6-5.6,24.6-28.2,35.1-51.6,31.5-15.1-2.3-26.3-10-29.8-26.1-.8-3.6.5-6.5,1.6-9.6.5-1.5,1.9-2.7,1.8-4.5-1.4-1-2.9-.6-4.2-.3-17.5,4.7-35.6,5.5-53.1,9.6-2.2.5-5.1,0-6.3,2.9-1.3,1.5-1,3.9-3,5h-5.9c-1.2,0-2.5,0-3.7,0h0ZM251.5,439.5c-.7.1-1.1.4-1.2,1.1l.2-.2c-.9,0-1.6.4-2,1.3h0c-3.3,1.8-6.4,4.1-9.1,6.8h.2c-.8,0-1.7,0-2,1-14.9,11.3-28.4,24.4-43.2,35.9-11.7,9.1-23.5,18.1-38.7,20.9-10.3,1.9-20.1.8-28.6-5.7-5.4-4.1-7.1-10.6-4.6-15.7,2.9-5.8,7.2-7.4,14.6-5.3,1.5.4,3.2,1.8,4.6.3,1.4-1.5.4-3.5,0-5.2-.4-2-1.8-3.5-3.4-4.7-6.9-5.4-17.5-4.6-24.6.6-12.2,9.1-14.7,23.8-10.2,37.8,6.5,20,28.3,35.1,50,34.9.9.5,1.8.6,2.8.3,1.1,0,2.1.1,3.1.2,1.5,1.1,3.2.7,4.8.6,13.4-.9,26.2-4.1,38.2-10.3,12.9-6.6,23.7-15.8,33.8-26.1,4.9-5,10.4-9.5,14.2-15.5,1.4-1.4,2.9-2.8,4.3-4.1.2-.2.5-.5.7-.7,8.4-8.1,16.8-16.2,25.3-24.2,7.3-6.9,14.3-14.2,22.8-19.8,3.4,0,5.3-1.8,6-5,.4-.3.7-.6,1.1-.9,2.5.2,4.5-1.3,6-2.8,4.4-4.2,9.6-7.2,14.5-10.6,3.4-2.3,7.9-3.3,9.8-7.6h0c1.6.3,2.7-.3,3-2h0c4.4-1.1,8-3.4,11.1-6.6h0c1.7,0,3.2-.2,3.9-2h0c7.6-1.4,14.7-4.6,21.5-8,19.5-9.6,40.8-10.2,61.6-12.6,8.8-1,17.9-1.4,26.6,1.7h0c.5.7,1.1,1,2,1h0c.6.4,1.2.7,1.7,1h.2c.6,2.7,2.2,4.3,4.7,4.9v.2c.7,3-.6,5.7-.8,8.6h0c-.6.4-1.3.8-1.9,1.1h0c-.8,0-1.6,0-2.4.2-3.7.7-7.6,2.5-6.8-4.5.3-2.7-2.4-5.4-5.4-6.3-2.9-.9-5.6-.5-7.1,2.7h0c-2-.2-3.1.7-3,2.8-.3.4-.7.8-1,1.2-.3.3-.6.7-.9,1h0c-.3.5-.7,1-1,1.5v.4c-3,3.6-1.6,9,3.1,11.8h0c.2,3,2,4.1,4.8,4h0c.2,1.9,1,3.1,2.9,4.1,12.5,6.5,24.8,5,37.1-.1,2.6-1.1,4.5-2.7,4.3-5.8.3-.4.7-.8,1-1.1,1.4-.1,2-.8,1.7-2.2v.2c1.1-.5,1.2-1.4,1.2-2.3v-.3c0,0,.2-.2.2-.2,2.6-1.9,2.7-4.8,2.9-7.6,1.6-1.5.4-3.5,1.1-5.2,3.5-4.1,2.2-12.2-2.5-14.7-.2-.3-.5-.6-.7-.9-.3-.4-.5-.8-.8-1.2-6.7-10.3-17.2-14.2-28.4-16.7-10.5-2.4-21.2-.2-31.8-1.7-1.3-3.2,1.9-2.5,3-3,21.9-9.4,43.9-3.6,65.9-.1,6.9,2.9,13.8,5.8,20.7,8.7h0c-.1,2.1.4,3.7,2.7,4,.8.5,1.1,1.2,1,2.1-1,1.2-.7,2.6-.7,3.9h0s-1.1,1.6-1.1,1.6v.3c0,0-.3,0-.3,0-.6.4-1.1.7-1.7,1.1-2.2,1.8-3.9.6-5.6-.8-1.8-1.5-3.2-3.3-4.2-5.4-2.2-4.7-5.7-1.9-8.4-1.1-3.2,1-.4,3.3,0,4.7.7,2.9,2.3,5.6,3.5,8.3,0,1.2.5,2,1.8,2.1h.1c.2,1.4.9,1.9,2.1,1.9h0c1.9,4.2,6.2,4.9,9.7,4.9,12.1,0,22.7-3.9,28-15.9,2.2-5,3.8-10.7-.6-15.8l.2-.2c0-1.1-.2-2-1.1-2.7l.2-.2c-.3-.5-.7-1-1-1.6-6.4-11.3-16.5-16.6-29-19.1-16-3.2-31.8-1.6-47.6.9-19.3,3.1-37.8,9.6-56.3,15.6-10.4,3.4-21,6-31.4,9.2-21.4,6.8-41.5,16.6-61.9,26.1-.7-.1-1,.1-1.1.8h0c-8.3,4.3-17.8,6.4-25.3,12.5-5.3,2.7-10.6,5.5-16,8.2-2.6.7-5,1.7-7.1,3.4-5.8,2.8-10.6,7-15.9,10.5-4.9,3.2-10,6.1-13.8,10.8-.4.4-.7.7-1.1,1.1v-.2c.1,0,0,0,0,0Z"/>
            <path class="cls-1" d="M96.4,291.6c.9-.3,2.5-.4,2.6-.8.4-1.6-1.2-2.1-2.2-2.9-12-8.6-20-20.4-27.2-33.1.3-.4.8-.8.8-1.2-.2-5,4.5-2.7,6.7-4.2,1.3-1,1.7,2.2,2.7,3.3,2.5,2.8,3.1,7.4,7.8,8,.3,0,.5.1.8.2h0c0,.5.2,1.1.2,1.7.3,3.5,2.1,5.7,5.7,6.1h0c.1.9.5,1.5,1.4,1.6h0c.4.2.7.6,1.1.9v.4c0,0,0-.4,0-.4-.5,3,1.4,3.3,3.6,3.3h0c.4.3.7.6,1.1,1,.3.3.6.6.9.9.4.4.7.7,1.1,1.1h0c.4,4.1,3.2,5.6,6.9,6,.3.3.6.6.9.9.4.4.8.7,1.2,1.1,7.1,4.9,13.8,10.4,21.1,15,10.4,6.5,20.1,14,28.1,23.5,0,.4,0,.8,0,1.1-5.2-4.6-9.7-2.6-13.9,1.6-1-.6-2.3-2.9-2.7.5-.3,3.1.9,5.9,1.4,8.8.8,4.6,1.7,9.3-.5,13.8-.4-9.1-3.1-17.3-9.3-24.2-.8-.9-1.6-2.6-3-1.7-1.2.8-.8,2.4-.2,3.6,5.1,9.9,3.7,19.8-.8,29.2-2.8,6-6.2,12.2-14.6,11.6,6.1-3.3,11.3-7.4,13.1-14.6,5-8.7,3.6-24.1-3-32.5-.4-.4-.7-.8-1.1-1.2h.2c-.5-.6-.9-1.3-1.4-1.9-.1-.9-.8-1-1.5-1-1.4-2.5-3.5-4.2-5.8-5.7-7.1-4.4-14.8-6.6-23.1-7.3-1-2.5-2-2.4-3,0l-4.8.7c1.7-2.6,1.4-4-2.1-3.6.1-3.2,1.3-5.2,4.8-6.3,2-.6,4.9-.7,6.1-3.4h0Z"/>
            <path class="cls-1" d="M87.6,260.8c-4.7-.6-5.3-5.2-7.8-8-1-1.1-1.4-4.2-2.7-3.3-2.1,1.5-6.9-.8-6.7,4.2,0,.4-.5.8-.8,1.2-10.8-19-13.8-39.5-11.4-60.9,2-17.7,9.7-32.9,20.4-46.8,1.2-1.3,2.4-2.7,3.6-4,.2,0,.3-.2.3-.4,2.6-2.6,4.9-5.6,8-7.6,0,1,.3,2.8.9,2.6,4.4-1.6,7.1,2.6,10.8,2.9-.5.5-.9,1-1.4,1.4-17.8,13.7-28.3,32.1-30.7,54.1-2.6,23.5,3.7,45.4,17.6,64.8h0Z"/>
            <path class="cls-1" d="M96.4,291.6c-1.1,2.7-4,2.8-6.1,3.4-3.5,1.1-4.7,3.1-4.8,6.3h0c-2.9,1.1-5.9,2.2-6.9,5.7-15.1,5.1-25.3,15.6-31.8,29.9-2.3,1-3.5,2.5-1.8,4.9,0,.7,0,1.3,0,2-.3.3-.6.6-.9,1-.8.8-1,1.7-.7,2.7-.2.7-.3,1.5-.5,2.2,0,.1-.3.2-.3.3,0,.2.2.5.2.7.2,1.7.2,3.4-.6,5-3.4-1.5-2.7-4.8-3.2-7.6-.3-1.7-.8-3.6-2.6-3.7-2.2,0-1.4,2.3-1.6,3.5-.5,4.3-3.4,8.2-2.8,12.7.2,1.6-1,4.1,1.7,4.4,2.2.3,3.4-1.6,4.1-3.6.2-.8.5-1.5,1-3.2,2.1,5.8,2,11,3.1,16,.3,1.3.5,2.6.8,3.8.5,2.4,3.1,5.9-2.8,4.6-2-.5-1.9,1.3-1.2,2.6,2.4,4.2,4.2,8.2,3,13.5-.5,2.3,2,5.4,3.4,7.9,1.2,2.1,2,4.1,1.7,6.5-5.8-7.4-9.9-15.8-12.7-24.7-9.9-31.3-3.8-58.8,20.1-81.8,8.1-7.8,18.1-11.4,28.8-13.6,4.4-.9,8.8-2.5,13.4-1.6h0ZM40.9,331.9c.8,0,1.6-.1,1.8-1.1.1-1-.5-1.4-1.4-1.5-.8,0-1.6.1-1.8,1.1-.2,1,.5,1.4,1.4,1.5h0Z"/>
            <path class="cls-1" d="M769.3,344.7c-1.6,1.1-3.2,2.2-4.8,3.3-1-2.6-6.8-5.9-9.5-5-1.4.5-2.1.6-2.5-.9,8.6-5.6,14.5-13.7,20.4-21.8,5.6-7.7,8.6-16.7,13.3-24.8.5,1.1,1.1,2.2,1.5,3.3,1.1,0,1.1-.8,1.4-1.3,1.3-3.2,3.1-3.4,5.4-.5.8,1,1.7,1.9,2.6,2.9-1.7,5.2-3,10.5-6.7,14.8-.4-.6-.4-1.5-1.4-1.6,0,0-.3.2-.3.3,0,1,1,1,1.6,1.4-3.8,9.7-9.7,18-17,25.4-1.5,1.5-2.8,3.2-4.1,4.8h0Z"/>
            <path class="cls-1" d="M680.4,231.3c-.4.8-1.1.9-1.9,1-.9,0-1.6.3-2,1.1,0,0,0-.1,0-.1-.4.3-.8.6-1.2.8-.3.1-.6.1-.9.1-3.1,0-6.2.1-9.2.1h0c-1.3-7.8-1.2-15.7-.5-23.5.5-5.3,2.7-10.2,7.3-14.3,5.3-4.8,8-11.8,9-18.9,1-7,.8-14-2.6-20.6-5-9.6-3.7-12.8,6-16.8,1.7,1.7,4,2.7,5.2,4.9-1.3.9-1.1,2.1-1,3.5.4,4.2.5,8.4.8,12.6.2,3.6-.9,7.2-.9,10.7-.2,15.9,0,31.8,0,47.7h0c-.9.3-1.1,1.2-1.1,2.1,0,.2,0,.5-.1.7-.3.4-.6.8-.9,1.2h0c-1.5.5-2.3,1.5-1.5,3.2l-.2.2c-2.4-.6-2.3,1-2.3,2.6-.3.3-.6.6-.9.9-.4.3-.8.6-1.2,1h0ZM679.5,206.1c0-2.1,0-3.4-.3-4.7,0-.5-.7-1.2-1.1-1.3-1-.3-1.5.6-1.6,1.4-.4,3.2-.8,6.4-1,9.7,0,1,0,2.2,1.3,2.4,1.3.2,1.5-1,1.7-2,.4-2.1,1.3-4.1,1.1-5.4h0Z"/>
            <path class="cls-1" d="M747.5,190.6c4.7,2.3,6.3,6.6,4.5,12.4-.5,1.6-1,3.1-1.5,4.7-.8,1.7-2.2,2.9-3.8,3.8-2.5-.3-3.3,1.1-3.3,3.3-2,1.7-4.2,2.8-6.9,2.4-3.9-.7-7.5-2.2-11.1-3.7h0c.7-8.6,3.7-12.4,10.1-12.9.7.3,1.4.6,2.1.9,4.2-2.4,7.5-5.6,7.8-10.8h2,0Z"/>
            <path class="cls-1" d="M663.4,78.1c-5.7,0-10.6,2.4-15.6,4.6-2.5,1.1-5.1,2.2-8,2.3-2.5-1.1-4.5-2.2-4-5.6.3-2.9.4-5.6,4-6.2,4,5.7,8.7,6.8,14.4,2.2,1.1-.9,3.1-1.1,4.7-1.1,5.8,0,9.7-3.9,13.9-7.1,1.1-.3,1.7,0,2,1.1-2.1,5.2-6.7,7.7-11.4,10h0Z"/>
            <path class="cls-1" d="M734.8,114.4c2.3.9,3.2,3.1,4.3,5.1.2,3.1.7,6.2.4,9.3-1.5,18.3-1.2,36.7-2.2,55.1-.3,5.9-1.3,11.8.5,17.6-.7-.3-1.4-.6-2.1-.9.3-20.1.6-40.3,1-60.4,0-2.9.5-5.9,1-8.8,1-6-1.4-11.5-2.9-17.1h0Z"/>
            <path class="cls-1" d="M730.5,112.2c.7.5,2,.1,2.2,1.4-16.5,1.5-32.4,6.2-48.3,10.3-1.9.5-3.9,1.9-6,.5.3-.3.7-.6,1-.9,2.1-.4,4.3-.3,6-1.9,9.1-2.1,18.2-4,27.3-6.3,5.9-1.5,11.8-2.7,17.9-3h0Z"/>
            <path class="cls-1" d="M746.5,184.7c.3-19.2-.2-38.3-2-57.4-.2-2.3-.6-4.5-.8-6.8.6-4.1,1.6-7.9,5.7-10,2,2.8.2,5.4-.9,7.8-2.3,5.4-2,10.7-1.5,16.4,1.4,15.8,1.8,31.7,1.4,47.6,0,1.3-.7,2.1-2,2.4h0Z"/>
            <path class="cls-1" d="M793.4,145.9c-.2-2.2-.5-4.4-.7-6.5.5-1.4.5-2.8,0-4.2.2-2.5.4-5.1.6-7.6,1,6.1,1,12.2,0,18.3h0Z"/>
            <path class="cls-1" d="M745.6,190.6c0-1.4-.4-2.8.5-4.1,1.6,1,1.4,2.6,1.4,4.1h-2Z"/>
            <path class="cls-1" d="M616.7,97.7c-.7-3.7-.6-7.5,0-11.2.9-5.7,4-9.6,9.6-11.3,4.5-1.4,9.1-2.7,13.6-4.1v2c-3.6.6-3.7,3.3-4,6.2-.4,3.4,1.6,4.6,4,5.6-1.9,1.1-3.9,1.5-6,1.8-3.3-.9-6.9-.9-7.8-5.7-.3-1.6-2.9-2.5-4.6,0-1,1.5-1.8,2.9-2.4,4.6-1.6,3.9.7,8.5-2.2,12.1h0Z"/>
            <path class="cls-1" d="M639.9,71.1c0-.6,0-1.3-.1-1.9.5.3,1,.6,1.4.9-.4.3-.9.7-1.3,1Z"/>
            <path class="cls-1" d="M367.1,413.1h3c-.2.9-.5,1.8-1.7,1.7-.9-.1-1.1-.9-1.3-1.7h0Z"/>
            <path class="cls-1" d="M145.8,444.8c6.9-2.4,14-4.3,20.7-7.4,14.3-6.6,26.2-15.9,35.2-28.9.6-.9,1.6-1.6,2.4-2.4,2.2,2.5-2.8,4-.8,6.7,2.8-2,5.3-4.7,8.4-5.7,5.2-1.7,5.9-5.6,6.3-9.9.1-1.3,0-2.6,0-4,.4-3.4,2-6.3,4.6-8.4,2.2-1.7,5.5-6,5.6-8.6,4,8.1,10.9,12.5,19.3,15,6.8,1.1,13.2.7,18.9-3.9,1.4,0,2.7-.2,3-2,5.7-1.5,8.5-5.5,9.9-10.9,4-1.9,5-6.1,6.8-9.5,1.2-2.4,2.4-3.7,5-3.3.3.3.6.6.9,1,.3.3.7.6,1,1,.3.3.7.6,1,1,0,2,2.4,2.4,3,4-4.9,1.5-3.2,5.3-3,8.6-1.7,0-1.9,1.6-2.5,2.7-6.5,11.3-15.6,19.2-28.3,22.5-1,.3-2.3.3-2.8,1.6-5.5,0-11,.5-16.5-.4-6.4-1.9-11.7-5.6-16.6-10-2.1-1.9-3.1-1.8-4,1-1,3.2-2.4,6.3-3.6,9.5l-2.2,3.9c-.6.9-1.1,1.8-1.6,2.7-1.1,1.5-2.3,3.1-3.4,4.7h0c-9.3,11.9-20.3,22-33.1,30.1-1.4.6-2.7,1.1-4.1,1.7-9.5,4.1-19,7.8-29.5,8.4.2-3-2.2-3.3-4.2-3.8-6.5-1.6-13-3.6-19.9-3.6,0-.5,0-1,0-1.5,6.1,0,12.2,0,18.3,0,2.1,0,4.4.5,5.7-1.8h0Z"/>
            <path class="cls-1" d="M581.5,299.5c-5.2-2.1-10-4.8-14.5-8.2-1-.8-2.4-2-3,0-1.9,6.2-7.3,9.5-11.4,13.9-2.5-1.3-2-3.3-.8-5,3.7-5.2,2-11.7,4.2-17.3.1-.3-.8-1-1.2-1.5,3-6.5,7.6-12.1,9.9-19,.3-.3.5-.6.8-.9,2.1,5.1,3.8,10.5,7.3,14.9,0,.8.3,1.4,1.2,1.5h0c.3.4.6.7.8,1h0c0,.7.3,1,.9.9h.1c0,1.1.7,1.3,1.5,1.4h.1c7.1,6.4,15,6.5,23.4,3,1.2-1.9,3.2-2.1,5.1-2.4,1,2.1,2.7,3.4,4.4,5,2.1,1.9,5.9,1.5,6.8,5-11.3,5.7-23,9.4-35.9,7.4h0Z"/>
            <path class="cls-1" d="M365.4,306.2c2,8.6,6.7,15.7,12.7,22.1,1.1,1.2,2.8,1.8,3.1,3.6-4-1.7-5.8.5-6.9,4-.5,1.7-1,3.4-2.7,4.4-1.4-1.1-2.7-2.2-4.3-3.6-4.3,13.2-10.7,24.6-22.8,32-.9-.8-.5-1.7-.3-2.7.8-3.8-.5-6.1-4.6-6.2,1.4-2.2,3.6-4,4-6.8,1.2-.3,1.8-1,1.7-2.3h0c.8-.2,1.1-.9,1.2-1.7h0c.3-.4.6-.8.9-1.2h-.1c0,0,.9-1.2.9-1.2h-.1c3-.5,3.5-2.7,3.2-5.2,3.2-10.5,6.1-20.9,6.4-32,1.7-3.3,0-7.1,1.4-10.5.3,5.7.2,11.4.3,17.1,0,1.3-.2,3.7,2.1,2.3,2.1-1.3,4.5-3,3.1-6.3-2.2-5.6-2.6-11.4-2.4-17.4h0c.3,0,.5,0,.8,0,.8,3.1.3,6.5,2.1,9.5h-.2c0,0,0,.3,0,.3.1.7.3,1.3.4,2h0Z"/>
            <path class="cls-1" d="M359.2,406.1c7.9-4.3,16.1-7.7,24.4-11.2,17.3-7.3,35.6-9.3,54.2-10.5,8-.5,16-1.7,24,0,2.5.6,5.2.9,7.2,2.8-8.7-3.1-17.8-2.7-26.6-1.7-20.9,2.4-42.1,3-61.6,12.6-6.8,3.4-13.9,6.5-21.5,7.9h0Z"/>
            <path class="cls-1" d="M522.4,391.1c1.1.2,2.2.4,3.3.7,20.6,6.8,35.9-5.6,33.8-27.4,4.4,5.1,2.8,10.8.6,15.8-5.3,12-15.9,15.8-28,15.9-3.5,0-7.8-.7-9.7-5h0Z"/>
            <path class="cls-1" d="M455.1,419c10.6,6.8,21.7,8.6,33.8,4.1,3.9-1.5,7.4-3.4,10.6-6.1.2,3.1-1.7,4.8-4.3,5.9-12.4,5.1-24.7,6.6-37.1.1-1.9-1-2.7-2.2-2.9-4h0Z"/>
            <path class="cls-1" d="M474.9,404.2c-7.2,5-13.2,3.1-14.9-4.9-1-4.8-3.7-4.1-6.9-3,1.5-3.1,4.2-3.6,7.1-2.7,3,1,5.7,3.6,5.4,6.3-.8,7,3.1,5.2,6.8,4.5.8-.1,1.6-.2,2.4-.2h0Z"/>
            <path class="cls-1" d="M310.9,437.8c5.7-5.7,12.1-10.4,18.9-14.5,3.7-2.3,7.6-4.3,11.5-6.5-1.9,4.3-6.4,5.2-9.8,7.6-5,3.4-10.2,6.4-14.5,10.6-1.6,1.5-3.5,3.1-6,2.8h0Z"/>
            <path class="cls-1" d="M512.4,359.8c8.3-.5,15.6,1.4,20.7,8.7-6.9-2.9-13.8-5.8-20.7-8.7Z"/>
            <path class="cls-1" d="M506.5,388.3c-.5-1.6-.9-3.2-1.4-4.8,4.6,2.5,6,10.6,2.5,14.7-.1-2.6-.3-5.2-.4-7.8.2-.9.2-1.6-.7-2.1h0Z"/>
            <path class="cls-1" d="M447.2,403.1c-1.1,4.5,1.8,7.9,3,11.8-4.6-2.9-6-8.2-3-11.8Z"/>
            <path class="cls-1" d="M344.1,414.7c3.1-3.2,7-5.1,11.1-6.6-3.1,3.2-6.8,5.5-11.1,6.6Z"/>
            <path class="cls-1" d="M477.8,394.5c2.4,3.2,2.3,6-.9,8.6.1-2.9,1.4-5.7.9-8.6Z"/>
            <path class="cls-1" d="M303.8,443.6c1.8-1.9,3.2-4.3,6-5-.7,3.2-2.6,5-6,5Z"/>
            <path class="cls-1" d="M505.5,403.1c.3.1.6.2.9.4-.2,2.8-.3,5.7-2.9,7.6.1-2.8,2.3-5.1,2-8h0Z"/>
            <path class="cls-1" d="M472.9,389.5c2.2,1,3.9,2.5,4.7,4.8-2.5-.7-4.1-2.2-4.7-4.8Z"/>
            <path class="cls-1" d="M450.3,414.9c2.3.6,3.5,2.4,4.8,4-2.8.1-4.6-1-4.8-4Z"/>
            <path class="cls-1" d="M533.2,368.6c1.5.9,2.4,2.2,2.7,3.9-2.3-.3-2.8-1.9-2.7-3.9Z"/>
            <path class="cls-1" d="M536.9,374.6c1.4,1.6,1.2,2.9-.7,3.9,0-1.4-.3-2.8.7-3.9Z"/>
            <path class="cls-1" d="M453.1,396.3c-1,.9-2,1.8-3,2.8,0-2.1,1-2.9,3-2.8Z"/>
            <path class="cls-1" d="M355.3,408.1c1-1.2,2.4-1.8,3.9-2-.8,1.8-2.2,2.1-3.9,2Z"/>
            <path class="cls-1" d="M341.2,416.7c.6-1.2,1.6-1.9,3-2-.3,1.7-1.4,2.3-3,2Z"/>
            <path class="cls-1" d="M500.5,415.9c.3-1,.7-1.8,1.7-2.2.3,1.4-.3,2.1-1.7,2.2Z"/>
            <path class="cls-1" d="M520.3,389.4c.9.3,1.8.7,2.1,1.7-1.2,0-1.9-.5-2.1-1.7Z"/>
            <path class="cls-1" d="M518.4,387.2c.6.7,1.2,1.4,1.8,2.1-1.3-.2-1.8-1-1.8-2.1Z"/>
            <path class="cls-1" d="M559.7,364.2c-1-.6-1.1-1.7-1.1-2.7.9.7,1.2,1.6,1.1,2.7Z"/>
            <path class="cls-1" d="M536.2,378.5c0,.8-.2,1.4-1.1,1.6.4-.5.7-1.1,1.1-1.6Z"/>
            <path class="cls-1" d="M534.8,380.4c-.2.9-.9,1.1-1.7,1.1.6-.4,1.1-.7,1.7-1.1Z"/>
            <path class="cls-1" d="M469,387.2c.9,0,1.6.2,2,1-.8,0-1.5-.3-2-1Z"/>
            <path class="cls-1" d="M470.9,388.3c.8,0,1.5.2,1.7,1-.6-.4-1.2-.7-1.7-1Z"/>
            <path class="cls-1" d="M476.8,403.2c-.4.8-1,1.1-1.9,1,.6-.4,1.3-.7,1.9-1Z"/>
            <path class="cls-1" d="M502.2,413.9c-.1-1.1.4-1.8,1.2-2.3,0,1-.2,1.9-1.2,2.3Z"/>
            <path class="cls-1" d="M448.2,401.2c-.3.5-.7,1-1,1.5.3-.5.7-1,1-1.5Z"/>
            <path class="cls-1" d="M449.1,400.2c-.3.3-.6.7-.9,1,.3-.3.6-.7.9-1Z"/>
            <path class="cls-1" d="M504.4,382.6c-.3-.4-.5-.8-.8-1.2.3.4.5.8.8,1.2Z"/>
            <path class="cls-1" d="M252.4,438.6c-.4.4-.7.7-1.1,1.1.4-.4.7-.7,1.1-1.1Z"/>
            <path class="cls-1" d="M558.8,361.3c-.7-.3-1-.9-1-1.6.3.5.7,1,1,1.6Z"/>
            <path class="cls-1" d="M255,488.4c.2-.2.5-.5.7-.7-.2.2-.5.5-.7.7Z"/>
            <path class="cls-1" d="M553,284.6c.3-.4.5-.9.8-1.3-.3.4-.5.9-.8,1.3Z"/>
            <path class="cls-1" d="M381.1,331.8c.3,0,.6.1.9.3-.5.4-.7.2-.9-.3Z"/>
            <path class="cls-1" d="M545,293.7c.4-.4.8-.8,1.2-1.1-.4.4-.8.8-1.2,1.1Z"/>
            <path class="cls-1" d="M542.1,296.5c.4-.4.7-.7,1.1-1.1-.4.4-.7.7-1.1,1.1Z"/>
            <path class="cls-1" d="M539.2,298.9c.4-.5.7-.9,1.1-1.4-.4.5-.7.9-1.1,1.4Z"/>
            <path class="cls-1" d="M537.2,300.3c.4-.3.7-.5,1.1-.8-.4.3-.7.5-1.1.8Z"/>
            <path class="cls-1" d="M532.4,303.3c.4-.2.7-.5,1.1-.7-.4.2-.7.5-1.1.7Z"/>
            <path class="cls-1" d="M91.5,339.9v-.2c.1,0,.4.1.4.1,3.6-.4,7.2-1.1,10.8-.3h.2c-.8,1.7-1.7,3.5-2.6,5.3-.3.3-.6.6-1,1-1.8.4-1.9,1.7-1.9,3.2-.1.9-.2,1.9-.4,2.8-1.5,3.2-.8,6.3.9,9.3,3.8,7,10,8.7,17.3,7.9,1.1.8,2.1.8,2.9-.5h0c8.4.6,11.8-5.7,14.6-11.6,4.5-9.5,5.8-19.3.8-29.2-.6-1.2-.9-2.9.2-3.6,1.5-.9,2.2.8,3,1.7,6.2,6.9,8.9,15.1,9.3,24.2-.4,9.9-4.6,18.2-12.3,24.1-10.4,7.9-22,12.5-36.3,4.9,3.6,5.2,7.6,7.3,11.2,9.7,14.9,9.6,32.8,8.4,44.4-2.9,12.2-11.9,14.2-30.6,5.1-45.8-2.9-4.8-7.2-8.5-10.4-13.1,4.2-4.2,8.6-6.2,13.9-1.6.4,0,.7,0,1.1,0h0c-.4,2.8,1.6,4.5,2.9,6.5,5.2,7.9,8.9,16.2,8.9,26,0,5.3-1,10.4-1,15.6v.4c-.8.5-1,1.3-.9,2.2h0c-.4.3-.7.6-1.1,1-6.4,18.3-24.4,32.7-47.6,30.2-9-1-17-4.1-24.6-8.8-.1-1.2-.8-1.8-2-1.9-.3-.3-.7-.5-1-.8-.3-.4-.7-.8-1-1.2h0c-.4-.3-.7-.6-1.1-1,0,0,0,.1,0,.1-.4-.4-.7-.7-1.1-1.1,0,0,.1,0,0,0-.4-.4-.7-.7-1.1-1.1h.1c-.4-.3-.7-.6-1.1-1h.1c-.3-.3-.7-.7-1-1h0c-.4-.3-.8-.6-1.2-1-.3-.4-.5-.7-.8-1,0-.9-.4-1.6-1.3-1.9-.2-.4-.4-.8-.7-1.1l-1.1-1.9h0c0-.8-.3-1.5-1.1-2h0c0-.8-.3-1.6-1.1-2.1v-.2c-1.7-9.4-2.7-18.9-.8-28.4h0c.8-.4,1-1.1,1.1-1.9h0c1.4-.1,2-.9,1.6-2.3h0c.7,0,1-.4,1.1-1h-.1c.7,0,1-.3,1.1-1h0c.7,0,1.1-.3,1.1-1v.2c.3-.4.7-.7,1.1-1.1l-.2.2c.4-.4.8-.7,1.3-1h-.2c.4-.1.8-.5,1.2-.7h0Z"/>
            <path class="cls-1" d="M103.5,277.5c2.3,2,4.6,4,6.9,6.1-3.7-.4-6.5-1.9-6.9-6.1Z"/>
            <path class="cls-1" d="M90.5,263.9c1.3,1.6,2.6,3.3,3.9,4.9-3.6-.4-5.4-2.6-5.7-6.1.6.4,1.2.8,1.9,1.2h0Z"/>
            <path class="cls-1" d="M87.7,305c-.7,0-1.4.2-2.1.2v-3.9h0c3.5-.4,3.8,1.1,2.1,3.6h0Z"/>
            <path class="cls-1" d="M96.9,271.3c1.2,1.1,2.4,2.2,3.6,3.3-2.2,0-4.1-.3-3.6-3.3Z"/>
            <path class="cls-1" d="M95.4,304.2c-1,0-2,0-3,0,.9-2.5,1.9-2.5,3,0Z"/>
            <path class="cls-1" d="M94.4,268.9c.5.5,1,1,1.4,1.5-.9-.1-1.3-.7-1.4-1.5Z"/>
            <path class="cls-1" d="M95.8,270.3c.4.3.7.6,1.1,1-.4-.3-.7-.6-1.1-1Z"/>
            <path class="cls-1" d="M100.4,274.6c.4.3.7.7,1.1,1-.4-.3-.7-.7-1.1-1Z"/>
            <path class="cls-1" d="M102.4,276.5c.4.4.7.7,1.1,1.1-.4-.4-.7-.7-1.1-1.1Z"/>
            <path class="cls-1" d="M111.3,284.4c.4.4.8.7,1.2,1.1-.4-.4-.8-.7-1.2-1.1Z"/>
            <path class="cls-1" d="M162.7,325c-.4,0-.7,0-1.1,0,0-.4,0-.8,0-1.1.3.4.7.7,1,1.1h0Z"/>
            <path class="cls-1" d="M128.1,321.3c-.4-.4-.7-.8-1.1-1.2.4.4.7.8,1.1,1.2Z"/>
            <path class="cls-1" d="M118.4,131c-5.9,2.3-11.1,5.9-16.2,9.5-3.7-.3-6.4-4.5-10.8-2.9-.6.2-.8-1.6-.9-2.6,6.5-6.5,14.2-11.3,22.7-14.8,1.2,1.4,2.6,1.3,3.9.5,1.9-1.2,3.8-2.3,5.3.5,1.4,2.6-.4,3.9-2.3,5.1-1.8,1.1-2.1,2.8-1.8,4.6h0Z"/>
            <path class="cls-1" d="M85.6,301.4v3.9c-2.3.6-4.6,1.2-6.9,1.8,1-3.5,4-4.5,6.9-5.7h0Z"/>
            <path class="cls-1" d="M40.9,331.8c-.9-.1-1.5-.5-1.4-1.5.2-1,1-1.2,1.8-1.1.9,0,1.5.5,1.4,1.5s-1,1.1-1.8,1.1h0Z"/>
            <path class="cls-1" d="M46.8,336.9c-.6,1.6-1.2,3.3-1.8,4.9-1.7-2.5-.5-3.9,1.8-4.9Z"/>
            <path class="cls-1" d="M44.1,344.8c.1,1,0,2-.7,2.7-.3-1-.1-2,.7-2.7Z"/>
            <path class="cls-1" d="M42.9,349.8c0,.3,0,.6,0,1,0-.2-.2-.4-.2-.7,0,0,.2-.2.3-.3h0Z"/>
            <path class="cls-1" d="M118.4,131c-.3-1.9,0-3.5,1.8-4.7,1.9-1.2,3.7-2.5,2.3-5.1-1.5-2.8-3.4-1.6-5.3-.5-1.4.8-2.8.9-3.9-.5,4.8-3.3,10.7-4.3,15.9-6.7,15-4.2,30.1-5.2,45.2-.9,24.5,7.1,43.4,21.4,55.2,44.4.7,1.3,1.5,2.5,2.2,3.8.9,2.8,1.8,5.5,2.7,8.2,3.3,9.9,4.9,20.1,3.7,30.4-.9,7.6-3.5,15.1-5.4,22.6-.7.5-.9,1.2-.9,2-.6,1.3-1.2,2.6-1.8,3.9-3.6,6.8-8.6,12.5-14.2,17.7h-.2c-.2,0-.4.1-.4.4-7.8,5.7-16.5,9.3-25.9,11.6-10.6,1.6-20.5-1-30.3-5,2.4,3.8,5.9,5.5,9.1,7.8,8.7,6.2,18.6,10.6,25.8,18.8-.6,1.5-2,2.9-.6,4.5,2.1,2.3,2.6,4.4,0,6.7-1.2,1.1-.1,2.1,1.1,2.5,1.3.4,2.7.5,3.1,2,1.1,3.7,3.4,6.6,5.9,9.5,1,1.2.5,2.1-.9,2.6-13.1-20-34.2-30.5-52.9-43.8-8.2-5.8-14.8-13.1-22.3-19.6-.4-.5-.7-.9-1.1-1.4-.8-.9-1.7-1.7-2.6-2.6-2.1-3.3-4.2-6.6-6.3-9.9h0c.2-2.2-1-4.1-1.7-6.1-8.1-21.4-2.8-41.7,14.8-55.9,21.6-17.6,57.8-5.2,62.5,21.4,1.8,10.1-2.4,19-11.4,24.1-1,0-2.1,0-3.1,0-4-2.3-4.8-5.1-2.3-9.2,3.4-5.7,2.1-9.5-3.9-12.2-5.7-2.6-11.6-2.2-16.9,1-10.5,6.5-13.3,20.8-6.6,31.7,3.2,7.9,9.8,11.9,17,15.3,7.7,5.3,16,5.3,24.5,2.5,5.8-1.2,11.3-3.2,15.8-7.2,9.3-8.4,14.9-18.9,17.9-30.9,2.2-5.7,2.1-11.6,1.3-17.5-7.1-55.9-64.2-75.9-103.6-57.1-1,.5-2.1.8-3.2,1.2h0ZM164.6,173.8c-3.2-2.2-5.9-1.9-8.5-1.7-20.4,1.9-34.7,20.7-30.9,40.8,1.9,9.9,6.9,18.4,12.6,26.5.6.8,1.2,2.1,3.2,1-6.8-12.6-11-25.9-6.9-40.3,4.2-15,14.4-23.8,30.6-26.3h0Z"/>
            <path class="cls-1" d="M586.5,93c9.8-.7,17.6,3,23.8,10.3,0,6.5.4,13.1-.3,19.6-.5,4.6,1.5,10.4-4.7,13.2-1.4.6-1,2.3-.4,3.6,2.2,5.4,1.2,10.1-2.6,14.4-2-.4-5.6,4.2-5.7-1.9,1.3,1.4,1.7,1,1.7-.8,0-10.8,0-21.5,0-32.2,0-1-.3-1.9-1.1-2.6-.5-8.3-1.5-9.1-9.8-7.9-7.5,1-13.8,5-20.8,7.4-1.8.6-1.2,2-1.1,3.3.8,13.6,0,27.2-.1,40.8,0,3.4-1,5.5-4.5,6.5-5.5,1.6-10.9,3.5-16.3,5.4-1.7.6-4.1.4-4.8,2.8-1,1.6-1,3.3,0,4.9,0,2,.1,4,.2,6-1.4-2.5-1.6-5.3-1.9-8-.2-2-1.1-2.9-3.1-2.9-5.1,0-7.5-3.7-10-7.4-.3-6.5,5.8-5.4,9-7.6,1.5,0,2.7-.4,3.8-1.4,1.9.3,3.5-.6,5.1-1.4,7.6-1.1,7.5-1.1,7.6-8.6.2-8.2.6-16.4,1-24.6.3-7.3,3.4-13.2,8.5-18.2,2-1.9,4-3.9,6-5.8.6-.4,1.1-.8,1.7-1.2,6.2-1.9,12.5-3.8,18.7-5.8h0Z"/>
            <path class="cls-1" d="M456.2,211.1c6.2-9.6,14-17.9,20.7-27.1,5-2.9,9.8-6.3,15.1-8.8,9-4.2,18.3-7.1,28.4-5.9,2,.2,3.5-.1,4.6-1.9,2.4,3.7,4.8,7.4,10,7.4,2,0,2.9.9,3.1,2.9.3,2.7.5,5.5,1.9,8,1.2,1.4,1.8,3.4,4,3.6,0,1.1,0,2.2,0,3.3-2.8-2.1-5.3-4.7-8.9-6-18.2-6.5-34.4-2.2-48.8,9.4-16.4,13.3-24.5,31.2-26.5,51.9-2.3.9-2.4,1.9,0,2.9l.3,3.9c-.8,5.3.5,10.6.6,15.8-3-2.8-2.2-6.9-2.2-10,0-6-1.4-8.1-7.2-5.8.9-4,1.7-7.9,2.6-11.9,1.8-2.1,2.2-4.1-.3-5.9,0-.7-.1-1.3-.2-2,1.8-.4,1.7-1.6,1.3-3-1-3.5-1-6.7,2.8-8.9,1.8-1,1.7-2.9.3-4.2-2.7-2.4-2.6-5-1.5-8h0Z"/>
            <path class="cls-1" d="M393.2,205.2c1-.3,2-.7,3-1l7.5-2.8c-1.4,4.7,5,8.1,2.3,13-.8.5-1.6,1.1-2.5,1.5-25.6,12.1-36.2,33.9-39.3,60.6-2.3,5.8-.4,11.9-1.2,17.8-.3,0-.5,0-.8,0-.1-.6-.2-1.2-.4-1.9-.1,0-.4.2-.4.2.2.6.5,1.1.7,1.7-.3,5.9.1,11.8,2.4,17.4,1.4,3.4-1,5.1-3.1,6.3-2.4,1.4-2.1-1-2.1-2.3,0-5.7,0-11.4-.3-17.1-1.5,3.4.3,7.1-1.4,10.5-.1-9.5-.3-19-.4-28.5.3-10.9.6-21.9-.1-32.8,0-2.6.2-5.2.3-7.9,1.6-.3,1.9-1.5,2-2.9.1-3.5-1.6-6.8,5.2-7.1,9.3-.5,14.3-7.9,16.5-16.8,3.7-3.3,7.8-6,12.3-8h0Z"/>
            <path class="cls-1" d="M406,214.5c2.8-5-3.6-8.3-2.3-13,.8-.6,1.6-1.1,2.4-1.7.5,0,1-.2,1.5-.2.7,0,1.4,0,1.7-.8.8.8,1.5.1,2.2-.2,1.7,0,3.5,0,5.1-.8,1.3-.1,2.6-.2,3.9-.3.3,0,.6,0,1,0,2.6,0,5.3,0,7.9,0,5.1.9,10,2.1,14.8,4.1,4.2,2.9,8.9,5.2,12,9.5-1.1,2.9-1.2,5.6,1.5,8,1.4,1.2,1.5,3.2-.3,4.2-3.8,2.1-3.8,5.3-2.8,8.9.4,1.4.4,2.6-1.3,3-.2-.4-.4-.7-.5-1-1.7-12.8-10.5-18.6-21.6-21.8-8.5-2.4-16.9-.5-25.1,2.2h0Z"/>
            <path class="cls-1" d="M307.6,232.2c1.5.1,1.9-1.1,2.6-2.1.2-.1.4-.3.5-.5,1.3-.5,2.6-1.1,4-1.6.6.7,1.3.8,2.2.6,5.6-1.2,9.6,3.1,8.8,9.3-2.3,2.9.2,5.8.2,8.8-.3,10.6,0,21.3,0,31.9-.1,7.9-.3,15.9-.4,23.8-2.6,2.3-4.8,4.8-5.2,8.5-.2,1.4-1.3,2.5-2.6,3.4-4.6,2.8-8.4,6.3-9.8,11.8-.9-1.7-2-3.3-2-5.3,0-7.1,0-14.3.1-21.4.3-.8.8-1.5.8-2.3,1.1-15.3,1.2-30.5,1-45.8,0-1.2,0-2.3-.9-3.3.3-3.4-.5-4.5-4.3-3.1-8.4,3.2-16.8,6.3-25.9,7.3-1.9.2-3.6,1.3-3.7,3.6-4.8-3.8-7.9-8.1-3.8-14.4,9.6-5.2,20.3-7.4,30.7-10.6,2,0,4,.2,5.9.3.6.4,1.2.7,1.8,1.1h0Z"/>
            <path class="cls-1" d="M325.7,237.9c.9-6.1-3.2-10.4-8.8-9.3-.9.2-1.6.1-2.2-.6,14-7.4,28.5-13.3,44.3-15.6,6.2-.9,11.1.9,13.4,7.4,3.1-2.1,5.2-5.2,8.6-6.6-2.1,8.9-7.2,16.3-16.5,16.8-6.8.3-5.1,3.6-5.2,7.1,0,1.4-.4,2.6-2,2.9,0-2.6-.4-5.3,0-7.9.5-4.1-1.1-4.3-4.4-3.1-9,3.1-18.1,5.9-27.1,8.8h0Z"/>
            <path class="cls-1" d="M310.8,229.6c-.2.2-.3.4-.5.5-.1-.2-.2-.5-.1-.8.2,0,.5.1.7.3Z"/>
            <path class="cls-1" d="M617.4,292.1c-.8-3.5-4.6-3.1-6.8-5-1.7-1.5-3.4-2.9-4.4-5,.7-.4,1.4-.8,2.1-1.2h0c2.1-.6,4.1-1.5,5.7-3l.3-.2c.3-.2.7-.5,1-.7,2.6-1.4,4.9-3.2,6.9-5.4l.7-.7h.2v-.3c5.8-6.4,9.3-13.8,9.9-22.5h0c.8.1,1.5.3,2,1.2,9.4,16.4,19.2,19.6,36.6,12h-.1c1.2,0,2.2-.3,3-1.3h0c1.9,0,3.6-.7,5-2h0c.8,0,1.6-.1,2.1-1h0c3.7-1.7,7.2-3.8,9.9-6.9h0c.4-.3.7-.7,1.1-1h0c.4-.2.7-.6,1.1-1h0c.4-.2.7-.6,1.1-1h0c.8-.3,1.3-1,1.2-1.9h-.2c.7.1.9-.4,1-1,1.5-2.2,2.9-4.5,2.9-7.2,1.2.2,2.2.8,2.9,1.8.6,2.9,3.2,5.4-.6,8.6-4.7,3.9-7.8,9.2-5.4,15.8,1.2,3.4.7,6-2.9,7.6-.3,0-.7.2-1,.2-4.8,0-9.3-2.4-14.3-1.7-17.5,2.5-32.2,19.1-32.2,36.9-1.7,5.7-1.4,11.3.3,16.9,0,.8,0,1.5.7,2.1.3.8.6,1.6.9,2.4,3.6,12.3,11.8,20.3,23.3,25.5,29.4,13.1,56.1,5.8,81.5-10.9.4,1.5,1.1,1.4,2.5.9,2.6-.9,8.5,2.4,9.5,5-1.8,2.3-4.3,3.5-6.8,4.7-13.2,6.6-25.5,15-40,18.9-3.6,1-7,.6-10.5,1.1-21.3,2.9-39.9-3.5-56.2-17.2h0c-3-3.3-6-6.7-9-10.1-9.9-13.2-12.7-28.1-10.2-44.2,1.6-6.7,4.2-13.1,6.5-19.5.4-1.1.9-2.3-.5-3-1.1-.6-1.7.6-2.4,1.2-5.4,4.9-10.8,9.8-18,12.1h0Z"/>
            <path class="cls-1" d="M756.3,359.1c.1.2.3.4.4.6-.2-.2-.3-.4-.5-.6h0Z"/>
            <path class="cls-1" d="M754.5,359.8c-.3,0-.6.1-.9.2.3-.2.6-.3.9-.2Z"/>
            <path class="cls-1" d="M790.3,314.6c-.6-.3-1.5-.4-1.6-1.4,0-.1.2-.3.3-.3,1,0,1,1,1.4,1.6h0Z"/>
            <path class="cls-1" d="M633,366.4c.3,0,.6,0,.9,0h-.5c0,.1-.5,0-.5,0h0Z"/>
            <path class="cls-1" d="M630.5,216.3c-.1,3.6-.3,7.2-.4,10.8-3.6,6.1-4.5,13.7-9.7,19-.4,0-.8,0-1.2,0,.5-5.9,1.1-11.7-3.4-16.5,1.5-11.8,1.5-23.6,1.2-35.5,0-1.8-.5-3.6-.8-5.3-.1-.8,0-1.7-1.2-1.8-1.5-.1-1.5,1-1.6,1.9-.2,1.3-.4,2.6-.6,3.9-1.4,13.1-1.1,26.3-1.5,39.4-3.2-2.7-6-1.7-8.5,1.1-1.2,1.3-2.6,2-4.3,2,0-15.3-.2-30.6,0-45.9,0-5.6-.5-12.1,7.2-14.2.3,0,.4-.9.6-1.3,6.7-2.1,13.4-4.1,20.1-6.2,3.2-1,4.6-1,4.3,3.3-.5,6.5-.2,13.1-.2,19.7-.3,8.6-.5,17.1,0,25.7Z"/>
            <path class="cls-1" d="M602.3,154c3.8-4.2,4.9-9,2.6-14.4-.5-1.2-1-2.9.4-3.6,6.2-2.8,4.2-8.6,4.7-13.2.7-6.5.2-13.1.3-19.6,4,5.9,3,12.5,2.3,18.8-.4,3.9-.2,7.9-.4,11.8,0,1.4,0,2.9,1.6,3,1,0,1.4-1.3,1.7-2.5,1.5-4.9,1.1-10,1.2-15,.2-6.6,0-13.1,0-19.7,3,0,4.7-1.2,5.3-4.3.5-2.8,1.8-5.2,5-5.7,3.1,1.8,3.7,4.9,3.6,8.1,0,14.1-.4,28.2-.3,42.3,0,4-1.7,6-5.2,7.2-7.6,2.7-15.2,5-23.1,6.7h0Z"/>
            <path class="cls-1" d="M565.4,231.2v1.9c-.3.3-.3.6,0,.9,0,.7-.1,1.4-.2,2.1,0,1.7-.2,3.5-.3,5.2-.3,4.1-1.6,7.4-6.2,8.4-1.4.3-2.6,1.4-3.9,2.1,0-1.3-1.2-2.5-.2-3.8,2.9-3.9,2.5-9.2,5.3-13.1,1.3-1.9.9-3.6-.9-5.6-4.1-4.6-8-9.5-7.1-16.4.4-3.3-.3-6.5-1-9.8-.3-1.6-1.1-2.3-2.6-2.3-1.4-2.7-2.8-5.4-4.3-8,0-1.1,0-2.2,0-3.3,5.9-1.2,11.9-2.2,17.7-3.8,3.3-.9,4.2-.5,4,3.1-.4,11.8-.5,23.6-.6,35.3,0,2.4.2,4.9.3,7.3h0Z"/>
            <path class="cls-1" d="M596.1,229.1c.4-17.6.7-35.2,1.1-52.8,2.3-3.5,6.1-1.1,9-2.4-.2.4-.3,1.2-.6,1.3-7.7,2-7.1,8.5-7.2,14.2-.3,15.3,0,30.6,0,45.9-.2,3.9.4,7.7.8,11.6.9,8.4,1,8.7,9.5,9.3-1.5.6-3,1.1-4.5,1.7-5.2-1.1-6.8-5-7.1-9.6-.4-6.4-.8-12.7-1.1-19.1h0Z"/>
            <path class="cls-1" d="M627.2,89.7c-3.2.5-4.5,2.9-5,5.7-.6,3.1-2.3,4.4-5.3,4.3,0-.7,0-1.4,0-2,2.9-3.6.7-8.2,2.2-12.1.7-1.7,1.4-3.2,2.4-4.6,1.7-2.5,4.3-1.6,4.6,0,.9,4.8,4.5,4.8,7.8,5.7-1.9,1.8-5.5-.2-6.6,3.1h0Z"/>
            <path class="cls-1" d="M597.2,116.6c.8.7,1.1,1.6,1.1,2.6,0,10.7,0,21.5,0,32.2,0,1.7-.4,2.2-1.7.8,0-11.9-.2-23.7.6-35.6Z"/>
            <path class="cls-1" d="M539.8,179.8c-1.1-1.6-1.1-3.2,0-4.9,0,1.6,0,3.2,0,4.9Z"/>
            <path class="cls-1" d="M693.2,270.7c3.5-1.5,4.1-4.1,2.9-7.6-2.4-6.6.7-11.9,5.4-15.8,3.8-3.2,1.2-5.7.6-8.6,1.7.9,3.5,1.7,5.2,2.8,20.7,12.8,45,1,54-14.7v14.1c-.5,1-.6,2-.1,3.1,0,2-.2,4-.3,6.1-.4,4.8-.8,9.6-1.2,14.3-1.6-3.9-1.6-8-.8-12,.8-4.1.5-8.2.4-12.3,0-2.1-1.4-2.7-3.4-2.1-2,.6-1.8,1.5-1.1,3.2,2.1,4.9,2.6,9.6-2.1,13.8-2.3,2.1-3.2,4.6-2.2,8.6.8,3.1.7,7.1,1,10.8.1,1.6-.7,3.3-2.1,3.6-2.7.5-4.4,2.7-6.8,3.7,1.6-6.4,3.3-12.7,4.7-19.1,1-4.4,0-5.3-4.1-3.4-7.5,3.6-15.3,3.8-23.3,3-3.2-.8-6.3-1.6-9.5-2.4-1-.3-2.3-1.4-3.1-.1-.8,1.4.5,2.4,1.5,3.2,5.6,4.5,9.6,10.2,12.3,16.8,1.3,7.8,2.9,15.6-1.9,22.9,2.1-5.3-3.3-9.8-1.6-15.4.5-1.8-1.3-5.2-4.2-5.2-3,0-2.2,3-2.4,5.1-.2,1.7.6,3.8-2,4.5-.3-3.8-.4-7.6-2.8-10.8-.2-1.2-.9-2-2.1-2.1h0c-2.4-4.3-7-5.7-11-7.8h0Z"/>
            <path class="cls-1" d="M736.7,217.2c-1.2.3-2.5.6-3.7.8-2.5-1.4-6.3-.8-7.3-4.5,3.6,1.5,7.2,3,11.1,3.7Z"/>
            <path class="cls-1" d="M761.2,243.9c-.5-1.1-.4-2.1.1-3.1,0,1,0,2.1-.1,3.1Z"/>
            <path class="cls-1" d="M688.5,219.5c0-15.9-.2-31.8,0-47.7,0-3.6,1.2-7.1.9-10.7.3,0,.6,0,.9,0,0,11.5,0,23,0,34.5v18.2c0,2.1.2,4.3-1.9,5.8Z"/>
            <path class="cls-1" d="M690.2,161c-.3,0-.6,0-.9,0-.3-4.2-.4-8.4-.8-12.6-.1-1.4-.2-2.6,1-3.5,2.7,5.2.9,10.6.7,15.9h0Z"/>
            <path class="cls-1" d="M671.4,236.2c-2.2,0-4.4,0-6.1-1.9,3.1,0,6.2-.1,9.2-.1-.4,1.7-2.4.9-3.2,2Z"/>
            <path class="cls-1" d="M682.4,229.4c0-1.6,0-3.2,2.3-2.6-.5,1.1-1.2,2-2.3,2.6Z"/>
            <path class="cls-1" d="M685,226.6c-.7-1.7,0-2.7,1.5-3.2,0,1.3-.5,2.4-1.5,3.2Z"/>
            <path class="cls-1" d="M676.5,233.3c.4-.8,1.2-1.1,2-1.1-.2,1.1-1.2,1.1-2,1.1Z"/>
            <path class="cls-1" d="M687.4,221.6c0-.9.2-1.7,1.1-2.2,0,.9,0,1.8-1.1,2.2Z"/>
            <path class="cls-1" d="M686.4,223.5c.3-.4.6-.8.9-1.2.2.7-.3,1-.9,1.2Z"/>
            <path class="cls-1" d="M680.4,231.3c.4-.3.8-.6,1.2-1-.4.3-.8.6-1.2,1Z"/>
            <path class="cls-1" d="M675.4,234.1c.4-.3.8-.6,1.2-.8-.2.5-.3,1.1-1.2.8Z"/>
            <path class="cls-1" d="M679.5,206.1c.2,1.4-.7,3.4-1.1,5.4-.2.9-.4,2.1-1.7,2-1.2-.2-1.3-1.4-1.3-2.4.3-3.2.7-6.5,1-9.7,0-.9.6-1.7,1.6-1.4.5.1,1,.8,1.1,1.3.2,1.3.2,2.6.3,4.7h0Z"/>
            <path class="cls-1" d="M746.8,211.5c-1.1,1.1-2.2,2.2-3.3,3.3,0-2.2.8-3.6,3.3-3.3Z"/>
            <path class="cls-1" d="M742.6,281.6c2.4-1,4-3.1,6.8-3.7,1.4-.3,2.2-2,2.1-3.6-.3-3.6-.3-7.7-1-10.8-1-4.1,0-6.5,2.2-8.6,4.7-4.2,4.1-8.9,2.1-13.8-.7-1.8-.9-2.6,1.1-3.2,2.1-.6,3.4,0,3.4,2.1.1,4.1.4,8.2-.4,12.3-.8,4-.8,8.1.8,12,.4,1.5,0,3-.4,4.5-.8.2-1.5.6-1.7,1.5-2.2,9.3-7.3,17.4-11.3,25.9-1.2,2.5-3.6,4.3-3.4,7.4h0c-.8.2-1.1.9-1.2,1.7h0c-.3.4-.6.7-.9,1.1h0c-.3.3-.7.7-1,1.1h0c-.3.3-.7.7-1,1h0c-.4.3-.7.6-1.1,1h.1c-1.1.2-1.8.9-2,2.1v-.2c-.2.4-.6.8-1,1.1h.1c-.4.2-.8.6-1.1,1h.1c-.4.2-.8.6-1.1.9h.1c-.4.2-.8.6-1.1.9h0c-.5.1-1.5-.4-1.1.9-2.7,1.9-5.5,3.8-8.2,5.7-.7.3-1.4.7-2.2,1h-.3c0,0-.3.2-.3.2-.6.3-1.2.5-1.9.8h0c-9.3,3.1-18.7,3.6-28.3,1.9-4.7-1.7-7.9-5.4-11.3-8.8-.2-.3-.5-.6-.7-1h0c-.3-.4-.7-.9-1-1.4.2-.7,0-1.1-.7-1.5-.8-4.4-1.4-8.8,1.7-12.7,3.6-4.4,6.5-4,8.6,1.2,2.8,7.3,8.5,9.2,15.3,5.3,6.1-3.5,6.2-9.8,7.7-15.5,2.5-.6,1.8-2.8,2-4.5.2-2-.6-5,2.4-5.1,2.8,0,4.7,3.4,4.2,5.2-1.7,5.5,3.8,10,1.6,15.4h0c-.1,0-.4.1-.4.1,0,.2,0,.5.1.7.2.8,0,1.5-.6,2.1-3,.3-2.2,2.6-2.3,4.4,1,2,2.4,1,3.7.3,3.9-2.2,7.3-4.9,10.3-8.2,5.6-6,9.3-13,12.5-20.4h0Z"/>
            <path class="cls-1" d="M742.8,303.5c-.2-3.1,2.2-5,3.4-7.4,4.1-8.5,9.1-16.6,11.3-25.9.2-.9.9-1.3,1.7-1.5-2.6,13-8.2,24.5-16.5,34.8h0Z"/>
            <path class="cls-1" d="M735.8,311.5c.3-1.1,1-1.8,2-2.2-.4,1-1,1.8-2,2.2Z"/>
            <path class="cls-1" d="M741.6,305.2c.1-.8.4-1.5,1.2-1.8,0,.9-.5,1.5-1.2,1.8Z"/>
            <path class="cls-1" d="M730.7,316.2c-.4-1.3.6-.8,1.1-.9-.4.3-.8.6-1.1.9Z"/>
            <path class="cls-1" d="M677.4,316.1c.2.3.5.6.7,1-.2-.3-.5-.6-.7-1Z"/>
            <path class="cls-1" d="M676.5,314.7c.3.5.7,1,1,1.5-.3-.5-.7-1-1-1.5Z"/>
            <path class="cls-1" d="M731.8,315.3c.4-.3.7-.7,1.1-1-.4.3-.8.7-1.1,1Z"/>
            <path class="cls-1" d="M732.8,314.4c.4-.4.8-.7,1.1-1.1-.4.4-.8.7-1.1,1.1Z"/>
            <path class="cls-1" d="M733.8,313.4c.4-.4.8-.8,1.1-1.1-.4.4-.8.8-1.1,1.1Z"/>
            <path class="cls-1" d="M734.8,312.4c.4-.4.8-.8,1.1-1.1-.4.4-.8.8-1.1,1.1Z"/>
            <path class="cls-1" d="M737.7,309.4c.4-.4.7-.7,1.1-1.1-.4.4-.7.7-1.1,1.1Z"/>
            <path class="cls-1" d="M738.7,308.4c.3-.4.7-.7,1-1.1-.3.4-.7.7-1,1.1Z"/>
            <path class="cls-1" d="M739.7,307.4c.3-.4.7-.7,1-1.1-.3.4-.7.7-1,1.1Z"/>
            <path class="cls-1" d="M740.7,306.3c.3-.3.6-.7.9-1-.3.3-.6.7-.9,1Z"/>
            <path class="cls-1" d="M202.5,307.3c1.4-.5,1.9-1.4.9-2.6-2.5-2.8-4.8-5.7-5.9-9.5-.4-1.5-1.9-1.6-3.1-2-1.2-.4-2.3-1.4-1.1-2.5,2.7-2.4,2.1-4.4,0-6.7-1.4-1.6,0-3,.6-4.5.8.4,1.5.9,2.3,1.3,1.4,1.6,2.5,3.6,4.9,3.7-.3,1.3.2,2,1.6,2.4.5-1.5-.5-2-1.5-2.5-1.2-1.7-2.4-3.4-3.6-5.1-.6-3.3-3-6.2-2-9.9,4.9,1.1,9.8,2.1,14.7,3.2-1.9,3.1.9,2.6,2.3,3.1,9,2.6,9.6,3.1,10,12.4.4,8.3.4,16.6.6,25-.3,8.3-.7,16.6-.2,24.9-.3,12.7-1.4,25.5,4.7,37.4,0,.1-.2.3-.2.4.2.2.4.3.6.5h.1c-.1,2.5-3.5,6.9-5.6,8.6-2.6,2-4.2,5-4.6,8.4-.1,1.3,0,2.6,0,4-.4,4.3-1.1,8.2-6.3,9.9-3.1,1-5.6,3.8-8.4,5.7-2-2.8,3.1-4.2.8-6.7,4.2-8.3,8.8-16.5,11.6-25.5,1.1-3.6,2.2-7.2,2.2-11,1.9-15,0-29.4-5.6-43.4-1.6-7.1-6.1-12.7-9.6-18.8h0Z"/>
            <path class="cls-1" d="M170.2,334.6c5.1,10.4,7.7,21.3,5.6,32.9-.9,1.8-.6,4.1-2.3,5.6,0-5.2,1-10.4,1-15.6,0-9.8-3.7-18.1-8.9-26-1.3-2-3.3-3.7-2.9-6.5,3.4,2.5,5,6.4,7.5,9.6h0Z"/>
            <path class="cls-1" d="M82.5,349.7c-1.9,9.5-.9,19,.9,28.4-4.7-7.9-4.9-16.4-2.9-25.1.7-1.1,1.3-2.2,2-3.4h0Z"/>
            <path class="cls-1" d="M97.4,396.3c1.2,0,1.9.6,2,1.9-1.1-.1-1.5-1.1-2-1.9Z"/>
            <path class="cls-1" d="M172.6,375.6c0-.9.2-1.7.9-2.2,0,.9-.1,1.7-.9,2.2Z"/>
            <path class="cls-1" d="M83.3,378.3c.8.5,1.1,1.3,1.1,2.2-.8-.5-1.1-1.3-1.1-2.2Z"/>
            <path class="cls-1" d="M84.4,380.5c.8.5,1.1,1.2,1.1,2-.8-.5-1-1.2-1.1-2Z"/>
            <path class="cls-1" d="M85.4,382.4l1.1,1.9c-.4-.6-.8-1.3-1.1-1.9Z"/>
            <path class="cls-1" d="M87.2,385.5c.9.3,1.2,1,1.3,1.9-.4-.6-.9-1.3-1.3-1.9Z"/>
            <path class="cls-1" d="M95.3,394.3c.3.4.7.8,1,1.2-.3-.4-.7-.8-1-1.2Z"/>
            <path class="cls-1" d="M94.3,393.3c.4.4.7.7,1.1,1-.7,0-1-.4-1.1-1Z"/>
            <path class="cls-1" d="M93.3,392.4c.4.4.7.7,1.1,1.1-.7,0-1.1-.4-1.1-1.1Z"/>
            <path class="cls-1" d="M92.3,391.4c.4.4.7.7,1.1,1.1-.7,0-1.1-.4-1.1-1.1Z"/>
            <path class="cls-1" d="M91.3,390.4c.4.4.7.7,1.1,1.1-.7,0-1-.4-1.1-1.1Z"/>
            <path class="cls-1" d="M90.4,389.4c.3.4.7.8,1,1.1-.7,0-1-.5-1-1.1Z"/>
            <path class="cls-1" d="M89.3,388.4c.4.3.8.7,1.2,1-.4-.3-.8-.7-1.2-1Z"/>
            <path class="cls-1" d="M171.6,376.7c.4-.4.7-.8,1.1-1.1-.4.4-.7.8-1.1,1.1Z"/>
            <path class="cls-1" d="M451.2,254.9c5.8-2.3,7.2-.1,7.2,5.8,0,3.1-.9,7.2,2.2,10,0,.7,0,1.4,0,2-.1.6-.2,1.1-.3,1.7-2.1,3.5-5.5,5.9-7.3,9.6-7,14.3-17.3,24.8-33.5,28.1-2.6,0-5.1-.1-7.7-.2-8.9-2.7-14.1-9-17-17.6-.1-3.2,2.2-3.5,4.6-3.8,23.3-3.1,41.9-13.2,51.9-35.7h0Z"/>
            <path class="cls-1" d="M549.7,208.4c-.5-2.6-.9-5.2-1.4-7.8,1.5,0,2.3.8,2.6,2.3.7,3.2,1.4,6.5,1,9.8-.9,6.9,3,11.8,7.1,16.4,1.8,2,2.2,3.7.9,5.6-2.8,4-2.4,9.2-5.3,13.1-.9,1.3.2,2.5.2,3.8-1,1.7-2.1,3.4-3.1,5h0c-1.6.7-2.2,2.4-3,3.7-4.1,7.1-10.3,12.1-17.2,16.4-3.4-2.2-6.8-2.5-10.8-1-4.2,1.6-8.2.1-11.4-2.7-3.7-3.2-2.2-9.6,2.4-11.2,1.1-.4,2.2-.6,3.3-.9,1.1-.3,2.5-.5,2.5-1.9,0-1.5-1.8-1.1-2.4-2.2,7.9-3.4,15.3-7.8,21.3-13.8,9.5-9.5,14.3-21,13-34.7h0Z"/>
            <path class="cls-1" d="M510.8,233.6c-4.5,4.9-10.3,7.7-16.4,10-2.4.2-3.1-1-3-3.2.2-4.5.6-9,2.3-13.2,2.9-.5,3.2-2.9,3.8-5.1,2.9-10,12.5-17,21.8-15.7h0c.9,4.3,1.3,8.6-.2,12.9-.8,2.3-1.9,4.5-1.8,7h0c-3,.4-4.1,2.2-4,5-.5,1.1-1.2,2-2.5,2.2-.2-.1-.3-.3-.5-.5.1.2.3.4.5.5h0Z"/>
            <path class="cls-1" d="M515.4,256.9c.5,1,2.5.7,2.4,2.2,0,1.5-1.5,1.6-2.5,1.9-1.1.4-2.2.5-3.3.9-4.6,1.6-6.1,8-2.4,11.2,3.2,2.8,7.2,4.3,11.4,2.7,3.9-1.5,7.3-1.2,10.8,1-7.6,6.1-16.3,7.5-25.7,5.7-6.8-2.8-11.1-7.9-13.1-14.9-.8-3.8-.2-6,4.7-6.1,4.3-.1,8.6-1.8,12.9-2.8,2.1,1.6,3,.1,4-1.4.3-.1.7-.2,1-.4h0Z"/>
            <path class="cls-1" d="M519.4,206.4c-9.2-1.2-18.9,5.8-21.8,15.7-.6,2.2-1,4.6-3.8,5.1.8-2.5,1.6-5.1,2.4-7.6,3.6-6.6,7.6-12.9,15.4-15.3,2.9-.9,5.8-1.1,7.8,2.1h0Z"/>
            <path class="cls-1" d="M514.3,257.3c-.9,1.6-1.9,3.1-4,1.4,1.3-.5,2.6-1,4-1.4Z"/>
            <path class="cls-1" d="M461.2,273.7c-.3.2-.5.5-.8.7.1-.6.2-1.1.3-1.7.2.3.3.6.5,1h0Z"/>
            <path class="cls-1" d="M339.5,359.7c4.1.1,5.4,2.4,4.6,6.2-.2,1-.6,1.9.3,2.7-10.1,7.2-21.4,12-33.3,14.9-6.9,1.7-12.4-1.5-17.1-6.3-.2-3.3-2-7.1,3-8.6,1,0,2,0,2.9,0,.2,1.2.6,2.5,1.9,2.6,5.8.6,11.4,2.3,17.3-.2,7.3-3,14.2-6.4,20.4-11.3h0Z"/>
            <path class="cls-1" d="M291.1,361.7c-2.7-.3-3.9,1-5,3.3-1.8,3.5-2.8,7.6-6.8,9.5l-.3-.3c1.7-4.4,5-7.9,6.2-12.5.2-.2.2-.5.2-.8,1.8-.9,1.1-3.7,3.3-4.5.7,1.3,1.3,2.5,2,3.7.2.5.4,1,.6,1.5h-.1c0,.1,0,.1,0,.1Z"/>
            <path class="cls-1" d="M247.5,391.3c3-1.8,6.6,0,9.7-1.5h.2c1.3-.3,2.6-.2,3.6-1.3,1.3.4,2.5,0,3.5-.9.6-.1,1.1-.2,1.7-.3l.2.2c-5.6,4.5-12.1,5-18.9,3.9h0Z"/>
            <path class="cls-1" d="M279.2,374.5c-1.4,5.4-4.2,9.4-9.9,10.9l-.2-.2c0-.3.1-.5.2-.8h0c.4-.3.7-.7,1.1-1.1v.2c3.7-2.4,5.3-6.5,8.4-9.4l.3.3h0Z"/>
            <path class="cls-1" d="M299.9,368.6c-1,0-2,0-2.9,0-.6-1.6-2.9-2-3-4h.2c.6,0,1.1.2,1.7.4l-.2-.2c.4.4.8.8,1.2,1.1h-.2c.5.7,1.2,1.1,2.1,1.1v-.2c-.1.8.4.9,1,1,0,.3,0,.5.1.8h-.1q0,.1,0,.1Z"/>
            <path class="cls-1" d="M269.4,385.4c-.3,1.8-1.6,1.9-3,2l-.2-.2c0-.2.1-.5.2-.7h0c.9-.4,1.8-.8,2.7-1.2l.2.2h0Z"/>
            <path class="cls-1" d="M294,364.6c-.3-.3-.7-.6-1-1h.1c.3,0,.6,0,.9,0h0c0,.3.1.6.1.8h-.2c0,.1,0,.1,0,.1Z"/>
            <path class="cls-1" d="M293,363.6c-.3-.3-.7-.6-1-1h.1c.3,0,.6,0,.8,0h0c0,.3.1.6.1.8h-.1Z"/>
            <path class="cls-1" d="M292,362.6c-.3-.3-.6-.6-.9-1h.1c.3.2.6.5,1,.8h-.1c0,.1,0,.1,0,.1Z"/>
            <path class="cls-1" d="M100.3,344.8c.8-1.8,1.7-3.6,2.6-5.4.9.5,1.8,1.1,2.7,1.6,0,.3,0,.5.2.7-.2.4-.3.8-.5,1.1,0,0,0,0,0,0-.6.1-1.2.1-1.1,1v-.2c-1-.3-1.7,0-2,1.1,0,0,0-.2,0-.2-.6.1-1.2.2-1.8.3h0c0,0,0,0,0,0Z"/>
            <path class="cls-1" d="M102.7,339.5c-3.6-.8-7.2-.1-10.8.3,3.6-2.3,7.2-3.1,10.8-.3Z"/>
            <path class="cls-1" d="M85.2,345.4c.4,1.4-.2,2.2-1.6,2.3.6-.8,1.1-1.6,1.6-2.3Z"/>
            <path class="cls-1" d="M83.5,347.7c0,.8-.3,1.6-1.1,2,0-.8.3-1.6,1.1-2Z"/>
            <path class="cls-1" d="M86.2,344.4c0,.7-.4,1.1-1.1,1.2.4-.4.7-.8,1.1-1.2Z"/>
            <path class="cls-1" d="M87.2,343.4c0,.7-.4,1.1-1.1,1.2.3-.4.7-.8,1.1-1.2Z"/>
            <path class="cls-1" d="M88.2,342.4c0,.7-.4,1-1.1,1.1.4-.4.8-.7,1.1-1.1Z"/>
            <path class="cls-1" d="M89.3,341.5c-.4.4-.8.7-1.2,1.1.4-.4.8-.7,1.2-1.1Z"/>
            <path class="cls-1" d="M90.4,340.7c-.4.4-.8.7-1.3,1,.4-.3.8-.7,1.3-1Z"/>
            <path class="cls-1" d="M91.5,339.9c-.4.3-.8.6-1.2.9.4-.3.8-.6,1.2-.9Z"/>
            <path class="cls-1" d="M582.2,283c6.1,3.2,12.6,1.2,18.9,1.5-8.4,3.5-16.3,3.4-23.4-2.9,1.5.5,3,1,4.5,1.4h0Z"/>
            <path class="cls-1" d="M576.1,280.2c.5.4,1,.8,1.5,1.2-.8,0-1.5-.2-1.5-1.2Z"/>
            <path class="cls-1" d="M572.8,276.7c.4.5.8,1,1.2,1.5-.9-.1-1.2-.7-1.2-1.5Z"/>
            <path class="cls-1" d="M574.1,278.3c.3.3.6.6.8.9-.3-.3-.6-.6-.8-.9Z"/>
            <path class="cls-1" d="M575,279.3c.3.3.6.5.9.8-.6,0-.9-.2-.9-.8Z"/>
            <path class="cls-1" d="M339.5,359.7c-6.1,5-13.1,8.3-20.4,11.3-6,2.5-11.6.8-17.3.2-1.3-.1-1.7-1.4-1.9-2.6h.1c7.9,2.4,15.6,2.2,23.4-1.2,7.8-3.5,14-8.8,20-14.6h.1c-.4,2.9-2.6,4.7-4,6.9h0Z"/>
            <path class="cls-1" d="M348,346.5c1.1-1.8,2.2-3.5,3.2-5.3.2,2.6-.2,4.7-3.2,5.3Z"/>
            <path class="cls-1" d="M343.5,351c.6-.1,1.1-.3,1.7-.4.1,1.3-.5,2-1.7,2.3h-.1c0-.7,0-1.3.1-1.9Z"/>
            <path class="cls-1" d="M345.2,350.7c0-.8.4-1.5,1.2-1.8,0,.8-.4,1.5-1.2,1.8Z"/>
            <path class="cls-1" d="M346.4,348.8c.3-.4.6-.7.9-1.1-.3.4-.6.7-.9,1.1Z"/>
            <path class="cls-1" d="M347.2,347.8c.3-.4.6-.9.9-1.3-.3.4-.6.9-.9,1.3Z"/>
            <path class="cls-1" d="M126.2,242.6c.4.5.7.9,1.1,1.4-.4-.5-.7-.9-1.1-1.4Z"/>
            <path class="cls-1" d="M99.1,347.6c-.5.4-1.1.9-1.6,1.3,0-1.5,0-2.8,1.9-3.2h0c0,.7-.2,1.3-.3,1.9,0,0,0,0,0,0Z"/>
            <path class="cls-1" d="M115.3,368.9c.9-.1,1.9-.3,2.9-.5-.8,1.2-1.8,1.3-2.9.5Z"/>
            <path class="cls-1" d="M99.3,345.8c.3-.3.6-.6,1-1h0c-.3.4-.7.7-1,1.1h0c0-.1,0-.1,0-.1Z"/>
            <path class="cls-1" d="M421.5,197.4c-.3,0-.6,0-1,0,.3,0,.6,0,1,0Z"/>
            <path class="cls-1" d="M419.6,165.7c.4.4.7.8,1.1,1.1-.4-.4-.7-.8-1.1-1.1Z"/>
            <path class="cls-1" d="M453.8,243c-.1-2-.2-3.9-.3-5.9,2.5,1.8,2.1,3.8.3,5.9Z"/>
            <path class="cls-1" d="M459.8,248c0,1,0,2,0,2.9-2.3-1.1-2.2-2,0-2.9Z"/>
            <path class="cls-1" d="M362.2,294.5c-.2-.6-.5-1.1-.7-1.7,0,0,.2-.1.4-.2.1.6.2,1.2.4,1.9h0Z"/>
            <path class="cls-1" d="M256.2,351.4c-2-6.4-.4-13-1.4-19.4.1-7.7.2-15.3.4-23,.2-3.2.3-6.4.5-9.6,1.1-1.9,1.1-3.9,0-5.9,0-5,0-10,0-14.9.4-6.9.5-13.7-.4-20.6,1.7-4.6,1.1-8.7-2.9-11.9,3.1-.6,6.2-1,8.9,1.1,1.5,1.2,1.9.2,2.5-.8,1.4-2,2.8-4.1,5.3-4.8-4.1,6.2-1,10.5,3.8,14.4,1.8,4.1,1.2,8.4,1.3,12.6.3,18.2.5,36.4.7,54.5-.3,3.3-.6,6.6-.9,9.9-1.3-1.6-.9-3.5-.9-5.2,0-11.8,0-23.6,0-35.4,0-1.7.7-3.6-.8-5.1-2.4,2.9-2.6,4.7-1.7,9.9.8,4.1-5.1,15.1-8.5,14.6-7.5-1-5.6,4-5.7,7.6-.2,10.7-.2,21.3-.3,32h0Z"/>
            <path class="cls-1" d="M252.6,246.1c4,3.2,4.6,7.3,2.9,11.9-14.3,7.1-30,10.2-45.2,14.8-4.9-1.1-9.8-2.1-14.7-3.2-.6-1.9,1.1-3.2,1.4-4.8,5.5-5.6,13.2-6.3,19.9-9,11.9-3.2,23.7-6.4,35.6-9.7h0Z"/>
            <path class="cls-1" d="M305.9,231.2c.3-.1.7-.3,1-.4l.8,1.5c-.6-.4-1.2-.7-1.8-1.1Z"/>
            <path class="cls-1" d="M308,328.9c0-.9-.1-1.9-.2-2.8,1.4-5.5,5.2-9,9.8-11.8,1.4-.8,2.4-1.9,2.6-3.4.5-3.7,2.6-6.2,5.2-8.5.1,1.4.3,2.8.4,4.1-.1.2-.1.4,0,.5,0,4.4.2,8.7.2,13.1-.3,3.4.2,6.9-1.1,10.2-2.6,6.6-7.3,7.7-12.6,3-1.2-1.1-2.3-2.3-3.5-3.4-.4-.3-.8-.7-1.1-1h.2s0,0,0,0Z"/>
            <path class="cls-1" d="M306,299.4c-.1-5-.2-9.9-.4-14.8.5-12.2.9-24.4,1.4-36.5.8.9.9,2.1.9,3.3.1,15.3,0,30.6-1,45.8,0,.8-.5,1.5-.8,2.3h0Z"/>
            <path class="cls-1" d="M239.8,114.9c-.3.1-.6.2-.9.3,0-.7.3-1.1.9-.3Z"/>
            <path class="cls-1" d="M693.2,248.1c.4-.4.7-.7,1.1-1.1-.4.4-.7.7-1.1,1.1Z"/>
            <path class="cls-1" d="M692.2,249.1c.4-.4.7-.8,1.1-1.1-.4.4-.7.8-1.1,1.1Z"/>
            <path class="cls-1" d="M691.2,250c.4-.4.7-.7,1.1-1.1-.4.4-.7.7-1.1,1.1Z"/>
            <path class="cls-1" d="M622.3,271.6c.2-.2.5-.5.7-.7-.2.2-.5.5-.7.7Z"/>
            <path class="cls-1" d="M614.4,277.6c.3-.2.7-.5,1-.7-.3.2-.7.5-1,.7Z"/>
            <path class="cls-1" d="M609.2,255.9l-.2.3h-.3c-8.5-.6-8.6-1-9.5-9.3-.4-3.9-1-7.7-.8-11.6,1.8,0,3.2-.7,4.3-2,2.5-2.7,5.3-3.7,8.5-1.1,4,3.2,2.9-1.8,4.4-2.7,4.5,4.8,3.9,10.7,3.4,16.5,0,.4.2.9.3,1.3,0,0,0-.1,0-.1-.4.4-.7.8-1.1,1.2l.2-.2c-.3.4-.7.8-1,1.2,0,0,.1-.1.1-.1-.7.1-1,.5-1.1,1.1h.1c-.4.2-.8.6-1.2,1v-.2c-.3.4-.7.7-1.1,1.1l.2-.2c-.4.4-.8.7-1.2,1.1-.3.3-.6.5-1,.8-1.4,0-2.8,0-3.1,1.9h0Z"/>
            <path class="cls-1" d="M619.4,247.3c0-.4-.2-.9-.3-1.3.4,0,.8,0,1.2,0-.3.4-.6.8-.9,1.2h0Z"/>
            <path class="cls-1" d="M609.2,255.9c.3-1.9,1.6-1.9,3.1-1.9-.8,1-1.9,1.6-3.1,1.9Z"/>
            <path class="cls-1" d="M618.4,248.4c.4-.4.7-.8,1.1-1.2-.4.4-.7.8-1.1,1.2Z"/>
            <path class="cls-1" d="M617.5,249.4c.3-.4.7-.8,1-1.2-.3.4-.7.8-1,1.2Z"/>
            <path class="cls-1" d="M616.5,250.4c0-.7.5-1,1.1-1.1-.4.4-.7.8-1.1,1.1Z"/>
            <path class="cls-1" d="M615.4,251.4c.4-.4.8-.7,1.2-1.1-.4.4-.8.7-1.2,1.1Z"/>
            <path class="cls-1" d="M614.3,252.3c.4-.4.8-.7,1.2-1.1-.4.4-.8.7-1.2,1.1Z"/>
            <path class="cls-1" d="M613.3,253.2c.4-.4.8-.7,1.2-1.1-.4.4-.8.7-1.2,1.1Z"/>
            <path class="cls-1" d="M718.3,305.4c-.5,1.6-.9,3.2-2.3,4.4,0-1.8-.8-4.1,2.3-4.4Z"/>
            <path class="cls-1" d="M719.2,302.5c0,.3,0,.6-.2.8,0-.2-.1-.5-.1-.7,0,0,.2-.1.4-.1Z"/>
            <path class="cls-1" d="M227.7,375.5c.3.2.5.4.4.8-.2-.1-.4-.3-.6-.5,0,0,.1-.2.2-.4h0Z"/>
            <path class="cls-1" d="M517.4,226.3c-.1-2.5,1-4.8,1.8-7,1.5-4.3,1.1-8.6.2-12.9,4.2,5.2,3.4,12.4-2,19.9h0Z"/>
            <path class="cls-1" d="M513.4,231.3c-.1-2.8,1-4.6,4-5-1,2-2.1,3.8-4,5Z"/>
            <path class="cls-1" d="M510.8,233.6c-.1-.2-.3-.4-.5-.5.2.1.3.3.5.5h0q0,0,0,0Z"/>
            <path class="cls-1" d="M265.2,354.7c-1.9.5-3.5,2.3-5.7,1.9-1.2-1.7-3.3-2.8-3.2-5.2,0-10.7,0-21.3.3-32,0-3.6-1.7-8.7,5.7-7.6,3.4.5,9.2-10.5,8.5-14.6-1-5.2-.7-7,1.7-9.9,1.5,1.5.8,3.4.8,5.1,0,11.8,0,23.6,0,35.4,0,1.8-.4,3.6.9,5.2h.4c-.9,8.1-2.8,15.9-9.3,21.7h0Z"/>
            <path class="cls-1" d="M269.4,384.5c.4-.4.7-.7,1.1-1.1-.4.4-.7.7-1.1,1.1Z"/>
            <path class="cls-1" d="M295.7,364.7c.4.4.8.8,1.2,1.1-.4-.4-.8-.8-1.2-1.1Z"/>
            <path class="cls-1" d="M400.9,244.5c2.9-5.1,7.2-8.7,12.4-11.2,7.1-3.6,12-.7,12.5,7.1.7,10.5-5.8,17.1-12.6,23.5-4.7,4.4-10.4,7.5-16,10.6-3.3,0-3.6-2.1-3.5-4.6.3-7.6,2.5-14.8,5.6-21.7.5-1.2,1-2.4,1.5-3.6h0Z"/>
            <path class="cls-1" d="M307.9,328.9c.4.3.8.7,1.1,1-.4-.3-.8-.7-1.1-1Z"/>
            <path class="cls-1" d="M325.9,307c-.2-.1-.2-.3,0-.5l.3.2-.2.3h0Z"/>
            <path class="cls-1" d="M255.7,299.4c-.1-.6-.2-1.2-.4-1.8.1-1.4.3-2.7.5-4,1,2,1,3.9,0,5.9h0Z"/>
          </g>
        </g>
      </g>
    </g>
  </g>
</svg>