<?xml version="1.0" encoding="UTF-8"?>
<svg xmlns="http://www.w3.org/2000/svg" version="1.1" viewBox="0 0 841.89 595.28">
  <!-- Generator: Adobe Illustrator 28.6.0, SVG Export Plug-In . SVG Version: 1.2.0 Build 709)  -->
  <g>
    <g id="Layer_1">
      <g>
        <path d="M328.88,38.75c4.69,2.57,9.95,4.46,13.97,7.83,9.24,7.74,11.22,18.71,11.27,30.09.09,19.46.03,38.91.03,58.37,0,129.54.06,259.08-.15,388.62-.01,7.17-1.1,14.78-3.68,21.41-5.79,14.85-20.46,21.78-35.54,16.72-15-5.03-29.57-11.34-44.29-17.18-15.2-6.03-30.35-12.19-45.53-18.28-14.69-5.89-25.35-15.24-27.57-31.91-.04-.27-.43-.49-.66-.73,0-128.42,0-256.85,0-385.27.22-.24.61-.47.65-.74,2.19-16.63,12.78-26.06,27.45-31.88,31.25-12.4,62.54-24.71,93.81-37.06,3.41,0,6.83,0,10.24,0ZM336.62,301.28c0-73.75,0-147.5-.02-221.25,0-3.4-.2-6.82-.55-10.21-1.15-11.21-8.63-16.21-18.95-12.11-29.77,11.83-59.41,23.97-89.13,35.92-8.95,3.6-13.22,10.3-13.67,19.71-.12,2.56-.13,5.12-.13,7.68,0,120.02,0,240.03,0,360.05,0,2.56,0,5.12.13,7.68.45,9.41,4.71,16.12,13.69,19.68,7.6,3.02,15.07,6.36,22.65,9.41,21.98,8.83,43.96,17.66,66,26.33,10.73,4.22,18.23-.5,19.4-11.94.35-3.39.54-6.81.55-10.21.03-73.58.02-147.16.02-220.74Z"/>
        <path d="M689.89,309.66h-5.97c-93.54,0-187.08,0-280.62-.01-2.38,0-4.81.04-7.14-.37-4.22-.74-6.59-3.51-6.84-7.75-.26-4.47,1.88-7.63,6.27-8.7,2.45-.6,5.06-.65,7.6-.65,93.54-.03,187.08-.03,280.62-.03h7.12c-1.94-2.12-3.09-3.48-4.34-4.73-21.48-21.49-42.97-42.98-64.45-64.47-1.2-1.21-2.46-2.38-3.5-3.72-2.91-3.78-2.77-8.54.25-11.67,3.26-3.39,7.97-3.58,12.03-.41,1.07.83,2,1.85,2.97,2.82,27.4,27.4,54.8,54.81,82.19,82.22,6.87,6.87,6.86,10.75-.02,17.63-27.39,27.41-54.79,54.82-82.21,82.2-1.44,1.44-2.95,2.93-4.7,3.9-3.72,2.07-7.34,1.4-10.25-1.63-2.93-3.07-3.23-6.73-1.05-10.33,1.04-1.72,2.57-3.17,4.01-4.61,21.47-21.51,42.95-43,64.47-64.45,1.32-1.31,3-2.25,4.52-3.36-.32-.62-.64-1.24-.96-1.86Z"/>
        <path d="M546.34,180.77c0,21.17,0,42.34-.01,63.51,0,1.87.04,3.78-.27,5.62-.72,4.19-3.3,6.71-7.55,7.1-4.48.41-7.67-1.67-8.91-5.99-.64-2.25-.72-4.71-.72-7.08-.04-40.81-.48-81.62.17-122.42.31-19.58-12.95-30.89-30.77-30.61-38.23.59-76.48.18-114.71.17-2.04,0-4.16.14-6.12-.32-4.07-.95-6.53-3.62-6.72-7.93-.19-4.27,1.84-7.26,5.89-8.52,1.91-.59,4.03-.65,6.05-.66,39.09-.04,78.18-.07,117.28-.01,27.72.04,46.21,18.45,46.36,46.18.11,20.32.02,40.64.02,60.95Z"/>
        <path d="M546.34,421.54c0,20.48.18,40.97-.05,61.45-.29,26.46-18.24,45.02-44.61,45.29-39.76.41-79.53.14-119.3.08-6.92,0-10.78-3.48-10.61-9.06.16-5.39,3.81-8.36,10.66-8.37,39.08-.04,78.17,0,117.25-.03,14.91-.01,25.18-7.24,28.33-20.16.79-3.26.8-6.76.8-10.15.05-40.8.02-81.6.05-122.39,0-2.2.07-4.46.55-6.59,1.06-4.64,4.18-6.94,8.92-6.61,4.53.31,7.13,2.98,7.77,7.42.27,1.85.22,3.74.22,5.62.01,21.17,0,42.33,0,63.5Z"/>
        <path d="M318.84,301.06c0,9.03.21,18.06-.08,27.08-.16,4.79-3.5,7.25-8.08,7.66-4.13.37-7.69-2.69-8.66-7.07-.22-.99-.42-2.02-.42-3.03-.02-16.53-.12-33.07.04-49.6.06-6.27,3.54-9.9,8.68-9.94,5.33-.03,8.62,3.71,8.73,10.34.13,8.18.03,16.36.03,24.54-.08,0-.16,0-.24,0Z"/>
      </g>
    </g>
  </g>
</svg>