<?xml version="1.0" encoding="UTF-8"?>
<svg xmlns="http://www.w3.org/2000/svg" version="1.1" viewBox="0 0 841.9 595.3">
  <defs>
    <style>
      .cls-1 {
        fill: #fff;
        stroke: #000;
        stroke-miterlimit: 10;
      }
    </style>
  </defs>
  <!-- Generator: Adobe Illustrator 28.6.0, SVG Export Plug-In . SVG Version: 1.2.0 Build 709)  -->
  <g>
    <g id="Layer_1">
      <g id="Layer_1-2" data-name="Layer_1">
        <g>
          <path class="cls-1" d="M328.9,38.8c4.7,2.6,10,4.5,14,7.8,9.2,7.7,11.2,18.7,11.3,30.1,0,19.5,0,38.9,0,58.4,0,129.5,0,259.1-.1,388.6,0,7.2-1.1,14.8-3.7,21.4-5.8,14.8-20.5,21.8-35.5,16.7-15-5-29.6-11.3-44.3-17.2-15.2-6-30.4-12.2-45.5-18.3-14.7-5.9-25.4-15.2-27.6-31.9,0-.3-.4-.5-.7-.7V108.4c.2-.2.6-.5.6-.7,2.2-16.6,12.8-26.1,27.4-31.9,31.2-12.4,62.5-24.7,93.8-37.1h10.2ZM336.6,301.3c0-73.8,0-147.5,0-221.2,0-3.4-.2-6.8-.5-10.2-1.1-11.2-8.6-16.2-19-12.1-29.8,11.8-59.4,24-89.1,35.9-8.9,3.6-13.2,10.3-13.7,19.7-.1,2.6-.1,5.1-.1,7.7v360c0,2.6,0,5.1.1,7.7.4,9.4,4.7,16.1,13.7,19.7,7.6,3,15.1,6.4,22.6,9.4,22,8.8,44,17.7,66,26.3,10.7,4.2,18.2-.5,19.4-11.9.4-3.4.5-6.8.5-10.2,0-73.6,0-147.2,0-220.7h0Z"/>
          <path class="cls-1" d="M689.9,309.7h-6c-93.5,0-187.1,0-280.6,0-2.4,0-4.8,0-7.1-.4-4.2-.7-6.6-3.5-6.8-7.8-.3-4.5,1.9-7.6,6.3-8.7,2.5-.6,5.1-.6,7.6-.6,93.5,0,187.1,0,280.6,0h7.1c-1.9-2.1-3.1-3.5-4.3-4.7-21.5-21.5-43-43-64.5-64.5-1.2-1.2-2.5-2.4-3.5-3.7-2.9-3.8-2.8-8.5.2-11.7,3.3-3.4,8-3.6,12-.4,1.1.8,2,1.9,3,2.8,27.4,27.4,54.8,54.8,82.2,82.2,6.9,6.9,6.9,10.8,0,17.6-27.4,27.4-54.8,54.8-82.2,82.2-1.4,1.4-3,2.9-4.7,3.9-3.7,2.1-7.3,1.4-10.2-1.6-2.9-3.1-3.2-6.7-1-10.3,1-1.7,2.6-3.2,4-4.6,21.5-21.5,43-43,64.5-64.5,1.3-1.3,3-2.2,4.5-3.4l-1-1.9h0Z"/>
          <path class="cls-1" d="M546.3,180.8c0,21.2,0,42.3,0,63.5,0,1.9,0,3.8-.3,5.6-.7,4.2-3.3,6.7-7.5,7.1-4.5.4-7.7-1.7-8.9-6-.6-2.2-.7-4.7-.7-7.1,0-40.8-.5-81.6.2-122.4.3-19.6-13-30.9-30.8-30.6-38.2.6-76.5.2-114.7.2-2,0-4.2.1-6.1-.3-4.1-.9-6.5-3.6-6.7-7.9-.2-4.3,1.8-7.3,5.9-8.5,1.9-.6,4-.7,6-.7,39.1,0,78.2,0,117.3,0,27.7,0,46.2,18.5,46.4,46.2.1,20.3,0,40.6,0,60.9h0Z"/>
          <path class="cls-1" d="M546.3,421.5c0,20.5.2,41,0,61.5-.3,26.5-18.2,45-44.6,45.3-39.8.4-79.5.1-119.3,0-6.9,0-10.8-3.5-10.6-9.1.2-5.4,3.8-8.4,10.7-8.4,39.1,0,78.2,0,117.2,0,14.9,0,25.2-7.2,28.3-20.2.8-3.3.8-6.8.8-10.1,0-40.8,0-81.6,0-122.4,0-2.2,0-4.5.5-6.6,1.1-4.6,4.2-6.9,8.9-6.6,4.5.3,7.1,3,7.8,7.4.3,1.9.2,3.7.2,5.6,0,21.2,0,42.3,0,63.5h0Z"/>
          <path class="cls-1" d="M318.8,301.1c0,9,.2,18.1,0,27.1-.2,4.8-3.5,7.2-8.1,7.7-4.1.4-7.7-2.7-8.7-7.1-.2-1-.4-2-.4-3,0-16.5-.1-33.1,0-49.6,0-6.3,3.5-9.9,8.7-9.9,5.3,0,8.6,3.7,8.7,10.3.1,8.2,0,16.4,0,24.5h-.2Z"/>
        </g>
      </g>
    </g>
  </g>
</svg>