<?xml version="1.0" encoding="UTF-8"?>
<svg xmlns="http://www.w3.org/2000/svg" version="1.1" viewBox="0 0 841.89 595.28">
  <defs>
    <style>
      .cls-1 {
        fill: #f9e3e9;
      }

      .cls-2 {
        fill: #f9e4e9;
      }
    </style>
  </defs>
  <!-- Generator: Adobe Illustrator 28.6.0, SVG Export Plug-In . SVG Version: 1.2.0 Build 709)  -->
  <g>
    <g id="Layer_1">
      <g>
        <path class="cls-2" d="M640.51,308.14c-3.32-.48-4.44,1.2-3.93,4.19,1.48,8.67-.22,17.47,1.17,26.14.27,1.67-.56,2.49-2.19,2.51-2.52.03-5.04,0-7.55.02-1.15,0-1.84-.43-1.97-1.67-.14-1.3-.62-2.58-.6-3.87.14-7.65-1.18-15.26-.69-22.92.17-2.63-.59-4.03-3.6-3.2-1.12.31-2.39.11-3.6.12-6.12.01-6.93-.96-5.93-7.12.28-1.74,1.05-2.34,3.1-2.35,6.96-.04,13.92-.52,20.88-.83,1.64-.07,3.27-.15,4.91-.22.22.22.43.44.65.66.44.22.89.44,1.33.66v3.94c-1.51.89-1.93,2.31-1.97,3.93Z"/>
        <path class="cls-2" d="M198.83,274.63c.22,0,.44.01.65-.03,7.97-1.72,8.48-1.07,9.96,7.36,1.18,6.73,4,13.1,5.3,19.85.29,1.5,1.68,1.13,2.72.89,4.63-1.07,9.31-2.02,13.86-3.36,2.74-.81,3.6.43,4.1,2.63.17.74.2,1.51.35,2.26.75,3.73.41,3.76-3.2,4.65-7.38,1.81-14.86,3.34-21.97,6.11-2.91,1.13-4.67.44-5.22-2.63-1.12-6.32-3.79-12.24-4.71-18.6-.14-.98-.63-1.89-1.84-2.03v-17.09Z"/>
        <path class="cls-2" d="M510.99,311.52c2.63-2.16,3.98-5.05,5.8-7.5,2.47-3.31,4.5-6.94,6.84-10.34,2.47-3.59,3.71-3.87,8.36-2.28,4.46,1.52,4.71,2.14,2.09,6.12-6.61,10.05-13.26,20.07-19.91,30.09-1.09,1.64-2.83.98-4.21.77-2.91-.45-5.42-2.27-8.42-2.65-1.28-.16-1.05-1.52-1.01-2.45.23-6.12-.27-12.22-.68-18.32-.06-.91.41-2.19-.91-2.5-1.23-.29-1.58.95-2.1,1.73-2.98,4.44-5.97,8.88-8.91,13.34-2.18,3.32-4.01,3.9-7.65,2.3-.1-.04-.18-.12-.28-.17-2.37-1-5.92-.35-6.97-2.93-.9-2.21.2-5.14-.17-7.67-1.32-8.9.29-17.92-1.23-26.79-.37-2.18.9-4.25.21-6.48-.3-.98.78-1.27,1.56-1.05,2.91.84,5.86,1.62,8.67,2.73,1.52.6,1.36,2.33,1.38,3.76.09,6.86.19,13.71.27,20.57,0,.6.09,1.13.67,1.34.65.24.94-.3,1.29-.72,2.78-3.38,5.2-7.01,7.54-10.7,1.78-2.8,3.71-5.5,5.57-8.25.06-.09.12-.2.21-.25,3.31-1.83,5.95,1.1,9,1.3,1.75.11,2.39,1.62,2.41,3.38.07,7.71-.35,15.43.61,23.6Z"/>
        <path class="cls-1" d="M567.51,306.16c-4.84-.7-9.75-1.11-14.5-2.22-3.17-.74-3.23,1.25-3.75,3.07-.62,2.18.49,3.58,2.55,3.57,3.55-.02,6.82,1.45,10.33,1.54,3.6.09,4.62,1.59,4.04,5.44-.53,3.51-1.49,4.02-5.18,3.44-3.75-.59-7.55-.85-11.3-1.6-3.26-.66-2.94,2.63-3.68,4.33-.81,1.84,1.07,2.39,2.45,2.64,5.24.98,10.48,2.06,15.77,2.65,2.53.28,2.7,1.44,2.68,3.4-.04,5.63-.84,6.29-6.29,5.35-8.15-1.39-16.3-2.76-24.48-3.92-2.37-.33-2.75-1.46-2.81-3.48-.13-4.85,1.78-9.34,2.25-14.12.69-7.11,2.46-14.11,3.62-21.18.31-1.87.66-2.59,2.87-2.22,9.01,1.51,18.05,2.8,27.1,4.07,2.24.31,3.17,1.13,2.32,3.42-.34.91-.66,1.93-.59,2.86.2,2.62-1.09,3.3-3.38,2.94Z"/>
        <path class="cls-2" d="M600.65,308.81c-2.94-.08-5.87.08-8.81-.55-2.05-.44-3.98.04-3.94,2.94.03,2.43.3,4.58,3.5,4.15,4.35-.6,8.64,1.54,13.01.22.99-.3,1.67.46,1.81,1.45.31,2.2.06,4.36-.64,6.47-.36,1.08-1.26,1.12-2.14,1.07-3.7-.19-7.4.34-11.11-.49-3.9-.87-6.18,1.94-5.04,5.79.33,1.11,1.09,1.13,1.97,1.31,5.05,1.02,10.17.67,15.26.88,3.59.14,4.32.62,3.83,4.09-.86,6.18-.84,6.05-7.22,5.07-3.65-.56-7.38-.75-11.07-.82-4.26-.08-8.5-.14-12.74-.67-1.76-.22-2.49-.91-2.57-2.66-.12-2.75.42-5.43.64-8.14.75-9.44,1.41-18.89,1.97-28.35.12-2,1.09-2.2,2.72-2.32,4.18-.31,8.29.48,12.4.84,4.59.41,9.16.53,13.73.46,3.58-.05,3.41,2.27,3.39,4.63-.01,2.34.23,4.84-3.37,4.63-1.85-.11-3.72-.02-5.58-.02Z"/>
        <path class="cls-2" d="M294.23,259.9c-1.36-3.27.39-3.6,3.36-3.82,5.86-.44,11.72-1.09,17.6-1.11,2.64-.01,5.21-.47,7.81-.71,2.93-.27,3.84,1.41,3.99,3.96.16,2.65.23,5.06-3.5,5.26-4.14.23-8.25.66-12.41.75-1.74.04-4.39-.38-4.5,2.9-.14,4.06-.05,4.4,4.06,4.18,3.81-.21,7.59-.76,11.43-.66,1.98.05,2.96.44,3,2.72.08,5.19.16,5.01-4.95,6.01-2.85.56-5.66.41-8.48.52-3.82.15-4.55.87-4.36,4.37.16,2.95,1.38,3.91,4.96,3.46,4.54-.57,9.06-1.2,13.65-1.32,2.43-.07,3.33.99,3.68,3.11,1,6.15,1,5.92-5.26,6.22-6.73.32-13.47.9-20.15,1.8-6.09.81-7.6-.02-8.01-6.14-.55-8.26-.95-16.54-1.35-24.81-.11-2.18-1.09-4.27-.56-6.67Z"/>
        <path class="cls-2" d="M389.82,298.94c-6.36.08-12.21-1.87-17.87-4.51-1.77-.83-2.97-2.01-1.34-4.08.32-.41.38-1.02.63-1.5,2.58-5.02,2.45-4.79,7.28-1.94,3.88,2.29,8.29,2.94,12.85,2.24,1.53-.23,3.02-.57,3.12-2.26.09-1.57-1.26-2.4-2.63-2.98-4.2-1.77-8.45-3.45-12.59-5.36-5.49-2.53-6.73-5.03-6.26-11.88.28-4.12,3.4-7.69,7.54-9.37,8.68-3.53,16.7-1.1,24.66,2.34,1.43.62,1.45,1.75,1.02,3.02-.63,1.86-1.89,3.4-2.62,5.26-.61,1.56-2.1.58-3.11.06-3.8-1.93-7.82-2.64-12.04-2.57-1.69.03-3.08.42-3.53,2.24-.47,1.89.75,2.5,2.21,3.39,3.51,2.13,7.6,2.55,11.25,4.34,7.65,3.74,10.05,10.29,5.54,17.59-2.53,4.1-6.98,5.3-11.49,5.95-.86.12-1.75.02-2.62.02Z"/>
        <path class="cls-1" d="M445.75,308.14c-7.27.11-13.56-2.58-19.37-6.7-1.96-1.39-1.83-3.01-.72-4.81.11-.18.3-.32.44-.49,3.39-3.97,3.35-3.92,7.74-1.14,3.43,2.17,7.12,3.73,11.26,3.96,1.79.1,3.29-.21,3.87-2.19.57-1.97-.92-2.86-2.18-3.58-3.02-1.72-6.26-3.08-9.23-4.86-4.19-2.51-7.45-5.33-7.55-11.19-.13-8.08,9.74-13.22,15.53-12.27,5.55.91,10.73,2.53,15.72,5.08,3.65,1.87,4,2.89,1.44,6.06-.47.58-.66,1.39-1.16,1.94-1.11,1.25-2.12,2.23-4.1.89-3.33-2.25-6.92-4.14-11.14-4.22-1.7-.03-3.41-.04-4.09,1.92-.64,1.85.86,2.8,1.96,3.8,1.9,1.72,4.46,2.23,6.65,3.44,3.07,1.69,6.3,3.34,8.19,6.31,5.72,8.97-1.24,16.75-9.65,18.02-1.18.18-2.4.02-3.61.02Z"/>
        <path class="cls-2" d="M263.48,302.17c-3.25.9-3.67-1.39-4.16-3.79-1.61-7.87-2.29-15.86-3.51-23.78-.45-2.95-.89-5.99-1.56-8.94-.52-2.28-.35-3.92,2.74-4.3,8.74-1.09,17.44-2.51,26.15-3.77,1.84-.27,3.26.03,3.18,2.46-.04,1.06.41,2.13.57,3.21.27,1.92-.42,3.13-2.48,3.49-3.87.68-7.75,1.11-11.66,1.41-2.32.18-5.59-.49-5.58,3.72,0,4.68.72,5.65,5.36,5.35,3.58-.23,7.13-.84,10.7-1.27,2.58-.31,4.02.61,3.72,3.45-.07.64.02,1.32.16,1.95.59,2.79-.75,3.6-3.34,3.85-4,.38-7.95,1.18-11.93,1.77-1.46.22-2.01.71-1.64,2.39.72,3.29-.07,6.78,1.19,10.04.47,1.2-.1,2.03-1.3,2.07-2.19.06-4.26,1.13-6.58.7Z"/>
        <path class="cls-1" d="M365.77,265.46c-.38,8.18-.86,18.2-1.3,28.22-.08,1.7-.68,2.96-2.54,2.46-2.28-.62-4.56-.45-6.84-.46-1.56,0-2.54-.42-2.45-2.21.41-8.49.82-16.98,1.17-25.47.14-3.5.2-7,.11-10.5-.06-2.4.89-3.24,3.29-3.29,8.58-.17,8.58-.24,8.57,11.24Z"/>
        <path class="cls-2" d="M242.99,264.19c1.88-.03,1.42,2.23,1.71,3.56,1.5,6.79,2.67,13.66,4.19,20.45,1.07,4.78,2.35,9.5,2.83,14.4.16,1.61-.05,2.11-1.64,2.34-1.93.28-3.92.64-5.71,1.38-2.58,1.07-3.68-.07-4.22-2.31-.89-3.7-1.75-7.41-2.51-11.14-1.23-6.03-2.1-12.13-3.83-18.05-.03-.1-.06-.21-.09-.31-2.15-6.95-1.32-8.37,5.69-9.68.96-.18,1.93-.34,3.58-.63Z"/>
      </g>
    </g>
  </g>
</svg>