<?xml version="1.0" encoding="UTF-8"?>
<svg xmlns="http://www.w3.org/2000/svg" version="1.1" viewBox="0 0 841.89 595.28">
  <defs>
    <style>
      .cls-1 {
        fill: #fff;
      }
    </style>
  </defs>
  <!-- Generator: Adobe Illustrator 28.6.0, SVG Export Plug-In . SVG Version: 1.2.0 Build 709)  -->
  <g>
    <g id="Layer_1">
      <g>
        <path class="cls-1" d="M309.06,328.32h.28c0,14.1-.02,28.2,0,42.3.01,5.57,1.26,7.26,6.48,9.08,27.04,9.44,54.07,18.92,81.16,28.23,2.06.71,4.77.82,6.8.12,27.31-9.44,54.55-19.07,81.8-28.68,4.82-1.7,6.04-3.44,6.04-8.6.02-28.32.02-56.65,0-84.97,0-5.39-1.25-7.12-6.24-8.86-27.4-9.55-54.8-19.11-82.24-28.55-1.61-.55-3.74-.54-5.35.02-27.43,9.48-54.81,19.09-82.2,28.67-5.51,1.93-6.54,3.42-6.54,9.33,0,13.97,0,27.95,0,41.92ZM400.62,155.71c-49.05.01-95.22,20.46-128.15,56.78-54.75,60.37-59.43,152.57-11.06,218.05,2.15,2.91,4.52,5.65,6.65,8.56.5.68.43,1.78.63,2.69-.89.16-1.83.57-2.66.42-1.96-.35-3.85-1-5.79-1.47-4.78-1.17-7.88.43-9.08,4.66-1.14,4.05.83,7.39,5.46,8.65,12.02,3.27,24.05,6.49,36.12,9.55,6.32,1.6,10.27-2.5,8.77-8.9-.85-3.64-1.9-7.23-2.85-10.84-2.24-8.55-4.4-17.13-6.76-25.65-1.13-4.09-4.39-5.83-8.35-4.88-4,.96-5.85,3.86-5.11,8.17.25,1.47.86,2.88,1.02,4.35.08.72-.27,1.86-.8,2.16-.46.26-1.54-.23-2.17-.66-.59-.4-.95-1.14-1.4-1.74-30.53-40.66-40.51-85.91-28.7-135.32,21.21-88.77,114.92-141.32,201.7-113.37,10.02,3.23,19.51,8.1,29.2,12.34,4.32,1.89,7.9.98,9.79-2.86,1.95-3.96.48-7.37-4.33-9.96-25.65-13.77-53-20.78-82.14-20.73ZM530.79,214.36c2.22,0,3.39-.17,4.47.04,1.95.38,3.83,1.1,5.78,1.49,4.38.87,7.67-1.07,8.7-4.99.99-3.81-1.09-7.22-5.33-8.48-3.22-.96-6.5-1.74-9.75-2.59-8.55-2.25-17.1-4.53-25.66-6.76-7.24-1.88-11.14,2.1-9.27,9.42.37,1.45.74,2.9,1.12,4.34,2.71,10.36,5.37,20.74,8.17,31.08,1.14,4.19,4.27,6.05,8.15,5.21,4.21-.91,6.1-3.83,5.37-8.35-.18-1.1-.65-2.17-.72-3.28-.08-1.13.16-2.29.26-3.43,1.07.61,2.45.96,3.15,1.86,27.08,34.89,38.28,74.43,32.92,118.17-4.9,39.97-22.82,73.63-53.37,99.93-35.85,30.86-77.69,43.14-124.67,37.59-18.38-2.17-35.7-7.9-52.2-16.25-4.15-2.1-8.07-.84-9.88,2.81-1.83,3.67-.4,7.46,3.79,9.57,37.18,18.66,76.24,23.86,116.7,14.49,73.78-17.08,126.15-76.84,133.54-152.15,4.23-43.05-6.85-82.27-31.96-117.49-2.73-3.83-5.69-7.49-9.3-12.22Z"/>
        <path d="M309.06,328.32c0-13.97,0-27.95,0-41.92,0-5.92,1.03-7.41,6.54-9.33,27.39-9.58,54.77-19.19,82.2-28.67,1.61-.56,3.75-.57,5.35-.02,27.44,9.44,54.84,19,82.24,28.55,4.98,1.74,6.23,3.47,6.24,8.86.03,28.32.02,56.65,0,84.97,0,5.16-1.22,6.9-6.04,8.6-27.25,9.61-54.49,19.24-81.8,28.68-2.03.7-4.74.59-6.8-.12-27.09-9.31-54.12-18.79-81.16-28.23-5.22-1.82-6.47-3.5-6.48-9.08-.03-14.1,0-28.2,0-42.3h-.28ZM407.23,354.48c0,11.09-.01,22.19,0,33.28,0,4.1.55,4.51,4.32,3.19,21.01-7.38,42-14.84,63.04-22.14,2.7-.94,3.67-2.27,3.66-5.11-.1-21.69-.05-43.38-.06-65.07,0-4.31-.52-4.7-4.53-3.32-21.06,7.26-42.09,14.58-63.17,21.76-2.6.89-3.35,2.23-3.32,4.87.14,10.84.06,21.69.06,32.53ZM393.36,354.68c0-10.85-.08-21.69.05-32.53.04-2.92-.77-4.46-3.75-5.38-7.37-2.26-14.62-4.94-21.92-7.42-4.44-1.51-4.84-1.21-4.85,3.62-.02,7.48.08,14.96-.04,22.44-.08,4.93-3.49,8.19-7.68,7.64-3.79-.49-6.22-3.51-6.25-8.03-.06-9.6-.11-19.2.04-28.79.04-2.69-.81-4.04-3.41-4.83-6.07-1.84-12.06-3.95-18.09-5.94-4.39-1.45-4.77-1.19-4.77,3.34,0,21.57.07,43.13-.08,64.7-.02,3.18,1.01,4.59,3.96,5.62,20.7,7.16,41.34,14.49,62,21.75,4.34,1.53,4.78,1.21,4.8-3.64.03-10.84,0-21.69,0-32.54ZM400.75,261.93c-1.05.29-1.9.47-2.72.76-18.33,6.39-36.67,12.77-54.97,19.24-.98.35-1.68,1.49-2.51,2.26.82.65,1.55,1.57,2.48,1.91,4.8,1.72,9.62,3.43,14.52,4.84,1.64.47,3.68.54,5.28,0,9.45-3.13,18.82-6.5,28.22-9.78,8.93-3.11,17.88-6.19,26.79-9.36.84-.3,1.49-1.11,2.23-1.68-.75-.68-1.4-1.61-2.28-1.99-2.39-1.05-4.87-1.9-7.33-2.78-3.27-1.18-6.55-2.32-9.71-3.43ZM400.15,305.92c.98-.23,1.73-.34,2.42-.58,18.56-6.47,37.13-12.93,55.67-19.48.88-.31,1.49-1.38,2.22-2.1-.8-.67-1.5-1.59-2.43-1.96-3.47-1.38-6.94-2.83-10.55-3.74-2.14-.54-4.71-.67-6.75.02-10.14,3.42-20.16,7.18-30.22,10.82-7.84,2.84-15.69,5.65-23.5,8.56-.92.34-1.69,1.22-2.38,1.98-.11.13.45,1.27.89,1.43,4.91,1.76,9.86,3.42,14.62,5.05Z"/>
        <path d="M400.62,155.71c29.13-.05,56.49,6.97,82.14,20.73,4.81,2.58,6.28,5.99,4.33,9.96-1.89,3.84-5.46,4.75-9.79,2.86-9.68-4.24-19.18-9.11-29.2-12.34-86.78-27.95-180.49,24.6-201.7,113.37-11.81,49.41-1.82,94.66,28.7,135.32.45.6.81,1.34,1.4,1.74.63.42,1.7.92,2.17.66.53-.3.88-1.44.8-2.16-.17-1.47-.77-2.89-1.02-4.35-.74-4.31,1.1-7.21,5.11-8.17,3.96-.95,7.22.79,8.35,4.88,2.36,8.52,4.51,17.1,6.76,25.65.95,3.61,1.99,7.2,2.85,10.84,1.5,6.41-2.44,10.51-8.77,8.9-12.07-3.06-24.1-6.28-36.12-9.55-4.63-1.26-6.61-4.6-5.46-8.65,1.19-4.22,4.29-5.83,9.08-4.66,1.94.47,3.83,1.12,5.79,1.47.83.15,1.77-.27,2.66-.42-.19-.91-.13-2-.63-2.69-2.13-2.92-4.51-5.66-6.65-8.56-48.37-65.49-43.68-157.68,11.06-218.05,32.93-36.31,79.1-56.77,128.15-56.78Z"/>
        <path d="M530.79,214.36c3.61,4.73,6.57,8.39,9.3,12.22,25.11,35.22,36.19,74.44,31.96,117.49-7.39,75.31-59.76,135.08-133.54,152.15-40.46,9.37-79.52,4.17-116.7-14.49-4.19-2.1-5.61-5.89-3.79-9.57,1.82-3.65,5.73-4.91,9.88-2.81,16.5,8.34,33.82,14.07,52.2,16.25,46.98,5.55,88.82-6.73,124.67-37.59,30.55-26.3,48.48-59.95,53.37-99.93,5.36-43.74-5.84-83.28-32.92-118.17-.69-.89-2.08-1.25-3.15-1.86-.1,1.14-.34,2.3-.26,3.43.08,1.1.54,2.17.72,3.28.73,4.52-1.16,7.43-5.37,8.35-3.88.84-7.01-1.02-8.15-5.21-2.8-10.34-5.46-20.71-8.17-31.08-.38-1.45-.75-2.89-1.12-4.34-1.87-7.32,2.03-11.3,9.27-9.42,8.56,2.23,17.11,4.5,25.66,6.76,3.25.86,6.53,1.64,9.75,2.59,4.24,1.26,6.33,4.68,5.33,8.48-1.02,3.92-4.32,5.86-8.7,4.99-1.95-.39-3.83-1.11-5.78-1.49-1.09-.21-2.25-.04-4.47-.04Z"/>
        <path d="M440.73,369.91c-3.43-.46-6.33-2.59-7.04-5.75-.74-3.3.35-6.3,3.41-7.51,8.08-3.19,16.26-6.16,24.55-8.72,3.11-.96,5.81.95,7.15,4.06,1.35,3.14.81,6.61-2.09,7.88-8.5,3.72-17.3,6.74-25.98,10.03Z"/>
      </g>
    </g>
  </g>
</svg>