<?xml version="1.0" encoding="UTF-8"?>
<svg id="Layer_1" xmlns="http://www.w3.org/2000/svg" version="1.1" viewBox="0 0 792 612">
  <!-- Generator: Adobe Illustrator 29.0.0, SVG Export Plug-In . SVG Version: 2.1.0 Build 186)  -->
  <defs>
    <style>
      .st0 {
        fill: #a7a7a7;
      }

      .st1 {
        fill: #721750;
      }

      .st2 {
        fill: #963d4a;
      }

      .st3 {
        fill: #f7e774;
      }

      .st4 {
        fill: #636364;
      }

      .st5 {
        fill: #50504c;
      }

      .st6 {
        fill: #e4d62e;
      }

      .st7 {
        fill: #cdcdcd;
      }

      .st8 {
        fill: #e4ba53;
      }

      .st9 {
        fill: #7c7e7c;
      }

      .st10 {
        fill: #fefefe;
      }

      .st11 {
        fill: #491013;
      }

      .st12 {
        fill: #baa921;
      }

      .st13 {
        fill: #9f2874;
      }

      .st14 {
        fill: #b41a44;
      }

      .st15 {
        fill: #bf58a3;
      }
    </style>
  </defs>
  <g id="EuRfA7">
    <g>
      <path class="st5" d="M338.6,469.2c7.8,1.2,17.2,3.5,25,4s14.8-.1,22,0c1.6,3.6.2,9.3,1.2,12.4s6.7,3.1,9.3,3.7c9.8,2.1,14.7,2.3,24.5,2,9.8-.3,19.7-.4,29-3,6.5.4,10-2,16-2-.1.2.4,1.2-.6,2.1-3.7,3.1-11.6,0-12.4,4.9h-2c1-3.6-4.6-1.8-4,1-1.3,0-2.7.1-4,0-1.9-.2-6.7-3.3-6,1-2.3,0-4.7-.1-7,0-2.3-1.5-9.1-2.3-8,1h-3c.9-3.2-5.1-3-4,0-6.4,0-13.1-1.1-20-1s-2.7,0-4,0c-6.5,0-13,1.1-20,1,.7-4.4-5.2-1.1-7-1s-4.7,0-7,0c.6-3.2-1.6-1.7-3.5-2-8.2-1-18-1.9-25.7-4.3s-4.4-3.5-6.8-6.3-2.6-1.9-3-2.5c-1.2-1.5-2.8-4.2-4-6s-.5-1.3-1-2-1.2-1.9-2-3c-1.8-2.5-4-4.6-5-7,.3.1.7,0,1,0,12,3.7,19.8,5.1,32,7h0Z"/>
      <path class="st11" d="M303.6,319.2c2.8,4.8,6.8,16.4,10.5,20.1s3.7-.7,5,1.9.7,6.8.5,9-1.5,3.7-1.7,5.8c-.7,6.3-4.2,22.9,3.4,25.1,2.7.8,4.8-1,6.3-.8,2.5.3,8.8,5.1,11,7s.5.6,1,1c1.7,5.8,5.5,11.8,3,18-5.2.6-2.6,0-6-1-1.5-3.9-.2-10.3-4-13s-7.9-.2-13,0c-.8-3.5-4-9.9-8.4-8.9s-1.7,10.1-3.6,12.9c-1.7,1.2-3.9,2.2-5,4-3.7,6.2,2.7,15.5,4,22,.2,1.8.9,2.4,1,3,1.6,7.9,3.7,14.9,11,19s1.1.7,2,1c5.8,1.9,8.4.8,12-4,7.9-10.4,1-22.3,4-27,6.5-1.4,7.5,4.4,8,9.5,1.1,11.1-.8,21-9.8,27.7s0,1.7-.2,1.8c-.4.4-9.1,2.1-10.5,2.1-2.1,0-8.2-1.9-9.5-3.1s-7.4-11.4-8.5-14c-2.9-7.1-3.1-15.2-6.5-22v-7c0-6.4-2.5-12.1,0-19s2.1-.4,1.9-2.4-1.8-2.3-1.9-2.6c-.8-2.5-.8-4.4-1-7,2.6-5.5,2.6,3.7,5.5,3s2.6-4.8,2.5-6c1.1-.4,5.8,1.2,5-1.5s-4.5-6.5-5.7-9.3-2.9-10.8-3.3-11.2c-1.8-1.8-2,3.1-4,2-.1-9.6,0-19.4,0-29,4.2,3.3,4.4,10.2,6,15v2c0,1.4,1.3,4.6,2,6,.5,4.5,1.5,9.4,4.5,13,4.5-11-.2-16-4.5-25s-5.2-10.8-8-16v-7c1.8,1.1,4,3.3,5,5h0Z"/>
      <path class="st0" d="M416.6,108.2c.4,1.1.4,3.7,1.7,4,5.1,1.2,15.3-.8,21.3,1-.4.6-.7,1.3-1,2-1.6,0-4.3,1.6-8.3.8s-2.8-2.7-3.1-2.7c-2.3.2-6.9,2.5-9.6,2.9s-6.9-1.2-8,1c3.5-.6,6,1.1,9,2,5.1,1.6,4.9,1.8,11,2v1c-4.6,0-8.5,1-13,1-.4,1.7,1.7.4,2,1.7s-.3,3,0,3.3c1,1.1,21.4-.9,25-1,10.9-.3,17.8.2,29-2s5.9,1.6,6-3.6-4.3-1.4-5-1.4c-1.9,0-3.8-1-4-1,2-2.1,9.3-.2,11-2,2.8-3-5.4-1.2-6-1l3-1.5-5-3.5c6.8,1.2,14.7,1,14.1,9.5s-3.2,2.5-2.1,10.5c-3.2-4.6-.6-5.8-7.6-5-1.4,0-2.1,1-2.4,1-1.5.2-3,.9-4,1-8.5,1.2-20.6,2.6-29,3s-16-.3-24,0c-13,.4-26,1.1-39,1s-17-.6-25-1-4.7,0-7,0c-3.4-.2-8.8-1.6-13-2s-1.3,0-2,0h-1c-1.9-.2-4.1.2-6,0s-3.4-.7-5-1-4.9-1.4-7-2c-.6-2.5-3.5-4.6-1.9-9.4s3.2-1.2,3.9-1.6c.4,1.6,4.5,2.9,5.6,2.9s.3-1.7,1.1-1.9c7-1.5,3.2-.9,7.3-3-1.1,3.2,7,2.2,10,2v1c-2.3.3-3.6,1-5.6,1.9s-2.9-1-2.4,2.1c5.7-.3,10.7,1.3,16.5,1s6.9-1.8,9.5-2,3.4,0,5,0c3.7,0,7-1.3,6,3-3.2-.2-13.7,0-16,1.5s-1.1,4,1.5,4.5c6.8,1.2,17.1-.7,24.5,1l1-5h5c7.2,2.6,15,2,22.5,2l8.5-2c-8.3-.2-16.7.2-25,0v-2c1,0,6.1-.6,5-3h-15v-4c1.3,0,7,.4,7-.5-2.2.2-5.6-1.4-7-1.5-.5-2.3.2-2.7,2-3.7v-1.3c11.6-.3,23.4-.2,35,0h0ZM407.6,110.2h-22v1h22v-1ZM415.6,114.2h-5v1h5v-1ZM322.5,120.3c-.2-.2-4.2-1.2-4.9-.7-1.1.8-1.4,5-.9,5.5s4.9.5,5.9,1c-.3-1.4.5-5.2-.1-5.9h0ZM349.6,122.2l-23-1c2,3.4,7.1,3,10.5,3.8l12.5-2.8Z"/>
      <path class="st0" d="M449.6,488.2c-1.5,0-5.3-2-8-1l-1-12,41.4-8.1c1.1,3.2,2.6,1.6,4.6,2-3.7,6.2,8.7,5.9,12.2,7.3s6.9,4.1,7.4,4.6c5.3,6-7.1,9.4-11.4,10.8-15,4.5-32.1,5-47.7,7.4s-4.1-1.3-3.5,2h-7c-12.7.1-25.8.4-38.5,0s-4,1-3.5-2c26-.3,52.8-.4,78.2-6.3,2.2-.5,17-5.2,17.6-5.9,2.7-3.2-1.6-7.3-4.8-8.4-6-1.9-4.5,1.3-7,2.5-4.1,2-10.3,1.9-13,5-6,0-9.5,2.4-16,2h0Z"/>
      <path class="st7" d="M310.6,469.2c.8,1.1,1.4,2.1,2,3-5.5,1.7-24.8,4.7-25,11.6s4.1,5.7,7.1,6.8c8.1,3.2,29.2,6.8,37.9,6.6s1.3,0,2,0c1.5,1.5,3.2,1,5,1h11c4.1.2,7.9.9,12,1s2.9,0,4,0c9.4.2,18.9.1,28,0-.6,3,1.5,1.9,3.5,2,12.7.4,25.8.1,38.5,0,.6,3-1.5,1.9-3.5,2-39.5,1.6-88.2,1.3-126.9-5.1s-31.7-6.2-36.6-10.4-1.4-5.3,0-7.1c4.5-6.3,32.8-11.1,41.1-11.4h-.1Z"/>
      <path class="st6" d="M498.6,272.2l-7.5-1,.5-19c-3.1-.5-3.2.5-4,3s0,2.4,0,3v2h-5c.2-3.3-.3-6.7,0-10s1.6-6,2-9c3.2.7,1.4-3,4-5,0,2.1-.1,4,.4,6.1s3.3,7.6,3.6,7.9c2.3,2.3,1.9-2.7,2-3,.3-.6.9-1.5,1-2,.4-1.6,1.8-2.4.9-5.4s-2.7-1.5-2.9-1.6c-.7-.7-.8-1.8-1-2-1.4-1.4-2.3-1.3-4,0v-3c2.7.2,7,1,6-2h3l-1-23c-3.1-.7-1.6,1.5-2,2-.9,1.1-2.7,2.4-3.5,4h-1.5v-5c.3-1.1.8-2.1,1-3,2.3-8.7,1.3-28,1-38,2.8.2,4.8-1.5,7-3,1.8,34.4.1,72.2,0,107Z"/>
      <path class="st11" d="M498.6,319.2c.2.9-.1,2,0,3-1.4.7-.7,2.1-1,3-1.7,5.2-8.3,19.4-8.8,22.8s1.6,14,1.8,18.2,0,2.7,0,4-2.6,2.8,0,4,1.4-.1,2,0h1c0,1.2,0,2.2,1,3,0,.6,1.2,7,1.4,8.1s1.3,2.4,2.6,2.9v6l-1,.5,1,.5v21c-1.9,6-2.9,12.7-3,19-.8-.7-6.1,16.6-11,17h-2c-1.3-.1-2.7,0-4,0,6-.9,7.1-6.6,2-9,2.5,1.8,6-2,7.5-4.1s.3-2.5.5-2.9c4.6-8.6,5.2-13.4,7-23s.9-.7,1-1c.8-4.7.4-6,0-10s0-.7,0-1c-.2-1.3.5-4.3-.1-4.9s-1.9.2-2.6-.3c-2.7-1.8.9-16.1-7.3-11.3-1.1.6-1.3,2.6-2,3.5s-1,2.2-3,2c2.3-3.1,1.4-6.2,2-9s4.7-12.1,0-13c4.7-4.2.3-12.9,0-18.5s1.2-9.1,1-10.5c4-.5,6.1-6.6,7-10l6-14c.7,1.9.7,2.1,1,4h0Z"/>
      <path class="st9" d="M493.6,461.2c-1.6,1.8-6,6.3-7,8-2-.5-3.5,1.2-4.6-2l-41.4,8.1,1,12c2.7-1,6.5.9,8,1-9.3,2.6-19.3,2.7-29,3,.6-3.8-3.8-1.1-5.8-2.2-3.1-1.7-2.4-12.4-3.2-15.8,7.4,0,15.9.8,23-1,12.2-.5,27.2-2.7,39.3-5.2,6.7-1.4,13-4.6,19.7-5.8h0Z"/>
      <path class="st7" d="M443.6,501.2c-.6-3.2,1.6-1.7,3.5-2,15.6-2.3,32.7-2.9,47.7-7.4,4.4-1.3,16.7-4.8,11.4-10.8s-6.6-4.3-7.4-4.6c-3.6-1.3-15.9-1.1-12.2-7.3,9.1,2.1,59.5,10.2,28,22.5-21,8.2-49.2,9.2-71,9.5h0Z"/>
      <path class="st11" d="M311.6,252.2c-.5,1.2.9,2.5,1,3s0,1.4,0,2c.4,2.5.7,9.6,1.5,11s7.8,4.4,10,7,3.3,8.9,5.1,11.9,6.8,2.9,5.5,8c-.9,0-1.7,1.1-2,2-2.9-.3-5.9-.6-8-3-3.5-4.1-2.1-15.1-8.6-16s-4.8,4-7,4.9-2.5-2.4-3.8-2.7-5.4.6-5.6.7c-.3.3-.2,7.7,0,9s-.3,1.2,1,2c0,2.2.6,5.2-2,6,.1-4.2.8-23.6,0-26l6-1c.6.3,1.8,2,2.5,1.9,4.4-.5.5-12.2.4-15.4s.9-3.8,1.1-5.5h3v.2Z"/>
      <path class="st8" d="M319.6,128.2v1c-6.6-1.2-4.7,5-6.3,9.2s-1.6,1.9-2.1,2.9c-3.6,6.8-9.2,12.7-11.5,21.5,1.7,32.9-2.4,68.4-.1,101,0,1.2.7,5.8,1.3,6.3s2.5.6,3.8,1.2l-6,1c-2.9-8.5-.8-29.5-1-40.5-.3-20.7-3-45.8-1-66s8.2-19.2,12.1-27.7,5-6.8,3.9-11.8c2.1.6,5,1.6,7,2h0Z"/>
      <path class="st8" d="M498.6,454.2c-.4,5-.8,2-2,3s-1.5,2.4-3,4c-6.8,1.2-13,4.3-19.7,5.8-12,2.6-27.1,4.8-39.3,5.2-21.7.8-43.8-.3-65.5,0-1.7,0-4.4-.6-5.5,1-7.8-.5-17.2-2.8-25-4,1.7-1.3,3.2-.9,5.2-.7,32,2.8,76.8,5.4,108.4-.2s2.1-2.8,3.2-3c2.3-.6,7.9.1,10.8,0s4,1,3.5-2h2c8.6.1,15-1.1,22.7-5.8s2.1,0,2.3-.2c.5-.6-1.4-3.9,2-3h-.1Z"/>
      <path class="st8" d="M324.6,322.2c.4-.1,1.4.4,1.8-.1s0-3.3,1.8-3.8,9,1.7,9.8,1.9.4,2,.9,2.7c1.6,1.8,4.4,4.3,5.7,6.4s.7,1.2.7,2.3-.2,7.3-2.2,6.7c-4.1-2.5-1.5-5-1.4-8.5,0-10.3-15.1-9.6-15.1-7v22c0,4.7,11.6,5.6,15,3.5-.3.5,0,1.6-.9,2.5s-9.5.6-11.1.1c-6-2-4-9.2-4.9-12.9s-1.8-.2-2-1.1c-.5-2.2,1.6-1,2-2.2,1.1-3.2-.2-8.7,0-12.3v-.2Z"/>
      <path class="st8" d="M324.6,294.2l-5,1c.3-2.8,1.3-8.6-2-10.5-5.6-3.3-7.7,8.2-2.6,11.6s2.8.4,4.5-.1c-.2,1.4-1.3,2.6-1,5,5.8.7,3.2,1.9,4,5.3s2.6,1.1,3.4,3.9-1.2,8.3-1.4,11.8c-3.5,1.3-9.5,7.6-12.5,3s-.3-2.6-.5-3c10.1,5.9,13.9-5.6,10.7-14.2s-3.4-4.2-3.7-6.8h-2c-5.7-7.5-13.6,7.1-8,11-.3,2.3-.3,2.8,0,5-4.1.9.1-4.9-4-4,.5-4.7,2.5-11.6-5-12,2.4,4.5-.6,2.5-1,3-1.3-2.4,0-4.8,0-6,2.6-.8,2.1-3.8,2-6,.3.2,1.6-.3,1.9,0,.5.7-.4,8.4,4.6,6.9s1.7-14.7-4.5-13l-3,4c-.2-1.3-.3-8.7,0-9s5.3-.8,5.6-.7c1.3.2.8,3.9,3.8,2.7s1.8-5.7,7-4.9,5.1,12,8.6,16h0Z"/>
      <path class="st8" d="M483.6,278.2c5.6-3.6,5.4,3.4,6,4,1.5,1.4,9-5.5,7,4-3.6-.5-2.4.2-3.3,2.2-1.6,3.7-2.3,7-.7,10.8,2.3.8,2-1.4,3-2s1.4,0,2,0c0,.7-.3,3.1,1,1.5v-20.5c1.7,1,1,3.8,1,5.5v20.5l-4-2c-1.8,4.3-1.6,7.4-1,12l3-1c.1.6-.2,1.5,0,2l-6,14c.3-1,1.2-5.8,1-6l-9,3c0-1.2-1-2.6-1-3,11.5,4.9,14.6-25.6,3-24l1-2c-1.3-.1-3.2.5-4-1,1.5-.1,3.1-.7,4-2,3.8.4,3.1-11.9-2-10,0-2.5.9-4.6-2-4,.2-.9.9-1.6,1-2Z"/>
      <path class="st6" d="M474.6,127.2c.3,0,1.1-.9,2.4-1,7-.7,4.4.4,7.6,5v1c0,.8.1,1.7,1,2,.9,4.7,5.1,8.2,4,13s-.7.7-1,1c-1.8,2.2-5.3,3.2-7,5-5.8-7.3-4.6-17.5-7-26Z"/>
      <path class="st6" d="M484.6,452.2c.1,0,1.2,1.6,1.9,1s.5-2.1,1.5-3c2.8-2.6,4.9-4.2,6.5-7.7s0-2.3,0-3.2l4,2c0,4,.2,8,0,12s0,.7,0,1c-3.4-.9-1.5,2.4-2,3s-1.6-.2-2.3.2c-7.7,4.7-14.1,5.9-22.7,5.8-.2-6.3,10.2-3.2,11-4s-.2-4.8,0-6v-1h2.1Z"/>
      <path class="st11" d="M487.6,255.2c.8-2.5.9-3.5,4-3l-.5,19,7.5,1v26.5c-1.3,1.6-1-.8-1-1.5,0-3,.8-6.6-1-9,0-.6-.1-1.4,0-2,2-9.5-5.4-2.6-7-4s-.4-7.6-6-4c.3-1.3-.3-3.5,0-5,1.1-5.3,4-3.5,4-12s0-.7,0-1v-5Z"/>
      <path class="st8" d="M341.6,378.2c1,1.3,5.8,1.8,6,2,1,1.1-1,3.9-1,4.5v29c0,10.6,10.2,29.7,19.7,35.3l17.3,8.2c-6.4-.4-11.6-2.6-16.9-5.6s-.8-1.9-1.8-2.4-3.5-.3-4.9-1.3c-3.1-2.2-9.4-15.1-10.8-15.7-5.9,1.9-2.6,10.7-5.4,15.3s-5,4.2-5.8,4.7-3.1.8-3.3,1,.3,1.5,0,1.9c-1.6,1.5-13.9,2.7-16.3,2.2s-.2-2.2-.8-2.8-2.6-2.1-2.8-2.2c-.3-.2-1.7.6-3-.7s-3.9-5.4-4.4-6.4c-1.5-2.9,1.2-4.8-4.6-3.9.8-.9,2-10.9-1-8s.1,8.8,0,11.5-2.2,11.6-1.1,12.5,7.5.2,6,5c-.3,0-.7.1-1,0-6.7-2.3-3.2-3.1-5-5s-1.4.3-1.8-.2c-1.2-1.4-.3-32.6-.3-37.4s1.1-3.2,1.1-3.4c3.4,6.8,3.6,14.9,6.5,22s6.8,12.5,8.5,14,7.4,3,9.5,3.1,10.1-1.7,10.5-2.1-.3-1.4.2-1.8c9-6.7,10.9-16.7,9.8-27.7s-1.5-10.9-8-9.5c3.3-5.3,5.8.9,9,2v-10c-1,0-2-.1-3,0,2.5-6.2-1.3-12.2-3-18,.2.2,1.4-.4,2.1.6s.7,4.2.9,4.4c2.8,2.9,3.5-8.9,3.1-10.4s-2.7-.4-3.6-1.6-.2-2.2-.5-3h0Z"/>
      <path class="st8" d="M298.6,355.2c2,1.1,2.2-3.8,4-2s2.3,9.1,3.3,11.2,5.1,7.2,5.7,9.3-3.8,1.1-5,1.5c-.1-3.4-4.7-6.2-8-6v-14Z"/>
      <path class="st4" d="M381.6,108.2v1.3c-1.8,1-2.5,1.4-2,3.7-2.8-.3-6.1,0-9,0h-11l6,3c-1.6.2-4.9,1.1-4,3-1.6,0-3.4-.2-5,0,1-4.3-2.3-3.1-6-3v-1c7.2.3,4.5-3.2,10-4s4.3-1.5,6-2c5.1-1.6,9.8-.9,15-1Z"/>
      <path class="st9" d="M489.6,147.2c3-.6,2.4.4,3.5,1.9,4.3,5.7,5.1,9.1,5.5,16.1-2.2,1.5-4.2,3.2-7,3-.2-6.7,1.2-14.1-3-20,.3-.3,1-.8,1-1Z"/>
      <path class="st9" d="M472.6,111.2l5,3.5-3,1.5c.6-.2,8.8-2,6,1s-9,0-11,2h-2c-2.3-1.6-8.4-.9-6-5,.6,0,1.4,0,2,0,2.8.5,7.7.9,3-1.5l1-1.5c1.6.2,3.5-.3,5,0Z"/>
      <path class="st4" d="M436.6,109.2c-.6,3.3,1.2,1.5,3,2s.7,0,1,0c0,.9-.7,1.4-1,2-6-1.8-16.3.3-21.3-1s-1.3-2.9-1.7-4c6.8,0,13.3.7,20,1Z"/>
      <path class="st2" d="M304.6,313.2v1c-3.5.7-3.6-2.5-6-4,0-1.3-.3-5.7,0-6s3.4,1.5,1-3c7.5.4,5.5,7.3,5,12Z"/>
      <path class="st2" d="M306.6,375.2c0,1.2-1.4,5.7-2.5,6-2.9.7-2.9-8.5-5.5-3-.2-3,0-6,0-9,3.3-.2,7.9,2.6,8,6Z"/>
      <path class="st8" d="M498.6,420.2v21l-4-2c-.1,1,.3,2.5,0,3.2-1.7,3.5-3.8,5.1-6.5,7.7s-1.3,2.8-1.5,3c-.7.6-1.8-1-1.9-1,4.9-.4,10.2-17.7,11-17s-.1,1.4,0,2h1l-1-2c0-6.3,1.1-13,3-19v4h-.1Z"/>
      <path class="st7" d="M314.6,115.2c.1,0-.6-1.5,1.3-2.2,4.5-1.7,12.7-1.6,17.6-1.8-.2,1.8-3.6,1.3-5,2-4.1,2.1-.3,1.5-7.3,3s-.6,1.9-1.1,1.9c-1.1,0-5.2-1.3-5.6-2.9h.1Z"/>
      <path class="st9" d="M498.6,387.2v1c-1.2-.5-2.2-1.7-2.6-2.9s-1.5-7.5-1.4-8.1c0-2.5,2.1-11.6,4-13,.7,7,0,15.7,0,23Z"/>
      <path class="st15" d="M499.6,304.2c0,4.7.9,10.9-1,15-.3-1.9-.3-2.1-1-4s.1-1.4,0-2l-3,1c-.6-4.6-.8-7.7,1-12l4,2Z"/>
      <path class="st0" d="M467.6,111.2l-1,1.5c4.7,2.4-.2,1.9-3,1.5,0-.6.2-1.8,0-2-.5-.4-9.6-.9-11.4-1.1s-1.4-.9-1.6-.9v-1c6.1.4,11.1,1.2,17,2Z"/>
      <path class="st0" d="M498.6,387.2c0-7.3.7-16,0-23s.7-2.3-2-2c.6-2.9,1.7-5.2,2-8s0-2,0-3h1c0,10.1.1,20.4,0,30.5s.6,4.4-1,5.5Z"/>
      <path class="st0" d="M366.6,109.2c-1.7.5-1.6,1.4-6,2l-14-2c6.6,1,13.8-3,20,0Z"/>
      <path class="st0" d="M498.6,453.2c.2-4,0-8,0-12v-21c1.7,1,1,3.8,1,5.5v22c0,7.3.6,4.4-1,5.5Z"/>
      <path class="st15" d="M499.6,351.2h-1c.4-6.5,0-13.9,0-20.5s.6-4.4-1-5.5c.3-.9-.4-2.3,1-3,1,9.6.9,19.1,1,29Z"/>
      <path class="st8" d="M304.6,314.2c-.3,1.7-.8,3.3-1,5-1-1.7-3.2-3.9-5-5,0-1.1-.1-1.9,0-4,2.4,1.5,2.5,4.7,6,4Z"/>
      <path class="st7" d="M350.6,115.2v1c-3.5,0-8.2-.5-12,0v-1c5-.3,6.9-.2,12,0Z"/>
      <path class="st8" d="M306.6,337.2c-.5.9-1.9,3.2-2,4-1.6-4.8-1.8-11.7-6-15v-5c2.8,5.2,5.4,10.7,8,16Z"/>
      <path class="st9" d="M450.6,109.2v1c-1.3,0-2.7,0-4,0-2.1,0-5.7-.6-7,1-1.8-.5-3.6,1.3-3-2,4.6.2,9.4-.3,14,0Z"/>
      <path class="st2" d="M299.6,390.2c-1.5-1.5-1.5-3.5,0-5,.1.3,1.8,1.3,1.9,2.6.2,1.9-1.9,2.2-1.9,2.4Z"/>
      <path class="st7" d="M343.6,110.2c-1.4,2.3-6.7.4-9,1,1.3-2.3,6.7-.4,9-1Z"/>
      <path class="st0" d="M498.6,406.2v-5c1.6.7,1.6,4.3,0,5Z"/>
      <path class="st0" d="M485.6,134.2c-.9-.3-.9-1.2-1-2,1,.3.8,1.2,1,2Z"/>
      <path class="st0" d="M498.6,393.2v-2,2Z"/>
      <path class="st8" d="M299.6,410.2v-1,1Z"/>
      <path class="st0" d="M498.6,409.2v-1,1Z"/>
      <path class="st0" d="M498.6,395.2l-1-.5,1-.5v1Z"/>
      <path class="st8" d="M298.6,317.2v-1,1Z"/>
      <path class="st0" d="M498.6,398.2v-1,1Z"/>
      <path class="st6" d="M334.6,453.2c.1-.2,2.3-.3,3.3-1s5.6-4.4,5.8-4.7c2.8-4.6-.4-13.4,5.4-15.3,1.4.6,7.7,13.5,10.8,15.7s3.6.6,4.9,1.3,1.1,2,1.8,2.4c5.3,3,10.6,5.1,16.9,5.6s4.7,0,7,0c8.9.2,19.2.5,28,0,8.8-.5,22.5-4.6,29.7-11.8s2.8-1.5,2.3-4.2h1c.5,7.9,6.6.6,8,2,.4,4.9-9.2,9-1,12,.9,3.3-2.6,1.5-3,2-3.5,4.2,11.7,5.7,14,6,.6,3-1.5,1.9-3.5,2-3,0-8.5-.6-10.8,0s-.7,2.6-3.2,3c-31.5,5.7-76.3,3-108.4.2-1.9-.2-3.4-.6-5.2.7-12.2-1.9-20-3.3-32-7,1.5-4.8-5.6-4.7-6-5-1.1-.9,1-10.3,1.1-12.5s-2.4-9.2,0-11.5,1.8,7.1,1,8c5.8-.8,3.1,1,4.6,3.9s3.7,5.8,4.4,6.4c1.3,1.2,2.7.5,3,.7s2.6,2.1,2.8,2.2c.6.7-.2,2.6.8,2.8,2.5.5,14.7-.7,16.3-2.2s0-1.7,0-1.9l.2.2Z"/>
      <path class="st9" d="M313.6,474.2c1.2,1.8,2.8,4.5,4,6-3.4.4-6.5,2.4-4.5,6s14.3,5.3,17.1,5.9c7.6,1.6,18.7,3.1,26.4,3.1s4.7.1,7,0c1.4,1.7,4.8,1,7,1,7,0,13.5-.9,20-1-1.1,3,4.9,3.2,4,0,6.9,0,13.6,1,20,1s2.7,0,4,0h3c3.2,0,6.1-.9,8-1s4.7,0,7,0,4.9.7,6-1c1.3.1,2.7,0,4,0,2.3,0,3.3-.9,4-1s1.4,0,2,0c5.6-.7,12.8-1.5,18.2-3.3s11.3-4.5,7.8-8.7c2.6-1.3,1.1-4.5,7-2.5,3.2,1,7.5,5.2,4.8,8.4s-15.4,5.4-17.6,5.9c-25.4,5.8-52.2,5.9-78.2,6.3s-18.6.2-28,0c-.4-1.6-3.7-1.5-4,0-4.1-.1-7.9-.8-12-1-1-1.2-3.4-1.7-4,0h-7c.7-4.3-3.8-1.1-5-1s-1.3,0-2,0c.6-3.2-1.6-1.7-3.5-2-5.5-.7-30.6-5.1-33-9-4-6.5,13.5-11.2,17.5-12h0Z"/>
      <path class="st4" d="M411.6,473.2c.8,3.4.1,14,3.2,15.8s6.4-1.6,5.8,2.2c-9.9.3-14.7.1-24.5-2-2.6-.5-7.9.5-9.3-3.7s.4-8.7-1.2-12.4c8.6.2,17.4,0,26,0h0Z"/>
      <path class="st0" d="M312.6,472.2c.5.7.7,1.6,1,2-4,.9-21.6,5.6-17.5,12,2.5,4,27.5,8.3,33,9s4.1-1.3,3.5,2c-8.7.2-29.9-3.4-37.9-6.6-3-1.2-7.1-3.2-7.1-6.8,0-6.9,19.5-9.9,25-11.6Z"/>
      <path class="st4" d="M317.6,480.2c.5.6,2,1.4,3,2.5,2.4,2.8,1.1,4.5,6.8,6.3s17.5,3.3,25.7,4.3,4.1-1.3,3.5,2c-7.7,0-18.8-1.5-26.4-3.1s-16.3-4.2-17.1-5.9c-1.9-3.7,1.1-5.6,4.5-6h0Z"/>
      <path class="st4" d="M478.6,481.2c3.5,4.2-4.6,7.6-7.8,8.7-5.4,1.8-12.6,2.6-18.2,3.3.8-4.9,8.6-1.9,12.4-4.9s.5-1.9.6-2.1c2.7-3.1,8.9-3,13-5Z"/>
      <path class="st12" d="M434.6,472.2c-7.1,1.8-15.6,1-23,1s-17.4.2-26,0c-7.2-.1-14.9.5-22,0,1-1.7,3.8-1,5.5-1,21.8-.3,43.8.8,65.5,0Z"/>
      <path class="st4" d="M429.6,495.2c-1.9.1-4.8,1-8,1-1.1-3.3,5.7-2.5,8-1Z"/>
      <path class="st4" d="M363.6,495.2c1.8-.1,7.7-3.4,7,1-2.2,0-5.6.7-7-1Z"/>
      <path class="st4" d="M442.6,494.2c-1.1,1.7-4.1,1-6,1-.7-4.3,4.1-1.2,6-1Z"/>
      <path class="st4" d="M446.6,494.2c-.6-2.8,5-4.6,4-1-.7,0-1.7,1-4,1Z"/>
      <path class="st4" d="M394.6,495.2c.9,3.2-5.1,3-4,0h4Z"/>
      <path class="st4" d="M414.6,496.2c-1.1-3,4.9-3.2,4,0h-4Z"/>
      <path class="st6" d="M311.6,207.2l6-6c.2,2.6-1.1,4.7-.8,7.3s1.9,2.3,2.8,3.4.6,2.8,1.1,3.1c1.4.9,12.1.8,14.8,2.2,1.2,1.4-.5,32,0,37.4s1.5,3.1,2,4.5.9,1.8,1,2c2.3,3.5,1.4,4.8,7.5,4.1s5.6-3.2,6.5-5.1l12,37c-1.3-.2-2.7.2-4,0s-1.4,0-2,0c-.7-5.5-7.1-2.9-10-7-6,9-1.7,8.4,5.2,11.1,5.3,2.1,5.6,2.6,11.8,2.9s.8,0,1,0c.8.4,1.3,3.1,4,2,.2.2-.2,1.2.4,1.6l3.6,3.4v-12c2.7-.6,2,1.3,2.3,3.1,1,6.4,1.4,8.7,3.2,14.8s-2,3.9-3.4,5.2-.5,2-2.1,3.9-.7.7-1,1c-7.5,6.6-3.3,1.5-5.6-1.1s-14.2-4.9-17.7-2.9-.5,1.8-.7,2c-.8,1-.6,1.2-2,2s-2.6-1-2,2h-1c-1.3-2.1-4.1-4.6-5.7-6.4s.2-2.3-.9-2.7-9.3-2.1-9.8-1.9c-1.8.5-1.2,3.2-1.8,3.8s-1.4,0-1.8.1c.2-3.5,2.1-9.4,1.4-11.8s-3.2-3-3.4-3.9c-.8-3.4,1.8-4.6-4-5.3-.3-2.4.8-3.6,1-5s0-.7,0-1l5-1c2.1,2.4,5.1,2.7,8,3s5.3,0,8,0c1.1-1,.7-15,0-16s-1.4,0-2,0v-2c-.2-3.4.6-6.9-2.3-9.7s-1.5-.1-1.7-.3c-.4-.3-.7-.8-1-1,.9-4.9-2.1-2.1-3.8-3.2s-1-2.4-2.1-3.4-3.2-1.6-4.3-2.5c-2.9-2.3-1.2-3-5.8-3.9-.1-2.6-2.6-2.6-5-3,.6-3.8-.6-7.4-1-11s-.9-2.7-1-4,0-3.5,0-5v-4c.1-2.8.8-1.7,0-6s.2-1.5,0-2c2.1-3.3.6-8.1,1-12s0-.7,0-1v.2Z"/>
      <path class="st6" d="M304.6,313.2c4.1-.9-.1,4.9,4,4,0,.6-.1,1.4,0,2s.5.9,1,1c1,.8,1.2.8,2,2s-.2,1.9.5,3c3,4.6,9-1.7,12.5-3-.2,3.6,1.1,9.1,0,12.3s-2.5,0-2,2.2,1.8.1,2,1.1c.9,3.7-1,11,4.9,12.9,1.7.5,10.2.7,11.1-.1s.6-1.9.9-2.5.8-.6,1-1c3.7-.4,5,3,7.7,4.8s4.4-.6,4.3,4.2-.7,2.8-1,4-2,1.7-2,2c-2-1.3-9.4-1.8-10.6,0s-.2,13,.6,16.1-.3,2.1.5,3,3.3.5,3.6,1.6-.2,13.3-3.1,10.4-.2-3.3-.9-4.4-1.9-.4-2.1-.6c-.5-.4-.7-.8-1-1-.1-3.5-7.5-6.8-8.5-8-2.4-3-1.9-16.9-3.6-21.4s-1.2-2.8-4-2.5c-.6-2-.7-4.1-3-5,.2-2.2.4-7.2-.5-9-1.3-2.7-3.9-.8-5-1.9-3.7-3.7-7.7-15.3-10.5-20.1.2-1.7.7-3.3,1-5s0-.7,0-1h.2Z"/>
      <path class="st6" d="M336.6,405.2c3.4.9.8,1.6,6,1s2,0,3,0v10c-3.2-1.1-5.7-7.3-9-2s3.9,16.6-4,27c-3.6,4.6-8,1.8-12,4-.9-.3-1.3-.6-2-1-3.8-5.2,5.5-2.2,8.4-3.1s1.3-2.5,1.6-2.9.7-.7,1-1c.5-.5,2.3-.5,3.1-1.7,2.5-4.1,1.9-13.5-.3-17.7s-2.8-2.7-3.8-3.7-.6-.7-1-1-.6-.7-1-1-.7-.8-1-1c-.8-3.6,2.8-1.3,5.3-2s.5-1.9.7-2c1-.9,3.7-2.4,5-2h0Z"/>
      <path class="st13" d="M322.6,355.2c2.5,8.1,3.7,16.7,5,25-1.5-.1-3.6,1.6-6.3.8-7.7-2.2-4.1-18.8-3.4-25.1s1.6-4.6,1.7-5.8c2.3.9,2.4,3,3,5h0Z"/>
      <path class="st8" d="M313.6,403.2h-2c-.5,6.5.4,5.2,5,6-6.1,4-6,13.4-4.3,19.8s8.6,15.3,14.3,9.2h2c-.3.4.2,2.3-1.6,2.9-2.9.9-12.2-2-8.4,3.1-7.3-4.1-9.4-11.1-11-19,2.7,1.8,1.9,1,2-1.5s0-5,0-7.5h-3c.1,2-.2,4,0,6-1.3-6.5-7.7-15.8-4-22,2,1.9,8.8,2.4,8-1,.8,1.3,2.4,2.4,3,4ZM309.5,403.3c-4.9-3.9-9.4,9.7-1.4,10.9s2.3-10.3,1.4-10.9Z"/>
      <path class="st6" d="M332.6,392.2c1.2,7.1-5.5-.8-8,1-.2.6.1,1.6,0,2-2,4.6-.4,6.9,0,11s-.3,2.5-3,4h-1c-1.3-.3-2.2-.7-4-1-4.6-.8-5.5.5-5-6h2c3.6.1,4.5-.1,6-4s.7-4.3,0-7c5.1-.2,8-3.5,13,0Z"/>
      <path class="st6" d="M306.6,337.2c4.3,9,9,14,4.5,25-3.1-3.5-4-8.5-4.5-13s1.4-6.8-2-6v-2c0-.6,1.5-3.1,2-4Z"/>
      <path class="st8" d="M319.6,392.2c.7,2.7.9,4.7,0,7-1.4-3.9-1.8-6.4-5.5-9-.9,2.4-2.3,4.6-4.5,6s-1.7-.2-2,0c1.9-2.7-.2-12,3.6-12.9s7.5,5.3,8.4,8.9Z"/>
      <path class="st8" d="M322.6,355.2c2.7-.2,3.1,0,4,2.5,1.6,4.6,1.2,18.4,3.6,21.4s8.4,4.6,8.5,8c-2.2-1.9-8.5-6.7-11-7-1.3-8.3-2.5-16.9-5-25h-.1Z"/>
      <path class="st8" d="M336.6,405.2c-1.3-.4-4,1.1-5,2s.5,1.7-.7,2c-2.6.7-6.1-1.6-5.3,2-.6-.3-2.2-.7-3-1s-.7,0-1,0c2.7-1.5,3.3-.5,3-4l7,1c2.3-6.1.8-13.2-7-12,.2-.4-.2-1.4,0-2,2.4-1.8,9.2,6,8-1,3.8,2.7,2.5,9.1,4,13Z"/>
      <path class="st6" d="M309.6,396.2c.1,1.1.4,2.1,1,3,.8,3.4-6,2.9-8,1,1.1-1.8,3.3-2.8,5-4s1.6.2,2,0Z"/>
      <path class="st6" d="M306.6,422.2c-.2-2,.1-4,0-6h3c0,2.5.1,5,0,7.5s.7,3.3-2,1.5c-.1-.6-.8-1.2-1-3Z"/>
      <path class="st8" d="M320.6,445.2c4-2.2,8.4.6,12-4-3.6,4.8-6.2,5.9-12,4Z"/>
      <path class="st8" d="M304.6,343.2c3.4-.8,1.7,3.2,2,6-.7-1.4-1.9-4.6-2-6Z"/>
      <path class="st12" d="M378.6,132.2c-2.6,3.5.6,9,1,13-1.2,0-4.4-.5-5.1.6-1.1,1.6-1.4,10.5-2.9,13.4,3.1,1.1,2.4-3.5,3-4s9,3.7,10-3h2v4c2.1-.2,7.2.9,7.9-1.6s-.7-3-.6-4.1.7-1.2.7-1.3c-.5,2.3,1.3,2.3,3,3-.3.7-1.3,3.6-1,4,4.7-2.4,5.3-2.4,10,0,.4-1.5-.6-2-1-3l7-2c.9,3.2.6,5,5.4,4.9,4.8-.1,6-2.4,2.1-2.9s-6.1.9-5.3-3.3,7.1,0,6.8-4.6c-1.6.2-3.5-.3-5,0l1-14c8-.3,16.1.4,24,0-.2,4-1.1,8.2-2,12-2.1-.7-6.4-1.3-7,1.5s2.9,2.3,3,2.5c.2.4-3.3,1.7,0,7.3,3.3,5.6,2,.6,2,.7,1.2,1.9,2,8.3,5,12-22-5.8-44.8-7.6-67.2-2.7-4.6,1-9.9,3.9-13.8,4.7s-.7,0-1,0l-5-8c6.1-10.5-1.9-19.6-2-30,8,.4,17.3.9,25,1h0ZM363.6,145.2c-.1,4.8-1.5,14.2,6,10.5s2.3-9.5-.7-10.3-3.6-.2-5.3-.2ZM432.6,155.2c-3.7-12.6-6.1-13.4-9,0,3.4-1.2,5.6-1.1,9,0Z"/>
      <path class="st3" d="M470.6,128.2c1.2,10.5,2.4,20.4,7,30-9.2,3.7-16.1,13.2-26,15,0-2.3-5.7-3.2-7-4s-.7-.7-1-1-.7-.6-1-1c-3-3.7-3.8-10.1-5-12,2.3-1.9,5.4-3.6,3.5-7l-3.5,4c-1.8-4.2,1.8-6.2,2-6.7.3-.8-.1-1.7,0-2.3.9-3.8,1.8-8,2-12,8.4-.4,20.5-1.8,29-3Z"/>
      <path class="st6" d="M417.6,131.2l-1,14c-2.3.4-2.9,1-4,3s0,.6,0,1c0,.6-.1,1.5,0,2l-7,2c-1.1-2.9-2.3-5.7-4.5-8-1,2.3-2.6,4.6-3.5,7-1.7-.7-3.5-.7-3-3-.1-5.2-3.2-3.7-8-4v7h-2c.2-1.5-1.4-6-2.1-6.8s-2,0-2.9-.2c-.4-4-3.6-9.5-1-13,13,0,26-.6,39-1Z"/>
      <path class="st3" d="M346.6,131.2c-5.2,3.2.4,6.3.9,10.6s-.9,10.1-.7,10.8,3.8,4.2,4.1,4.3c3,1.6,3.4-2.1,3.7,3.2-1.9-1.2-4-2-6-3s-.6-1.4-2.5-2c-7-2.3-14,.5-18.5,6-2.1-.2-2.9-2.2-4-3,.7-1.9,6.9-2.2,7.1-2.5,1.7-3.1,1.5-15.1,2.3-19.5,1.6-2.1,9.2,1.3.6-7,4.2.4,9.6,1.8,13,2h0Z"/>
      <path class="st6" d="M330.6,129.2l.5,1,.5-1h2c8.6,8.3,1,4.8-.6,7-.8,4.4-.7,16.4-2.3,19.5s-6.3.7-7.1,2.5c-.9-.7-2-1.3-3-2,4.6-8.5,4.2-17.6,4-27,1.9.2,4.1-.2,6,0h0Z"/>
      <path class="st6" d="M353.6,131.2c0,10.4,8.1,19.5,2,30h-1v-1c-.4-5.4-.7-1.6-3.7-3.2s-4-4.1-4.1-4.3c-.2-.7,1.1-7.7.7-10.8s-6-7.4-.9-10.6c2.3,0,4.7,0,7,0h0Z"/>
      <path class="st10" d="M469.6,119.2c.2,0,2.1.9,4,1l-1,5c-11.2,2.2-18.1,1.7-29,2,.4-4.7-1.9-3.6-5-4v-1c7.1-.2,14.4-.4,21.5-1s5.9-1.8,7.5-2,1.3,0,2,0Z"/>
      <path class="st12" d="M324.6,129.2c.2,9.4.6,18.5-4,27-2.5-1.9-5.5-3-7-6,2.9-1.1,5.3-17.5,6-21v-1c1.6.3,3.6.8,5,1Z"/>
      <path class="st4" d="M367.6,122.2c2.4,0,8.6,1.9,11,2l-1,5c-7.4-1.8-17.7.2-24.5-1-2.6-.5-3.7-3-1.5-4.5s12.8-1.7,16-1.5Z"/>
      <path class="st12" d="M474.6,127.2c2.4,8.5,1.2,18.7,7,26-.4.4-1.6,4.2-3,5h-1c-4.6-9.6-5.8-19.5-7-30,1,0,2.5-.8,4-1Z"/>
      <path class="st4" d="M429.6,122.2c2.1,0,6.7.7,9,1s5.4-.7,5,4c-3.6,0-24,2.1-25,1s.3-2.3,0-3.3-2.4,0-2-1.7c4.5,0,8.4-1,13-1Z"/>
      <path class="st4" d="M417.6,116.2c2.6-.4,7.3-2.7,9.6-2.9s.4,2.1,3.1,2.7c4.1.8,6.7-.8,8.3-.8s2.8,1,3,1v1c-4.4-.7-4.5,2.7,0,2-.1.6.1,1.4,0,2h-3c-2.9.2-6.1,0-9,0-6.1-.2-5.9-.4-11-2,0,0-1-3-1-3ZM436.6,117.2h-16l14.5,2,1.5-2Z"/>
      <path class="st10" d="M338.6,116.2c3.8-.5,8.5,0,12,0s7-1.3,6,3c-2.6.3-6.1,1.9-9.5,2-5.8.2-10.8-1.3-16.5-1-.6-3.1,1-1.5,2.4-2.1,2.1-.9,3.3-1.6,5.6-1.9Z"/>
      <path class="st9" d="M366.6,116.2c.2.3-.5,1.7.6,2,3.1.8,8.9-.6,12.4,0v1l-9,2h16.6c5.6,0,2.3,1,2.4,1v2h-11c-2.4,0-8.6-1.9-11-2,1-4.3-2.3-3-6-3-.9-1.9,2.4-2.8,4-3s1,0,1,0Z"/>
      <path class="st7" d="M349.6,122.2l-12.5,2.8c-3.4-.8-8.5-.4-10.5-3.8l23,1Z"/>
      <path class="st7" d="M389.6,124.2c8.3.3,16.7-.2,25,0l-8.5,2c-7.5,0-15.3.6-22.5-2h6Z"/>
      <path class="st4" d="M379.6,119.2h15c1.1,2.4-4,3-5,3s-1.2-1-2.4-1c-5.5,0-11.1,0-16.6,0l9-2Z"/>
      <path class="st4" d="M370.6,115.2c3,0,6,0,9,0v3c-3.5-.6-9.3.8-12.4,0s-.5-1.8-.6-2c1.2-.8,2.6-.9,4-1Z"/>
      <path class="st4" d="M322.5,120.3c.6.7-.1,4.5.1,5.9-1-.5-5.7-.8-5.9-1-.5-.5-.2-4.7.9-5.5s4.7.5,4.9.7h0Z"/>
      <path class="st9" d="M440.6,111.2c3,1.1,5.7,4.1,10,3,3.5,2.6-8.1,2-9,2s-1.2-.9-3-1c.3-.7.6-1.4,1-2s1.1-1.1,1-2Z"/>
      <path class="st9" d="M473.6,120.2c.7,0,5-2.1,5,1.4,0,5.1-3.1,3-6,3.6l1-5Z"/>
      <path class="st7" d="M379.6,113.2c1.4,0,4.8,1.7,7,1.5,0,.9-5.7.5-7,.5-3,0-6,0-9,0v-2c2.9,0,6.2-.3,9,0Z"/>
      <rect class="st7" x="385.6" y="110.2" width="22" height="1"/>
      <path class="st9" d="M438.6,121.2v2c-2.3-.3-6.9-1-9-1v-1c2.9,0,6.1.2,9,0Z"/>
      <path class="st9" d="M417.6,116.2l1,3c-3-.9-5.5-2.6-9-2,1.1-2.1,5.9-.6,8-1Z"/>
      <rect class="st9" x="410.6" y="114.2" width="5" height="1"/>
      <path class="st3" d="M330.6,129.2h1l-.5,1-.5-1Z"/>
      <path class="st0" d="M334.6,497.2c1.2,0,5.7-3.3,5,1-1.8,0-3.5.5-5-1Z"/>
      <path class="st0" d="M366.6,499.2h-4c.3-1.5,3.6-1.6,4,0Z"/>
      <path class="st0" d="M350.6,498.2h-4c.6-1.7,3-1.2,4,0Z"/>
      <path class="st3" d="M482.6,250.2c-.3,3.3.2,6.7,0,10h5v1c-4.4-1.3-3.8,1.9-4,2s-2.5-.2-3.9.5c-5,2.6-15.4,26.2-12.1,30.9s1.6.4,2.1.6c4.5,1.7,9.1-.3,10.6-4.9s1.6-6.8,2.4-10.1c2.9-.6,2,1.5,2,4s0,.7,0,1c-3.4-.8-4,7-2,9,0,.5-.1,1.8,0,2,.8,1.6,2.7.9,4,1l-1,2c-1.2.7-1.4,2.1-2,3-3.8,5.7-4.8,8.9-3.5,16.1s0,3.5,2.5,2.9v2c0,.7,1,1.8,1,3,0,2.6-1.2,7.9-1.1,10.5s2.1,2,2.1,2.5c.1,1.4-1.3,7.2-1,10.5.4,5.6,4.7,14.2,0,18.5-9.4-1.9-9.1,4.7-9,12-.4.1-5.7,5.2-6.4,6.1-1.6,2-2.8,4.5-3.6,6.9l-2-2c-.2-3.5-1.5-8.2-1-11.3s4.6-2.9,5-3.4c1.8-3-3.2-15.6-5.7-16.2s-3.1,1.2-4.3.4-1.3-3.9-4-5.6v-4c.9.2,2,0,3,0h1c4.9-.6,9.7-.7,11.7-5.8s-.2-4.3,2-5.1c6.7-2.3,4.2,4.9,5.4,5.9s2.9,0,3.5-1-.5-7.7-.8-9.3c-6.5-31.1-11.9-4.8-14.8,9.3-3.7-1.9-8.8,2.4-11-2,0-1,.1-2.1,0-3,9.8-1,14-7.8,1-7,.2-1-.3-3.7,0-4,.6-.7,9.6,1,9.1-4.5s-8-1-11.1-.5-.7,0-1,0c-1.1-2.3,2-5.1,1.8-6.3s-1.6-1.9-1.8-3.3c-.3-2.3,2.9-12.3-2.7-12.2s-1.3,1-4.3.8v-1c1.6-.9,5.8-2.8,7-4.1s-1-.8-1-.9v-1c1-8.2,2.2-23.3,1.1-31.6s-2,0-1.1-2.4c5.6,2.3,6.6,3.9,13,4s2.9.2,4,0c8.1-1.4,12.1-9.9,16-16h-.1ZM461.6,296.2l-1-3.9h-1c.4,3.2-1.4.8-3.7,1.6s-3,2.6-3.3,3.3c3.6,1.8,5.6,0,9-1ZM461.3,303.4c-7.9,2.6,2.8,16.7,8.7,12.7s5.5-11.9.1-12.9-7.4-.3-8.8.2h0Z"/>
      <path class="st2" d="M461.6,196.2c-1.5,4.6,1.8,4.8,1.9,5.1,1.3,2-2.3,2.5-2.7,3.1-2.6,4.5,3.4,2,5.8,2.2,3.7.4,5.6,3.1,8.9,3.6.4-3.1.3-6.3,4-7,.2.3,1.4.7,1.9,1.6,1.2,2.3.6,5.5,3.1,6.4-.1,8.8-.6,12.9,0,22s.3,5.8,0,8-1.7,5.3-2,9c-3.9,6.1-7.9,14.6-16,16-1-4.2,3-3.2,5.5-5,4.4-3,7.6-15.1,5-15-3.7,0-2.9,6.5-4.4,7.6-2.2,1.5-10.2.9-13.1.4l3,12c-6.4-.1-7.4-1.7-13-4,.1-.3,0-.7,0-1,2.2-9.2-.4-18.8,2-28,0,.2.8.8.9,1.6.7,5.9.5,14.6,8,17,19.2,6.1,19.7-36.2,10.4-41.4s-18.1,6.5-19.4,14.9c-1.8-6.7-1-14.9-1-22s0-2,0-3c4-1.3,6.7-3,11-4h.2Z"/>
      <path class="st11" d="M491.6,168.2c.3,10,1.3,29.3-1,38-5.1,1.3-1.5-5.4-6-8v-2c.2-9.4-.7-19,.7-28.4-1.3-4.3-5.5-6-6.7-9.6,1.4-.8,2.6-4.6,3-5,1.7-1.8,5.2-2.8,7-5,4.2,5.9,2.8,13.3,3,20Z"/>
      <path class="st1" d="M484.6,198.2c4.5,2.6.9,9.3,6,8-.2.9-.7,1.9-1,3-1.3,4.9-.7,7.3-1,12s.4,8.5-2,11-1.5.6-2,1c-.6-9.1-.1-13.2,0-22s0-8.7,0-13Z"/>
      <path class="st8" d="M494.6,210.2c.4-.5-1.1-2.7,2-2l1,23h-2v-6c-3.4,1.8-6,1.3-5,6h4c1,3-3.3,2.2-6,2s-1.7,0-2-1c2.4-2.5,1.8-7.8,2-11,1.3.4,2.2,2.9,3.5,1s4.2-10,2.5-12Z"/>
      <path class="st2" d="M489.6,209.2v5h1.5c.8-1.6,2.6-2.8,3.5-4,1.8,2-1.4,10.5-2.5,12s-2.2-.6-3.5-1c.3-4.7-.3-7.1,1-12Z"/>
      <path class="st2" d="M492.6,236.2c.2.2.3,1.3,1,2l2,7c-.1.5-.7,1.4-1,2-2.5-1.6-7.8-10.5-2-11Z"/>
      <path class="st8" d="M492.6,236.2c-5.8.5-.5,9.4,2,11-.1.3.4,5.3-2,3s-3.4-7.1-3.6-7.9c-.5-2.1-.4-3.9-.4-6.1,1.7-1.3,2.6-1.4,4,0Z"/>
      <path class="st12" d="M488.6,233.2v3c-2.6,2-.8,5.7-4,5,.3-2.2.2-5.7,0-8,.5-.4,1.6-.6,2-1,.3,1,1.2,1,2,1Z"/>
      <path class="st2" d="M495.6,231.2h-5c-1-4.7,1.6-4.2,5-6v6Z"/>
      <path class="st8" d="M495.6,245.2l-2-7c.2.2,2.2-.3,2.9,1.6,1,3-.5,3.8-.9,5.4Z"/>
      <path class="st3" d="M487.6,258.2c0-.6-1.1.2,0-3v3Z"/>
      <path class="st3" d="M481.6,390.2c2,.2,2.1-.8,3-2,1.1.3,1.8,2.9,2,3-2.8,2.3-2.6,6.9-1,10-5.3.4-1.6,3.8-1,7h-1c-5.8.4-5.4,3.9-7,7s-2.4,1.8-2.9,5.6c-.9,6.6.9,19.8,10.3,17.5s.5-1.9.6-2.1.6,0,1,0c.8-.2,2.1.1,3,0-.2.5.2,2-.5,2.9-1.5,2.1-4.9,5.9-7.5,4.1-1.9-.9-4.7-.5-6.6-1.9s-4.4-7.1-4.4-7.6v-19c0-2-4.1-2.3-5.7,1.3-5,11.1,0,31.8,12.7,36.2s3.4,1.6,6,1c-.2,1.2.3,5.7,0,6-.8.8-11.2-2.3-11,4h-2c-2.3-.3-17.5-1.8-14-6s3.9,1.3,3-2c-8.2-3,1.4-7.1,1-12-1.4-1.4-7.5,5.8-8-2,7.2-2.1,10.7-29.3,11-36,.5-.1.9-.5,1-1,9.7,4.2,3.2-9.2,11.1-14.5,4.4-2.9,4.4.2,6.9.5ZM472.9,399.4c-1.8,3.4,2.8,10,6.6,5.2,5.5-7-1.8-14-4.8-10.3s1,1.9.3,3.7-2,1.2-2.1,1.5h0Z"/>
      <path class="st2" d="M480.6,443.2c5.1,2.4,4,8.1-2,9h-2c-12.6-4.5-17.8-25.1-12.7-36.2s5.7-3.2,5.7-1.3v19c0,.4,3.8,7.1,4.4,7.6,1.9,1.4,4.7,1.1,6.6,1.9Z"/>
      <path class="st6" d="M498.6,351.2v3c-5.1,2.2-3,10.9-8,12-.2-4.2-2.4-14.5-1.8-18.2s7.1-17.5,8.8-22.8c1.7,1,1,3.8,1,5.5,0,6.6.4,14,0,20.5Z"/>
      <path class="st2" d="M483.6,381.2c-.6,2.8.3,5.9-2,9-2.6-.3-2.5-3.4-6.9-.5-7.9,5.2-1.4,18.6-11.1,14.5.2-.9,0-2,0-3v-1c.2-2.6.2-4.4,1-7s2-4.9,3.6-6.9,6-5.9,6.4-6.1c2.4-.8,6.4.9,9,1Z"/>
      <path class="st15" d="M483.6,368.2c4.7.9.6,9.9,0,13-2.6,0-6.6-1.8-9-1,0-7.3-.4-13.9,9-12Z"/>
      <path class="st6" d="M483.6,326.2l9-3c.2.2-.7,5-1,6-.9,3.4-3,9.5-7,10,0-.5-2.1-.8-2.1-2.5-.1-2.6,1.1-7.9,1.1-10.5Z"/>
      <path class="st8" d="M490.6,409.2c.5.4,1,5.2,5,4-1.8,9.6-2.4,14.4-7,23-.9.1-2.2-.2-3,0,5.7-7.9,6.2-17.9,3-27,.6.2,1.7-.2,2,0Z"/>
      <path class="st8" d="M484.6,388.2c.7-.9.9-2.8,2-3.5,8.2-4.8,4.6,9.5,7.3,11.3s2.3,0,2.6.3c.6.6,0,3.6.1,4.9-.5-.1-.9-.5-1-1-.3-2.4.7-4.3-3.4-3.1s-.2,2.5-2.6,4.1c1.4-2.3,2.5-9.9-.6-10.9s-2.3,1-2.4.9-.9-2.7-2-3h0Z"/>
      <path class="st2" d="M495.6,400.2c0,.5.5.9,1,1v1l-.8.7c.9,2.1-1.5,9-1.2,9.3s1.4,0,2,0c0,.3-.9.7-1,1-4,1.2-4.5-3.6-5-4,1.1-3.4.1-9.9,5-9Z"/>
      <path class="st8" d="M496.6,362.2v1c-3.7-.2-3.8,7.9-4,11-.6-.1-1.6.2-2,0v-8c5-1.1,2.9-9.8,8-12-.3,2.8-1.4,5.1-2,8Z"/>
      <path class="st7" d="M496.6,362.2c2.7-.3,1.8,0,2,2-1.9,1.4-4,10.5-4,13-1.1-.8-1-1.8-1-3,0-3.6,2.2-7.3,3-11s0-.7,0-1Z"/>
      <path class="st0" d="M496.6,363.2c-.8,3.7-2.9,7.4-3,11h-1c.2-3.1.3-11.2,4-11Z"/>
      <path class="st8" d="M496.6,412.2c-.6,0-1.8.2-2,0-.3-.3,2-7.2,1.2-9.3l.8-.7c.4,4,.8,5.3,0,10Z"/>
      <path class="st8" d="M478.6,452.2c1.3,0,2.7-.1,4,0v1c-2.6.6-4-.3-6-1h2Z"/>
      <path class="st5" d="M490.6,374.2c-2.6-1.2,0-3.4,0-4v4Z"/>
      <path class="st6" d="M319.6,129.2c-.7,3.5-3.1,19.9-6,21-2.9,1.1-2.4-.3-4,.5-4.1,2.1-2.9,9.6-3,13.5-3-.6-1.9,1.5-2,3.5-.3,9.7-1.5,34.6,1,42.5-4.1,1.9-.9,6.1,0,9s1,.8,1,1v2c0,.5-.9,2.9-1,3-1,.8-1.6-1.9-3,2s0,.7,0,1c-.4,2.8-1.4,5.8,3,5-.9,2,.8,4,1,5s0,.7,0,1v1c0,.1-.6,0-1,0s-.1-1.1-1.5-.1c-4.6,3.3-2.4,4.5.5,7.1s.8-.2,1,0-.3,1.2.3,1.7c1.1.9,3.3-1.1,2.7,3.3s-1.1,2.9-1.1,5.5,4,14.9-.4,15.4-1.9-1.6-2.5-1.9c-1.3-.6-3.6-1.1-3.8-1.2-.6-.5-1.2-5-1.3-6.3-2.3-32.6,1.8-68.1.1-101,2.3-8.8,7.9-14.7,11.5-21.5s1.7-1.7,2.1-2.9c1.6-4.2-.3-10.4,6.3-9.2h0Z"/>
      <path class="st13" d="M317.6,257.2c.8.2.7.5,1,1,1,1.6-.2,2.3,4,3,3,3.1,3.5,3,7,5-.4,3.3,3.3,2.4,4.1,3.6,1.9,2.8-.3,10.6,4.9,11.4.1,1.7.9,11.7.7,12.3-1.2,4.1-3.8,1.6-4.7,1.7,1.4-5.2-3.9-5.4-5.5-8s-2.3-8.5-5.1-11.9-9-5.5-10-7-1.1-8.5-1.5-11c1.5.2,3.7-.4,5,0h.1Z"/>
      <path class="st2" d="M299.6,290.2l3-4c6.2-1.7,7.9,11.9,4.5,13-5,1.5-4.1-6.2-4.6-6.9s-1.6,0-1.9,0c-1.3-.8-.8-.8-1-2h0Z"/>
      <path class="st12" d="M312.6,252.2h-4c.6-4.4-1.6-2.3-2.7-3.3s-.2-1.6-.3-1.7l6-6c.4,3.6,1.6,7.2,1,11Z"/>
      <path class="st8" d="M338.6,281.2c.6,0,1.9-.2,2,0,.7,1,1,14.9,0,16-2.6,0-5.4.3-8,0,.3-.9,1.1-1.9,2-2s3.5,2.4,4.7-1.7-.6-10.6-.7-12.3Z"/>
      <path class="st8" d="M312.6,252.2c2.4.4,4.9.4,5,3,4.6,1,2.8,1.6,5.8,3.9s2.8,1.3,4.3,2.5,1.5,3,2.1,3.4c1.7,1.1,4.7-1.7,3.8,3.2-1.5-.9-2.9-1.3-4-2-3.5-2-4-1.9-7-5s-1.5-3.2-4-3c-.3-.5-.2-.8-1-1v-2c-1.7-.4-3.4-1.3-5,0,0-.5-1.5-1.8-1-3h1,0Z"/>
      <path class="st2" d="M317.6,255.2v2c-1.3-.4-3.5.2-5,0,0-.6.1-1.4,0-2,1.6-1.3,3.3-.4,5,0Z"/>
      <path class="st13" d="M316.6,301.2h2c.3,2.5,2.7,4,3.7,6.8,3.2,8.6-.6,20.1-10.7,14.2-.8-1.2-1-1.2-2-2s-.6-.7-1-1c-.1-.6,0-1.4,0-2-.3-2.2-.3-2.7,0-5,.6-5.2,2.1-10.4,8-11Z"/>
      <path class="st2" d="M319.6,295.2v1c-1.7.5-2.8,1.3-4.5.1-5.2-3.4-3.1-15,2.6-11.6s2.2,7.8,2,10.5h-.1Z"/>
      <path class="st2" d="M316.6,301.2c-5.9.6-7.4,5.8-8,11-5.6-3.9,2.3-18.5,8-11Z"/>
      <path class="st13" d="M482.6,323.2v-2c0-2.7,2-8.5,0-10-.4-3.1,3.9-7.4,2-9h-1c.6-.9.8-2.3,2-3,11.6-1.6,8.5,28.9-3,24Z"/>
      <path class="st2" d="M483.6,273.2c-.3,1.5.3,3.7,0,5-.3,1.3-.8,1.1-1,2-.8,3.2-1.6,7.3-2.4,10.1-1.4,4.6-6.1,6.6-10.6,4.9v-1c10.9-.7,6.8-9.9,9.1-17.2s3.1-5.3,4.9-3.8Z"/>
      <path class="st2" d="M496.6,286.2c-.1.6,0,1.4,0,2s-.7-.2-1,1.5c-.3,2.4.1,5.1,0,7.5-1,.6-.7,2.7-3,2-1.6-3.8-.9-7.1.7-10.8s-.3-2.7,3.3-2.2Z"/>
      <path class="st13" d="M486.6,294.2c-.9,1.3-2.5,1.9-4,2-.1-.2,0-1.5,0-2,.4-2.7,1.7-5.8,2-9,3.5.8,3.8,6.2,2,9Z"/>
      <path class="st15" d="M497.6,297.2c-.6,0-1.7-.2-2,0,.2-2.5-.3-5.1,0-7.5s1-1.4,1-1.5c1.8,2.4.9,6,1,9Z"/>
      <path class="st2" d="M484.6,284.2c5.1-1.9,5.8,10.4,2,10,1.8-2.8,1.5-8.2-2-9v-1Z"/>
      <path class="st13" d="M487.6,261.2c0,8.5-2.9,6.7-4,12-1.8-1.5-4.8,3.4-4.9,3.8-2.3,7.3,1.8,16.5-9.1,17.2-1.1-5.4,4-5.1,4.8-6.2s1.6-8.1,2.8-10.7c2.3-5.2,8.1-7.2,6.4-14.1.2-.1-.4-3.3,4-2h0Z"/>
      <path class="st0" d="M370.6,113.2v2c-1.4,0-2.8.2-4,1h-1l-6-3h11Z"/>
      <path class="st0" d="M446.6,110.2c-.6,2.7,1.4,2,3.1,2.3,3.9.7,8.2,1.2,11.9,1.7-2.4,4.1,3.7,3.4,6,5-1.6.2-4.8,1.8-7.5,2-7.1.6-14.4.8-21.5,1v-1h3c.1-.6-.1-1.4,0-2s0-1.4,0-2v-1c.9,0,12.5.6,9-2-4.3,1.1-7-2-10-3s-.7,0-1,0c1.3-1.6,4.9-1.1,7-1Z"/>
      <path class="st7" d="M450.6,110.2c.2,0,.8.8,1.6.9,1.7.2,10.8.7,11.4,1.1s0,1.4,0,2c-.6,0-1.4,0-2,0-3.7-.4-8-1-11.9-1.7s-3.7.4-3.1-2.3c1.3,0,2.7,0,4,0Z"/>
      <path class="st6" d="M495.6,435.2l1,2h-1c-.1-.6.1-1.9,0-2Z"/>
      <path class="st13" d="M436.6,406.2c5-.3,10,.2,15,0,0,11.3-.7,23.9,0,35h-1c-3.1.9-1.7-.2-4.9,1.9s-1.9,0-2.1.1,1.4,2.3,1,2.9c-1.2,1.8-8,2.6-10,3.1-.1-1,.2-2.1,0-3,3,1,2.9-3.8.5-3s-1.2,1.9-1.5,2c-.6.2-4.2.9-5,1s-.7,0-1,0h-7c-1.5,0-4-2.1-6-1-1,2.8,1.8,1.7,2,2,1.7,2.7-2.1,1.7-3,2-.2-.9.5-3.1-.5-3-3.1,1.3-6.4-.3-5.5,4-1.5.4-.9-1.4-1.6-1.9-4.6-4-4.3,3.3-3.4,3.9s8.9.2,9.4,0c1-.3.4-2.6,1.6-3.1,1.1,4.8,2.6,2,6,2s3.4.3,6,0c.9,6.7-5.3-1-8.4,4s.4.9,1.4,2c-8.8.5-19.1.2-28,0-.3-1.4.4-3.8,0-5,1.8-.9,3-2.9,3-5-1.6-.5-3.3-.7-5-1s-2.2-1-3-.5c2.1,2.9.4,3.1-1,4.5.1-2,0-3.2-2-4l-.5-1-.5,1h-1c-8-1.2-3.8,3-9.5,4-3-2.7-5.8-5.6-8.7-8.4s-2.2-.4-2.6-.9c-.6-.7,0-3-1.1-4.4s-3.5-1.1-3.9-1.6-.4-4.7-1-6.5-2-1.4-2.1-2.1c-.4-1.9.2-4.3,0-6.3,1.6-.4,2.7.6,4,1s.7-.1,1,0v4h6c4.7.2,8.9-.7,13,0-.7,2.5,2.2,2.5,3.8,2.7,2.8.3,12.5.9,14.3-.2s.7-2.3.9-2.5c.8-.8,3.6-2.4,4-3,1.7,1.4,3.4.7,5.2.7,9-.2,28.3.2,35.8-2.2s4.9-10.7.5-11.6l-38.5,2c0-.9.1-2.2,0-3h1c9.3-1.2,18.7-.6,28-1,9.3-.4,3.8-.9,6-1v.4Z"/>
      <path class="st2" d="M351.6,362.2c0,1,.4,1.5,0,4l-7-2c.5,3.3-.8,8.5,0,11.4s1.9.5,2,.6c6.3,6.3-.7,15.9,1,24l7-4c-4,5.9-5.3,11.3-2.7,18.2s3.5,4,3.7,6.8c-1.3-.4-2.4-1.4-4-1,.2,2-.4,4.4,0,6.3s1.6.7,2.1,2.1.6,6,1,6.5,2.9.2,3.9,1.6.5,3.6,1.1,4.4,2,.3,2.6.9c2.9,2.8,5.7,5.7,8.7,8.4,5.7-1.1,1.5-5.2,9.5-4-.1,4.5,0,8,4,4s3.1-1.6,1-4.5c.7-.5,1.9.3,3,.5-1.5,3.1,1.9,5.6,2,6,.4,1.2-.3,3.6,0,5-2.3,0-4.7.2-7,0l-17.3-8.2c-9.4-5.6-19.7-24.7-19.7-35.3v-29c0-.6,1.9-3.4,1-4.5s-5-.7-6-2c-.8-3-2-14-.6-16.1s8.6-1.2,10.6,0h0Z"/>
      <path class="st2" d="M450.6,441.2c.6,2.7-.9,2.9-2.3,4.2-7.2,7.1-19.8,11.2-29.7,11.8-.9-1.1-2.4-.3-1.4-2,3-5,9.3,2.7,8.4-4,2.9-.3,6.2-1.3,9-2s8.8-1.3,10-3.1-1.3-2.7-1-2.9,1.5.3,2.1-.1c3.2-2.1,1.7-1,4.9-1.9h0Z"/>
      <path class="st13" d="M424.6,335.2c1.2.2,5.7-.3,6,0,1.2,1.1-1.1,11.1-1,13.4.6,9.3,11.9,10.6,13,1.6h3c.8,3.7,3.3,3.4,6,5,.5,2.8-.7,7.7,0,10-1.2.3-4.8-.7-5,.6s-.3,8.4.2,9.8c.7,2.2,2.7,1.2,3.9,1.6,2.4,1,0,16.1,1,17s9.2-2.2,9.1,4.5-4.7,6.8-9.1,6.5v-2c1.5-.2,3.9.1,4,0,.3-.3.4-5.4,1-6.5,0-1.1-2.9-.3-4-.5-10.4-2.1-20,.6-30.5,1s-17.1-.4-25.5,0c-.9-2.3-.3-1.9-1.9-4.8s.3-2.4-.3-3-1.6,0-2.4-.5-3.2-4.7-3.4.4h-1c-3.3,0-5.3-.3-5,4h-2c-1.4,0-5.4.3-5.9-.1-2.1-1.8,1.6-9.7-7.6-7.9s-1,7.9-7.8,6l-4.7,4c-.2.1.2.8,0,1l-7,4c-1.7-8.1,5.3-17.7-1-24-1.5-6.3,2.9-2.7,4.6-4.9s.2-3.6.4-5.1c.4-2.5,0-3,0-4s1.8-1.4,2-2l1,.5c-1.3-5.3,6.2.6,5-5.5h2c2.4,0,.6,1.6,5-1s1.5-2.1,3.3-1.8,4.8,3.9,8.4,4.6c6.6,1.2,8.8-1.2,12.9-1.6s2.8,1.9,5.8,1.9c7.1,0,4-6.9,9.5-8.1,0,6,5.6,10.4,11.3,7,5.7-3.4,2.1-6.8,2.7-9s4.2-6.3,4-12h0ZM363.4,376c5.2-5.2-2.6-13.4-8.4-8.9s2.4,14.8,8.4,8.9ZM374.5,367.3c-.5-.7-6.4-1.6-6.9-1.1v12c3.6,1,1.3-3.2,2-4s3.5.5,4.5-1,.8-5.1.3-5.9h0ZM443.3,375.9c3.9-4.8-.3-13-7.3-8.8s1.3,16.1,7.3,8.8ZM384.5,374.1c4.1-2.5-1.9-9.3-6.9-6.9v11c3.6,1,1.4-3.4,2-4s3.7.6,4.9-.1ZM390.6,367.2h-3v12h3v-12ZM399,371.9c-1.6-1.4-2.3-5.1-5.3-4.7.2,2.1-.9,13.1,1.5,13s1.6-7.3,8.5-1v-12c-3.9-1-1.1,4.8-2,6-.8-.3-2-.8-2.7-1.3ZM416.6,368.2c-1.7-1.8-7.4-.9-9.1,1.4-5.9,8.3,11.2,14.9,9.1,3.6-1,.2-3.6-.3-4,0-2.3,1.8,2.6,1.8,2,3-6.2,1.8-6.3-6.1-2.4-6.8s7.3,1.8,4.4-1.2ZM431.6,377.1c.2-.4,0-8.6-.3-9-1.1-1.7-5.6-.8-7.6-1v11c.5.5,7.5-.4,7.9-1.1h0Z"/>
      <path class="st11" d="M341.6,348.2c-3.4,2.1-15,1.2-15-3.5v-22c0-2.6,15.2-3.3,15.1,7,0,3.4-2.7,6,1.4,8.5,2,.6,2.2-5.8,2.2-6.7s-.2-1.4-.7-2.3h1l2-2c1.4-.8,1.2-1,2-2,20.3-9.3,30.1,25.6,10.5,27s-12.2-7.4-15-7.7-2.3,2.3-2.5,2.7-.8.6-1,1ZM336.6,331.2c.6-3.8-1.7-4.4-5-4v4h5ZM362.4,344.9c4.3-3.4,2.7-13.8-4.3-14.7-14.5-1.8-6.2,23.2,4.3,14.7ZM337.5,338.4c-.4-.6-5.5-1.5-5.8-1.1.2,1.4-.5,5.3,0,5.9,1.7,1.9,8.8.3,5.8-4.8Z"/>
      <path class="st8" d="M349.6,325.2c.2-.2-.6-1.3.7-2,3.5-2,15.2.1,17.7,2.9s-1.8,7.7,5.6,1.1c.8,5.1-1.8,22.2,1.4,25.1s16.2,2.4,18.1-4.1c.8,0-1,8,5.2,5.4s2.2-7.5,3.4-8.2,6.1-.4,6.7,0c1.2.8,1.3,10.5,6.9,8.2,4.4-1.9-.3-8.8-1.5-12.1s0-2.6-.2-3.2c3.3.8,1.4-3.5,4-5-.3,5.4-1.4,9.6,3,14-.6,2.2.7,7.1-2.7,9-5.7,3.3-11.2-1-11.3-7-5.6,1.1-2.4,8.1-9.5,8.1s-4.6-2-5.8-1.9c-4.1.4-6.3,2.8-12.9,1.6-3.7-.7-6.7-4.3-8.4-4.6s-2.4,1.2-3.3,1.8l-5,1h-2c-1.8,0-3.5,0-5,1,.2-4.8-1.4-2.4-4.3-4.2s-4.1-5.1-7.7-4.8c.2-.4,0-3.1,2.5-2.7s4.6,8.5,15,7.7c19.7-1.4,9.8-36.3-10.5-27h0Z"/>
      <path class="st2" d="M359.6,355.2c1.2,6.1-6.3.2-5,5.5l-1-.5c.3-1.2,1-2.9,1-4,1.5-1,3.2-1.1,5-1Z"/>
      <path class="st8" d="M309.6,320.2c-.5-.1-.9-.5-1-1,.4.3.6.7,1,1Z"/>
      <path class="st13" d="M322.6,410.2c.9,3.2,3.6,3.2,6,6,5.5,6.4,4.9,13.7,1,21-.3.3-.7.6-1,1h-2c-12.2-.2-13.3-8.1-13-18,1.8-3.5,4.8-5,6-8s.7-1.3,1-2h2Z"/>
      <path class="st8" d="M328.6,414.2c1,1,3.4,2.9,3.8,3.7,2.2,4.2,2.8,13.6.3,17.7s-2.6,1.1-3.1,1.7c3.9-7.3,4.5-14.6-1-21v-2h0Z"/>
      <path class="st2" d="M325.6,411.2c.3.2.6.7,1,1l1,1c.4.3.7.7,1,1v2c-2.4-2.8-5.1-2.8-6-6,.8.3,2.4.7,3,1Z"/>
      <path class="st8" d="M327.6,413.2l-1-1c.4.3.6.7,1,1Z"/>
      <path class="st2" d="M319.6,399.2c-1.5,3.9-2.4,4.1-6,4-.6-1.6-2.2-2.7-3-4s-.9-1.9-1-3c2.2-1.4,3.6-3.6,4.5-6,3.7,2.6,4.1,5.1,5.5,9Z"/>
      <path class="st2" d="M309.5,403.3c.9.7,2.3,11.5-1.4,10.9-8-1.2-3.5-14.8,1.4-10.9Z"/>
      <path class="st2" d="M320.6,410.2c-.3.7-.7,1.3-1,2-4.1-.7-6.3,2-6.8,5.8s.8,2.1.8,2.2c-.3,9.9.8,17.8,13,18-5.8,6.1-12.9-3.8-14.3-9.2s-1.8-15.8,4.3-19.8c1.8.3,2.7.7,4,1Z"/>
      <path class="st2" d="M331.6,407.2l-7-1c-.4-4.1-2-6.4,0-11,7.8-1.2,9.3,5.9,7,12Z"/>
      <path class="st11" d="M442.6,167.2c.3.4.7.7,1,1l1,1c1.3.8,7.1,1.7,7,4-1.6,1.8-1,4.6-1,7-7.2-2.6-14.1-7.5-22-7v14.5c0,3.1-4.4,3.9-7,3.5s-4-3.2-4-5.5v-15.5c0-.4-6.7-.8-7-1s.3-1.3-.2-1.7c-.9-.8-22-.7-24.1-.2s-4.9,4.6-4.7,5.5c.4,1.8,3.7,1.4,5,1.5.2,5.9,2.7,12.5-1,18-.3-.2-3.3-.1-4,0l-3-1c-.3-.3-.5-.7-1-1-1.8-5.5-.7-11.3-1-17-.9-.9-12.9,3.3-15,4,.2-2.6-.2-5.4,0-8,3.9-.9,9.2-3.8,13.8-4.7,22.4-4.9,45.3-3.1,67.2,2.7h0Z"/>
      <path class="st14" d="M354.6,160.2v1c.7,3.7,2.1,8.2,6,8s.7,0,1,0c-.2,2.6.2,5.4,0,8-.4.1-1.5-.3-1.9,0-.5.6-.5,5.5-1.2,7.1s-3.9,5.3-4.2,5.5c-.8.5-2.5.2-3.6.8-3,1.7-4.5,4.5-9.1,3.4-4-.8-6.2-.8-9.5-4s-5.1-9.4-5.7-9.8-1.4,0-1.8-.2l.4-8.1c1.5-2.2,5.5,0,7.8-.2,8.6-.7,15.2-5.6,14.8-14.7h1c2,1,4.1,1.8,6,3v.2ZM329.1,174.2c-2.4.6-1.7,5.6,1,5s1.7-5.6-1-5Z"/>
      <path class="st11" d="M379.6,145.2c.9,0,2.3-.4,2.9.2.8.8,2.4,5.3,2.1,6.8-1,6.7-9.5,2.6-10,3s0,5.1-3,4c1.5-2.9,1.7-11.8,2.9-13.4s3.9-.7,5.1-.6ZM377.2,148.3c-3.6,1.1-.5,6.9,2.9,5.9s2.3-7.5-2.9-5.9Z"/>
      <path class="st11" d="M386.6,152.2v-7c4.8.3,7.9-1.2,8,4s-.6.4-.7,1.3c0,.9,1,2.6.6,4.1-.7,2.6-5.8,1.5-7.9,1.6v-4h0Z"/>
      <path class="st11" d="M363.6,145.2c1.7,0,3.6-.3,5.3.2,3,.8,3.4,9,.7,10.3-7.5,3.7-6.1-5.7-6-10.5Z"/>
      <path class="st11" d="M439.6,143.2c-.1.6.2,1.5,0,2.3s-3.8,2.5-2,6.7l3.5-4c1.9,3.4-1.2,5.1-3.5,7,0,0-1.5.2-2-.7-3.3-5.6.2-6.9,0-7.3s-3.5-.3-3-2.5,4.8-2.2,7-1.5Z"/>
      <path class="st11" d="M405.6,153.2c.4,1,1.4,1.5,1,3-4.7-2.4-5.3-2.4-10,0-.3-.4.7-3.2,1-4,.9-2.4,2.5-4.7,3.5-7,2.2,2.3,3.4,5.1,4.5,8Z"/>
      <path class="st11" d="M416.6,145.2c1.5-.3,3.4.2,5,0,.3,4.8-5.9,0-6.8,4.6-.9,4.5,3,3.1,5.3,3.3,3.9.5.6,2.9-2.1,2.9-4.8,0-4.5-1.7-5.4-4.9s0-1.4,0-2v-1c1.1-2,1.7-2.6,4-3h0Z"/>
      <path class="st11" d="M432.6,155.2c-3.4-1.1-5.6-1.2-9,0,2.9-13.4,5.3-12.6,9,0Z"/>
      <path class="st2" d="M360.6,169.2c-3.9.2-5.3-4.3-6-8h1l5,8Z"/>
      <path class="st2" d="M477.6,158.2h1c1.2,3.7,5.4,5.3,6.7,9.6-1.4,9.4-.6,18.9-.7,28.4-3.6,1.3-3.3-2.6-4-3-2.1-5.6.9-11.3-1-17,.9-2.8,2-7.7,2-10.5s.2-1.8-1.5-1.5-17.4,13.7-22.2,15.8-4.7,1.4-7.3,1.2v-1c0-2.4-.6-5.2,1-7,9.9-1.8,16.8-11.3,26-15Z"/>
      <path class="st12" d="M444.6,169.2l-1-1c.3.3.7.8,1,1Z"/>
      <path class="st12" d="M412.6,149.2c0-.4-.7.3,0-1v1Z"/>
      <path class="st11" d="M313.6,150.2c1.5,3,4.5,4.1,7,6s2.1,1.3,3,2,1.9,2.8,4,3c-1.2,1.4-2.2,3-2,5-2.1-1.1-5.8-1.6-8-3-.9,1.3,4.5,16.2,5.1,16.9s1.4,0,1.9.1c-.6,4,2.9,7,1.4,10.7s-12.7,4.8-14.4,16.3,0,.7,0,1c-2,0-2.9-1-3.8-2.7-2.3-4.5-1.5-34.1-1.2-41.3s-1.1-11.4,3-13.5,3.2-.2,4-.5Z"/>
      <path class="st2" d="M348.6,157.2h-1c-2-.6-7.5-1.9-8.8-.7s-.1,1.7-.2,1.7c-.3.2-2.5-.2-3.9.5-2.9,1.5-6.8,6.9-6.1,10.5-.9-.6-1.6-2.2-3-3-.2-2,.8-3.6,2-5,4.5-5.5,11.5-8.3,18.5-6s2.2,1.8,2.5,2Z"/>
      <polygon class="st9" points="436.6 117.2 435.1 119.2 420.6 117.2 436.6 117.2"/>
      <path class="st9" d="M441.6,117.2c0,.6.1,1.4,0,2-4.5.7-4.4-2.7,0-2Z"/>
      <path class="st6" d="M444.6,255.2c1.4,2.4,3.7,3.6,5,6,0,.3.1.7,0,1-.9,2.4.7-.2,1.1,2.4,1.1,8.3,0,23.4-1.1,31.6-2.5-1.2-3.2,1.9-3.4,1.9-.9,0-1.9-1.1-3.8-.7s-11.7,4.9-6.2,6.8,3.4-1.9,4-1.9,2.3.9,3.4,1c3,.3,2.7-.7,4.3-.8,5.5-.1,2.3,9.9,2.7,12.2s1.7,2.4,1.8,3.3c.2,1.2-2.9,4-1.8,6.3-.6.1-1.5,1-2,1h-2c-.7,0-.8-1-1-1-.9-1.6-5-1.6-6,0-.5,0-1.9.9-3,1l-.5-2-8.5,2h-1c.1-.6-.1-1.4,0-2,.3-1.1,1-1.9,1-2,.2-1.1.7-2.3,1-4,1.6-9.2,4.4-22.1,5-31,4.9-8.3,5.4-19.1,8.3-28.2s.2-3.3,2.7-2.8h0Z"/>
      <path class="st15" d="M452.6,355.2c2.7,1.7,2.7,4.8,4,5.6s2.9-.7,4.3-.4c2.6.5,7.5,13.2,5.7,16.2s-4.7,1.9-5,3.4c-.6,3,.7,7.8,1,11.3s-.9,7,1,9v1c-1.5.7-1,2.7-1,4-.3,6.7-3.8,33.9-11,36-.7-11.1,0-23.7,0-35v-1c4.4.3,9-1.4,9.1-6.5s-8.4-3.8-9.1-4.5,1.4-16-1-17c3.6-1.8,3.8-6.8,2.8-10.3s-1.8-1.5-1.8-1.7c-.7-2.3.5-7.2,0-10,.2.1.8-.1,1,0h0ZM463.6,375.2c.7-1.9-2.7-11.8-5-10s-2.4,9.5-4,11c4.8.6,3.4-6.1,9-1Z"/>
      <path class="st2" d="M452.6,343.2c2.2,4.4,7.3,0,11,2,2.9-14.1,8.3-40.3,14.8-9.3.3,1.5,1.3,8.4.8,9.3s-3,1.4-3.5,1c-1.2-1,1.3-8.2-5.4-5.9s-1.3,3.3-2,5.1c-1.9,5.1-6.8,5.2-11.7,5.8h-1c-7.2-1.4-3.1-4.1-3-8h0Z"/>
      <path class="st15" d="M483.6,263.2c1.7,6.9-4.1,8.9-6.4,14.1s-2.3,10.1-2.8,10.7c-.8,1.1-5.9.8-4.8,6.2v1c-.5-.2-1.3.4-2.1-.6-3.3-4.6,7.2-28.3,12.1-30.9s3.6-.3,3.9-.5h0Z"/>
      <path class="st15" d="M461.3,303.4c1.4-.5,7.2-.5,8.8-.2,5.4,1,3.4,10.5-.1,12.9-5.9,4-16.6-10.1-8.7-12.7h0Z"/>
      <path class="st13" d="M462.6,266.2l-3-12c2.9.5,10.8,1.1,13.1-.4s.7-7.5,4.4-7.6-.6,12-5,15-6.5.8-5.5,5c-1.1.2-2.8,0-4,0Z"/>
      <path class="st2" d="M451.6,324.2c3-.5,10.6-4,11.1.5s-8.4,3.9-9.1,4.5.2,3,0,4c13-.8,8.8,6-1,7-.1-1-1.3-2.7-1.4-4.8-.1-3.5.9-7.5.4-11.2Z"/>
      <path class="st11" d="M451.6,324.2c.5,3.7-.6,7.7-.4,11.2s1.3,3.9,1.4,4.8,0,2,0,3c-.1,3.9-4.2,6.6,3,8-1,0-2.1.2-3,0-1.2-.2-2.3.4-3.5-1-3-3.6-1.4-19.9-.5-25,.5,0,1.4-.9,2-1s.7,0,1,0Z"/>
      <path class="st8" d="M448.6,325.2c-.9,5.1-2.5,21.4.5,25s2.2.8,3.5,1v4c-.2-.1-.8.1-1,0-2.7-1.6-5.2-1.3-6-5s.2-3.5,0-5-.5-.9-1-1c0-.4-.1-1.7,0-2,3-7.4,1.2-5.5,1-12s1.7-3.4,1-5h2Z"/>
      <path class="st12" d="M449.6,296.2v1h-1.3c-1.5,3.9-5.7-.2-4.7,5v1c-1.1-.1-2.6-1.1-3.4-1s-.2,3.2-4,1.9c-5.5-1.9,4.1-6.3,6.2-6.8s2.9.7,3.8.7.9-3.1,3.4-1.9h0Z"/>
      <path class="st15" d="M484.6,302.2c-.7,1.6-4.9,7.9-4,9s1.7-.2,2,0c2,1.5,0,7.3,0,10-2.4.6-2.2-1.3-2.5-2.9-1.3-7.2-.3-10.4,3.5-16.1h1Z"/>
      <path class="st8" d="M461.6,296.2c-3.4,1.1-5.4,2.8-9,1,.3-.7,3-3.2,3.3-3.3,2.3-.8,4.2,1.5,3.7-1.6h1l1,3.9Z"/>
      <path class="st0" d="M484.6,285.2c-.3,3.2-1.6,6.3-2,9-2-2-1.4-9.8,2-9Z"/>
      <path class="st8" d="M449.6,297.2s1.2.6,1,.9c-1.1,1.3-5.3,3.3-7,4.1-1.1-5.2,3.2-1.1,4.7-5h1.3Z"/>
      <path class="st7" d="M464.6,393.2c-.8,2.6-.8,4.4-1,7-1.9-2-.8-6.1-1-9l2,2Z"/>
      <path class="st8" d="M455.6,351.2h1-1Z"/>
      <path class="st1" d="M450.6,180.2v20c0,6.3,0,2,0,3-7.9,5.5-10.1,14.5-11,23.5s.8,2.7-3,2.5c-5.8-1.3-9.1-2-15-4v-9.5c0-8.2-.1-16.4,0-24.5,2.6.4,7-.4,7-3.5v-14.5c7.9-.5,14.8,4.4,22,7Z"/>
      <path class="st3" d="M451.6,233.2c-.1-2.2-.3-6,0-8,1.3-8.3,9.7-20.4,19.4-14.9s8.8,47.5-10.4,41.4c-7.5-2.4-7.3-11-8-17s-.9-1.4-.9-1.6h-.1Z"/>
      <path class="st15" d="M450.6,181.2c2.5.2,4.9-.2,7.3-1.2,4.8-2.1,20.1-15.4,22.2-15.8s1.6,0,1.5,1.5c0,2.8-1.2,7.7-2,10.5-1.4,4.4-7.2,11.4-2.5,16s3,.7,3.5,1c.7.4.4,4.3,4,3v15c-2.5-.9-1.9-4.1-3.1-6.4s-1.6-1.2-1.9-1.6c-.4-.7-.3-1.9-1.4-3-5.3-5.3-9.8-5.5-16.6-4s-7,2.7-11,4v-19Z"/>
      <path class="st11" d="M451.6,225.2c-.3,2-.1,5.8,0,8-2.4,9.2.2,18.8-2,28-1.3-2.4-3.6-3.6-5-6-4.2-7.2-5.4-16.1-4.9-24.4,0-.3-2.7-1.5-3.1-1.6,3.7.2,2.7.5,3-2.5,1-9,3.1-18,11-23.5,0,7.1-.8,15.3,1,22Z"/>
      <path class="st13" d="M479.6,203.2c-3.8.7-3.6,3.9-4,7-3.4-.5-5.3-3.2-8.9-3.6s-8.4,2.2-5.8-2.2,3.9-1.1,2.7-3.1-3.5-.4-1.9-5.1c6.8-1.6,11.3-1.3,16.6,4s1,2.4,1.4,3h-.1Z"/>
      <path class="st15" d="M483.6,408.2c.6,9.1-1.3,19.2,1,28-.1.1.5,1.8-.6,2.1-9.4,2.4-11.2-10.9-10.3-17.5s2-3.8,2.9-5.6c-.7,1.2-2.6,8.2,1,7-1.1-4.9,4-6.5,4-11-.2-.2-4.8,3.7-5,4,1.6-3.1,1.2-6.6,7-7Z"/>
      <path class="st13" d="M488.6,409.2c3.2,9.1,2.7,19.1-3,27-.4,0-.9-.1-1,0-2.3-8.8-.4-18.9-1-28h1c.3,0,3.5.8,4,1Z"/>
      <path class="st15" d="M472.9,399.4c.1-.3,1.6-.3,2.1-1.5.7-1.8-.4-3.6-.3-3.7,3-3.6,10.3,3.4,4.8,10.3s-8.4-1.8-6.6-5.2h0Z"/>
      <path class="st6" d="M489.6,401.2c2.3-1.5,1.7-3.8,2.6-4.1,4.1-1.2,3.2.7,3.4,3.1-4.9-.9-3.9,5.6-5,9-.3-.2-1.4.2-2,0s-3.8-1-4-1c-.6-3.2-4.3-6.6,1-7s1.6,1.5,4,0Z"/>
      <path class="st2" d="M489.6,401.2c-2.4,1.5-3.2,0-4,0-1.6-3.1-1.8-7.7,1-10,.1,0,1.5-1.2,2.4-.9,3.1,1,2,8.6.6,10.9Z"/>
      <path class="st7" d="M463.6,404.2c0,.5-.5.9-1,1,0-1.3-.5-3.3,1-4,0,1,.2,2.1,0,3Z"/>
      <path class="st12" d="M361.6,177.2c2.1-.7,14.1-4.9,15-4,.3,5.7-.8,11.5,1,17-.3-.2-1.8.6-2.1-.6-.7-3,.5-8.4,0-11.9s-.8-3.1-2-1.5c.2,22.2-.5,44.4,0,66.6s1.1,3.2,1.1,3.4c0,2.6-1.2,7-1,11s.5,14.5,1,16.4,2,.6,2,.6c.4.6-.6,9.5,0,14-.6,0-1.9-.2-2,0-.3.4,0,9.1,0,11v12l-3.6-3.4c-.6-.4-.2-1.4-.4-1.6-.4-.6-.6-1.5-1-2l1-5c-1-.3-3.5.3-4,0s1.2-1.6-2-2l-12-37c1.9-4.1-.8-5.4-1-7.5-.4-3.9-.6-7.7-1-11.5s-.9-.9-1.1-2.4c-.8-6.6.7-14.8,0-21.6,1.4-1.4,18.4,4.4,21.5-2s.7-6.9-1-9-20.5-3.6-25.5-4v-7c10.2,0,16.1-8.7,17-18h.1Z"/>
      <path class="st11" d="M421.6,246.2c13.1-6.7,13.7,8.2,7,16.5s-7.8,6.1-9,6.5c-7,2.1-14.8-4.1-16.3-3.8s-5.4,2.7-5.6,2.9c-.8,1,1.6,6.3,1.9,7.9s.7,2.7,1,4,0,.7,0,1c2.2,8.7,4.8,17.3,7,26s.7,2.7,1,4,.9,1.7,1,2c.8,3.2.4,7.6,2,11-1.5.9-2.1,1.3-4,1,.8,4,4.7,9.4,6,13s-.1,2.1.2,3.2c1.2,3.3,5.9,10.3,1.5,12.1-5.5,2.3-5.6-7.4-6.9-8.2s-6.1-.4-6.7,0c-1.2.7-1.1,7.2-3.4,8.2-6.2,2.7-4.4-5.3-5.2-5.4-1.9,6.5-13.7,8-18.1,4.1s-.6-20-1.4-25.1c.3-.3.7-.6,1-1,5.6-2.4,17.4-.8,17.7,6.7s-1.8,4.2-1.5,5.7,4.1,3.4,2.8,6.6c3.2-1.5,3.1-6.8,4-9,1.9-4.6,3.1-10.9,9-10,.8-2.6-1.5-1.6-2-2.7-1.1-2.7-1.2-6.5-2-9.3s-.7-2-1-3c-.6-2.3-1.4-4.7-2-7s0-.7,0-1c-2-7.6-3.8-15.4-6-23s-.7-2-1-3c-.5-1.7-1.3-7-2.2-7.8s-7.9-2.4-10.7-4.8-3.2-5.6-6-7.5c-.2-4,1.1-8.4,1-11,3.7-2.8,8.4-2.7,10.9,1.6s.3,8.8,6.6,8.5,2.1-12.9,12.9-11.1c5.5.9,4,7.9,7,10.1,6.8,4.8,9-3.8,9.6-9.1v.2ZM379.6,335.2c7.9.9,8.1-4.9,0-4v4ZM379.6,341.2c-.1,3.9-.9,7.9,4.3,6.8,7.9-1.6,1.8-8.5-4.3-6.8Z"/>
      <path class="st11" d="M333.6,201.2c3.6.3,7.4.7,11,1s23,1.2,25.5,4,2.2,6.5,1,9c-3.1,6.4-20.1.6-21.5,2,.7,6.8-.9,15,0,21.6s1,2.3,1.1,2.4c-.3,9.4,3.3,28.3-12,20-.1-.2-.9-1.7-1-2l-1-44c-7.2-.3-18.1.1-18-9.5s9.2-5,15-4.5h-.1Z"/>
      <path class="st8" d="M376.6,288.2c1.4,11.1,4.5,22,6.5,33l7.5,3c-1.2-6.4-2.7-12.7-4-19,1.1,0,2-.5,3-1h10c.6,2.3,1.4,4.7,2,7-3-.5-2.6-3.3-7-3,3.6-5.2-4.8-3.2-6-.5l4,1.5c-1.8,2.4-.4,5.2,0,7.9,3.4,1.6,5-1.5,5.9-1.9s2.8-.6,4-1c.8,2.8.9,6.6,2,9.3s2.8,0,2,2.7c-5.9-.9-7.1,5.5-9,10,.6-1.8.4-6.4-2-7,3.6.3,2-5.2,6-5,.6-3.9-5.5-3.6-7.1-1.3s.2,4.6,0,6.3-2,5.9-1,9c.6.6,3.9-1.7,4-2-.9,2.2-.8,7.5-4,9,1.3-3.2-2.5-5.3-2.8-6.6s1.6-3.6,1.5-5.7c-.3-7.4-12.1-9.1-17.7-6.7,1.6-1.9,1.9-3.7,2.1-3.9,1.4-1.3,5.7,2.6,3.4-5.2s-2.2-8.4-3.2-14.8.4-3.7-2.3-3.1c0-1.9-.3-10.6,0-11s1.4,0,2,0h.2Z"/>
      <path class="st8" d="M324.6,180.2c.4.1,1.2-.3,1.8.2s3.3,7.5,5.7,9.8,5.5,3.2,9.5,4,1.2,1,3,1v2c-2.6-.9-5.8-1.1-8.2-2.1s-4.6-5.6-8.1-3.8l-5.7,5.8c4.5,1.8,8.5.9,13,0l-2,4c-5.8-.5-15-3.9-15,4.5s10.9,9.2,18,9.5l1,44c-.5-1.4-1.7-1.4-2-4.5-.6-5.4,1.1-36,0-37.4-2.7-1.5-13.4-1.4-14.8-2.2s-.5-2.4-1.1-3.1c-1-1.2-2.5-.9-2.8-3.4s1.1-4.7.8-7.3l-6,6c1.6-11.5,12.9-12.7,14.4-16.3s-1.9-6.8-1.4-10.7h0Z"/>
      <path class="st12" d="M306.6,164.2c-.3,7.2-1.1,36.8,1.2,41.3s1.8,2.7,3.8,2.7c-.4,3.9,1.1,8.7-1,12-1.1-3.6-3.9-6.5-5-10-2.5-7.9-1.3-32.9-1-42.5s-1-4,2-3.5Z"/>
      <path class="st8" d="M358.6,297.2c-2-.3-3.3-1.1-5-2-.9,1.2-.1,2.4,1.3,3.3,3.6,2.2,4.5,5.4,5.7-1.3,1.3.2,2.7-.2,4,0,3.2.4,1.6,1.8,2,2-1.4,1.2-2.1,3.4-1,5-6.2-.3-6.5-.8-11.8-2.9-6.9-2.7-11.2-2.1-5.2-11.1,2.9,4.1,9.3,1.5,10,7Z"/>
      <path class="st8" d="M352.6,260.2c-.8,1.8-4.2,4.8-6.5,5.1-6.1.7-5.3-.5-7.5-4.1,15.3,8.3,11.7-10.6,12-20,.4,3.7.7,7.5,1,11.5s2.8,3.4,1,7.5Z"/>
      <path class="st2" d="M310.6,220.2c.2.5-.1,1.4,0,2,.4,3.9-2.1,1.4-4,0v-2l-1-1c-.9-2.9-4.1-7.1,0-9,1.1,3.5,3.9,6.4,5,10Z"/>
      <path class="st2" d="M310.6,237.2c.1,1.3.9,2.7,1,4l-6,6c-.2-.2-.8.2-1,0l1-7c.4,0,.9.1,1,0l1-.5-1-.5v-1l4-1Z"/>
      <path class="st2" d="M306.6,227.2c1.4.1,2.8.1,4,1v4c-1,2-3.4.8-5,0s-2.9-1.9-3-4v-1c1.3,0,2.7-.1,4,0Z"/>
      <path class="st12" d="M310.6,232.2v5l-4,1c-.2-1-1.9-3-1-5v-1c1.6.8,4,2,5,0Z"/>
      <path class="st12" d="M306.6,222.2c1.9,1.4,4.4,3.9,4,0,.8,4.3.1,3.2,0,6-1.2-.9-2.6-.9-4-1l-1-2c.1,0,1-2.8,1-3Z"/>
      <path class="st2" d="M366.6,299.2c.5.3,3-.3,4,0l-1,5s-1.1.2-1.7-.3-1.1-4.1-1.3.3h-1c-1.1-1.6-.4-3.8,1-5Z"/>
      <path class="st12" d="M358.6,297.2h2c-1.2,6.6-2.1,3.5-5.7,1.3s-2.2-2.1-1.3-3.3c1.7.9,3,1.7,5,2Z"/>
      <path class="st2" d="M333.6,268.2c.3.2.6.7,1,1l4,10v2c-5.2-.8-3-8.6-4.9-11.4s-4.5-.4-4.1-3.6c1.1.7,2.5,1.1,4,2Z"/>
      <path class="st8" d="M334.6,269.2c.2.1,1.2-.2,1.7.3,2.9,2.8,2,6.3,2.3,9.7l-4-10Z"/>
      <path class="st8" d="M366.6,304.2c.2-4.5.9-.7,1.3-.3.6.5,1.6.3,1.7.3.4.5.6,1.4,1,2-2.7,1.1-3.2-1.6-4-2Z"/>
      <path class="st8" d="M347.6,327.2l-2,2c-.6-3,1.3-1.6,2-2Z"/>
      <path class="st8" d="M305.6,240.2l-1,7c-2.9-2.6-5-3.8-.5-7.1s1.4.1,1.5.1Z"/>
      <path class="st8" d="M305.6,225.2l1,2c-1.3-.1-2.7,0-4,0,1.4-3.9,2-1.2,3-2Z"/>
      <path class="st8" d="M305.6,232.2v1c-4.4.8-3.4-2.2-3-5,0,2.1,1.3,3.1,3,4Z"/>
      <path class="st12" d="M306.6,240.2v-1l1,.5-1,.5Z"/>
      <path class="st12" d="M306.6,220.2c0-.2-.9-.6-1-1l1,1Z"/>
      <path class="st2" d="M322.6,261.2c-4.2-.7-3-1.4-4-3,2.5-.2,2.9,1.8,4,3Z"/>
      <path class="st7" d="M482.6,311.2c-.3-.2-1.8.2-2,0-.9-1.1,3.3-7.4,4-9,1.9,1.6-2.4,5.9-2,9Z"/>
      <path class="st8" d="M380.6,393.2h2c1.1,0,3.3.4,3.9-.1s.3-3,1.1-3.9h1c8.6,1,.6,7,8,9,1.2,3,4.4,6.2,5,10s0,2.1,0,3c-.1,1.9-2.2,9.6-3,11s-3.2,2.2-4,3c-7.2,4-12.1,1.2-19,0s-8.3.2-13,0c-2.1-.8-4.3-3.2-6-4s-.7.1-1,0c-.3-2.7-3-4.8-3.7-6.8-2.6-6.9-1.2-12.4,2.7-18.2s-.2-.9,0-1c1.6-1.4,9.6-2.1,10-2.4,1-.9,1.7-9.5,6.5-4.6s-1.2,12.7,9.5,5ZM387.6,395.2c-1.1,0-1.9,1-2,1-1.9.2-7.4-.8-8,1.5s2,3.5,2.7,5.2c1.5,3.7.9,9.3-.4,13.1s-6.8,6.1.8,8.5c17,5.3,26.7-18.9,10.8-26.3-.2-.6-1-1.6-1-2,0-1,2.2-6-.5-6s-2.5,3.8-2.5,5h0ZM370.6,396.2c-.3-.6.2-2.1,0-3-2.5,2.8-5.5,1.4-8.2,2.3-10.2,3.3-11.8,14.9-5.2,22.7s2.2.8,2.4,1.1-.2,1.9,1.7,2.8,8,1.3,8.7,1.1.4-1.4,1.4-1.9,2.1.2,2.9-.3,2.8-3.9,3-4.5c2.3-5.4,1.9-11.8-1.7-16.5s-4.7-3.1-5-3.8h0Z"/>
      <path class="st9" d="M398.6,422.2c.8-1.4,2.9-9.1,3-11l38.5-2c4.5.8,5.4,9.7-.5,11.6s-26.8,2-35.8,2.2c-1.8,0-3.5.7-5.2-.7h0ZM419.6,412.2c-2.4-2.2-8.2,5.5-2.4,7.9,5.8,2.4,2.2.6,2.4-.4.5-2.4-2.7-1.6-3-3-.5-2.2,5.1-2.6,3-4.5ZM426.6,419.2l-.5-7-4.5,5c4.1-2,2.2.2,5,2ZM432.6,412.2c-5.6-.8-5.3,2.4-5,7h5l-3-2c.7-1.9,4.3-.9,0-2.5l3-2.5ZM437.6,412.2c-6.1-1.2-3.6,2.5-4,7h4c-.3-2.8-2.4-1.8-1.8-5.5s2.2.2,1.8-1.5ZM410.6,413.3c-.2-.2-2.1-.4-2,.4l2.5,6.5,2.5-7c-1.9-.4-.3,1.7-1.5,2-2.4.5-1.1-1.6-1.5-2h0Z"/>
      <path class="st11" d="M452.6,396.2c-.9.6-1.9.8-3,1-1.7.3-3.6.8-5,1s-1.1-.2-3,0-3,1.2-5,0v8c-2.2.1-4.3.9-6,1-.1-.6.2-1.8,0-2l3-2,1,2v-6l-2.5,2c0-3.7-12.8-2-14.3-.8s0,1.6-.2,1.8-.7,0-1,0-.9.1-1,0c-.2-.3.6-2.1-1-2s-.7,1.3-1.3,1.7-1.6.2-1.7.3c.2-4.5-2.4-.4-4,0s-1.6,0-2,0-.2-1.3-1-1v5c-1.1.4-1.6,1-2,2h-1c-.6-3.8-3.8-7-5-10s.1-.7,0-1c8.5-.3,17.1.4,25.5,0s20.1-3.1,30.5-1Z"/>
      <path class="st1" d="M427.6,446.2c-.4,4.2,1.4,4.2,1,0,.8,0,4.4-.8,5-1,.2.4,1,.8,1,1,.2.9-.1,2,0,3-2.8.7-6.1,1.7-9,2s-3.8,0-6,0c-.7-2.6-1.7-2.5,1-3.6v-1.4h7Z"/>
      <path class="st1" d="M430.6,405.2c.2.2-.1,1.4,0,2-9.3.4-18.7-.2-28,1,.4-1,.9-1.6,2-2s.7,0,1,0,.9.1,2,0,2.4-1,3-1c4.3-.3,9,1.7,14.3,0s2-4.1,5.7,0Z"/>
      <path class="st1" d="M413.6,449.2c-1.2.5-.6,2.8-1.6,3.1s-9,.2-9.4,0c-.9-.6-1.2-7.9,3.4-3.9s0,2.3,1.6,1.9c-.9-4.3,2.4-2.7,5.5-4,1,0,.3,2.1.5,3h0Z"/>
      <path class="st1" d="M444.6,403.2c3.1,1.2,1.8,0,3,0s2.8.2,4,0v3c-5,.2-10-.3-15,0v-1c2.2,1.2,3.7-2,4-2s2.1,2.8,2-1c.3-.3,1.3.7,2,1Z"/>
      <path class="st2" d="M420.6,446.2v1.4c-2.7,1.2-1.7,1-1,3.6-3.4,0-4.9,2.8-6-2,.9-.3,4.7.7,3-2s-2.9.8-2-2c2-1.1,5.2,1,6,1Z"/>
      <path class="st2" d="M394.6,425.2c-.2.2,0,1.9-.9,2.5-1.8,1.1-11.5.5-14.3.2s-4.4-.3-3.8-2.7c6.9,1.2,11.8,4,19,0Z"/>
      <path class="st1" d="M388.6,446.2c1.7.3,3.4.5,5,1,0,2.1-1.2,4.1-3,5-.1-.4-3.5-2.9-2-6Z"/>
      <path class="st1" d="M382.6,446.2c1.9.8,2.1,2,2,4-3.9,4-4.1.5-4-4h1c.3,0,.7-.1,1,0Z"/>
      <path class="st2" d="M362.6,425.2h-6v-4c1.8.8,3.9,3.2,6,4Z"/>
      <path class="st2" d="M433.6,445.2c.3-.1.8-1.7,1.5-2,2.3-.8,2.5,4-.5,3,0-.2-.8-.6-1-1Z"/>
      <path class="st2" d="M428.6,446.2c.4,4.2-1.4,4.2-1,0h1Z"/>
      <path class="st2" d="M382.6,446.2c-.3-.1-.7.1-1,0l.5-1,.5,1Z"/>
      <path class="st11" d="M433.6,286.2c-.6,8.9-3.4,21.8-5,31l-1,4c0,.1-.7.9-1,2-8.1,1.7-2.1,8.8-2,12,.2,5.7-3.2,9.2-4,12-4.4-4.4-3.3-8.6-3-14s.9-2.3,1-4c2.1-4.9,2.1-10.9,3-16s.7-3.3,1-5c1.5-8,4.5-17.4,5-25.5s-1.2-1.4-3-1.5v-1c.6,0,1.7.2,2,0s-.1-1.4,0-2c.4-1.4.7-3.7,2-4.5,6.5-4,5.3,8.7,5,12.5Z"/>
      <path class="st8" d="M426.6,323.2c-.1.6.1,1.4,0,2-.2,1.5-2.3,4,0,5.6s7.1,0,7.1.4v19.5c0,1.9,4.7,3.2,5.8-.2s-.7-18.4.2-19.3,2.2,0,3,0c-2.3,2.4-2.5,6.4-2.1,9.6s2,1.2,2.1,1.4c.2.3.1,6.8,0,8-1.1,9-12.4,7.7-13-1.6s2.1-12.3,1-13.4-4.8.2-6,0c-.1-3.2-6.1-10.3,2-12h-.1Z"/>
      <path class="st7" d="M399,371.9c.6.6,1.8,1,2.7,1.3.9-1.2-1.9-7,2-6v12c-6.9-6.3-7.1.9-8.5,1-2.4.1-1.3-10.9-1.5-13,3.1-.4,3.7,3.3,5.3,4.7Z"/>
      <path class="st7" d="M431.6,377.1c-.5.7-7.5,1.5-7.9,1.1v-11c2,.2,6.4-.7,7.6,1s.6,8.6.3,9h0Z"/>
      <path class="st7" d="M451.6,365.2c0,.1,1.5.5,1.8,1.7,1,3.5.9,8.6-2.8,10.3-1.1-.4-3.1.6-3.9-1.6s-.4-8.1-.2-9.8,3.8-.3,5-.6h.1Z"/>
      <path class="st2" d="M354.6,395.2l4.7-4c6.7,1.8,2.9-5.1,7.8-6,9.2-1.8,5.5,6.1,7.6,7.9s4.5,0,5.9.1c-10.7,7.7-6.2-1.7-9.5-5-4.8-4.9-5.5,3.7-6.5,4.6s-8.4,1-10,2.4Z"/>
      <path class="st7" d="M416.6,368.2c2.9,3-4.1,1.2-4.4,1.2-4,.7-3.8,8.6,2.4,6.8.6-1.2-4.3-1.2-2-3s3,.2,4,0c2.1,11.4-15,4.7-9.1-3.6s7.4-3.2,9.1-1.4Z"/>
      <path class="st7" d="M443.3,375.9c-6,7.4-14.3-4.5-7.3-8.8s11.1,4,7.3,8.8ZM441.5,375.1c2.4-1.5.6-8.7-3.8-6.4s-.8,9.2,3.8,6.4Z"/>
      <path class="st7" d="M363.4,376c-6,6-13.8-4.5-8.4-8.9s13.5,3.7,8.4,8.9ZM357.3,368.3c-3.5,1.1-1.2,7.8,2.7,6.8s2.3-8.4-2.7-6.8Z"/>
      <path class="st7" d="M374.5,367.3c.5.8.3,5.1-.3,5.9-1,1.4-4.2.6-4.5,1-.8.8,1.5,5-2,4v-12c.4-.4,6.4.4,6.9,1.1h0Z"/>
      <path class="st7" d="M351.6,366.2c-.2,1.4.5,3.8-.4,5.1-1.6,2.2-6-1.3-4.6,4.9-.2-.2-1.7.6-2-.6-.7-2.9.6-8.1,0-11.4l7,2Z"/>
      <path class="st7" d="M384.5,374.1c-1.1.7-4.5-.2-4.9.1-.6.6,1.6,5-2,4v-11c5-2.4,10.9,4.3,6.8,6.9h0Z"/>
      <path class="st0" d="M452.6,396.2c1.1.2,3.9-.6,4,.5-.6,1.1-.7,6.2-1,6.5s-2.5-.2-4,0-2.7,0-4,0c2.7-1.2,2.1-3.4,2-6,1.1-.2,2.1-.4,3-1Z"/>
      <rect class="st7" x="387.6" y="367.2" width="3" height="12"/>
      <path class="st2" d="M388.6,389.2c.2-5,2.8-.7,3.4-.4s2.1.2,2.4.5c.6.7-.1,2.4.3,3,1.6,2.9,1,2.5,1.9,4.8s-.1.7,0,1c-7.4-2,.6-8-8-9h0Z"/>
      <path class="st2" d="M444.6,342.2c-.1.3,0,1.6,0,2s.5.9,1,1c.2,1.5-.3,3.6,0,5h-3c.1-1.2.2-7.7,0-8l.5-1,1.5,1Z"/>
      <path class="st2" d="M387.6,389.2c-.8.8-.7,3.5-1.1,3.9s-2.8,0-3.9.1c-.3-4.3,1.7-3.9,5-4Z"/>
      <path class="st2" d="M366.6,354.2c-4.4,2.6-2.6.9-5,1l5-1Z"/>
      <path class="st6" d="M362.4,344.9c-10.6,8.5-18.8-16.5-4.3-14.7,7.1.9,8.6,11.3,4.3,14.7Z"/>
      <path class="st8" d="M337.5,338.4c3.1,5-4.1,6.7-5.8,4.8s.2-4.5,0-5.9c.4-.4,5.5.5,5.8,1.1Z"/>
      <path class="st8" d="M336.6,331.2h-5v-4c3.3-.4,5.6.2,5,4Z"/>
      <path class="st6" d="M417.6,321.2c0,1.7,1.2,4.8,1,8s-1,3.2-1,4c-2.6,1.5-.7,5.8-4,5-1.3-3.6-5.2-9-6-13,1.9.3,2.6-.1,4-1s1.9-2.4,4-3,1.4,0,2,0Z"/>
      <path class="st7" d="M319.6,412.2c-1.2,3-4.2,4.5-6,8,0-.1-1-.8-.8-2.2.5-3.8,2.8-6.5,6.8-5.8Z"/>
      <path class="st6" d="M374.6,246.2c0-.2-1-1.6-1.1-3.4-.4-22.2.2-44.4,0-66.6,1.2-1.6,1.8,0,2,1.5.4,3.5-.7,9,0,11.9s1.7.4,2.1.6c.5.3.7.7,1,1s.6,1.7,1,2c1.6,1.3,5.1,2.4,6,3.5,1.3,1.6.7,3.8,1.2,4.3,1.3,1.3,1.7,1.1,4.2,4.2,7.7,9.5,17,15.9,28.6,20s1.5-.2,2,0c-.1,6.6.7,14.6,0,21s-2.8,13.9-9.6,9.1-1.5-9.2-7-10.1c-10.9-1.8-5.5,10.7-12.9,11.1s-4.5-4.8-6.6-8.5-7.2-4.4-10.9-1.6ZM394.6,234.2c.3,1,1,3.6,1.6,4.1,2.4,1.7,12.8.7,15-1s5.1-9.3,1.7-11.1-14.9-2.8-18.2-.5-5.9,8.6,0,7.5v1h-.1Z"/>
      <path class="st13" d="M410.6,169.2c.3.2,7,.6,7,1v15.5c0,2.3,1.5,5.1,4,5.5v34c-.5-.2-1.5.2-2,0-3.2-4.2-9.2-5.9-13.5-9-6.2-4.3-10.2-8.3-14.7-14.3s-5.3-9.5-5.8-9.7c3.7-5.5,1.2-12.1,1-18,3.6.2,7.4,0,11,0,.4,5.2-1.4,17.7,1.4,21.1s7.4,2.3,8.4-.7,0-15.5.2-20.3-1.4-5.8,3-5h0Z"/>
      <path class="st1" d="M386.6,174.2c-1.3,0-4.6.3-5-1.5s4.3-5.4,4.7-5.5c2.1-.5,23.2-.6,24.1.2s0,1.7.2,1.7c-4.4-.8-2.9,1.4-3,5h-10c-.2-2.3.5-5.3-3-5-1.6,0-4.1-.6-5,1h-3v4h0Z"/>
      <path class="st8" d="M385.6,192.2c.5.2,4.4,7.9,5.8,9.7,4.5,6,8.5,10,14.7,14.3s10.3,4.8,13.5,9c-11.6-4.1-20.9-10.5-28.6-20s-3-2.9-4.2-4.2,0-2.7-1.2-4.3-4.4-2.2-6-3.5c.6-.2,1.4-.9,2-1s3.7-.2,4,0Z"/>
      <path class="st12" d="M381.6,192.2c-.6,0-1.4.8-2,1-.4-.3-.6-1.6-1-2l3,1Z"/>
      <path class="st13" d="M347.6,157.2c.5,9.2-6.2,14-14.8,14.7s-6.3-2-7.8.2l-.4,8.1c-.4-.1-1.4.3-1.9-.1-.7-.7-6.1-15.6-5.1-16.9,2.2,1.4,5.9,1.9,8,3s2.1,2.4,3,3,1.1,1.6,3,1c-.7-5.2,3.2-6.5,6.7-8.8s2.4-1.9.3-3.2c0,0-.2-1.3.2-1.7,1.3-1.2,6.8.2,8.8.7Z"/>
      <path class="st2" d="M361.6,177.2c-.9,9.3-6.8,18-17,18s-2.4-.9-3-1c4.6,1.1,6.1-1.7,9.1-3.4s2.8-.3,3.6-.8,4.1-5.2,4.2-5.5c.7-1.6.7-6.5,1.2-7.1s1.4,0,1.9,0v-.2Z"/>
      <path class="st7" d="M329.1,174.2c2.7-.6,3.4,4.4,1,5s-3.4-4.4-1-5Z"/>
      <path class="st12" d="M377.2,148.3c5.2-1.6,5.6,5.1,2.9,5.9s-6.5-4.8-2.9-5.9Z"/>
      <path class="st13" d="M480.6,193.2c-.5-.3-2.1.4-3.5-1-4.7-4.7,1.1-11.6,2.5-16,1.9,5.7-1.1,11.4,1,17Z"/>
      <path class="st7" d="M338.6,158.2c2.1,1.3,1.4,2.1-.3,3.2-3.5,2.3-7.4,3.6-6.7,8.8-1.9.6-2.1-.4-3-1-.8-3.6,3.2-9,6.1-10.5s3.6-.3,3.9-.5Z"/>
      <path class="st12" d="M436.6,229.2c.4,0,3,1.3,3.1,1.6-.5,8.3.7,17.2,4.9,24.4-2.5-.5-2.2,1.1-2.7,2.8-2.9,9.1-3.4,20-8.3,28.2.3-3.8,1.5-16.5-5-12.5s-1.6,3.1-2,4.5c-1.6,1.1-3.2.9-5,1-.7-3.2,1.8-10.8-2-10,1.2-.4,7.8-5.1,9-6.5,6.7-8.2,6.1-23.2-7-16.5.7-6.4-.1-14.4,0-21,5.9,2,9.2,2.7,15,4Z"/>
      <path class="st11" d="M445.6,324.2c.2,0,.7,1,1,1,.7,1.6-1,4.2-1,5-.5,1.4-1.9.9-3,1s-2.8-.2-3,0c-.8.9.9,16.2-.2,19.3s-5.8,2.1-5.8.2v-19.5c0-.4-5.5.6-7.1-.4-2.3-1.6-.2-4.1,0-5.6h1c3-.2,6,.2,9,0s2.5-1,3-1c2,0,4,.1,6,0h.1Z"/>
      <path class="st8" d="M427.6,325.2l8.5-2,.5,2c-3,.2-6-.2-9,0Z"/>
      <path class="st8" d="M445.6,324.2c-2,.1-4,0-6,0,1-1.6,5.1-1.6,6,0Z"/>
      <path class="st8" d="M427.6,321.2l1-4c-.3,1.7-.8,2.9-1,4Z"/>
      <path class="st7" d="M463.6,375.2c-5.6-5.1-4.2,1.6-9,1,1.6-1.5,3.5-10.6,4-11,2.3-1.8,5.6,8.1,5,10Z"/>
      <path class="st6" d="M444.6,342.2l-1.5-1-.5,1c-.1-.2-1.8.8-2.1-1.4s-.2-7.2,2.1-9.6c1.1-.1,2.5.4,3-1,.2,6.5,2,4.6-1,12Z"/>
      <path class="st6" d="M445.6,345.2c-.5-.1-.9-.4-1-1,.5.1.9.5,1,1Z"/>
      <path class="st7" d="M476.6,415.2c.2-.3,4.8-4.2,5-4,0,4.5-5.1,6.1-4,11-3.6,1.2-1.7-5.8-1-7Z"/>
      <path class="st11" d="M376.6,274.2c4-.6,3.8,0,6,2v5c0,8.1,2.4,16,4,24s2.8,12.6,4,19l-7.5-3c-1.9-11.1-5.1-22-6.5-33s.4-13.4,0-14Z"/>
      <path class="st6" d="M373.6,257.2c2.8,1.8,3.4,5.3,6,7.5s9.6,3.8,10.7,4.8,1.7,6,2.2,7.8c-5.9,2.7-5.7,3-10-1s-2-2.6-6-2c0,0-1.7.4-2-.6-.5-1.9-.8-13.2-1-16.4h.1Z"/>
      <path class="st6" d="M333.6,201.2l2-4c-4.5.9-8.5,1.8-13,0l5.7-5.8c3.6-1.9,5.8,2.8,8.1,3.8s5.6,1.2,8.2,2.1v5c-3.6-.3-7.4-.7-11-1h0Z"/>
      <path class="st14" d="M418.6,282.2c-3.5,1.1-2.1,6.3.6,6.8,4.3.8,5.3-6.3.4-6.8.3,0,2.5-1.1,5-1s3.2-.9,3,1.5c-.5,8.1-3.5,17.5-5,25.5-.6.1-1.5-.2-2,0v-2c0-5.8-.1-3.8-6-4v4c-.3,0-2.6,1.8-4,1-.9-.2-2.1.1-3,0-2.2-8.7-4.8-17.3-7-26h15.6c5.2,0,2.3,1,2.4,1ZM415.5,299.1c1.9-1.2,1.9-7-2.5-7.6-8.6-1-4.1,11.7,2.5,7.6Z"/>
      <path class="st6" d="M419.6,269.2c3.8-.8,1.3,6.8,2,10-4.4.2-14.7.8-18.3,0s-1.8-3.2-3.7-3c-.4-1.6-2.7-6.9-1.9-7.9s5.3-2.9,5.6-2.9c1.5-.3,9.3,5.9,16.3,3.8h0Z"/>
      <path class="st14" d="M393.6,280.2c2.2,7.6,4,15.4,6,23-4.4-1.8-6.2-.9-10,1s-1.9.9-3,1c-1.6-8-4-15.9-4-24l11-1ZM394.5,290.3c-.8-1.2-7.7-3-8,2.4-.5,9.1,11.9,3.8,8-2.4Z"/>
      <path class="st6" d="M422.6,308.2c-.3,1.7-.7,3.3-1,5-.8.4-2.3,2-3,2-2,0-3-.3-6,0s-2.1-.5-3-2c0-.3-.8-1.1-1-2,1.3-3.2,4.2-1.7,7-2s2.7-.3,5-1c2.3-.7,1.4.1,2,0Z"/>
      <path class="st8" d="M379.6,341.2c6.1-1.7,12.1,5.2,4.3,6.8-5.1,1-4.4-2.9-4.3-6.8Z"/>
      <path class="st8" d="M399.6,276.2c2-.2,3.1,2.8,3.7,3,3.6.8,13.9.2,18.3,0,4.4-.2,3.4,0,5-1-.2.5.3,1.7,0,2s-1.4,0-2,0c-7.6.7-16.3-.5-24,0-.3-1.3-.7-2.6-1-4Z"/>
      <path class="st8" d="M392.6,277.2c.3,1,.7,2,1,3l-11,1v-5c4.3,4,4.1,3.7,10,1Z"/>
      <path class="st2" d="M424.6,280.2v1c-2.5-.1-4.7,1-5,1h-1c-.3,0-1.1-1-2.4-1-5.2,0-10.4.1-15.6,0v-1c7.7-.5,16.4.7,24,0Z"/>
      <path class="st8" d="M409.6,313.2c.9,1.5,1.1,2.2,3,2-1.2,2.8-.3,5.9,3,6-2.1.6-3,2.4-4,3-1.6-3.4-1.2-7.8-2-11Z"/>
      <path class="st8" d="M379.6,335.2v-4c8.1-.9,7.9,4.9,0,4Z"/>
      <path class="st2" d="M399.6,303.2v1h-10c3.8-1.9,5.6-2.8,10-1Z"/>
      <path class="st8" d="M410.6,307.2c1.2.3,3.9,1.3,5,2-2.8.3-5.7-1.2-7,2-.3-1.3-.7-2.7-1-4,.9.1,2.1-.2,3,0Z"/>
      <path class="st2" d="M394.6,308.2c4.4-.3,4,2.5,7,3,.3,1,.7,2,1,3-1.2.4-2.9.5-4,1,.4-.3,1.6-4.3-.6-4.9-7.2-2.2-4.1,8.2.6,4.9-1,.4-2.5,3.5-5.9,1.9-.5-2.6-1.9-5.5,0-7.9s.8-.9,2-1h-.1Z"/>
      <path class="st2" d="M394.6,329.2c.1-1.7-1.8-3.6,0-6.3s7.7-2.6,7.1,1.3c-4-.2-2.4,5.3-6,5h-1.1Z"/>
      <path class="st6" d="M395.6,329.2c2.4.6,2.6,5.2,2,7s-3.4,2.6-4,2c-1-3.1.8-6.9,1-9h1Z"/>
      <path class="st6" d="M392.6,309.2l-4-1.5c1.2-2.8,9.6-4.7,6,.5-1.2,0-1.3,0-2,1Z"/>
      <path class="st14" d="M370.6,396.2c-.5.7-1.6,1.3-2,2-2.8,4.8-3.6,12.6-6,18s-1.1,3.6-3,3c-.3-.2-1.6,0-2.4-1.1-6.6-7.8-5-19.4,5.2-22.7s5.7.5,8.2-2.3c.2.9-.3,2.4,0,3h0Z"/>
      <path class="st2" d="M370.6,396.2c.3.6,4.1,2.6,5,3.8,3.7,4.7,4.1,11.2,1.7,16.5s-2.8,4.4-3,4.5c-.9.5-2.3,0-2.9.3-1,.5-.8,1.7-1.4,1.9s-7.9-.8-8.7-1.1c-1.9-.9-1.5-2.6-1.7-2.8,1.9.6,2.3-1.4,3-3-.7,5.4,5.4,4.4,8.6,3.2s2.6-5.1,3.4-6.2,1.6.4,1.9-.6c1.1-3.7-2.7-14.4-7.9-14.4.4-.7,1.5-1.3,2-2h0Z"/>
      <path class="st5" d="M387.6,395.2c.2,0,1.9,1.6,3,1,0,.4.8,1.4,1,2s.6,1.4,1,2c-.9-.1-2.2.2-3,0s-1.9-.9-2-1c-.8-.6-1.3-2.2-2-3,.1,0,.9-1,2-1Z"/>
      <path class="st9" d="M390.6,396.2c-1.1.6-2.8-1-3-1,0-1.2,1.6-5,2.5-5,2.7,0,.4,5,.5,6Z"/>
      <path class="st7" d="M432.6,412.2l-3,2.5c4.3,1.6.7.6,0,2.5l3,2h-5c-.3-4.6-.6-7.8,5-7Z"/>
      <path class="st7" d="M419.6,412.2c2.1,1.9-3.5,2.3-3,4.5s3.5.6,3,3-1.7.7-2.4.4c-5.8-2.3,0-10.1,2.4-7.9Z"/>
      <path class="st7" d="M437.6,412.2c.4,1.7-1.6.4-1.8,1.5-.6,3.7,1.5,2.7,1.8,5.5h-4c.4-4.4-2.1-8.2,4-7Z"/>
      <path class="st7" d="M426.6,419.2c-2.7-1.8-.9-4-5-2l4.5-5,.5,7Z"/>
      <path class="st7" d="M410.6,413.3c.4.3-.9,2.5,1.5,2s-.4-2.4,1.5-2l-2.5,7-2.5-6.5c-.1-.9,1.8-.6,2-.4h0Z"/>
      <path class="st0" d="M417.6,402.2c.1-.2-.3-1.4.2-1.8,1.5-1.2,14.2-2.9,14.3.8l2.5-2v6l-1-2-3,2c-3.7-4.2-5.3-.2-5.7,0-5.3,1.7-10-.2-14.3,0-.2-1.5-.2-2,1-3s1,.1,1.7-.3.4-1.6,1.3-1.7l1,2c0,.1.7,0,1,0l.5,1,.5-1h0Z"/>
      <path class="st9" d="M449.6,397.2c0,2.6.7,4.8-2,6-1.2,0,0,1.2-3,0,1.2-2.7,2.3-4.3-1-3.5l1-1.5c1.4-.2,3.3-.7,5-1Z"/>
      <path class="st0" d="M441.6,398.2l-1,5c-.3,0-1.8,3.2-4,2v-7c2,1.2,3.2.2,5,0Z"/>
      <path class="st7" d="M444.6,398.2l-1,1.5c3.3-.8,2.2.8,1,3.5-.6-.2-1.7-1.3-2-1,.1,3.8-1.7,1-2,1l1-5c1.9-.2,2.8,0,3,0Z"/>
      <path class="st7" d="M407.6,402.2c1.6-.4,4.2-4.5,4,0-1.2,1-1.2,1.5-1,3-.6,0-1.9.9-3,1v-4Z"/>
      <path class="st7" d="M405.6,402.2v4h-1v-5c.8-.3.9,1,1,1Z"/>
      <path class="st0" d="M407.6,402.2v2h-2v-2c.4,0,1.6.1,2,0Z"/>
      <path class="st4" d="M415.6,402.2l-1-2c1.6,0,.8,1.7,1,2Z"/>
      <path class="st4" d="M416.6,402.2c.3,0,.9.1,1,0l-.5,1-.5-1Z"/>
      <path class="st11" d="M407.6,404.2v2c-1.1.1-1.9,0-2,0v-2h2Z"/>
      <path class="st8" d="M418.6,329.2c.2-3.2-1-6.3-1-8s2.9-3.8,1-6c.7,0,2.2-1.6,3-2-.9,5.1-.9,11.1-3,16Z"/>
      <path class="st13" d="M441.5,375.1c-4.6,2.8-8.2-4.1-3.8-6.4s6.2,4.9,3.8,6.4Z"/>
      <path class="st13" d="M357.3,368.3c5-1.6,7.5,5.6,2.7,6.8s-6.1-5.7-2.7-6.8Z"/>
      <path class="st14" d="M418.6,315.2c1.9,2.2-1,5.5-1,6-.6,0-1.5-.1-2,0-3.3-.1-4.2-3.2-3-6,3-.3,4,0,6,0Z"/>
      <path class="st8" d="M394.6,233.2c-5.9,1.1-2.2-5.9,0-7.5,3.3-2.4,14.9-1.3,18.2.5s.4,9.5-1.7,11.1-12.5,2.7-15,1-1.3-3.1-1.6-4.1c1.6.8,3.2,1.8,5,2s.7,0,1,0c4.6,4.8,16.4-4.8,11.1-8.6s-13.2-1-15.3-.2c-4.2,1.5-2.1,3.5-1.7,5.8Z"/>
      <path class="st2" d="M400.6,236.2c3.9.1,11.4-1.3,10.1-6.4s-15.7-3.8-15,2.9l4,3.5c-1.8-.2-3.4-1.2-5-2v-1c-.3-2.2-2.4-4.2,1.7-5.8s14-.7,15.3.2c5.4,3.7-6.5,13.4-11.1,8.6Z"/>
      <path class="st11" d="M407.6,174.2c-.2,4.8,1,16.9-.2,20.3s-6.1,3.5-8.4.7-1-15.9-1.4-21.1h10,0Z"/>
      <path class="st15" d="M397.6,174.2c-3.6,0-7.4.2-11,0v-4h3c2.4-.1,3.9-.9,5-1,3.5-.3,2.8,2.7,3,5Z"/>
      <path class="st13" d="M394.6,169.2c-1.1,0-2.6.9-5,1,.9-1.6,3.4-.9,5-1Z"/>
      <path class="st8" d="M415.5,299.1c-6.6,4.1-11.1-8.6-2.5-7.6s4.4,6.4,2.5,7.6Z"/>
      <path class="st8" d="M419.6,282.2c4.9.5,4,7.6-.4,6.8s-4.2-5.7-.6-6.8h1Z"/>
      <path class="st8" d="M414.6,306.2v-4c5.9.2,6-1.8,6,4-2.1,2.2-4.8,0-6,0Z"/>
      <path class="st2" d="M420.6,306.2v2c-2.3.7-2.6.7-5,1-1.1-.7-3.8-1.7-5-2,1.4.8,3.7-1,4-1,1.2,0,3.9,2.2,6,0Z"/>
      <path class="st8" d="M394.5,290.3c3.9,6.2-8.5,11.5-8,2.4s7.2-3.6,8-2.4Z"/>
      <path class="st14" d="M398.6,315.2c-4.6,3.2-7.8-7.2-.6-4.9s1,4.7.6,4.9Z"/>
      <path class="st7" d="M368.6,398.2c5.3,0,9,10.7,7.9,14.4s-1.8.5-1.9.6c.2-20.8-10.1-6.1-9,5,8.5,1.5,4.6-4.6,5-5s2.9,1.2,4,0c-.8,1.1-.1,4.9-3.4,6.2s-9.3,2.3-8.6-3.2c2.4-5.4,3.2-13.2,6-18Z"/>
      <path class="st8" d="M389.6,400.2c0,.6.1,1.5,0,2-.3,1.2-1.4,2.4-1,4,2.7-1.7,5.7,1.8,5-2,5.9,8.7-1.2,18.6-11,17-.2-7.4,1.9-1.9,3-3,2-2-4-2-2-4s2.6,1.6,3,.5c-1.9-5.7-.1-10,1-15.5,0,0,1.9,1,2,1Z"/>
      <path class="st3" d="M392.6,400.2c1.5,2.3,4.1,4,4.8,6.7,2.3,9.7-5.9,19-15.3,15.3-.8-.7.6-.9.6-1,9.8,1.6,16.9-8.3,11-17s-1.7-2.5-4-2c.1-.5,0-1.4,0-2,.8.2,2.1-.1,3,0h-.1Z"/>
      <path class="st13" d="M399.6,236.2l-4-3.5c-.6-6.7,14.5-5,15-2.9,1.3,5.1-6.2,6.5-10.1,6.4s-.7,0-1,0h.1Z"/>
      <path class="st10" d="M374.6,413.2c-1.1,1.2-3.7-.3-4,0s3.5,6.5-5,5c-1.1-11.1,9.2-25.8,9-5Z"/>
      <path class="st6" d="M389.6,402.2c2.3-.5,2.8.3,4,2,.7,3.8-2.3.3-5,2-.4-1.6.7-2.8,1-4Z"/>
      <path class="st11" d="M385.6,396.2c.7.8,1.2,2.4,2,3-1.2,5.5-2.9,9.8-1,15.5-.3,1.1-2.5-1-3-.5-2,2,4,2,2,4s-3.2-4.4-3,3-1.3.3-.6,1c9.5,3.7,17.6-5.6,15.3-15.3s-3.3-4.4-4.8-6.7-.8-1.4-1-2c15.9,7.5,6.2,31.7-10.8,26.3s-2.1-4.6-.8-8.5,1.8-9.4.4-13.1-3.4-3-2.7-5.2,6.1-1.3,8-1.5h0Z"/>
    </g>
  </g>
</svg>