<?xml version="1.0" encoding="UTF-8"?>
<svg xmlns="http://www.w3.org/2000/svg" version="1.1" viewBox="0 0 256 256">
  <defs>
    <style>
      .cls-1 {
        fill: #fff;
      }
    </style>
  </defs>
  <!-- Generator: Adobe Illustrator 28.6.0, SVG Export Plug-In . SVG Version: 1.2.0 Build 709)  -->
  <g>
    <g id="Layer_1">
      <g id="Lgm2dU">
        <g>
          <path class="cls-1" d="M128,217.4c-23.9-31.7-46.8-62.9-62-98.9-14.8-35.2,5.2-74.3,36.2-87.4,37.6-15.9,80.7,6.1,90.6,46.3,3.7,15,2.1,29.2-3.9,43.2-10.5,24.8-25.1,47.2-40.5,69-6.5,9.2-13.3,18.1-20.5,27.8ZM128,204.4c5.8-8,11.2-15.2,16.4-22.6,14.3-20.7,28-41.7,37.5-65.2,4.2-10.4,6-20.9,4.1-32.1-5.5-31.4-34-53.2-64.5-49.7-35.7,4.1-60.9,42.1-49.1,76.1,12,34.6,34,63.4,55.7,93.5Z"/>
          <path class="cls-1" d="M103.3,196.4c-5.9,1.2-11.2,2.1-16.4,3.5-3.5.9-7,2.3-10.1,4-4.5,2.5-4.7,6.3-.2,8.7,4.2,2.3,8.8,4.1,13.4,5.1,25.9,5.3,51.9,5.3,77.8-.5,4.1-.9,8.1-2.6,11.7-4.7,4.3-2.5,4.3-6.4-.3-8.3-7.2-2.9-14.9-4.7-22.4-6.9-1.2-.4-2.5-.5-3.8-.7,3.8-7.7,4-8,11.6-5.7,6.6,2.1,13.4,4.3,19.4,7.8,9.5,5.6,9.3,13.4,0,19.5-10,6.6-21.5,8.9-33.1,10.4-20.7,2.6-41.5,2.4-61.7-3.3-6.5-1.8-12.9-4.7-18.6-8.3-7.5-4.8-7.3-11.6-.2-17.2,7.7-6,17-8.2,26.3-10.1.8-.2,2.2.6,2.8,1.3,1.3,1.5,2.4,3.3,3.8,5.4Z"/>
          <path class="cls-1" d="M127.7,134.3c-21.3-.4-37.8-17.9-37.4-39.8.4-21.3,17.8-38.8,38.1-38.3,21.4.5,37.8,18.1,37.4,40.3-.4,21-17.7,38.1-38.1,37.8ZM157.4,95.2c0-16.7-13.4-30.4-29.3-30.3-16.2,0-29.5,13.7-29.5,30.2,0,17.1,13.5,31.1,29.8,30.8,16-.2,29.1-14.1,29.1-30.7Z"/>
        </g>
      </g>
    </g>
  </g>
</svg>