<?xml version="1.0" encoding="UTF-8"?>
<svg id="Layer_1" xmlns="http://www.w3.org/2000/svg" version="1.1" viewBox="0 0 792 612">
  <!-- Generator: Adobe Illustrator 29.0.0, SVG Export Plug-In . SVG Version: 2.1.0 Build 186)  -->
  <defs>
    <style>
      .st0 {
        fill: #cb9332;
      }

      .st1 {
        fill: #c22132;
      }

      .st2 {
        fill: #8c2b2d;
      }

      .st3 {
        fill: #a15730;
      }

      .st4 {
        fill: #eaac9b;
      }

      .st5 {
        fill: #33543f;
      }

      .st6 {
        fill: #d01021;
      }

      .st7 {
        fill: #949994;
      }

      .st8 {
        fill: #e9eae9;
      }

      .st9 {
        fill: #f0bb3f;
      }

      .st10 {
        fill: #e5a919;
      }

      .st11 {
        fill: #dbdad8;
      }

      .st12 {
        fill: #bfbebc;
      }

      .st13 {
        fill: #b61225;
      }

      .st14 {
        fill: #e4e1df;
      }
    </style>
  </defs>
  <g id="p67OpN">
    <g>
      <path class="st11" d="M365.6,154.6c-.1,13.7.6,27.5-1,41l-8,1.5,8,2.5c0,.1,1.4-.3,1.8.2.9,1.1-.9,5.3-.8,7.3.2,27.4,1.8,55.3,2.1,82.5,0,8.3,0,16.7,0,25s0,.7,0,1c0,12.3,0,24.7,0,37s0,8,0,12,0,6.7,0,10c0,7.3,0,14.7,0,22s0,2,0,3c0,4,0,8,0,12s0,1.3,0,2,0,.7,0,1c0,4.1-.8,9.7,1,13-.4,2.8,0,4.2,0,6s-1.1,3.3-1,6c-1.7.2-4.4-.6-5.8.3s.5,2.2-1.2,1.7l-2-2.5c.3,5.9,9,2.8,9,9.5-13.7-1.4-29.8-12.1-44-13,0-2,1-3.8,1-4,2.4-.5,4.9,1.6,6.5,2s-.2-2.5,1.4-2c-.1.8,0,1.5.8,1.9,5.9,3.6,16.3,5.5,23.3,7,.4-1.6-1.1-.5-1.7-1.5s.5-1.3-.1-2c-1.6-1.8-9.8-4.5-9.1-.5h-1c0-8.5-8.5-2.6-9-3s-.1-2.7-2-4l1.5-6-.5,4c3.3.8,1.2-2.1,2.6-3.1s5.8-1.3,6.4-.9l-2,3c4.3-1.2,7.1-.3,11,0,.1.3-.1.7,0,1,.2,2.2,1.8,0,2,0,2.8.2,10.6,5.3,11.8,1.3-.4-13.7-1-27.2-.8-40.9s-1-2.3-1-2.4c0-.7,0-1.3,0-2,0-3.6,1.9-10.3,2-14.5.3-9.9-1.7-19.6-1-29.5-1.2.7-5.6.8-6,1v-1c.2-.7.8-1.3,1-2,.4-1.3,1.9-2.7.9-4.9l-9.9-1.1c-.3-.6-1.1-1.1-1-2,.4-.2.7-.6,1-1,2.6.5,5.3,1.1,8,1,1.2-4.5-1.9-3.8-2-4-.4-.8.8-2.8-.6-4.1-2.7-2.6-6.4-.8-9.4-.9l1-3c1.8.2,3.4,0,4-2,1.9.2,4.1-.2,6,0,4-3.8-10.6-6-12.5-6-3.3-.1-2.6.1-2.5,3-1.8-.3-.8,2.8-2-1s.4-1.4-.1-1.9-6.8-2.3-7.4-2.2l-.5,3c-2.1-.4.2-3-3-1-.5-2.5.4-1.6,2-2.5-.3-.3-1-.4-1-.5-.3-2.3.4-1.6,2-2.6v-1.4c4.2.8,13.1,4.4,12-2l-20-3c-.5-2.3-1.4-3.7-4-3-.4-20.8,0-41.5,0-62,2.9.6,31,5.6,31,3.5-.1-1.5-.8-3.2-2.3-3.8s-13.7-2-15.2-1.8.5,3.4-1.5,3.1c.8-6.4-8.2-2.5-12-5,0-.2-1-1.3-1-3,3.1-.7,31.7,4.8,32,2.5s0-2.6-1.7-3.3c-8.4-3-21.3-1.6-30.3-3.2-.2-7.4-2.1-16-1.1-23.6s2-3.6,2.1-4.9-1.9,0-2.1-1.9c-1.5-11.2,1.4-26,0-37.6,4.6-.7,9.1,1,13.5,1.1,10.4.2,21.9-1.2,32.5,0ZM329.6,192.6c-1.5-.3-3.3-2.8-3,1-1.9.5,0-2.2-2-2l-1,4.5c2,1.8,4.5,0,6-.5s1.5-1.3,2-1-.1,1,.2,1.2c5.7,3.9-1.6,2.3-2.1,2.8s-.1,2.8,1,3.5c2.7,1.8,5.2-.5,6-.5s2.8,0,3,0c.6,0,1.4.9,2,1s.7,0,1,0c1.1.2,2.6.7,4,1,3.7.7,9.4,3.7,8-3l-1.5,3c-.4-5.4-4-2.8-6.5-3s-2.5-1.8-4-1h-1v-1c.7-.4.6-.9,2-1s8.6,2.9,10-.5-2-1.3-2.8-1.7c-2.3-1.2-.4-1.8-6.2-1.8s-4.1-.4-5.3,0-1.1,3.7-3.7,3l2-4c-3-.1-5,.6-8,0ZM334.5,204.7c-1.2-.7-4.2,0-5.8-.1-1.1,6,2.3,3.7,7,4,.4-.3-.8-3.6-1.2-3.8ZM338.6,208.6c-1.1.4-2.3,2.1-4,2-1-.9-9.6-1.4-10-1-.6,6.4.7,3,3.5,3.5s4.9,1.1,8.5,1.5,1.6,0,2,0c3.3.2,6.9,3.4,6-2,.3,0,.7,0,1,0-.1,3.7-.9,2,1.5,2.6s8.6,2.4,11.1-.6-.6-1.9-.6-2c.5-3.7,1.5-2.4-1-6l-4,5c-1.3,0-3.2,0-5,0v-1c2.3.8,3.8-4.4,1.5-4.8s-4.1.6-6,.3c-3.4-.5-5-4.3-4.5,2.5ZM351.1,209.6v1c.6-.3.6-.7,0-1ZM362.4,228.8c-1.3-1.2-4-1.3-5.8-1.2l3,2c-1.1.2-4.6-.3-5,0s1,6.5,1.2,6.8c.5.9,6.4,1.6,6.8,1.2s1-7.5-.2-8.8ZM330.4,240.8c-.5-.6-5.5-1.5-5.7-1.3-.8,5.6,2.4,5.3,7,5-.7-1-.7-3.1-1.3-3.7ZM337.6,244.5c2.1,1.2,4.7-3.2,0-3,1.1,1.1-.1,2.9,0,3ZM357.6,244.6c-.6-.8-9.1-1.1-11-2,.2,1.2.7,4.7,1.6,5,1.7.5,12.2.9,9.3-3ZM327.6,247.6c-.4,0-1.3-1-2-1l-1,4c1.9-.1,4.1.2,6,0s.7,0,1,0c.9-.3,1.4-.8,2-1.5-.6-.7-1.1-1.2-2-1.5s-.7,0-1,0c-.6-.1-1.4,0-2,0s-.7,0-1,0ZM354.6,250.6c-1.3-1.8-14-.3-17-2,0,8.2,7.2,3.7,10.4,4s.5,2.1,1.1,2.1c1.3.1,6.8-2.2,5.4-4.1ZM337.4,255.8c-1.3-1.4-17.3-4.3-10.7,1.2s8.4.6,11.5,2.5c.3-.7-.5-3.5-.7-3.7ZM333.6,264.6c-.3-.3-7.5-3.4-8-3v5c1.6,0,10.4.9,8-2ZM351.5,265.6c-.5-.6-13-1.5-14.9-2.1-.4,7.3,9.8,4.5,14.5,7,.9,0,.7-4.6.4-4.9ZM330.2,270c-8.1-4.4-5.3,4.7,2.4,2.6.1-.6-2.2-2.5-2.4-2.6ZM350.6,277.6c.6-8.9-10.8-5.6-17-7v4c5.7.4,11.8.6,17,3ZM353.6,273.6c-.8,0-1.4-1.5-2-.5,2,2.9-.7,4.3,3,4.5s6.8.4,10,2c.5-6.1-6.6-5.5-11-6ZM347.6,278.6l-22-3c.2,1.1-.4,3.3.1,3.9s16.1,2.9,18.4,3.1-.2-2.2.5-3l3-1ZM357.6,280.6c-.2-.2-3.1.2-4.3-.2-1.7-.5-2.9-2-4.7-1.8-1.7,7.8,4.2,4,9,7-.2-1.1.3-4.7,0-5ZM340.4,284.8c-1.3-1.4-12.2-2.2-14.8-3.2-1.7,7.3,10.9,5.3,16,7-.8-1-.7-3.2-1.2-3.7ZM325.7,294.4c.4.5,9.8,1.6,12.2,2.3,4.8,1.3,4.9-2,.7-3.7s-9.5-2.4-11.5-2.5-1.8,3.3-1.4,3.9ZM352.4,429.8c-.2-.3-5.6-2.5-5.8-2.2-3.1,4.3,6.9,7.4,10,7-.2-1,.3-3.7,0-4-1.8-1.9-2.9,1.8-4,2,0-.8.2-2.1-.2-2.8Z"/>
      <path class="st14" d="M319.6,143.6c0,1.9-.2,4.2,0,6s0,1.3,0,2c1,0,2,0,3,0,8.3.5,16.7.7,25,1s1.3,0,2,0c7,.2,14.2.9,21,1s17.3-1.6,26-2c21.9-1.1,44.1-2.7,66-3,1.4,4.7-8.9,5.6-11.3,5s-.3-2-2.1-2.1c-3.5-.3-13.6.3-17.9.5-14.2.5-28.8,2.6-43,3.6-1.4.5-1.3,4.7-1.7,5h3s0,2,0,2h-3s0-2,0-2c-.5.3-4-.9-3,1.5s7.2,8.2,9,6.5l2-4c-.5,3.2.8,6.2,4.4,4.9s.7-7.1,3.6-4.9-.4,1.7.7,2,2.9-.3,3.3,0-1.1,5.6,4.5,5.9,7-.9,7.3-1.1c.9-.5,1.6-4.4,2.9-4.8,4.6-1.5,2.8,2.9,3.9,3.1,5.8,1.1,4.4-3,8.1-6.1,2.1,1.7,9.7.5,10.4,1s0,1.6,0,2c3.1-.5,3.1-1.2,6-1,0,1,0,2,0,3l-6,2c0-1.3,0-2.7,0-4-2.9.4-3.6-.2-7,1s-3.5,3-6,4c-1,0-2.4,1-3.5.9-1.7-.2-2.7-2-4.9-1.9-5,.1-4.1,4.5-4.6,5s-3.3-1.1-4.5-1.1-5.2,1.2-5.5,1.1,0-1.7-1-2.5c-4.1-3.1-10.2-2.6-15-2.6.4,3.1-.6,7.5,0,10.3s1.8,1.9,1,7.7.3,2.1,0,3.2-1.9.4-2.1,2.2c-.7,7,3.6,5.8,9.1,5.5s1.4,0,2,0c1.5-.2,4.3-2.2,8-3s7.6.8,7-3c1.8-.2,5.5,0,7-1,3-.6,1.9,1.5,2,4-6.5,1.8-1.9,5-4,6.5s-5.5,1-6,1.6c-.8,1.2.9,4.4.9,5.9-1.2-.5-2.5.9-3,1-3.4.6-7.6-.3-8,5s1,2.8,1,3c-.1,2.4-1.7,5.2-1,8-.5-.2-1.4.1-2,0,0-.1-1-1.1-1-2.4,0-6.6-.9-13.6,2-19.6-7-.6-8.1,7.9-7.5,13l2.5-2-1,17c2.4.2,4.7-1.6,5-4,2-.2,2.4,1.3,3,3-4.3,5.1-6.8,19.9,0,24-.3,0-1,.9-2,1-2,.1-4.6-2.9-4,1-1.1-1-1.9-1.9-2-2,.9-2.5,3.4-4.2,3-7-.2-.2-3.3.7-4,1,0-4,1.2-8-4-5.5s-2.7,8.3-3.2,11.8-2.4,3.8-.8,8.7-.7,3.1,3.5,2,.3-1.5.5-2c2.4-5.6,5-.9,8-6,.2.2,1.2-.2,1,1.5-3.4.2-1.7,8.7,2,8.5-13.6,5.3-22.1,13-34,19-1.8-24.5-1-49.4-1-74s0-2.7,0-4c0-4-1-7.7-1-11s0-2.6,0-3c0-3.3,1-6.4,1-10,0-6.8.3-13.7,0-20.5s1-4-2-3.5c0-1,0-2,0-3,2.3.7,2.6-1.2,2-3.4s-1.6-.4-2-.6-1-.9-2-1c-10.6-1.1-22.1.3-32.5,0s-8.8-1.8-13.5-1.1c-.5-4.4-1.6-3.1-1-10h1ZM394.6,201.6c-2.7-1.3-3.4,5-1.5,5s1.9-3.6,1.5-5ZM389.6,204.5c.7-1.4-.6-2.7-1-2-.7,1.4.6,2.7,1,2ZM391.6,225.6c.3.9,2.3,8,4,6s2-9.4,2-10.5c.2-3-1.8-.6-3-.5l-2.6-9.1c-9,2.1-4.7,3.3-4.3,7.5.6,6.5,0,14.2-1.1,20.6,2.3.5,5.9-2.6,4.8-4.8s-1.6-.2-1.7-.9c-.5-1.9,0-6,0-8.3h2Z"/>
      <path class="st8" d="M469.6,247.6l-4.5-3c-.4.1-2.3,3.4-2.5,4-.9-.7-2-.7-3-1,0-2.2,1.2-1.4,2-4s1.3-6.8-2-8.6-3.3,2.2-5,3-1.8-.5-2-.4c-.1-2.8,1.1-6.2-2.5-5s-.4,1.9-.5,2c-3.6,2.6-2.7-2.8-7.5-2.1s-3.4,2.8-3.5,3.1h-1c-3-5.8-7.3-2.2-8,3-.5-.4-1.7-.6-2-1-.6-.7-.8-1.9-2-3s-2.1-2-4-2c0-2,0-4,0-6,1.4-.8,4.8-2.9,6-3s.7,0,1,0,1.1,1,2.4,1c2.7.1,5.4-.2,8,0,1.2-.3.4-2.1.6-3.1s1.1-.6,1.1-1.4-1.9-.5-2.1-1.3-.2-5.3,0-6.3h4c-.8,9.9,6.5,15.8,8,6h1c0,.8-.2,4.8,0,5-.2-.2-1,.2-1,.5,0,1.1,1.5,0,1-.5.2.2,2.3-.1,3,0,0,.8-.4,1.5.6,2.1s6.9,2.6,8,2.9c3.2.9.5-2.8.5-3-.3-5,.2-10,0-15-2.2-.1-3.3-.5-3,2h-1c-.7-4.5-9.5-7.6-8-2h-1c-.7-4.1-2.9-3.7-6-4s-2,0-3,0c-2,0-4,0-6,0s-2,0-3,0-3.8.2-4,0,.5-2-.5-2c-2.2,2-2.9,1.1-3.5,4-1,0-2.1-.1-3,0-.7-1.4-1.3-2.3-3-2-.2.9.2,2.2,0,3s-1,1.6-2,2c0-.3,0-.7,0-1,0-1.5-1.7-4.7-.9-5.9s4.8-.7,6-1.6c2.1-1.5-2.5-4.7,4-6.5s1.4,0,2,0c3.6-.5,7.3-1.9,8.4-2.1,4.7-.6,12.4,0,18.4-.6s5.5,2.3,7-2,1-5.3,1.1-6.9,1.1-3.9-1.9-3.3c0-.3,0-.7,0-1,1-1.1,2.4-11.5,2-12s-2.5.3-3,0,.6-1.9-1.9-2.6-3.8.6-4.1.6c-1-.1-2.3-.9-4-1-2.9-.2-2.9.5-6,1,0-.4.1-1.9,0-2-.7-.5-8.3.7-10.4-1-3.7,3-2.3,7.2-8.1,6.1s.8-4.6-3.9-3.1-2,4.3-2.9,4.8-6.7,1.1-7.3,1.1c-5.6-.3-4.2-5.6-4.5-5.9s-2.3.3-3.3,0-.6-1.9-.7-2c-2.9-2.2-1.1,4-3.6,4.9-3.6,1.3-4.9-1.7-4.4-4.9l-2,4c-1.8,1.7-8.3-4.8-9-6.5s2.5-1.1,3-1.5v2s3,0,3,0v-2s-3,0-3,0c.4-.3.3-4.6,1.7-5,14.2-1,28.8-3.1,43-3.6,4.3-.2,14.4-.7,17.9-.5s1.3,1.9,2.1,2.1c2.4.6,12.7-.2,11.3-5,3.3,0,7,.6,10-1,0,30.1,1.6,71.3-3,100ZM402.6,158.6h-3v2h3v-2ZM418.6,164.6h-6v2h6v-2Z"/>
      <path class="st14" d="M321.6,294.6c2.6-.7,3.5.7,4,3s-.3,3.7,0,4,6.4.7,8,1v1.4c-1.6,1.1-2.3.3-2,2.6l-6-1c-1.7,7.1,11.5,6.5,16,6,1.2,3.8.2.7,2,1s5.9,2.6,9,3c-.6,1.9-2.2,2.2-4,2s-5.8-2.3-6-2c-.8,4.4,1,4.8,5,5s6.7-1.7,9.4.9.2,3.3.6,4.1c-1.3.6-3.6-1.7-4-.4s.8,2.7-1,2.4l-.5-3-2.5,2c1.3-4.7-7-4-10-4.5s-4.3-3.7-4,.5h-1c.2-4.4-11.4-3.3-9,0,3,1.9,5.3,0,7.4,0s.7,2.8,5.1,3.1c6.3.3,6.9,1.7,13.5,3-.3.4-.6.8-1,1-4.1,1.8-6.3-.9-11-1l-13-3c.2,1-.3,3.5,0,3.9s8.4,1.8,9.9,2.1c6.5,1,8.7,1.1,15,3s6.1,1.9,9,3c-.2.7-.8,1.3-1,2-3.6-1-7.6-1.4-11.2-2.3s-4.5-.6-4.8-.7c-.7-.2-1.4-.9-2-1-2.5-.6-13.2-4.8-15-3s-.3,2.5.6,3.1c1.6,1.2,10.7,2.3,13.4,3.9-.2.4-.7.7-1,1-2.5-.8-9.3-.3-12.5-2-2.1,6,9.1,6.1,13.5,7s1.4-.1,2,0,1.1,2.4,6,2l3,2-3,1h5c.4.3-1,1.7-1,2-2.2-.1-5-.4-7-1s-.6-.9-1-1c-3.3-.9-4.4-2.4-7,1s.4,1.2,3,4l-5,3c1.5-7.1-5.2-1.8-9-6,.2,1.2-.5,4.2,0,4.9s14.2,3.2,16.7,3.8,3.9,0,5.2.3,2.3,1.8,4.2,2.3c2.7.7,6.6,1.7,9.3,1.7s2.5-2.9-.5-4c1.3-4.4-1.9-3.8-2-4-.5-.8,1-3.7-3-4,1.3-4.5-1.8-4.8-2-7s-.1-1.5,0-2,1.1-1.2,1-2c5.2.8,3.8-1.9,4-2,.4-.2,4.8-.3,6-1-.6,9.9,1.4,19.6,1,29.5s-2,10.8-2,14.5l-12-1.5,12,3.5c0,.1,1.1,1.1,1,2.4-.2,13.7.4,27.3.8,40.9-1.3,4-9.1-1.1-11.8-1.3h-2c-.1-.3.1-.7,0-1,1.3.1,2.7,0,4,0-1.6-7.5-1.9-5-7.3-6s-.8-3.2-3.7-2c-1.1,7,5.4,4.9,6.9,6.1s-.1,1.5,0,1.9c-3.9-.3-6.7-1.2-11,0l2-3c-.6-.4-5.5.3-6.4.9-1.4.9.7,3.9-2.6,3.1l.5-4-1.5,6c-1.9-1.3-6.6-1.8-9-3,0-4.2-.4-6,0-11,3.8,2.1,6,4.2,5-2.4s-3.8-.3-5-.6c-.9-4.4-.9-4.8-1-10,2.3.3,4.2,2,6.5,2.1s1.5-3.2,2.4-2.1,0,1.9,2.3,3.2,15.2,5.5,19.3,6.7,1.9-1.4,1.5-2.5-3.1.4-1-3.5c-5.1,2.2-3.2-.4-5.2-1.3l-25.8-6.7c0-.7,0-1.3,0-2l7-2-1,4c.9.1,2.2-.2,3,0,2.5.6,4.6,1.7,7,2l-1-5c1.5-.2,1.8.3,3-1,3.8-4.2-4.2-8.2-3-2-1.9-1.6-2.7-2.4-5-4s-.8-2-1.7-2-2.1.9-2.8.9-2.5-3.2-5.5-2.9c0-.2-1-1.1-1-2,7.6-1,15.9,7.1,23,6s1.7-1.1,2-2,0-.7,0-1l1-.5c-.2-.7-.7-.4-1-.5-2.6-1.3-7.7.3-8,0s.6-2.3-.7-3c-3.6-2-12-2-16.4-4-.6-27.7-.5-55.1-1-83ZM339.4,314.8c-.5-.5-13.2-2.8-13.8-2.2v4s15,2,15,2c-.8-1-.8-3.4-1.2-3.8ZM334.6,349.6c-.3-.3-7.6-3.4-8-3,.2,1.3-.6,3.2.6,4.1,1.8,1.3,9.7,1.7,7.4-1.1ZM354.5,366.7c-7.7-.7-15.8-6.2-23.4-5.2s-1.2,1.4-2.4,2.6c1.3,1.1,3.7.1,5.4.5,2.6.6,6.8,2.4,8.3,2.9,3.2.9,7.8,2.7,10.8,3s1.4-2.1,1.3-3.8ZM335.4,369.8c-.4-.4-7.3-1.5-8.8-2.2-3,4.5,8.7,7.5,10,6s-1.1-3.7-1.2-3.8ZM336.6,376.6l-7-1c0,1.3,7,2.8,7,1ZM339.1,377.6v1c.6-.3.6-.7,0-1ZM351.6,380.6l-10-2c.7,1.9,5.2,2.3,7,2.5s3.3,1.3,3-.5ZM344.8,392.3c-.5-.4.5-2.2-1.1-1.8.1,1.2-.4,2.9.2,3.8,1.3,2.1,15.6,5.2,18.8,5.7l-1-5.5-3,3c2.1-4.1-3.6-5.3-5-3.9s.9,3.3-1,2.9c1.8-7.7-6.3-2.9-7.9-4.2ZM336.6,411.6c-.7,0-1.3,0-2,0-.3,2.1,0,2.3,2,2,0-.7,0-1.3,0-2,3.2,0,.8,2.6,4,2,1.4-3.3-1.7-5.7-4-4,0,.7,0,1.4,0,2ZM359.6,419.5c1.3-7.1-8.1-5.6-12.5-8-1.1,1.7.7,4.5-2.5,4l15,4ZM344.6,422.5c1.2-7-9.2-6.9-14-9v5c4.2-2.1,2.3.6,4.7,1.8s6.4,2.3,6.8,2.3c1,0,0-2,1-2.1s-.4,2.5,1.5,2ZM331.6,424.6c-.5-1.2.7-1.8-1.9-2.5s-6-1.7-5.1,1.5c.9.2,3-.5,3,.5s-2.4-.4-2,1.5l5-1c3.2,2.1,1.3.8,1,0Z"/>
      <path class="st5" d="M470.6,265.6c0,6.6-.9,13.9-1,20-9.2-6.1-18.5-7.9-29.5-7s-30.7,6.3-36.8,10-.5,1.3-.7,2-.8.6-1,1c-.3,0-.7,0-1,0-1.9.3-5.1,2.8-5,5-.6.1-1.4-.1-2,0-1.9.5-4.8,2.1-7,3-3.6,1.5-8.6,2.8-11.5,6s-1,3.2-1.5,4c-1.1,2.2-1,2.3-3,4s-1.3.5-2,1h-1c0-8.3,0-16.7,0-25,1.5.4,2.1-.5,3-1,11.9-6,20.4-13.7,34-19,1.6-.6,3.5-1.4,5-2l2-1c7.9-2.5,21.4-5.6,29.5-6,10.1-.6,20.7,0,29.5,5ZM440.6,265.6c-.9-.8-2.6,1.4-3.5,1.5-6.1.7-8.4-2.4-8.5,7.5,1.1,1,7.2-1.3,8.5-1.5,2.7-.3,6.7,2.4,7.5-2s-.6-8.7-3.5-3.5c-1,0-.2-1.8-.5-2ZM457.3,266.9c-1.2-.4-9.2-1.6-9.6-1.3s-1.6,5.9-1,6.8,11.8,1.7,13.9,4.1c-.4-1.5,1.7-7.4,1-8s-2.3.3-3.2,0-.8-1.6-1.1-1.6ZM426.6,267.6l-4.5,4c-4.2-6.2-3.7,1.7-3.5,6,6.9-.2,9-3.3,8-10ZM404.6,276.6c-.9.3-3.6-.3-4,0-2,1.7,2.2,1.7,2.1,3.5-.2,3.7-6.3,9.2,3.9,2.5s4.7-1.6,4-8c-2.9-1.1-4.8,1.6-6,2ZM394.6,288.6c1-.5,3.7-.3,4.1-1.7,1-3.9-2-10.8-4-5.8s2.1,1.5,2,2c-.2,1-1.4,3.2-3,2.5-.2-.8.2-2.1,0-3-1.6-.2-4.4.4-5,2s.3,2.8,0,3c-.4.4-2.5-1.1-3.4-.9-1.4.3-1.4,2.8-1.5,2.9-1.6.9-6.7-1.9-3.9,5.9,2.4.5,4.7.2,6.9-.9s1.8-.9,2-2-.5-2.2-1-3c.5-.4,2.5,0,3-3,.2,1.3-.1,2.7,0,4,2.6,1,3.4-1.7,4-2Z"/>
      <path class="st1" d="M409.6,128.6c3,0,5,0,8,0s2.7,0,4,0c7-.1,14,0,21,0s1.3,0,2,0,.7,0,1,0c1.3,0,2.7,0,4,0s.7,0,1,0c5,0,11.3-.6,16,0s3.9,1.9,6,6c0,4.3,0,8.7,0,13-3,1.6-6.7,1-10,1-21.9.3-44.1,1.9-66,3v-1c3.3-.2,8.7-1.7,12.5-2,6-.5,16.7.3,21.9-1s2.5-6,2.6,1c2.6.7,2.3-2.7,3.7-3,2.5-.6,9.4,1.4,12.7,1s.4-1.6,1.4-1.9c2.3-.9,3.5,1.7,3.3-2.5-.3-6.8-12.8-2.4-17.5-2.4-8.8-.2-18.2-3.3-27.6-.5s-5.8.9-5,4.5c-.3.4-6.6-2.8-8-3,1.3-2.3,2-1.7-.4-3.1s-4.4-3.9-5.6-4.4c-2.6-1.2-8.3,0-9-.5s.2-1.8,0-2c5-1.8,10.4-.7,15.6-1s2.3-1,2.4-1c3.3,0,6.7,0,10,0ZM462.6,138.6h-5v2h5v-2Z"/>
      <path class="st5" d="M414.6,430.6c.2,0,2.4.8,3,1s.6.8,1,1c-1.5,2.9-1.2,5.9-1,9-.3.3-.8.6-1,1-5.8-1.7-5.9,2.1-8.1,3.4s-4.8,1.9-6.9,2.6l-1-4c-2.6-.8-2.4,2.7-3.7,3s-3.8-.2-5.3-1c.2-1.3,0-2.7,0-4-.7,0-1.3,0-2,0,0,1,0,2,0,3-1.7.5-.5-2.4-1.5-2-2,.8-.4,3.1-1.5,4.5l5-.5c-.3,1.5-3.6,3.3-1,6-.5.2-1.5-.2-2,0l-4.5-3-.5,5c-.8.3-2.7,1.4-4,2-1.9-6.3-2.7-1.6-4,0s-5,4.7-7.2,3.8l-43.8-14.8c0-2-1.1-7.4-1-11,14.2.9,30.3,11.6,44,13s.7,0,1,0c0,.7,0,1.3,0,2,2.5-.4,6.2.6,8.4,0s2.3-4.8,4.7-6.1,1.4-.8,2-1,5-.9,6-1c0-.6.1-1.5,0-2,1.7.5,2.8-1.9,3-2,.4-.1,1.4,0,2,0s.7,0,1,0,.9,1,2,1l-4,3.5,2.5,2.5c2.4,0,4.3-4,2.5-6,1.3-.5,2.1-.7,3-1,.8.7,2.6,2.7,3.5,2.7s11-4.3,8.5-6.7-7.6,1.6-9,2c1.3-1.5,3.4-1.4,5-2.5s.8-2.3,1-2.5,3.5-1,4-1Z"/>
      <path class="st2" d="M370.6,131.6c-.4,9.5-5.7,8.9-13,6,1.4,2.3.5,8.2-1.2,9.8s-1.4,0-1.8.2c1.1-5.8-4.3-.2-7-3-.5,1.1,1.1,3.8,1,4-.4.4-3.4-1.3-1,4-8.3-.3-16.7-.5-25-1l-3-2c-.2-1.8,0-4.1,0-6s0-4.7,0-7,0-.7,0-1l1-.5-1-.5c0-.7,0-1.3,0-2,.7-1.4,1.4-2.7,3.3-2.8,6.8,0,15.4,1.6,22.2,1.8s17.6.5,25.5,0ZM343.6,140.6c1.2-4.4-4.5-4.3-6.8-3.3s-1.4,3.6-5.2,2.3l3,4,1-2c1.7-.4.4,1.9,1.6,2.1s2.3-1,3.4-1.1.7,0,1,0c-.7,4.5,2.7,4.4,2,0,.3,0,.7,0,1,0s.7,0,1,0c1,0,2,0,3,0-.6-2.3-3-2-5-2ZM328.6,139.6c-2.7-.1-6.9-.7-5,3s6.5,0,7-1c1-2.1-.6-1.9-2-2ZM355.6,143.5c2.5-2.4-3.3-5.1-6-3-1,3.1,5.2,3.7,6,3ZM346.1,144.6v1c.6-.3.6-.7,0-1Z"/>
      <path class="st8" d="M455.6,248.6c.2,1.5-.4,3.2,1.6,3.9s5.2.7,4.4-1.9c.3,0,.8-.1,1,0,.3.2,4,8.9,4-1l3,2c.2,4.4,1,9.2,1,14-8.9-5.1-19.5-5.6-29.5-5-8.1.4-21.6,3.6-29.5,6s-1.6.8-2,1c-1.5.6-3.4,1.4-5,2-3.6.2-5.4-8.3-2-8.5.2-1.7-.9-1.3-1-1.5-.3-.3-.6-.7-1-1-.6-3.9,2-.9,4-1,3.5,6.2,10,.4,11-5s0-1.7,1-2c0,.3.8.7,1,1s-.2,1.4,0,2c1.7-.4,3.3-.7,5-1s.7-.9,1-1c.9-.3,2.7.5,3.8-.2s.7-2.5,1.2-2.8.7,0,1,0,2.9.9,3,1-.3,1.5.1,1.8c1.9,1.4,4.9-1.7,3.9-2.8,0,.1,1.9,0,2.9.6,2.5,1.6,4.4,5.2,4.1-.6h1c-.1.6,0,1.3.1,1.8,5.4-1.6,5.7,4.5,8.9-1.8s.1-2.8,2-3c0,1-.1,2,0,3ZM431.6,255.6c-.3-.2-2.2.1-3,0-.6,11.2,4,.9,3,0ZM426.6,256.6h-3s0,5,0,5h3v-5ZM422.6,258.6c-.6-.6-3.9-1.1-4,.5s1.8,3,2.5,3.5c.3-.6,1.7-3.8,1.5-4ZM416.6,261.6c-3-.8-2.7,2.8-.5,2,.7-.2.4-.7.5-1,1.9-1.6,1.7-4.9-1-4,.3,1,.9,1.9,1,3Z"/>
      <path class="st2" d="M334.6,452.6c-10-2.4-9.9-3.6-7,8,2,.2,0-2.5,2-2,.8,5.4,2,.4,2.2.2,1.1-.9,6.4,1.3,5.8,3.8-2.2-.2-6.5-2.7-6.5,1,.9,2.1,13.6,5.8,16.2,6s3-1,3.3-1c4.9-.3,3.3,1.1,5.2,2.6s.9-.7,1.8.4-1.3,2.8,3,2c-.1,4.6-3.1,6.8,5.5,6.1s5.4-2,6.5-6.1c1.3-.2,3.7-1.9,4.5-2s0,3.1,2.4,2v-4.5s-7,.5-7,.5c.2-1.6,1.1-3.3,1-5,.3,0,.7,0,1,0,0,2-.7,3.4,1.5,3s.2-2.1.5-3c.7.1,1.8,1.4,3,1,0-2.5.6-3.4-2-3,2.3-3.1,4.5-1.8,7-3,.9.2,3.8,2.2,4,2,.4-.6-1-3.3,1-3l.5,3,5.5-3c0,.7,0,1.3,0,2-.2,0-1.3,1.4-2.7,1.8s-4,0-4.3.2.2,2.3,0,3c4.1-.2,7.8,0,8-5,.6,0,1.3,0,2,0,.9,0,2.2,1.1,4,.6s5.4-3.1,6-3.6h3c0,.3,0,.7,0,1s-.8.6-1,1c-2.2.2-5.1,1.1-7,2s-1.3,1.7-2,2c-2.4,1.2-8.5,1.9-8,5-3.4-3.5-5.2,2.1-5.5,2-4.3-2.2.3-4.3.5-5-1.2,0-5.7-1.5-6,.5s3.3,2.2,3,3c-.6,1.5-4.9,2.7-5,5.5,1.2,1,10.9-4.1,13-5s3.7-2.1,7-3c-1.2.3-1.7,2.3-2.3,2.7-2.4,1.4-6.2,3.2-8.7,4.3s-2.5,1.1-4,1l1,3c-1.4.8-2.6.8-3,1-.4-1.8,1.7-3.7-1.6-2.2s-7.9,3-8.2,3.3c-.6.8.8,4.1-2.1,4.8-.3,0-.7,0-1,0h-2c-10.3-2-28.4-8.5-39-12l-1-1c-.5-.2-1.6.2-2,0l-1-1c-.3-.2-.6-.7-1-1v-21s10,4,10,4Z"/>
      <path class="st0" d="M453.6,336.6c0,2.9-1,7,3,7-1,4.7-1.2,9.2-1,14,1.6-1.2,5.7-.1,6,1.5.5,2.4-2.6,1.5-3,3s3.2,10.2,2,12.5c1.9,0,1.3-4.3,2-5,1.8-1.7,3,2.9,3,4,.8.2.8-.9,1-1,.5-.2,1.4.1,2,0-.1.2,0,3.2,0,4l-2,1c-.3,0-1.2,1.1-1.9.8s-4.1-3.1-6.1-3.8c.2-2.1-5.5-13.5-6.1-14s-1.8,1-1.9,1c-.7,0-2.3-1.6-3.7,1.3s1.2,4-5.3,4.7c-.3-.3-2.1.6-2-.5,1.4-1.4,3-2.7,4-4.5s1.8-3.8,2-5c1.8,4.1,2.7-.3,5-1l1,2,2-8.5-8-.5c0,1.3.1,2.7,0,4-6.5,0-10.5,2.9-6,9-.3.2-2.3,4.2-4.5,6s-3.3.8-3.5,1c0-1.1-.6-2-1-3-2.9-7.2-6.6-14.2-8-22,3.5.3,2.6,4.5,6.1,6.4s5.7,2.1,7.9.6,6.3-4.9,6.9-5.6c2.3-2.4,4.1-8.1,8.1-9.4s1.4,0,2,0Z"/>
      <path class="st11" d="M416.6,442.6c-.3.5-.8,1.9-1,2-4.9,3.2-16.9,8.1-23,11s-5.5,2.7-8,4-4.7-.1-7,3-.7,1-1,2c-.6-.1-1.4.1-2,0s-.7,0-1,0c-13.3-2.8-25.8-8.9-39-12l-10-4v21c-.4-.2-2,.6-2.1-.6,1-5.6-.4-11.3,0-17s2.1-5.1,2.1-5.4l43.8,14.8c2.2.9,5.9-2.2,7.2-3.8-.6,3.7,1.8,1,4,0s3.2-1.7,4-2c1.7-.6,3.4-1.4,5-2s1.5.2,2,0c3-1.2,6.2-2.3,9-4s.7-.7,1-1c.3,0,.7,0,1,0,2.2-.6,5.1-1.4,6.9-2.6s2.3-5.1,8.1-3.4Z"/>
      <path class="st2" d="M469.6,285.6c0,.7,0,1.3,0,2,0,4.7,0,9.3,0,14s0,.7,0,1h-1c-.6-3.7.9-10.1,0-13.3s-7.9-6.2-8.6-6.6c-5.1-2.5-13.3-2.4-18.9-2.1s-4-1-3.5,2c-6.7-1-18.2,3.4-24,7,2.2-4.3-8.5.5-9,1h-2c.2-.7-.5-1.2.7-2,6.1-3.7,29.4-9.4,36.8-10,11-.9,20.3.9,29.5,7Z"/>
      <path class="st3" d="M399.6,128.6c-.1,0-1.1,1-2.4,1-5.2.3-10.6-.8-15.6,1-1.6-1.2-9.3.9-11,1-7.9.5-17.3.3-25.5,0s-15.4-1.9-22.2-1.8c-1.9,0-2.5,1.4-3.3,2.8,0-.4-1.6-1.5-1-3.4,1.3-3.7,13.2-.7,16.4-.6,21.5.6,43.1-.5,64.5,0Z"/>
      <path class="st4" d="M462.6,328.6c-.3,4.7,1.4,9.6,7,8,.2,4.9,2,34.4.7,35.8s-1.7,0-1.7.2c-.6.1-1.5-.2-2,0-.9-4.7,1.3-14.5-.1-18.4s-6.8-2.4-5.9-6.6c3.2-1.2,2.5,2.2,4.3,1.9,3.2-.5,2.7-1.7,2.6-4.2-.4-6.2-3.1-4-3.9-5.3-1.3-2.2-3.4-8.6-4-11.3h3Z"/>
      <path class="st3" d="M413.6,454.6c.6,3.2,1.5,6.1,5,4v3c-5.3,4.7-18.6,11.3-26,12s-2,0-3,0c2.5-1.1,6.3-2.9,8.7-4.3s1.1-2.3,2.3-2.7c.3,0,.7,0,1,0,2.7-.6,3.3-.8,0-1v-2c.7-.3,1.4-1.7,2-2,1.2,2.7,5.3,1.2,6.8-.3s0-1.4.2-1.7,1-.8,1-1l1-.5-1-.5h-3c.2-.2.3-1.6,1-2,1.5-.5,3.8-.9,4-1Z"/>
      <path class="st12" d="M323.6,398.6l25.8,6.7c2,.9.1,3.5,5.2,1.3-2.1,3.9.8,2.8,1,3.5.4,1.1.4,3-1.5,2.5-4.1-1.2-16.2-4.9-19.3-6.7s-1.7-2.6-2.3-3.2c-1-1.1-.4,2.1-2.4,2.1s-4.2-1.8-6.5-2.1c0-1.3,0-2.7,0-4Z"/>
      <path class="st7" d="M320.6,221.6c9,1.6,21.8.2,30.3,3.2s2,1.6,1.7,3.3-28.9-3.2-32-2.5c0-1.3,0-2.7,0-4ZM332.1,223.6c-1,.7.5,1.4,1,2,1-.7-.5-1.3-1-2Z"/>
      <path class="st7" d="M321.6,228.6c3.8,2.5,12.8-1.4,12,5,2,.3.1-2.8,1.5-3.1s13.8,1.2,15.2,1.8,2.1,2.3,2.3,3.8c0,2.1-28.1-2.9-31-3.5,0-1.3,0-2.7,0-4Z"/>
      <path class="st3" d="M442.6,434.6c.2,0,1.7,2.4,2,3-1.8-.4-2.6,1.8-3,2s-2.5-.4-2.9,0c-.6.8.3,4.4,0,4.9s-2.4-.1-3,0c0,1.1-.3,2.5,1,3-.8,1.3,1.6,3.4-3,3.5,1.2,1.7,3.1,1.5,5,1.5-4.6,3-9.9,5.9-15,8-.2-.9.2-2.3,0-3l6-2.5c-1.4-.3-2.7.7-4.4.6-4.6-.4-6.2-3.4-3.3-2.8s5.9,2.5,6.6-1.8-3.1-1.1-4.7-2.6-1.1-3.4-1.2-4.8c.3,0,.8,0,1,0s.6.7,1,1c.8.6,1.4,2.7,3.5,2.6s5.2-2.1,7.5-2.6c0-3.2.2-5,0-8s0-1.7,0-2.5l1-.5,1,1v-2c4.3,4.2,3,1.4,5,2ZM431.1,453.6v1c.6-.3.6-.7,0-1Z"/>
      <path class="st3" d="M464.6,423.6c-.4.5-1.9,7.6-1,9l-2.5-1-.5,5c-.2.1-.6,0-1,0,.7-3.1-1.6-2-2,0-.9,5.1,2.9,3.8,6,3,.5,2.4-1.2,2.1-2.6,2.8-4.3,2.3-17.5,9.6-21.4,10.2,1.2-3.5,7.7-4.6,10.7-6.3s.2-1.6.3-1.7c.6-.4,3-.6,4-1,.4-1.8-2-.3-2-1.5s3.2-4.2,2-5.5-4,.6-5-4c3,2.9,8.7,3,8-2s0-.7,0-1c1-1,3.4-3.1,4-4h2s-1-1-1-1c.2-.7,0-2.1,0-3l2,2Z"/>
      <path class="st3" d="M465.6,317.6c1-.8.5-2.8,3-2-.7,1.6.9,3.3,1,4,.7,5.1-.2,11.6,0,17-5.6,1.6-7.3-3.3-7-8s1.8-7.9,3-11Z"/>
      <path class="st12" d="M322.6,377.6c4.4,1.9,12.7,1.9,16.4,4s.4,2.6.7,3,5.4-1.3,8,0v1c0,.3.1.7,0,1l-2,2c-7.1,1.1-15.4-7-23-6,0-1.7,0-3.3,0-5ZM343.1,385.6v1c.6-.3.6-.7,0-1Z"/>
      <path class="st4" d="M467.6,426.6c-2.9,4.1-2,7.8-7,10l.5-5,2.5,1c-.8-1.4.6-8.5,1-9s1.8.9,2.1-1.4c.7-5.6-.3-10-1.8-15.1s.7-1.4.7-1.5c1-.8.8-1.9,1-3,3.4.6,1.9-6.1,2-9,2.7,7.8,0,16.6-.4,24.5s-.4,5.9-.6,8.5Z"/>
      <path class="st2" d="M444.6,437.6c1.4,2.4,1.5,6.7,6,7,0,0,.2,1.4-.3,1.7-3,1.8-9.5,2.8-10.7,6.3-.3,0-.7,0-1,0-1.9,0-3.8.2-5-1.5,4.6-.1,2.2-2.2,3-3.5s1.8,0,2.9-1.6,2.1-4.2,2.1-6.4c.4-.2,1.2-2.4,3-2Z"/>
      <path class="st12" d="M469.6,308.6c-3.2,1.5-3.9,5.8-5,9-.9.7-2.9,1.9-3,2-.2-2.5-.3-6.8-1-9,2.5,2.2,4.6-2.9,6-5l1-2c.3-.3.8-.6,1-1h1c0,1.8,0,4,0,6Z"/>
      <path class="st11" d="M333.6,388.6c2.3,1.6,3.1,2.4,5,4s2.4.7,3,2c-1.2,1.3-1.5.8-3,1s-2,0-3,0l-12-4c0-1,0-2,0-3,3.5.1,9.8,5.7,10,0Z"/>
      <path class="st2" d="M463.6,439.6c-3.1.8-6.9,2.1-6-3,1.1,1.2,1.7,0,2,0s.8.1,1,0c5-2.2,4.1-5.9,7-10-.3,7.3,3.5,11-4,13Z"/>
      <path class="st12" d="M333.6,429.6c1.9,1.3,1.8,3.9,2,4,.5.4,9-5.5,9,3h1c-.6-4.1,7.5-1.3,9.1.5s0,1.9.1,2c.6,1,2.1-.2,1.7,1.5-6.9-1.6-17.3-3.4-23.3-7s-.9-1.1-.8-1.9c-1.7-.6-.5,2.2-1.4,2-1.7-.3-4.1-2.5-6.5-2,0-1.7,0-3.3,0-5,2.4,1.2,7.1,1.7,9,3Z"/>
      <path class="st7" d="M383.6,478.6c-.3.1-.8,1.8-2,2.4-3.8,1.8-5.9,2.9-10,3.6,2.9-.8,1.5-4.1,2.1-4.8s6.6-2.6,8.2-3.3c3.3-1.5,1.3.4,1.6,2.2Z"/>
      <path class="st2" d="M413.6,454.6c.2,0,1.2-2.6,2-2l1,4c.7.6,1.8-1.9,2-2,.3,0,4.9,2.6,5,3,.2.7-.2,2.1,0,3-.3.1-.7-.1-1,0h-1c-.9.3-2.1.2-3,1v-3c-3.5,2.1-4.4-.8-5-4Z"/>
      <path class="st12" d="M469.6,247.6c-.2,1.1,0,2.8,0,4l-3-2c0,9.9-3.7,1.2-4,1,.1-.6-.2-1.5,0-2s2.1-3.9,2.5-4l4.5,3Z"/>
      <path class="st7" d="M335.6,395.6c-3,.3-3.4-1-3,3-.8-.2-2,.1-3,0l1-4-7,2c0-1.7,0-3.3,0-5l12,4Z"/>
      <path class="st12" d="M323.6,384.6c3-.3,5.1,2.9,5.5,2.9.7,0,1.8-1,2.8-.9s1.2,1.7,1.7,2c-.2,5.7-6.5.1-10,0,0-1.3,0-2.7,0-4Z"/>
      <path class="st7" d="M469.6,319.6c0-.7-1.7-2.4-1-4-2.5-.8-1.9,1.2-3,2s-.8-.2-1,0c1.1-3.2,1.8-7.5,5-9,0,.4,1,1.4.9,2.5,0,2.8-1.5,5.5-.9,8.5Z"/>
      <path class="st0" d="M468.6,390.6c0,1,0,2,0,3,0,2.9,1.4,9.6-2,9,.8-5-.5-7.6,0-12h2Z"/>
      <path class="st0" d="M468.6,380.6c0,2.7,0,5.3,0,8h-2c-.2-.2-2.9.7-2-2.5s1.6-.4,2.2-5.8.8-.6.8-.7l1,1Z"/>
      <path class="st3" d="M442.6,128.6c-7,0-14-.1-21,0,6.1-1.7,14.9-1.7,21,0Z"/>
      <path class="st12" d="M324.6,412.6c1.2.3,4.8-.7,5,.6,1,6.6-1.2,4.5-5,2.4,0-.8.2-2.3,0-3Z"/>
      <path class="st7" d="M392.6,473.6c-1.7,3-4,2.9-6,4l-1-3c1.5.1,2.7-.4,4-1,1,0,2,0,3,0Z"/>
      <path class="st5" d="M469.6,301.6c0-4.7,0-9.3,0-14,1.7,3.4,1.7,10.4,0,14Z"/>
      <path class="st3" d="M472.6,130.6v4c-2.1-4.1-.8-5.4-6-6,3.8-2.3,4.6-1.4,6,2Z"/>
      <path class="st3" d="M417.6,128.6c-3,0-5,0-8,0,2.6.5,6.2-2.4,8,0Z"/>
      <path class="st4" d="M468.6,376.6c.3,2.6,0,2.3,0,4l-1-1c.1-.8,0-1.9-1-2l2-1Z"/>
      <path class="st3" d="M319.6,143.6h-1c.2-2.2-.9-5.6,1-7,0,2.3,0,4.7,0,7Z"/>
      <path class="st4" d="M468.6,388.6c0,.5,0,1.1,0,2h-2c0-.5,0-1.9,0-2h2Z"/>
      <path class="st8" d="M472.6,133.6v-3c.4,1,1.9,1.4,0,3Z"/>
      <path class="st7" d="M370.6,484.6c-1,0,0,.4-2,0h2Z"/>
      <path class="st3" d="M319.6,135.6c0-.3,0-.7,0-1l1,.5-1,.5Z"/>
      <path class="st3" d="M450.6,128.6c-.3,0-.7,0-1,0l.5-1,.5,1Z"/>
      <path class="st3" d="M445.6,128.6c-.3,0-.7,0-1,0l.5-1,.5,1Z"/>
      <path class="st3" d="M421.6,460.6h1c-1,.4-1,0-1,0Z"/>
      <path class="st11" d="M326.6,471.6c-.4-.2-.7-.8-1-1l1,1Z"/>
      <path class="st11" d="M329.6,472.6c-.5-.2-.8-.9-1-1l1,1Z"/>
      <path class="st12" d="M367.6,155.6v4c0,1,0,2,0,3,0,6.8-.2,13.7,0,20.5s-1,4,2,3.5c0,3.6-1,6.7-1,10-1.2,1-1.2,2,0,3,0,3.3,1,7,1,11-3-1.1-3.2,4.9,0,4,0,24.6-.8,49.5,1,74-.9.5-1.5,1.4-3,1-.3-27.2-1.8-55.1-2.1-82.5,0-2,1.8-6.3.8-7.3s-1.7,0-1.8-.2c-.1-.2,0-3.3,0-4,1.6-13.5.9-27.3,1-41,1,.1,1.4.7,2,1Z"/>
      <path class="st2" d="M370.6,313.6c0,7-.1,14,0,21s-.1,8.7,0,13,0,9.8,0,14.6.4,11.5,2.9,10.4v1c-1.2.2-2.2.8-3,1s-2-.1-3,0c0-3.3,0-6.7,0-10,1.7-2.7,1.7-9.1,0-12,0-12.3,0-24.7,0-37,.4-.3.6-.8,1-1,.7-.5,1.8-.9,2-1Z"/>
      <path class="st7" d="M351.6,328.6c-6.6-1.2-7.2-2.7-13.5-3-4.4-.2-4.7-3.1-5.1-3.1-2.1,0-4.4,1.9-7.4,0-2.4-3.3,9.2-4.4,9,0h1c-.3-4.2,2.3-.7,4-.5,3,.5,11.3-.2,10,4.5l2.5-2,.5,3c1.8.3.7-1.5,1-2.4s2.8,1,4,.4c.1.2,3.2-.5,2,4-2.7.1-5.4-.5-8-1Z"/>
      <path class="st0" d="M370.6,420.6l3,.5c-.6,2.6-.7,7.4,0,9.8s1.9.6,2,.7c.2.3-.3,1.7.3,2.6s3.4,2.3,3.5,2.5c.3.6-.9,1.6-.8,1.8-2.9-.2-5.5.3-7,3s-2.3,6.8,1,6c-1.7.6-1.6,1.1-4,1,0-2,.2-4,0-6,3.4-1.5.9-6.3,4-9h-4c0-1.8-.4-3.2,0-6s.2-3.7,2-7Z"/>
      <path class="st7" d="M329.6,192.6c3,.6,5-.1,8,0l-2,4c2.6.7,2.3-2.6,3.7-3s3.7,0,5.3,0l-1,4c-1.4.1-1.3.6-2,1s-1.9.8-2,1c-.7-1.4-1.3-2.3-3-2v4c-.8,0-3.4,2.3-6,.5s-1.3-3.2-1-3.5,7.8,1,2.1-2.8,0-1-.2-1.2c-.4-.3-1.3.8-2,1v-3Z"/>
      <path class="st7" d="M347.6,278.6l-3,1c-.7.8,2.8,3.3-.5,3s-17.8-2.4-18.4-3.1,0-2.8-.1-3.9l22,3Z"/>
      <path class="st0" d="M367.6,399.6l6-4c1.1,3.6,2.4,8-3,6,0,1.5,2.6,1.9,3,3s0,2.8,0,4,0,1.3,0,2c-1.9-1.6-3.5,1.5-6,1,0-4,0-8,0-12Z"/>
      <path class="st7" d="M325.6,297.6l20,3c1.1,6.4-7.8,2.8-12,2s-7.7-.7-8-1,.2-3,0-4Z"/>
      <path class="st0" d="M370.6,374.6c5.3,2.6-1.3,8.4,1,12,0,0,0,.9-.4,1.6s-1.6.4-1.6,1c-.3,3.2,3.1,4.1-1.9,7.4,0-7.3,0-14.7,0-22,1-.1,2.1.2,3,0Z"/>
      <path class="st7" d="M350.6,277.6c-5.2-2.4-11.3-2.6-17-3v-4c6.1,1.4,17.6-1.9,17,7Z"/>
      <path class="st7" d="M351.5,265.6c.3.3.4,5-.4,4.9-4.6-2.5-14.9.3-14.5-7,1.9.6,14.4,1.5,14.9,2.1Z"/>
      <path class="st5" d="M362.4,228.8c1.3,1.2.5,8.4.2,8.8s-6.3-.3-6.8-1.2-1.4-6.6-1.2-6.8c.4-.3,3.8.2,5,0l-3-2c1.7,0,4.5,0,5.8,1.2Z"/>
      <path class="st7" d="M343.6,312.6c0-2.9-.8-3.2,2.5-3s16.5,2.3,12.5,6c-1.9-.2-4.1.2-6,0-3.1-.4-6.5-2.5-9-3Z"/>
      <path class="st7" d="M354.6,250.6c1.3,1.9-4.2,4.2-5.4,4.1s-.5-2.1-1.1-2.1c-3.2-.2-10.4,4.3-10.4-4,3,1.8,15.7.2,17,2Z"/>
      <path class="st7" d="M340.4,284.8c.5.5.5,2.7,1.2,3.7-5.1-1.7-17.6.3-16-7,2.6,1,13.5,1.9,14.8,3.2Z"/>
      <path class="st3" d="M373.6,410.6c-.1,7.2-.3,5-3,10s-1.5,3.6-2,7c-1.8-3.3-1-8.9-1-13l1-.5-1-.5c0-.7,0-1.3,0-2,2.5.5,4.1-2.6,6-1Z"/>
      <path class="st7" d="M325.7,294.4c-.5-.6-1.1-4,1.4-3.9s9.7,1.8,11.5,2.5c4.2,1.7,4.1,5-.7,3.7s-11.8-1.8-12.2-2.3Z"/>
      <path class="st7" d="M359.6,339.6v1c-.2.1,1.2,2.8-4,2s-7.9-1.8-10-2.5-2.2-1-2-3.5c.3,0,2.6.2,4.8.7,3.7.9,7.6,1.3,11.2,2.3Z"/>
      <path class="st12" d="M339.6,328.6c4.7.1,6.9,2.8,11,1,0,.9.7,1.4,1,2,.6,1.2,1.1,1.7,0,3-6.3-1.9-8.5-2-15-3v-3c1.3,1.3,2.7,0,3,0Z"/>
      <path class="st3" d="M373.6,385.6c-1.2,2.6,2,3.2,2,3.6.2,2.1-1.9,5.7-1,8.4.3.3,7.2-.8,7.8-1.2,1.8-1.3.2-7.8,2.7-8.8,3.6-1.5,2.2,4.3,1.5,7-1.6,6.1.6,2.7,2,7,2-.4,2-5.9,7-3-.9,1.2-3.7,8.6-4.1,8.9s-2.8.2-2.9,0c-.2-.2.8-3.3,0-6-.6.1-1.3,0-2,0s-.6-.8-1.3-.7c-2.2.2-4.8,1.5-5.7,3.7-.3,0-.7,0-1,0-.9,0-3.1-1.9-5,0-.4-1.1-2.9-1.4-3-3,5.4,2,4.1-2.4,3-6l-6,4c0-1,0-2,0-3,5.1-3.3,1.6-4.1,1.9-7.4s1.4-.6,1.6-1c.5-.7.3-1.5.4-1.6.3-.4,1.6-.6,2-1Z"/>
      <path class="st7" d="M347.6,211.6c1.8,0,3.7,0,5,0s3.2,1.6,5,1c0,.1,1.5,1,.6,2-2.5,2.9-7.9,1.3-11.1.6s-1.6,1.2-1.5-2.6c.1,0,1-1,2-1Z"/>
      <path class="st7" d="M337.4,255.8c.2.2,1,3,.7,3.7-3.1-1.9-8.7-.2-11.5-2.5-6.6-5.6,9.5-2.7,10.7-1.2Z"/>
      <path class="st7" d="M334.6,210.6c.2.2.9,3.4,2,4-3.6-.4-5.5-1-8.5-1.5s-4.1,2.9-3.5-3.5c.4-.4,9,.1,10,1Z"/>
      <path class="st7" d="M351.6,331.6l9.9,1.1c1,2.2-.5,3.6-.9,4.9-2.9-1.1-6.1-2.1-9-3,1.1-1.3.6-1.8,0-3Z"/>
      <path class="st12" d="M367.6,448.6c0-6.7-8.7-3.6-9-9.5l2,2.5c1.6.4.6-1.4,1.2-1.7,1.4-.9,4.1,0,5.8-.3,0,1.7,1,2.7,1,3,.2,2,0,4,0,6-.3,0-.7,0-1,0Z"/>
      <path class="st7" d="M357.6,244.6c2.9,3.9-7.6,3.5-9.3,3s-1.4-3.9-1.6-5c1.9.9,10.4,1.2,11,2Z"/>
      <path class="st12" d="M347.6,210.6v1c-1,0-1.9,1-2,1-.3,0-.7,0-1,0-2.5-.1-6.9-3.8-6,2-.4,0-.5.2-2,0-1.1-.6-1.8-3.8-2-4,1.7.1,2.9-1.6,4-2,2.1-.7,6.4,1.2,9,2Z"/>
      <path class="st7" d="M338.6,208.6c-.5-6.8,1.1-3,4.5-2.5s5.1-.4,6-.3c2.3.4.8,5.6-1.5,4.8-2.6-.8-6.9-2.7-9-2Z"/>
      <path class="st12" d="M344.6,193.6c5.8,0,3.9.7,6.2,1.8s4.4-2.4,2.8,1.7-8.2.3-10,.5l1-4Z"/>
      <path class="st7" d="M357.6,280.6c.3.3-.2,3.9,0,5-4.8-3-10.7.8-9-7,1.9-.2,3,1.2,4.7,1.8s4.1,0,4.3.2Z"/>
      <path class="st7" d="M353.6,273.6c4.4.5,11.5,0,11,6-3.2-1.6-6.5-1.8-10-2l-1-4Z"/>
      <path class="st12" d="M352.4,429.8c.4.7,0,1.9.2,2.8,1-.2,2.2-3.9,4-2s-.2,3,0,4c-3.1.4-13.1-2.7-10-7s5.6,2,5.8,2.2Z"/>
      <path class="st7" d="M346.6,200.6c2.5.2,6.1-2.4,6.5,3l1.5-3c1.4,6.7-4.3,3.7-8,3v-3Z"/>
      <path class="st7" d="M364.6,195.6c0,.7-.1,3.8,0,4l-8-2.5,8-1.5Z"/>
      <path class="st7" d="M331.6,306.6c0,.1.7.2,1,.5-1.6.9-2.5,0-2,2.5,3.2-2,.9.6,3,1l.5-3c.6,0,7.1,1.9,7.4,2.2.5.5,0,1.4.1,1.9-4.5.5-17.7,1.1-16-6l6,1Z"/>
      <path class="st7" d="M333.6,264.6c2.4,2.9-6.3,1.9-8,2v-5c.5-.4,7.7,2.7,8,3Z"/>
      <path class="st3" d="M368.6,433.6h4c-3.1,2.7-.6,7.5-4,9,0-.3-.9-1.3-1-3,0-2.7.9-4.5,1-6Z"/>
      <path class="st7" d="M330.4,240.8c.5.6.5,2.7,1.3,3.7-4.6.3-7.8.6-7-5,.2-.3,5.2.7,5.7,1.3Z"/>
      <path class="st7" d="M334.5,204.7c.3.2,1.5,3.5,1.2,3.8-4.7-.3-8.1,2-7-4,1.6.2,4.7-.6,5.8.1Z"/>
      <path class="st12" d="M329.6,195.6c-1.5.4-4.1,2.3-6,.5l1-4.5c2-.2,0,2.5,2,2-.3-3.8,1.6-1.3,3-1v3Z"/>
      <path class="st12" d="M352.6,211.6l4-5c2.5,3.5,1.5,2.3,1,6-1.8.6-3.9-.9-5-1Z"/>
      <path class="st7" d="M344.6,212.6c.9,5.4-2.7,2.2-6,2-.9-5.8,3.5-2.1,6-2Z"/>
      <path class="st7" d="M348.6,317.6l-1,3c-4-.2-5.8-.6-5-5,.2-.3,5.3,1.9,6,2Z"/>
      <path class="st7" d="M330.2,270c.2,0,2.5,2,2.4,2.6-7.7,2.1-10.5-7-2.4-2.6Z"/>
      <path class="st12" d="M364.6,383.6c0,.7,0,1.3,0,2l-12-3.5,12,1.5Z"/>
      <path class="st7" d="M327.6,247.6c-.4,2.8,1.4,2.8,1,0,.6,0,1.4-.1,2,0v3c-1.9.2-4-.2-6,0l1-4c.7,0,1.5,1,2,1Z"/>
      <path class="st12" d="M346.6,200.6v3c-1.4-.3-2.9-.8-4-1v-3c1.5-.8,3.4.9,4,1Z"/>
      <path class="st5" d="M339.6,199.6c-.2.3.1,1.4,0,2-.2,0-2.4,0-3,0v-4c1.7-.4,2.3.6,3,2Z"/>
      <path class="st0" d="M367.6,364.6c0-4,0-8,0-12,1.7,2.9,1.7,9.3,0,12Z"/>
      <path class="st12" d="M353.6,273.6l1,4c-3.7-.3-1-1.6-3-4.5.6-1,1.2.4,2,.5Z"/>
      <path class="st7" d="M337.6,244.5c-.1,0,1.1-1.9,0-3,4.7-.2,2.1,4.2,0,3Z"/>
      <path class="st12" d="M341.6,199.6v3c-.6-.1-1.4-.9-2-1,.1-.6-.2-1.7,0-2s1.5-.7,2-1v1Z"/>
      <path class="st7" d="M331.6,250.6v-3c.9.3,1.4.8,2,1.5-.6.7-1.1,1.2-2,1.5Z"/>
      <path class="st12" d="M331.6,250.6c-.3,0-.7,0-1,0v-3c.3,0,.7,0,1,0v3Z"/>
      <path class="st5" d="M342.6,202.6c-.3,0-.7,0-1,0v-3h1v3Z"/>
      <path class="st12" d="M354.6,427.6c-.2,0-1.8,2.2-2,0h2Z"/>
      <path class="st12" d="M328.6,247.6c.4,2.8-1.4,2.8-1,0,.3,0,.7,0,1,0Z"/>
      <path class="st12" d="M351.1,209.6c.6.3.6.7,0,1v-1Z"/>
      <path class="st0" d="M367.6,414.6c0-.3,0-.7,0-1l1,.5-1,.5Z"/>
      <path class="st12" d="M367.6,315.6c0-.3,0-.7,0-1h1c-.4.2-.6.7-1,1Z"/>
      <path class="st13" d="M381.6,130.6c.2.2-.2,1.8,0,2,.7.5,6.4-.7,9,.5s3,3,5.6,4.4,1.8.8.4,3.1c-7.8-1-12,4.3-18.8,4.8-6.8.5-7.2-4.4-8.2,6.2-6.5.2-13.9-1-20,1-.7,0-1.3,0-2,0-2.4-5.3.6-3.6,1-4,2,0,4.1-.3,6-1s1.2.4,1.8-.2c1.7-1.6,2.6-7.5,1.2-9.8,7.3,2.9,12.6,3.5,13-6,1.7-.1,9.4-2.2,11-1Z"/>
      <path class="st2" d="M406.6,181.6c-.2,1.4-2.1,3.1-2.1,5.5s2,1.3,2.1,1.5c2,2.7-7,7-5,11-.6,0-1.3,0-2,0l-5-2c.4-7.9,3.5-15,1-23,4.9-.5,11.8.7,11,7ZM399.6,192.6c5.7-.6,6-15,0-15v15Z"/>
      <path class="st5" d="M413.6,229.6c4.2.5,4.4,6.6,1,6,0-.7,0-1.3,0-2-9.6-3.4-10.1,18.6-4.5,19.1s4-3.2,6.5-5.1c.1.9-.2,2.2,0,3-1,.3-.9,1.2-1,2-3.7,3.9-4.5,3.3-9,4-6.8-4.1-4.3-18.9,0-24,1.7-2,4.3-3.3,7-3Z"/>
      <path class="st4" d="M444.6,184.6c.2-.9-.7-2.3,1-2,0,3.4-1.8,5.2,1,8-2.3-.5-12.8-2.4-12.9.5s.9.4.9.5c.2,3.7-.9.9-1.8,1.3s-.6.8-2.2,1.7l-4-1v-4c-2.6,0-2.8,2.9-3,3-1.5,1-5.2.8-7,1-4.4.6-5.4,1.8-10-1-1.9,5,0,1.6,3,4-3.7.8-6.5,2.8-8,3-2-4,7-8.3,5-11,.6.1,1.9-.2,2,0,.7.9-1.1,4.8,4.5,4s4-4.3,4.6-7c2.1.6,1.2,3.7,4.5,3.9,5,.4,2.7-5.1,6.5-4.9-2.5,13.6,2.3,4.2,7,2.6s7.6,2.9,9-2.6Z"/>
      <path class="st5" d="M389.6,225.6c0,2.3-.4,6.4,0,8.3s1.6.7,1.7.9c1.1,2.2-2.4,5.3-4.8,4.8,1-6.4,1.6-14.1,1.1-20.6s-4.6-5.4,4.3-7.5l2.6,9.1c1.2-.1,3.2-2.5,3,.5s-1.7,10.1-2,10.5c-1.7,2-3.7-5.1-4-6-.6-1.7-.2-4.6-1.5-6-.9,0-.5,4.8-.5,6Z"/>
      <path class="st5" d="M389.6,265.6c-1.6-5,.2-5,.8-8.7s-.6-9.9,3.2-11.8,4,1.5,4,5.5c-6.8,3.4-.8,4.5,1,6s.9,1,2,2,.7.7,1,1c-3,5.1-5.6.4-8,6h-4Z"/>
      <path class="st4" d="M407.6,175.6c.1.1-.4,2.1.6,2s2.5-1.1,4-1.1,4.5,1.2,5.5,1.1c-.2,1.1.2,2.7,0,4-3.3-4.9-6.1-3.5-10,0h-1c.8-6.3-6.1-7.5-11-7,2.5,7.9-.6,15.1-1,23l5,2c-5.5.2-9.8,1.5-9.1-5.5s1.8-1.3,2.1-2.2,0-2.3,0-3.2c2.8.3,2-1.6,2-3.4,0-4.4-1.2-8.2-1-12.6,1.3-1.3,12.6,1.6,14,3Z"/>
      <path class="st4" d="M436.6,167.6c4.1,2.1,7-1.1,6,5-.2-.2-.8.2-1,0s.4-3.5-5-2c1.5,4.9.9,10,1,15-1.9-.9-.7-4.7-1.4-7-2.1-6.9-6.3-2.2-9.2-2.2s-2.7-2-4.8-1.9-3.2,2.9-4.6,3.1c1.9-8.7,7.7-3.2,10.3-3.2s4.4-2.2,6.7-1.8c.2-1.7-2.9-1-4-1,2.5-1,3.4-3.1,6-4Z"/>
      <path class="st5" d="M413.6,211.6c.8,3.9,2.1,11.3,1,15-4.7-.2-4.2,2.7-9,1-.7-2.8.9-5.6,1-8l5-5-6,2c.4-5.3,4.6-4.4,8-5Z"/>
      <path class="st5" d="M403.6,229.6c-.3,2.4-2.5,4.2-5,4l1-17-2.5,2c-.6-5.1.5-13.6,7.5-13-3,5.9-2.1,13-2,19.6s1,2.3,1,2.4c0,.6,0,1.4,0,2Z"/>
      <path class="st11" d="M416.6,210.6c0,.3,0,.7,0,1,.2,4.9-2.4,15.2,5.3,12.8s2.3-3.6,3.2-3.8l2.5,3c-1.2,0-4.6,2.2-6,3s-3.4.4-3.8,2.6c.9,3.1.8,6.2.8,9.4h-4c0-1,0-2,0-3,3.4.6,3.2-5.5-1-6,0-1.1.7-2.1,1-3,1.1-3.7-.2-11.1-1-15,.5,0,1.8-1.5,3-1Z"/>
      <path class="st2" d="M417.6,177.6c1.3-.2,2.5-2.9,4.6-3.1s3.2,1.9,4.8,1.9c2.9,0,7.1-4.8,9.2,2.2.7,2.3-.4,6.1,1.4,7,0-5,.6-10.1-1-15,5.4-1.5,4.7,1.8,5,2-2.2,3-.5,8.2-1,12h3s1,0,1,0c-1.4,5.5-6.5,1.7-9,2.6-4.7,1.6-9.5,11-7-2.6-3.8-.1-1.6,5.3-6.5,4.9s-2.3-3.4-4.5-3.9c-.6,2.7-1.2,6.5-4.6,7-5.6.8-3.7-3.1-4.5-4,1.9-1.9,1.7-6-1-7,3.9-3.5,6.7-4.9,10,0,.2-1.3-.2-2.9,0-4ZM423.6,187.5c1.4-1,2.3-11.8-3-11-.3,1.6-.6,13.5,3,11ZM433.6,187.5c-.2-3.9,1.5-9.1-3-11-.2,3.1-.1,5.8.7,8.8s-.3,2.6,2.3,2.2ZM412.1,180.6c-2.3.5-2.6,10.7,1,10s2.6-10.7-1-10Z"/>
      <path class="st2" d="M407.6,175.6c.2.2,4-1.1,5.5-1.1s4.2,1.4,4.5,1.1c.5-.5-.4-4.9,4.6-5s3.2,1.8,4.9,1.9,2.5-.9,3.5-.9,4.2-.7,4,1c-2.2-.4-5,1.8-6.7,1.8-2.6,0-8.4-5.5-10.3,3.2-1,.1-3.6-1-5.5-1.1s-2.9,1.1-4,1.1-.4-1.9-.6-2c-1.4-1.4-12.7-4.3-14-3-.1,4.4,1.1,8.1,1,12.6s.8,3.8-2,3.4c.8-5.7-.6-5.8-1-7.7-.7-2.9.4-7.2,0-10.3,4.8,0,10.9-.5,15,2.6s.9,2.4,1,2.5Z"/>
      <path class="st11" d="M367.6,162.6c3-.6,1.9,1.5,2,3.5.3,6.8,0,13.7,0,20.5-3,.6-1.9-1.5-2-3.5-.2-6.8,0-13.7,0-20.5Z"/>
      <path class="st13" d="M396.6,150.6v1c-8.7.4-17.3,2.1-26,2v-2c8.5-.3,17.6-.5,26-1Z"/>
      <path class="st12" d="M415.6,252.6c-1,5.4-7.5,11.2-11,5,1,0,1.7-1,2-1,4.5-.7,5.3-.1,9-4Z"/>
      <path class="st12" d="M397.6,250.6c.7-.3,3.8-1.2,4-1,.5,2.8-2.1,4.5-3,7-1.8-1.5-7.8-2.6-1-6Z"/>
      <path class="st2" d="M369.6,151.6c.3,0,.7,0,1,0v2c-6.8,0-14-.8-21-1,6.1-2,13.5-.8,20-1Z"/>
      <path class="st12" d="M414.6,226.6c-.3.9-1,1.9-1,3-2.7-.3-5.3,1-7,3-.6-1.7-1-3.2-3-3,0-.6,0-1.4,0-2,.6.1,1.5-.2,2,0,4.8,1.7,4.3-1.2,9-1Z"/>
      <path class="st2" d="M416.6,193.6c.6,3.8-4.7,2.5-7,3-3-2.4-4.9,1-3-4,4.6,2.8,5.6,1.5,10,1Z"/>
      <path class="st3" d="M423.6,192.6c.2-.1.4-3,3-3v4s4,1,4,1c-1.1.6-2.3.8-3,2-.6,0-1.5-.1-2,0-.1-2.5,1-4.6-2-4Z"/>
      <path class="st7" d="M405.6,216.6l6-2-5,5c0-.2-1.1-1.3-1-3Z"/>
      <path class="st8" d="M394.6,201.6c.4,1.4-.2,5-1.5,5s-1.2-6.3,1.5-5Z"/>
      <path class="st12" d="M391.6,225.6h-2c0-1.3-.4-6,.5-6,1.3,1.5.9,4.3,1.5,6Z"/>
      <path class="st11" d="M393.6,265.6c-.2.5.6,1.8-.5,2-4.1,1-3-.6-3.5-2h4Z"/>
      <path class="st11" d="M369.6,210.6c0,1.3,0,2.7,0,4-3.2.9-3-5.1,0-4Z"/>
      <path class="st11" d="M367.6,155.6c.4.2,1.8-.6,2,.6.5,2.2.2,4.1-2,3.4v-4Z"/>
      <path class="st11" d="M368.6,199.6c-1.2-1-1.2-2,0-3,0,.4,0,2.6,0,3Z"/>
      <path class="st3" d="M322.6,151.6c-1,0-2,0-3,0,0-.7,0-1.3,0-2l3,2Z"/>
      <path class="st8" d="M389.6,204.5c-.3.7-1.7-.6-1-2s1.7.6,1,2Z"/>
      <path class="st3" d="M459.6,168.6c-1,3.8,1,9,1,12s0,.7,0,1c0,15.4-15.9,10-26,10,0-.1-.9-.3-.9-.5.1-2.9,10.7-1,12.9-.5-2.8-2.8-1.1-4.5-1-8-1.7-.3-.8,1.1-1,2h-1l1-10,5-1c1.1,4.6-2.4,2.4-3,3-1.5,1.6.8,4.1,3,3l-1,3c3.9-2.1,5.3,3.9,6.5,4,5.3.2-4.1-6.8-4.3-7.6-.2-1.3,1.5-7.1,3.8-6.4.5-1.7-2-.4-2.1-1.6s.9-1.7,1.1-2.4h6ZM456.8,176.4c-.5-.3-.8-2.7-1.6-2.8-4.2,3.7.9,4.7,3.5,7v-5c0-.1-1.6,1-1.8.9Z"/>
      <path class="st5" d="M438.6,235.6c0-.3,2.6-3,3.5-3.1,4.8-.7,3.9,4.7,7.5,2.1l1,4c1,.4,1.8-1,2-1s1.1.9,2,.4c1.7-.8,2.6-4.3,5-3s2.9,5.6,2,8.6c-2.2,0-5.7,1.6-4,4s1.5-.2,2,0c1,.3,2.1.3,3,1-.2.5.1,1.4,0,2-.2-.1-.7,0-1,0-1.8-.5-4.2.3-6-2-.1-1,0-2,0-3-1.9.2-1.5,2.1-2,3h-6s0-4,0-4l3.5,1c2-3.1-4-1-4-6-4.5,1.8-9.3,6.2-1.5,7,.3.3-.9,1.3-1,2h-1c-1-.2-3.5.4-3.9,0s-1.5-11.5-1.1-12.9Z"/>
      <path class="st5" d="M421.6,226.6c0,2,0,4,0,6s0,2.7,0,4l4-2c1.2,1.1,1.4,2.3,2,3,.5,3.5-1.2,8.3,1,11-.4.3-.5,2.4-1.2,2.8-1.1.7-3-.1-3.8.2l1-13.5c-5.6-.9-2.4,10.8-2,14.5-1.7.3-3.3.6-5,1-.2-.6.2-1.6,0-2,1.6-.8,1-3.4,1-5,0-2.7,0-5.3,0-8s0-6.3-.8-9.4c.4-2.2,2.7-2,3.8-2.6Z"/>
      <path class="st14" d="M460.6,181.6c3-.5,2.1,1.4,1.9,3.3s-.7,5.7-1.1,6.9c-1.5,4.3-4.2,1.8-7,2-6,.6-13.7,0-18.4.6s-4.9,1.6-8.4,2.1c.7-1.2,1.9-1.4,3-2,1.6-.9,2.1-1.7,2.2-1.7.8-.4,2,2.4,1.8-1.3,10.1,0,26,5.4,26-10Z"/>
      <path class="st5" d="M432.6,206.6c.4.9,1.9,2.3,2,3,.5,3.6-.4,8.2,0,12-2.3.2-4.6-.2-6,2-.3,0-.7,0-1,0l-2.5-3c-.9.2-.8,3.1-3.2,3.8-7.7,2.3-5.1-7.9-5.3-12.8,1-.4,1.7-1,2-2,.9-.6,1.9-.8,3-1s2,0,3,0c-.2,1.2.2,2.7,0,4l-4-2c-.8,3.9-1.6,7.1,0,11,5.6.3,4.8-5.7,7-8s5.8-2.3,4-4-3.9.8-5,1c.2-1.6,1-2.7,2-4,.2.2,3.1,0,4,0Z"/>
      <path class="st5" d="M437.6,235.6c1.7,5-4.3,7-5,8.5-1.8,4.4,3.6,1.1,4,1.5s-.3,2.7,0,3c-.4-.5-3.1.9-4,1-.1-.1-2.8-1-3-1,.3-3.2-.4-6.9,0-10,.7-5.2,5-8.8,8-3Z"/>
      <path class="st5" d="M459.6,212.6c.6,3.6-.4,8.3,0,12-5.2-1.2-2.4-4.1-2.4-7.7s-2.1-7.1-2.6-2.8-.2,7,0,9.5c-.7-.1-2.8.2-3,0s0-4.2,0-5c.2-2,2.7-5.3,0-8-1.5-5.6,7.3-2.5,8,2Z"/>
      <path class="st5" d="M450.6,210.6c.3,1.6.2,6.3,0,8-1.5,9.8-8.8,3.9-8-6,.2-2.4.7-4,2-6,3.1.3,5.3,0,6,4ZM445.6,219.5c5.2-.4,2.7-7.8,2-11-3.6,2-1.5,7.6-2,11Z"/>
      <path class="st4" d="M453.6,166.6c-.1.6.2,1.5,0,2s-1.1,1.5-1.1,2.4,2.6-.1,2.1,1.6c-2.2-.7-4,5-3.8,6.4s9.6,7.8,4.3,7.6-2.6-6.1-6.5-4l1-3c-2.2,1.1-4.5-1.4-3-3s4.1,1.7,3-3l-5,1v-1c.3,0,4.7-2,4.9-2.2.4-.6,0-2,.1-2.8s0-2,0-3c1.7.1,3,.9,4,1Z"/>
      <path class="st14" d="M428.6,206.6c-1,1.3-1.8,2.4-2,4s-.2,2.6,1,3c-2.2,2.3-1.4,8.3-7,8-1.6-3.9-.8-7.1,0-11l4,2c.2-1.3-.2-2.8,0-4,.6-2.9,1.3-2,3.5-4,1,0,.3,1.8.5,2Z"/>
      <path class="st12" d="M454.6,223.6c-.2-2.5-.3-7.1,0-9.5.5-4.3,2.7-.3,2.6,2.8s-2.8,6.5,2.4,7.7c-.4-3.7.6-8.4,0-12h1c3.8,3.8-3.3,12.5,3,13,0,.2,2.7,3.9-.5,3s-7.5-2.6-8-2.9c-1-.6-.5-1.3-.6-2.1Z"/>
      <path class="st5" d="M441.6,206.6v2c-.8,1.1-2.8,3.2-3,4s-.2,5.3,0,6.3,2,.6,2.1,1.3-1,1.2-1.1,1.4c-1,0-2,0-3,0,.4-4.5,0-7.8-1-12s.1-2.1,0-3c2,0,4,0,6,0Z"/>
      <path class="st12" d="M438.6,235.6c-.4,1.5.5,12.4,1.1,12.9s3-.1,3.9,0c.3,5.8-1.6,2.1-4.1.6s-2.8-.4-2.9-.6c1.1,1.1-2,4.3-3.9,2.8s0-1.7-.1-1.8c.9-.1,3.6-1.5,4-1-.3-.3.3-2.7,0-3s-5.8,2.9-4-1.5,6.7-3.6,5-8.5h1Z"/>
      <path class="st5" d="M460.6,212.6c-.3-2.5.8-2.1,3-2,.2,5-.3,10,0,15-6.3-.5.8-9.2-3-13Z"/>
      <path class="st12" d="M434.6,221.6c.7,0,1.3,0,2,0,1,0,2,0,3,0-.2.9.6,2.7-.6,3.1-2.7-.2-5.4.1-8,0s-2.3-1-2.4-1c1.4-2.2,3.7-1.8,6-2Z"/>
      <path class="st14" d="M453.6,166.6c.2,0,1.3-1.4,4.1-.6s1.8,2.5,1.9,2.6c.5.3,2.7-.3,3,0s-1,10.9-2,12c0-3-2-8.2-1-12h-6c.2-.5-.1-1.4,0-2Z"/>
      <path class="st12" d="M429.6,238.6c-.4,3.1.3,6.8,0,10-.3,0-.9,0-1,0-2.2-2.7-.5-7.5-1-11,.3.4,1.5.6,2,1Z"/>
      <path class="st12" d="M451.6,218.6h-1c.2-1.7.3-6.4,0-8h1c2.7,2.7.2,6,0,8Z"/>
      <path class="st11" d="M444.6,206.6c-1.3,2-1.8,3.6-2,6h-4c.2-.8,2.2-2.9,3-4s.7-.1,1-.5l-1-.5v-1c1,0,2,0,3,0Z"/>
      <path class="st12" d="M449.6,234.6c.1,0-.2-1.8.5-2,3.6-1.2,2.4,2.3,2.5,5-.2,0-1,1.4-2,1l-1-4Z"/>
      <rect class="st14" x="412.6" y="164.6" width="6" height="2"/>
      <path class="st12" d="M461.6,243.6c-.8,2.6-2,1.8-2,4-.5-.2-1.8.2-2,0-1.7-2.4,1.8-4,4-4Z"/>
      <path class="st11" d="M425.6,234.6l-4,2c0-1.3,0-2.7,0-4,1.9,0,2.7.8,4,2Z"/>
      <rect class="st14" x="399.6" y="158.6" width="3" height="2"/>
      <path class="st14" d="M435.6,206.6c.1.9-.2,2.2,0,3h-1c-.1-.7-1.6-2.1-2-3,1,0,2,0,3,0Z"/>
      <path class="st14" d="M421.6,208.6c-1.1.2-2.1.4-3,1,.2-.7-.2-2.1,0-3,1.7-.4,2.3.6,3,2Z"/>
      <path class="st12" d="M451.6,223.6c.5.5-.9,1.6-1,.5s.8-.7,1-.5Z"/>
      <path class="st7" d="M354.5,366.7c.1,1.7,1.2,4.1-1.3,3.8s-7.6-2.1-10.8-3-5.7-2.3-8.3-2.9-4.2.6-5.4-.5c1.3-1.2.3-2.3,2.4-2.6,7.6-1,15.7,4.5,23.4,5.2Z"/>
      <path class="st12" d="M348.6,361.6c-1.3-.3-3.4.2-5.2-.3s-16.2-3.2-16.7-3.8.1-3.7,0-4.9c3.8,4.2,10.5-1.1,9,6l5-3c.3.3,0,2.6,1.6,2.9s2.6-1.1,3.8-1,1.1,1.3,4.6,2.1c.2,2.1.1,2.2-2,2Z"/>
      <path class="st12" d="M344.8,392.3c1.6,1.3,9.6-3.5,7.9,4.2,1.9.3.5-2.3,1-2.9,1.4-1.4,7-.2,5,3.9l3-3,1,5.5c-3.2-.5-17.5-3.5-18.8-5.7s0-2.7-.2-3.8c1.7-.4.6,1.4,1.1,1.8Z"/>
      <path class="st11" d="M354.6,346.6c.2,2.2,3.3,2.5,2,7s-1.7,1.8-2,2c-.7-1.9-2-2.8-2-3,0-.3,1.4-1.7,1-2h-5s3-1,3-1l-3-2c1.1,0,3.8-2,6-1Z"/>
      <path class="st11" d="M337.6,351.6c1.9-.3,3.2,3,3.6,3,1.1,0,2.5-.9,3.7-.8,2.9.3,4.1,4.9,9.6,1.7.1.4-.3,1.4.1,1.9s4.8,1.6,4.9.1c.1.2,3.3-.4,2,4-.8-.3-2.8-1.1-3.4-1.1-1.1,0,0,2.6-1.6,2.1,0-3.6-3.9-2.5-6-3-3.5-.8-4.3-2-4.6-2.1-1.2-.1-2.8,1.1-3.8,1-1.6-.3-1.3-2.6-1.6-2.9-2.6-2.8-5.3-.9-3-4Z"/>
      <path class="st12" d="M344.6,422.5c-1.8.4-.4-2.1-1.5-2s0,2.1-1,2.1-6.4-2-6.8-2.3c-2.4-1.2-.5-3.9-4.7-1.8v-5c4.8,2.1,15.2,2,14,9Z"/>
      <path class="st12" d="M359.6,419.5l-15-4c3.2.5,1.4-2.3,2.5-4,4.4,2.4,13.8.9,12.5,8Z"/>
      <path class="st7" d="M341.6,335.6c0,1.4-.3,2.8-1,4-2.7-1.6-11.8-2.8-13.4-3.9s-.8-2.8-.6-3.1c1.8-1.9,12.5,2.4,15,3Z"/>
      <path class="st7" d="M339.6,340.6c1.1.4,2.1,3.8,1,5-4.4-1-15.6-1-13.5-7,3.2,1.7,10,1.2,12.5,2Z"/>
      <path class="st7" d="M344.6,350.6l1,1c2,.6,4.8.9,7,1,0,.2,1.3,1.1,2,3-5.5,3.1-6.7-1.5-9.6-1.7s-2.6.9-3.7.8-1.7-3.3-3.6-3c2.6-3.4,3.7-1.9,7-1Z"/>
      <path class="st7" d="M356.6,353.6c4,.3,2.5,3.2,3,4,0,1.5-4.6.1-4.9-.1-.5-.4,0-1.5-.1-1.9.3-.2,2-1.8,2-2Z"/>
      <path class="st7" d="M339.4,314.8c.4.4.4,2.8,1.2,3.8l-15-2v-4c.6-.6,13.3,1.7,13.8,2.2Z"/>
      <path class="st7" d="M350.6,359.6c2.1.5,6.1-.6,6,3,1.7.5.5-2,1.6-2.1s2.6.8,3.4,1.1c3,1.1,3.3,4,.5,4s-6.6-1.1-9.3-1.7-3.8-2.2-4.2-2.3c2.1.2,2.2.1,2-2Z"/>
      <path class="st11" d="M343.6,336.6c-.2,2.5-.5,2.7,2,3.5s7.9,2.2,10,2.5c0,.8-.9,1.6-1,2-3.6-.2-7.4-2.2-10.6-2.9s-1,2.6-1.4,3.9c-.6-.1-1.4.1-2,0,1.1-1.2.1-4.6-1-5,.3-.3.8-.6,1-1,.7-1.2,1-2.6,1-4,.6.1,1.3.8,2,1Z"/>
      <path class="st12" d="M352.6,426.6c-.2-.4.3-1.7,0-1.9-1.5-1.2-8.1.9-6.9-6.1,2.8-1.2,2.9,1.8,3.7,2,5.4,1,5.7-1.5,7.3,6-1.3,0-2.7.1-4,0Z"/>
      <path class="st7" d="M354.6,344.6c-.1.5,0,1.4,0,2-2.2-1-4.9.9-6,1-4.9.4-5.3-1.8-6-2,.3-1.3-1.2-4.5,1.4-3.9s7,2.6,10.6,2.9Z"/>
      <path class="st7" d="M339.6,328.6c-.3,0-1.7,1.3-3,0v3c-1.5-.2-9.6-1.7-10-2.1s.1-2.9,0-3.9l13,3ZM335.1,328.6v1c.6-.3.6-.7,0-1Z"/>
      <path class="st7" d="M335.4,369.8c.1.1,1.3,3.6,1.2,3.8-1.3,1.6-13-1.5-10-6,1.5.7,8.4,1.8,8.8,2.2Z"/>
      <path class="st7" d="M334.6,349.6c2.3,2.8-5.6,2.4-7.4,1.1s-.4-2.8-.6-4.1c.4-.4,7.7,2.7,8,3Z"/>
      <path class="st12" d="M335.6,395.6c1,0,2,.1,3,0l1,5c-2.4-.3-4.5-1.4-7-2-.4-4,0-2.7,3-3Z"/>
      <path class="st12" d="M330.6,424.6l-5,1c-.4-1.9,2-.3,2-1.5s-2.1-.3-3-.5c-.9-3.2,3.3-2.1,5.1-1.5,2.6.8,1.4,1.4,1.9,2.5h-1Z"/>
      <path class="st12" d="M341.6,394.6c-.6-1.3-2.3-1.4-3-2-1.2-6.2,6.8-2.2,3,2Z"/>
      <path class="st12" d="M336.6,411.6c0-.6,0-1.3,0-2,2.3-1.7,5.4.6,4,4-3.2.6-.8-2-4-2,0,.6,0,1.3,0,2-2.1.3-2.3,0-2-2,.7,0,1.3,0,2,0Z"/>
      <path class="st12" d="M351.6,380.6c.2,1.9-2,.7-3,.5-1.8-.3-6.3-.6-7-2.5l10,2Z"/>
      <path class="st12" d="M336.6,376.6c0,1.8-7,.3-7-1l7,1Z"/>
      <path class="st11" d="M331.6,424.6c.3.8,2.2,2.1-1,0h1Z"/>
      <path class="st7" d="M345.6,388.6l2-2c-.3.9-1,1.9-2,2Z"/>
      <path class="st12" d="M339.1,377.6c.6.3.6.7,0,1v-1Z"/>
      <path class="st7" d="M347.6,385.6v-1c.2.1.8-.2,1,.5l-1,.5Z"/>
      <path class="st11" d="M345.6,351.6l-1-1c.4.1.8.9,1,1Z"/>
      <path class="st6" d="M404.6,290.6c.5-.5,11.2-5.3,9-1-.2.1-1.9,2.1-3,3s-1.6.2-2.5.9c-5.2,4.1-4,9.6-1.1,14.7s3.6,4,3.8,4.1c2,.8,5.2-.9,4.7,1.8-2.4,4.2-7.7.3-10.1,2s-3.9,6.2-2.9,7.5c-.3.3-.4.7-1,1s-2.3-.5-2.8.1-3.3,14-6.3,15.7-3.7-.3-5.6.5-7.8,9.6-8.2,12.3c-.8,5.1,1.7,10.7-3.6,14.4-2,.8-2.2-5.2-2.2-5.7.3-4.6,4-10.6-2.3-14.3-.1-4.3,0-8.7,0-13,1.1-3.5,7.4-.6,4.7-4.8s-2.9-.1-1.6-2.2,1.2,0,1.5-.4c.6-.9.6-2,1.5-3.1s1.7-.5,1.9-.7c.3-.4-1.4-1.9-1.5-2.9-.3-2.3.3-4.7-.4-7l7,1c-1.3-8.2,2-5.1,3-6,2-1.6-2-2.2-2.1-2.5-.3-6.2,9.6-2.9,9.1-9.5.6-.1,1.4.1,2,0,.9-.2,2,.3,3-.5s1.3-3.3,2-4.5c.3,0,.7,0,1,0s1.4,1.1,2.4,1.1.4-1.9.6-2.1Z"/>
      <path class="st13" d="M393.6,296.6c.5,6.6-9.3,3.3-9.1,9.5s4,.9,2.1,2.5-4.3-2.2-3,6l-7-1c.8,2.3.1,4.8.4,7s1.8,2.5,1.5,2.9-1.4.1-1.9.7c-.9,1.1-.9,2.1-1.5,3.1s-1.4.3-1.5.4c-1.3,2,1.5,2,1.6,2.2,2.7,4.2-3.5,1.3-4.7,4.8-.1-7,0-14,0-21,2-1.7,1.9-1.8,3-4l4.5-2,8.5-8c2.2-.9,5.1-2.5,7-3Z"/>
      <path class="st12" d="M440.6,265.6c.3.2-.5,2.1.5,2,2.9-5.2,4.3-.9,3.5,3.5s-4.9,1.7-7.5,2-7.3,2.5-8.5,1.5c.2-9.9,2.4-6.7,8.5-7.5s2.5-2.3,3.5-1.5Z"/>
      <path class="st12" d="M457.3,266.9c.2,0,.2,1.3,1.1,1.6s3-.2,3.2,0c.7.6-1.4,6.5-1,8-2-2.4-13-2.9-13.9-4.1s.4-6.4,1-6.8,8.4.9,9.6,1.3Z"/>
      <path class="st11" d="M426.6,267.6c1,6.7-1.1,9.8-8,10-.2-4.3-.7-12.2,3.5-6l4.5-4Z"/>
      <path class="st11" d="M383.6,289.6c2.4,4.3,2.3,1.3,4,0,.5.8,1.1,2.1,1,3-2.1-.2-2.2-.1-2,2-2.2,1.1-4.5,1.4-6.9.9-2.9-7.8,2.3-4.9,3.9-5.9Z"/>
      <path class="st2" d="M386.6,299.6l-8.5,8-4.5,2c.4-.8-.4-2.1,1.5-4,3-3.2,7.9-4.5,11.5-6Z"/>
      <path class="st11" d="M404.6,276.6c1.2-.4,3.1-3.1,6-2,.7,6.4-.2,5.5-4,8l-2-6Z"/>
      <path class="st12" d="M404.6,276.6l2,6c-10.2,6.7-4.1,1.2-3.9-2.5s-4.1-1.8-2.1-3.5,3.1.3,4,0Z"/>
      <path class="st11" d="M388.6,284.6c.6-1.6,3.4-2.2,5-2,.2.9-.2,2.2,0,3s1,1.9,1,3c-.6.3-1.4,3-4,2-.1-1.3.1-2.7,0-4-.2-1.9.7-2.3-2-2Z"/>
      <path class="st12" d="M393.6,285.6c1.6.7,2.8-1.5,3-2.5s-2.8-.1-2-2c2-5,5,1.9,4,5.8s-3,1.2-4.1,1.7c0-1.1-.7-2-1-3Z"/>
      <path class="st12" d="M388.6,284.6c2.7-.3,1.8.1,2,2-.5,3-2.5,2.6-3,3-1.7,1.3-1.6,4.3-4,0,.1,0,.2-2.6,1.5-2.9s3,1.3,3.4.9-.3-2.3,0-3Z"/>
      <path class="st13" d="M395.6,296.6c-.1-2.2,3.1-4.7,5-5-.7,1.3-.9,3.7-2,4.5s-2.1.3-3,.5Z"/>
      <path class="st13" d="M404.6,290.6c-.2.2.5,2-.6,2.1s-2-1.1-2.4-1.1c.2-.4.9-.7,1-1h2Z"/>
      <path class="st12" d="M388.6,292.6c-.2,1.1-1.1,1.6-2,2-.2-2.1-.1-2.2,2-2Z"/>
      <path class="st14" d="M411.6,266.6l-2,1c.4-.2.9-.7,2-1Z"/>
      <path class="st6" d="M396.6,140.6c1.4.2,7.7,3.4,8,3-.8-3.6,2.1-3.6,5-4.5,9.4-2.8,18.7.4,27.6.5,4.7,0,17.2-4.4,17.5,2.4s-.9,1.7-3.3,2.5-.7,1.8-1.4,1.9c-3.3.4-10.1-1.6-12.7-1s-1.1,3.8-3.7,3c-.2-7-2.3-1.1-2.6-1-5.1,1.3-15.9.5-21.9,1s-9.2,1.8-12.5,2c-8.4.5-17.5.7-26,1s-.7,0-1,0c1-10.6,1.4-5.7,8.2-6.2,6.8-.5,11-5.8,18.8-4.8Z"/>
      <rect class="st6" x="457.6" y="138.6" width="5" height="2"/>
      <path class="st2" d="M387.6,426.6c0,3.8,2.7,7.1,5,10v2c-.2,0-1.3,2.5-3,2,0-.3-1.3-1-1-2h-1.5s-3.5,5-3.5,5c-.6.2-1.4.7-2,1,.3-2.7,0-1.8-2-2,0-.6,0-1.3,0-2,4.4-4.3,1.6-5.2,2-9.4s1.8-5.4,2.1-5.5c1.4-.9,3.4.9,3.9.9Z"/>
      <path class="st7" d="M391.6,446.6c1.5.8,3.7,1.4,5.3,1s1.1-3.8,3.7-3l1,4c-.3,0-.7,0-1,0-.5.1-.8.6-1,1-2.8,1.7-6,2.8-9,4-2.6-2.7.7-4.5,1-6s0-.7,0-1Z"/>
      <path class="st3" d="M379.6,442.6c1.9.2,2.3-.7,2,2-2.3,1.3-4.2,5.9-4.7,6.1-2.2.5-5.9-.4-8.4,0,0-.7,0-1.3,0-2,2.4,0,2.3-.4,4-1s.7.1,1,0c.4-.2.7-.7,1-1,2.9-.7,4.5,0,5-4Z"/>
      <path class="st7" d="M383.6,455.6l.5-5,4.5,3c-1.6.6-3.3,1.4-5,2Z"/>
      <path class="st0" d="M383.6,443.6l3.5-5h1.5c-.3,1,.9,1.7,1,2,.1.5,0,1.4,0,2-1,0-5.3.8-6,1Z"/>
      <path class="st12" d="M389.6,442.6c.7,0,1.3,0,2,0,0,1.3.2,2.7,0,4s0,.7,0,1l-5,.5c1-1.4-.5-3.7,1.5-4.5s-.3,2.5,1.5,2c0-1,0-2,0-3Z"/>
      <path class="st7" d="M375.6,457.6c1.3-1.6,2.1-6.3,4,0-2.2,1-4.6,3.7-4,0Z"/>
      <path class="st3" d="M343.6,140.6c-2.3,0-3.5-.7-3,2-1.1,0-2.7,1.1-3.4,1.1-1.1-.1.2-2.5-1.6-2.1l-1,2-3-4c3.8,1.3,3.8-1.7,5.2-2.3,2.3-1,8-1.1,6.8,3.3Z"/>
      <path class="st4" d="M348.6,148.6c.1-.2-1.5-2.9-1-4,2.7,2.7,8.1-2.8,7,3-1.9.7-4,1-6,1Z"/>
      <path class="st3" d="M355.6,143.5c-.8.7-7,.1-6-3,2.7-2.1,8.5.6,6,3Z"/>
      <path class="st4" d="M328.6,139.6c-.2,2.1-.1,2.2,2,2-.4,1-6.8,1.3-7,1-1.9-3.7,2.3-3.1,5-3Z"/>
      <path class="st4" d="M343.6,140.6c2,0,4.4-.3,5,2-1,0-2,0-3,0l-.5-1-.5,1c-.3,0-.7,0-1,0-.7,0-1.3,0-2,0s-.7,0-1,0c-.5-2.7.7-2,3-2Z"/>
      <path class="st3" d="M343.6,142.6c.7,4.4-2.7,4.5-2,0,.7,0,1.3,0,2,0Z"/>
      <path class="st3" d="M328.6,139.6c1.4,0,3-.1,2,2-2.1.2-2.2.1-2-2Z"/>
      <path class="st3" d="M345.6,142.6c-.3,0-.7,0-1,0l.5-1,.5,1Z"/>
      <path class="st3" d="M346.1,144.6c.6.3.6.7,0,1v-1Z"/>
      <path class="st12" d="M444.6,248.6c.1-.7,1.3-1.7,1-2-7.8-.9-3-5.2,1.5-7,0,5,6,3,4,6l-3.5-1v4s6,0,6,0c-3.2,6.3-3.5.2-8.9,1.8-.2-.6-.2-1.3-.1-1.8ZM446.1,244.6v1c.6-.3.6-.7,0-1Z"/>
      <path class="st11" d="M422.6,252.6c-.4-3.7-3.6-15.3,2-14.5l-1,13.5c-.3.1-.7.9-1,1Z"/>
      <polygon class="st11" points="426.6 256.6 426.6 261.5 423.6 261.6 423.6 256.5 426.6 256.6"/>
      <path class="st12" d="M461.6,250.6c.9,2.6-2.1,2.6-4.4,1.9s-1.5-2.3-1.6-3.9c1.8,2.3,4.2,1.5,6,2Z"/>
      <path class="st11" d="M431.6,255.6c1,.9-3.6,11.2-3,0,.8.1,2.7-.2,3,0Z"/>
      <path class="st11" d="M418.6,246.6c0,1.6.6,4.2-1,5-.2-.3-.9-.7-1-1-.2-.8.1-2.1,0-3,.6-.5,1.1-1.1,2-1Z"/>
      <path class="st11" d="M422.6,258.6c.1.2-1.2,3.4-1.5,4-.6-.5-2.5-3.2-2.5-3.5.1-1.6,3.4-1.1,4-.5Z"/>
      <path class="st7" d="M416.6,261.6c-.1-1.1-.7-2-1-3,2.7-.9,2.9,2.4,1,4,0-.2,0-.7,0-1Z"/>
      <path class="st11" d="M416.6,261.6c0,.3,0,.8,0,1-.1.3.2.8-.5,1-2.2.8-2.5-2.8.5-2Z"/>
      <path class="st13" d="M334.6,452.6c13.2,3.1,25.7,9.2,39,12,0,1.7-.8,3.4-1,5s.3,2.9,0,4c-1,4.1-2.3,5.7-6.5,6.1-8.7.7-5.7-1.5-5.5-6.1s-1.4-5.7-3-2c-.8-1-1.4,0-1.8-.4-1.9-1.6-.4-3-5.2-2.6-.7-3.2-1.4-2.3-3-3s-1.9-.7-3-1-1.4.1-2,0c.6-3.2-1.6-1.6-4-2s-.7,0-1,0c.6-2.5-4.7-4.7-5.8-3.8s-1.4,5.2-2.2-.2c-1.9-.5,0,2.2-2,2-2.9-11.6-3-10.4,7-8Z"/>
      <path class="st13" d="M418.6,454.6c-.2,0-1.2,2.6-2,2l-1-4c-.7-.6-1.8,1.9-2,2s-2.5.5-4,1-3.6,0-6.2,1.3-3.8,1.9-4.8,3.7c-.7,0-1.4,0-2,0s-.7,0-1,0c0-.7,0-1.3,0-2,0-3.2.6-3.3-3-3,6.1-2.9,18.1-7.8,23-11l3,10Z"/>
      <path class="st4" d="M337.6,462.6c.3,0,.7,0,1,0,.9,1.6,2.4,1.7,4,2s1.4-.1,2,0c-.6,2.7,1.1,2.1,3,1,1.6.7,2.3-.2,3,3-.3,0-1.2,1.1-3.3,1s-15.3-3.9-16.2-6c0-3.7,4.4-1.2,6.5-1Z"/>
      <path class="st0" d="M388.6,465.6c-.2.7-4.7,2.8-.5,5s2.1-5.4,5.5-2v1c-2.1.9-11.8,6-13,5,0-2.8,4.4-4,5-5.5s-3.4-.6-3-3,4.8-.4,6-.5Z"/>
      <path class="st3" d="M392.6,455.6c3.6-.3,3-.2,3,3l-5.5,3-.5-3c-2-.3-.6,2.4-1,3s-3.1-1.8-4-2c2.5-1.3,5.4-2.7,8-4Z"/>
      <path class="st0" d="M372.6,469.6l7-.5v4.5c-2.5,1.1-1.9-2.1-2.5-2-.9.1-3.2,1.8-4.5,2,.3-1.1-.2-2.8,0-4Z"/>
      <path class="st4" d="M396.6,460.6c-.2,4.9-3.9,4.8-8,5,.2-.7-.3-2.8,0-3s3.1.2,4.3-.2,2.5-1.8,2.7-1.8c.3,0,.7,0,1,0Z"/>
      <path class="st4" d="M360.6,473.6c-4.3.8-2.6-1.5-3-2,1.6-3.7,3.1-1.3,3,2Z"/>
      <path class="st1" d="M377.6,462.6c2.6-.4,2.1.5,2,3-1.2.4-2.3-.9-3-1-.3.9.6,2.8-.5,3-2.2.4-1.4-1-1.5-3,.6.1,1.4-.1,2,0,.3-1,.3-1.1,1-2Z"/>
      <path class="st9" d="M459.6,308.6c.2.3.9,1.8,1,2,.7,2.2.8,6.5,1,9-.5.6-2.7,5-2.9,5.8-.4,2.3.7,2.5.9,3.2.6,2.8,2.7,9.1,4,11.3s3.5-.9,3.9,5.3c.2,2.6.6,3.7-2.6,4.2s-1.2-3.1-4.3-1.9c-.9,4.3,5.3,4.9,5.9,6.6,1.4,3.9-.7,13.7.1,18.4-.2,0-.2,1.2-1,1,0-1.1-1.2-5.7-3-4s0,5-2,5c1.1-2.3-2.2-11.8-2-12.5.4-1.6,3.5-.6,3-3s-4.4-2.7-6-1.5c-.2-4.8,0-9.3,1-14s1.8-3.8,2-6c-1.5.4-2.9-.9-4-1,4.4-3.5,2.6-6.7-2.5-7s.4,5.4-.5,7c-3.9,1.4-5.7,7-8.1,9.4s-6,5-6.9,5.6c-.6-1.3,1.3-5.7,1-6s-1.7.3-2.6-.3-.6-1.4-1.1-1.7c-3.8-2.1-7.9-2.9-12.3-3,0-.3,0-.7,0-1,.8-5.9,1.2-2.9,4.5-3.2s3.1-.7,4.9-.8,1.3.9,1.6,1c-.1,1.9,4,6.3,5.5,6,2.6-2.2,2.8-5.1,3.5-8s2.2-4.4.7-6.8-2.5.1-1.7-1.7,5.2-3.1,6.4-5.6,1.7-6.4,1.6-7.5c-.5-5.3-4.8-.2-6.8.3s-4.1-.2-5.6.4-1.4,2.4-1.8,2.7-2.9-1.6-3.8.7c-1.5,3.7,2.5,2.1,4.3,2.5s3.8,6.2,1.2,5.9-1.1-2.4-1.7-2.7-9.4-2.5-9.8-2.2l1,2c-3.6,3.1-8.6-1.3-9-1s0,2.3-1.6,2.9c-3.2,1.1-7.3-1.5-9.4-.4s-4.7,6.1-4.8,7.3c-.4,2.7,2.3,5.6,1.9,8.6s-2.9,3.1-3.1,3.2c-1.2.7-2.4-.4-3.3-.2s-4.5,2.5-4.6,2.7c-.7,1,2.3,3.3,2,5.4s-3.1,4.1-4.4,5.6-1.9,6.5-2.7,1.4,3.2-4.5,2-9.5c-7.2,2-5.7,10.3-6,16-.6,0-1.3,0-2,0,1.6-3.3-1.5-9.5,1-14.2s5.6-7.2,6-7.4c2-1,1.3.9,4.8-1.3s2.2-.5,3.2-1.5c4.6-4.6,2-10.6,5.9-15.6.6-.3.7-.7,1-1,1-1,1.4-2.5,3-4,2,.8,5.3,2.5,7.3,2.1s.9-2.4,2.3-2.9c2.5-.8,13.8-.7,14.4-1.2-2-2.8,0-3.6,3-5s12.7-4.7,13.7-4.9c3.3-.6,3.8,2.3,6.3.9s3.6-5.9,7,0Z"/>
      <path class="st9" d="M450.6,361.6c-.3,4.7-1.1,7.6,2.2,11.4s3.7.8,5.8,1.6,5.6,3.6,6.1,3.8,1.6-.9,1.9-.8c1.1.1,1.1,1.2,1,2s-.7-.2-.8.7c-.6,5.4-2.1,5.3-2.2,5.8-.9,3.2,1.9,2.3,2,2.5s0,1.5,0,2c-.5,4.4.8,7,0,12-.2,1.1,0,2.2-1,3,0-.2-.7-.7-1-1-.9-1-2-1.8-3.2-2.2-5.4-1.9-4.6-.7-7.8,2.2s-1.3-.6-2,.7-.6,4.7-1,5.3-1.4-.1-1.7.3c-1,1.7-1.3,3.9-3.3,4.7.2-4.6,3.5-12.3-4-11,.1-.6-.1-1.4,0-2l5,1c.2-1.2-.3-3.1,0-4s1.6-.5,1.9-1.7c.5-2-1.2-5.7.1-8.3h-4c.3,3.6,3,6,2,10-.4.4-3.6-1.6-4-2s.4-1.9-.6-2.1c-1.6-.3-3.5,1.3-6.4,1.1.4-2.1,1.6-2.7,3-4,2.9-2.7,1.6-2.3,3-4s3.9-2.6,4-3c2.3-.7,4.1,1.4,6,1.5,6.6.4.6-3.3-.4-4.6s-6-7.9-6.6-8.4-2.4-.3-2.8-.7c-.6-.6,0-2.8-.2-3.8s.1-1.9,0-2c6.6-.7,3.8-1.7,5.3-4.7s3-1.3,3.7-1.3ZM461.6,391.5c.3-.2,1.8-7-.5-7s-3.1,5.4-2.5,7c.8-.1,2.6.2,3,0Z"/>
      <path class="st3" d="M421.6,339.6c0,.3,0,.7,0,1,0,.6,0,1.4,0,2s.5.9,1,1c0,.3,0,.7,0,1,1.4,7.8,5.1,14.8,8,22-.6,0-3.9,1.8-4,2-3-1.7-.5-6-1.1-6.8s-1.8-.5-2.4-1.1c-2.3-2.5-1.2-3.9-6.5-3l4,14c-.2,1.1-1.5,1.5-2,2,.2-2.6.3-3.8-1-6s-2.9-1.8-3-2c-.2-.5.4-2.3,0-3.2-1.7-3-5.5-4.6-5.9.2-.1-.3-4.2-2.9-5-3-.6-3.9.5-3.1,4-3,.3-1.8-.8-3.4-1-5s0-2,0-3,0-1.3,0-2c2.8-2.1,4.5-3.5,8-2l-1-4c2.5,0,2.1-.4,2-3,2,1.3,3.4,2.5,6,2Z"/>
      <path class="st10" d="M421.6,340.6c4.3,0,8.5.9,12.3,3s.6,1.3,1.1,1.7c.9.6,2.5.2,2.6.3.3.3-1.6,4.6-1,6-2.3,1.5-5.6.7-7.9-.6-3.5-1.9-2.6-6.2-6.1-6.4,0-.3,0-.7,0-1-.1-.5-.5-.8-1-1,0-.6,0-1.4,0-2Z"/>
      <path class="st3" d="M443.6,362.6c-1,1.8-2.6,3.1-4,4.5,0,1,1.7.2,2,.5s0,1.4,0,2l-2,6c-2.9,1.1-1.9-3.5-4.5-3s-3.8,4.6-6.5,4c0-4.2.1-3,2.6-5.4s.3-1.5.4-1.6c.2-.2,2.2.1,3.5-1,2.2-1.8,4.2-5.8,4.5-6,.5-.3,3,.2,4,0Z"/>
      <path class="st2" d="M430.6,366.6c.4,1,1,1.9,1,3,0,0,.1,1.1-.4,1.6-2.5,2.4-2.6,1.2-2.6,5.4s0,2,0,3c-1.2.3-2.5,1.3-4,1,.5-1.2,2.6-5.3,2-6-2.6,1.1-5.6,1.7-8,3-.8,0-1.7,0-2-1,.6-.5,1.3-2.2,2-3s1.8-.9,2-2c7.1,4.7,4.1.6,6-3s3.4-2,4-2Z"/>
      <path class="st2" d="M418.6,377.6c1.3,0,2.7,0,4,0,.6,2.9-2.9,6.7,1,6-1.9,3.4-4.1,3.1-5,4l-4-7.5c1.9.1,3.2-2.1,4-2.5Z"/>
      <path class="st3" d="M450.6,361.6c.1,0,1.4-1.5,1.9-1s6.3,11.9,6.1,14c-2.1-.8-4,.6-5.8-1.6-3.3-3.9-2.4-6.8-2.2-11.4Z"/>
      <path class="st3" d="M445.6,353.6c.1-1.3,0-2.7,0-4l8,.5-2,8.5-1-2c-2.3.7-3.1,5.2-5,1,.2-1.2-.1-2.7,0-4Z"/>
      <path class="st9" d="M445.6,353.6c-.1,1.3.2,2.8,0,4s-1.4,3.9-2,5c-1,.2-3.5-.3-4,0-4.5-6.1-.5-9.1,6-9Z"/>
      <path class="st10" d="M451.6,336.6c.9-1.6-2.9-7.2.5-7,5,.3,6.9,3.5,2.5,7-.3,0-.7,0-1,0-.6,0-1.6-.1-2,0Z"/>
      <path class="st3" d="M454.6,336.6c1.1.2,2.5,1.4,4,1-.2,2.2-1.5,3.7-2,6-4,0-3-4.1-3-7,.3,0,.7,0,1,0Z"/>
      <path class="st4" d="M417.6,441.6c.1,1.7,0,3.3,0,5,2-1,2.3-2.7,5-3,.1,1.4.2,3.8,1.2,4.8,1.5,1.5,5.1.1,4.7,2.6-.8,4.3-3.6,2.4-6.6,1.8s-1.3,2.5,3.3,2.8,3-.8,4.4-.6l-6,2.5c-.1-.4-4.7-3.1-5-3l-3-10c.2-.1.7-1.5,1-2s.7-.7,1-1Z"/>
      <path class="st5" d="M399.6,449.6c.2-.4.5-.9,1-1-.3.3-.6.8-1,1Z"/>
      <path class="st1" d="M437.6,282.6c-.6-3,1.5-1.9,3.5-2,5.6-.2,13.8-.3,18.9,2.1s8.5,6.1,8.6,6.6c.9,3.2-.6,9.6,0,13.3-.2.4-.7.7-1,1-.7,1-.8,1.7-1,2-1.4,2.1-3.5,7.2-6,5,0-.2-.8-1.7-1-2,1.6-10.6-7.2-7.9-7,0-2.5,1.4-3-1.5-6.3-.9s-12.2,4.2-13.7,4.9c-3.7-3.7-4.5,2.1-6.9,2.6s-6.6-.2-9.1,1-2.5,3.1-3.6,3.3c-2.2.4-2.5-4.5-7.4,0s-2,3-3,4c-1-1.3,2.6-7.3,2.9-7.5,2.3-1.7,7.6,2.2,10.1-2,.4-2.7-2.7-1-4.7-1.8s-3.7-3.9-3.8-4.1c-2.9-5-4.1-10.6,1.1-14.7s2.2-.7,2.5-.9c-2.6,5.7-6.8,8-2,14s15.7,4.7,22.5,2,19.7-13.7,13.5-22.4-1.9-.5-2.1-.6c-1.6-1.2-2.4-2.6-5-3ZM454.5,287.7c-.4-.3-.8-.4-1.3-.2-3,1.9-2.7,4.8-2.5,8l3-3,1,3c2.7-.6,5.8-2.1,5-5.4-.7-2.7-3.6-.5-4.4-.6s-.5-1.7-.7-1.8Z"/>
      <path class="st4" d="M437.6,282.6c2.6.4,3.4,1.8,5,3-2.8-1.1-7.6,1.2-9.4,1s-.5-2.1-1.1-2.1c-2.9-.2-19.2,7.9-21.1,10.4s-2.6,8.6-2.3,11.7c-4.8-6-.6-8.3,2-14,1.1-.9,2.8-2.9,3-3,5.8-3.6,17.3-8,24-7Z"/>
      <path class="st0" d="M462.6,328.6h-3c-.1-.7-1.3-.9-.9-3.2s2.3-5.2,2.9-5.8,2.1-1.3,3-2,.8.2,1,0c-1.2,3.1-2.8,7.7-3,11Z"/>
      <path class="st0" d="M409.6,455.6c-.7.4-.8,1.8-1,2-.6.5-5.4,3.4-6,3.6-1.8.5-3.1-.6-4-.6,1-1.8,3-2.9,4.8-3.7,2.6-1.2,5-.9,6.2-1.3Z"/>
      <path class="st4" d="M401.6,463.6v3c-.3,0-.7,0-1,0-3.3.9-4.4,1.9-7,3v-1c-.5-3.1,5.6-3.8,8-5Z"/>
      <path class="st4" d="M410.6,459.6c-.1.3.3,1.3-.2,1.7-1.5,1.4-5.6,2.9-6.8.3,1.9-.9,4.8-1.8,7-2Z"/>
      <path class="st2" d="M401.6,465.6c3.3.2,2.7.4,0,1v-1Z"/>
      <path class="st4" d="M411.6,458.6c0-.3,0-.7,0-1l1,.5-1,.5Z"/>
      <path class="st11" d="M332.1,223.6c.6.6,2,1.3,1,2-.5-.6-2-1.3-1-2Z"/>
      <path class="st11" d="M431.6,423.6c1.5-.2,3.4.1,5,0,.4,1.5.3,3.4,1,5-.6.7-1.4,1.3-2,2-4.3-1.9-2.4.2-3.2.7s-1.9-.9-2.8-.3c-1.8,1.2-.6,5-1,5.6s-1.2-.4-1.8.3-.1,1.6-.2,1.7-3.9-.2-2,2,4.8-1.6,6-2c-1,4.5-2.4,1.9-2.8,2.2s-1.1,3.6-3.2,3.8c-.4-.3-.8-.9-1-1-2.9-6,2.3-10.6,1-16,.3-.1.7.1,1,0,.7-.3.8-.1,1-1s0-.7,0-1c1.5.2,3.1-1.8,4-2s.7,0,1,0Z"/>
      <path class="st1" d="M424.6,427.6c1.3,5.4-3.9,10-1,16-.2,0-.7,0-1,0-2.7.3-3,2-5,3-.1-1.7.1-3.3,0-5-.2-3.1-.5-6.1,1-9s3.5-3.6,6-5Z"/>
      <path class="st14" d="M435.6,444.6c-2.3.5-6.9,2.6-7.5,2.6-2.1,0-2.7-2.1-3.5-2.6,2-.2,2.6-3.5,3.2-3.8s1.9,2.3,2.8-2.2c1.7-.5,3.6-.7,5-2,.2,3,0,4.8,0,8Z"/>
      <path class="st4" d="M441.6,439.6c0,2.2-.9,4.7-2.1,6.4s-2.8,1.4-2.9,1.6c-1.3-.5-1-1.9-1-3,.6-.1,2.8.2,3,0,.4-.5-.5-4.2,0-4.9s2.4.2,2.9,0Z"/>
      <path class="st4" d="M431.1,453.6c.6.3.6.7,0,1v-1Z"/>
      <path class="st4" d="M436.6,412.6c2.3,1.6,6.2,3.5,9,4-.2,3.3-.8,6.9-1,10.5s.8,8.5,4,3.5c0,.5.5.9,1,1,0,.3,0,.7,0,1,1,4.6,4.6,3.6,5,4,1.2,1.2-2,4-2,5.5s2.4-.3,2,1.5c-1,.4-3.4.6-4,1-4.5-.3-4.6-4.6-6-7s-1.8-2.9-2-3v-10s-2,1-2,1c0-.1,0-.9.4-1.6s1.6-.4,1.7-.9c0-1.4-1.3-3.2-2-4.4-3.1-5.4-4.8-5-10-2s-2.3,2.6-4.2,4.8-3-1-3.8,2.7l2.5-1.5c1.2.8,1.3,1.7,1.5,3s0,.8,0,1l-1,1c-.3.1-.7-.1-1,0-2.5,1.4-4.4,2-6,5-.4-.2-.7-.9-1-1,1.4-3,2.4-6.1,4-9s2.5-1.7,2.8-2.3c.6-1,0-2.6.5-3.5s3.6-3.2,3.8-3.3.7.1,1,0c1.8-.7,5-.8,7-1Z"/>
      <path class="st4" d="M430.6,416.6l1.5,3c-1.2-5.4,7.7-2.2,8.5-1s-.6,4.4-1.2,4.9-2,0-2.8.1c-.2-.8.6-1.7-.6-2-2.2-.5-5.3-.5-4.4,2-.3,0-.7,0-1,0v-7Z"/>
      <path class="st14" d="M460.6,411.6c.6,3.6,2.2,4.5,2,10s.2,2.3,0,3-.8.6-1,1c-.6.9-3,3-4,4-.4-3.9.3-.8.9-2.7s1.6-11.8,1.1-12.3c-1.3.2-4.1-.5-4.9.1s0,1.5-.1,1.9c-2.3,5.3-1.4,8-2,13s-2.6,2.7.5,2,.2-1.4.5-2,1-.7,1-1c.8,1.2,1.3,2.3,3,2,.7,5-5,4.9-8,2,0-.3,0-.7,0-1-.3-2.8.2-6.1,0-9,.4-1.4,2.4-7,3-8s1.9-1.9,2-2c1.9-1.1,3.9-1.2,6-1Z"/>
      <path class="st1" d="M464.6,404.6c.3.3.9.8,1,1s-.8.9-.7,1.5c1.4,5.1,2.5,9.5,1.8,15.1s-1.9,1.2-2.1,1.4l-2-2c.2-5.5-1.4-6.4-2-10s0-1.4,0-2c0-1,1.7-3.3,1-5,1-.1,2,0,3,0Z"/>
      <path class="st11" d="M454.6,416.6c.2-.4-.3-1.5.1-1.9.8-.6,3.6,0,4.9-.1.5.5-.5,10.8-1.1,12.3s-1.4-1.2-.9,2.7,0,.7,0,1c-1.7.3-2.2-.8-3-2,.5-3.7-.3-8.2,0-12Z"/>
      <path class="st4" d="M459.6,436.6c-.3,0-.9,1.2-2,0,.4-2,2.7-3.1,2,0Z"/>
      <path class="st4" d="M462.6,424.6l1,1h-2c.2-.4.9-.7,1-1Z"/>
      <path class="st14" d="M343.1,385.6c.6.3.6.7,0,1v-1Z"/>
      <path class="st2" d="M466.6,305.6c.2-.3.3-1,1-2l-1,2Z"/>
      <path class="st13" d="M401.6,324.6c-3.9,5-1.4,11-5.9,15.6s-2.3,1-3.2,1.5c-3.5,2.2-2.8.4-4.8,1.3s-5.8,6.9-6,7.4c-2.5,4.7.6,11-1,14.2s-1,3-2,6-2.9,3.4-3.1,3.6c-1.1.9-1.8-.6-1.9-.6v-1c.2.2,1-.2,1-.5,0-1.1-1.5,0-1,.5-2.5,1.2-2.9-8.2-2.9-10.4,0-4.8,0-9.7,0-14.6,6.4,3.7,2.6,9.7,2.3,14.3s.2,6.5,2.2,5.7c5.3-3.7,2.8-9.3,3.6-14.4s6.1-11.5,8.2-12.3,4.2.3,5.6-.5c3-1.6,5.7-15.1,6.3-15.7s2.4.1,2.8-.1Z"/>
      <path class="st9" d="M384.6,371.6c.1,0,1,1.9,2,2,0,.3,0,.7,0,1-3,4.8-2.5.5-4.2-.3-6.8-3.2-4.9,6.9-6,9.1s-1.9,1.4-2.8,2.2-1.7.6-2,1c-2.3-3.6,4.3-9.4-1-12,.8-.2,1.8-.8,3-1s.8,1.5,1.9.6,3-3.4,3.1-3.6c1.7,2.3,5.2.8,6,1Z"/>
      <path class="st10" d="M386.6,403.6c0,4-2.2,3-2,3.5,1.9,4.7,5.1,2.9,7,4.5s.6,2.4,1,3c1.9,2.9,5.8,5.6,6,6,.4.8-.3,3.2,0,4.4s4.9-.4,3.1,5.6c-.3,1.2-.9,5.7-1.1,5.9-1.1,1.4-6.2-1.2-4.9,2.1-.3,0-.7,0-1,0-.2-1.1-1.6-1.5-2-2-2.3-2.9-5-6.2-5-10,.2,0,.6-.8,1-1,1.2-.6,2.1-1.5,3-2.5-1.6-.2-2.9-3.2-3.1-3.3-.3-.1-5.7.7-6.8.8s-1.9-.4-2.8.2c-1.4,1-5.5,8-.2,7.8-.9,1.2-1.4,2.4-3,3,0,0-1.7.4-2-.7-.7-2.3-.6-7.2,0-9.8l-3-.5c2.7-5,2.9-2.8,3-10s0-1.3,0-2c3.3.4,5.5-.3,5-4,.3,0,.7,0,1,0,2.4,0,4.6-1.2,7-1Z"/>
      <path class="st3" d="M381.6,423.6c2.7,0,4.6-.8,5.7,2h1.3c-.4.2-.8,1-1,1-.6,0-2.5-1.9-3.9-.9s-2,4.9-2.1,5.5c-.4,4.2,2.4,5.1-2,9.4,0-.1-.8-.9-1-2s1.1-1.2.8-1.8-2.8-1.6-3.5-2.5-.2-2.4-.3-2.6c1.6-.6,2.1-1.8,3-3s2.6-3.6,3-5Z"/>
      <path class="st10" d="M379.6,442.6c-.5,3.9-2.1,3.3-5,4s-.8.6-1,1c-.3.1-.7-.1-1,0-3.3.8-2.4-3.6-1-6,1.7,1.9,5.5.8,8,1Z"/>
      <path class="st9" d="M378.6,438.6c.2,1.1,1,1.9,1,2,0,.7,0,1.4,0,2-2.5-.2-6.3.9-8-1,1.5-2.7,4.1-3.2,7-3Z"/>
      <path class="st9" d="M378.6,404.6c.5,3.7-1.7,4.4-5,4,0-1.2.3-3.2,0-4,1.9-1.9,4.1,0,5,0Z"/>
      <path class="st10" d="M373.6,385.6c.8-.9,2.7-2.1,2.8-2.2,1.1-2.2-.8-12.2,6-9.1s1.2,5.1,4.2.3c0,0,.5-.3,1,1,.9,2.3,2.8,3.3,2,7-2.3-.7-3.5-.3-4.5-3l-3.5,5c2.9.1,7.1,2.1,8-2,.8.2,1.9,1,2,1v2c-3.2-.2-3.3-.5-3,3,4.3-1.5,4.2,2.4,5.5,3,2.2,1.1,1.9-3.5,2.6-4s5.2,1,6.9,1,.7,0,1,0c0,1,0,2,0,3-1.8,1.1-4.3,1.4-6,2s-2.8,1.9-3,2c-2.6.7-6.3-.9-9-1,.7-2.7,2.1-8.4-1.5-7s-.9,7.5-2.7,8.8-7.5,1.5-7.8,1.2c-.9-2.7,1.2-6.3,1-8.4s-3.3-1-2-3.6Z"/>
      <path class="st11" d="M399.6,192.6v-15c6,0,5.7,14.4,0,15Z"/>
      <path class="st13" d="M407.6,181.6c2.7,1,2.9,5.1,1,7-.1-.2-1.4.1-2,0-.1-.1-2.1.7-2.1-1.5s1.9-4.2,2.1-5.5h1Z"/>
      <path class="st14" d="M416.6,247.6c-2.5,1.9-3.1,5.4-6.5,5.1-5.6-.5-5.1-22.4,4.5-19.1,0,.7,0,1.3,0,2,0,1,0,2,0,3h4c0,2.7,0,5.3,0,8-.9,0-1.4.5-2,1Z"/>
      <path class="st14" d="M442.6,172.6c.6.4,1.1,1.1,2,1v1l-1,10h-3c.5-3.8-1.2-9,1-12,.2.2.8-.2,1,0Z"/>
      <path class="st4" d="M456.8,176.4c.3.2,1.8-1,1.8-.9v5c-2.6-2.3-7.7-3.3-3.5-7,.8.1,1.2,2.5,1.6,2.8Z"/>
      <path class="st11" d="M436.6,221.6c-.7,0-1.3,0-2,0-.4-3.8.5-8.4,0-12h1c1,4.2,1.4,7.5,1,12Z"/>
      <path class="st12" d="M426.6,210.6c1.1-.2,4.4-1.5,5-1,1.8,1.7-3.5,3.5-4,4-1.2-.4-1.1-2-1-3Z"/>
      <path class="st11" d="M445.6,219.5c.5-3.4-1.7-9,2-11,.7,3.2,3.2,10.6-2,11Z"/>
      <path class="st3" d="M443.6,166.6c0,1.3,0,2.7,0,4l6-2c0,.8.3,2.3-.1,2.8s-4.6,2.1-4.9,2.2c-.9.1-1.4-.6-2-1,1-6.1-1.9-2.9-6-5,3.4-1.2,4.1-.6,7-1Z"/>
      <path class="st8" d="M441.6,208.6v-1l1,.5c-.2.4-.8.3-1,.5Z"/>
      <path class="st12" d="M335.1,328.6c.6.3.6.7,0,1v-1Z"/>
      <path class="st9" d="M394.6,438.6c-.6,0-1.6-.1-2,0v-2c.4.5,1.8.9,2,2Z"/>
      <path class="st0" d="M373.6,447.6c.2-.4.6-.9,1-1-.3.3-.6.8-1,1Z"/>
      <path class="st5" d="M446.1,244.6c.6.3.6.7,0,1v-1Z"/>
      <path class="st2" d="M338.6,462.6c2.4.4,4.6-1.2,4,2-1.6-.3-3.1-.4-4-2Z"/>
      <path class="st2" d="M347.6,465.6c-1.9,1.1-3.6,1.7-3-1,1.1.3,1.9.6,3,1Z"/>
      <path class="st10" d="M382.6,364.6c.3-5.7-1.2-14,6-16,1.2,5-2.8,4.5-2,9.5s2.1-.7,2.7-1.4c1.3-1.5,4.2-3.3,4.4-5.6s-2.8-4.4-2-5.4,4.4-2.7,4.6-2.7c1-.2,2.1.9,3.3.2s3-3,3.1-3.2c.5-3-2.3-5.9-1.9-8.6s3.8-6.7,4.8-7.3c2-1.1,6.2,1.6,9.4.4s1.5-2.8,1.6-2.9c.4-.3,5.4,4.1,9,1l-1-2c.4-.3,9.4,2,9.8,2.2.7.4,1,2.7,1.7,2.7,2.6.2,1.2-5.3-1.2-5.9s-5.8,1.1-4.3-2.5,3.5-.5,3.8-.7.4-2.2,1.8-2.7,3.8.1,5.6-.4,6.2-5.6,6.8-.3-1.1,6.4-1.6,7.5c-1.2,2.5-5.9,4.4-6.4,5.6-.8,1.8,1.4,1.3,1.7,1.7,1.5,2.3-.2,4.8-.7,6.8-1.6.5-4.4-1.1-5.4-.9-1.6.4-.6,3.5-3.6,2.9s-.8-1-1.6-1c-1.8,0-3.2.6-4.9.8-3.3.3-3.6-2.6-4.5,3.2-2.6.5-4-.7-6-2,.1,2.6.5,2.9-2,3s-1.3-1.2-1.8-.8-.5,1.7-1.3,2.2c-1.5,1-4.4,1.3-4.8,3.3s.9,1.2.9,1.3c0,.7,0,1.3,0,2-3.2-.8-3,3.9,0,3,.2,1.6,1.3,3.2,1,5-3.5,0-4.6-.9-4,3-2.3,0-5.7,3-5-1,.9-1.4.4-7-2.9-4.9s-.9,6.4-1.1,7.9c-.4,2.9-1,4.5-1,8-.9.2-2.4-.3-3,0,0-3.3-4.9-2.7-4-7-1.5.8-2.1,1.7-4,2-.2,3.3-3.2,4.8,2,6v1c-.8-.2-4.3,1.3-6-1,1-3,.2-2.4,2-6,.7,0,1.4,0,2,0Z"/>
      <path class="st0" d="M441.6,334.6c-.7,2.9-.9,5.8-3.5,8-1.5.3-5.6-4.1-5.5-6,3,.6,1.9-2.5,3.6-2.9s3.8,1.4,5.4.9Z"/>
      <path class="st4" d="M432.6,312.6c-2.9,1.4-5,2.2-3,5-.6.4-11.9.3-14.4,1.2s-1.3,2.7-2.3,2.9c-2,.5-5.3-1.3-7.3-2.1,4.8-4.5,5.2.3,7.4,0s2.2-2.6,3.6-3.3c2.4-1.2,7-.6,9.1-1s3.3-6.3,6.9-2.6Z"/>
      <path class="st4" d="M459.6,308.6c-3.4-5.9-4.5-1.4-7,0-.2-7.9,8.6-10.6,7,0Z"/>
      <path class="st10" d="M431.6,400.6c0,.2,2.5,1.4,2,3l2.5-2,1.5,2c0,.3,0,.7,0,1-2.6,1.3-2.3,1.7,0,3s3.3-.4,4-3c7.5-1.3,4.2,6.4,4,11s0,.7,0,1c-2.8-.5-6.7-2.4-9-4s-2.3-3-4-4l-3,5c-.3.1-.7-.1-1,0-2.8,1-2.3-3.5-2-6s1.3-5.8,1.5-6.1c.4-.9,2.7-.3,3.5-.9Z"/>
      <path class="st0" d="M441.6,369.6c.1,1.1-.4,3.3.2,3.8s2.1.1,2.8.7,5.7,7.2,6.6,8.4,7.1,4.9.4,4.6-3.7-2.1-6-1.5c.4-1.2-2.6-7.6-3.5-8s0,2.4-1,2c-1.4-.7-1-3.4-2.5-3-.3,2.9-1.5,3-4,3s-2.9-.7-6,0c0-1,0-2,0-3,2.7.6,5.6-3.8,6.5-4,2.5-.6,1.5,4.1,4.5,3l2-6Z"/>
      <path class="st1" d="M450.6,410.6l2,4c-.6,1-2.6,6.6-3,8-.8,2.8-1.5,4.6-1,8-3.2,5.1-4.2-.5-4-3.5s.8-7.3,1-10.5,0-.7,0-1c2.1-.9,2.3-3,3.3-4.7s1.6-.2,1.7-.3Z"/>
      <path class="st3" d="M434.6,379.6c2.6,0,3.7-.1,4-3,1.5-.4,1.1,2.3,2.5,3s0-2.4,1-2,3.9,6.8,3.5,8-3.4,2.3-4,3l-6-2c0-2.1-.9-2.6-1-3,0-.6,0-1.3,0-2s0-1.3,0-2Z"/>
      <path class="st0" d="M435.6,396.6c2.9.2,4.8-1.3,6.4-1.1s.5,2,.6,2.1c-1.2,1.6-.7,3.4-1,5s.1,1.4,0,2c-.7,2.6-1.8,4.2-4,3,1-.9,0-2.9,0-3,0-.3,0-.7,0-1s1.8-1.7.9-2.9-4.5-1.1-3.9-4.1c.3,0,.7,0,1,0Z"/>
      <path class="st4" d="M453.6,404.6l2.5,4c1.7-3.3,1.9-3.6,5.5-4,.7,1.7-1,4-1,5-1.8-.6-4.1,1.1-5.4,1.1s-.9-4-2.6-2,1,3.4,2,4c-.1,0-1.9,1.9-2,2l-2-4c.4-.6.3-4.1,1-5.3s1.8-.5,2-.7Z"/>
      <path class="st3" d="M464.6,404.6c-1,0-2-.1-3,0-3.6.4-3.8.7-5.5,4l-2.5-4c3.1-3,2.3-4.1,7.8-2.2s2.4,1.3,3.2,2.2Z"/>
      <path class="st3" d="M434.6,390.6c1.6.2,3.1.6,4,2-1.4,1.3-2.6,1.9-3,4-.3,0-.7,0-1,0-1-.3-1.9-1-3-1v-3c.3-.2-1.3-2.4,3-2Z"/>
      <path class="st0" d="M441.6,388.6c-1.4,1.7-.1,1.3-3,4-.9-1.4-2.4-1.8-4-2,.1-.6-.2-1.5,0-2s1-1,1-2l6,2Z"/>
      <path class="st0" d="M446.6,399.6c1-4-1.7-6.4-2-10h4c-1.3,2.6.4,6.3-.1,8.3s-1.8,1.6-1.9,1.7Z"/>
      <path class="st3" d="M442.6,397.6c.4.4,3.6,2.4,4,2-.3.9.2,2.8,0,4l-5-1c.3-1.6-.2-3.4,1-5Z"/>
      <path class="st0" d="M461.6,391.5c-.3.3-2.1-.1-3,0-.6-1.6,1.2-6.9,2.5-7,2.3,0,.7,6.7.5,7Z"/>
      <path class="st0" d="M398.6,358.6c-.7,4,2.7,1,5,1,.8.1,4.9,2.7,5,3,1.2,2,2.5,8.9,4,12-4.7,4.6-2.8-1.1-4-2s-5.2,3.2-6.5-2c-2.3,2.7-3.4,6.6-7.5,4l-1-1c0-.3,0-.6,0-1-.1-.9,0-2,0-3,0-3.5.6-5.1,1-8,2.8.7,1.5-1.4,2.3-2.7s1.7-.3,1.7-.3ZM399.6,361.6c-1.1-1.1-3.1.9-2,2s3.1-.9,2-2Z"/>
      <path class="st0" d="M420.6,371.6l-4-14c5.3-.9,4.2.5,6.5,3s2.1.7,2.4,1.1c.6.9-1.9,5.1,1.1,6.8-1.9,3.6,1.1,7.7-6,3Z"/>
      <path class="st9" d="M408.6,362.6c.4-4.8,4.2-3.2,5.9-.2s-.2,2.7,0,3.2c-3.1-1.2-2.3,6.7-2,7s3.8.1,4,0c.4-.4-.8-4.4,1-5,1.3,2.2,1.2,3.4,1,6-.7.8-1.4,2.5-2,3s-1.4.7-2,1c-.5-1-1.5-1.9-2-3-1.5-3.1-2.8-10-4-12Z"/>
      <path class="st10" d="M414.6,365.6c0,.2,1.7,0,3,2-1.8.6-.6,4.6-1,5s-3.8.1-4,0c-.3-.3-1.1-8.2,2-7Z"/>
      <path class="st0" d="M413.6,340.6l1,4c-3.5-1.5-5.2,0-8,2,0-.1-1-.6-.9-1.3.4-2,3.3-2.3,4.8-3.3s.9-2,1.3-2.2c.5-.3,1.5.8,1.8.8Z"/>
      <path class="st0" d="M406.6,348.6c0,1-.1,2,0,3-3,.9-3.2-3.8,0-3Z"/>
      <path class="st0" d="M422.6,343.6c-.5-.1-.9-.5-1-1,.5.2.9.5,1,1Z"/>
      <path class="st3" d="M418.6,377.6c2.4-1.3,5.4-1.9,8-3,.7.7-1.5,4.8-2,6s-.7,2.5-1,3c-3.9.7-.4-3.1-1-6-1.3,0-2.7,0-4,0Z"/>
      <path class="st3" d="M418.6,377.6c-.8.4-2.1,2.6-4,2.5l4,7.5c-.6.7-.7,2.8-1.6,3.9-2.5,3.3-5.1,2.2-7.7,3.2s-2,4.8-4.7,0c.2-.2,0-2.2,0-3s0-2,0-3c5.4-.5,6.4-4.7,0-4-.3.8-.9,1.6-1,2-.9,0-1.4-.6-2-1,.9-.5,1.9-.9,3-1,2.5-7.2,4-3.8,10-7,.6-.3,1.5-.6,2-1,.3,1,1.2.9,2,1Z"/>
      <path class="st9" d="M434.6,379.6c0,.7,0,1.3,0,2l-1,.5,1,1.5c0,.4,1,.9,1,3s-.9,1.6-1,2c-.2-2.3-4.9-7.7-7-6.6-3.5,1.8-.8,5.3-1,5.6-.4.4-7.4.4-8,2.6s3.4,4.8,3,7.4c-.6.6-10.3-5.2-9,1.5s5.1,2.5,3,4.5-9.9-1.5-10,4c0-.2-.9-.7-1-1-.2-.8.1-2.1,0-3,1.7-.2,6.2-4.2,6-6.5-2.6-1.5-3.5,3.4-6.5,2.5s-1.9-3.1-1.6-4.4,2-.5,2-.6c2.8,4.8,3.9.3,4.7,0,2.6-.9,5.2,0,7.7-3.2s.9-3.2,1.6-3.9,3.1-.6,5-4,.6-2.1,1-3c1.5.3,2.8-.7,4-1,3.1-.7,4,0,6,0Z"/>
      <path class="st9" d="M410.6,431.6c-.2.2,0,1.8-1,2.5-1.6,1.2-3.7,1-5,2.5-2.4.7-2.5,1.8-3,2-.9.3-1.7.5-3,1s-.7,0-1,0c-1.1,0-1.8-1-2-1-1.3-3.3,3.8-.7,4.9-2.1s.8-4.7,1.1-5.9.8-.8,1-2c4.6.8,4.1,3,8-1v4Z"/>
      <path class="st2" d="M412.6,421.6c0,.3,0,.7,0,1,.2,4.7,2.3,3.7,2,8-.5,0-3.8.9-4,1v-4c-3.9,4-3.4,1.8-8,1,.3-1.8-.2-4.1,0-6,5,3.2,5.6,1,10-1Z"/>
      <path class="st3" d="M417.6,422.6c1.2-.2,2.7.1,4,0-1.6,2.9-2.6,6-4,9-.6-.2-2.8-1-3-1,.3-4.3-1.8-3.3-2-8,2.2,2.2,3.9.2,5,0Z"/>
      <path class="st12" d="M404.6,436.6c1.4-.4,8.4-2.5,9-2,2.5,2.4-7.7,6.7-8.5,6.7s-2.6-2-3.5-2.7c.5-.2.6-1.3,3-2Z"/>
      <path class="st12" d="M398.6,439.6c1.8,2,0,6-2.5,6l-2.5-2.5,4-3.5c.3,0,.8,0,1,0Z"/>
      <path class="st12" d="M408.6,306.6c-.3-3.1.4-9.3,2.3-11.7s18.2-10.6,21.1-10.4.5,2.1,1.1,2.1c1.8.1,6.6-2.1,9.4-1,.2.2,1.3-.4,2.1.6,6.2,8.6-6.2,19.5-13.5,22.4s-17.6,4.1-22.5-2ZM433.6,293.6l-.5-2c-4.9,2-4,2.3-5.5,7,.2-3.5.6-7.3-3.4-3.8-.4,2.7-3.7.1-3.6,3.3,0,4.6,5.7,1.2,7,1.5s1.3,3.3,3,2,.5-3.4,3-3c.6,5.2,2.2.1,3.3-.7s3.1.8,2.7-1.8c-.6-3.9-5.1-6.8-6-2.5ZM419.6,298.6c-.2-.2-5.6-1.1-5.9-.9-1.2.9-2.2,8.1-3.1,9.9,3.9,0-.1-4.2,5.9-3.1-.7-2.1,4.3-4.7,3.1-5.9Z"/>
      <path class="st4" d="M454.5,287.7c.2.2,0,1.8.7,1.8s3.7-2.1,4.4.6c.8,3.4-2.3,4.9-5,5.4l-1-3-3,3c-.2-3.2-.5-6.1,2.5-8,.5-.2.9-.1,1.3.2Z"/>
      <path class="st7" d="M435.6,430.6c.3.1.8-.1,1,0v3l-1,.5c0,.8,0,1.7,0,2.5-1.4,1.3-3.3,1.5-5,2s-5.8,2.2-6,2c-1.9-2.2,1.8-1.9,2-2,1.5.2,3.9-1.2,2-2,.4-.6-.8-4.4,1-5.6s2.3.6,2.8.3c.8-.5-1.1-2.6,3.2-.7Z"/>
      <path class="st1" d="M442.6,434.6c-2.1-.6-.7,2.2-5-2s0-1.2-1-2-.7.1-1,0c.6-.7,1.4-1.3,2-2s2.4-2.2,3-3l2-1v10Z"/>
      <path class="st3" d="M440.6,418.6c-.8-1.2-9.7-4.4-8.5,1l-1.5-3c5.2-3,6.9-3.4,10,2Z"/>
      <path class="st3" d="M430.6,416.6v7c-.9.2-2.5,2.2-4,2-.2-1.3-.3-2.2-1.5-3l-2.5,1.5c.8-3.7,3.7-2.5,3.8-2.7,1.8-2.3-.8-2,4.2-4.8Z"/>
      <path class="st3" d="M440.6,418.6c.7,1.2,2.1,3,2,4.4s-1.4.6-1.7.9c-.5.7-.3,1.5-.4,1.6-.6.8-2.1,2.1-3,3-.7-1.6-.6-3.5-1-5-1.6.1-3.5-.2-5,0-.9-2.5,2.2-2.5,4.4-2s.4,1.2.6,2c.9,0,2.2.3,2.8-.1s1.5-4.3,1.2-4.9Z"/>
      <path class="st14" d="M428.6,436.6c1.9.8-.5,2.2-2,2,.1-.1-.2-1.3.2-1.7s1.7-.2,1.8-.3Z"/>
      <path class="st3" d="M425.6,427.6l1-1c-.2.9-.3.7-1,1Z"/>
      <path class="st9" d="M426.6,407.6c-.3,2.5-.8,7,2,6-.2.1-3.7,3-3.8,3.3-.5.9.1,2.5-.5,3.5s-1.9.7-2.8,2.3c-1.3.1-2.8-.2-4,0l-2-.5c.4-2.2,1.5-4.3,2-6.5s2-5.3,2-7c4.9,1,5-5.1,7-1Z"/>
      <path class="st0" d="M429.6,413.6l3-5c1.7,1,2.2,2.7,4,4-2,.2-5.2.3-7,1Z"/>
      <path class="st3" d="M449.6,431.6c-.5-.1-.9-.5-1-1-.5-3.4.2-5.2,1-8,.2,2.9-.3,6.2,0,9Z"/>
      <path class="st12" d="M454.6,428.6c0,.3-.8.7-1,1h-1c.6-5-.3-7.7,2-13-.3,3.8.5,8.3,0,12Z"/>
      <path class="st3" d="M454.6,412.6c-1-.6-2.7-3.2-2-4,1.6-2,2.2,2,2.6,2,1.3,0,3.6-1.6,5.4-1.1,0,.6,0,1.4,0,2-2.1-.2-4.1-.1-6,1Z"/>
      <path class="st11" d="M453.6,429.6c-.3.6.6,1.8-.5,2-3.1.7-.5-1.8-.5-2h1Z"/>
      <path class="st14" d="M437.6,432.6v2s-1-1-1-1v-3c1.1.8.9,1.9,1,2Z"/>
      <path class="st6" d="M373.6,372.6c-.5-.5.9-1.6,1-.5s-.8.7-1,.5Z"/>
      <path class="st2" d="M394.6,374.6c4.1,2.6,5.2-1.3,7.5-4,1.3,5.2,5.2,1.2,6.5,2s-.6,6.6,4,2c.5,1.1,1.5,2,2,3-6,3.2-7.5-.2-10,7-1.1.1-2.1.5-3,1-.6-.4-1.4-.6-2-1s-1.4-2.8-4-2c0,0-.3-1.4.2-1.8,1-.7,3.1.6,2.8-1.2-3.8-.4-6.2-4.5-11-4-.5-1.3-1-.9-1-1,0-.3,0-.7,0-1,0-.5-.1-1.9,0-2s1.4,0,2,0,.7,0,1,0c.7.1,2.4,1.8,4,1,0,.4,0,.7,0,1,.2.5.6.7,1,1Z"/>
      <path class="st3" d="M388.6,371.6c-.6,0-1.9,0-2,0s0,1.5,0,2c-1,0-1.9-2-2-2v-4c2.4-.4,3.1,2.1,4,4Z"/>
      <path class="st0" d="M404.6,391.6c0,.8.2,2.8,0,3s-1.8-.4-2,.6.2,4,1.6,4.4c3,.9,3.9-4,6.5-2.5.2,2.3-4.3,6.2-6,6.5s-1.4-1.1-2.4-.9-1.3,2.3-2.3,2.9c-2.2,1.4-6.5-.5-8.3,5.9-1.9-1.7-5.1.2-7-4.5s1.9.5,2-3.5,0-1.3,0-2c.7,0,1.4.1,2,0,.8,2.7-.2,5.8,0,6s2.7.1,2.9,0c.4-.3,3.2-7.7,4.1-8.9-5-2.9-5,2.6-7,3-1.4-4.3-3.6-.9-2-7,2.7.1,6.4,1.7,9,1,2.4,10.7,8.9,6.1,3-2,1.7-.6,4.2-.9,6-2Z"/>
      <path class="st0" d="M405.6,408.6c1.1,2.1,1.8,2.1,4,2,4.9-.3,6.1-1.6,8,5-.6,2.1-1.6,4.3-2,6.5l2,.5c-1.1.2-2.8,2.2-5,0,0-.3,0-.7,0-1,0-1.5.9-7.4,0-8-4.1-2.6-2.2,6.5-7.4,6.1s-1-4.5-6.5.9c-.2-.4-4.1-3.1-6-6,1.5.4,3-.9,4-1,1.5-.2,3.4,0,5,0h1c3.3,2.3,1,.2,1,0,0-2.3,1.8-3.9,2-5Z"/>
      <path class="st3" d="M398.6,420.6c5.5-5.4,6.1-1,6.5-.9,5.2.5,3.3-8.7,7.4-6.1s0,6.5,0,8c-4.4,2-5,4.2-10,1-.3,1.9.3,4.2,0,6s-.9,1.8-1,2c1.8-5.9-2.9-4.8-3.1-5.6-.2-1.2.4-3.6,0-4.4Z"/>
      <path class="st3" d="M404.6,403.6c.1.9-.2,2.2,0,3-3.1-.4-4.4,1-4,4-.9-.9-2.7-1.1-4-1v4c-1,.1-2.6,1.4-4,1-.4-.6-.3-2.4-1-3,1.8-6.4,6.1-4.5,8.3-5.9s1.1-2.6,2.3-2.9,2.1.9,2.4.9Z"/>
      <path class="st0" d="M381.6,420.6c1.1-.2,6.5-.9,6.8-.8s1.5,3.1,3.1,3.3c-.9,1-1.8,1.9-3,2.5h-1.3c-1.1-2.8-3-2.1-5.7-2,.2-.8-.2-2.1,0-3Z"/>
      <path class="st9" d="M381.6,420.6c-.2.9.2,2.2,0,3-.4,1.4-2.1,3.7-3,5-5.3.2-1.2-6.8.2-7.8s1.9,0,2.8-.2Z"/>
      <path class="st9" d="M386.6,401.6c0,.7,0,1.3,0,2-2.4-.2-4.6.9-7,1,.9-2.2,3.5-3.5,5.7-3.7s1.2.7,1.3.7Z"/>
      <path class="st9" d="M401.6,385.6c.6.4,1.1,1.1,2,1-.1.5,0,1.4,0,2-1.8,0-6.5-1.3-6.9-1-.7.5-.3,5-2.6,4s-1.2-4.5-5.5-3c-.3-3.5-.2-3.2,3-3s5.1.9,8-1c.6.4,1.4.6,2,1Z"/>
      <path class="st3" d="M387.6,375.6c4.8-.5,7.2,3.6,11,4,.3,1.8-1.8.5-2.8,1.2s-.1,1.7-.2,1.8c-.3.2-3.5,1-4,1s-1.2-.8-2-1c.8-3.7-1.1-4.7-2-7Z"/>
      <path class="st9" d="M398.6,393.6c5.9,8.1-.6,12.7-3,2,.2,0,1-1.2,3-2Z"/>
      <path class="st9" d="M389.6,382.6c-.9,4.1-5.1,2.1-8,2l3.5-5c.9,2.7,2.2,2.3,4.5,3Z"/>
      <path class="st0" d="M395.6,382.6c2.6-.8,3.1,1.4,4,2-2.9,1.9-5.1,1.1-8,1v-2c.5,0,3.7-.8,4-1Z"/>
      <path class="st0" d="M404.6,384.6c6.4-.7,5.4,3.5,0,4s-.7,0-1,0c0-.6-.1-1.5,0-2s.7-1.2,1-2Z"/>
      <path class="st11" d="M423.6,187.5c-3.6,2.5-3.3-9.4-3-11,5.3-.8,4.4,10,3,11Z"/>
      <path class="st11" d="M412.1,180.6c3.5-.7,3.3,9.5,1,10-3.5.7-3.3-9.5-1-10Z"/>
      <path class="st11" d="M433.6,187.5c-2.6.4-1.8-.4-2.3-2.2-.8-3-.9-5.8-.7-8.8,4.5,1.9,2.7,7.1,3,11Z"/>
      <path class="st0" d="M382.6,364.6c1.9-.3,2.5-1.2,4-2-.9,4.3,4,3.7,4,7-.2.1-.6,1.6-1,2-.3,0-.7,0-1,0-.9-1.9-1.6-4.4-4-4v3c-5.2-1.2-2.2-2.7-2-6Z"/>
      <path class="st9" d="M394.6,361.6c.2-1.5,0-7.2,1.1-7.9,3.3-2,3.8,3.5,2.9,4.9s-1.4-.2-1.7.3c-.8,1.3.5,3.3-2.3,2.7Z"/>
      <path class="st3" d="M393.6,369.6c0,1-.1,2.1,0,3-1.6.8-3.3-.9-4-1,.4-.4.8-1.9,1-2,.6-.3,2.1.2,3,0Z"/>
      <path class="st0" d="M431.6,392.6v3c0,1.4-.3,4,0,5-.8.7-3.1,0-3.5.9s-1.4,5.5-1.5,6.1c-2-4.1-2.1,2-7,1,0-1.5-.9-4.7-2-6,2.2-1.7,4.2-.6,4.9-1.1s.5-6.4,2.1-7.5,4.6.2,7-1.4Z"/>
      <path class="st9" d="M434.6,396.6c-.6,3,3.6,3.6,3.9,4.1.8,1.2-.9,2.7-.9,2.9l-1.5-2-2.5,2c.5-1.6-2-2.8-2-3-.3-1,0-3.6,0-5,1.1,0,2,.7,3,1Z"/>
      <path class="st9" d="M437.6,407.6c-2.3-1.3-2.6-1.7,0-3,0,.1,1,2.1,0,3Z"/>
      <path class="st0" d="M434.6,383.6l-1-1.5,1-.5c0,.7,0,1.4,0,2Z"/>
      <path class="st10" d="M434.6,388.6c-.2.5.1,1.4,0,2-4.3-.4-2.7,1.8-3,2-2.5,1.6-6.5,1-7,1.4-1.5,1.1-1.5,7-2.1,7.5s-2.7-.6-4.9,1.1.2,3.6-1.2,4.8-5.8.3-6.8,3.2c-2.2.1-2.9.1-4-2,0-.3,0-.7,0-1,0-5.6,9.4-3.4,10-4,2-2-3-4.2-3-4.5-1.3-6.7,8.4-.8,9-1.5.5-2.7-3.7-4.9-3-7.4s7.6-2.1,8-2.6-2.5-3.7,1-5.6,6.8,4.2,7,6.6Z"/>
      <path class="st10" d="M399.6,361.6c1.1,1.1-.9,3.1-2,2s.9-3.1,2-2Z"/>
      <path class="st3" d="M394.6,374.6c-.4-.3-.8-.5-1-1l1,1Z"/>
      <path class="st2" d="M404.6,406.6c0,.3,1,.8,1,1,0,.3,0,.7,0,1-.2,1.1-2.1,2.7-2,5h-2c-.2-.9-.4-2.4-1-3-.4-3,.9-4.4,4-4Z"/>
      <path class="st5" d="M419.6,298.6c1.1,1.2-3.8,3.8-3.1,5.9-6-1.1-1.9,3.1-5.9,3.1.9-1.8,1.9-9.1,3.1-9.9s5.7.7,5.9.9Z"/>
      <path class="st5" d="M427.6,299.6c-1.3-.3-6.9,3.1-7-1.5,0-3.2,3.2-.6,3.6-3.3,4-3.5,3.6.3,3.4,3.8v1Z"/>
      <path class="st7" d="M433.6,293.6c-.2,1.1-.1,3.8,0,5-2.5-.4-2.7,2.7-3,3-1.7,1.3-2.4-1.9-3-2v-1c1.5-4.7.6-5,5.5-7l.5,2Z"/>
      <path class="st5" d="M433.6,293.6c.9-4.3,5.4-1.4,6,2.5s-1.6.9-2.7,1.8-2.7,6-3.3.7-.2-3.9,0-5Z"/>
      <path class="st3" d="M419.6,408.6c0,1.7-1.5,5.2-2,7-1.9-6.6-3.1-5.3-8-5,.9-3,5.5-2.1,6.8-3.2s0-3.8,1.2-4.8c1.1,1.3,2,4.5,2,6Z"/>
      <path class="st9" d="M400.6,410.6c.6.6.8,2.1,1,3-1.6,0-3.5-.2-5,0v-4c1.3-.1,3.1,0,4,1Z"/>
      <path class="st9" d="M403.6,413.6c0,.2,2.3,2.3-1,0h1Z"/>
    </g>
  </g>
</svg>