<?xml version="1.0" encoding="UTF-8"?>
<svg id="Layer_1" xmlns="http://www.w3.org/2000/svg" version="1.1" viewBox="0 0 792 612">
  <!-- Generator: Adobe Illustrator 29.0.0, SVG Export Plug-In . SVG Version: 2.1.0 Build 186)  -->
  <defs>
    <style>
      .st0 {
        fill: #4f1979;
      }

      .st1 {
        fill: #c9bba1;
      }

      .st2 {
        fill: #561e7f;
      }

      .st3 {
        fill: #ebb4cf;
      }

      .st4 {
        fill: #632a87;
      }

      .st5 {
        fill: #d19cb7;
      }

      .st6 {
        fill: #d7d0c9;
      }

      .st7 {
        fill: #350861;
      }

      .st8 {
        fill: #e3adc5;
      }

      .st9 {
        fill: #daa5bf;
      }

      .st10 {
        fill: #dfd1e4;
      }

      .st11 {
        fill: #481375;
      }

      .st12 {
        fill: #400c6d;
      }

      .st13 {
        fill: #b9afc1;
      }

      .st14 {
        fill: #fefdfe;
      }

      .st15 {
        fill: #81669a;
      }
    </style>
  </defs>
  <g id="A0eHbR">
    <g>
      <path class="st7" d="M446.5,494.7c6.1,2.9,8.3,3,15.1,7.4s3.5.9,4.3,1.5,0,2.8,1.2,3.2c5.9,1.6,6.8-1.9,6.4-7.1,3.1-.5,1.7,1.1,2,3,.6,3.9.7,4.7,1,0,.9-.5,2-.7,3-1-2.1,6.8,10,5.8,7,0,.8-.6-1.4-2.6,5-2-1,.8-2.1.8-2,2.4.2,4,2.8,3.4,3,3.6,2.3,2.6,7,6.9,10.2,8.3s8.5,2.4,9.6,1.5,0-1.7.1-1.8c.2-.1.7.1,1,0l.7.8,4.3.2v1c-.7,0-1.9.3-2,1l-3-1c-.1,1,.2,2.1,0,3-.2,0-.7.7-1,1-2.5,2.8,3,4.3,5.3,3.9s6.1-2.5,6.9-2.9c1.6-.7,1.3-2.6,1.8-4,1.2.2,2.7-.1,4,0,0,.3,0,.7,0,1l1,2c.4.7,2.1,1.2,3,3.5,1.5,3.8.9,8.5,1,12.5l-275.4,1c-1.2-.2-.3-2.9-.6-4l-1-4c0-1.3-.1-2.8,0-4,4.4-5.7,2.1-1.3,3.6-.9,4.7,1,11.4-5.9,15.4-8.1,1.5,2.2,2.2,1.4,3,2s.7,1.4,1.6,1.8c10.1,4.7,19.4,1.5,23.4-8.8s.8-.9,1-2l3-1c.3.3.8.7,1,1,1.2,1.8,1.3,3.6,3,6,4.5,6.3,12.6,8.7,19.7,5.2s2.2-2.2,3.3-3.2,2.7-1.5,3-2c5.7,4,3.8.4,8-1,.2.4,4.2,3.4,5,4,7.7,5.1,13.7,4.4,20-2s2.6-1.9,4-6,.8-1.1,1-3,0-1.4,0-2c.6,0,3.9,1.8,4,2,.4.5.7,1.4,1,2s.1,2.6,1.1,4.4c5.7,10.1,20.6,10.1,26.9.6,3.4.9,5.9.8,9-1,7.4,12.6,27.6,8.5,29-6s-.3-7.9-2-12Z"/>
      <path class="st5" d="M520.5,364.7c-1.7-.7-13-.4-13,.5.2,5.1,3.7,9.6,9,9.5.3-2.7.1-5.9,4-5-.7,6.4-5.4,20.1-5.1,25.5,0,1.7,1.8,1.3,2,2.2,3.7,13.9,4.4,21.4,2.1,35.3-10.2-10.1-20.7-14.7-35-10l4-9.5-5-.5c-1-3.6,3.4-1.3,4-2,2-2-4.6-18.1-4.1-23.6.6-6.3,6.1-6.2,3.8-16.7-1.3-6.2-1.1-6.1-1.8-12.1-.2-1.5-2.3-4.2-2-6.6,10.2-2.5,20.6-5.8,30.6-9-1-9.6-.6-19.4-.6-29,0-1,0-2,0-3s0-2,0-3c0-13.8.1-27.6-.1-41.4-.9-2.6-6.5-1.3-8.9-2.6,0-.3,0-.7,0-1-.3-1.7-3.9-9.4-3.8-10.3.3-2.4,4.6-5.8,3.4-9.7-1-3.2-13.6-12.2-13.6-16.5s4.7-6.1,6.3-6.7c5-2,10.1,1.2,11.5-6.5,1.2-6.8-1.1-13-.6-19.6.8-12.5,12.8-23.5,3.9-35.6,2.8-4.7-.9-4-2-5s.3-1.2-.3-1.7-2.1,0-2.8-.9-3-6.6-3-6.9c0-2.3,2.8-1.9,3.1-3.2.8-3.3-.5-6,1.5-10.3s4.4-6.5,4.8-6.8c.8-.5,2.3,0,2.9-.3,2.1-1,3.2-2.3,6.8-2.9s6.3.9,9-1c-3,20.4-9.4,45.4-10,65.5-.5,17.8,4.1,38.4,1.9,55.9-1,8-8.6,19.6-9,26.1s2.7,18.5,2.9,26c.2,7.4-1.1,16-.8,24,.5,15.9,3.8,33,4,48.5Z"/>
      <path class="st12" d="M526.5,481.7c-1.1.8-.9,1.8-1,3-4.3-.8-4.6,4-7,5.5s-4.2.4-6,3c-2.9,4.2,2,2.7,1.1,6.6-3.6-2.5-4.8,1.7-5.7,2s-2.2,0-3.3,0-2.7,0-4,0c0-1.7.4-2.3-1.5-2-1.4.3.5,1.9.5,2-.2,1.4-1.6,3.1-1,5,1.9-.2,4.9.8,6-1,0,.1,1.7.9,2.4,2.1s.4,2.8.6,2.9c1.2,1.2,6.4-4.3,5,3-.1,0,.3,1.4-.1,1.8-1.1.9-8-.8-9.6-1.5-3.3-1.4-8-5.7-10.2-8.3,4.9,1.1,5.8-2.2,2-5,0-1.7.4-2.3-1.5-2l-.5,1c-.3,0-.7,0-1,0-6.4-.6-4.2,1.4-5,2s-3.9-.8-7,0-2.1.5-3,1h-1c-.3-1.9,1.1-3.5-2-3,.3,5.1-.5,8.7-6.4,7.1s0-2.4-1.2-3.2-3-.6-4.3-1.5c-6.8-4.4-9-4.5-15.1-7.4s-5-4.2-7.4-5.1c-7.5-2.8-16.1-.3-19.6,7.1s-.8.3-1,1,0,.7,0,1c-2.2,4-1.3,10,1,14-3.1,1.8-5.6,1.9-9,1,.2-.2-.1-.7,0-1,.3-.6,1.2-1,1.6-1.9s.2-2.2.4-3.1,1-.2,1-2c.3-14.6-19-23.3-28.5-10.9-1.1,1.4-1,2.8-1.5,3.9s-.8.6-1,1c-.6,1.6-.8,2.2-1,4s0,.7,0,1c0,.7,0,1.3,0,2-.1-.2-3.4-2-4-2-.6-11.1-9.5-16.8-20.3-14.8-9.6,1.8-14.3,15.7-9.7,23.8-4.2,1.4-2.3,5-8,1,4.5-6.9,1.7-17.9-5.1-22.4-5.7-3.8-8.7-2.7-14.9-1.6s-2.7-.3-4.3.2c-4,1.3-7.1,8.7-6.8,12.8-3.5.5-1.4-4.9-3-8.3s-4-3.8-4.3-4c-1.9-1-2.6.3-2.7.3-1.7-.3-3.2-.9-5-1-.7-1.3-2.1-.7-3-1s-1.7-1.4-3-1c-1-2.5,4.4-3.1,6.5-3.1s1.3,2.4,4.2,2.9,11.9,1,8.2-3.6-6-.3-4.9-2.6c2.3-4.9,6.1,1.5,6.5,1.5,2.1,0,6.1-3.3,4.5-5.1s-4.9,1.6-4-2c1-.2,2.4-1.7,3.5-1.6s1.9,1.5,3.1,1.6,11.9.9,12.5.6c1.6-1-.7-7.3-1-7.5s-7.5,3.3-10,0c2.9-1.1,4-3,8.6-3.1s2.9,3,6.1,2.9,3.3-2.6,4.3-1.8-.8,2.4,1,2c.2-.9-.5-3,.5-3s8.2,1.2,8.6,1.5c1,.6,1.1,2.5.9,3.6s-2,3.1-1,5h7c-1.8-4.6-.5-2.2,1.1-3.1s4.6-3.6,2.4-3.9c-.8,0-1.7,0-2.5,0-1.4-2.2,4.8-3.1,6.5-3s.4,2.1.5,3c-.9,0-2.3-.3-2.9.1s-1.5,4.4-1.1,4.8c1.3,1.5,8.7,2,11,2.1s6.8,1,6-1.5-3.7-1.2-2-5.5l-1.5,2c-1.8-4.4-2.4-2.2-2.5,1-1.5-2-.2-3.1-3-3-.4-4.1,4.8-1.8,7.2-2.2,4.6-.8,6-5,11.8-.8.4,1.6-1.2.7-1.7,1.3s-.3,1.7-.3,1.7c-.3.3-.7.7-1,1-1,.8-3.1-.9-2,5,.7,0,1.3,0,2,0s.7,0,1,0,.7,0,1,0c3.2.5,4.8,1.9,9.1.5s1.3-3.5,2.4-3.6c3.4,0-.4,3.2.5,4,2.2-1,5.4-.5,7.3-1s.3-1.7,2.2-2c4.7-.7,5.2,3.6,10.6,2.1v-6c-2.7,0-5.3,0-8,0,1.2-7.6,10.8-8.8,11,0,2.3.5,3-2.5,4.7-2.9,2.9-.7,3.7,2.9,6,3.7,5,1.7,12.7,1.3,16.6,2.4s3,3,5,4c4.5,2.2,12,5.4,16.7,5.8s5.6-.4,8,0l2,6c-.8.8-6.1-1.7-5,2,4.3.9,10.9,1.4,14.9,2.7,5.8,1.8,4.7,6.2,13.1.8s5-5.5,6.1-6.4,9.4-4.5,7-7-10.4,2.8-12.5,2.8-8.2-.6-8.5-.8.2-1.8,0-2c14.1,2.2,26.2-8.4,31-21,1.5,7.8,2.9,14,4,22ZM343.5,469.6c-1.7-1.8-2.1,2-2.4,1.9-.8,0-2.2-1.3-3.6-.9v6s6,0,6,0c-2.2-3.6,1-3,.9-3.4s-.8-3.4-.9-3.6Z"/>
      <path class="st11" d="M504.5,78.7c0,4.2,8.4,5.7,9.8,7.3s0,2.6.2,2.7h-4s0,2,0,2h4s0-2,0-2c.2.2,2.2-.5,2.8.2s-.3,2.6.8,2.9c6.8,1.5,7.1-2.8,8.2-3.1s4,.3,4.3,0c.6-.5-1.6-4.9,2-4,.3,2.6,0,6.3,0,9-4.9,1.3-10,1.4-15,2s-12.6,1.4-19,2c-10.8,1-20.1,2.3-30.4,1.9-1.9,0-3.7-1.2-6.1-1s-4.4,2.8-7.1,3.1c-6.5.6-18-2.5-25-2.1-8.7.6-12.7,2-22.9,2-39.9,0-80.2,3.1-120,5.1-5.8.3-17.3-1.2-21.9,0s-2.3,3.9-2.4,4.7c-.2,2.4,3.6,6-.3,5.4-7.2-12.8-7.9-14.7-3-29,3.4,2.5,2-.9,5.4-1.1s9.1.9,13.6,1.1c-.8,3.3,2.4,1.1,4,3-.2,0-3.7,1.1-3.8,1.2-1,.9,1.7,4-5.2,2.8,2.1,4.7-.3,3.6-.7,4.2-1.7,3.3.3,4.3,3.2,4.6l57.4-2.9,9-2c-5.6,1.1-3.3-1.8-4.2-2.8s-6.9-1.4-2.1-2.2-.4-2-.6-2.2c-.5-.6,0-2.4-.2-2.7-1-1.1-5.4.8-6.9.9-3,.1-5.7-1-7-1,.6-5.7,8.3-2.2,12-2s9.6,1.4,10-2l25.5-2c25.8-.8,53.5,1.1,79.1-.9,1.8-.1,3.4-.4,4.5-2,1.3,0,2.7-.1,4,0s.7,0,1,0c6.5.5,9.6,2,16.5,1s2.7,1,2.5-3c.7,0,1.3,0,2,0,8.7.2,17.4.7,26,1ZM490.5,87.7c-6.7.6-15,.2-21.5,1-1.4.2-3.1.7-1.5,2,6.4-.2,13.1-.4,19.4-1.1s3.8-.4,3.6-1.9ZM461.5,89.7h-16v1h16v-1ZM503.5,89.7l-37,4c9.3.9,18.3-1.1,27.5-2s13,.7,9.5-2Z"/>
      <path class="st5" d="M276.5,228.7c8.3.5,1.9,5.6,1.9,6.5.1,3.2,2,3.3,2.1,3.5.2.6,0,3,0,4s-1.5,1.1-.8,3.2c1.6,5.5,7.2,15.3,10.8,20s2.6,1.5,3.5,2.8c4.1,5.9-1.2,11.9-.7,18.3-1.5,5.1-6.2,17-5.6,22s2.9,6.9,5.1,8.5,2.3,0,2.9.4c1.3.7.2,1.2,2.8,1.9s.7,0,1,0c2,2.5,5.7,4.3,6,8-4.6.9-9.3-1-13.5-1s-1.9-.2-1.5,1.6c.8,4.3,10.9,12,12,17.5-1.1.8-1.3,1.3-2,2-3.2-.2-4.9-2.5-7-4.5-2.1.5-7.2-3.6-8.5-1.6s3.7,14.2,8.5,13c-2.2,2.5-4,6.7-4,10s.8,6.4,1.2,7.3c.8,2,2.9,1.1,3.6,1.9s0,2.3.2,2.8c-1.4,2.4-.4,6.3-1.1,8.4s-3.3,1.2-3.7,1.7.2,5.6-.2,7.4-1.9,2.3-2,2.5c-2.3-4.6-8,0-12-2,.9-8.3,2.6-17.3,3-25.5,1.2-23.8-5.3-46.2-3-71s2.5-11,2.6-15.2-2.2-11-2.6-16.3.8-4.9-1-6c0-3-.1-6,0-9l1-.5-1-.5c.1-1.8.9-3.5,1-5v-1c.3-5.4.8-10.6,1-16Z"/>
      <path class="st0" d="M498.5,97.7c.7,2.6-4.1,3.4-5.7,3.8-4.7,1-9.7,0-13.5.4-6.8.8-19,5.7-26.4,6.7s-19.1-.8-27.9,0c-4.4.4-4.7,3-5.1,3-1,0-2.5-1-3.9-1-2.9,0-10.9-.6-12.9,0s-.4,3.5-2.2,4-3.8-1.3-5.8-1-2.9,2.5-4.2,2.9c-2,.6-4.9-2.8-4.3,1.1-10-2.1-30.1-8.9-38.5-9.1s-22.3,5.2-29.5,7.1-3.9,1.5-6,2c.7-4-4.5-1.2-6.4-1.3-7.3-.7-7.8-4.9-17.1-3.6-2.2.3-4,1.1-4.5,3.4s4.8,0,3,5.5h-22c-1-1.7-2-3.3-3-5,3.8.6,0-3,.3-5.4s1.7-4.5,2.4-4.7c4.6-1.1,16.1.4,21.9,0,39.8-2,80.1-5.1,120-5.1,10.2,0,14.2-1.4,22.9-2,7-.5,18.5,2.7,25,2.1s4-2.9,7.1-3.1,4.2.9,6.1,1c10.3.3,19.6-.9,30.4-1.9Z"/>
      <path class="st9" d="M287.5,121.7h4c-.6,2.4-10.5-.6-9,2.5s9.4,5.7,11.5,7.5,5.2,6.6,7,8c2.7,2.1,6.8.6,5.5,5.3s-2.7.6-2,2.7c-1.8-.1-5-.6-6,1-.7,0-1.3,0-2,0-2.3,0-4.2,1.1-5.4,1.1s.1-2.6-1.5-2c-3.2,5-3.9,3.3-3.1,9.5s-1,4,2,3.5c0,.3,0,.7,0,1-.1,2.5-.8,4.7,2,4,0,.7,0,1.4,0,2,.3,2.2.8,3.5,1,5,.9,5.6,2.1,11.4,3,17-1.1-.8-3.2-2.3-3,.5.7,12.3,5.6,19.8-6.9,29.3l-4.1,19.2c0-.2-2-.3-2.1-3.5s6.4-6-1.9-6.5c.6-15.1-1.2-25.1-2-39.5s2.4-44.1-2-56.5c3.1-.3,9,1.6,9-3-6.5,1.9-7.7-3.2-13-4-.9-1.4-2.2-2.6-3-4h22Z"/>
      <path class="st10" d="M489.5,423.7c-.6,3,1.5,1.9,4,2-.9,1.4-1.6,2.9-3,4-1.8-.7-7.1.5-7.8,2.7s-.5,20.5,1.3,22.4,7.8,1.6,9-1,1.6-16.1-5.5-13c0-2.1-.6-5.2,2-6-1.7,3.5,2.4,5.6,4,4s.2-5.6,0-6c.6-1.4,2.5-.7,3-1-1.2,4.7-2.1,18.4,0,22.3,1.3,2.4,7.2,2.1,9,.3s1.6-21.3,0-23.1-2.9-1.3-4-1.5l1-3c2,.8,5.8,1.5,8,2,2,1.3,1.9.8,4,3-.2,1.6,1,3.6,1,5,0,2.6-3.4,7.1-1.9,8.9s4.4.6,4.8,1.2c.9,1.2-1.3,5.5-.9,5.9,1.8,1.9,2-3.2,4-2,.1,1.6-.2,3.5,0,5-1.4.7-.7,2.1-1,3-.4,1.4-5.8,12.2-6.3,12.7s-7.8,4.3-8.7,4.8c-11.6,4.9-23.7,2.5-31.4-7.6-5.6-7.4-6.9-14.8-5.1-24,.7-3.7,5.1-11.2,7.6-13.9s.7-.7,1-1c3.3-.9,11.3-2.2,10-6,.6-.1,1.4,0,2,0ZM514.5,455.6c.3-1.5.3-6.6-2.5-6s0,6.8,2.5,6ZM502.5,460.7c-1.2-.8-.6-3.9-1.5-3.9-1.3,0-8.1-.4-8.5-.1-1.2.8.3,7-3,6v-5c-3.3,1.4-5.7.6-9,0,.2,1.7-.3,3.8,0,5.4s6.5,1.5,5.5-2.4c1.2,0-.3,2.8,1,3.1,2.7.5,8.8,0,12,0s2.8-1,3.5-1,2.3,0,3,0c1.5,0,2.8.8,4,.5-1.9-4.7,3-6.5-5-5.5s-1.3,0-2,0c0,1,0,2,0,3ZM488.5,466.7c-1.3,0-5.9-1.7-6-.5v6.5s6-3,6-3c.4,3,2.1,3.9,5,2.5-1.2-1.5.2-4.5-.5-5.5-1.6-2.3-3.7,0-4.6,0ZM507.5,467.7c-3.7-.3-10.4-3.6-12.2.2-3.2,6.7,6,4.4,10.2,4.7l-1-4,3-1Z"/>
      <path class="st8" d="M275.5,394.7c4,2,9.7-2.6,12,2-.4,1.2.3,3.6,0,5-1.3,0-3.2.2-4.3.9s-7.1,7.4-7.2,7.9c-.8,4.5,8.6,4.2,7.5,10.1-1.2,1.1-1.3,6.3-1,8,.9,5.4,6.5,5.8,7.8,7.3s-.7,3.6,1.7,2.7,1.2-1.9,1.5-2c.8-.3,3.7,0,5,0-1.1,5.1,4.5,9,8,12-.2.3,0,3.9,0,5-10.7.7-22.2-.5-33,0-.3-2.1-2-7.7-2-9.5v-19c0-2.1,1.8-8.4,2-10.5,1.4-.9,1.6-3.4,0-4,.5-5.4,1.5-10.7,2-16Z"/>
      <path class="st0" d="M306.5,453.7c-.1,6.4,2.7,8.1,9,9-.2.2.7,1.3-1.2,2.3-3.1,1.5-8.3,1.8-11.8,1.7,0,2.4.9,1.5,2,4-2.7,0-5.3,0-8,0s-3.8,1-4,1c-1.1-.2.6-2.5-4-1s-7.3,3.6-6,6c-.2,0-1.1.9-2,1v-7s-4,0-4,0c.1-.8,0-2.1,0-3l-1-3c-.6-3.7-1.4-7.3-2-11,10.8-.5,22.3.7,33,0Z"/>
      <path class="st0" d="M275.5,477.7l-.4,4.1c8.4.7,6.2,2,8.4,8.9v1c-9.3,3.4-11.3,16.2-6,24-4,2.2-10.7,9.1-15.4,8.1s.8-4.8-3.6.9c1.6-15,9.6-33.7,15-48,.8,0,1.7,1,2,1Z"/>
      <path class="st0" d="M525.5,484.7c-.3,4.2.3,7.5.9,11.6.2,1.5-.9,3.7,2.1,3.4.5,5.3.7,12,2,17-1.3-.1-2.8.2-4,0s-4.7-.9-5.2-1.1c-1.8-.7-2.1-4.9-7.8-1.9s-.8-.1-1,0c1.5-7.3-3.7-1.8-5-3s0-2-.6-2.9-2.4-1.9-2.4-2.1c-.3-.8.2-2.9,0-4,1.1,0,2.2.3,3.3,0s2.1-4.5,5.7-2c1-3.9-4-2.4-1.1-6.6s4.1-1.9,6-3,2.7-6.3,7-5.5ZM517.5,500.7c-2.2,0-7.7,0-7,3.5s6.8,1.8,7-2.5c.8.3.9,1.9,1,2-.2-.2-1,.2-1,.5,0,1.1,1.5,0,1-.5,0,0,.8,0,1,0,.9-.2,2.4-1.6,2-2-.6-.1-1.5.2-2,0s-1-1-2-1Z"/>
      <path class="st12" d="M478.5,77.7c.7-2.3,2.6-2,4.4-2.1,16.5-.9,33,.9,49.4,1.2,5.3,13.8,1.2,27.8-.9,41.9-2.7,1.9-6.2.5-9,1-2-.1-4-.9-6-1-.7-4.2,6.4-.9,7.9-2.2s.3-2.3,1.1-3.4,4-3.3,4.5-4.5c.9-2,.1-3.7.5-5.3s1.9-.6,1.9-1.3c.2-1.6,0-6.2,0-8.4s.3-6.4,0-9-2.4-4.9-2.6-5c-6.4-2.2-16.2-.2-22.9-2-1.4,0-2.3,1.1-2.4,1.1-8.6-.3-17.3-.8-26-1Z"/>
      <path class="st0" d="M452.5,79.7c-1,1.7-2.7,1.9-4.5,2-25.6,2-53.3.1-79.1.9l-25.5,2c0-.7,0-1.3,0-2,35.4-1.8,74.1-4.1,109-3Z"/>
      <path class="st4" d="M519.5,432.7c-.2,1.1,0,2.7,0,4h-2c.6-3.2-1.6-3.5-3-5-2.1-2.2-2-1.7-4-3-4.3-2.9-5-4.3-11-5s-3.4,0-5,0-3.5-.2-5,0-1.4-.1-2,0c-3.2.6-7.7,3.6-10,6s-.7.6-1,1c-8.3,5.2-10.2,14.9-10,24-1.4,0-2.8-2.9-3-3,1.5-13.3,7.8-24.6,21-29,14.3-4.7,24.8-.1,35,10Z"/>
      <path class="st0" d="M339.5,82.7c.9,4.5-6.9-.5-6,4-3.7-.2-11.4-3.7-12,2-1,0-2,0-3,0-.5-1.6-1.5-1.8-3-2-5.8-.8-16.2,1.9-22,2s-2,0-3,0-5.3-.9-8-1-1.3,0-2,0-1.3,0-2,0c-4.5-.2-9.4-1.3-13.6-1.1s-2,3.6-5.4,1.1c.3-.8-.7-2.7.6-3.1,10.3,0,20.7,1.6,30.9,1.5,15.7-.2,32.6-2.7,48.5-3.4Z"/>
      <path class="st9" d="M520.5,364.7c0,1.6.2,3.5,0,5-3.9-.9-3.7,2.3-4,5-5.3.1-8.8-4.4-9-9.5,0-.9,11.3-1.2,13-.5Z"/>
      <path class="st6" d="M517.5,436.7h1c-.5,1.5.6,2.2,1,3,.9,2.1,1.3,2.4,1,5s-3.2,3.4,1,3c0,1,0,2,0,3-2-1.2-2.2,3.9-4,2s1.8-4.7.9-5.9-4.5-.8-4.8-1.2c-1.5-1.8,1.9-6.3,1.9-8.9h2Z"/>
      <path class="st12" d="M476.5,77.7c.2,4,.3,2.5-2.5,3-7,1.1-10-.4-16.5-1v-1c4.6-1.9,6.2-.4,10,0l.5,1,.5-1c.2-.4-.3-1.8,0-2s6.1,1,8,1Z"/>
      <path class="st4" d="M528.5,499.7c-3,.3-1.8-1.9-2.1-3.4-.7-4.1-1.2-7.4-.9-11.6s0-2.2,1-3c.9,6.5,1.4,11.3,2,18Z"/>
      <path class="st5" d="M268.5,125.7c5.3.8,6.5,5.9,13,4,0,4.6-5.9,2.7-9,3-.6-1.8-2.8-5-4-7Z"/>
      <path class="st15" d="M276.5,470.7h4s0,7,0,7c-1.5,0-3.6.2-5,0s-1.2-1.1-2-1c.6-1.7,2.9-5.7,3-6Z"/>
      <path class="st8" d="M476.5,430.7c-2.4,2.7-6.8,10.2-7.6,13.9-1.8,9.2-.5,16.6,5.1,24,7.7,10,19.9,12.5,31.4,7.6,1-.4,8.4-4.4,8.7-4.8.5-.5,5.8-11.4,6.3-12.7h2c0,.3,0,.7,0,1-4.8,12.6-16.9,23.2-31,21-.4-.4-8.8-2.4-11.5-4-3.9-2.3-6.1-5.1-8.5-8s-3.5-4.2-4-6-1-5.5-1-8c-.2-9.1,1.7-18.8,10-24Z"/>
      <path class="st12" d="M343.5,82.7c0,.7,0,1.3,0,2-.4,3.4-6.5,2.2-10,2-.9-4.5,6.9.5,6-4,1.3,0,2.7,0,4,0Z"/>
      <path class="st10" d="M521.5,447.7c-4.2.4-1-2.7-1-3,1,.8.9,1.9,1,3Z"/>
      <path class="st6" d="M522.5,458.7h-2c.3-.9-.4-2.3,1-3,0,.3.8,1.7,1,3Z"/>
      <path class="st3" d="M275.5,266.7c-1.6-1.8-1-3.9-1-6,1.8,1.1.9,4.1,1,6Z"/>
      <path class="st0" d="M259.5,532.7c-.3-1.3-.9-1.6-1-4l1,4Z"/>
      <path class="st5" d="M273.5,414.7c.1-1.3-.1-2.7,0-4,1.6.6,1.4,3.1,0,4Z"/>
      <path class="st13" d="M519.5,439.7c-.4-.8-1.5-1.5-1-3h1v3Z"/>
      <path class="st15" d="M276.5,467.7c0-.2-.7-1.3-1-3l1,3Z"/>
      <path class="st0" d="M531.5,519.7l-1-2c0,.2.7,1.5,1,2Z"/>
      <path class="st3" d="M275.5,245.7c0-.2,0-.5,0-1v1Z"/>
      <path class="st11" d="M467.5,78.7c.2,0,1,0,1,0l-.5,1-.5-1Z"/>
      <path class="st0" d="M457.5,79.7c-.3,0-.7,0-1,0,.3-.4.6-.8,1-1v1Z"/>
      <path class="st3" d="M274.5,251.7c0-.3,0-.7,0-1l1,.5-1,.5Z"/>
      <path class="st6" d="M339.5,514.7c-.3.5-2.3,1.3-3,2l-11.5-.9c-2.1-1.1-4.2,4.4-5.5,2.9s1.5-3.7,1-5l-7,1c-1.7-2.4-1.8-4.2-3-6-1-8,2.7-13.5,9-18,6.2-1.1,9.2-2.2,14.9,1.6,6.8,4.5,9.5,15.5,5.1,22.4ZM333.5,501.7c-1.8-.2-17.3,0-18.1.4-1.2.9-1.2,6.2-.9,6.6,1,1,7.4,0,9,0s3.4-.3,6,0,2.5,1.6,4,1c.4-1.6,1.1-3.2,1-5h1c2.5.3,2.8-.4,1-2s-1.4-.8-3-1Z"/>
      <path class="st6" d="M377.5,504.7c0,.6,0,1.4,0,2-2.4-.3-2.2.2-2,2.5l1,.5c-1.4,4.1-1.3,3.2-4,6-1.5-.7-3.9-.5-5.3-1s-.7-1.9-.7-2c1.5-.4,3.9,1.4,4-1.5s1.9-9.6-1-8.5v-1c2.1.2,2.3.1,2-2-5.3-2.4-11.2-2.5-17-2s-1.8.9-3,0c-1.5,3.4,1.7,6.4,2,8,.6,2.8-1.6,7.9,2,7-.7,1.5.2,4.1-3,5-.8-.6-4.8-3.6-5-4-4.6-8,.1-22,9.7-23.8,10.8-2,19.6,3.6,20.3,14.8Z"/>
      <path class="st6" d="M413.5,505.7c-2.3-.3-2.8.3-1,2-.2.9,0,1.8-.4,3.1s-1.2,1.4-1.6,1.9c-4.1,2.1-1.7-1.5-6-1-1.1-2.1-2.3-5.5,1-5,.5-1.3-1.7-1.1-2-2-1.2-3.7,2.7-7.4-3-7s-.7,0-1,0c-1.1.3-1.9,1.8-2.5,2s-.9-1.8-1.5-2c-1.2-.4-3.5.2-5,0-.8,2.5.9,5.2,1,7s0,.8,0,1-.9,1-1,1c-2.6.6-5.5-1.5-6.7,2h-1.3c-.3-.6-.6-1.5-1-2,0-.7,0-1.3,0-2l1-.5-1-.5c.2-1.8.4-2.4,1-4l1-1c.6-1.1.4-2.5,1.5-3.9,9.4-12.3,28.8-3.7,28.5,10.9Z"/>
      <path class="st6" d="M446.5,494.7c1.7,4.1,2.5,7.5,2,12-.8.2-2.7-.2-3,0,.1-3.5.6-2.8-2.5-3-4.4-.3-9.1.3-13.6,0l-1,4c1.5-6.6-4.6-3.3-9-4-.3-1.6-1.2-2.1-1-5s0-.7,0-1l1-1c3.5-7.4,12.1-9.9,19.6-7.1s5.1,4,7.4,5.1ZM435.5,497.6h-5v5h5v-5Z"/>
      <path class="st10" d="M293.5,490.7c1.8,0,3.3.7,5,1,3,2.3,3.8,4.5,5,8s1,1.1,2,2,0,1.6,0,2c-.2,1.1-1.9,3-1,5-2.9.9-1.7-2.3-4-3v-8c-.2-.3-2.1,1.1-3,1-3.2-.2-2.1-.6-6,0s-4.7-.3-5,0,.2,4.8,0,6c-.3,0-.7,0-1,0v-6s-6,0-6,0v7c1.3,0,2.7.1,4,0,.8,2.3,2.1,3.5,1,6h3c0,.6-.8,1.4-1,2-6.1.3-2.1.6-6,4-.8-.6-1.5.2-3-2-5.3-7.8-3.3-20.6,6-24s1.7,0,2-1h1c2.3,0,4.7-.1,7,0Z"/>
      <path class="st13" d="M297.5,498.7c.3,1.4-.4,6.5,0,7s2.2-.2,3,0c2.3.7,1.1,3.9,4,3-.8-2,.8-3.9,1-5,1.3.5.9,1.9,1,3s0,.7,0,1l-1,3c-3.9,10.4-13.3,13.5-23.4,8.8s-1.2-1.6-1.6-1.8c3.9-3.4-.1-3.7,6-4s7.4.1,11,0c-1.1-2.5.2-5.8-3-7v6c-1.5.5-1.9-1-2-1,.8-5.3-2-4.7-6-5-.6,1.5.9,3.1,1,4s0,.7,0,1h-3c1.1-2.5-.2-3.7-1-6,1-.1,1.7-.9,2-1s.7,0,1,0c.9-.2,3.7.3,4,0s-.4-4.8,1-6c3.9-.6,2.8-.2,6,0Z"/>
      <path class="st13" d="M419.5,503.7c.3,1.5-.2,3.4,0,5,5.3-.8,12.5,1.9,16.5-2-.3,3,8.6,2.4,9.3,1.7s0-1.7.2-1.8c.3-.2,2.2.2,3,0-1.4,14.5-21.6,18.6-29,6-2.3-4-3.2-10-1-14-.2,2.9.7,3.4,1,5Z"/>
      <path class="st13" d="M390.5,506.7c-.2,1.8-.4,8.4,2,6s-.2-3.8,2-4c0,1.5-.2,1.9,1,3,3,2.7,6.6.3,9,0,4.3-.5,1.9,3.1,6,1-.1.3.2.8,0,1-6.3,9.5-21.2,9.4-26.9-.6s-.7-3.5-1.1-4.4h1.3c1.2-3.5,4.1-1.4,6.7-2Z"/>
      <path class="st13" d="M357.5,511.7c.6.2,1.5,1.9,2.5,1.8s1.3-1.7,1.5-1.8,4.8.9,5,1-.4,1.5.7,2,3.7.3,5.3,1c-6.3,6.4-12.3,7.1-20,2,3.2-.9,2.3-3.5,3-5s0-.8,1-1,.8,0,1,0Z"/>
      <path class="st13" d="M313.5,514.7l7-1c.5,1.3-1.4,4.5-1,5,1.3,1.4,3.4-4,5.5-2.9l11.5.9c-1.1,1-1.2,2.2-3.3,3.2-7.1,3.5-15.2,1.1-19.7-5.2Z"/>
      <path class="st15" d="M513.5,513.7c5.7-3,5.9,1.2,7.8,1.9s4.3.9,5.2,1.1c-.4,1.4-.2,3.2-1.8,4s-6.6,2.8-6.9,2.9c-2.3.5-7.8-1.1-5.3-3.9.3-.3.9-.7,1-1,1.2-.2,2.7.2,4,0,.3-.8-1-1.8-1-2,0-.8,1.3-1,2-1v-1s-4.3-.2-4.3-.2l-.7-.8Z"/>
      <path class="st11" d="M298.5,491.7c.1,0,.8-1.3,2.7-.3s4.2,3.8,4.3,4c1.6,3.4-.5,8.8,3,8.3-.3-4.1,2.7-11.5,6.8-12.8s3,0,4.3-.2c-6.3,4.5-10,10-9,18-.2-.3-.7-.7-1-1-1-.9-1.5-1.2-3-1,0-1.1.3-2.5-1-3,0-.4,0-1.9,0-2,.2-2.1.1-2.2-2-2-1.2-3.5-2-5.7-5-8Z"/>
      <path class="st13" d="M486.5,501.7c3,5.8-9.1,6.8-7,0,3.1-.8,6.7.2,7,0Z"/>
      <path class="st15" d="M494.5,500.7c3.8,2.8,2.9,6.1-2,5-.2-.2-2.8.5-3-3.6s1-1.6,2-2.4c.3,0,.7,0,1,0s1.9.9,2,1Z"/>
      <path class="st13" d="M516.5,516.7c0,.2,1.3,1.2,1,2-1.3.2-2.8-.2-4,0,.2-.9-.1-2,0-3l3,1Z"/>
      <path class="st13" d="M377.5,506.7c-.2,1.9-.6,2-1,3l-1-.5c-.2-2.3-.4-2.8,2-2.5Z"/>
      <path class="st12" d="M309.5,507.7l-3,1c0-.3,0-.7,0-1s0-.7,0-1c1.5-.2,2,0,3,1Z"/>
      <path class="st11" d="M306.5,508.7c-.2,1.1-.8,1.5-1,2l1-3c0,.3,0,.7,0,1Z"/>
      <path class="st10" d="M476.5,502.7c-.3,4.7-.4,3.9-1,0h1Z"/>
      <path class="st12" d="M512.5,519.7c.3-.3.8-1,1-1,0,.3-.7.7-1,1Z"/>
      <path class="st9" d="M280.5,242.7c2.7,2.7,2.8,6.4,5,9.5,3.2,4.6,8.7,6,12.1,9.9s8.4,13.3,9,9c0-1.2,0-2.3,0-3.5,4.8,6,10.9,8.6,15.4,15.1s.9,3.8,1.8,4.7c1.7,1.8,7.5.3,9.8.2,7.2-.4,2.7,2.6,4,4,5.7-1.1,10.3,1.4,12.8-5.7s-1.8-3.2-1.9-3.8c-.4-6.7,5.9-6.5,10.6-6.4s4-1,3.5,2c-3.2,0-10-1.1-11.6,2s1.2,4.6,1.3,6.7-3.5,5.2-.8,8.3c-4.4-.6-9.5-1.7-14-1s-7.2,3.6-7.8,5.7c-1.8,6.1,1.3,11.5,5.5,15.3,1.9.5,7.5-.6,8.3,0s-.4,1.7.7,2c3.8,1,13.2-.1,14.3-5,1.8,1.9,6.8.6,9,0s2.8.2,3,0c-.4,4.5,5.8,5.1,8,9-.2.3.2,1.8,0,2-1.8,1.4-4.8-4.8-7.4-5s-10.7,3.3-11.1,3.9c-.7,1.1-1.8,12.7-1.3,14.4.8,2.6,7.1,5.4,9.8,5.7,0,.4,1.8.9,2,1.7.5,2-.6,6,.2,7.1s2.6.5,3.6,1.4c1.9,1.7,2.1,6,6.3,6.7l1,5c-1.5.4-2.6,3.5-3,4-2.5,3.6-4.3,6.1-4,11-1.6-.9-9.8-.3-12,0s-2-.8-2.1,1.5,1.6,3.8,1.7,5.1-.9,3.7-.8,5.8c.2,3.9.5,8,1,11.9.7,1,6.3.9,7.5.6s.6-2,.6-2c2.1-1.4,4.1-1.7,6-4.5s.8-3.4,1-3.5c.3-.3,5.5,1.7,7,1-.5-1.6-.6-3.5-1-5h1c9,4.4,13.9,7.4,20-2.2s1.9,0,2-3.2c.3-4.8-1.3-7.9-4.1-11.6,10.3-2.9,11.2-3.5,13-14s0-3.5,0-4c.2-2.3.9-4.2,1-7l42.7,9.7c4.9.1,11.8-3.6,16.3-4.7s5.4-.4,8-1c-.3,2.3,1.8,5.1,2,6.6.6,6,.4,5.9,1.8,12.1,2.2,10.5-3.2,10.4-3.8,16.7-.5,5.5,6.1,21.6,4.1,23.6s-5-1.6-4,2l5,.5-4,9.5c-13.2,4.4-19.5,15.7-21,29-.8-.3-3.7,0-5,0-5.1-.3-10.9-.1-16,0,.8-1.9-4-3.6-4.8-3.7-2.8-.5-7.5.3-9.2-.8s-1-3.9-3.2-4.9c-6.3-2.8-16.1-2.7-22.1-4.7s-.6-1.9-.7-2c-.3-4.2.5-8.9,0-13s-11-15.3-13-6c-1.4-1.2-2.4,3.1-3-4s.1-3.4,0-5c-5.7-1.4-7,1-10.8,2.8s-4.8-1.6-5.3,4.2c-.1,1.3,0,2.7,0,4-4.9-2.4-7.5-8.4-8.2-8.8-1.1-.6-2.9,0-4.1-.4-2.3-.8-2.8-5.4-10.2-4.9s-13.4,12-14.5,17.1,0,.7,0,1c-3.9.2-7.7-3.8-11-5v-7s8,0,8,0c-.6-4.2.4-11.7-2.5-15s-2.2-.7-2.5-1c-.6-.5-.9-2-2-2.5s-7.1-.6-7.5-.5c-2.3.3-2.9,1.8-2.5,4s2.2,1.6,1,5c-2.9-1.2-8.7,4.1-8,6.5s7.4,3.4,0,5.5c0-.6.1-1.8,0-2s-1.4,0-2,0c-2.6-2.3-5.1-.2-7,0-6.5.5-2.9-8.8-10-9,.3-1.4-.4-3.8,0-5s1.6-.5,2-2.5-.5-6.7.2-7.4,3.1.2,3.7-1.7-.3-5.9,1.1-8.4c0,0,.7,0,1,0,.3,2.7,7.9,2.5,8.8,1.8s0-1.7.2-1.8c1.1-.8,5.8-1.8,6-2,1.3,2.1,1.8,9.4,3.6,9.9s4.4-1.3,6.4.2c-1.9-7.3,10.8-8,14-4s-.6,1.8.6,2c6.8,1.6,13.1-1.5,9.4-9l10,2c-.3-2.8,2.2-4.4,2.8-6.7s-.2-4,.2-5.6,3.3.3,1.3-5.5-8.7-4.9-10.8-8.2-1.4-4.6-2.3-6.7-2.6-2.6-3-4c-1.1-3.8,1.2-8.6.1-11s-2.1-1.1-2.3-1.2.5-1.9-.6-2.1-5.4.3-5.7.4c-6.3,1.7-2.6,16.9.4,20.7-.5,0-1.4.9-2,1-4,.8-6.1,1.7-9.5,4-6.6-6.8-11.5-12-20.5-5-1.2-5.5-11.2-13.2-12-17.5s0-1.6,1.5-1.6c4.2,0,8.9,1.9,13.5,1-.3-3.7-4-5.5-6-8,2.8.5,22.2-.2,23-1s.2-8.3,0-9.5c-.7-3.7-7-6.1-4-10.5-2.6,0-9.8.6-11-2s.3-2.7,0-3-4.4.6-4.8,1.2c-1.6,2.6.2,11.2-1.7,15.7s-3.1,1.3-2.4,6.1,0,2,0,3c-2.6-.7-1.5-1.2-2.8-1.9s-2.1.2-2.9-.4c-2.2-1.6-4.7-5.8-5.1-8.5-.6-5,4-16.9,5.6-22-.4-6.4,4.8-12.3.7-18.3s-2.6-1.6-3.5-2.8c-3.7-4.8-9.3-14.5-10.8-20s.8-2.9.8-3.2Z"/>
      <path class="st2" d="M498.5,261.7c2,.4,4,.7,6,1,0,.3,0,.7,0,1s0,.7,0,1c.4,3.8.3,9.1,0,13-3.5,1.7-5.2-3.1-5.5-3-1.2,0-2,1.4-3,1.6-2.4.5-3.4-2.4-3.5,1.5-6.7-11.5-9.8,9.1-5.3,10.9s1.7,0,2.3.1c-1.6,2.7.2,5.5-.4,8.1-.4,1.8-2.4,1.8-2.6,2.6-.5,2.2,1.6,7.9-2,7.3,0-2.7-.5-7.2,0-9.4s2.5-.2,2.9-.7.3-3.8.2-3.9c-.4-.4-9.1-.6-10,1.5-1.5,3.6,2.7,1.8,3.1,3,1.2,4.1-1,13.6,0,18.5-.5,0-1.8,1.5-3,1,0-.3,0-.7,0-1,0-2.8-2.2-22.2-3.1-22.9s-3.8-.3-4.4-.1c-1.2.4-3.4,20-3.6,23.1-.2,0-1.1,1-2,1,1.5-6.7-3.9-1.9-5-6.5s4.4-2.3,5-5c.6-3.1-4.9-2-5-3-.8-4.2.8-6,5-5.5,2.6-5.1-8.6-3.4-9-3-.8.8,0,20.2,1,23-1,0-2,.1-3,0,1.1-3.2-2.7-7.6-2.8-9.7s1.6-2.4,1.8-3.9c1-8.8.3-10.4-9-9.5v23c-1-.1-2,0-3,0-.9,3.7,3.8.3,3,4-2.6,0-5.3-1-7-1-2.4-.5-17.4-.3-18-1s.2-3.1,0-4c-3.5-.7-1.2,4.7-5,4-2.7-4.8-5.3-6.7-4-13-5.1-1.3-1,3.3-5,3,0-4.7,1-10.4,1-14,1.4-.8,1.4-2.2,0-3,0-.4-1-1.9-1-3.4,0-7.5,0-15,0-22.5l53.4-13.1c13.6,2,27,6.4,40.5,9.1ZM466.5,274.7c0,.7,0,1.4,0,2-.8-.2-2.7.3-3,0s.5-2.9-1.5-2-.9,8.6-3.5,6-.5-9.6-4.5-3l-2.5-2-2,5c-.3-1.2.4-4.5,0-5s-1.4.2-2,0-.7,0-1,0c-2.1-.3-3.7-1.3-5.9.1.6,2.1-.2,12.1.3,12.9,1.7,2.4,4.4,0,5.6,0s.7,0,1,0c3,0,6.3-.4,9,1,.2-6.9,2.3-1,2.6-1,2.4.5,3.9-1,4.4-1s.7,0,1,0,1.1,1.3,2.4,1.1.5-3.6,2.6-2.1-1.2,1.5,2,2,1.4,0,2,0c2,0,5.9,1.1,5-2-6,2-1.6-10.4-3-12s-2.2,0-3,0-1.5.2-2.3,0-3.4-5.6-3.7,0ZM481.5,278.7c-.2-1.2.2-2.7,0-4-5,.2-.6,10-2,14h5c.6-3.1-1.1-1.5-2-2,.7-3.1-.5-5.5-1-8ZM414.5,276.7c-1.1,1.2-2.1,6-2.1,7.6,0,2.9,1.3,2.4,2.1,3.4s-.5,1.7.5,2c3.1,1,2.2-2.1,3-2s.2,1.4.7,1.8,4.4.2,4.8.2c.6,0,1.5.1,2,0,2.1-.6,1.8-4.5,4-3s-1.2,1.4,2,2,1.4,0,2,0c3.1-.3,1.3-.2,2.5-3l2.5,3v-13c-1.8-1-4.4,1-5,1-1,0-2,0-3,0s-2.2-.9-4-1-2.1,0-3,0c-4.9.5-2.3,1-4,6-1.9-.1-1.2-5.4-2-6s-2.1,0-3,1ZM438.5,298.7c.3-1.3,5-3,3-5s-9.7-.4-10,0-.1,3.6.2,3.9c.4.5,2.7-.5,2.9.7.9,4.4-1.3,14.9,0,18.4s3.3,1.7,4,0,0-1.4,0-2c3.5.1,2.8.6,3-2.5s.3-7.9,0-11.1.5-2.6-3-2.5Z"/>
      <path class="st9" d="M516.5,118.7c2,.1,4,.9,6,1-3.6.6-4.7,1.9-6.8,2.9s-2.1-.2-2.9.3-4.4,5.9-4.8,6.8c-1.9,4.3-.7,7.1-1.5,10.3s-3.1.8-3.1,3.2,2.7,6.6,3,6.9c.7.9,2.2.3,2.8.9s.2,1.6.3,1.7c-2.1.9-8-1.3-9-.6-2,1.4-4.6,12.1-8,13.6-1.2-3.2-.9-12.9-2.5-15-1.1-1.5-9.3-2-11.5-1.9-1.1,1,6.8,25.2,6.9,29.6s-2.9,14.3-1.9,15.4,9,1.4,9.8.9,2-12,2.9-14.6c2.6-7.3,11.5-16.1,15.2-22.3,8.9,12.2-3,23.1-3.9,35.6-.4,6.7,1.8,12.8.6,19.6-1.4,7.7-6.5,4.4-11.5,6.5s-6.3,5.2-6.3,6.7c0,4.3,12.6,13.3,13.6,16.5,1.2,3.9-3.1,7.3-3.4,9.7s3.5,8.6,3.8,10.3c-2-.3-4-.6-6-1,.6-3.1-2.5-1.6-4.6-2.9-5.4-3.4-.8-7.9-.4-11.5,1.2-10-9.4-16.2-9.8-21.2s10.4-7.7,12.3-14.3.7-7.6.5-10.6c-.7-9.8-2.4-3-7.4-3.4s-6.7-5-7.1-5-2.1,2.9-3.4,1.9,0-1.7,0-1.9c4.2,0,2.5-7.4,4-10l-13-2c0-.3,0-.7,0-1l5-33c4.5.1,4.1-.8,6.4-.9s4.9,1.6,5.5.9-.2-2.7.5-4,2.6-1.5,3.2-2.3c.9-1.3,1.1-3,2.3-4.2,3-3.2,13.8-11.1,15-14s-1.4-1.4-2.5-1.5c-2.8-.2-5.7,0-8.5,0s-4.9.7-6-1c3,0,6,0,9,0s6-.9,8-1c2.9,0,6.1-.2,9,0ZM499.5,190.7h-2c-.3,1.5.4,2.1,1.5,3l.5-3Z"/>
      <path class="st2" d="M511.5,157.7c-3.7,6.2-12.6,14.9-15.2,22.3-.9,2.6-1.9,14-2.9,14.6s-9.5-.6-9.8-.9c-1.1-1.1,1.9-12.7,1.9-15.4-.1-4.4-8-28.6-6.9-29.6,2.2,0,10.5.5,11.5,1.9,1.5,2.1,1.2,11.9,2.5,15,3.3-1.5,6-12.2,8-13.6s7,1.5,9,.6c1.1,1,4.8.3,2,5Z"/>
      <path class="st12" d="M504.5,264.7c6.4,2.2,3.2,6.8,4.2,12.3,1.4,7.4,7.4,15.5,2,24l2.7,6.7c0,1,0,2,0,3-3.3-.6-1.5,1.4-2,3s-1,.8-1,1c-3.2.9-7.7-2.6-9,1,7.2,1.5,3.6,2.5,3,5h-5l1-6c-4.6-.7-10.7.7-12,6-4,0-8,0-12,0,.2-1.3.9-2.7,1-4,1.2.5,2.5-.9,3-1,1-.2,3.8.3,4,0s0-3.9,0-5l7.7-7.8c1.3-1.9,7.1-4,7.8-5.1,1.1-1.9,0-4.4.5-6s1.9-2.9,2-3,1.7.5,2-.7.4-4.7-1-5.3c.3-1.5.9-3.7,1-5,.3-3.9.4-9.2,0-13Z"/>
      <path class="st11" d="M513.5,313.7c0,9.7-.4,19.4.6,29-10,3.2-20.4,6.4-30.6,9-2.6.6-5.9.5-8,1,.8-6.2,10-2.8,12.8-5.2s4.3-9.6,4.3-10.1-1.9-1.2-2-1.6c2,.2,4.7-1.8,6-2s1.3,0,2,0c5.1-.3,5.4,4.5,5-6l-2.5,2c-.8-2.4-1.2-1.5-2.5-2s-1-1-2-1c-.1-1.6,0-3.3,0-5h8c.1.5,1.3,1.8,1.7,2.8s.1,2.9.4,3.1,3.6.2,3.8,0c1.7-1.5,0-10.4,0-12.9s.9-.7,1-1h2Z"/>
      <path class="st7" d="M513.5,307.7l-2.7-6.7c5.4-8.5-.7-16.6-2-24-1-5.5,2.2-10.1-4.2-12.3,0-.3,0-.7,0-1,2.4,1.3,8,0,8.9,2.6.2,13.8.1,27.6.1,41.4Z"/>
      <path class="st7" d="M513.5,310.7c0,1,0,2,0,3h-2c.5-1.6-1.3-3.6,2-3Z"/>
      <path class="st11" d="M458.5,451.7c.6,3.2-1.6,1.7-3.5,2-8.8,1.2-15.7.1-24.5,0-.8,6.2,7,3.5,11.4,4.1s8.5,1.4,10.9,1.9,1.6,4.3,5.2,5,8.4,1,9.5-2c.5,1.8,2.6,4.2,4,6h-11c-.9,6.6,5.3,8.6,6,14-4.7-.4-12.2-3.6-16.7-5.8s-3.4-3.5-5-4c-3.9-1.1-11.5-.7-16.6-2.4s-3.1-4.4-6-3.7-2.4,3.4-4.7,2.9c-.2-8.8-9.8-7.6-11,0-6.4-.2-12.8-.7-19-1s-2.5.5-4,1-.7,0-1,0h-1c0,0-.2-1,.3-1.7s2.1.3,1.7-1.3c-5.8-4.2-7.1,0-11.8.8s-7.6-1.9-7.2,2.2c-1.4,0-2.9,0-4,0-.2-.9.5-3-.5-3-1.7,0-7.8.8-6.5,3-2.2.1-5,.7-7,2,.1-1.1,0-2.9-.9-3.6s-8-1.5-8.6-1.5c-1,0-.4,2.1-.5,3-1.8.4-.7-1.7-1-2-1-.8-2.7,1.7-4.3,1.8-3.3.1-3.3-2.9-6.1-2.9-4.6,0-5.6,2-8.6,3.1s-4.8,2.2-9,1,0-1.5-2-1v3c-1.5-.5-.7-1.3-1-2-1.1-2.5-2-1.6-2-4,3.4,0,8.7-.2,11.8-1.7s1-2.1,1.2-2.3c.7-.7,1.3-1.4,2-2s3.4,0,3-4c1.4-.5,1.1,1.7,2,2s9.3.2,10.4-.1c2.2-.7,1.5-3.1,1.6-4.9s0-.7,0-1h43c6.7,6.8,7,.4,8.7,0s2.9,0,4.3,0c17-.9,35.2-.6,52-1s10.9-.3,16,0Z"/>
      <path class="st0" d="M471.5,468.7c2.4,3,4.5,5.7,8.5,8,2.7,1.6,11.1,3.5,11.5,4s-.2,1.8,0,2c.3.2,7.7.9,8.5.8,2,0,11.6-3.7,12.5-2.8,2.4,2.5-5.9,6-7,7-3.2-1.2-5.2,3-5.6,3-7.9.3-18.8-7.1-25.4-8s-5.4.2-8,0c-.7-5.4-6.9-7.4-6-14h11Z"/>
      <path class="st11" d="M284.5,476.7l.5,1,.5-1c.7,0,1.4-.1,2,0,.2.5.5.9,1,1s.7,0,1,0c1.6-.1,2.8-1,3-1,1,0,2,0,3,0,1.5,0,2.2,0,4,0,2.8-.1,5.2.6,9,0-.9,3.6,3.4,1.4,4,2,1.6,1.7-2.3,5.1-4.5,5.1s-4.3-6.4-6.5-1.5,4.3,2,4.9,2.6c3.7,4.6-4.9,4.2-8.2,3.6s-2.3-2.8-4.2-2.9-7.5.6-6.5,3.1v1c-.5,0-.9.5-1,1h-3c-2.2-6.9,0-8.2-8.4-8.9l.4-4.1c1.4.2,3.5,0,5,0s1.8-1,2-1c.7,0,1.3,0,2,0ZM277,479.7v1c.6-.3.6-.7,0-1Z"/>
      <path class="st11" d="M474.5,482.7c6.7,1,17.5,8.3,25.4,8s2.4-4.2,5.6-3c-1.1,1-3.5,4.7-6.1,6.4-8.4,5.5-7.3,1-13.1-.8s-10.5-1.8-14.9-2.7c-1.1-3.7,4.2-1.2,5-2l-2-6Z"/>
      <path class="st15" d="M316.5,469.7c2.5,3.3,9.6-.3,10,0s2.6,6.6,1,7.5-10.8-.4-12.5-.6-2.3-1.5-3.1-1.6-2.5,1.5-3.5,1.6c-3.8.6-6.2-.1-9,0-.7-.7-1.3-1.4-2-2-1.8-1.5-3-1.1-1-4,2.7,0,5.3,0,8,0,.3.7-.5,1.5,1,2s2.2-.4,2-2c4.2,1.2,5.3.4,9-1Z"/>
      <path class="st15" d="M406.5,469.7c2.7,0,5.3,0,8,0v6c-5.3,1.5-5.9-2.8-10.6-2.1s-1.3,1.8-2.2,2c-1.8.6-5.1,0-7.3,1-.9-.8,2.9-4-.5-4s.8,2.6-2.4,3.6-5.9,0-9.1-.5c.3-.3.8-.6,1-1,.9-1.5,1.4-2.1,1-4,1.2-.4,2.5-.1,3-2,6.2.3,12.6.8,19,1Z"/>
      <path class="st15" d="M360.5,469.7c1.1,0,2.6,0,4,0,2.8,0,1.5,1,3,3,0,1.3,0,2.7,0,4-2.2,0-9.7-.6-11-2.1s.6-4.5,1.1-4.8,2,0,2.9-.1Z"/>
      <path class="st13" d="M353.5,469.7c.8,0,1.7,0,2.5,0,2.2.3-1.5,3.4-2.4,3.9-1.6,1-2.9-1.5-1.1,3.1h-7c-1-1.9,1-4.7,1-5,2-1.3,4.8-1.9,7-2Z"/>
      <path class="st13" d="M343.5,469.6c.1.1.9,3.4.9,3.6,0,.5-3.1-.2-.9,3.4h-6s0-6,0-6c1.3-.4,2.7.9,3.6.9s.7-3.8,2.4-1.9Z"/>
      <path class="st13" d="M367.5,472.7c.1-3.2.7-5.4,2.5-1l1.5-2c-1.6,4.3,1.9,5,2,5.5.8,2.5-5.1,1.5-6,1.5,0-1.3,0-2.7,0-4Z"/>
      <path class="st13" d="M504.5,501.7c.2,1.1-.3,3.2,0,4-1.1,1.8-4.1.8-6,1-.6-1.9.8-3.6,1-5h1c1.3,0,2.7,0,4,0Z"/>
      <path class="st13" d="M380.5,470.7v5c-.7,0-1.3,0-2,0-1.1-5.9,1-4.2,2-5Z"/>
      <path class="st4" d="M382.5,469.7v1c-1.7,1-.9,3.1-1,5-.3,0-.7,0-1,0v-5c.3-.3.7-.7,1-1h1Z"/>
      <path class="st4" d="M384.5,470.7c.4,1.9-.1,2.5-1,4l-1-4c.2-.1.7,0,1,0s.7.1,1,0Z"/>
      <path class="st13" d="M290.5,489.7c.9.3,2.3-.3,3,1-2.3-.1-4.7,0-7,0,.1-.5.5-.9,1-1,.9-.2,2,.1,3,0Z"/>
      <path class="st13" d="M383.5,474.7c-.2.4-.7.7-1,1-.3,0-.7,0-1,0,0-1.9-.7-4,1-5l1,4Z"/>
      <path class="st13" d="M383.5,470.7c-.3,0-.8-.1-1,0v-1c.3,0,.7,0,1,0v1Z"/>
      <path class="st11" d="M492.5,499.7l.5-1c1.8-.3,1.6.3,1.5,2-.1,0-1.9-1-2-1Z"/>
      <path class="st11" d="M499.5,501.7c0-.1-1.9-1.7-.5-2,1.8-.3,1.6.3,1.5,2h-1Z"/>
      <path class="st13" d="M413.5,505.7c0,1.8-1,1.9-1,2-1.8-1.7-1.3-2.3,1-2Z"/>
      <path class="st0" d="M290.5,489.7c-1,.1-2.1-.2-3,0v-1c1.3-.4,2.3.8,3,1Z"/>
      <path class="st13" d="M381.5,504.7c0-.3,0-.7,0-1l1,.5-1,.5Z"/>
      <path class="st13" d="M418.5,497.7c.2-.7,1-.9,1-1l-1,1Z"/>
      <path class="st13" d="M382.5,499.7c.2-.4.9-.7,1-1l-1,1Z"/>
      <path class="st2" d="M517.5,95.7c1.9,3.9,3.1,7.5,1.3,11.7s-4.1,3-4.3,3.9c-.3,1.3.4,5,0,5.3-.8.9-7.9-2-7,2-2,0-5,.9-8,1-1.5-5.4,5.1-2,6-3s0-3.5.5-5c.8-2.3,5.6-6,2.6-8.4-3.5-2.9-18.1.9-23,2-10.2,2.2-21.2,5.6-31.2,8.8s-14.9,3.7-25.3,4.7-4-1.2-3.5,2c-5,0-10,0-15,0,0-.6.2-1.9,0-2-.4-.3-9.7-1-8,2-7.5-.4-9.5-1.6-16-3-.6-3.9,2.3-.6,4.3-1.1s2.1-2.6,4.2-2.9,4.5,1.4,5.8,1,1.1-3.7,2.2-4c2-.6,10,0,12.9,0s2.9,1,3.9,1,.6-2.6,5.1-3c8.8-.9,19.3,1.1,27.9,0s19.6-5.9,26.4-6.7,8.8.6,13.5-.4c1.6-.3,6.4-1.2,5.7-3.8,6.4-.6,12.6-1.2,19-2Z"/>
      <path class="st7" d="M293.5,88.7c-.6,3,1.5,1.9,3.5,2,6.8.3,12.1-.4,18.5-1s2.3-.9,3-1c1,0,2,0,3,0s4,1.1,7,1c0,3.7,4.6,6.7,5,11l-57.4,2.9c-3-.4-5-1.4-3.2-4.6s2.8.4.7-4.2c6.8,1.2,4.2-1.9,5.2-2.8s3.6-1.2,3.8-1.2c3.1-.4,8.9,1.6,8-2,1,0,2,0,3,0Z"/>
      <path class="st0" d="M532.5,93.7c0,2.2.2,6.8,0,8.4s-1.7.5-1.9,1.3c-.4,1.6.3,3.3-.5,5.3s-3.4,3.1-4.5,4.5-.8,3.1-1.1,3.4c-1.4,1.3-8.5-2-7.9,2.2-2.9-.2-6.1,0-9,0-.9-4,6.2-1.1,7-2s-.3-4,0-5.3,3.2-1.5,4.3-3.9c1.9-4.3.6-7.9-1.3-11.7,5-.6,10.1-.7,15-2Z"/>
      <path class="st7" d="M504.5,78.7c.1,0,1-1.1,2.4-1.1,6.7,1.8,16.5-.2,22.9,2s2.6,4.3,2.6,5c-3.6-.9-1.4,3.5-2,4s-3.1-.3-4.3,0-1.4,4.6-8.2,3.1-.2-2.2-.8-2.9-2.6,0-2.8-.2.5-1.9-.2-2.7c-1.4-1.6-9.7-3.1-9.8-7.3Z"/>
      <path class="st12" d="M328.5,89.7c1.5,0,5.9-1.9,6.9-.9s-.3,2.1.2,2.7,7.1,1.1.6,2.2,1.9,2,2.1,2.2c.9,1-1.4,4,4.2,2.8l-9,2c-.4-4.3-5-7.3-5-11Z"/>
      <path class="st0" d="M503.5,89.7c3.5,2.7-8.5,1.9-9.5,2-9.2.9-18.2,2.9-27.5,2l37-4Z"/>
      <path class="st0" d="M490.5,87.7c.2,1.5-2.6,1.8-3.6,1.9-6.3.7-13,.9-19.4,1.1-1.6-1.3,0-1.8,1.5-2,6.5-.8,14.8-.4,21.5-1Z"/>
      <path class="st12" d="M280.5,87.7l1.5,1,.5-1c2.7,0,6.8,1,8,1,.9,3.6-4.9,1.6-8,2-1.6-1.9-4.8.3-4-3,.7,0,1.3,0,2,0Z"/>
      <rect class="st0" x="445.5" y="89.7" width="16" height="1"/>
      <rect class="st0" x="511.5" y="87.7" width="2" height="4" transform="translate(421.6 602) rotate(-89.9)"/>
      <path class="st8" d="M496.5,120.7c2.8,0,5.7-.2,8.5,0s3.3-.6,2.5,1.5c-1.2,2.9-12,10.8-15,14-1.2,1.3-1.4,3-2.3,4.2s-2.5.9-3.2,2.3-.4,3.9-.5,4c-.7.7-4.4-1-5.5-.9-2.4.2-2,1-6.4.9s-2,.1-3,0-1.3,0-2,0-3.8-2.6-5.6,0-2.6,20-3.4,24.1c-.2.2-.8,3.2-1,4-.5,2.1-2.6,14.4-2,15,1.3.2,2.8-.2,4,0s.1,1,1,1c1.9,0,2.8-.8,4-1s.7,0,1,0c.8,2.6,3,1.8,5,2-.5,4.1,2.3,1.3,4,1s1.9,0,2,0c.2.2-.3,1.6,0,1.9,1.3,1,3.1-1.9,3.4-1.9.5,0,2.4,4.6,7.1,5s6.7-6.3,7.4,3.4c.2,2.9.3,7.8-.5,10.6-1.9,6.6-12.9,7.3-12.3,14.3s11,11.2,9.8,21.2-5,8.1.4,11.5c2.1,1.3,5.2-.1,4.6,2.9-13.6-2.7-26.9-7-40.5-9.1l-53.4,13.1c0,7.5,0,15,0,22.5,0,1.5,1,3,1,3.4,0,1,0,2,0,3,0,3.6-1,9.3-1,14s0,2.7,0,4c-7.3,1.8-20.9,1.6-26,8-2.2-3.9-8.4-4.5-8-9,.1-.1-.5-1.8.7-3.1,6-6.3,13.1-4.9,15.1-15.7,1.1-6-4.2-9.5-3.7-11.7s5.4-1.1,3.9-9.1c-.8-4.3-3.1-1.5-4-1.5-3-.2-5-2.7-7.3-1.9s-4.3,7.1-4.8,8.7c-.6.5-6.2.1-7.9.2.6-3-1.5-2-3.5-2-4.7,0-11-.3-10.6,6.4s3.2,0,1.9,3.8c-2.5,7.2-7.1,4.6-12.8,5.7-1.3-1.4,3.2-4.4-4-4-.1-1,.9-2.3,1-3,2.4.4,4.1-1.3,6-2s2.6.4,3,0-.1-2.9.3-4.2c.7-2.2,1.9-4.1,2.5-6.5s-.1-4.7.4-5.2,1.9.2,2.6-.3.9-2.6,1.8-3.7c1.4-1.7,2.8-.8,3.5-4.1s0-.7,0-1c7.1.4,3.6-20.9,1.8-22.8s-1.7,0-1.8-.2c-3.1-3.3-6.1-7.9-11.4-7.9-10.1,0-14.5,12.9-20.6,12.9s-4.9-.9-5.3-1.1c-1.2-.4,0-2.1-2.7-1.9-1-3.6-6.6-8.6-10-9.5s-9.8-2.1-9,1.5c-1,0-4.8-.2-5,0-.3.3.3,3.1,0,4-.4,1.5-2.7,1.7-3,2.7s-.2,5.4,0,6.6,1.7.7,2.3,1.9c2.2,4.9,1.7,6.9,6.7,10.8-1.5,5.2,6.3,7,10,8,0,1.6.1,3.4,0,5s0,2.3,0,3.5c-.6,4.2-8.4-8.4-9-9-3.3-3.9-8.9-5.4-12.1-9.9s-2.3-6.9-5-9.5c0-1,.2-3.4,0-4l4.1-19.2c12.5-9.5,7.6-17,6.9-29.3s1.9-1.3,3-.5c.3,1.7.8,3.1,1,5s-.7.6-.7,1.3c.2,4.4,3.9,3.6,2.7-1.3,1.8-.2,7.8-1,8.6-1.9,1.1-3.5-3.1-10.4-1.2-13.1s7.4-.6,10.5-4.5c7.6-9.4,4.2-26.1-8.9-26.4-.3-1-1.2-.9-2-1-.7-2,1.8-1.8,2-2.7,1.3-4.7-2.8-3.2-5.5-5.3s-4.3-5.7-7-8-11.1-6.9-11.5-7.5c-1.5-3.1,8.4-.1,9-2.5h6c-1.4.4-2.8,1.8-5,1-2,1.6,7,5.9,7.9,6.6,3.2,2.2,5.5,5.3,9.6,6.4l13.5,15c-.2.4-1.9,7.5-2,8.5-.6,6.2-.7,19.6,2.2,24.9s3.3,2.9,3.9,4.6.4,7.2,2,1c.3,0,.7-.1,1,0h1c.6.3.7.2,1,1s-.2,1.8,0,2c.4.3,5.4-.7,9.3,1.9s.9,4.4,4.7,5.5c5.7,1.7,9.2-2.2,8,5.6h3c-1.3-8,2.1-6.4,6-9s-.2-2.1,1.6-2.8c2.6-1,10-1.1,12.7,0s1.9,3,3.1,3.8,3.5.7,4.6,1.4.7,3.1,1,3.5c-1.3-.2-2.9.2-4,0-3.5-.7-4.4-5.8-7.7-6.8-3.2-1-5.4,0-8.3.8s-2.6-.3-3,0-2.3,3.7-2.5,4c-2.2,4.8,1.2,4,4.5,6-.2,3.3,1.2,4.6-3,4-1.8-5.6-7-3.6-6,2.4,1.6,8.7,7,4.6,8,5.6,1.3,7-6,6.2-7,11,4.8-3.5,8.5,4.6,10.5,4s1.2-2.6,1.6-2.8c1.2-.7,1.4,2.9,3.9-2.2s1.3-4.7,2-8c.8-4.1,6.2-1.1,10.3-2.2s3.7-3.6,4.7-4.8,1.9.9,2.1-1.5-1.7-4.9-2.1-7.5c2.8.6,3.6,2.8,5.6,3,3.2.5,4.2-2,5.9-2.1s.4,1.8,1.2,2c1.4.4,11.2.3,12.7-.2,2.7-.8,2.2-4,3.7-5.3s8.1-3.5,10.3-4.7,2.4-2.6,3.7-3.3c5.7-2.9,8.1,1.6,5.9-7.6,4.6.4,9.1.3,13.6,2,2.8.6,3.7-9.3,3.3-9.9l-12-1.5c-2-1.3.2-4.5,0-6.5l4-17c7.9,3.9,3-4.7,4.5-7s6.1-.8,7.6-1.4c2.3-1.1,2.3-5.7,3.2-6.4,1.4-1,9.3-2.9,11.5-4s2.9-2.5,4.6-3.4c5.5-2.8,14.7-4.9,16.7-10.8ZM326.5,196.7c-.3.6-4.2,2.2-5.5,2.1-6.5-.8-6.5-7.9-9.5,2.9s-.7,2.3-1,4c-8.1-3.6-6.1,7.2-4.2,11.6s5.5,4.2,8.2,3.4,2.8-2,3-2c.8-.2,2.1.1,3,0s1.3,0,2,0c2.5-.3,3.8.6,6.5-.9,4.4-2.5,2-5.3,3.3-7.6,2.2-3.9,7.6-2,6.1-7.5-5.9,1.3-3.6-3.6-7.5-7-5.8-4.9-3.8-.6-4.5,1ZM382.5,230.7c-3.7-.7-6.2-2-8.8,2.7s-6.2,17.2-5.2,20.6,2,.6,2,.7c.3.6-.5,3.2.1,3.9,1.2,1.4,11.8,3.8,14.3,3s1.3-2.5,1.6-2.9c2.9-3.3,2.4-4.7,3.2-5.8s4-1.8,4.8-2.2c0,1.3,1.4,5.5,2.1,5.9,1.4,1,3.2-1.7,3.9-1.9,1.7-.6,5.8-1.2,6.8-2.2s1.7-4.4,2.6-6c1.8-3.4,3.1-.7,2.7-7.8s-4.3-.4-7.1-2.4-.5-4.7-2.4-5.6c-3.5-1.6-1.8,3.1-4.1,3.9s-6.9-.6-8.4-.9-3.8-.9-4-1c-1.5-1.1,2-.9-4-2Z"/>
      <path class="st6" d="M302.5,345.7c9-7,13.9-1.8,20.5,5,3.4-2.3,5.4-3.3,9.5-4l-6.3,7.7c-1,1-3.3.9-3.6,1.4s-.4,9.5-.2,10.3,2.1.5,3,1.2.9,1.9,1.4,2.2c1.1.7,3.2-.1,3.7.3s0,2.9,1,4.5,5,5.1,7.1,5.5l-4,1c-3.2-4-15.9-3.3-14,4-2-1.5-5.5,0-6.4-.2-1.8-.5-2.3-7.7-3.6-9.9.2-.2.5-3.2,1.9-4.6s4.5-1.5,5-3.1-1.5-7.4-2.2-8.1-9.5-4.1-10.1-4c-4.6.7-8.8,12.1-15.7,9.8,0-3.3,1.8-7.5,4-10s5.2-5.2,7-7,.9-1.2,2-2Z"/>
      <path class="st13" d="M289.5,364.7c6.8,2.3,11.1-9.1,15.7-9.8s9.6,3.7,10.1,4c.7.7,2.5,7.2,2.2,8.1-.5,1.5-3.5,1.7-5,3.1s-1.8,4.4-1.9,4.6-4.9,1.2-6,2c-2.9-.3-6.3.4-9,0s-1,0-1,0c-.2-.5.5-2.1-.2-2.8s-2.8.1-3.6-1.9-1.2-6.1-1.2-7.3Z"/>
      <path class="st1" d="M307.5,296.7c1.2,2.6,8.4,2,11,2-3,4.5,3.3,6.9,4,10.5s.4,9.2,0,9.5c-.8.8-20.2,1.5-23,1s-.7,0-1,0c0-1,.1-2,0-3,3.5-5,2.4-1.8,5-.5,4.5,2.3,2.7-2.4,4.2-3.3s8.3,1.1,6.8-4.2c-1.9-.2-6.6.7-7.6-.9s-.1-3.1-.5-4.4-4.6-2,1-6.7Z"/>
      <path class="st9" d="M300.5,347.7c-1.8,1.8-5.9,5.7-7,7-4.8,1.1-10.1-10.5-8.5-13s6.4,2.1,8.5,1.6c2.1,1.9,3.9,4.3,7,4.5Z"/>
      <path class="st3" d="M318.5,115.7c.5,1.6,3.5.6,4,1s-.2,3.8,0,5c-.9.3-4.1,1.6-4.5,2-2.1,2,1.1,1.9,1.5,2.7.8,1.9.6,5.4,2,6.8,2.3,2.3,1.7-.8,2-1.5s1-.7,1-1c1.4,3.6,4.4,1,7,0s1.9.5,2.7-.3.2-1.7.3-1.7,1.9,0,2,0c.2.1-.3,1.6.1,1.8.8.6,5.2-1.5,4.9-3.8h1c.9.5,1.9.9,3,1s2.9.1,4,0,1.4.3,1.9-.1,2.4-7.5,3.2-8.9v10c1.1-.2,3.3.4,3.9-.1s2-5.6,2.1-5.9c-1.8,5.5-2.1,6.8,3,8s8.5,2.9,9.6,3,2.7-1,3.3-.8.4,1.6,4.1,2.8.7,0,1,0c1.8.5,5.3,2.3,7,1.5s1-2.4,1.4-3.3,1.6-.2,1.6-.9c.1-1.2-1.5-4-1.1-4.4.8-.7,1.7,1.8,3-2s.9-1.8,0-4c4.2-.1,8.4.1,12.5,0s4,1,3.5-2c.3,0,.7,0,1,0,5,0,10,0,15,0,18.6-.2,37.3-.8,56-1l.5,1,.5-1c2.7,0,5.3,0,8,0,1.1,1.7,4.1,1,6,1-2,5.9-11.2,8-16.7,10.8s-2.9,2.5-4.6,3.4-10.1,3-11.5,4-.9,5.3-3.2,6.4-5.6-1.7-7.6,1.4,3.5,10.9-4.5,7c.1-1.3-.2-2.7,0-4,3.1,1.4,2.6-6.5,1-7s-8.7-1.2-9.5-1.1c-2.2.2-1.3,2-1.5,2.1-.5.3-3-.2-4,0-1.4-10.3-6.3-4.4-13-4,2.1,8.1,4,15.7,5,24l-1,9c-4.2.3-3.5-5-4.1-6.2s-1.9-1.6-1.9-1.8c-2.7-7.4-3.1-15.3-5.1-22.9l-10.9,1.9c3.5,8.8,3.1,30.8,9.5,37s7.7,4.8,14.6,5,2.5,2.7,4-1c0,.6.6.7,1,1,2.2,1.7,3.6.8,6,1s.7,0,1,0c2.1,9.2-.2,4.6-5.9,7.6-1.4.7-2.2,2.5-3.7,3.3-2.3,1.2-9.3,3.8-10.3,4.7-1.6,1.3-1,4.4-3.7,5.3s-11.2.6-12.7.2-.6-2.1-1.2-2c-1.7,0-2.7,2.6-5.9,2.1s-2.8-2.4-5.6-3-1.4,0-2,0c.8-2.4-1.9-1.9-2-2-.3-.4.4-2.6-1-3.5s-3.2-.3-4.6-1.4-1.2-3-3.1-3.8-10-1-12.7,0-1.5,2.7-1.6,2.8c-3.9,2.6-7.3,1-6,9h-3c1.2-7.8-2.3-3.9-8-5.6s-3.2-4.5-4.7-5.5c-3.9-2.6-8.9-1.6-9.3-1.9s.2-1.5,0-2c5,2.3,13.2-3.5,16.5-3s0,1.9.8,2.7,1.7.2,1.8.3c.3.4,0,2.5,1.6,2.9s7-1.1,9.3.1c1.4-2.3,1.6-11.5,3-12.5s9.1-1,11.5-1.5,2.7-1.6,4.1-1.9c3.8-.8-1,7.8,3.5,7,0,.6-.1,1.4,0,2-4.1,0-2.6,2.7,1,4s9.1,0,9.9-1.1c1.7-2.6-2.3-12.4-1.9-15.9l10-1.6c.9-11.4-3.4-8.5-12-7.4.4-1.9-1.9-8.1-1-9s11.1-1.3,11.9-2.1-.1-7.1-1-8.8c-1.1-.7-11.9.9-12.4,1.8s-.2,3.6-.7,5.3c-1.3,4.5-1.1,5.6-1.7,9.8h-2c-.3-3.3-4.4-8.5-7.3-10.2s-17.6-5.1-19.1-4.7-1.5,1.4-1.5,2.4l-4,21.4c1.9-15.3-3.4-28.9-21.3-24.8s-7.5,4.4-7.7,4.8l-13.5-15c-4.1-1.1-6.4-4.2-9.6-6.4s-9.9-5-7.9-6.6c2.2.8,3.6-.6,5-1,2.1-.6,2.8-.7,5-1s4.6,1.2,4-2c2.1-.6,4.3-.6,6-1s3.9-1.5,6-2Z"/>
      <path class="st8" d="M386.5,117.7c6.5,1.4,8.5,2.6,16,3s4.7,0,7,0c.6,3-1.5,1.9-3.5,2-4.2.1-8.4-.1-12.5,0,.9,2.2.5,2.4,0,4-6.9-.6-4,.3-5.5,4s-1,3.9-2,4c-2.9.1.5-8.1-.6-9.8s-6.3-1.6-6.8-1.1.9,3.3-1,2.9c.7-5.9-.9-3.1-4.2-4.3s-2.3-1.7-4.3-1.8-.7,2.3-2.5,2.1c0-.7-.5-1.7-1-2s-3.7-1.2-4-1c.3,1.3-.8,2.2-1,3,1.2-6-3.6-5-7.5-5.6s-3.3-2.9-3.3.8.9,6.2-.2,9.7c-1.1.1-2.9.1-4,0-.7-1.6-1.6-10.6-2-11s-2.2.1-3,0l2,10h-1c0-.7-2.7-7.7-3-8-1-.8-2.8,1-3,1-1,0-2.1-.1-3,0-1.6.2-2.4.9-3,1-2.2.4-4.3.1-7,1-.2-1.1.4-4.5,0-5s-3.5.5-4-1c7.2-1.9,23.1-7.3,29.5-7.1s28.5,7,38.5,9.1Z"/>
      <path class="st4" d="M287.5,121.7c1.9-5.4-3.5-3-3-5.5s2.4-3.1,4.5-3.4c9.3-1.3,9.8,2.9,17.1,3.6s7-2.6,6.4,1.3c-1.7.4-3.9.4-6,1s-3.1.4-4,2c-2.2.3-2.9.4-5,1h-10Z"/>
      <path class="st2" d="M298.5,148.7c2.1,0,5.4,0,8,0,13.1.3,16.6,17,8.9,26.4-3.1,3.9-9.8,3.4-10.5,4.5-1.9,2.8,2.3,9.7,1.2,13.1-.8,1-6.8,1.8-8.6,1.9s-1.3,0-2,0c-.2-1.9-.7-3.3-1-5-.9-5.6-2.1-11.4-3-17,0-1.6.6-4.1-1-5,0-.6,0-1.3,0-2-.1-2.5,1-4.6-2-4,0-.3,0-.7,0-1,0-2.7.7-5.9.1-8.9l7.9-3.1c.7,0,1.3,0,2,0ZM300.5,158.7c-.4.4,1.2,9.6,1.5,10,2.2,3.3,9.1-1.2,6.8-6.8s-6.8-4.7-8.3-3.3Z"/>
      <path class="st5" d="M288.5,160.7c-3.1.6-1.8-1.5-2-3.5-.9-6.2-.1-4.5,3.1-9.5,1.6-.6.5,2.1,1.5,2s3.2-1.1,5.4-1.1l-7.9,3.1c.6,3-.1,6.2-.1,8.9Z"/>
      <path class="st5" d="M304.5,147.7c.8,0,1.7,0,2,1-2.6,0-5.9,0-8,0,1-1.6,4.2-1.1,6-1Z"/>
      <path class="st5" d="M288.5,161.7c3-.6,1.9,1.5,2,4-2.8.7-2.1-1.5-2-4Z"/>
      <path class="st5" d="M291.5,172.7c-.2-1.5-.7-2.8-1-5,1.6.9.9,3.4,1,5Z"/>
      <path class="st2" d="M490.5,429.7c.2,0,2.9,2.8,3,3,.2.4.2,5.8,0,6-1.6,1.6-5.7-.5-4-4-2.6.8-2,3.9-2,6,7.1-3.1,7.3,9.4,5.5,13s-7.2,2.8-9,1-2.2-19.8-1.3-22.4,6-3.4,7.8-2.7Z"/>
      <path class="st0" d="M501.5,429.7c1.1.1,3.3.7,4,1.5,1.6,1.8,1.6,21.4,0,23.1s-7.7,2.2-9-.3c-2.1-3.8-1.2-17.6,0-22.3,1.6-.9.5-2.5,5-2ZM502.5,451.7v-16.5c0-1.5-3-1.5-3,0v15c0,.7,2.1,1.9,3,1.5Z"/>
      <path class="st15" d="M502.5,462.7c-.6,0-2,1-3.5,1-3.2,0-9.3.6-12,0s.1-3.1-1-3.1c1,3.9-5.3,3.7-5.5,2.4s.2-3.7,0-5.4c3.3.6,5.7,1.4,9,0v5c3.4,1,1.8-5.1,3.1-6s7.2,0,8.5.1.2,3.1,1.5,3.9c0,.7,0,1.3,0,2Z"/>
      <path class="st15" d="M507.5,467.7l-3,1,1,4c-4.3-.3-13.4,2-10.2-4.7s8.5-.6,12.2-.2Z"/>
      <path class="st6" d="M499.5,423.7c-.6,1.9,1.6,2.4,3,3l-1,3c-4.5-.5-3.4,1.1-5,2s-2.4-.4-3,1c0-.2-2.8-2.9-3-3,1.4-1.1,2.1-2.6,3-4s1.1-1,1-2c1.6,0,3.5-.2,5,0Z"/>
      <path class="st4" d="M488.5,466.7c.8,0,2.9-2.3,4.6,0s-.8,4,.5,5.5c-2.9,1.4-4.6.5-5-2.5s0-2,0-3Z"/>
      <path class="st15" d="M488.5,466.7c0,1-.1,2,0,3l-6,3v-6.5c.1-1.2,4.7.4,6,.5Z"/>
      <path class="st8" d="M487.5,423.7c1.3,3.8-6.7,5.1-10,6,2.3-2.4,6.8-5.4,10-6Z"/>
      <path class="st13" d="M510.5,428.7c-2.2-.5-6-1.2-8-2s-3.6-1.1-3-3c6,.7,6.7,2.1,11,5Z"/>
      <path class="st6" d="M514.5,455.6c-2.6.8-5.3-5.4-2.5-6s2.8,4.5,2.5,6Z"/>
      <path class="st15" d="M504.5,457.7c8-.9,3.1.8,5,5.5-1.2.3-2.5-.5-4-.5,1.6-.8,1-3.8-1-4v-1Z"/>
      <path class="st4" d="M504.5,457.7v1c-.6,1.8-1.8,5.5,1,4-.7,0-2.7,0-3,0,0-.7,0-1.3,0-2,0-1,0-2,0-3,.7,0,1.3,0,2,0Z"/>
      <path class="st13" d="M494.5,423.7c0,1-.6,1.4-1,2-2.5-.1-4.6,1-4-2,1.5-.2,3.4,0,5,0Z"/>
      <path class="st13" d="M517.5,436.7h-2c0-1.4-1.2-3.4-1-5,1.4,1.5,3.6,1.8,3,5Z"/>
      <path class="st1" d="M304.5,410.7c.6,0,1.8-.1,2,0s0,1.4,0,2c.3,3,.9,6.7,1.1,9.5s-1.9,13.8,1.4,14.5,2.2-3.2,3.5-4.4,9.9-4.7,10.4-4.6c1.3.3,1.7,4.7,3,5,2.3.6,2.6-4.8,5.5-4-.5,1.1,3.6,7.3,4,7.6.8.6,4.5-.8,6,.4.2.8-.4,2.3.1,2.9s3,.3,3.9,1.1c0,0,.4,1.8-.6,2-1.6.4-5.6-.6-6.3.1s.2,2-.3,2.6-2.7.3-3.3,1.2c-1,1.4-.2,4.3-.5,6.1s0,.7,0,1c-3.8.5-7.3,1.3-11,0s-.6-.8-1-1c-3.9-1.7-4.9.9-5,5s0,.7,0,1c-5.9,0-7.3,1.5-8-5,2-.6,8.3-9.6,3-9l-6.2-7.8c-1-.6-6.1-.3-7.8-.2s-4.2-.3-5,0c-1.6-2.2-4.1-3.7-6-5.5s-.9-2.4-1-2.5c3.3-2.3,1.6-8.7,2-9,2.9-2.7,5.2,5,5.6,5.1,7.7,2.1,7.6-9.4,6.4-14.1,1.3.7,3.4,0,4,0Z"/>
      <path class="st5" d="M287.5,401.7c7.1.2,3.5,9.5,10,9l1,9c-.7.8-6.8-2-8.5-1.9s-6.2,2.6-6.5,2.9c1-6-8.4-5.6-7.5-10.1s6.8-7.6,7.2-7.9c1.1-.7,3-1,4.3-.9Z"/>
      <path class="st6" d="M304.5,410.7c-.6,0-2.7.7-4,0,1.2,4.7,1.3,16.2-6.4,14.1-.4-.1-2.7-7.7-5.6-5.1s1.3,6.7-2,9c-.4-.3-3,.2-4,0-.3-1.7-.2-6.9,1-8s5.8-2.9,6.5-2.9c1.8,0,7.8,2.7,8.5,1.9l-1-9c1.9-.2,4.4-2.3,7,0Z"/>
      <path class="st5" d="M298.5,436.7c1.7,0,6.8-.4,7.8.2l6.2,7.8c-.2,2.8-5.8,3.7-6,4-3.5-3-9.1-6.9-8-12Z"/>
      <path class="st6" d="M312.5,444.7c5.3-.6-1,8.4-3,9s-2.1,0-3,0c0-1.1-.2-4.7,0-5s5.8-1.2,6-4Z"/>
      <path class="st9" d="M286.5,428.7c.1,0,0,1.7,1,2.5,1.9,1.8,4.4,3.3,6,5.5-.3.1-.8,1.7-1.5,2-2.4.9-1-1.9-1.7-2.7-1.3-1.5-6.9-1.8-7.8-7.3,1,.2,3.6-.3,4,0Z"/>
      <path class="st13" d="M309.5,453.7c.7,6.5,2.1,5.1,8,5,0,.7,0,1.3,0,2-.7.6-1.3,1.3-2,2-6.3-.9-9.1-2.6-9-9,.9,0,2.3.2,3,0Z"/>
      <path class="st13" d="M288.5,470.7l1,7c-.3,0-.7,0-1,0-.1-.5-.5-.9-1-1s-1.3,0-2,0-.7,0-1,0c-.7,0-1.3,0-2,0-1.3-2.4,3.9-5.3,6-6Z"/>
      <path class="st4" d="M292.5,471.7v5c-.2,0-1.4.9-3,1l-1-7c4.6-1.5,2.9.8,4,1Z"/>
      <path class="st13" d="M296.5,470.7c-2,2.9-.8,2.5,1,4-2.1-.2-2.2-.1-2,2-1,0-2,0-3,0v-5c.2,0,2.6-1,4-1Z"/>
      <path class="st13" d="M285.5,490.7c-.3,1-1.3.7-2,1v-1h2Z"/>
      <path class="st13" d="M517.5,500.7v1c-.2,4.3-6.6,4.3-7,2.5-.7-3.6,4.8-3.6,7-3.5Z"/>
      <path class="st10" d="M519.5,501.7v2c-.2,0-.9,0-1,0-.1,0-.2-1.7-1-2v-1c1,0,1.5.8,2,1Z"/>
      <path class="st15" d="M519.5,501.7c.5.2,1.4-.1,2,0,.4.4-1.1,1.8-2,2v-2Z"/>
      <path class="st15" d="M518.5,503.7c.5.5-.9,1.6-1,.5s.8-.7,1-.5Z"/>
      <path class="st0" d="M463.5,451.7c.2,0,1.6,2.9,3,3,0,2.5.3,5.6,1,8-1.1,2.9-7,2.4-9.5,2-3.6-.7-4-4.7-5.2-5-2.4-.6-8.2-1.6-10.9-1.9-4.4-.6-12.2,2.1-11.4-4.1,8.8,0,15.7,1.1,24.5,0s4.1,1.3,3.5-2c1.3,0,4.2-.3,5,0Z"/>
      <path class="st12" d="M315.5,86.7v3c-6.5.6-11.8,1.3-18.5,1s-4,1-3.5-2c5.8-.1,16.2-2.8,22-2Z"/>
      <path class="st11" d="M318.5,88.7c-.7,0-1.9.9-3,1v-3c1.5.2,2.5.4,3,2Z"/>
      <path class="st11" d="M282.5,87.7l-.5,1-1.5-1c.7,0,1.3,0,2,0Z"/>
      <path class="st15" d="M333.5,501.7c-.5,1.1,1,2.8,1,3,0,1.8-.6,3.3-1,5-1.5.6-3-.9-4-1v-6s-1.5,2-1.5,2c-2.2-5.3-1,1.3-1.5,2s-3.2-3.6-3,2c-1.6,0-8,.9-9,0s-.3-5.7.9-6.6,16.3-.6,18.1-.4Z"/>
      <path class="st4" d="M323.5,508.7c-.2-5.6,2.4-1.3,3-2s-.7-7.3,1.5-2l1.5-2v6c-2.6-.3-3.9,0-6,0Z"/>
      <path class="st2" d="M336.5,502.7l-1,2h-1c0-.2-1.5-1.9-1-3,1.6.2,1.6-.2,3,1Z"/>
      <path class="st15" d="M336.5,502.7c1.8,1.6,1.5,2.3-1,2l1-2Z"/>
      <path class="st15" d="M354.5,497.7c5.7-.4,11.7-.4,17,2,.3,2.1,0,2.2-2,2v1c2.9-1.1,1.2,5.6,1,8.5s-2.5,1-4,1.5c-.2-.1-4.8-1.1-5-1v-1c-.8-3,2.2-1.5,2.8-2.2s0-2.3.3-2.7c.9-.9,4.9,1.1,4.9-1.1-3.8-.4-8.2-.5-12,0-.5-2.5-.5-4.5-3-5.7v-1.3Z"/>
      <path class="st4" d="M354.5,497.7v1.3c2.5,1.2,2.5,3.2,3,5.7-.5,0-.9.5-1,1-.3,0-.7,0-1,0h-2c-.3-1.7-3.5-4.6-2-8,1.2.9,2.1,0,3,0Z"/>
      <path class="st2" d="M355.5,505.7c-1.4,2.5-1.7,3.6,1,4.7v1.3c-.9.2-.7.3-1,1-3.6.9-1.4-4.2-2-7h2Z"/>
      <path class="st13" d="M401.5,504.7c.2,2.3-.1,4.7,0,7l-1-3c-2.7-.5-2.7.2-4,2v-5c-.9-.4-1.9,1-2,1-.6,0-2-1.1-3-1,0-.2,0-.7,0-1,1.3,0,2.7,0,4,0h4s0-7,0-7c.3,0,.7,0,1,0-1,2.5.9,5.6,1,7Z"/>
      <path class="st4" d="M403.5,504.7c.3.9,2.5.7,2,2-3.3-.5-2.1,2.9-1,5-2.4.3-6,2.7-9,0,.6,0,.7-.6,1-1,1.3-1.8,1.3-2.5,4-2l1,3c-.1-2.3.2-4.7,0-7h2Z"/>
      <path class="st15" d="M395.5,497.7v7c-1.3,0-2.7,0-4,0-.2-1.8-1.8-4.5-1-7,1.5.2,3.8-.4,5,0Z"/>
      <path class="st2" d="M395.5,497.7c.6.2.9,2.2,1.5,2s1.5-1.7,2.5-2v7s-4,0-4,0v-7Z"/>
      <path class="st2" d="M400.5,497.7c5.7-.4,1.8,3.3,3,7h-2c-.1-1.4-2-4.5-1-7Z"/>
      <path class="st15" d="M394.5,506.7c0,.7,0,1.3,0,2-2.2.2-1.7,3.7-2,4-2.4,2.4-2.2-4.2-2-6,0,0,1-.9,1-1,1,0,2.4,1,3,1Z"/>
      <path class="st15" d="M419.5,503.7c4.4.7,10.5-2.6,9,4l1-4c4.5.3,9.1-.3,13.6,0s2.6-.5,2.5,3c-.1,0,.3,1.3-.2,1.8-.7.7-9.6,1.3-9.3-1.7-4,3.9-11.3,1.2-16.5,2-.2-1.6.3-3.5,0-5Z"/>
      <rect class="st15" x="430.5" y="497.6" width="5" height="5"/>
      <path class="st15" d="M283.5,505.7c-1.3.1-2.7,0-4,0v-7s6,0,6,0v6c-.3,0-1,.9-2,1Z"/>
      <path class="st4" d="M292.5,511.7c.1,0,.5,1.5,2,1v-6c3.2,1.2,1.9,4.5,3,7-3.6.2-7.4-.2-11,0,.2-.6.9-1.5,1-2s0-.7,0-1c1.6.7,3.5.6,5,1Z"/>
      <path class="st15" d="M291.5,498.7c-1.4,1.2-.7,5.7-1,6s-3.1-.2-4,0c.2-1.2-.3-5.7,0-6s3.8.2,5,0Z"/>
      <path class="st4" d="M300.5,505.7c-.7-.2-2.7.3-3,0-.4-.5.3-5.6,0-7,.9,0,2.8-1.3,3-1v8Z"/>
      <path class="st13" d="M303.5,499.7c2.1-.2,2.2-.1,2,2-1-.9-.7,1.7-2-2Z"/>
      <path class="st15" d="M292.5,511.7c-1.5-.4-3.4-.3-5-1,0-.9-1.6-2.4-1-4,4,.3,6.8-.3,6,5Z"/>
      <path class="st0" d="M394.5,506.7c.1,0,1.1-1.4,2-1v5c-.3.4-.4.9-1,1-1.2-1.1-1-1.5-1-3s0-1.3,0-2Z"/>
      <path class="st0" d="M357.5,505.7c3.8.8,1.1,2.4,4,5v1c-.2,0-.6,1.8-1.5,1.8s-1.9-1.6-2.5-1.8v-6Z"/>
      <path class="st15" d="M357.5,505.7v6c-.2,0-.8,0-1,0v-1.3c-2.7-1.1-2.4-2.2-1-4.7.3,0,.7,0,1,0s.7,0,1,0Z"/>
      <path class="st0" d="M404.5,308.7c4,.3-.1-4.3,5-3-1.3,6.3,1.3,8.2,4,13,3.8.7,1.5-4.7,5-4,.2,1-.3,3.7,0,4,.6.7,15.6.5,18,1-.1,0-1.1,1-2.4,1-5.7.2-11.4.7-17.1,1s-3.7-.8-3.5,1c17.8-.2,35.7.4,53.5,0,2,0,4-1,5.4-1v4c-3.5.9-8.8-3.2-9,2-.7,0-1.3,0-2,0-1,0-2,0-3,0-3,0-6,0-9,0l-.5-1-1.5,1c-.7,0-1.3,0-2,0s-1.4,0-2,0c-1,0-2,0-3,0s-1.4,0-2,0-1.3,0-2,0l-.5-1-1.5,1c-4.7.2-7.6.4-12,1s-1.8-1.2-2-1c-5.4,0-5.8,3.9-3.9,8,.9.6,3.7-1,4.9-1s.7,0,1,0c5.3,0,12.9,1.7,18.6,1.1s1.3-2.2,1.9-2.1c2.3.5,5.6,3.5,9.5,2,0-3.6-3.3-6.9,2-6v6c2.8.3,1.7-.2,2-2,1.1.2,4.6-.3,5,0s-.2,1.8,0,2c1.8,1.4,3.2-4,6-4-1.7,5,6.3,4,7,3,.9-1.4,2.8-3.2,4.5-3s.1,1.9.7,2.7,8.9.9,10.8.3c0,.4,0,.8,0,1,.2.5,2,.9,2,1.6s-3.9,9.8-4.3,10.1c-2.8,2.5-12-.9-12.8,5.2-4.5,1.1-11.5,4.8-16.3,4.7l-42.7-9.7c0-1.3.1-2.8,0-4-.7-5.7-1.5-2.9-5.3-4s-.7-3.5-5.7-1c.3-2.5-.4-5.6,0-8s3.1-5.5,3-8.4-2.3-5-2-7.6c-.7,0-1.3,0-2,0v-2c0-1.3,0-2.7,0-4Z"/>
      <path class="st1" d="M368.5,341.7c-.3-1.2.9-3.1.7-4.4-.4-2.6-1.2-5.4-1.6-8.1s-2.5-.2-2.9-.6-.3-5.7-.1-5.9c.4-.4,8.8-2.4,8,2.5s-3.9,1.9-2,6.5c.3.4,8.2-2.2,9.4-1.9s2.8,6.2,3.7,6.7c1.9,1.1,10.6-2.9,11.2-2.8,2.5.4,6.6,7.7,6.3,10.3-.5,4.6-9.8,16.6,1.3,16.6-.3-2.5,1.9-3.7,2.5-5.4s1.2-8.2,1.5-8.5c.9-.9,5.3,2.5,4-4l6,1c.1,1.2,0,2.7,0,4,0,2.8-.8,4.7-1,7l-2.5-3c-.9-.3-2.5,1.2-2.5,1.5s3.4,6.1,5,5.5c-1.8,10.5-2.7,11.1-13,14s-6.3,1.2-9,2c2.1-4.7-.8-7.8-2-12s1.4-.8.6-2c-2.3-3.2-8.4-1.5-11.6-2s-4.4-5.1-6.3-6.7-3.3-.9-3.6-1.4c-.7-1.2.3-5.1-.2-7.1s-1.9-1.4-2-1.7Z"/>
      <path class="st1" d="M340.5,326.7c.2.2,1.7-.4,2.3,1.2,1,2.5-1.3,7.3-.1,11s2.3,2.4,3,4,1.3,5,2.3,6.7c2.1,3.3,8.2.5,10.8,8.2s-1.1,4.5-1.3,5.5c-.4,1.7.3,3.7-.2,5.6s-3.2,3.9-2.8,6.7l-10-2c3.7,7.5-2.6,10.7-9.4,9s-.4-1.8-.6-2l4-1c-2-.4-6.1-3.8-7.1-5.5s-.8-4.3-1-4.5c-.4-.4-2.5.4-3.7-.3s-.6-1.6-1.4-2.2-2.7-.3-3-1.2,0-9.8.2-10.3,2.6-.5,3.6-1.4l6.3-7.7c.6-.1,1.5-1,2-1s2.6,1.6,4,1c1.9-2-6.8-18.4,2-20Z"/>
      <path class="st6" d="M295.5,228.7c3.3,0,7.2.5,10.2,2.1s5,6.9,7.3,6.9,1.3-1,1.5-1c2.7-.2,1.5,1.5,2.7,1.9s5,1.1,5.3,1.1c.1,3.6.4,6.7-2,9.6s-2.5,1.1-2.8,1.7-1.9,7.4-1.9,7.8c.3,1.9,2.8,3.1,4.6,3,.2-5,0-10.3,6-11,.2,2.3-2.3,2.9-2,5.4s3.7,11,5.4,12.3,4.7-.1,2.6,3.2-3.7,1.1-4.5,1.1c-1.5,0-9.1-4.8-7.5-1.6s6.3,4.7,7,5c2.1.7,4.9.2,5.8.7s1.5,3.5,1.2,3.8-5.7-.2-3,2,3.3-1.1,3,2-1.1,2-1,3c-2.3.1-8.1,1.6-9.8-.2s-.9-3.4-1.8-4.7c-4.5-6.4-10.6-9.1-15.4-15.1.1-1.6,0-3.4,0-5s.2-2.6,0-3.9c-3,.9-4.1-1.7-5-2.1-1.6-4.5,3.8-10.9,2.9-14.3s-10.6-11.7-13.9-9.7c.3-1-.3-3.7,0-4s4,0,5,0Z"/>
      <path class="st1" d="M386.5,412.7c.6,7.1,1.6,2.8,3,4s-.3,2.7,0,3c1.8,1.9,2-1.9,2.6-2.1,4-.8,6.4,4.6,10.4,5.1.5,4.1-.3,8.8,0,13-.6-.5-4.2,1.7-4.7,2.3-2.3,3,.8,5.9-6.3,4.7,1.8,4.1.3,6.2-1,10-1.3,0-3.1-.3-4.3,0-1.7.5-2,6.8-8.7,0-1.2-1.2-2.3-4.5-3-6,2-.7,9-4.7,7-7s-6.8-2.6-8-3c-5.3-1.6-2.1-5.1-3-6s-5.1.8-6.5.8c-2.1,0-4-1.1-6.5-.8,1.2-1.2,0-2.3,0-3,6.1-.3,2.4-6,3-7,1.3-2,8.4-.4,10,1.4s-.4,5.2,3,4.5c-1-3.9,2.1-2.6,3.5-4,2.8-2.9,4.5-9.1,9.6-10Z"/>
      <path class="st6" d="M404.5,314.7c-1.5,0-5.2.9-6,2-2,3,4.7,1.2,5,4-13.1,2.1-5.9,8.4-2,16,2.3,0,.4-3.6.2-4.7-.5-2.6,2.8-.8,3.8-1.3-.4,2.4.3,5.5,0,8,5-2.5,4.7.7,5.7,1,3.8,1.1,4.6-1.7,5.3,4l-6-1c1.3,6.5-3.1,3.1-4,4s-.7,6.4-1.5,8.5-2.9,2.9-2.5,5.4c-11.1,0-1.8-12-1.3-16.6s-3.9-9.9-6.3-10.3-9.3,3.9-11.2,2.8-2.1-6.3-3.7-6.7-9.1,2.3-9.4,1.9c-1.9-4.6,2-6.1,2-6.5.8-4.9-7.7-2.8-8-2.5s-.1,5.7.1,5.9c.4.4,2.7-.6,2.9.6.5,2.7,1.2,5.5,1.6,8.1s-1,3.1-.7,4.4c-2.7-.3-9-3.1-9.8-5.7s.6-13.3,1.3-14.4,10.1-4,11.1-3.9c2.7.1,5.7,6.3,7.4,5s-.2-1.7,0-2c5.1-6.4,18.7-6.2,26-8v2Z"/>
      <path class="st6" d="M382.5,270.7c.8,5.3-1.8,1.4-4.7,2.7-4.4,2.1-4.7,6.5-5.4,7.2-1.5,1.4-6.9-2.2-8.4.1s.3,6,.8,6.8c2.5,3.6,12.5-1,10.8,4.7s-5.8,1.3-7.9,2.1c-3.2,1.1-4.1,6.2-7.1,3.9.6-2.2-.9-5-.7-6.8s1.8-2.7,1.8-4.1-1.7-.5-2.1-1.2-2.3-8.1-5-5.3-.9,9.9-.8,10.4c.2,1,2.5,2.7,3.3,4.6s1.2,8.7,1.5,9c.5.5,5.6-.6,6.9.1,2,1.2-1.4,5.9,2.1,6.9-2.2.6-7.2,1.9-9,0s0-2-.9-2.5c-1.4-.8-3.6-.3-5.3-.7s-2.9-2.4-3.7-1.7-2.4,7.2-5,8c-.8-.5-6.4.5-8.3,0-4.2-3.8-7.3-9.2-5.5-15.3s5.5-5.3,7.8-5.7c-.6,2.8,1.4,1.9,3,2.5,5.1,2,10.2,4,15.5,5.5,2.2-2.5-1.1-2.8-1.5-3.8s.3-2.8,0-3.2-2.2,0-3,0c-2.7-3.1.9-6,.8-8.3s-2.6-4.1-1.3-6.7,8.4-1.9,11.6-2,7.3.4,7.9-.2c.5-1.7,3.5-8.3,4.8-8.7,2.3-.7,4.3,1.7,7.3,1.9Z"/>
      <path class="st1" d="M382.5,270.7c.9,0,3.2-2.8,4,1.5,1.5,8-3.5,7.4-3.9,9.1s4.8,5.7,3.7,11.7c-2,10.8-9.2,9.3-15.1,15.7s-.5,2.9-.7,3.1c-.2.2-2.2-.2-3,0-3.6-1-.1-5.6-2.1-6.9s-6.3.4-6.9-.1-.5-6.6-1.5-9-3.1-3.6-3.3-4.6.4-10,.8-10.4c2.7-2.8,4.5,4.4,5,5.3s2.1.6,2.1,1.2c0,1.4-1.6,2.7-1.8,4.1s1.3,4.6.7,6.8c3,2.4,3.8-2.7,7.1-3.9s7.3,0,7.9-2.1c1.8-5.7-8.2-1.2-10.8-4.7s-1.4-5.8-.8-6.8c1.6-2.4,6.9,1.3,8.4-.1s1-5.1,5.4-7.2,5.5,2.6,4.7-2.7Z"/>
      <path class="st6" d="M333.5,421.7c1.1-5.1,8.7-16.7,14.5-17.1s7.9,4.1,10.2,4.9,3.1-.2,4.1.4,3.3,6.3,8.2,8.8,1.2,1.6,3,1c0-2.8-1.1-4.7,2-5.5l-5,.5c.5-5.8,2.1-2.8,5.3-4.2s5.1-4.1,10.8-2.8c.1,1.7-.1,3.4,0,5-5.1.9-6.8,7.1-9.6,10s-4.4.1-3.5,4c-3.4.7-1.1-2.4-3-4.5s-8.7-3.4-10-1.4,3.1,6.6-3,7c0-1.7,0-3.3,0-5-3.5-1.8-6.7,3-8.3,2.9-3.1-.3-10.5-6-15.7-3.9Z"/>
      <path class="st6" d="M325.5,394.7l-7,4.5c6,2.7,1.3,4.2-.4,7.6s-.5,6.6-4.6,6.9c0,4.8,6.9,3.2,9,4,3.3,1.2,7.1,5.2,11,5,0,5.1,1.8,2.1,2.8,3.1s0,2.5.7,3.8c1.2,2.2,3.1,1,4.5,7-1.5-1.2-5.2.2-6-.4s-4.5-6.5-4-7.6c-2.9-.8-3.2,4.6-5.5,4s-1.7-4.7-3-5-10,4.1-10.4,4.6c-1.3,1.2-1.3,4.9-3.5,4.4-3.3-.7-1.3-12.3-1.4-14.5s-.8-6.5-1.1-9.5c7.4-2.2.3-4.7,0-5.5-.7-2.3,5-7.6,8-6.5-1.1,3.2-6.1,4.5,0,6-1-2.9,2.8-3.8,3-4.7.9-3.6.7-7.7-4-6.3-.4-2.2.2-3.7,2.5-4s7.1.4,7.5.5c1.1.5,1.4,2,2,2.5Z"/>
      <path class="st5" d="M402.5,435.7c0,0-.4,1.6.7,2,6,2,15.8,1.9,22.1,4.7,2.2,1,1.6,3.9,3.2,4.9s6.5.3,9.2.8,5.6,1.8,4.8,3.7c-16.8.4-35,0-52,1,1.3-3.8,2.8-5.9,1-10,7.1,1.2,3.9-1.7,6.3-4.7s4.1-2.7,4.7-2.3Z"/>
      <path class="st6" d="M391.5,362.7c1.2,4.2,4.1,7.3,2,12,2.7-.8,6.5-1.3,9-2,2.8,3.7,4.4,6.7,4.1,11.6s-1.4,2.1-2,3.2c-6.1,9.6-11,6.6-20,2.2-.2-2.3-1.2-8.5-.7-10.4s3.6-2.3,2.6-5.9-5.4-6.4-7.9-5.7c.4-.5,1.5-3.6,3-4,2.7-.7,7.2,1.1,10-1Z"/>
      <path class="st1" d="M374.5,378.7c0,0-.2,1.3.4,1.7s1.8.3,2.3.7c2.1,1.8,5.6,6,6.4,8.7s.5,3.4,1,5c-1.5.7-6.7-1.3-7-1s0,2.2-1,3.5c-2,2.8-3.9,3.1-6,4.5-1.2-.5-6.7-.8-7-1-1.9-1.7,1.9-2,2.1-2.6.8-3.7-4.8-7.4,2-10.8s3.8-.4,4-.5c.6-.5-1.3-4.7-1-6-2.7-1-3.7,3.1-5.3,2.9-3.1-.3-3-2.5-2.7-4.9,2.2-.3,10.4-.9,12,0Z"/>
      <path class="st13" d="M333.5,421.7c5.1-2.1,12.6,3.6,15.7,3.9s4.8-4.6,8.3-2.9c0,1.7,0,3.3,0,5s1.2,1.8,0,3c-5,.6-2.1,4.7-3.1,5.9s-7.7,3.4-8.9,4.1c-.9-.8-3.4-.7-3.9-1.1s0-2.1-.1-2.9c-1.4-6-3.3-4.9-4.5-7s-.3-3.4-.7-3.8c-1-1.1-2.8,2-2.8-3.1s0-.7,0-1Z"/>
      <path class="st1" d="M325.5,394.7c.3.2,1.6,0,2.5,1,2.9,3.3,1.9,10.8,2.5,15h-8s0,7,0,7c-2.1-.8-9,.8-9-4,4.1-.3,3.2-4.3,4.6-6.9s6.4-4.9.4-7.6l7-4.5Z"/>
      <path class="st13" d="M384.5,389.7h-1c-.8-2.7-4.3-6.9-6.4-8.7s-1.5-.2-2.3-.7-.3-1.6-.4-1.7c-.3-4.9,1.5-7.4,4-11,2.4-.7,7.4,4,7.9,5.7,1,3.6-2.2,4-2.6,5.9s.5,8.1.7,10.4Z"/>
      <path class="st6" d="M298.5,316.7c-.6-4.8,1.2-3.2,2.4-6.1,2-4.5.1-13.2,1.7-15.7s4.4-1.5,4.8-1.2-.3,2.4,0,3c-5.7,4.7-1.4,5.6-1,6.7s-.3,3.1.5,4.4,5.6.7,7.6.9c1.4,5.3-4.9,2.9-6.8,4.2s.3,5.6-4.2,3.3-1.5-4.5-5,.5Z"/>
      <path class="st6" d="M334.5,345.7c-2.9-3.8-6.7-19-.4-20.7s5.4-.4,5.7-.4c1.1.2.5,1.9.6,2.1-8.8,1.6-.1,18-2,20-1.4.6-3.4-1-4-1Z"/>
      <path class="st6" d="M362.5,378.7c-.3,2.4-.5,4.6,2.7,4.9s2.6-3.9,5.3-2.9c-.2,1.3,1.6,5.5,1,6s-2.6-.1-4,.5c-6.8,3.4-1.2,7.1-2,10.8s-4,.9-2.1,2.6,5.8.5,7,1c0,0,.5,1.7-.6,2s-6.8.4-7.5-.6c-.5-3.9-.8-8-1-11.9s1-4.3.8-5.8-1.8-2.2-1.7-5.1.3-1.3,2.1-1.5Z"/>
      <path class="st13" d="M358.5,311.7c-1.1,4.9-10.6,6-14.3,5s-.6-2-.7-2c2.6-.8,4.6-7.7,5-8,.9-.6,2.8,1.5,3.7,1.7,1.7.5,3.9,0,5.3.7s.7,2.3.9,2.5Z"/>
      <path class="st10" d="M351.5,294.7c.8.1,2.8-.2,3,0,.3.4-.3,2.3,0,3.2s3.7,1.3,1.5,3.8c-5.3-1.6-10.4-3.6-15.5-5.5s-3.6.3-3-2.5c4.5-.7,9.6.4,14,1Z"/>
      <path class="st6" d="M389.5,416.7c2-9.3,12.5,1.4,13,6-4-.4-6.4-5.8-10.4-5.1s-.8,3.9-2.6,2.1.3-2.8,0-3Z"/>
      <path class="st5" d="M391.5,362.7c-2.8,2.1-7.3.3-10,1l-1-5c3.2.6,9.3-1.2,11.6,2s-.6,1.9-.6,2Z"/>
      <path class="st1" d="M313.5,395.7c4.8-1.4,5,2.7,4,6.3s-4,1.8-3,4.7c-6.1-1.5-1.1-2.8,0-6s-.6-2.7-1-5Z"/>
      <path class="st15" d="M415.5,358.7c-1.6.6-5-5.1-5-5.5s1.6-1.9,2.5-1.5l2.5,3c0,.5.5,1.3,0,4Z"/>
      <path class="st5" d="M304.5,376.7c-.1,0,.3,1.4-.2,1.8-.9.8-8.6.9-8.8-1.8,2.7.4,6.1-.3,9,0Z"/>
      <path class="st1" d="M370.5,414.7l5-.5c-3.1.8-2,2.7-2,5.5-1.8.6-2.2-.6-3-1,0-1.3-.1-2.7,0-4Z"/>
      <path class="st10" d="M453.5,316.7c-5.3-.6-4.1-2.5-5.5-7-1.4,0,1.2,8-3,8s-1.4-1-1.5-1v-23c9.2-.9,10,.6,9,9.5s-1.8,2.5-1.8,3.9c0,2,3.9,6.4,2.8,9.7Z"/>
      <path class="st10" d="M466.5,315.7c.2-3,2.4-22.7,3.6-23.1s4.2,0,4.4.1c.8.8,3.1,20.2,3.1,22.9-.9.1-2.1-.2-3,0-1.5-3-2.7-2.7-4,0-1.3,0-2.7,0-4,0Z"/>
      <path class="st10" d="M447.5,275.7c.6.2,1.8-.2,2,0,.4.5-.3,3.8,0,5l2-5,2.5,2c4-6.6,3.5,1.9,4.5,3,2.6,2.7,1.3-4.9,3.5-6s1.4,1.9,1.5,2v11c-.5,0-2,1.6-4.4,1s-2.5-5.9-2.6,1c-2.7-1.4-6-1.1-9-1v-13Z"/>
      <path class="st0" d="M453.5,316.7c1,.1,2,0,3,0,2.6.1,5.4,0,8,0s1.8-1,2-1c1.3,0,2.7,0,4,0s.5.8,4,0,2.1.1,3,0c0,.3,0,.7,0,1-.1,1.3-.8,2.7-1,4-11.2.1-21.8.2-33,0,.8-3.7-3.8-.3-3-4,1,0,2-.1,3,0s.7,1,1.5,1c4.2,0,1.6-8,3-8,1.4,4.5.2,6.4,5.5,7Z"/>
      <path class="st11" d="M491.5,288.7c2.3.7,5.6,3.1,9,3-.4,1.6.7,4.1-.5,6s-6.5,3.3-7.8,5.1l-7.7,7.8c0-1.3,0-2.7,0-4,3.7.6,1.5-5.1,2-7.3s2.2-.8,2.6-2.6c.6-2.5-1.2-5.4.4-8.1.6.2,1.5-.2,2,0Z"/>
      <path class="st10" d="M456.5,316.7c-1.1-2.8-1.8-22.2-1-23s11.6-2.1,9,3c-4.3-.6-5.8,1.3-5,5.5s5.7,0,5,3c-.6,2.7-6.4-.8-5,5s6.5-.2,5,6.5c-2.6,0-5.4.1-8,0Z"/>
      <path class="st15" d="M443.5,320.7c11.2.2,21.8.1,33,0s8,0,12,0,7.3,0,11,0h5c0,.2,0,.8,0,1h-8c-3.7,0-7.3,0-11,0s-8.7,0-13,0-3.4,1-5.4,1c-17.8.3-35.7-.3-53.5,0-.2-1.7,2.3-.9,3.5-1,5.7-.3,11.3-.8,17.1-1s2.3-1,2.4-1c1.7,0,4.4.9,7,1Z"/>
      <path class="st10" d="M480.5,315.7c-.9-4.8,1.2-14.4,0-18.5s-4.6.6-3.1-3,9.6-1.9,10-1.5.1,3.6-.2,3.9c-.4.5-2.7-.5-2.9.7-.4,2.2.1,6.7,0,9.4s0,2.7,0,4,.2,4.8,0,5-3-.2-4,0Z"/>
      <path class="st10" d="M434.5,316.7c-1.2-3.5,1-14,0-18.4s-2.5-.2-2.9-.7-.3-3.8-.2-3.9c.3-.4,9.7-.4,10,0,2,2-2.7,3.7-3,5-.9,3.7.4,11.5,0,16s.2,1.6,0,2h-4Z"/>
      <path class="st10" d="M489.5,288.7c-.6-.2-1.6.2-2.3-.1-4.4-1.7-1.4-22.4,5.3-10.9.2-3.9,1.1-1,3.5-1.5s1.8-1.5,3-1.6,2,4.7,5.5,3c-.1,1.3-.7,3.5-1,5s-.8,5.8-1,6-2.2-.1-3,0v-3c-2.9,1.7-.3,3.7-5,2,0-3.5-.5-7.4-2-10-.1,3.3-.8,6-1,9s0,1.3,0,2c-.5-.2-1.4.2-2,0Z"/>
      <path class="st10" d="M414.5,276.7c.9-.9,1.9-1.7,3-1s.1,5.9,2,6c1.7-5-.9-5.5,4-6v14c-.4,0-4.6,0-4.8-.2-.5-.4.3-1.8-.7-1.8s.1,3-3,2-.3-1.7-.5-2v-11Z"/>
      <path class="st10" d="M446.5,275.7c1,2-1.6,4.6-1.6,5.5s3,4.9,1.6,7.5c-1.1,0-3.9,2.4-5.6,0s.3-10.9-.3-12.9c2.2-1.4,3.8-.4,5.9-.1Z"/>
      <path class="st10" d="M471.5,286.7c0,.7,0,1.3,0,2-3.2-.4-1.6-1.7-2-2-2.1-1.5-1.9,2-2.6,2.1-1.3.2-2.3-1.1-2.4-1.1l.8-.7c.3-3.5.7-6.9,1.2-10.3s0-1.3,0-2c5.2-1.1,5.1,8.2,5,12Z"/>
      <path class="st10" d="M430.5,276.7l1,12c-3.2-.5-1.6-1.6-2-2-2.2-1.5-1.9,2.3-4,3l1-14c1.8.1,3.8,1,4,1Z"/>
      <path class="st10" d="M433.5,276.7c.6,0,3.2-2,5-1v13s-2.5-3-2.5-3c-1.2,2.8.6,2.7-2.5,3v-12Z"/>
      <path class="st0" d="M438.5,298.7c3.5-.1,2.8-.6,3,2.5s.3,7.9,0,11.1.5,2.6-3,2.5c.4-4.5-.9-12.3,0-16Z"/>
      <path class="st10" d="M472.5,274.7c.8,0,2.9-.2,3,0,1.4,1.6-3,14,3,12,.9,3.1-3,2-5,2,0-.7,0-1.3,0-2-.2-4-1.6-7.9-1-12Z"/>
      <path class="st10" d="M482.5,286.7c.9.5,2.6-1.1,2,2h-5c1.4-3.9-3-13.8,2-14,.2,1.3-.2,2.8,0,4,.4,2.2-1,7,1,8Z"/>
      <path class="st4" d="M426.5,275.7l-1,14c-.5.1-1.4,0-2,0v-14c.9,0,2.1,0,3,0Z"/>
      <path class="st15" d="M433.5,276.7v12c-.6,0-1.4,0-2,0l-1-12c1,0,2,0,3,0Z"/>
      <path class="st4" d="M466.5,276.7c-.5,3.4-1,6.9-1.2,10.3l-.8.7c-.3,0-.7,0-1,0v-11c.3.3,2.2-.2,3,0Z"/>
      <path class="st0" d="M466.5,274.7c.3-5.6,3.2-.1,3.7,0,.8.2,1.6,0,2.3,0-.6,4.1.8,8,1,12h-2c0-3.8.2-13.1-5-12Z"/>
      <path class="st7" d="M447.5,288.7c-.3,0-.7,0-1,0,1.4-2.6-1.6-6.6-1.6-7.5s2.6-3.5,1.6-5.5c.3,0,.7,0,1,0v13Z"/>
      <path class="st0" d="M414.5,287.7c-.7-1-2-.5-2.1-3.4s1-6.4,2.1-7.6v11Z"/>
      <path class="st15" d="M482.5,286.7c-2-1-.6-5.8-1-8,.5,2.5,1.7,4.9,1,8Z"/>
      <path class="st15" d="M473.5,286.7c0,.7,0,1.3,0,2-.6,0-1.4,0-2,0,0-.7,0-1.3,0-2h2Z"/>
      <path class="st0" d="M438.5,316.7c-.7,1.7-3.5,1.5-4,0h4Z"/>
      <path class="st0" d="M405.5,294.7c0-1,0-2,0-3,1.4.8,1.4,2.2,0,3Z"/>
      <path class="st15" d="M499.5,190.7l-.5,3c-1.1-.9-1.8-1.5-1.5-3h2Z"/>
      <path class="st4" d="M425.5,120.7c-.6-3.2,1.6-1.8,3.5-2,10.4-1,15.6-1.5,25.3-4.7s21-6.6,31.2-8.8,19.5-4.8,23-2c3,2.4-1.7,6.1-2.6,8.4s-.3,4.9-.5,5c-.9,1-7.5-2.4-6,3-3,0-6,0-9,0s-5.3,0-8,0-.7,0-1,0c-18.7.2-37.4.8-56,1Z"/>
      <path class="st2" d="M471.5,146.7c2.1,8.6-2.5,18.5-3.1,27.5-.2,2.8,1,4.8,1.1,5.5s0,.7,0,1-1.9,1-1,2,9.5,1.5,11,2.5c-2.1,7.5-5.6,3.5-10.5,3.5s-1.4.9-1.5,1c-.3,0-.7,0-1,0-1.3-2.4-6.7-2.7-7-3-1.2-1,3-10.1,0-12,.2-.8.8-3.8,1-4s1.4.3,1.8-.2c.8-.9-.1-3.7.2-5.2s.7.9,1.2-4.1c.5-5,.5-12.5,5.8-14.5.7,0,1.3,0,2,0Z"/>
      <path class="st4" d="M469.5,180.7l13,2c-1.5,2.6.2,10.1-4,10,0,0-1.6,0-2,0-.7-1.6-2.7-.9-4-1-2-.2-4.2.6-5-2,.2,0,.7-1,1.5-1,4.8,0,8.4,4,10.5-3.5-1.5-1-10.5-2-11-2.5-.9-1,1-1.9,1-2Z"/>
      <path class="st4" d="M474.5,146.7l-5,33c0-.8-1.2-2.7-1.1-5.5.5-8.9,5.2-18.9,3.1-27.5,1,.1,2,0,3,0Z"/>
      <path class="st0" d="M510.5,314.7c-.2,2.5,1.6,11.4,0,12.9s-3.7.2-3.8,0,0-2.2-.4-3.1-1.6-2.3-1.7-2.8,0-.8,0-1c.6-2.6,4.2-3.5-3-5,1.3-3.6,5.8,0,9-1Z"/>
      <path class="st0" d="M488.5,320.7c1.3-5.3,7.4-6.7,12-6l-1,6c-3.7,0-7.3,0-11,0Z"/>
      <path class="st2" d="M503.5,282.7c1.4.7,1.4,4,1,5.3s-1.9.5-2,.7-2,2.8-2,3c-3.4.1-6.7-2.3-9-3,0-.7,0-1.3,0-2,1.1,0,2,.6,3,1,4.7,1.7,2.1-.3,5-2v3c.8-.1,2.8.2,3,0s.8-4.9,1-6Z"/>
      <path class="st4" d="M496.5,321.7c0,1.7-.1,3.4,0,5,1,0,1.5.8,2,1v6c-.7,0-1.4,0-2,0,1.1-2.7.2-4.6,0-7-1.6,0-5.5.6-6,2-1.5-4-3.7-.4-5.5-.3s-2.3-1.6-2.5-1.7c-1.3-4.7,3.7-1.5,3-5,3.7,0,7.3,0,11,0Z"/>
      <path class="st5" d="M496.5,326.7c.2,2.4,1.1,4.3,0,7-1.3.2-4,2.2-6,2,0-.2,0-.6,0-1-.1-1-.2-5.4,0-6,.5-1.4,4.4-2.1,6-2Z"/>
      <path class="st5" d="M498.5,327.7c1.3.5,1.7-.4,2.5,2l2.5-2c.4,10.5.1,5.7-5,6v-6Z"/>
      <path class="st5" d="M357.5,430.7c2.5-.3,4.4.8,6.5.8s5.8-1.5,6.5-.8-2.3,4.4,3,6c.4,2.2-1.1,4.4-1,6.5s1.6,2.6,2,3.5c.7,1.5,1.8,4.8,3,6h-43c.2-1.7-.6-4.7.5-6.1s2.8-.6,3.3-1.2,0-2.3.3-2.6c.7-.7,4.7.3,6.3-.1s.6-2,.6-2c1.2-.7,8.5-3.8,8.9-4.1,1-1.2-1.8-5.3,3.1-5.9Z"/>
      <path class="st13" d="M334.5,453.7c-.1,1.7.6,4.1-1.6,4.9s-9.4.4-10.4.1l1-5c3.7,1.3,7.2.5,11,0Z"/>
      <path class="st0" d="M323.5,453.7l-1,5c-.9-.3-.6-2.5-2-2,.4,4-2.6,3.6-3,4,0-.7,0-1.3,0-2s0-.7,0-1c1.3-2.4,2.2-4.3,5-5,.4.2.7.9,1,1Z"/>
      <path class="st12" d="M387.5,468.7c-.5,1.9-1.8,1.6-3,2s-.7,0-1,0v-1c1.5-.5,1.5-1.1,4-1Z"/>
      <path class="st0" d="M307.5,470.7c.2,1.6-.3,2.6-2,2v-3c2.1-.5,1.9,1,2,1Z"/>
      <path class="st4" d="M297.5,474.7c.7.6,1.3,1.3,2,2-1.8,0-2.5,0-4,0-.2-2.1-.1-2.2,2-2Z"/>
      <path class="st0" d="M284.5,476.7c.3,0,.7,0,1,0l-.5,1-.5-1Z"/>
      <path class="st0" d="M288.5,477.7c-.5-.1-.8-.5-1-1,.5,0,.9.5,1,1Z"/>
      <path class="st0" d="M277,479.7c.6.3.6.7,0,1v-1Z"/>
      <path class="st4" d="M402.5,120.7c-1.7-3,7.6-2.3,8-2s0,1.4,0,2c-.3,0-.7,0-1,0-2.3,0-4.7.1-7,0Z"/>
      <path class="st4" d="M323.5,150.7c.2-.4,6.9-4.6,7.7-4.8,17.9-4.1,23.2,9.4,21.3,24.8l4-21.4c0-1,.5-2.2,1.5-2.4,1.6-.4,16.9,3.3,19.1,4.7s7,6.9,7.3,10.2c1.1,13-10.3,19.3-22,17-1.4,10.2,1.7,15-11,12,0-.1-1.3.3-1.8-.3-.7-.8.3-2.6-.8-2.7-3.3-.5-11.4,5.3-16.5,3-.3-.8-.4-.7-1-1s-.7.1-1,0-.7,0-1,0-1.1-1.1-2-1c-.6-1.7-2.9-2.9-3.9-4.6-2.9-5.2-2.8-18.7-2.2-24.9s1.8-8.1,2-8.5ZM332.5,157.7c-1.8,3-1.6,17,0,20,2.5,4.9,9,2.8,9,.5v-20c0-2.2-6-5.6-9-.5ZM364.5,169.6c1.1,1,6-.1,7.5-2,5.2-6.6-4.3-12-6-9s-1.9,10.6-1.5,11Z"/>
      <path class="st1" d="M354.5,234.7c-1.4,5.3,3.3,10.1,2,15.3s-1.8.6-2,1.4c-.4,1.8.2,4.3,0,6.3s0,.7,0,1c-1.7.2-3.2.9-4.5,2s-5.8,5.7-5.9,6c-1.6,3-2.2,12.1-3.5,16-1.9.7-3.6,2.4-6,2,.3-3.1-2.6-1.6-3-2-2.7-2.2,2.8-1.8,3-2,.3-.3-.8-3.7-1.2-3.8-.9-.5-3.7,0-5.8-.7s-6.8-4.6-7-5c-1.6-3.2,6,1.5,7.5,1.6s4.4-.9,4.5-1.1c2.1-3.3-2-2.7-2.6-3.2-1.6-1.3-5.2-10.4-5.4-12.3s2.3-3.1,2-5.4c-6,.7-5.8,6-6,11-1.9.1-4.3-1-4.6-3s1.7-7.5,1.9-7.8c.3-.5,2.1-.8,2.8-1.7,2.4-2.9,2.1-6,2-9.6,6.2,0,10.6-12.9,20.6-12.9,5.2,0,8.3,4.6,11.4,7.9ZM336.5,270.7h-2v3h2v-3Z"/>
      <path class="st2" d="M433.5,172.7c6.9-5.1,5.9-9.2,4-17l8-1c.2,4-1.9,7.5-2.1,11.5s1.1,4.3,1.1,4.5c.1,2.1-2,5.2,0,6.5l12,1.5c.4.6-.5,10.4-3.3,9.9-4.5-1.7-9-1.5-13.6-2s-.7,0-1,0c-1.1-1.8-4.1-.9-6-1-.4-.3-.9-.4-1-1-.3-2.1,1.5-9.1,2-12Z"/>
      <path class="st6" d="M386.5,202.7c0,.1,2.8-.4,2,2-.7,0-1.3,0-2,0,.3,5.5-2.2,7.8,4,9-1,1.2-1.8,4-4.7,4.8-4.1,1.2-9.5-1.9-10.3,2.2-10.2-2.9-9.4,3.7-2,8-2.5,5.1-2.6,1.5-3.9,2.2s-.7,2.5-1.6,2.8c-2,.6-5.7-7.5-10.5-4,1-4.8,8.3-4,7-11-1-1-6.4,3.2-8-5.6-1.1-6,4.2-8.1,6-2.4s.3.6,1.7,2.4-.2,2.2,1,2.7,10.4.9,11.4.6c3.3-1,7-10,6-13.6,1.1.2,2.7-.2,4,0Z"/>
      <path class="st1" d="M366.5,196.7c2.9-.7,5.1-1.8,8.3-.8,3.3,1,4.2,6.1,7.7,6.8,1,3.6-2.7,12.7-6,13.6s-10.4-.2-11.4-.6-.4-2-1-2.7c-1.4-1.8-1.1-.4-1.7-2.4,4.2.6,2.8-.7,3-4s.9-.5.8-1.3c-.6-3.1-3.3-3.7.2-8.7Z"/>
      <path class="st13" d="M290.5,232.7c3.2-2,13.4,7.9,13.9,9.7.9,3.4-4.5,9.7-2.9,14.3-.8-.4-3.4-.8-5-2-5-3.9-4.5-5.9-6.7-10.8s-2.1-1.1-2.3-1.9c-.3-1.2-.3-5.5,0-6.6s2.6-1.2,3-2.7Z"/>
      <path class="st6" d="M311.5,201.7c3-10.8,3-3.7,9.5-2.9s5.2-1.5,5.5-2.1c1.3,1,.7,5.3,0,6s-2.7-1.5-1.8,3.3,3.2,3,3.8,5.7c-4.3-.4-5.1,0-3,4-1,.3-1.8.7-3,1s-2.4-1-2,2c-.9.1-2.2-.2-3,0-2.2-3.3-1.3-7.5-2-10.3s-2.1-1-2.6-1.7c-1.2-1.7,2.8-5.6-1.5-5Z"/>
      <path class="st6" d="M390.5,233.7c1.5.4,7.4,1.3,8.4.9,2.3-.8.6-5.5,4.1-3.9s1.1,4.6,2.4,5.6c2.8,2,6.8-2,7.1,2.4-2.6-.6-2.7,2.7-3.1,3-1.1.8-3.1-2-4.4-2-3.4,0-1.9,3.8-2.6,5.3s-1.7,3.3-2.2,4.5-1.4,0-1.7.8c-.7,1.9,3.4,1.3,2,4.5-.7.2-2.5,2.9-3.9,1.9s-2-4.6-2.1-5.9,1.6-1.9.6-3-3.5-.5-3.7-1.5c-.5-3.4,3.5-8.7-.9-12.4Z"/>
      <path class="st13" d="M390.5,233.7c4.4,3.7.4,9,.9,12.4s2.7.4,3.7,1.5-.6,2.6-.6,3c-.8.4-4.6,2-4.8,2.2-.9,1.1-.3,2.5-3.2,5.8-1.8-1.3-5.8-4.3-5.9-6.4s3-12.2,3.8-15.2,0-3.7,2.2-4.3c.2.1,3.2.8,4,1Z"/>
      <path class="st4" d="M449.5,142.7c-.5,2.3-.7,4.7-1,7s.1,2.7,0,4l-4,17c0-.2-1.2-2-1.1-4.5.1-4,2.2-7.5,2.1-11.5l-8,1c1.8,7.8,2.9,11.9-4,17,1.5-9.7,3.6-19.3,5-29,.2-.1-.8-1.9,1.5-2.1s8.9.9,9.5,1.1Z"/>
      <path class="st10" d="M382.5,230.7c.8,2-1.9,1.9-2,2.6-.2,2.5.6,5.5-.1,8.8s-2.8,8.5-3.1,8.9c-1.3,2.2-4.9,2.1-6.8,3.7,0,0-1.7.4-2-.7-1-3.4,3.4-17.2,5.2-20.6s5.1-3.4,8.8-2.7Z"/>
      <path class="st6" d="M382.5,230.7c6,1.1,2.5.9,4,2-2.2.6-1.8,2.7-2.2,4.3-.7,3-3.9,13.3-3.8,15.2s4.1,5.1,5.9,6.4c-.3.3.2,2.3-1.6,2.9s-13.1-1.6-14.3-3,.2-3.3-.1-3.9c1.9-1.5,5.6-1.4,6.8-3.7s2.9-8,3.1-8.9c.7-3.2,0-6.3.1-8.8s2.7-.6,2-2.6Z"/>
      <path class="st9" d="M326.5,196.7c.7-1.6-1.3-5.9,4.5-1s1.6,8.3,7.5,7c1.5,5.5-3.9,3.6-6.1,7.5s1.1,5-3.3,7.6-4.1.7-6.5.9v-2c1.2-.3,2-.7,3-1s2.7.4,3.5-.9,1.3-7.2,1.4-8.6c.4-4.5,0-3.5-4-3.5.7-.7,1.3-5,0-6Z"/>
      <path class="st1" d="M412.5,238.7c.4,7.1-.8,4.4-2.7,7.8s-2,5.4-2.6,6c-1,1-5.1,1.6-6.8,2.2,1.4-3.2-2.7-2.6-2-4.5s1.5-.3,1.7-.8c.6-1.1,1.9-3.8,2.2-4.5.6-1.5-.8-5.4,2.6-5.3s3.4,2.7,4.4,2,.4-3.6,3.1-3Z"/>
      <path class="st1" d="M311.5,201.7c4.3-.6.2,3.3,1.5,5s2.3.6,2.6,1.7c.7,2.8-.2,7,2,10.3-.2,0-.7,1.3-3,2,.3-2.6-4.2-3.9-4.7-5.6s.4-7.5.7-9.4.6-2.5,1-4Z"/>
      <path class="st6" d="M310.5,205.7c-.3,1.9-1.2,8-.7,9.4s5,3,4.7,5.6c-2.7.8-7-.7-8.2-3.4-2-4.4-3.9-15.2,4.2-11.6Z"/>
      <path class="st9" d="M354.5,258.7c-.6,3.3-2,2.4-3.5,4.1s-1.1,3.2-1.8,3.7-2.3,0-2.6.3c-.5.5,0,3.7-.4,5.2-.6,2.4-1.9,4.3-2.5,6.5s0,3.8-.3,4.2-2.3-.2-3,0c1.3-3.9,2-13,3.5-16s5.4-5.6,5.9-6c1.3-1.1,2.8-1.8,4.5-2Z"/>
      <path class="st9" d="M354.5,234.7c.1.1,1.3-.3,1.8.2,1.8,1.9,5.3,23.2-1.8,22.8.2-2-.4-4.5,0-6.3s1.8-.6,2-1.4c1.3-5.2-3.4-10-2-15.3Z"/>
      <path class="st10" d="M314.5,236.7c-.2,0-.7,1-1.5,1-2.3,0-4.9-5.6-7.3-6.9s-6.9-2.1-10.2-2.1c-.8-3.7,7.6-1.9,9-1.5,3.4.9,9,5.9,10,9.5Z"/>
      <path class="st4" d="M469.5,146.7c-5.3,2-5.3,9.5-5.8,14.5-.5,5-.9,3-1.2,4.1s.6,4.2-.2,5.2-1.7,0-1.8.2c.9-4,2-21.9,3.4-24.1s4.7,0,5.6,0Z"/>
      <path class="st1" d="M375.5,220.7c-.7,3.3-.3,4.6-2,8-7.4-4.3-8.2-10.9,2-8Z"/>
      <path class="st1" d="M388.5,204.7c.6,0,1.5-.1,2,0,.5,2.6,2.3,4.7,2.1,7.5s-1.9,1.3-2.1,1.5c-6.1-1.2-3.6-3.5-4-9,.7,0,1.3,0,2,0Z"/>
      <path class="st4" d="M459.5,174.7c3,1.9-1.2,11,0,12s5.7.6,7,3c-1.2.2-2.1,1.1-4,1l-1-1c-1.2-.2-2.7.2-4,0-.6-.7,1.5-12.9,2-15Z"/>
      <path class="st9" d="M296.5,254.7c1.6,1.2,4.2,1.6,5,2s2,3,5,2.1c.2,1.3,0,2.6,0,3.9-3.7-1-11.5-2.8-10-8Z"/>
      <path class="st6" d="M366.5,196.7c-3.5,5-.8,5.6-.2,8.7s-.8,1.2-.8,1.3c-3.2-1.9-6.7-1.2-4.5-6s2.3-3.9,2.5-4c.4-.3,2.2.2,3,0Z"/>
      <path class="st9" d="M297.5,194.7c1.2,4.9-2.5,5.7-2.7,1.3s.7-1.3.7-1.3c.7,0,1.3,0,2,0Z"/>
      <path class="st9" d="M476.5,192.7c-1.7.3-4.5,3.1-4-1,1.3.1,3.3-.6,4,1Z"/>
      <path class="st3" d="M329.5,189.7c-1.6,6.2-1.5.4-2-1,.9-.1,1.6.9,2,1Z"/>
      <path class="st1" d="M322.5,216.7v2c-.7,0-1.3,0-2,0-.4-3,.5-1.6,2-2Z"/>
      <path class="st3" d="M330.5,189.7c.3.1.7-.1,1,0h-1Z"/>
      <path class="st9" d="M462.5,190.7c-.9,0-.9-1-1-1l1,1Z"/>
      <path class="st4" d="M434.5,143.7c.7,4.9-.6,11.2-1.3,16.2-1.1,8.2-2.5,18.4-5.7,25.8-6.9-.1-9.3.2-14.6-5s-5.9-28.2-9.5-37l10.9-1.9c2,7.6,2.4,15.5,5.1,22.9-.8,4.2,0,11,5.5,10s1.9-7.9,1.5-11c-1-8.3-2.9-15.9-5-24,6.8-.4,11.6-6.3,13,4Z"/>
      <path class="st4" d="M386.5,161.7c.7-4.2.5-5.3,1.7-9.8s0-4.1.7-5.3,11.3-2.5,12.4-1.8c.9,1.6,1.9,7.8,1,8.8s-11.5,1.7-11.9,2.1c-.9.9,1.4,7.1,1,9,8.6-1.1,13-4,12,7.4l-10,1.6c-.4,3.5,3.5,13.3,1.9,15.9s-7.8,1.9-9.9,1.1c-.3-1.3-.8-2.7-1-4s0-1.4,0-2c-1.2-8.3.7-14.8,2-23Z"/>
      <path class="st10" d="M365.5,120.7c.5.3,1,1.3,1,2,1.8.3,0-2.2,2.5-2.1s2.8,1.3,4.3,1.8c3.4,1.2,4.9-1.7,4.2,4.3,1.9.3.5-2.4,1-2.9s6.4.4,6.8,1.1c1.1,1.8-2.3,10,.6,9.8s1.7-3,2-4c1.5-3.7-1.5-4.7,5.5-4-1.3,3.8-2.2,1.3-3,2s1.2,3.2,1.1,4.4-1.5.7-1.6.9c-.4.9.4,2.4-1.4,3.3s-5.2-1-7-1.5c-.4-1.5,3.8-9.6,1.5-10-4.8-.8-1.4,2.6-1.5,4.4s-3.8,1-1,5.6c-3.8-1.3-3.9-2.7-4.1-2.8-.6-.2-2.1,1-3.3.8s-6.9-2.4-9.6-3l2-10Z"/>
      <path class="st8" d="M386.5,161.7c-1.3,8.2-3.2,14.7-2,23-4.6.8.3-7.8-3.5-7s-2.5,1.6-4.1,1.9c-2.4.5-10.9,1.1-11.5,1.5-1.5,1-1.7,10.3-3,12.5-2.3-1.3-7.9.2-9.3-.1s-1.2-2.5-1.6-2.9c12.7,3,9.6-1.8,11-12,11.7,2.3,23.1-4,22-17h2Z"/>
      <path class="st9" d="M438.5,143.7c-1.4,9.7-3.5,19.3-5,29-.5,2.9-2.3,9.9-2,12-1.5,3.7-2.6,1-4,1,3.2-7.4,4.6-17.6,5.7-25.8.7-5,2-11.3,1.3-16.2,1-.2,3.5.3,4,0Z"/>
      <path class="st10" d="M329.5,120.7l2,10c-2.6,1-5.6,3.6-7,0,.2-1.9.3-7.7-3-7l2,8c-.3.8.3,3.8-2,1.5s-1.2-4.9-2-6.8-3.6-.7-1.5-2.7,3.6-1.7,4.5-2c2.7-.9,4.8-.6,7-1Z"/>
      <path class="st10" d="M360.5,122.7c0,.3-1.9,5.7-2.1,5.9-.6.5-2.8,0-3.9.1v-10c-.8,1.3-2.8,8.5-3.2,8.9s-1.3,0-1.9.1c1.2-3.5.2-6.8.2-9.7s2.1-1,3.3-.8c3.9.6,8.7-.5,7.5,5.6Z"/>
      <path class="st10" d="M335.5,119.7c.2,0,1.9-1.8,3-1s2.9,7.3,3,8c.3,2.3-4.1,4.5-4.9,3.8s0-1.7-.1-1.8l-1-9Z"/>
      <path class="st14" d="M365.5,120.7l-2,10c-5.1-1.2-4.8-2.5-3-8s1.3-1.7,1-3c.2-.2,3.4.7,4,1Z"/>
      <path class="st8" d="M419.5,164.7c0,.2,1.4.6,1.9,1.8s-.1,6.5,4.1,6.2l1-9c.4,3.1,3.3,10.2-1.5,11s-6.3-5.8-5.5-10Z"/>
      <path class="st14" d="M332.5,119.7c-2.6,4.2,1,4.1,1.1,4.6.2,2-2.5,3,.9,4.4,0,0,.2,1.3-.3,1.7-.9.8-2.2,0-2.7.3l-2-10c.6-.1,1.4-.8,3-1Z"/>
      <path class="st10" d="M342.5,126.7l-2-10c.8.1,2.8-.2,3,0,.4.4,1.3,9.4,2,11-1.1-.1-2.1-.5-3-1Z"/>
      <path class="st6" d="M335.5,119.7l1,9c0,0-1.9,0-2,0-3.4-1.4-.7-2.4-.9-4.4s-3.6-.4-1.1-4.6c.9-.1,2,0,3,0Z"/>
      <path class="st6" d="M380.5,135.7c-2.8-4.6,1-5.2,1-5.6,0-1.8-3.4-5.2,1.5-4.4s-1.9,8.5-1.5,10c-.3,0-.7,0-1,0Z"/>
      <path class="st6" d="M323.5,131.7l-2-8c3.3-.7,3.2,5.1,3,7s-.9.7-1,1Z"/>
      <path class="st8" d="M449.5,142.7c1.6.5,2.1,8.4-1,7,.3-2.3.5-4.7,1-7Z"/>
      <path class="st8" d="M384.5,186.7c.2,1.3.7,2.7,1,4-3.6-1.3-5.1-4-1-4Z"/>
      <path class="st8" d="M306.5,118.7c.6,3.2-1.6,1.7-4,2,.9-1.6,2.5-1.6,4-2Z"/>
      <path class="st8" d="M438.5,186.7c-2.4-.2-3.8.7-6-1,1.9.1,4.9-.8,6,1Z"/>
      <path class="st9" d="M481.5,119.7c.3,0,.7,0,1,0l-.5,1-.5-1Z"/>
      <path class="st9" d="M300.5,158.7c1.5-1.4,7,.3,8.3,3.3,2.3,5.5-4.6,10.1-6.8,6.8s-1.8-9.7-1.5-10Z"/>
      <path class="st3" d="M502.5,451.7c-.9.4-3-.8-3-1.5v-15c0-1.5,3-1.5,3,0v16.5Z"/>
      <path class="st13" d="M505.5,462.7c-2.8,1.5-1.6-2.2-1-4,2,.2,2.6,3.2,1,4Z"/>
      <path class="st13" d="M322.5,452.7c-2.8.7-3.7,2.6-5,5,0-4.1,1.1-6.7,5-5Z"/>
      <path class="st13" d="M357.5,504.7c3.7-.5,8.2-.3,12,0,0,2.2-4,.2-4.9,1.1s.2,2.1-.3,2.7-3.6-.8-2.8,2.2c-2.9-2.6-.2-4.2-4-5s-.7,0-1,0c0-.5.5-.9,1-1Z"/>
      <path class="st5" d="M434.5,327.7c.7,0,1.3,0,2,0s1.3,0,2,0l1.5,5,.5-5c1,0,2,0,3,0v3c1.5-.2,1.9-1.7,2-3,.7,0,1.3,0,2,0s1.3,0,2,0c3,0,6,0,9,0-2.1,1.9-1.6,3.8-2,6s.8,2.3-2,2v-6c-5.3-.9-2,2.4-2,6-4,1.5-7.2-1.5-9.5-2s0,1.9-1.9,2.1c-5.7.6-13.3-1.1-18.6-1.1v-6c4.4-.6,7.3-.8,12-1Z"/>
      <path class="st1" d="M404.5,314.7c.7,0,1.3,0,2,0-.3,2.6,1.9,5.3,2,7.6s-2.5,5.8-3,8.4c-1,.5-4.3-1.3-3.8,1.3s2.1,4.7-.2,4.7c-3.9-7.6-11.2-13.9,2-16-.3-2.8-6.9-1-5-4s4.5-1.9,6-2Z"/>
      <path class="st5" d="M463.5,327.7c4.4,0,9.8-.1,14,1-.2.4.4,1.6,0,2.3-.5,1.1-2.2.4-2.8.9s0,2.5-.2,2.8c-.7,1-8.7,2-7-3-2.8,0-4.2,5.4-6,4s.2-1.8,0-2v-6c.7,0,1.3,0,2,0Z"/>
      <path class="st9" d="M482.5,326.7c.2,0,1.1,1.8,2.5,1.7s4-3.7,5.5.3c-.2.6-.1,5,0,6-2,.7-10,.9-10.8-.3s.3-2.6-.7-2.7c-1.7-.2-3.6,1.6-4.5,3,.2-.3-.5-2.2.2-2.8s2.4.3,2.8-.9-.3-2,0-2.3,4.7-2.1,5-2Z"/>
      <path class="st11" d="M485.5,321.7c.7,3.5-4.3.3-3,5-.3,0-4.9,1.8-5,2-4.2-1.1-9.6-.9-14-1,.2-5.2,5.5-1.1,9-2v-4c4.3,0,8.7,0,13,0Z"/>
      <path class="st2" d="M461.5,327.7v6c-.4-.3-3.9.2-5,0,.4-2.2-.1-4.1,2-6,1,0,2,0,3,0Z"/>
      <path class="st15" d="M422.5,328.7v6c-.3,0-.7,0-1,0l-2-3-.5,3c-3.9-5.3-.9-4,1.2-5.3s.2-1.6.3-1.7c.2-.2,1.7,1,2,1Z"/>
      <path class="st5" d="M420.5,327.7c0,0,.2,1.3-.3,1.7-2,1.3-5.1,0-1.2,5.3l.5-3,2,3c-1.3,0-4,1.6-4.9,1-1.8-4.1-1.5-8.1,3.9-8Z"/>
      <path class="st2" d="M440.5,327.7l-.5,5-1.5-5c.6,0,1.4,0,2,0Z"/>
      <path class="st2" d="M445.5,327.7c0,1.3-.5,2.8-2,3v-3c.6,0,1.4,0,2,0Z"/>
      <path class="st2" d="M449.5,327.7c-.7,0-1.3,0-2,0l1.5-1,.5,1Z"/>
      <path class="st2" d="M436.5,327.7c-.7,0-1.3,0-2,0l1.5-1,.5,1Z"/>
      <path class="st6" d="M373.5,436.7c1.2.4,7.7,2.7,8,3,2,2.3-5,6.3-7,7-.4-.9-1.9-1.3-2-3.5s1.4-4.3,1-6.5Z"/>
      <path class="st2" d="M474.5,315.7c-3.5.8-3,0-4,0,1.3-2.7,2.5-3,4,0Z"/>
      <path class="st0" d="M494.5,287.7c-1-.4-1.9-1-3-1,.2-3,.9-5.7,1-9,1.5,2.6,2,6.5,2,10Z"/>
      <path class="st8" d="M332.5,177.7v-20c3-5.1,9-1.7,9,.5v20c0,2.3-6.5,4.4-9-.5Z"/>
      <path class="st8" d="M364.5,169.6c-.4-.4,1.2-10.6,1.5-11,1.7-3,11.2,2.4,6,9s-6.4,3.1-7.5,2Z"/>
      <path class="st0" d="M332.5,177.7c-1.6-3-1.8-17,0-20v20Z"/>
      <rect class="st6" x="334.5" y="270.7" width="2" height="3"/>
      <path class="st1" d="M326.5,202.7c3.9,0,4.4-1,4,3.5s-1.1,8-1.4,8.6c-.8,1.3-2.6.6-3.5.9-2.1-4-1.3-4.4,3-4-.6-2.7-3.3-3-3.8-5.7-.9-4.8,1.3-2.8,1.8-3.3Z"/>
    </g>
  </g>
</svg>