<?xml version="1.0" encoding="UTF-8"?>
<svg id="Layer_1" xmlns="http://www.w3.org/2000/svg" version="1.1" viewBox="0 0 792 612">
  <!-- Generator: Adobe Illustrator 29.0.0, SVG Export Plug-In . SVG Version: 2.1.0 Build 186)  -->
  <defs>
    <style>
      .st0 {
        fill: #eb5299;
      }

      .st1 {
        fill: #e378a9;
      }

      .st2 {
        fill: #c22977;
      }

      .st3 {
        fill: #e9a8c3;
      }

      .st4 {
        fill: #e05192;
      }

      .st5 {
        fill: #4542a3;
      }

      .st6 {
        fill: #e0d5e1;
      }

      .st7 {
        fill: #9787cf;
      }

      .st8 {
        fill: #c7c1c4;
      }

      .st9 {
        fill: #c2849f;
      }

      .st10 {
        fill: #1217a1;
      }

      .st11 {
        fill: #901052;
      }

      .st12 {
        fill: #be4b7f;
      }

      .st13 {
        fill: #edeaef;
      }

      .st14 {
        fill: #d24c8a;
      }
    </style>
  </defs>
  <g id="_x30_FWQob">
    <g>
      <path class="st12" d="M326.5,103l1,2h-1c-2.2.6-9.9,3.7-10.8,5.7-1.4,2.9-.7,9.4-2,12.8l3.8,27.4c-6.3,1.2,1.9,4.5,2.3,4.9,4.8,5.4-6.8,0-4.3,4s5.7,2,5,3.5c-1.2,2.6-5.7,0-5,3.5l5,3c-1.2.7-10.4,28.1,1,21-2,12.4.5,29.3,2,41.9s-.2,2.7,0,4c-3,.1-2.6.9-2.7,3.2-1.4,19.3-1,38.8,2.7,57.7-12.1-1.5-5,8.5-6,16h4c.5,6.4-1,12.7-2,19-3.1,2.4-6.1,8-10,10v-39.5c0-13.2-1-3.7-1-4.4,0-58,1.6-116.8,1-175.2,0-1.7.6-4.4-1-5.5,0-1.8,1-3.3,1-4,1.4-.9,1.6-3.4,0-4v-2c5.3-2.9,11-3.9,17-5Z"/>
      <path class="st8" d="M309.5,511.2h161.7c2.3,0,1.5,0,2,0h3c1.9,0,4.9-.6,6,1-1.1,1.5-1.1,9.2-1.5,10-1.1,2.3-3.3,1.5-4.5,2-3.4-2-8.8-.8-13-1-1.1-8.8-15.9-4.8-22-5,.2,1-.2,3.7,0,4,.4.4,9.5-.2,11.6,0s2.3,1,2.4,1c-1,1.7-3.8,1-5.5,1-4.5,0-24,1-26-2s1-6.2.6-9c-1.6-1.5-38.8-1.6-43.5-1-8,.9,2.3,7.4,1.5,12-1.7,1.7-40.7-.9-47.5,0-1.5.2-2.3,1-2.4,1.1s-.6.8-1.5,1c-2.2.4-16.9-1.3-18.3-2.2s-5-11-5.2-12.8h2.1Z"/>
      <path class="st12" d="M427.3,98h5c-.5,4.2,2.7,1.2,4,1,1.3-.2,2,0,3,0s.7,0,1,0c-.4,3.9,1.5,1,2,1h3c3.3,0,5.8.4,9,1s2.5.7,4,1,1.4,0,2,0,1.2,1.4,2.7,1.8c6.1,1.4,13,1.9,19.3,4.2-.6,2.3,1.3,3.3,1,8s-1,2.5-1,4.4c-.3,14.5.3,29,0,43.5-5.7-1.7-4,4.2-6.3,6.7s-7.6,4.3-9.7,5.3c-.4-.4-2.5.4-3-2.5s1.7-2.2,2-3.2-.2-2.7,0-3.3c1.7-3.8,5.7-3.7,6-4,2.4-2.4-2.8-1.8-3-2-.6-.6-2.8-13.7-3-15.5-.5-5.9,0-13,0-19s3.2-10.5-3.7-14.2-11.5-4.1-13.2-4.2-1.4,0-2,0c-1.2-1.3-2.6-.9-4-1-2.7-.2-4.4-.6-7-1s-4.9-1.7-8-2-3.2,1.2-5,1c-5.2-.6-8.7-1.7-15-2,.6-2.7-1.3-2-3.1-2.3-3.9-.7-6.6-.5-10.4-.7s-4,1-3.4-2c12.4,0,24.9.7,36.9,0h0Z"/>
      <path class="st9" d="M332.5,525.2c.1,0,.9-.9,2.4-1.1,6.8-.8,45.8,1.7,47.5,0,.8-4.6-9.6-11.1-1.5-12s41.9-.5,43.5,1c.4,2.8-2.1,6.7-.6,9s21.5,2,26,2,4.4.6,5.5-1c2.6.1,5.3-.1,8,0,4.2.2,9.6-1,13,1-9.2,3.7-12,1.1-20.4,1-41.1-.6-82.2.5-123.3,0h0Z"/>
      <path class="st9" d="M484.2,252.7c1.1,85.8,1.7,172.5.5,258.5-.6.9-2.4.8-2.5.9-1.1-1.6-4.1-1-6-1l7-1c-.2-59.7.2-119.5,0-179.2,0-26-.4-52.4,0-78.3h1Z"/>
      <path class="st9" d="M484.2,121c-1.7,1-1,3.8-1,5.5v20c0,6.7-.6,4.4,1,5.5,0,11.3,1.6,30,0,39.9s-1.8,8.7-2,12l-9,11c0-.5-.5-.9-1-1,1-1.7,2.1-8.2,5-10s4.2,1.5,2.8-2.3-5.2-4.3-6.8-5.6-2.3-3.5-3-4c5.3-.4.2-2.4,0-2.7-1.4-3.7-2.4-8.6-4-12.3s.2-.8,0-1c2.1-1,8.5-4,9.7-5.3,2.3-2.5.6-8.4,6.3-6.7.3-14.5-.4-29,0-43.5s1-3.5,1-4.4c3.1,1.7,1,3.7,1,5h0Z"/>
      <path class="st8" d="M386.4,87c5.6,0,13.2-.7,18.5,0s3,.6,1.5,2-22.7,4.2-26,5.5l-7.9,3.5c-14.3.6-31.8,2.4-45.9,5s-11.6,2-17,5c-.6-4.4-4.2-6.5.4-12s4.4-1.7,6.9-2,8-3.5,10.6-4c.7,2.4-3,2.8-3,3.6s1,4.1,1.2,4.3c.7.6,15.2.3,17.4.2,11.8-.8,23.9-4.4,35.4-7l-1-3v-1h9-.1ZM381.9,89v1c.6-.3.6-.7,0-1Z"/>
      <path class="st9" d="M309.5,397.4c0,8.3.5,16.6,0,24.9.7.8,5.8-3.3,7-4s.9.1,1.7-.3.1-1.7.8-1.7c1.7,0,3.2,2.7,5.5,2-1.4,4.7-3.5,13.2-4,18-5.3,1.4-10.3-1.3-11,5-1.5,13.4,1.1,29.3,0,42.9,2.1-1.1,4.5-1.8,5,1.5l-5-.5v25.9h-2c-1.5-12.4,0-25.1,0-37.4,0-22.9-2-48,0-70.4s.9-1.1,1-2.4c.3-2.4-1-6,1-7.6v4h0Z"/>
      <path class="st8" d="M437.3,87c2.7-.4,1.3,1.8,3.4,2.1,3.3.4,6.2-1.1,8.9-1,6.9.3,16.8,2.8,23.6,4.4s11.4,6.5,9,15.5c-6.3-2.3-13.2-2.8-19.3-4.2-1.5-.3-2.5-1.8-2.7-1.8,2.5-2.1,6.6-.6,9.5-1s1.8.5,1.5-1.5c-1.4-8.4-26.4-7.4-33-5.5l1,5c-1,0-2,0-3,0-1.1-1.3-2.5-.9-4-1s-3.4,0-5,0c-1.4-2-5.9,0-7-2.5-1.8-4.2,7.5-2.1,6-7.5,4.4,0,7-.5,11-1h.1Z"/>
      <path class="st13" d="M350.5,88c2.4.4,6.5,2.6,9,0h18l1,3c-11.5,2.7-23.6,6.3-35.4,7s-16.7.4-17.4-.2-1.2-4.1-1.2-4.3c0-.8,3.7-1.2,3-3.6,4.3-.8,5.2-.6,9.8-1.9,5.7-1.6,8-1,13.2,0h0Z"/>
      <path class="st9" d="M408.3,87c5.9.4,11.7,1,18,1,1.5,5.4-7.8,3.3-6,7.5s5.6.5,7,2.5c-12,.7-24.5,0-36.9,0s-12-.3-18,0l7.9-3.5c3.3-1.3,25-4.5,26-5.5,1.5-1.4,0-1.8-1.5-2-5.3-.7-12.8,0-18.5,0,4.8-1.5,12.5-1.5,17.5-1s3.6,1,4.4,1h.1Z"/>
      <path class="st8" d="M308.5,298.6c0,.7,1,2.6,1,4.4,0,13.2-.1,26.3,0,39.5,3.9-2,6.9-7.6,10-10s4.9-3.1,7-3v2c-5.2,2.9-16.3,10.5-9,16h-1c-.3,0-3.9-4.4-6.1-1.4s-.7,13.6-.9,17.4,0,2,0,3c-.1,4.4-2.2,19.9.7,22s3.3,0,4.3,0h1c-1.8,4.5,6.7,3.3,10,3v4c-2.5,0-5.6.8-7.4.7s-4.7-2-6.9-2.9-1.5-1.5-1.7.2c-2,1.6-.7,5.1-1,7.6s-1,2.3-1,2.4c-1.1-7.2-1.3-15.3,0-22.4-.5-27.5-.3-54.7,0-82.4h1,0Z"/>
      <path class="st11" d="M308.5,298.6h-1c.5-60,.4-120.5,1-180.6,1.7,1,1,3.8,1,5.5.6,58.3-1.1,117.2-1,175.2h0Z"/>
      <path class="st11" d="M484.2,252.7h-1c.2-13.6.2-27.3,0-40.9,0-1.9.7-4.9-1-6v-2c.2-3.3,1.4-8.7,2-12,.2,20.3-.2,40.6,0,60.9Z"/>
      <path class="st11" d="M484.2,151.9c-1.7-1-1-3.8-1-5.5v-20c0-6.7-.6-4.4,1-5.5-.2,10.3,0,20.6,0,30.9h0Z"/>
      <path class="st11" d="M437.3,87c-4,.5-6.5,1-11,1s-12.1-.6-18-1h29Z"/>
      <path class="st11" d="M377.4,87v1h-17c4.8-1.8,11.6-1,17-1Z"/>
      <path class="st8" d="M359.4,88c-2.4,2.6-6.6.4-9,0h9Z"/>
      <path class="st8" d="M309.5,114v-4c1.6.6,1.4,3.1,0,4Z"/>
      <path class="st4" d="M339.5,103l-8.3,11.2c-.3,2.3-1.4,5-1.5,7.3,0,6.2,4.5,14.7,3.7,19.9s-2.7,7.4-3.5,9.6-.8,2.3-3.5,2c-.2-.2-3.5-1.9-4-2-.9-4,1-8.8.9-12.4-.2-9-6.4-20.7-.3-29.5s3.9-1.5,3.4-4h1c4-1,7.9-1.5,12-2h.1Z"/>
      <path class="st14" d="M323.5,236.7c.5,3.6,2.7,5.6,2.7,7.3.3,6.2-5.9,9.6-2.1,16.6s2.3,1.9,2.4,2c2,4.4,1.8,22.8,1.1,28.4.5,2,3.1,1.2,3.9,1.6s1.5,2,3.6,2,3.7-1.4,5.4-2c-.7,1.5-.6,3.5-1,5-1.5,5.2-3.3,6.2-9,7,.1-1.1,1.5-4.4,1-5s-2.3.2-3,0c-1.4-.5-3.4-1.8-5-2-3.7-18.9-4.2-38.4-2.7-57.7.2-2.3-.2-3.1,2.7-3.2h0Z"/>
      <path class="st3" d="M330.5,230.8c-.4,4.8,2.5,4.1,6,3s.7.1,1,0c.1,2.5-1,4.6,2,4-1,.6-1.8,4.8-2,5-.3.3-8.3,1.3-5.5,4,1.2.1,4-.3,4.4,0s1.8,8,1.8,8.6c0,3-3.4,5.9-3.7,7.3h-8c0-.1-1.7-.8-2.4-2-3.7-7,2.4-10.4,2.1-16.6s-2.3-3.7-2.7-7.3.1-2.7,0-4c1.7-.2,5.7-1.2,7-2h0Z"/>
      <path class="st14" d="M331.5,188.8c0,.7,1.6,2.6,1,4l-1.5-2c-8.1,5.1-2.5,12.2-1.6,19.6.5,4.1-.4,15.4,2.1,18.4-.4.5-.7,1.8-1,2-1.3.8-5.3,1.8-7,2-1.4-12.6-4-29.5-2-41.9s0-.7,0-1c1.6.1,3.3-1.7,4-3l6,2h0Z"/>
      <path class="st14" d="M328.5,312.6c0,1-.1,2,0,3,.2,2.3-.2,4,3,4v3.9c.6.4,2.1,0,2.9,0-1,3.7,2.7,3.7,3,4,3.1,3.8,1.7,3.5,6,7s-.6,3,3,2c-.2,1.3-.9,2.8-1,4-2.5-1.9-2.3,0-3,2-1.7.5-3,1.4-5,1-.2-1.7-.4-1.7-1-3s.4-1.3-.2-1.8c-2-1.6-2.2,1.5-3.7-5.2s.1-9.6-4.8-6.8-1.1,2.4-1.2,2.8c-2.1,0-5.3,1.7-7,3,1-6.3,2.5-12.5,2-19,1.3-.1,6.2-.7,7-1h0Z"/>
      <path class="st14" d="M345.5,341.5c0,1.8,1.1,5.3.9,5.8s-2,.6-2.7,1.8c-1.3,1.9-2,7.4-5,5.2s0-1.7-.1-1.8c1.9-3.1,2.8-6.6,4-10,1-.3,1.9-1,3-1h0Z"/>
      <path class="st14" d="M326.5,105c.4,2.6-2.2,2.2-3.4,4-6.1,8.8.1,20.5.3,29.5s-1.8,8.3-.9,12.4c-1-.2-4-.2-5,0l-3.8-27.4c1.2-3.4.6-9.9,2-12.8s8.6-5,10.8-5.7h0Z"/>
      <path class="st14" d="M372.4,98c5.9-.3,12,0,18,0-.6,3,1.5,1.9,3.4,2,3.8,0,6.5,0,10.4.7s3.7-.4,3.1,2.3c-10.5-.5-24.7-1.7-34.9-1l-.5-1c-1.8-.3-1.6.3-1.5,2-1.9.2-4.1-.2-6,0-7.8-2.3-17-.9-25,0s-8,1-12,2l-1-2c14.1-2.6,31.6-4.4,45.9-5h.1Z"/>
      <path class="st8" d="M322.5,169.9l1,1c-.3.1-2.9,2.3-3,2.5-.9,2.1,1.9,1.4,2,1.5s0,1.9,0,2-1.9,0-2.8,1.6-2.5,9.9-2.2,10.3c5.7-1.1.9-8.7,8-9s.3,1.2,1,1v-6h1.5c1,.2.4,3.7.5,5s-.6,8.6,2,6,1-8.3,3-10v1c1.4,3.9-1.7,8.2-2,11s0,.7,0,1l-6-2c3.5-7.3-2.5-6.3-4,3s0,.7,0,1c-11.4,7.2-2.2-20.3-1-21s1.5.2,2,0h0Z"/>
      <path class="st9" d="M322.5,150.9c.5,0,3.8,1.8,4,2s-.1.7,0,1c.6,1.1.7,1.9,1,3v1c.1.6-.1,1.4,0,2-4.2,0-9.8,5.1-3,7v2c-.3,0-1.4.7-2,1s-1.6-.2-2,0l-5-3c-.8-3.6,3.7-.9,5-3.5s-4.5-2.7-5-3.5c-2.5-4,9.1,1.4,4.3-4s-8.6-3.7-2.3-4.9,4-.2,5,0h0Z"/>
      <path class="st9" d="M323.5,297.6c1.6.2,3.6,1.5,5,2-.2,5.6-4.1,3.2-5.1,4.6s-1.1,7.3-2.9,9.4h-3c1-7.4-6.1-17.5,6-16Z"/>
      <path class="st3" d="M328.5,299.6c.7.2,2.7-.3,3,0,.5.6-.9,3.9-1,5s0,1.9,1,2c-.3.4.8,4.5-3,6s-5.7.9-7,1-.7,0-1,0c1.8-2.1,1.9-8.1,2.9-9.4s4.9,1,5.1-4.6Z"/>
      <path class="st0" d="M454.2,479.3c-2.1,1.4-2,3.7-2,6h-3c0-1,.9-7.2-1.5-6s-4.8,6.6-5.5,9,0,.7,0,1c-6.1-1.4-1.3-3.3-.5-5,2.3-5.1-3-6.4-6.5-4s-.8,0-1,.6c-.3.9.9,1.3,1,1.4,0,.3-.1.7,0,1,.3.7.7,1.3,1,2-.5.3-2.3,4.4-1,6s7,4,8,3l1.5-4c1.8,2.4,5.9,10.3,4.4,12.8s-17.9,5.6-20.6,5.9c-5.2.6-10.5,0-15.8.3-1.9,0-4-1-3.4,2h-48.9c.9-4.6-5.5-3.2-8-6.4-4.5-5.6,13.1-5.8,15.4-6.7s1.4-2.8,2.3-2.9c3.2-.4,5,4.1,5.4-3.9s-2.9-3.4-8-6-.6-.7-1-1-.1-.9-.5-1h-1.5v3h-2c-.6.2-1.8-.2-2,0-.3-.2-.8-1-1-1-.8-.1-2.2,0-3,0-3.1.4-.9,1.3-3,2l1-4c-6.5-1.4-6.1,2.6-6,8-.1,0-.7,1.4-2,1,.6-1.7-.8-3-1-4s.4-3,0-4.3-2-.6-2-.7c-.2-.3.1-1.5-.3-2.2-1.6-2.9-4-5.1-4.7-8.8.8-1.3.9-3.9,1-4s2,1.2,3.3.9,1.4-1.7,1.7-1.9c.8-.5,2.5-2,3-2l1,14c4.1.7.5-4,.9-6.3s2-.6,2.1-1.2-.9-5.2-1-5.4c3.9-3.6,4.2-11.7,10-13.4,3.6-1,4.3,2.5,5.2,3.2s1.3-.7,1.6-.5c.5.4-.2,1.5.7,1.7,2.3.6,1.2-3.4,4.5-3,1.6.4,3.3,1,5,1,3,.7,1.6,4.6,2,5,1.7,1.9,2.1-2,2.5-2.1,2-.1,5.3,2.4,6.9,2.5,4.8.6,15.7-2.5,20.5-4.5s3.5-2.7,4-3c12.8-8.4,26.1-16.4,38.9-24,7,2.7,2.5,5,2.1,9.6-.8,8.2-.4,18.4-1.5,26.4s-3.7,8.8-3.5,9.4c.3,1.2,2.9,1.4,3.9,2.1s.9,2.3,1,2.4h0ZM415.3,459.3h-4c2.3,4.5-1.3,1.5-1,5,3.2.5,5.4-1.9,5-5ZM392.4,485.3c-1,0-2-.3-3,.5s-.5,2.8-2,2.5c1-5.7-3.6-6-8-4.4v7.4c3.1.9,1.8-3.2,4.5-3s-.3,2.4,1.1,3,4.2.9,5,.9c1.4,0,2.2-.9,2.3-.9h12c6.3.2,7.6,4.3,10-5-3.5-.6-5.1-1.8-8,1,.1-3.8-1.8-1-2-1h-5c-1.3,0-4.9-1.2-7-1h0Z"/>
      <path class="st12" d="M482.2,205.8c-.2,1.8-.5,5,1,6,.2,13.6.2,27.3,0,40.9-.4,25.9,0,52.3,0,78.3.1,59.7-.2,119.5,0,179.2l-7,1h-3l-.5-1-1.5,1h-7c3-7.5,2.9-12.1,2-20l2-6c3.8-1.1,1.2,5.2,2,6h3v-6c3.8-1.1,1.2,5.2,2,6,2.4.3,3.5,0,4-2.5,1-5.2,0-6-5-6.5l.6-62.2c-.5-7-.5-10.4-2.6-16.6s5.3-7.9,0-10v-1c.3-.3.7-.6,1-1,3-3.3,2.2-10.9,2-15.5s-1.3-16-2.2-21.8-.6-3.2-2.7-2.7v-1c.6-.4,1.3-2.3,2-3s1.6.5,2.3-1.2c2.5-6.1.3-18.1.6-25.3.8-16.6,2.4-31.9,1.9-48.8s-2-11.1-2.4-11.6c-1.4-2-4.4.1-6.5,0-.1-.2-2.8-2.9-3-3l5-.5c.5-2.3-1.6-1.2-1.9-1.6-.7-1,1.8-3.7,2.8-4.9s1.6.9,3-3c2.1-5.8,1-13.4-.3-19.2s-1.7-1.6-1.7-1.7c0-.3.9-4.4,1-6s.2-4.3,0-6l9-11v2.2Z"/>
      <path class="st14" d="M472.2,403.4c2.2,6.2,2.1,9.6,2.6,16.6l-.6,62.2c-2.9-.3-6.1.2-9,0-.9,3.2.8,6.8,1,9,.9,7.8,1,12.4-2,20h-12c-.8-4.3,5.7-6.1,6-9.5s-2.6-9.4-3-10.4c6.7.1,4.6-5.5,5-10,1.3-15.1,1.5-30.2,2-45.4s3.3-19.8-1-27.5c1.3-.8,4.6-3.8,5-4,1.3-.6,4.4-.6,6-1h0Z"/>
      <path class="st12" d="M317.5,443.3c.2.2.1,4.3,0,5-.2,1.1-1.9,1.4-1.6,4,1,10.1,10.2,19.8,4.6,30.9s-1.5-.5-2,.7c-1.7,4.2-2.4,8.5,3,7.3,4.5,4.3,1.5,8.2,1.9,12.5s2.8,4.5,2.1,7.5h-16v-25.9l5,.5c-.4-3.3-2.9-2.5-5-1.5,1.1-13.7-1.5-29.5,0-42.9,1.2-.2,7.7,1.7,8,2h0Z"/>
      <path class="st14" d="M330.5,442.3c-2.9,2.9-3.5,7.7-6,11h6c-.2,1.2-3.4,1.8-3.9,3.7s1.2,4.9-.1,7.2c3.4-.6,5,3.1,5,6s-1.7,1.5-1,2,4.5-1.4,6-1c-1,1.2-1.4,2.6-2,4-1.5,3.3-2.8,6.9-6,9s-3.8.3-4.1,1.6c-1.4,6.5,10.7,8.3,9.1.4h1l1,6c-1.8.8-2.3,9.5-2,11.4.5,3,4.7,3.8,4,7.5h-12c.7-3-1.9-4.8-2.1-7.5-.4-4.3,2.6-8.1-1.9-12.5,4.5-1-1-4.4-1-8,5.6-11.1-3.6-20.8-4.6-30.9s1.4-2.9,1.6-4c2.2-2.2,5.3-5,6-8,2.4.2,4.4,2.3,7,2h0Z"/>
      <path class="st4" d="M345.5,488.2c.2,1,1.6,2.3,1,4,1.3.4,1.9-1,2-1,4.9-1.2,3-2.3,4.5-3s.5,1.5,3.5,2,2.1-.2,3,0,1.8.8,4,1,.7,0,1,0h3c.5,0,.8-.6,1-1l7,1c-.3,8-2.2,3.5-5.4,3.9s-.7,2.3-2.3,2.9c-2.3.9-19.9,1.1-15.4,6.7,2.6,3.2,9,1.8,8,6.4h-23c.7-3.7-3.5-4.6-4-7.5s.2-10.6,2-11.4,3.3-.6,5-2c-.6,4.2,5,1.5,5-2h0Z"/>
      <path class="st4" d="M452.2,485.3c0,5.7,2.4,4.7,3,6s3.1,9.9,3,10.4c-.3,3.4-6.9,5.2-6,9.5h-42.9c-.6-3,1.5-1.9,3.4-2,5.2-.2,10.5.4,15.8-.3s19.7-4.6,20.6-5.9c1.6-2.6-2.6-10.4-4.4-12.8l-1.5,4c-1,1-6.9-1.8-8-3,3.9-.6,6.5,1.9,7-2s0-.7,0-1c4.3-1.7,7.7,5.7,7.7-1.3s-.7-1.3-.7-1.7h3Z"/>
      <path class="st6" d="M463.2,523.2c-2.6-.1-5.3.1-8,0s-1.1-.9-2.4-1c-2-.2-11.2.5-11.6,0s.2-3,0-4c6.1.2,20.9-3.8,22,5Z"/>
      <path class="st9" d="M473.2,511.2h-2l1.5-1,.5,1Z"/>
      <path class="st4" d="M427.3,104c-.8,3.2,6.2,4.1,8,2,2.5.4,4.3.8,7,1-.6,4.2,3,1.1,4,1s1.3,0,2,0l8.9,5.6c4.9,5,.6,14.8,1.1,19.8s2.2,3,2.1,6.1-3.6,4.8-2.9,8.9,1.7,1.4,1.8,1.6c.2.7,1,2.7,1,3-6.6.9-4.2-.7-6.1-4.2s-1.9-.8-2-1.4c-.3-1.9,1.1-3.5,1.1-4.8s-2.5.2-2.1-1.5c2.1-.5,6.8,1.6,6-2-13.7,2.2-6.2-20.8-9.9-25.5s-20.2-5.2-25-5.4v-3c1.8.2,3.8-1.1,5-1v-.2Z"/>
      <path class="st14" d="M468.2,160.9c-.9-.9-3.9,2.7-4,3,0-3-1.6-2.9-4-3,2.4-4.2,5.6-9-1-11,0-.2-1.6-.5-1.8-1.6-.7-4.1,2.9-8.4,2.9-8.9.1-3.1-1.9-4.3-2.1-6.1-.5-5.1,3.8-14.9-1.1-19.8l-8.9-5.6c1.7,0,11.6,3.3,13.2,4.2,6.9,3.7,3.7,8.9,3.7,14.2s-.4,13.1,0,19,2.4,14.9,3,15.5h0Z"/>
      <path class="st1" d="M407.3,103c6.2.3,9.8,1.4,15,2v3c-14.7-.7-29.7.6-44.5,0-5.9-.2-12.2-1.9-18.4-1v-3c1.9.8,4-.9,5-1,1.9-.2,4.1.2,6,0s1.8-1,2-1c10.2-.7,24.4.5,34.9,1Z"/>
      <path class="st6" d="M439.3,99l-1-5c6.6-1.9,31.5-2.9,33,5.5s-.2,1.3-1.5,1.5c-2.9.4-7-1.1-9.5,1-.6,0-1.4,0-2,0,.8-2.7-2.3-2.9-4-1-3.1-.6-5.7-1-9-1,.5-4.1-2.1-1.1-3-1s-1.3,0-2,0h-1Z"/>
      <path class="st1" d="M465.2,166.9c-.2.5.3,2.2,0,3.3s-2.5.3-2,3.2,2.7,2.1,3,2.5-.1.7,0,1c-2.6,2.1-3.1,5.6-7.2,3s.3-4.2.3-4.6c0-.6-1.1-1.2-1.1-1.4.2-2.9,3.8-5.3,6-7h1Z"/>
      <path class="st9" d="M468.2,160.9c.2.2,5.4-.4,3,2s-4.3.2-6,4h-1c.2-.9-.3-2.3,0-3s3.1-3.8,4-3Z"/>
      <path class="st14" d="M435.3,106c-1.7,2.1-8.8,1.2-8-2,3.1.3,5.6,1.6,8,2Z"/>
      <path class="st8" d="M454.2,101c1.7-1.9,4.8-1.7,4,1-1.5-.3-3-.8-4-1Z"/>
      <path class="st9" d="M436.3,99c-1.3.2-4.5,3.2-4-1,1.5,0,2.8-.3,4,1Z"/>
      <path class="st14" d="M446.3,108c-.9,0-4.6,3.3-4-1,1.4,0,2.8-.3,4,1Z"/>
      <path class="st8" d="M442.3,99c.9,0,3.5-3.1,3,1h-3v-1Z"/>
      <path class="st9" d="M442.3,99v1c-.5,0-2.4,2.9-2-1h2Z"/>
      <path class="st2" d="M470.2,196.8s-.1,1.3.3,1.6c2.3,1.7,4.6,3.4,6.6,5.4-2.9,1.8-4,8.2-5,10s-.8.6-1,1l-5-2c1.6,5.3-3.4,6-5.4,10s-1.8,8.1-2.6,10.9c-.6.2-1.8-.3-3,.5s-2.7,4.8-5.5,5.5l1.5-6-10,1c0,2,4,.9,4.8,2.2s-.5,3.1,1.7,4.7,4.6.6,6.4,1.1.7,0,1,0c1.1.2,2.9,1.4,4.7,1.7s6.8-1,6.3,2.2c-.6.3-3,3.9-3,5-2.1.2-.5-3.5-1-4-2.7-2.6-4.8,5-5,7h-1c-.9-.7,2.6-9.6-.5-8s-7.3,8.2-4.5,10c-2,1.5-4,3.3-6,5s-3.2,1.5-5.1,3.5,0,1.6-.4,2.2-1.2.2-1.6,1.7-.8,4.3-.9,6.5c-.9.1-2.2-.2-3,0-.2-2.7-1.1-9.5-4-9v-2l1-2c2.6-2.9,6.2-13.7,7-18l1-2v-2l-1-2c-.2-6.5,2.6-5.1,4-7.8s3.2-12.4,4.3-16.4c2.5-8.4,5.1-10.7,4.7-20.8,5.1-1.5,14.7,0,19,3l.2.3ZM456.2,228.8c3-4.7,2.9-10.6-4-10l4,10Z"/>
      <path class="st3" d="M434.3,142.9c-.2,2.6,1,1.7,2,2s1.5-.3,2.3,0c1.5.6,4.3,5,6.7,4-.9,2.7-2.5,9.4-3,12s-.2,3.4.2,3.8,8.4,4,9.8,2.1c.3-1.5-1.1-.5-2-1.7s.1-1.1,0-1.3c4.3.2,4.3-1.5,3-5h4c-.2.5.2,1.5,0,2-.8,1.9-1.3,5.8-2.9,7.3-1.6,1.5-2.9.5-3.1.7-.4.4,1.8,5.4,2,7h-4l1-6c-2.4,1.5-4.4.2-7,0-.6,2.9,2.1,1.8,3.3,4.2s-.9,3.4,2.7,4.8.4.7.8.7c.8,0,1-.6,1.2-.7,1.8-.6,2.4.8,2-3,2,0,4.2.5,5-2,0,.2,1.1.8,1.1,1.4s-4.8,1.8-.3,4.6,4.6-.8,7.2-3c1.6,3.7,2.6,8.6,4,12.3s5.2,2.3,0,2.7c-.8-.5-3-.4-4-1-1.9-1.1-6.8-4.6-8-5,9.5,1.3-.1-9.2-3-2-2.7-1.9-5.6-1.4-8-2s-2.8-.5-5-2,.4-2.1-4-3l4-6.5c-2.2.7-3.8-.4-5.4-.5s-1.2,5.8-1.5,7c-.6-.1-1.4.1-2,0-4.8-1.1-19.7-7-22.9-5.5s-.9,1.4-1,1.5c-.9.4-2,.7-3,1s-2.2-.3-3,0v-2c1.9-.5,5.2-2.7,5-5,.4.2,1.5-.3,2.3,0s.4,2.1,2.2,2.1c2.6,0,3.2-2.2,5.5-2.1l-.5,4c1-.6,2.5-4.8,4-4s.3,4.6,4.5,2l2,5c2.5-8.5-1.3-8.6-5.1-14.9-.7-.4-4,1.4-6.2.9s-.6-2-1.2-2c-4.7-.3-9.4,2.6-8.4,8-6.5-1.8-8.3-1.3-6,6-.9.2-4.7,1-5,1-2,0-7.2-3.5-6-6,2.2-.2,6.8-.6,8-2.7s2-8-3-7.2c.2-.2-.3-1.6,0-1.9.6-.5,3.7,0,4.9,0s3.9-.3,5.3,0,.7,3.9,4.3,1.1,1.8-4.9,3.4-3.1-.7,2.3.6,3c9.8,5.3,15.1-3.5,17.3-12,2.5,1.9,1.3.4,3-1h-.1Z"/>
      <path class="st3" d="M473.2,214.8c.2,1.7,0,4.2,0,6l-2-1c2.3,4.9-.9,1.9-2.6,4s-.2,2.6-.4,3c-.4.7-1.4,2.1-2,3s-2.2,1.7-2.6,2.4c-2.2,3.3-3.7,9.7-8.4,10.6h-1c2.2-2.8,3.1-5.7,4-9,.4-.1,1.2.3,1.8-.2,1-.8,9.7-16.2,11.2-18.8s.8-.7,1-1c.5.1.9.5,1,1Z"/>
      <path class="st6" d="M452.2,185.8c.3,1.2-.7,4.8.6,5,3.5.5,6.8,1,10.3,1.5s3.5,1.6,3-1.6c1,.6,3.2.5,4,1s2.1,3.3,3,4l-3,1c-4.3-2.9-13.9-4.5-19-3,0-1.8-.5-6.5-1-8h2.1Z"/>
      <path class="st8" d="M473.2,195.8c1.6,1.3,5.8,2.5,6.8,5.6s-1.8,1.7-2.8,2.3c-2.1-2-4.3-3.7-6.6-5.4s-.2-1.6-.3-1.6l3-1h-.1Z"/>
      <path class="st13" d="M381.9,89c.6.3.6.7,0,1v-1Z"/>
      <path class="st6" d="M356.4,347.5c-3.7,1.7-1.3,4.1-1,7s0,.7,0,1c-.3.3-.8.6-1,1-.5,1.2-3.2,7.9-3.1,8.4.1.8,1.9.9,2.5,1.6s.4,1.8.6,2c-.9-.3-1.8-1.2-3-1l-4,14,8-6c-1.1,2.6-3.4,6.4-4,8-5.2,1.6-6.6,7.3-8,12s-1,8.5-2.5,12-3.1,3.6-3.3,4.7,1.2,10.8.8,11.3-1.8-.2-2,0-.9,4-1.5,5.9c-2,6.4.7,3.5,3.5,7v4l-5,1c-.4-1.7,1.8-.5,2-1.6.4-1.7,0-3.4-1.5-4.4-2.8,1.1-1.3,6.6-1.6,6.8-.4.4-1.8,0-1.9.1-2.6.3-4.6-1.8-7-2s-1.7-.1-2,0c-.7-1.2-1.1-2.6-1-4,.5-4.8,2.6-13.2,4-18s1.8-2,2-2.7c.8-3.2-1.7-4.8,4-5.3-.6-3-2.8-5.6-2-9s3.2-3.3,2-6h-5v-4c3.1-.3,6.4-.3,7.8-3.7s0-2.6.2-3.3c1.1-2.9,3.5-14.4,4-15s3.4,1.4,1-3l2-7-3,5s-1.3.3-1.8-.3-.2-5.7-2.7-1.7-1.3,9.2-4.5,12h-1v-1c1.7-2.1,1-6.8,1.5-7.9,1.3-3,6.4-4.4-2.5-4,.2-2,.9-5.2,3-6s4.3,1.2,6-4c.2.2.8-.2,1,0,.7.8,1.6.7,2,1s-.2,1.5.1,1.8c3,2.3,3.7-3.2,5-5.2s2.6-1.5,2.7-1.8c.3-.5-.9-4-.9-5.8s0-.7,0-1c0-1.2.8-2.7,1-4s-.3-3.7,0-5,1.3-1.1,2-4,1.3-6.5,2-9,1.4-4.5,2-6c2.3-6,3.5-1.9,6.7-1.3s4.7-2.1,6.2,2l-8.8,34.2v.2ZM353.4,318.6c0,3.2,3.3,2.8,3,3.5-1,1.6-4.2,1.5-5,3-1.3,2.5,3.5.5,3,2.5-5.3-.9-1.6,2.2-2.1,2.9s-2.2.2-2.8,1.7-.7,5,1.8,4.4c.4,1.5-2.1,1.1-3.1,2.4s-1.9,4.8.3,5.9c7.6,3.5,9.8-2.1,4.8-7.3h4c-3.6-4.4-1.2-2,.5-4s.7-3.1,1-4.5,1.3-1.5,1.5-2c.4-1-4.3-.6-4-2.5,2.7-.5,4.7-1,5-4s-1.4-3.9,0-6l-2,2c-2.5-2.9-6-1.9-6,2h.1ZM349.5,349.5c-.5-.1-1.4,0-2,0-3.3,0-3.9,0-3,4.5,2.1,9.8,16-2.2,5-4.5ZM351.4,359.5l-7-1v4c2.6.2,5.9-.3,7-3ZM347.2,365.8c-2.2-.7-5-.8-6.7,1.2,1.6.7,8.4,2.7,6,5.5s-5.6-2.4-7.1-.4,1.4,6.1,1.1,6.4c-1.3-.5-4.7.4-3,2s6,.4,7,1.5c-2.8,3.5-6.8-4.2-8.6,2.5s5.2,2.4,6.6,5c-12.9-.9-5.6,3.7-6,5.5-5.8,2.3-3,2.3-4,5.9s-3.8,5.7-.4,6.6,3.3-2.4,5.5-2l1,3c1.1-2.9.9-3.6-1-6h3c.9-2.7-1.8-1.6-2-2.7s.1-2.9,0-4.3l3,1c-2.2-4.3,2.5-4.7,2.5-7.9s-1.9-2.6-1.5-3.1,2.4.4,3-2.5c1-4.1-1.8-3.4-1.9-3.6-1.2-1.9,2.8-2.9,3.8-4.5s3-8-.2-9h-.1ZM336.5,414.4l-8-1c7.4,5.4-.7,2.9-2,6.5,5.5,2-1.5,2.6-1.8,6.1s1.3,2.8,1.8,4.3c-.9.2-2.6-.5-3,.5-.9,2.4,5.5.9,3,3.5s-2.7.4-3.4.9c-3.5,2.7,2.9,3.9,5.4,4.1-2.5-6.2,1-2.9,2.6-4.9s-1-3.2-.5-3.9c1-1.3,4.4-.7,2.9-6.5s-2.4,0-2-1.6h4l-4-4c2.1-.3,5.3-1.3,5-4Z"/>
      <path class="st6" d="M357.4,369.5h-1c-1.2-.3-1,.1-2-1,.9.3,2.4-.4,3,1Z"/>
      <path class="st12" d="M318.5,404.4c.3.8-.4,3.4,0,4-1,1.6-6.4,1.2-6.9,2.1-3.1,5,3.7,1.2,5.9.9-1.1,2.1,4,2.3,2,4s-4-1.6-3,3c-1.2.7-6.3,4.8-7,4,.5-8.3,0-16.6,0-24.9,4,.5,7.5,3.4,9,7h0Z"/>
      <path class="st1" d="M328.5,401.4c-.8,3.3,1.4,5.9,2,9-5.7.5-3.2,2.1-4,5.3s-1.2.1-2,2.7c-2.3.6-3.8-2-5.5-2s-.4,1.5-.8,1.7c-.8.5-1.6.3-1.7.3-1-4.6,2.4-2.4,3-3,2-1.7-3-1.9-2-4,1.9-.3,4.1.8,3-2.5s-2-.4-2-.5c-.4-.6.3-3.1,0-4,4.2,1.4,2.4-2.8,3.5-3.1,1.8-.3,4.5.4,6.4,0h.1Z"/>
      <path class="st14" d="M325.5,395.4h5c1.2,2.7-1.8,5.1-2,6-2,.3-4.6-.4-6.4,0s.7,4.4-3.5,3.1c-1.5-3.6-5-6.4-9-7v-4c.2-1.7.9-.5,1.7-.2,2.2.9,4.4,2.7,6.9,2.9s4.9-.6,7.4-.7h0Z"/>
      <path class="st14" d="M320.5,436.3c-.1,1.4.3,2.8,1,4-.4.2-2.3,3.1-4,3-.3-.3-6.8-2.2-8-2,.7-6.3,5.7-3.6,11-5Z"/>
      <path class="st12" d="M331.5,333.6c1.2,3.5,1,4.1-2,6.5,5-1.6,2.2,1.6,3,2.5l4-2c.6,1.3.8,1.3,1,3s0,2,0,3c-.2,0-.2,1.3-1,1l-2-4c-.8,2.3-.8,6.1,1,8-1.7,5.2-3.5,3.1-6,4-1.2-1.6-3-2.1-5-2,0-.4-1.2-1.6-.9-2.4.8-2.3,4.8-.3,3.9-3.6-1.9-.2-3.6,1.1-5.4,1s-1.4-.9-1.6-1l-2-5c3.8.3,4.3-1.6,4-5l4,1c.8-.9,0-6.3,0-7v-1c3.9-.3,3.9-.1,5,3Z"/>
      <path class="st2" d="M327.5,374.5h1c.5.1,1.7,1.5,3,1,0,.2,1,.9,1.1,2.4,0,2.4-2.7,5.3.9,6.6-.2.6.3,2.1-.2,3.3-1.4,3.4-4.7,3.5-7.8,3.7s-11.7,1.5-10-3c3.2-2.7,7.7-12.7,11-14s.7,0,1,0Z"/>
      <path class="st2" d="M309.5,366.5c5.2-2.6.9,3.2,6,2l-1,2c2.4-.2,4.7.3,7,1s1.2.7,2,1l-9,16c-1,0-2.4,1.5-4.3,0-2.9-2.2-.8-17.7-.7-22Z"/>
      <path class="st12" d="M316.5,347.5c5,4.6,1.7,5.2,1,10-4,1.2-4.1,5.4-8,6,.2-3.8-.8-15,.9-17.4s5.8,1.3,6.1,1.4Z"/>
      <path class="st2" d="M326.5,331.6c0,.7.8,6,0,7l-4-1c.3,3.4-.2,5.3-4,5l2,5c-1,0-2.2.2-3,0-7.3-5.4,3.7-13.1,9-16Z"/>
      <path class="st9" d="M320.5,347.5c.2,0,.7.9,1.6,1,1.8,0,3.5-1.2,5.4-1,.9,3.3-3.1,1.3-3.9,3.6s.9,2,.9,2.4c-.2,5.1-4.6,3.3-7,4-.3,2.5-.9,5.9,2,6.5l-4,3.5,6,4c-2.3-.7-4.6-1.2-7-1l1-2c-5.1,1.2-.8-4.6-6-2v-3c3.9-.6,4-4.8,8-6,.7-4.8,4-5.4-1-10h1c.8.2,2,0,3,0Z"/>
      <path class="st9" d="M326.5,373.5v1c-3.3,1.3-7.7,11.3-11,14h-1l9-16c1,.4,1.9,1,3,1Z"/>
      <path class="st6" d="M326.5,329.6c0-.4,1-2.7,1.2-2.8,5-2.8,4.2,4,4.8,6.8h-1c-1.1-3.1-1.1-3.3-5-3v-1Z"/>
      <path class="st9" d="M483.2,211.8c-1.5-1-1.2-4.2-1-6,1.7,1.1,1,4.1,1,6Z"/>
      <path class="st0" d="M364.4,103c-1,0-3.1,1.8-5,1v3c6.2-.9,12.6.8,18.4,1,14.8.6,29.7-.8,44.5,0,14.8.8,22.4,2,25,5.4s-3.8,27.8,9.9,25.5c.8,3.6-3.9,1.5-6,2-.5,1.7,2.1.5,2.1,1.5s-1.4,2.8-1.1,4.8,1.6.7,2,1.4c1.8,3.5-.6,5.1,6.1,4.2.2,3.8-2.2,3.8-3,6h-4c1.3,3.5,1.3,5.2-3,5-2.5-2.4-4.4-3.6-8-3,.4-2.6,2.1-9.3,3-12s2.7-2,2-4l-3-2c3.6,1.7,3.1-2.1,3-5-1.5-.2-.8,1.5-2.2,2.3-3,1.9-6.8,1.8-8.8,4.6-1-.3-2.2.6-2-2s1.2-.2,1-2.4-.7-5.7-1.1-8,.5-1.7-2-1.5c-.4,4,0,9.2-1,13-2.3,8.5-7.5,17.3-17.3,12-1.3-.7-.4-2.7-.6-3-1.6-1.8-2.6,2.5-3.4,3.1-3.6,2.9-3.5-.9-4.3-1.1-1.4-.3-3.7,0-5.3,0,.2-1.4,0-4.6-1.5-5s-2.2,1.9-2.5,2c-.9.3-3.3-.7-4,1-3.7-1.5-1.3-2.3-2-3s-2.6.6-3,1.5c-1,2.7,1.7,2.4,1.8,3,.3,1.6-.9,5.6-.8,7.5,3.3.8,1.2-2.2,2.6-3.1s3.3-.2,4.4-1.9c4.9-.8,4.6,4.3,3,7.2s-5.8,2.5-8,2.7-.7,0-1,0h-2c-.3,0-2.8-1.4-4,0-2.9,3.3,1.8.9,2,1s1.3,2.5,3,2v4c-.4-.2-1.5.3-2.2,0s-1.3-3.3-4.7-2c.5-2.2,2.7-10.8,1.9-11.9-.6-.4-1.5,0-1.9,0-5.9-2.4-5.3.2-8.7.7s-6.3.5-6.7.4c-1.2-.2-.3-3.2-4-3.1s-8.1,1.9-8.4,2.2c-1.1.9-.6,3.7-1.5,4.5s-5,2-5.8,2.2-1.4-.2-2,0c-1.3.4-3.6.8-5,1-4.1-.1-2-6.9-3.9-9.6s-6.8-3.8-9.1-4.4c-.1-.3.2-.8,0-1,2.7.3,2.6.4,3.5-2s3.2-8,3.5-9.6c.7-5.2-3.8-13.7-3.7-19.9s1.2-5,1.5-7.3l8.3-11.2c7.9-.9,17.1-2.3,25,0v.3ZM391.4,147.9l.5-3c-1.5,1-2.5,3.1-.5,3ZM380.4,155.9c.7.7,6.4-1.2,6-3.5-.9-4.3-8.3,1.3-6,3.5Z"/>
      <path class="st4" d="M334.5,262.7c-.6,2.6.9,5.3.8,7.5-.1,3.5-1.5,7.6-.8,11.5-3.7.3-2.8,7.8-3,11-.8-.4-3.4.4-3.9-1.6.7-5.6.9-24-1.1-28.4h8Z"/>
      <path class="st3" d="M334.5,281.7c9-.8,7.3,3.6,9,10-1.7,1.3-2.1.6-3,1-1.7.7-3.9,2.1-5.4,2s-2.6-1.6-3.6-2c.2-3.1-.7-10.6,3-11Z"/>
      <path class="st1" d="M342.5,297.6h1c-.5,1.5.6,2.1,1,3,.9,1.9,1.9,3.7,2,6h-7l4,7c-4.3-.7-1.8-2.8-2-3s-1.4,0-2,0c-1-.1-2,.1-3,0-.5-2.6.7-4,2-6-1,.2-6.8,1.7-7,2-.9,0-1.1-1.3-1-2,5.6-.8,7.5-1.8,9-7h3ZM342,299.6v1c.6-.3.6-.7,0-1Z"/>
      <path class="st2" d="M349.5,291.6c-1.2,1-1.9,2.3-2.8,2.9-1.6,1.1-5,0-4.2,3.1h-3c.4-1.5.3-3.5,1-5,.9-.3,1.3.3,3-1s.7-.6,1-1l5,1Z"/>
      <path class="st0" d="M352.4,186.8c.6,3.6-4.6,16.7-2.8,18.8s1.6,0,1.8.2-.3,1.4.2,1.8c1.2,1.1,10.2-2.1,12.6-2.5s3.8,0,5.2-.3c.6.7,1.4,1.3,2,2s.2,1.2,1,2c-6.9,2.1-8.1.5-7,8,1.7,11.8,11.1,6.4,9,19-3.3.3-2.8,2.8-3,3-4.7,4.8-6,4.8-5,13-1.9-.9-3.8-2.9-4-5l-3,3c-.4-2.1-5.4-7-8-7v-2c0-.7.5.2,0-1s-.2-1.1-1-2c-3.3-3.6-7.5-6.6-9,0h-2c-3,.6-1.9-1.5-2-4,10.7-4.7,9.8-18.9,6.7-28.2s-4.5-6.5-4.5-9.4,3.5-6,3.8-6.3,6.5-3.2,7.7-3.7,1.3.7,1.3.7h0ZM368.4,229.8c-3.4.6-8.8-3.3-9,2,3.6-1.1,2.8,3.1,6,3v-3c.5-.6,4.1,3.3,3-2Z"/>
      <path class="st4" d="M338.5,184.9c.3.4.7.7,1,1,1.3,1.4,2.8,2.5,4,4-.3.3-3.8,5.9-3.8,6.3,0,2.9,3.6,6.5,4.5,9.4,3,9.3,3.9,23.4-6.7,28.2s-.7,0-1,0c-.3-2.9-4.6-4.5-5-5-2.5-3-1.6-14.3-2.1-18.4-.9-7.3-6.5-14.4,1.6-19.6l1.5,2c.6-1.4-1-3.3-1-4v-1c3.1-.8,3.6,0,4-3,1,0,2,.1,3,0h0Z"/>
      <path class="st0" d="M337.5,242.7c3.1,3.4,4,8,6,12s1.1,2,3,4-.4,1.3.2,1.8c1.8,1.5,3.7-2,1.8,3.2s-.8,2.7-1,3-1.7-.5-2,.7c-.9,3.2-.5,11,.7,14.1s2.9,1,2.3,3.2c-4.2,1.4-2.2,3.1-4,6s-.6.7-1,1c-1.7-6.4,0-10.8-9-10-.7-3.9.7-7.9.8-11.5s-1.4-4.9-.8-7.5,3.8-4.3,3.7-7.3-1.4-8.3-1.8-8.6-3.3,0-4.4,0c-2.8-2.7,5.2-3.7,5.5-4h0Z"/>
      <path class="st6" d="M341.5,237.7c3.2.8,5.8,5.9,9,0,.8.9.7,1.1,1,2v3c-.2,0-3.1.9-3.3,1-3.1,1.4,5.3,5.4,6,6.2,1.2,1.3,1.1,3.1,1.3,4.7s.7,1.8.6,2.5c-.2,1.2-2.1,2.2-2.6,3.5h-1l-5.7-5.7-3.3-.2c-2-4-2.9-8.6-6-12,.2-.2,1-4.4,2-5s1.6,0,2,0ZM348.5,247.7c-1.1-1.1-3.1.9-2,2s3.1-.9,2-2ZM346.5,250.7c-1.1-1.1-3.1.9-2,2s3.1-.9,2-2Z"/>
      <path class="st1" d="M336.5,233.8c-3.5,1.1-6.4,1.8-6-3,.3-.2.6-1.5,1-2,.4.5,4.7,2.1,5,5Z"/>
      <path class="st5" d="M325.5,186.8c-.7,1.3-2.4,3.1-4,3,1.5-9.3,7.5-10.2,4-3Z"/>
      <path class="st6" d="M331.5,306.6c.2-.3,6-1.8,7-2-1.3,2-2.5,3.3-2,6,1,.1,2-.1,3,0,.2.8-.3,2.5,0,3l-3,4c1.3.6,1.1-4.2,3-2s-1.1,2.2-.8,2.9,4.1,1.6,1.8,6.1c-2.1.3-4-.5-6-1s-2.3.3-2.9,0-.2-3.7,0-3.9c.2-.4,2.8-1,2-3l-5-1c-.1-1,0-2,0-3,3.8-1.5,2.7-5.6,3-6h-.1Z"/>
      <path class="st3" d="M339.5,313.6c.5.8,2.3,1.3,2.8,2.7s-.2,3.4.4,4.2,1.7,0,1.8.1c2,2.2.7,7.8,4,7-.7,2.9-1.9,3.8-2,4h-4l1,3c-4.3-3.5-2.9-3.2-6-7,.2.2,1-.2,1-.5,0-1.1-1.5,0-1,.5-.3-.3-4-.3-3-4,2,.4,3.9,1.3,6,1,2.3-4.5-1.7-5.8-1.8-6.1-.3-.7,1.2-2.4.8-2.9-1.8-2.3-1.7,2.6-3,2l3-4h0Z"/>
      <path class="st3" d="M338.5,352.5c-.4-.3-1.3-.2-2-1l3-4.5c0-.8-1.4-.6-2-.5,0-1,.1-2,0-3,2,.4,3.3-.5,5-1-1.2,3.4-2.1,6.8-4,10Z"/>
      <path class="st3" d="M345.5,340.5v1c-1.1,0-2,.7-3,1,.7-2,.5-3.9,3-2Z"/>
      <path class="st1" d="M332.5,333.6c1.6,6.7,1.7,3.6,3.7,5.2s0,1.5.2,1.8l-4,2c-.8-.9,2-4.1-3-2.5,2.9-2.4,3.2-3,2-6.5h1.1Z"/>
      <path class="st3" d="M328.5,315.6l5,1c.8,2-1.8,2.6-2,3-3.2,0-2.7-1.7-3-4Z"/>
      <path class="st1" d="M346.5,331.6c-.3,1.3.3,3.5,0,5-3.6,1-2.8-1.9-3-2l-1-3h4Z"/>
      <path class="st0" d="M372.4,102c-.2,0-1.1.9-2,1,0-1.7-.4-2.3,1.5-2l.5,1Z"/>
      <path class="st6" d="M346.5,166.9c.8-.2,5.5-2,5.8-2.2.8-.8.4-3.6,1.5-4.5s7.6-2.2,8.4-2.2c3.7,0,2.8,2.9,4,3.1s5.9-.3,6.7-.4c3.3-.5,2.8-3,8.7-.7-.9,6.5-4.2,13-4.9,19.5-.3,2.4,1.3,1.2,2.9,1.4,4.8.8,5.5-2.9,11,1,0,3.6-5,6.5-5.5,8.9s3.1,6,.6,7.6l-34,7.4c-.1-.1-1.4.3-1.8-.2-1.8-2.1,3.4-15.1,2.8-18.8.6-.2,1-1.7,2.4-2.2,3.3-1.2,5.5.6,5.6-2.8s.4-2.1-.6-2c-7.2-.1-14.2,4.1-21.4,5s-2,0-3,0c.5-3.8,2.5-9.5-2-8v-1c.9-.8,4.7-1.4,5-2-.3,1.4-1.2,8.8.5,8.9s7.2-1.9,7.8-2.2c2.6-1.2,5.3-12.2,4.7-12.8-3.7-3.5-3.9,8.8-5.7,10s-4.1,1.1-4.3,1l1-9c-1.6-.8-3.8,3.3-4,4,.3-.5-.1-2.1,0-3-2.6,1.2-5.2,1.4-8,2v-3c-.3-.2-6.2.7-7,1l-1-1c.6-.3,1.7-.9,2-1,.8-.3,1.7-.9,2-1,.5-.1,1.3,0,2,0h3c.2.2,1.6.9,2,1s1.4,0,2,0c2.4,0,3-.8,4-1,1.4-.2,3.6-.6,5-1,.5,2.1-.4,4.1-.5,6s-1.7,3.4,1,3l1.5-9-.2.2ZM358.4,163.9c.9-.7-3.4-2.2-3,0h3c-.3,1,.3,2.9,0,4-.6-.5-1.3-1.9-2-2-3.6-.7-5.5,12.5-5,13,2.8,2.7,3.6-3.8,4-6h1c-.2,1.1.2,2.7,0,4,1.8.7,7.5-.5,5.9-2.9s-3.2.6-1.4-4.2,3.6-2.9,4.6-5.4c-2.7-.7-3.5-.2-3-3.5-.8-.9-3.7,2.1-4,3h-.1ZM378.4,160.9c-2.5-2.9-4.1,9.8-6.6,10.8-6.1,2.4-1.7-5.2-2.3-8.8-2.1-2.3-5.5,9.4-4.9,11.3.9,3.2,9.7-1.4,7.9,2.1s-9,1.5-10,5.5c2.9,0,9.7-.7,11.4-3s5.2-17.2,4.5-17.9h0ZM362.4,192.8c-.2.4-2.5,2.9-3,3-.2-1.5-1-2.7-1-3-.3-2.2.2-4.7,0-7-2.9-3.4-7,16.3-7,18,3.6.2,3.1-4.6,4-7l1,5c2.8.7,2.4-2.4,3-3s1.4.3,2-.7c.9-1.4,1.5-3.6,2-5.3,2.9,1-1.9,7-1,8s2.2-.7,2.8-1.7c1-1.8,3.6-11.4,4-13.9s.2-1.6-1.3-1.3c-3.6.7-4,6.5-5.5,9h0ZM380.4,188.8c-.6-1.1-1.8-5-4-3s1.1,5,1.1,6.5-1.8,3.1-2.1,3.5c-.5.7-3.5,1.5-1.5,3,2,.2,2.5-2.1,3.5-3s.6-.9,1-1,.8,0,1,0c.2.1,2.2,3.8,4,2s-1.8-4.5-1.9-4.7c-.3-.8.1-1.9,0-2.3l6-6c-4.1-.8-4.3,3.4-7,5h-.1ZM373.4,186.9c-2.2-2.6-6.6,12.3-6,13,3.4,3.5,6.7-10.8,6-13Z"/>
      <path class="st6" d="M330.5,172.9c0,2.4-.1,5.2-2,7,0-1.3.5-4.8-.5-5h-1.5v6c-.7.2-.9-1-1-1,.7-2.4-1.6-1.8-3-3v-2c2.5-1.7,5.4-1.5,8-2Z"/>
      <path class="st5" d="M323.5,170.9c.8-.3,6.7-1.2,7-1v3c-2.6.5-5.5.3-8,2-.1-.1-2.9.6-2-1.5s2.7-2.4,3-2.5Z"/>
      <path class="st5" d="M338.5,173.9c.2-.6,2.3-4.8,4-4l-1,9c.1.2,3.8-.7,4.3-1,1.8-1.2,2-13.5,5.7-10s-2.1,11.5-4.7,12.8-7.4,2.2-7.8,2.2c-1.7-.2-.8-7.6-.5-8.9-.3.6-4.1,1.2-5,2-2,1.7-1.9,8.9-3,10-2.6,2.7-1.9-5-2-6,1.9-1.8,2-4.6,2-7,2.8-.6,5.4-.8,8-2-.1.9.3,2.5,0,3h0Z"/>
      <path class="st5" d="M322.5,176.9c1.4,1.2,3.6.6,3,3-7.1.2-2.2,7.9-8,9-.3-.4,1.6-9.3,2.2-10.3,1-1.7,2.7-1.5,2.8-1.6h0Z"/>
      <path class="st5" d="M333.5,176.9c4.5-1.5,2.5,4.2,2,8s-.9,2.2-4,3c.3-2.8,3.4-7,2-11Z"/>
      <path class="st3" d="M326.5,153.9c2.2.6,7.9,2.7,9.1,4.4,1.9,2.7-.2,9.5,3.9,9.6-1,.2-1.6.9-4,1-1.1-5.6-1.6-9-8-9-.1-.6.1-1.4,0-2s0-.7,0-1c-.3-1.1-.4-1.9-1-3Z"/>
      <path class="st12" d="M327.5,159.9c.2,1.2.8,2.3,1,4s0,.7,0,1c-1.7-.4-2.2.4-2,2-.6,0-1.5.2-2,0-6.8-1.9-1.2-7,3-7Z"/>
      <path class="st1" d="M326.5,166.9v1c-.3,0-1.2.7-2,1v-2c.5.2,1.4,0,2,0Z"/>
      <path class="st4" d="M327.5,157.9v-1,1Z"/>
      <path class="st13" d="M409.3,172.9l18.7,6.8c1.8.3,3.5-.8,5.2-.8s.7,0,1,0,1.1.7,2,1c23.8,8.9,4.1,36.6,2,52.9l-5-1c2.9,8.5,2.9,17.7-1.8,25.6s-4.8,4.7-5,6c-.5,2.1,1.3,9.4.4,14.3s-3.3,6.6-4.3,9.7c-5.5,18.4-8.9,37.6-14.4,56h-3.9c4.5,10.6-.3,17.7-3,27s-.7,2.1-1,3c-7.4,26.6-14.1,53.9-20,80.8-.5,0-1.1,1-3,1s-3.4-.6-5-1-6.5-2-6.8-2.2c-1-.6-.2-3.2-3.7-2.8s.1,3.1-2.5,2c-.2-1,.3-3.7,0-4-.7-.8-18.2.9-21-4s0-.6,0-1v-6c.7-3.3,2.1-7.2,3-11s1.3-1.1,2-4c1.3-5.4,1.5-12.2,3.3-17.2s2.8-4.5,3.7-11.7,0-6.2,1-9,2.9-5.4,4-8,.7-1.3,1-2h3c0-1.2-1.5-1.4-2-2s-.6-1.4-1-2h1c.8.2,2.7-.2,3,0s-.5,2.1.5,2c4.4-3.4.8-3.2.5-4-.6-2-2-10.9-2-13s.9-7.4,1-8c.6-2.7,5.3-10,8-11.5.7-1.8-1.8-1.3-2-2.1-1-3.8,3.5-15.6,4.5-20.3s1.8-13.3,3.3-18.6,3.9-5.7,4.2-7.9c.6-4-4.2-9.9-6-13.4-3.5-6.7.3-6.8-.9-13.3l4.9-3.6c1,2.1,10.8,3.6,9-2h4c-1.6-5.2-2.2-9.5-2-15s2.4-2.9-1-6c3.6.9,2.8-1.9,3-2,.3-.2,1.5-.1,2.4-1,2.7-2.6,4.7-6.5,8.5-8.6-.4-3.6-2.5-5.4-2.9-9.3-1.1-9.4,1.4-13.7,4-22s1.4-2,2-4,.7-3.3,1-5,1-2.9,1-4l1-1c.2-.2-.1-1.4,0-2,1-.3,2-.6,3-1v.2ZM421.3,215.8c4.4-4.6,6.9-12.9,13-14-.9,5.1-2.8,7.6-5.9,11.5s-6.2,3.2-6,8,11.9,5.7,13,3.4-.2-5.6.2-7.2c.8-3.5,6.2-9.1,7.3-15.7,2.1-12.5-6.5-24.6-17.5-15s-5.2,5.7-6.3,7.2c-2.3,3.1-3,9.2-7.7,8.7-3.2-5,6.9-12.2,9.4-16,4.5-6.9-3.9-6.6-9.4-7.9s-.2-1.8-1-.5c-2.3,3.9-.6,6.8-1.5,9.4s-5,7.6-6.2,11.8c-4.3,14.9,6.2,29.1,18.7,16.2h-.1ZM415.3,262.7c3.5-1,3.8-.1,7.5-3,17.7-13.9,2.9-45.2-18.3-35.3-3.7,1.7-5,3.8-7.1,6.4s-1.7.7-2.4,2c-5.7,10.5-2.4,25.9,9.4,30.4s5.6,1.1,11-.5h0ZM389.4,259.7c-1.3,1.3-1.1,2.3-1,4-.5-.4-9.4-1.8-11-3-5.6,8.3,4.5,15,5.7,23,3.3,1.8,6.4-.1,9.5.2,7.4.7,17.6,7.7,24.3,2.8s1.6-2.7,2.5-4c1.6-2.6,5.9-12.6,3.9-14.9s-6.6-2.3-6.9-2.1,2.6,5.4-1.5,7c-2,.6-1-1.4-2.7-2.3-2.8-1.5-17.1-4-17.7-4.7s1.4-5.6,1-5.9c-2.5.1-4-1.9-6,0h-.1ZM380.4,293.6c0,.1-1.4-.2-1.7.3-2.6,4.3-.4,10.8-1.3,15s-1.7.7-1.9,1.5c-.7,2.4-4.3,17.3-4.1,18.2.9,3,5.7,1,6,1,4.7.4,16.6,2.8,20.7,4.6s5.3,6.2,7.2,3.7c.2-.3-.2-.9,0-1.4,2.1-6.5,3-13.4,5-20-5.7.9-16.9-.7-21.9-3.5-4-2.2-1.1-4.9-1-6.4,3.9-.7,13.1,1.3,16.6,2.8s2.9,4.5,6.4,4.2c1.6-.3,6.7-21,5.9-21.9s-4-.8-4.9-1.1l-.5,3c-6.6-2.8-21.8-8.9-28-4s-1.7,2.9-2.5,4h0ZM384.4,358.5l5-24c-7.1-1.3-13.8,0-19.3,5s-.6,1.9-.7,2c-.6.7-2,1-2.8,2.6-5.8,11.1-1.2,27.5,11.8,30.8,5.7,1.5,5.4-.2,9-1.5s6-1.5,9.5-6c5.5-7,6.7-25.3-2-29-2.1-.9-1.2,1.4-1.5,2-3.3,8.4,1.8,10.9.3,15.7-1.4,4.5-6.1,2-9.3,2.2v.2ZM389.4,398.4c1.2-5.1,3.8-12.4,4.3-17.2s1-1.3-.3-2.2c-5-3.6-4.9.6-6.4.5-7.8-.5-19.2-9.7-26.8-2.1s-.6,3.9-1,6.3c-1.1,5.9-3.1,10.1-.8,16.7l-2.5-2c-5.4,3.6-3.2,5.6-3.5,9.5-.6,6.4-1.5,10.4,1,17-.2,1.3-1.6-.5-2-.5l-4-3c.6,5.2-3.7,12.1-4,16.6s4.7,2.4,6,2.4c1.9,0,19,4.2,20.3,5s1.6,6.2,5.6,3,6.5-18.7,5.6-20-4.3-2.1-5-2,0,2.2-2,2.1-12.9-3.6-13.9-4.2c-3.5-2.1-2-3.4-1.7-5.8,3.5-1.8,13,.6,16.3,2.2s1.2,3.7,6.7,3.8,1.3,0,2,0l3.9-20.9c-5.2-3.2-6,.9-6.4.9-.8,0-13.8-4.1-14.5-4.5-3.8-2.1-1.3-5-1-7.4,4.1.9,12.2,1.9,15.7,3.7s3.7,5.4,8.2,4.3c.1-.6-.1-1.4,0-2l.2-.2Z"/>
      <path class="st13" d="M469.2,389.4c1.8,0,2.1.5,3,2v2c-.6,1.7-.7,2.1-1,4-4,.9-1.8-4.8-2-5-1.1-1-4.7,1.6-5,4h-1c-2.5,2.6-8.6.7-9,1-1.2,1,.8,10.3-7,5v9.5l16-9.5h3c-.2.4.1,1.4,0,2-.4.2-3.7,3.2-5,4s-1.8-.6-2,.6c-.7,4.2,1.1,12-.1,15.7s-5.1,3.7-6.8,4.7c-12.8,7.5-26.1,15.5-38.9,24-7.3,0-4.5-9.5-5-14-1.2,0-1.4,1.3-2,2s-.8.6-1,1h-5c-.2-1.4-1.6-3.5-2-5-1-4.4-.7-4,0-8l6-3.5-2-2.5c5.6.6,4.6-1.2,4-5s0-.7,0-1h3c.3,0,.2,1,2,1s4.5-.9,7-1c-.6,3.3,1.7,1.6,4,2s0,.8.5,1c.8.5.9-1.8-.5-2v-1c0-1.2.2-3.1,0-4,1.5-2.7,7.2-1.5,7.9-2.1s.3-2.8,1.1-3.9,1.7-.9,2-1c4.1-1.6,6.8,1.2,10.4-3.1,7.6-9.1,8.5-6.9,17.6-10.9s4.7-3,8-3h-.2ZM433.3,414.4h-1c-1.9-.4-2.5,1.7-3,2s-1.3.7-2,1-1.7-.6-2.1.6c-.9,3.6,2.7,7-1,10.8,3.6,1.6,2.9-3.5,3-5.5,3.3.2,4.6.8,4-3,1.2.6,1.1.3,2,0,1.6-.5,1.7.7,2-2h1l4-1-1,4c4.4-1.3,4.4-3.9,4-8l-3,1c-.4-3.6,1.5-4.8-2-5s-2,0-3,0h-2c0,1.7-.1,3.3,0,5h.1ZM454.2,416.4c-2,1.5-3.5,1.7-3-1l1-.5c-1.5-4.9-1.8.3-2,.5-.2.3-.7.8-1,1s-1.5-.3-1.9.1-1.1,11.7,1.8,11.9c.1-.6-.1-1.9,0-2,2.6-1.9,6.4,2,7-6s-.1-6,0-9h-2v5h.1ZM413.3,425.4c-.3-.9-1.3-1.7-1-3h-1c-.2.6.2,1.8,0,2s-1.3-1.3-2-.5l1,3.5c-.2.3-1.6.4-1.7,1.4s1.2,3.8.7,5.6c3.7-.5,4.1-.6,4-4,5.2,1.3,2-3.8,3.1-4.9s4.1,1.7,2.9-4c-2.6,1.1-2.5,1.8-3.5-1l-2.5,5h0ZM443.3,422.4c-6.6.8-6.4,5.5-6,11l-1-7c-1.5,1.3-5.8-.2-6,0s.3,2.9-.4,4.1-4.1.6-4.5,1-1.2,7.9-.6,8.9c1.6,2.7,7.7-2.4,5.5-6l1.5,3c2.6-6.3,1.7-2.7,5.5-3.4,3.8-.7,7.8-2.9,6-4.6l-3-.5c3.4-1.6,3.4-2.7,3-6.5ZM417.3,435.4c-.1.3,0,2.4,0,3h-1c-6.7.6-4.9,5.8-5,11,2.7-.1,4.6-1.3,5-4,.6,0,1.9.1,2,0,2.2-1.4.2-7,1.1-7.9s2.6.2,2.9,0,0-2.9,0-3-1.4.7-2.3.7-.7-.7-.7-.7l-.5-1c-1.8-.3-1.6.3-1.5,2h0Z"/>
      <path class="st4" d="M461.2,408.4c4.4,7.6,1.3,19.1,1,27.5-.5,15.2-.7,30.3-2,45.4-1.2-2.1-5.5-1.7-6-2s0-1.6-1-2.4-3.7-.9-3.9-2.1,3.2-6.9,3.5-9.4c1.1-8,.7-18.2,1.5-26.4s4.9-6.9-2.1-9.6c1.7-1,6.3-3,6.8-4.7,1.2-3.6-.5-11.5.1-15.7.2-1.2,1.7-.4,2-.6h.1Z"/>
      <path class="st3" d="M330.5,442.3c.2-.2,1.5.3,1.9-.1s-1.2-5.8,1.6-6.8c1.5,1,1.9,2.7,1.5,4.4s-2.5,0-2,1.6l5-1v2l-1,.5,1,.5c2.8,4.9,20.2,3.2,21,4s-.2,3,0,4c2.6,1,1.8-1.9,2.5-2,3.5-.4,2.7,2.2,3.7,2.8s6.1,2,6.8,2.2c-3.3-.4-2.1,3.6-4.5,3s-.2-1.3-.7-1.7-1.3.7-1.6.5c-1-.7-1.7-4.2-5.2-3.2-5.8,1.7-6,9.8-10,13.4,0-.1-2.8-1-3-1-.5,0-2.2,1.5-3,2-1.1-6-4,.5-6-4,.6-.9.9-7.5,1.2-9.2s3-3.8.8-7-6.3-3.3-7.1-2.7l1,4c-7-3.2-3.5,2.5-4,5h-6c2.5-3.2,3.1-8,6-11v-.2Z"/>
      <path class="st1" d="M413.3,453.3c-.5.3.5,1.2-4,3-3.6-3.6-6.7-.3-9.5,0s-10,.6-12.7-1,.2-2.5-3.7-2c.8-2.5,2.4-5.5,3-8,3.7-.6.5,3.1,3.7,4.8,5.9,3.2,22.1,1.6,16.3-8.8.5-.6.8-2,2-2,.5,4.5-2.3,14,5,14h-.1Z"/>
      <path class="st4" d="M343.5,483.3c.7,2.6-2.9,2.8-3,3-2.3-1.2-4.5,0-6,0s-.7,0-1,0c-2.7,0-5.8,1-5-2,3.1-2.1,4.4-5.7,6-9,1.2.5,3.4-2,4-3,.7,3.7,3.1,5.9,4.7,8.8s0,2,.3,2.2Z"/>
      <path class="st3" d="M383.4,453.3c3.8-.5,2.6,1.4,3.7,2,2.7,1.6,9.4,1.2,12.7,1s5.9-3.6,9.5,0c-4.7,1.9-15.7,5-20.5,4.5s-4.9-2.7-6.9-2.5-.9,4-2.5,2.1,1-4.3-2-5c1.8,0,2.5-.9,3-1,1.3-.2,2.7-1,3-1h0Z"/>
      <path class="st6" d="M392.4,491.2c-.1,0-.9,1-2.3.9s-4.5-.7-5-.9c-1.5-.6,0-3-1.1-3-2.7-.2-1.4,3.9-4.5,3v-7.4c4.4-1.5,8.9-1.3,8,4.4,1.5.3,1-1.7,2-2.5s2-.4,3-.5v6h0Z"/>
      <path class="st1" d="M338.5,463.3c2,4.5,4.8-2,6,4-.3.2-.5,1.6-1.7,1.9s-3.2-1-3.3-.9-.2,2.7-1,4-2.8,3.5-4,3c.6-1.4,1-2.7,2-4-1.5-.5-5.1,1.7-6,1s1-1.9,1-2c6.8.7,4.1-2.8,5-6.3s1.9-.6,2-.7Z"/>
      <path class="st6" d="M460.2,481.3c-.4,4.5,1.7,10.1-5,10-.6-1.3-2.9-.3-3-6s0-4.6,2-6c.5.3,4.8-.1,6,2ZM457.2,481.3c-2.6-2-4.8,6.3-1.5,8,3.4.4,2.3-7.3,1.5-8Z"/>
      <path class="st3" d="M404.3,486.2c.2,0,2.1-2.9,2,1,2.8-2.8,4.5-1.6,8-1-2.4,9.3-3.7,5.2-10,5v-5Z"/>
      <path class="st6" d="M442.3,488.2c.7-2.4,3.3-7.8,5.5-9s1.4,5,1.5,6,.7.9.7,1.7c0,7-3.4-.3-7.7,1.3Z"/>
      <path class="st6" d="M348.5,491.2c0-5.4-.5-9.3,6-8l-1,4c2.1-.7-.1-1.6,3-2v5c-3-.5-1.7-2.8-3.5-2s.4,1.8-4.5,3Z"/>
      <path class="st3" d="M399.4,486.2v1.4c2.7,1.2,1.7,1,1,3.6h-8v-6c2.1-.2,5.2.9,7,1Z"/>
      <path class="st6" d="M375.4,491.2l-7-1h-1v-5c5.1,2.6,8.4-3.6,8,6Z"/>
      <path class="st6" d="M343.5,483.3s1.7-.4,2,.7-.3,3.1,0,4.3c0,3.5-5.6,6.2-5,2,.2-1-.3-3.5,0-4s3.7-.4,3-3Z"/>
      <path class="st1" d="M350.5,466.3c.2.2,1,5.1,1,5.4,0,.6-1.9.5-2.1,1.2-.5,2.3,3.2,7.1-.9,6.3l-1-14c.2,0,2.9.9,3,1h0Z"/>
      <path class="st6" d="M442.3,489.2c-.5,3.9-3.1,1.4-7,2-1.3-1.6.5-5.7,1-6,1.1-.7,5.4,1.5,4-2.5s-3.6-.8-5,.5c-.1-.3,0-.7,0-1v-2c3.5-2.4,8.7-1.1,6.5,4s-5.6,3.6.5,5Z"/>
      <path class="st6" d="M404.3,486.2v5h-4c.7-2.6,1.7-2.5-1-3.6v-1.4h5Z"/>
      <path class="st9" d="M359.4,485.3c.4,6.1.8,1.2,1,1s1.4.2,2,0v4h-3c-.9-.2-2.1.2-3,0v-5c.8,0,2.2-.1,3,0Z"/>
      <path class="st1" d="M415.3,459.3c.5,3.1-1.8,5.5-5,5-.3-3.5,3.3-.5,1-5h4Z"/>
      <path class="st6" d="M366.4,484.3v7h-2v-8h1.5c.4.1.3.9.5,1Z"/>
      <path class="st1" d="M435.3,483.3c1.4-1.3,4-3.2,5-.5,1.5,4-2.9,1.8-4,2.5-.3-.7-.7-1.3-1-2Z"/>
      <path class="st6" d="M363.4,491.2c-2.2-.2-2.8-.8-4-1h3v-4h1v5Z"/>
      <path class="st12" d="M367.4,485.3v6h-1v-7c.4.2.7.8,1,1Z"/>
      <path class="st9" d="M364.4,491.2h-1v-5h1v5Z"/>
      <path class="st6" d="M360.4,486.2c-.2.2-.6,5.1-1-1,.2,0,.7.8,1,1Z"/>
      <path class="st1" d="M435.3,482.3c0-.1-1.2-.5-1-1.4.1-.7.8-.4,1-.6v2Z"/>
      <path class="st14" d="M468.2,260.7c2.1,0,5.1-2.1,6.5,0s2.3,10.5,2.4,11.6c.4,16.8-1.1,32.1-1.9,48.8-.4,7.2,1.9,19.2-.6,25.3s-2.2,1-2.3,1.2c-2.4-.6-4.9.8-7,1-1.7-5.7.5-20.1-2.5-23.9s-3.4-1.2-3.4-4.1,2.7-3.4-1-3c1-.8,3.6-6.3,3.9-6.5,1.2-.7,3.1-.3,4.1-1,1.6-1,0-6.9,0-8.9.3-3.8,3.1-11.2-.1-15.6,9-4.3,5.6-15.6,2-23s.2-1.6,0-2h-.1Z"/>
      <path class="st2" d="M470.2,350.5v1c-.7,3.3-3.1,5.9-4,9l-7.6,7.3c-1.2,1.2-2.2,3.7-3.3,4.6-5.9,5-11,6.7-18,9-1-5.6,7.9-6.4,8.8-9.7s-1.7-7.3-4.4-7.3-10,8.3-12.2,9.8c-4.9,3.5-10.3,5.9-15.3,9.2-2.3,0-4.6,1.4-7,1l5-7c11.2-3.4,10.6-6.9,18-11,2.1-1.1,9.9-3.8,13-5s2.7-1.8,3-2c4.7-2.7,16.6-3.8,24-9h0Z"/>
      <path class="st14" d="M470.2,351.5c2.2-.5,2.4,1,2.7,2.7,1,5.7,1.9,15.8,2.2,21.8s1,12.1-2,15.5h-1c-.9-1.5-1.2-2-3-2-1.1-9.6-5.6-19.3-3-28.9s3.2-5.7,4-9h0Z"/>
      <path class="st3" d="M472.2,347.5c-.7.7-1.4,2.6-2,3-7.3,5.2-19.2,6.3-24,9,.1-3.4,5-10.5,8-11s7.5.3,11,0,4.6-1.6,7-1Z"/>
      <path class="st14" d="M472.2,226.8c0,.1,1.5.5,1.7,1.7,1.2,5.8,2.3,13.5.3,19.2l-5-2c2.1-4.8.6-12.1-3-16,.6-.9,1.6-2.3,2-3h4Z"/>
      <path class="st11" d="M468.2,246.7c1.3.3,2.7,2.7,3,4-1,1.1-3.5,3.8-2.8,4.9s2.4-.8,1.9,1.6l-5,.5c-1-.7-6.9-2.8-8-3,.2-2,2.3-9.6,5-7s-1.1,4.2,1,4c0-1.1,2.4-4.7,3-5s1.6,0,2,0h-.1Z"/>
      <path class="st3" d="M474.2,482.3c4.9.5,6,1.3,5,6.5s-1.6,2.8-4,2.5c-.8-.8,1.8-7.1-2-6v6h-3c-.8-.8,1.8-7.1-2-6l-2,6c-.3-2.2-1.9-5.8-1-9,2.9.2,6.1-.3,9,0Z"/>
      <path class="st3" d="M456.2,254.7h1c1.1.2,7,2.3,8,3s2.9,2.8,3,3c.2.4-.2,1.6,0,2-.5-.4-1.7-.6-2-1s.5-1.3-.7-2c-2.4-1.4-4.5,0-5.8-.2s-.4-1.6-1.1-1.8c-2.8-.8-9.4,4.4-9.4,8s0,1.3,0,2c-.8.2-.7.3-1,1h-2c.4-.6,2.2-5.7,2-6l-3-1c2-1.6,4-3.5,6-5s1-2.2,5-2Z"/>
      <path class="st6" d="M472.2,403.4c-1.6.4-4.7.4-6,1,.1-.6-.2-1.6,0-2,1.5-3.3,4.3-1.1,5-5s.4-2.2,1-4c5.3,2.1-.2,9.4,0,10Z"/>
      <path class="st1" d="M473.2,220.8c0,1.6-1.1,5.7-1,6h-4c.2-.5-.3-2.1.4-3,1.7-2.1,4.9.9,2.6-4l2,1Z"/>
      <path class="st2" d="M474.2,247.7c-1.4,3.9-2.4,2.3-3,3-.3-1.3-1.7-3.7-3-4,.2-.4.9-.7,1-1l5,2Z"/>
      <path class="st6" d="M472.2,392.4v-1h1l-1,1Z"/>
      <path class="st3" d="M320.5,483.3c0,3.5,5.5,7,1,8s-4.7-3.1-3-7.3,1.9-.6,2-.7Z"/>
      <path class="st9" d="M323.5,440.3c-.7,3-3.8,5.7-6,8,.1-.7.2-4.8,0-5,1.7,0,3.6-2.8,4-3s1.5,0,2,0Z"/>
      <path class="st0" d="M330.5,453.3c.4-2.5-3-8.2,4-5l-1-4c.7-.7,6.3,1.5,7.1,2.7,2.2,3.3-.5,4.7-.8,7s-.6,8.4-1.2,9.2-1.7-.4-2,.7c-.9,3.6,1.8,7.1-5,6.3,0-2.9-1.5-6.6-5-6,1.4-2.4-.4-5.4.1-7.2s3.7-2.6,3.9-3.7h-.1Z"/>
      <path class="st3" d="M328.5,484.3c-.8,3,2.3,2,5,2,1.6,8-10.5,6.1-9.1-.4s3.2-1,4.1-1.6Z"/>
      <path class="st3" d="M340.5,486.2c-.3.5.2,3,0,4-1.7,1.4-4,1.5-5,2l-1-6c1.5,0,3.7-1.2,6,0Z"/>
      <path class="st3" d="M367.4,491.2v-1h1c-.2.4-.5.9-1,1Z"/>
      <path class="st1" d="M460.2,160.9h-3c.2-.5-.2-1.5,0-2,.8-2.2,3.2-2.2,3-6s-.8-2.3-1-3c6.6,2,3.4,6.8,1,11Z"/>
      <path class="st0" d="M460.2,160.9c2.4,0,4,0,4,3-.3.6.2,2.1,0,3-2.2,1.7-5.8,4.1-6,7-.8,2.5-3,1.9-5,2-.2-1.6-2.4-6.6-2-7s1.9.5,3.1-.7,2.1-5.4,2.9-7.3h3Z"/>
      <path class="st5" d="M435.3,176.9h1c1,2.3,3.8,2.5,6,3,2.2,1.5,2.8,1.5,5,2,.3,1.3,2.7,3.3,3,4,.5,1.5.9,6.1,1,8,.4,10.1-2.2,12.4-4.7,20.8s-2.9,13.6-4.3,16.4-4.1,1.3-4,7.8,1,1.9,1,2v2c0,.7-.7.3-1,2-.7,4.3-4.4,15.1-7,18s-1.4-.3-1.9.2c-.9.8.9,1.7.9,1.8v2c.2,5.2-.8,9.2-1,14s0,2,0,3c-.7.6-.8,1.8-1,2s-1.3-.4-2,.7c-1,1.8-.8,5.2-1,7.3-.2,2.1-.9,1.4-.9,2.5s.8,2,.9,2.5c-3.3,3.1-3.7,8.5-5,13-1.9,6.6-5,15.4-5,22-2.5,1.8-1,4.8-2,7s-2.2,1-2,3c-4-.3-1,1.7-1,2v2c-.3,3.4-1.8,9.2-2,13s0,1.4,0,2l-1,3c-1.6,1.5-1.7,5.9-6,5,2.7-9.4,7.5-16.4,3-26.9h3.9c5.5-18.5,8.9-37.7,14.4-56.1s3.5-5.2,4.3-9.7-.9-12.2-.4-14.3,3.8-4,5-6c4.7-7.9,4.7-17.1,1.8-25.6l5,1c2.1-16.3,21.8-44-2-52.9l-2-1h-1v-2c.6.1,1.4-.1,2,0v-.5Z"/>
      <path class="st4" d="M469.2,245.7c-.1.3-.8.6-1,1h-2c.6-3.3-3.6-1.7-6.3-2.2s-3.6-1.5-4.7-1.7c4.7-.9,6.2-7.3,8.4-10.6s1.8-1.2,2.6-2.4c3.6,3.9,5.1,11.2,3,16h0Z"/>
      <path class="st1" d="M445.3,261.7l3,1c.2.2-1.6,5.3-2,6-.8,1.4-4.3,3.7-4.8,5.7s.2,10-1.2,11.2c-2.6.9-2.7-2.8-3-3,.1-.9-.2-2.1,0-3,.7-3.1,0-2.9,0-4,.1-2.2.3-4.4.9-6.5s1.5-1.5,1.6-1.7c.3-.6-.2-1.6.4-2.2,1.8-2,3.6-2.3,5.1-3.5Z"/>
      <path class="st4" d="M458.2,233.8c.8-2.8,1.1-7.9,2.6-10.9s7-4.7,5.4-10l5,2c-1.5,2.6-10.2,18-11.2,18.8s-1.4,0-1.8.2c-.9,3.3-1.8,6.1-4,9-1.8-.4-4.3.5-6.4-1.1s-1-3.7-1.7-4.7-4.8-.2-4.8-2.2l10-1-1.5,6c2.9-.7,4.2-4.6,5.5-5.5s2.3-.3,3-.5h-.1Z"/>
      <path class="st11" d="M430.3,266.7c2.9-.6,3.8,6.3,4,9-.3,0-.7.8-1,1-2.7,1.3-1.9,1.1-4,4,.2-4.7,1.2-8.8,1-14Z"/>
      <path class="st11" d="M451.2,256.7c-2.8-1.8,3.6-9.5,4.5-10,3.1-1.6-.4,7.3.5,8-4-.2-3,.5-5,2Z"/>
      <path class="st14" d="M456.2,228.8l-4-10c6.8-.6,6.9,5.3,4,10Z"/>
      <path class="st4" d="M437.3,275.7c0,1.1.7.9,0,4l-4-3c.3-.2.7-.9,1-1,.8-.2,2.1.1,3,0Z"/>
      <path class="st11" d="M431.3,262.7l-1,2c0-.1-1.7-1-.9-1.8s1.7,0,1.9-.2Z"/>
      <path class="st11" d="M439.3,240.7c0-.1-.9-.2-1-2l1,2Z"/>
      <path class="st11" d="M438.3,244.7c.3-1.7,1-1.9,1-2l-1,2Z"/>
      <path class="st6" d="M407.3,165.9c-1-5.4,3.7-8.3,8.4-8s.5,1.9,1.2,2c2.1.5,5.4-1.4,6.2-.9,3.8,6.3,7.6,6.4,5.1,14.9l-2-5c-4.2,2.6-2.6-1-4.5-2s-3,3.4-4,4l.5-4c-2.3,0-2.9,2-5.5,2.1s-1.3-1.7-2.2-2.1-1.9,0-2.3,0-.7-.9-1-1h.1Z"/>
      <path class="st1" d="M387.4,166.9h1l.5,1,.5-1h1c-1.3,2.5,4,6,6,6v4c.4.5,6-2.7,7-3s2.2.3,3,0c-.1.6.2,1.8,0,2s-1.4-.1-2,0c-.2.7,1,.9,1,1,0,1.1-.8,2.8-1,4-3.4-2.3-7.7-2.6-11-4s-3.4-2.3-5-3v-4c.2.2,1-.2,1-.5,0-1.1-1.5,0-1,.5-1.7.5-2.8-2-3-2l2-1Z"/>
      <path class="st7" d="M433.3,176.9v2c-1.8,0-3.4,1.1-5.2.8l-18.7-6.8c.2,0,.4-1.2,1-1.5,3.2-1.5,18.2,4.4,22.9,5.5Z"/>
      <path class="st1" d="M395.4,156.9c-1.1,1.7-3.2,1.1-4.4,1.9s.7,3.9-2.6,3.1c0-1.9,1.1-5.9.8-7.5s-2.8-.3-1.8-3,2.5-2.1,3-1.5-1.7,1.5,2,3,4.4,2.5,4-1c.3,0,.8-2.4,2.5-2s1.8,3.5,1.5,5c-1.2,0-4.3-.3-4.9,0s0,1.6,0,1.9h-.1Z"/>
      <path class="st13" d="M455.2,185.8c.7,0,1.4-.1,2,0s.7,0,1,0c1.2.4,6.1,3.9,8,5,.4,3.1-1.1,1.9-3,1.6-3.5-.6-6.8-1-10.3-1.5s-.3-3.8-.6-5h3-.1Z"/>
      <path class="st1" d="M436.3,144.9c2-2.8,5.8-2.8,8.8-4.6s.7-2.5,2.2-2.3c.1,2.8.6,6.7-3,5l3,2c.7,2-1.7,3.1-2,4-2.4,1.1-5.2-3.3-6.7-4s-1.8,0-2.3,0h0Z"/>
      <path class="st7" d="M407.3,165.9c.3,0,.6.8,1,1,.2,2.3-3.1,4.5-5,5s-1.4-.1-2,0c-2.3-7.3-.5-7.8,6-6Z"/>
      <path class="st1" d="M450.3,163.9c.2.2-.2,1,0,1.3.9,1.1,2.3,0,2,1.7-1.5,1.9-9.3-1.5-9.8-2.1s-.3-3-.2-3.8c3.6-.6,5.5.6,8,3h0Z"/>
      <path class="st6" d="M449.3,178.9c-3.7-1.3-1.2-1.5-2.7-4.8s-3.9-1.3-3.3-4.2c2.6.2,4.5,1.5,7,0l-1,6h4c.4,3.8-.2,2.4-2,3l-1.5-1-.5,1Z"/>
      <path class="st1" d="M431.3,143.9c1-3.8.6-9,1-13,2.5-.2,1.7-.2,2,1.5s.9,5.9,1.1,8-1,2.3-1,2.4c-1.7,1.4-.5,2.9-3,1h-.1Z"/>
      <path class="st6" d="M438.3,176.9c-.6-.1-1.4,0-2,0h-1c.3-1.2.8-7,1.5-7,1.7.1,3.2,1.2,5.4.5l-4,6.5h.1Z"/>
      <path class="st6" d="M455.2,183.9c2.8-7.2,12.5,3.3,3,2h-1l-2-1c0-.3-.1-.7,0-1Z"/>
      <path class="st6" d="M401.3,171.9c.6-.1,1.5.2,2,0v2c-.9.3-6.6,3.5-7,3v-4c.2,0,4.1-.8,5-1Z"/>
      <path class="st1" d="M455.2,183.9c-.1.3,0,.7,0,1v1h-5c-.2-.7-2.7-2.7-3-4,2.4.6,5.3,0,8,2Z"/>
      <path class="st7" d="M438.3,176.9c4.4.9,3.8,2.8,4,3-2.2-.5-5-.7-6-3,.6,0,1.4-.1,2,0Z"/>
      <path class="st1" d="M451.2,178.9c-.2,0-.4.8-1.2.7s-.5-.6-.8-.7l.5-1,1.5,1Z"/>
      <path class="st2" d="M363.4,264.7c-.5,2.1.9,3.1,2,1h1c0,.3.8,5.8,1,6s3.8-1.3,5,1c1.8,3.5,6.6,9.3,6,13.4s-3.3,4.8-4.2,7.9c-1.6,5.4-2,12.8-3.3,18.6s-5.5,16.5-4.5,20.3,2.7.3,2,2.1c-2.7,1.5-7.4,8.8-8,11.5-1,1.1-3.2.6-4,1l8.8-34.2c-1.5-4.1-4.2-1.6-6.2-2-3.2-.6-4.3-4.7-6.7,1.3-4.5-2.1-3,1.1-8,1s-.7,0-1,0l-4-7h7c0-2.3-1-4.1-2-6v-3c.7,0,1.4.1,2,0s.9-.5,1-1c.9-.2,2.2.2,3,0s.7-.5,1-1-.2-.8,0-1h8l-1,2c1.3.3,5.4-.4,6,0s0,1.9,1,2.5c4.7,3,5.7-4,4-6.5,2.5.7,3.1-4.1,2.1-5.4s-2.8-.3-4.1-.6-.8-1-2-1-1.1.3-1,1c0-.2-2.9-2.3,1-2,.5-1.7-1.5-.6-1.9-1.1s.7-3.4.9-3.9c.3-1,1.8-1.7,1.8-3.3-.2-3.8-2.6-7.2-6.8-6.7v-2c3.1-1,2.6-2.7,4-3h0ZM372.4,276.7l-3-1v4c1.8.3,3.3-1.1,3-3Z"/>
      <path class="st5" d="M347.2,365.8c3.2,1,1.6,6.9.2,9s-5,2.7-3.8,4.5,2.9-.6,1.9,3.6-2.8,2.3-3,2.5c-.3.4,1.6,1.4,1.5,3.1,0,3.2-4.7,3.6-2.5,7.9l-3-1c.1,1.4-.3,3,0,4.3s3,0,2,2.6h-3c1.9,2.4,2.1,3.1,1,6l-1-3c-2.2-.4-3.2,2.6-5.5,2-3.3-.9,0-4.9.4-6.6,1.1-3.7-1.8-3.7,4-5.9.4-1.7-7-6.4,6-5.5-1.4-2.6-7.8-.6-6.6-5,1.8-6.6,5.8,1.1,8.6-2.5-1-1.1-6.5-1-7-1.5-1.7-1.6,1.7-2.5,3-2,.3-.2-3.1-3.7-1.1-6.4s6.6.9,7.1.4c2.4-2.8-4.4-4.8-6-5.5,1.7-2,4.5-1.9,6.7-1.2v.2Z"/>
      <path class="st5" d="M361.4,320.6c-.2,3-2.3,3.5-5,4-.3,1.8,4.4,1.5,4,2.5s-1.3,1-1.5,2c-.4,1.5,0,3.1-1,4.5-1.6,2-4-.4-.5,4h-4c5,5.2,2.9,10.8-4.8,7.3s-1.5-4.3-.3-5.9,3.5-.9,3.1-2.4c-2.6.6-2.5-2.5-1.8-4.4s2.5-1.4,2.8-1.7c.5-.7-3.2-3.8,2.1-2.9.5-1.9-4.3,0-3-2.5s3.9-1.4,5-3c.3-.7-3-.3-3-3.5l8,2h-.1Z"/>
      <path class="st8" d="M329.5,355.5c-2.1.8-2.8,3.9-3,6,8.9-.3,3.8,1.1,2.5,4s.3,5.8-1.5,7.9h-1c-1.1,0-2-.6-3-1s-1.6-.9-2-1l-6-4,4-3.5c-2.9-.6-2.3-4-2-6.5,2.4-.7,6.8,1.1,7-4,2-.1,3.8.4,5,2h0Z"/>
      <path class="st1" d="M343.5,421.4c-1.8-.4-2.5,1.7-3,2s-1.4-.1-2,0c.4-.4-1.2-10-.8-11.3s2.5-2.7,3.3-4.7c1.5-3.5,1.4-8.4,2.5-12,2.8.2,4.8-1.5,7-3-.9,7.2-1.8,6.2-3.7,11.7s-1.9,11.8-3.3,17.2h0Z"/>
      <path class="st5" d="M336.5,414.4c.3,2.7-2.9,3.7-5,4l4,4h-4c-.4,1.7,1.7.5,2,1.6,1.4,5.8-1.9,5.2-2.9,6.5s1.4,2.7.5,3.9c-1.6,2-5.1-1.2-2.6,4.9-2.5-.1-8.9-1.4-5.4-4.1s3.1-.6,3.4-.9c2.5-2.6-3.9-1-3-3.5s2.2-.3,3-.5c-.5-1.5-2-2.6-1.8-4.3.3-3.6,7.3-4.2,1.8-6.1,1.2-3.5,9.4-1.1,2-6.5l8,1Z"/>
      <path class="st2" d="M359.4,354.5c0,2.1,1.4,11,2,13l-1,2c-.3-.2-2.2.2-3,0-.6-1.4-2.1-.7-3-1-.2-.2,0-1.3-.6-2s-2.4-.8-2.5-1.6,2.5-7.2,3.1-8.4c.5-.1.9-.5,1-1s0-.7,0-1h4Z"/>
      <path class="st2" d="M354.4,368.5c.9,1.1.8.7,2,1,.4.6.6,1.6,1,2-.3.7-.7,1.3-1,2s-.7,1.3-1,2l-8,6,4-14c1.2-.2,2.1.8,3,1Z"/>
      <path class="st14" d="M332.5,372.5c.5-2.6,1.1-4.5,2-7,2.9-.8,1.7,1.9,3,4-.5.6-2.9,12.1-4,15-3.7-1.3-.8-4.2-.9-6.6s-1-2.2-1.1-2.4v-1c1-.3.9-1.2,1-2Z"/>
      <path class="st3" d="M338.5,423.4c.6-.1,1.6.2,2,0l1,2c-.9,3.8-2.3,7.6-3,11-2.8-3.5-5.6-.7-3.5-7s1.3-5.7,1.5-5.9,1.8.2,2,0h0Z"/>
      <path class="st4" d="M350.5,392.4c-2.2,1.5-4.1,3.2-7,3,1.3-4.6,2.8-10.4,8-12-1,2.8-.6,6.2-1,9Z"/>
      <path class="st5" d="M347.5,349.5c-2.7,4.3,1.4,9.3,4,3.5s-5.8,2.4-2-3.5c11,2.2-2.8,14.3-5,4.5s-.4-4.4,3-4.5Z"/>
      <path class="st14" d="M352.4,312.6c-.6,1.5-1.6,4.5-2,6-3.7-.8-.3,3.9-4,3-.1-.6.2-1.5,0-2-.8-2-1.7-3.9-2-6,5,.1,3.5-3.1,8-1Z"/>
      <path class="st3" d="M328.5,374.5c3.2-2.7,3.2-9.9,4.5-12,2.5-3.9,2.3,1.2,2.7,1.7s1.7.2,1.8.3c.2.3.7,1.4,1,2,2.4,4.4-.6,2.5-1,3-1.3-2.1,0-4.8-3-4-.9,2.5-1.5,4.3-2,7-1,.3-1,1.1-1,2v1c-1.3.5-2.5-.9-3-1Z"/>
      <path class="st14" d="M359.4,354.5h-4c-.3-2.9-2.7-5.2,1-7s3,0,4-1c-.1.5-1,7.6-1,8Z"/>
      <path class="st7" d="M353.4,318.6c0-3.9,3.5-4.9,6-2l2-2c-1.4,2.1.1,4.6,0,6l-8-2Z"/>
      <path class="st1" d="M350.5,318.6c-.7,2.4-1.3,6.1-2,9-3.3.8-2-4.8-4-7l2-1c.2.4-.1,1.4,0,2,3.7.9.2-3.8,4-3Z"/>
      <path class="st14" d="M335.5,351.5c-1.8-1.8-1.8-5.6-1-8l2,4c.8.2.8-1,1-1,.6-.1,2.1-.3,2,.5l-3,4.5c-.1-.2-.8.2-1,0Z"/>
      <path class="st10" d="M351.4,359.5c-1.1,2.6-4.4,3.2-7,3v-4l7,1Z"/>
      <path class="st8" d="M349.5,349.5c-3.8,5.9,2.3,2.8,2,3.5-2.6,5.8-6.7.8-4-3.5.6,0,1.5-.1,2,0Z"/>
      <path class="st14" d="M337.5,364.5l3-5-2,7c-.3-.6-.8-1.7-1-2Z"/>
      <path class="st14" d="M354.4,356.5c.2-.4.7-.7,1-1-.1.5-.5.9-1,1Z"/>
      <path class="st3" d="M327.5,374.5h-1v-1h1v1Z"/>
      <path class="st9" d="M318.5,408.4s1.8-.2,2,.5c1.1,3.3-1.1,2.2-3,2.5s-9,4.1-5.9-.9,5.9-.5,6.9-2.1Z"/>
      <path class="st11" d="M381.4,171.9c3.4-1.3,3.8,1.6,4.7,2s1.9-.1,2.2,0c1.6.7,3.8,2.5,5,3-.9,1.9-.7,4-1,6-.6-.4-1.4-.6-2-1-5.5-3.9-6.2-.2-11-1,.1-3.1,1.3-6,2-9h.1Z"/>
      <path class="st5" d="M381.4,159.9c.4.2,1.3-.3,1.9,0,.8,1-1.4,9.7-1.9,11.9s-1.9,5.9-2,9c-1.7-.3-3.2,1-2.9-1.4.7-6.5,4.1-13,4.9-19.5Z"/>
      <path class="st1" d="M380.4,155.9c-2.3-2.2,5.1-7.7,6-3.5s-5.2,4.2-6,3.5Z"/>
      <path class="st7" d="M346.5,166.9l-1.5,9c-2.7.4-1.1-1.7-1-3s1-3.9.5-6c.6-.2,1.4.2,2,0Z"/>
      <path class="st3" d="M396.4,151.9c.4,3.5-1.7,1.9-4,1,.7-1.7,3.1-.7,4-1Z"/>
      <path class="st3" d="M387.4,166.9l-2,1c-.2,0-4.9,2.3-2-1s3.8,0,4,0Z"/>
      <path class="st1" d="M391.4,147.9c-2,.2-1-2,.5-3l-.5,3Z"/>
      <path class="st3" d="M388.4,166.9h1l-.5,1-.5-1Z"/>
      <path class="st9" d="M355.4,289.6c-.3.1-3,3.8-4,5-1,1.2.2.8,0,1l-1,1c-.8.2-2.1-.2-3,0s-.9.5-1,1c-.6.1-1.3,0-2,0h-2c-.8-3.1,2.6-2,4.2-3.1s1.6-2,2.8-2.9,2.8-2.9,3-3c.6-.2,2.3.7,3,1Z"/>
      <path class="st4" d="M339.5,310.6c.6,0,1.8-.2,2,0s-2.3,2.3,2,3,.7,0,1,0c.3,2.1,1.2,4,2,6l-2,1c-.1-.1-1.5.3-1.8-.1-.5-.7,0-2.9-.4-4.2s-2.4-1.9-2.8-2.7.2-2.2,0-3h0Z"/>
      <path class="st14" d="M344.5,300.6c-.4-.9-1.5-1.5-1-3h1v3Z"/>
      <path class="st14" d="M342,299.6c.6.3.6.7,0,1v-1Z"/>
      <path class="st4" d="M350.5,282.7c.4.2,1.7-.6,2,.6s-.3,3.7,0,5.4c-.2,0-2.1,2.3-3,3l-5-1c1.8-2.9-.2-4.6,4-6s2.4,1.1,2-2Z"/>
      <path class="st11" d="M396.4,185.8c-.2.1.1,1.6,0,2-1-.4-1.5-1.4-3-1-1.5,3.4,2.8,8.3,2.8,10.3,0,3-5.5,13.4,1.2,14.6.4,4,2.5,5.7,2.9,9.3-3.8,2.1-5.8,6-8.5,8.6s-2.1.8-2.4,1l-4-2,2,3c-5.2.8-1.8,4,0,7-.2,5.4.4,9.8,2,15h-4c-3,.2-6-.1-9,0-.2-2.5,2-5.2,1-8.5-.4-1.9-4.8,2.7-4.8,3.1-.7,3.3,3.6,8.8-5.1,10.4s-4.1.2-5,0-1.9-.9-2-1c-.4-.4.1-2.3-2-3,.3-1.5,1.3-3.6,1-5l3-3c.2,2.1,2.1,4.1,4,5-1-8.1.3-8.2,5-13,2.1.4,5.6-.6,7.4,0s.6,5.8,5.6,4.1c.6-4.7-6.3-7.3-10-7,2.2-12.5-7.2-7.2-9-19,2.9.9,9,2.2,11.1-.4,3.5-4.4-1.7-5.3-4.1-7.6s-.7-1.6-1-2c5.2.4,11.5.2,13-6,7.2-2.4,2.4-1.9,3-7.4s3.9-4.8,5-9.6l4,2h0ZM389.4,210.8c-1.3-.9-4.9,2.7-4,4l6,1-2-5Z"/>
      <path class="st5" d="M392.4,182.9v1c-1.1,4.8-4.7,7.1-5,9.6-.6,5.5,4.2,5-3,7.4s-2.9.8-5,2c-2.7-.2-5.4.5-8,1s-1.7.9-2,1c-1.4.3-3.4,0-5.2.3s-11.4,3.6-12.6,2.5,0-1.7-.2-1.8l34-7.4c2.6-1.7-1.1-5.4-.6-7.6s5.4-5.3,5.5-8.9c.6.4,1.4.6,2,1h.1Z"/>
      <path class="st2" d="M372.4,208.8c2.4,2.3,7.6,3.2,4.1,7.6s-8.2,1.3-11.1.4c-1.1-7.5,0-5.9,7-8Z"/>
      <path class="st3" d="M359.4,249.7c.3,1.4-.7,3.5-1,5-.7-.2-2.1.2-3,0-.2-1.6-.1-3.4-1.3-4.7s-9.1-4.8-6-6.2,3.1-1,3.3-1c2.6,0,7.6,4.9,8,7h0Z"/>
      <path class="st1" d="M360.4,181.9c-.1,3.4-2.3,1.6-5.6,2.8s-1.8,1.9-2.4,2.2-.8-.9-1.3-.7c-1.1.5-7.4,3.4-7.7,3.7-1.2-1.5-2.7-2.6-4-4,7.3.6,13.7-3.8,21-4Z"/>
      <path class="st1" d="M374.4,235.7c3.6-.4,10.6,2.2,10,7-5,1.8-4.6-3.8-5.6-4.1-1.8-.5-5.3.5-7.4,0,.2-.2-.3-2.7,3-3h0Z"/>
      <path class="st3" d="M350.5,237.7c-3.2,5.9-5.8.8-9,0,1.5-6.6,5.7-3.6,9,0Z"/>
      <path class="st1" d="M368.4,229.8c1.1,5.3-2.5,1.4-3,2v3c-3.2,0-2.4-4.1-6-3,.2-5.3,5.6-1.4,9-2Z"/>
      <path class="st2" d="M384.4,200.8c-1.5,6.2-7.8,6.4-13,6-.6-.7-1.4-1.3-2-2,.3,0,1.1-.8,2-1,.5,5.6,6,.1,8-1s2.9-1.3,5-2Z"/>
      <path class="st3" d="M351.4,240.7v-1c.5,1.2,0,.5,0,1Z"/>
      <path class="st5" d="M338.5,184.9c7.2-.9,14.1-5.1,21.4-5,1-.1.6,1.3.6,2-7.2.2-13.6,4.6-21,4-.3-.3-.7-.6-1-1Z"/>
      <path class="st6" d="M353.4,262.7c1.2,0,6.7-.2,7,0,1,.8-3.6,4.3-3,6,.6,2.9-2.7,3.8-3,7l3,3c-4,.7-7.6-5.6-9-9s.4-2.4-1-3c.2-.3.7-2.2,1-3,1.6-1.1,3.2-1,5-1Z"/>
      <path class="st14" d="M347.5,266.7c1.4.6.7,2.3,1,3-4.1-3.2-1.2,6.5-.9,7.2s1.9.8,2,1.4c.3,2.6-2.5,2.4.9,4.4.4,3.1-.7,1.6-2,2,.6-2.2-1.8-1.9-2.3-3.2-1.2-3.1-1.6-10.9-.7-14.1s1.9-.6,2-.7h0Z"/>
      <path class="st3" d="M343.5,254.7l3.3.2,5.7,5.7s-.3.8-1,.6c-1.6-.5-2.9-2.6-5-2.6-1.9-2-1.6-1.2-3-4h0Z"/>
      <path class="st4" d="M352.4,260.7h3l-2,2c-1.8,0-3.4,0-5,1,1.9-5.2,0-1.7-1.8-3.2s-.1-1.7-.2-1.8c2,0,3.4,2.1,5,2.6s1-.6,1-.6Z"/>
      <path class="st12" d="M358.4,254.7c2.1.6,1.6,2.6,2,3l-1,4c-1.4-.6-2.4-1-4-1h-2c.5-1.3,2.4-2.3,2.6-3.5s-.5-1.7-.6-2.5c.9.2,2.2-.2,3,0Z"/>
      <path class="st3" d="M348.5,247.7c1.1,1.1-.9,3.1-2,2s.9-3.1,2-2Z"/>
      <path class="st3" d="M346.5,250.7c1.1,1.1-.9,3.1-2,2s.9-3.1,2-2Z"/>
      <path class="st6" d="M337.5,327.6c-.5-.5.9-1.6,1-.5s-.8.7-1,.5Z"/>
      <path class="st10" d="M378.4,160.9c.7.8-3.3,16.3-4.5,17.9-1.7,2.3-8.5,3.1-11.4,3,1-4,8.6-2.8,10-5.5s-7,1-7.9-2.1,2.8-13.6,4.9-11.3c.6,3.6-3.7,11.2,2.3,8.8s4.1-13.8,6.6-10.8h0Z"/>
      <path class="st10" d="M359.4,198.8c-.6.6-.2,3.7-3,3l-1-5c-.9,2.3-.4,7.2-4,7,0-1.6,4.1-21.4,7-18,.2,2.2-.3,4.8,0,7-3.3,1.5-2.8,3.8,1,3,.1,1,0,2,0,3Z"/>
      <path class="st10" d="M358.4,163.9c.3-.9,3.2-3.9,4-3-.5,3.3.3,2.8,3,3.5-.9,2.5-3.6,3-4.6,5.4-1.8,4.8,1.2,3.8,1.4,4.2,1.7,2.4-4,3.5-5.9,2.9.2-1.3-.2-2.8,0-4s1.5-3.2,2-5-.3-3,0-4h.1Z"/>
      <path class="st10" d="M362.4,192.8c1.5-2.5,1.9-8.3,5.5-9s1.6-.1,1.3,1.3c-.5,2.5-3,12.1-4,13.9s-1.9,2.6-2.8,1.7,3.9-6.9,1-8h-1Z"/>
      <path class="st10" d="M375.4,195.8c.3-.4,2.1-3.3,2.1-3.5,0-1.5-1.6-6.1-1.1-6.5,2.2-2,3.4,1.9,4,3s.8.7,1,1-.3,1.5,0,2.3,3.9,2.7,1.9,4.7-3.7-1.9-4-2l-.5-1-.5,1c-.4,0-.7.7-1,1h-2,.1Z"/>
      <path class="st5" d="M373.4,186.9c.7,2.1-2.6,16.4-6,13s3.8-15.5,6-13Z"/>
      <path class="st5" d="M356.4,165.9c0,2.4-.6,4.7-1,7s-1.2,8.7-4,6,1.4-13.7,5-13Z"/>
      <path class="st4" d="M335.5,168.9c-.6,0-1.5.1-2,0,.5-4.1-.8-5.5-5-5-.2-1.7-.8-2.7-1-4,6.4,0,6.9,3.4,8,9Z"/>
      <path class="st5" d="M380.4,188.8c2.7-1.6,2.9-5.8,7-5l-6,6c-.2-.3-.8-.6-1-1Z"/>
      <path class="st1" d="M333.5,168.9c-.4,0-1.8-.8-2-1s.9-3-3-2v-2c4.1-.6,5.5.9,5,5Z"/>
      <path class="st5" d="M359.4,195.8c.5,0,2.8-2.6,3-3h1c-.4,1.7-1,3.9-2,5.3s-1.9.6-2,.7c0-1,.1-2,0-3-3.8.8-4.3-1.5-1-3,0,.3.8,1.5,1,3Z"/>
      <path class="st8" d="M358.4,167.9c-.5,1.8-1.8,4.2-2,5h-1c.4-2.3,1-4.6,1-7,.7,0,1.4,1.5,2,2Z"/>
      <path class="st5" d="M377.4,195.8c-1,.9-1.5,3.2-3.5,3-2-1.5,1-2.3,1.5-3h2Z"/>
      <path class="st9" d="M328.5,164.9v3c-.6,0-1.5-.1-2,0v-1c-.2-1.6.3-2.4,2-2Z"/>
      <path class="st12" d="M328.5,165.9c3.9-1,2.7,1.7,3,2h-2l-1-1v-1Z"/>
      <path class="st8" d="M358.4,163.9h-3c-.4-2.2,3.9-.7,3,0Z"/>
      <path class="st5" d="M379.4,194.8h-1l.5-1,.5,1Z"/>
      <path class="st1" d="M329.5,167.9h-1v-1l1,1Z"/>
      <path class="st10" d="M351.4,424.4c.4,0,1.8,1.8,2,.5-2.5-6.6-1.6-10.5-1-17s-1.9-5.9,3.5-9.5l2.5,2c-2.4-6.6-.3-10.8.8-16.7s-1.6-3.7,1-6.3c7.6-7.6,19,1.6,26.8,2.1s1.4-4.1,6.4-.5.4,1.2.3,2.2c-.5,4.8-3.1,12.1-4.3,17.2-3.3.4-2.3-3.2-3.7-4s-15.4-4.4-17.2-4.5c-6.2-.6-3,2.3-3,2.6-.3,2.4-2.8,5.3,1,7.4s13.7,4.4,14.5,4.5,1.2-4.1,6.4-.9l-3.9,20.9h-2c-.6-1.4-.4-4.1-1.7-5.1s-20.4-5.8-21.3-4.9c-.1,1.3.2,2.7,0,4-.3,2.4-1.8,3.7,1.7,5.8s12.7,4.1,13.9,4.2c1.9.1,1.3-2.1,2-2.1s4.6,1.4,5,2c.9,1.3-3.8,18.6-5.6,20-2-.7-1.6-4.4-2.1-4.9s-2.9,0-4.1-.4c-5.9-2.1-11.9-3.7-17.7-5.8s-3.1-1.2-5-1.5c2.2-2.2,2.5-11.4,5-11.5l-.2.2Z"/>
      <path class="st10" d="M380.4,293.6c.8-1.1.4-2.4,2.5-4,6.2-4.9,21.3,1.2,28,4l.5-3c.9.3,4.8.9,4.9,1.1.8.9-4.3,21.5-5.9,21.9.6-1.4-2.5-6-3.2-6.3-1.1-.6-16.1-4.5-17.3-4.5-5.6-.1-2.4,2.8-2.5,3.9-.1,1.6-2.9,4.2,1,6.4,5,2.8,16.2,4.5,21.9,3.5-1.9,6.5-2.9,13.5-5,20-3.3.4-2.4-3.2-3.6-4.1-2-1.4-19.1-4.8-22.5-5.2s-1.7-1.1-1.8,2.3c-.3,0-5.1,2-6-1,5-1.4,6.7-13.8,5-18l4,1v-18h0Z"/>
      <path class="st10" d="M411.3,202.8c1,1.6,1.9,2.9,4,1.5s8.9-12.4,10.4-14.5,2.5-1.4-.5-3c11.1-9.6,19.7,2.5,17.5,15s-6.5,12.1-7.3,15.7.9,4.9-.2,7.2c-2.5-2.1-5.8-2.7-9-3-2.3-2.7,18.8-17.7,8-22.9-.1,1,.2,2.1,0,3-6.1,1.1-8.5,9.4-13,14-23.4,8.2-18.7-16.1-8.8-28.3s4.5-2.2,2.9-3.6-3.5,1.6-4-5c5.5,1.3,13.9,1,9.4,7.9s-12.6,11-9.4,16h0Z"/>
      <path class="st10" d="M415.3,262.7c-3.9-2-9.5-.6-13.3-2.9s-4.6-6.1-5.1-7.1c-2.9-6.3-2-11.3.3-17.5s2.3-3.4.1-4.4c2.1-2.5,3.4-4.7,7.1-6.4,21.2-9.9,36,21.4,18.3,35.3-3.7,2.9-4,2-7.5,3h0ZM402.3,238.7c-1.6,6.2-.7,5.8,5,8,3.6,9.5,22.8,5.4,15.9-5.4-2.4-3.8-18.4-7.7-20.8-5.6s.2,2.2,0,3h0Z"/>
      <path class="st10" d="M369.4,341.5c.1-.1-.3-1.2.7-2,5.5-5,12.1-6.3,19.3-5l-5,24c-.4,0-3.4.9-3,2,8,3.1,16,.2,15-9.4s-1.5-2.9-1.7-4.2,2.8-7-1.3-6.4c.2-.6-.7-2.9,1.5-2,8.8,3.6,7.5,21.9,2,29s-4.9,4.3-9.5,6c-6.5-1.8-12.2-.4-16.8-6.6s-4.1-13.4-1.3-21,2.3-3.3.1-4.3h0ZM383.3,346.6c-.7-.9-7.5-1.7-9-.6-1,.6-1,7.3-.4,8.5,1.2,2.5,5.8,1.9,5.5,5,1.6-.2,2.1-3.6,2.5-5s2.1-6.9,1.4-7.9Z"/>
      <path class="st10" d="M388.4,281.7c0,.3,1.4,1,1,2h-1c-.1-.6.2-1.8,0-2Z"/>
      <path class="st10" d="M389.4,259.7c1.9-1.9,3.5.1,6,0,.4.4-1.8,5-1,5.9s14.9,3.2,17.7,4.7.7,2.8,2.7,2.3c4.1-1.5,1.2-6.7,1.5-7s6.6,1.8,6.9,2.1c2,2.3-2.3,12.3-3.9,14.9-.8-1.8-5.1,1.5-6.2,2.1s-.6,2.6-3.3,1.9-.4-1.6-1.3-1.9c-6-2.2-14-3.2-20.2-5.1,0,.6-.1,1.4,0,2-.2-.2-2.4.4-3.5-1s-5.8-11.6-6.2-12.8c-.7-2.1-.2-5-1.3-7.2,1.6,1.2,10.5,2.6,11,3s0,4.3,2,2,.5-5.7-1-6h.1Z"/>
      <path class="st14" d="M450.3,318.6c0,9.8-3,31.7-17,27.9-.3-.3-.5-.8-1-1-.9-1.8.6-3.7-1.5-5-2.2,1-2.9,1.7-5.5,2s-1.5,0-2,0c-.6-.3-.8-.7-2-1-.4-.4-.6-1.5-1-2-2.6-3.2-1.7-1.2-3-1s-.7,0-1,0c-.8-3.5,3.4-1.7,6-1s1.7.7,3,1,0,1.3,2,0,.7-.6,1-1h1c1-.1,2,0,3,0l-1-5c.5,0,5.8-1.8,6-2,1.7-2-.6-2.8-2-3s-3.6,0-4-2c7.1,2.1,6.8-2.4,9-3.6s2.8.7,2.9.6c2.2-2.3-2.2-5.6,7-4h.1ZM438.8,332.6v1c.6-.3.6-.7,0-1Z"/>
      <path class="st14" d="M413.3,340.5c.7,5.5,2.1,0,2.4,0s5.1.8,5.6.9c.9.9.7.8,2,1,.7.3,1.3.7,2,1s.4,1.4,1.7,1.8,3.2,0,4.3.2c3.8,4.3-4.8,3.4-5.9,5.1s.4,4.5.9,5.9,0,1.2.5,2,1.2.7,1.5,1v1c-2.2,5.9-8.7,6.2-12,11l-8-3c.2,3.7-2.7,5.5-6,6-.3-1.1-1.1-1.1-2-1,.3-.9.7-1.9,1-3,4.3.9,4.4-3.5,6-5s1.7.3,2,0c.9-1.1-.9-2.8-1-3v-2l6-2c.5.3,2,.2,2.8.7s1.9,3.8,3.2,2.3-2-7.1-1-9c2.5,2.1,4-.8,0-1s-2,0-3,0c-.4-3.9-.7-4.3-5-4h-1v-2c4.1.2,1-1.8,1-2-.2-2,1.8-2.6,2-3h0Z"/>
      <path class="st5" d="M402.3,374.5c.1.5,0,1.3,0,2s.1,2.1,0,3c-.6,5.2-2.7,11.7-4,17s-1.9,8.8-3,13-.8,1.1-1,2c-.3,1.3-.7,2.7-1,4-.5,1.9-1.4,3.8-2,6s-1.3,6-2,9-1.4,5.3-2,8-.6,5-1,7-2.2,5.5-3,8c-.3,0-1.7.8-3,1,5.8-27,12.6-54.2,20-80.8.9,0,1.7-.1,2,1v-.2Z"/>
      <path class="st7" d="M411.3,178.9c.5,6.6,3.2,4.3,4,5,1.6,1.4-2,2.5-2.9,3.6-9.9,12.2-14.5,36.5,8.8,28.3-12.5,13-23-1.3-18.7-16.2s5.1-8.6,6.2-11.8-.8-5.5,1.5-9.4.7.4,1,.5h0Z"/>
      <path class="st7" d="M387.4,373.5c-3.7,1.3-3.3,3-9,1.5-13-3.3-17.6-19.7-11.8-30.8s2.2-1.9,2.8-2.6c2.1,1,.3,3.1-.1,4.3-2.8,7.6-4,13.8,1.3,21s10.4,4.8,16.8,6.6Z"/>
      <path class="st7" d="M397.4,230.8c2.1,1,.3,3.1-.1,4.4-2.2,6.2-3.2,11.2-.3,17.5s4.4,6.7,5.1,7.1c3.8,2.4,9.4.9,13.3,2.9-5.4,1.6-4.9,2.8-11,.5-11.8-4.5-15.1-19.8-9.4-30.4s2-1.5,2.4-2Z"/>
      <path class="st7" d="M434.3,201.8c.2-.9-.1-2,0-3,10.9,5.3-10.3,20.2-8,22.9,3.2.3,6.5.9,9,3-1.1,2.3-12.9-.4-13-3.4-.2-4.8,3.9-5.4,6-8,3.2-3.9,5-6.4,5.9-11.5h.1Z"/>
      <path class="st7" d="M380.4,293.6v18l-4-1c1.7,4.1,0,16.5-5,18-.3-.9,3.4-15.8,4.1-18.2s1.7-.8,1.9-1.5c1-4.2-1.3-10.7,1.3-15s1.6-.2,1.7-.3h0Z"/>
      <path class="st7" d="M388.4,281.7c.2.1-.1,1.4,0,2h1c.4-1-.9-1.7-1-2-.1-.6,0-1.4,0-2,6.2,1.9,14.2,2.9,20.2,5.1s.8,1.8,1.3,1.9c2.6.7,2.1-1.2,3.3-1.9s5.4-3.9,6.2-2.1c-.8,1.3-.4,2.5-2.5,4-6.7,4.8-16.9-2.1-24.3-2.8s-6.2,1.6-9.5-.2c-1.2-8-11.3-14.7-5.7-23,1,2.2.5,5.2,1.3,7.2s5.8,12.2,6.2,12.8c1.1,1.4,3.2.8,3.5,1Z"/>
      <path class="st14" d="M367.4,258.7c8.8-1.6,4.4-7.1,5.1-10.4s4.5-5,4.8-3.1c.9,3.3-1.2,6-1,8.5s-.2,1.7,0,2l-4.9,3.6c1.2,6.5-2.5,6.6.9,13.3-1.1-2.3-4.8-.8-5-1s-1.1-5.7-1-6,1.8-1.6,2-3-.3-2.8-1-4h0Z"/>
      <path class="st2" d="M396.4,187.8c1.6.6,3.2,1.6,5,2-2.6,8.2-5.1,12.6-4,22-6.8-1.3-1.3-11.7-1.2-14.6s-4.3-6.9-2.8-10.3c1.5-.4,2,.6,3,1h0Z"/>
      <path class="st7" d="M393.4,340.5c4-.6,1.1,4.5,1.3,6.4s1.5,2.6,1.7,4.2c1,9.6-7,12.5-15,9.4-.4-1.1,2.6-2,3-2,3.2-.3,7.9,2.3,9.3-2.2,1.5-4.8-3.6-7.3-.3-15.7h0Z"/>
      <path class="st7" d="M377.4,329.6c.1-3.3-1.6-2.7,1.8-2.3s20.6,3.8,22.5,5.2.4,4.5,3.6,4.1c-.1.5.2,1.1,0,1.4-2,2.4-5.9-3.1-7.2-3.7-4.1-1.8-16-4.2-20.7-4.6h0Z"/>
      <path class="st7" d="M351.4,437.3c5.9,2.1,11.8,3.7,17.7,5.8s3.5-.1,4.1.4.2,4.2,2.1,4.9c-4,3.1-5.2-2.8-5.6-3-1.3-.7-18.4-5-20.3-5l-1-3h3Z"/>
      <path class="st7" d="M365.4,392.4c0-.3-3.2-3.1,3-2.6s16.2,3.9,17.2,4.5.4,4.4,3.7,4c-.1.6.1,1.4,0,2-4.5,1.1-6.2-3.3-8.2-4.3-3.5-1.7-11.6-2.7-15.7-3.7h0Z"/>
      <path class="st7" d="M387.4,306.6c0-1.1-3.1-4,2.5-3.9s16.1,4,17.3,4.5,3.8,4.9,3.2,6.3c-3.5.4-4.1-3.2-6.4-4.2-3.5-1.5-12.7-3.5-16.6-2.8h0Z"/>
      <path class="st7" d="M358.4,418.4c.2-1.3-.1-2.7,0-4,.9-.9,19.7,3.7,21.3,4.9s1.1,3.7,1.7,5.1c-5.5,0-4.3-2.6-6.7-3.8s-12.8-4-16.3-2.2Z"/>
      <path class="st2" d="M404.3,180.9c-.3,1.7-.5,3.3-1,5l-4.5-2,.5,2c-.8.2-2.6-.2-3,0l-4-2v-1c.3-2,.1-4.1,1-6,3.3,1.4,7.6,1.7,11,4Z"/>
      <path class="st5" d="M351.4,424.4c-2.5,0-2.8,9.3-5,11.5,1.9.3,3.3.9,5,1.5h-3l1,3c-1.3,0-6.3,3.5-6-2.4s4.5-11.4,4-16.6l4,3Z"/>
      <path class="st7" d="M411.3,202.8c4.7.5,5.3-5.6,7.7-8.7s5.1-6.2,6.3-7.2c3,1.6,1.8,1.2.5,3s-9.7,14-10.4,14.5c-2.2,1.4-3,.1-4-1.5h-.1Z"/>
      <path class="st5" d="M385.4,253.7c1.8,5.6-8,4.1-9,2s0-1.4,0-2c3-.1,6,.2,9,0Z"/>
      <path class="st3" d="M403.3,185.8c-.6,2-1.8,3.3-2,4-1.8-.4-3.4-1.4-5-2,.1-.4-.2-1.9,0-2,.4-.3,2.2.2,3,0l-.5-2,4.5,2Z"/>
      <path class="st14" d="M389.4,230.8c-.2.1.6,2.9-3,2,3.4,3,1.1,4.5,1,6-1.8-3-5.2-6.2,0-7l-2-3,4,2Z"/>
      <path class="st7" d="M389.4,259.7c1.5.3,1.2,5.7,1,6-2,2.3-1.8-1.9-2-2-.1-1.7-.3-2.7,1-4Z"/>
      <path class="st6" d="M343.5,421.4c-.7,2.9-1.9,3.8-2,4l-1-2c.5-.2,1.2-2.4,3-2Z"/>
      <path class="st6" d="M361.4,367.5c.3.8,3.9.6-.5,4-1,0-.2-1.8-.5-2l1-2Z"/>
      <path class="st6" d="M357.4,371.5c.5.6,2.1.8,2,2h-3c.3-.7.7-1.3,1-2Z"/>
      <path class="st7" d="M436.3,179.9c-.9-.3-1.9-1-2-1l2,1Z"/>
      <path class="st3" d="M406.3,175.9l-1,1c0-.1-1.2-.2-1-1,.6-.1,1.8.2,2,0Z"/>
      <path class="st6" d="M338.5,443.3l-1-.5,1-.5c0,.4-.1.8,0,1Z"/>
      <path class="st0" d="M455.2,372.5c-1.6,6.6,2.6,14.2,6,20-9.1,4-10,1.7-17.6,10.9-3.6,4.3-6.3,1.5-10.4,3.1-.5-8.5-6.2-14.9-10-22,7.6-.2,7.7-.9,14-3,6.3-2.1,12.1-4,18-9Z"/>
      <path class="st14" d="M412.3,377.5l-5,7c2.4.4,4.7-1.1,7-1s2.5,1,5,1c.9,3.1,2.3,7,3.6,9.9s2.4,2.3,3,4c1.2,3.8-1.2,9.3,5.4,9-.8,1-.7,3.6-1.1,3.9-.7.6-6.3-.6-7.9,2.1-.5-2.1-5.8-4.8-8-5s-1.5-.1-2,0c-2.4-5.9-4.4-5.9-9-2-3.9-4.7,5-2.1,3-7l-8-3c1.2-5.3,3.4-11.8,4-17,3.7.7,6.6-1,10-2h0Z"/>
      <path class="st4" d="M466.2,360.5c-2.7,9.7,1.9,19.4,3,28.9-3.3,0-5.2,1.8-8,3-3.3-5.8-7.6-13.4-6-20,1.2-1,2.2-3.5,3.3-4.6l7.6-7.3h.1Z"/>
      <path class="st2" d="M398.4,437.3c.4,1.5,1.8,3.6,2,5,.4,2.4-2.6,5.3,2,7,.5-2.3,1.7-5,3-7s.7-.7,1-1c5.9,10.4-10.4,12-16.3,8.8s0-5.4-3.7-4.8c.4-2,.4-4.3,1-7l11-1Z"/>
      <path class="st2" d="M423.3,384.5c3.8,7.1,9.5,13.5,10,22-.3.1-1.9.9-2,1-6.6.2-4.2-5.2-5.4-9s-2.4-2.7-3-4c-1.3-2.9-2.7-6.8-3.6-9.9h4Z"/>
      <path class="st5" d="M463.2,396.4c1.7,5.1-7,5.9,0,6l-16,9.5v-9.5c7.8,5.3,5.8-4,7-5s6.5,1.6,9-1Z"/>
      <path class="st14" d="M405.3,414.4c.6.9.7,2,1,3s0,.7,0,1c-2.5,2.2-6.9,6-8,9-3.7-.7-5.7,2.2-9,3,.7-2.9,1.2-6,2-9,5.1.6,11.9-.8,11-7,1.9-.2,1.6,0,3,0Z"/>
      <path class="st5" d="M443.3,422.4c.4,3.8.4,4.8-3,6.5l3,.5c1.8,1.6-4.4,4.3-6,4.6-3.9.7-2.9-2.9-5.5,3.4l-1.5-3c2.2,3.6-3.9,8.7-5.5,6s.3-8.6.6-8.9,3.5.4,4.5-1,.2-3.8.4-4.1,4.5,1.3,6,0l1,7c-.4-5.4-.6-10.2,6-11Z"/>
      <path class="st11" d="M398.4,427.4c-.2.5.1,1.4,0,2-.7,4-1,3.6,0,8l-11,1c.6-2.7,1.3-5.3,2-8,3.2-.8,5.3-3.7,9-3Z"/>
      <path class="st2" d="M414.3,408.4c2.2.2,7.4,2.9,8,5s0,2.8,0,4h-4c-2.5.1-4.7.9-7,1l-2-1h-1v-1c3.1-2.3,6.3-2.8,6-8Z"/>
      <path class="st7" d="M438.3,409.4c3.5.2,1.6,1.4,2,5l3-1c.4,4.1.4,6.7-4,8l1-4-4,1c.3-3.1-1.4-6.4,2-7.7v-1.3Z"/>
      <path class="st6" d="M451.2,415.4c-.5,2.7,1,2.5,3,1,0,2.5-1,4.6,2,4-.5,8-4.4,4.1-7,6,.7-2.8,3.2-8,0-8.6v-1.4c.3-.2.7-.7,1-1h1Z"/>
      <path class="st5" d="M416.3,438.3c-.2,2.2.3,4.9,0,7s-2.3,3.9-5,4c0-5.1-1.7-10.4,5-11Z"/>
      <path class="st5" d="M464.2,396.4c.3-2.4,3.8-5,5-4s-2,5.9,2,5c-.7,3.9-3.5,1.7-5,5h-2c1.1-1.9-.2-4.3,0-6Z"/>
      <path class="st7" d="M413.3,425.4c2,5.6-1.1,3.7-1,4.5s1,.4,1,.5c0,3.4-.3,3.5-4,4,.5-1.8-.8-4.2-.7-5.6s1.5-1.1,1.7-1.4c.6-1,1.5-1.4,1-3,.2-.2-.1-1.4,0-2h1c-.2,1.2.7,2.1,1,3Z"/>
      <path class="st3" d="M412.3,408.4c.5-.1,1.4,0,2,0,.3,5.2-2.9,5.7-6,8s-.7.6-1,1h-1c-.3-1-.4-2.1-1-3h4l-2-2c3.4-.3.8-3.1,5-4Z"/>
      <path class="st5" d="M413.3,425.4l2.5-5c1,2.8.9,2.1,3.5,1,1.2,5.7-2.2,3.3-2.9,4-1.1,1.2,2.1,6.2-3.1,4.9,0-.1-.9-.3-1-.5-.1-.8,3,1.1,1-4.5h0Z"/>
      <path class="st8" d="M449.3,416.4v1.4c3.2.7.7,5.8,0,8.6-.1.1.1,1.4,0,2-2.9-.2-2.3-11.3-1.8-11.9s1.7,0,1.9-.1h-.1Z"/>
      <path class="st11" d="M405.3,442.3c-1.3,1.9-2.5,4.7-3,7-4.6-1.7-1.6-4.6-2-7h5Z"/>
      <path class="st5" d="M427.3,417.4v6c0,2,.6,7.1-3,5.5,3.6-3.8,0-7.2,1-10.8s1.6-.4,2.1-.6h-.1Z"/>
      <path class="st6" d="M429.3,416.4v1c-.3,1.5.7,2.4,2,3,.6,3.8-.7,3.2-4,3v-6c.6-.3,1.4-.7,2-1Z"/>
      <path class="st5" d="M419.3,434.4s.4.7.7.7c.9,0,2.2-.8,2.3-.7s.1,2.9,0,3c-.3.2-2.5-.4-2.9,0-.9.9,1.1,6.6-1.1,7.9,1.2-1.6-.8-5.6-1-7s-.1-2.7,0-3,1.7-.9,2-1h0Z"/>
      <path class="st5" d="M435.3,409.4c-.2,2.9.3,6.1,0,9s-.4,1.5-2,2l-1-.5c3.6-2.3,1.1-4.3,1-5.5s0-3.3,0-5h2Z"/>
      <path class="st6" d="M406.3,418.4c.6,3.8,1.6,5.6-4,5l2,2.5-6,3.5c.1-.6-.2-1.5,0-2,1.1-3,5.5-6.8,8-9Z"/>
      <path class="st7" d="M454.2,416.4v-5h2c-.1,3,.2,6,0,9-3,.6-1.9-1.5-2-4Z"/>
      <path class="st7" d="M433.3,420.4c-.9.3-.8.6-2,0s-2.3-1.5-2-3l3,1v-4h1c0,1.2,2.6,3.2-1,5.5l1,.5Z"/>
      <path class="st7" d="M418.3,445.3c-.1.1-1.4,0-2,0,.3-2.1-.2-4.8,0-7h1c.2,1.3,2.2,5.4,1,7Z"/>
      <path class="st8" d="M438.3,409.4v1.3c-3.4,1.2-1.7,4.6-2,7.7h-1c.3-2.9-.2-6.1,0-9h3Z"/>
      <path class="st8" d="M464.2,402.4h-1c-7-.1,1.7-.9,0-6h1c-.2,1.7,1.1,4,0,6Z"/>
      <path class="st5" d="M432.3,414.4v4l-3-1v-1c.5-.3,1.1-2.4,3-2Z"/>
      <path class="st14" d="M422.3,417.4v2c-2.3-.4-4.6,1.3-4-2h4Z"/>
      <path class="st8" d="M450.3,415.4c.2-.2.5-5.4,2-.5l-1,.5h-1Z"/>
      <path class="st6" d="M411.3,424.4c.5,1.6-.4,2-1,3l-1-3.5c.7-.7,1.9.6,2,.5Z"/>
      <path class="st7" d="M419.3,434.4c-.3,0-2,.9-2,1,0-1.7-.4-2.3,1.5-2l.5,1Z"/>
      <path class="st6" d="M422.3,418.4c1.4.2,1.2,2.5.5,2-.4-.2-.4-1-.5-1v-1Z"/>
      <path class="st6" d="M411.3,418.4c-1.8,0-1.9-1-2-1l2,1Z"/>
      <path class="st6" d="M408.3,417.4h-1c.3-.3.6-.7,1-1v1Z"/>
      <path class="st1" d="M457.2,481.3c.8.6,1.9,8.3-1.5,8-3.3-1.6-1.1-9.9,1.5-8Z"/>
      <path class="st4" d="M456.2,264.7c.1-.1,1.3.3,1.7-.3,1-1.2-1.2-3.6,3.2-2.7.1,5.9.9,14.2,6,17.5,0,2.9-3.8,3.3-4,3.5-1.5,2.1,2.8,2.8,3,3,3.2,4.4.4,11.7.1,15.6s1.5,7.9,0,8.9-2.9.3-4.1,1-2.9,5.7-3.9,6.5-4.4,2-5,2c1.7-4.1-2.1-5.2-2-5.5.8-1.8,3.4-4.2,4-5.2,1.1-2.1,2.7-5.7,3-7.3.8-3.8,3.5-1.6,4-6.4s-.8-4.5-3-6.5.3-1.3-.2-1.8c-.8-.7-2.2,0-2.8-.2s-.8-.8-1-1c-.7-1,0-3.3-3-3,1.4-3.4,2.3-4.2,3.3-6.2s1.7-5,1.7-5.3c-.3-3.2-6.6,2.2-4.9-3.5,4.4-1.4,2.7-1.6,4-3h-.1Z"/>
      <path class="st6" d="M458.2,317.6c3.7-.4,1,.9,1,3-1.3-.4-2.2.7-3,1s-2.6-.4-2.9,0,0,4.6-.3,6.2c-2.4,10.9-8.6,17.3-11,28.9-.5,2.4-4.5,2.7,1.2,4.7-3.1,1.2-10.9,3.9-13,5,.3-3.1-.6-1.8-2.3-.8-4.1,2.4-7.3,4.5-11.6,6.8v-1c3.3-4.8,9.8-5.1,12-11s1-.2,1-.5-.8-.3-1-.5-1.1-.4-1.5-1-.3-1.4-.5-2l1-4c3.8,2.2,2.7-1,3.6-1.1,1.5-.2,3.6,1.5,5.4,1.1.7-.7-2.2-5.3-3-6,14,3.8,17-18.1,17-27.9.8.1,1.7,1.1,3,1s4.4-1.6,5-2h-.1Z"/>
      <path class="st4" d="M459.2,320.6c0,2.9,2.2,2.6,3.4,4.1,3.1,3.7.9,18.2,2.5,23.9-3.5.3-7.7-.5-11,0-3.8-4.8,2-8.1,2-8.6-.1-5.7,0-1.6.9-4.2s.4-10.6-.9-14.2c.8-.3,1.7-1.4,3-1h.1Z"/>
      <path class="st1" d="M449.3,265.7c0-3.6,6.5-8.8,9.4-8s.5,1.8,1.1,1.8c1.3.1,3.4-1.2,5.8.2s.5,1.8.7,2c-2-.3-1.7-.2-2.3,1.3-1.1,2.5-.2,12.2,4.3,11.7,1.1-4.9-1.9-8.3-2-13,.3.4,1.5.6,2,1,3.6,7.3,7,18.6-2,23-.1-.2-4.4-.8-3-3s4-.6,4-3.5c-5.1-3.3-5.9-11.6-6-17.5-4.5-.9-2.2,1.5-3.2,2.7s-1.6.2-1.7.3c-3.2-6.8-2.2-1.7-3.2-.3s-2.8.9-3.8,1.3h0Z"/>
      <path class="st11" d="M437.3,381.5c-6.3,2.1-6.3,2.8-14,3s-2.7,0-4,0c-2.5,0-4.3-1-5-1,5-3.3,10.4-5.7,15.3-9.2s11.2-9.8,12.2-9.8c2.7,0,5.1,4.8,4.4,7.3s-9.9,4.1-8.8,9.7h-.1Z"/>
      <path class="st14" d="M456.2,321.6c1.3,3.6,2.2,10.7.9,14.2s-1-1.5-.9,4.2-5.9,3.8-2,8.6c-3,.5-7.9,7.6-8,11-.3.2.9.4-3,2-5.7-2-1.7-2.3-1.2-4.7,2.4-11.6,8.5-18,11-28.9s0-5.8.3-6.2,2.3.2,2.9,0v-.2Z"/>
      <path class="st4" d="M430.3,366.5c-7.3,4-6.7,7.6-18,11-3.3,1-6.3,2.7-10,2,.1-.9,0-2.1,0-3,4,1.8,8.1-.1,11.7-1.8s1.9-2,2.2-2.2c4.3-2.3,7.5-4.5,11.6-6.8,1.7-1,2.6-2.3,2.3.8h.2Z"/>
      <path class="st4" d="M448.3,268.7c-.2.5.4,1.8-.2,2.7s-2,.8-2.8,1.7c-1.8,2-3.1,5.7.5,5.6s-.4-3.2,3.5-1l1.5-5c4.4,3.9-4,7.3-2.5,12,1.4.5,2.4-1,3-1s1.7,1.3,2,2c0,0,.3,1.4-.7,2s-3.8.9-5.3,1v-2c-1.9-.5-.5,2.4-1,3h-3c-1,0-.6-1.1-1.4-1.1s-.2,2.8-2.1,2.1l-2.5-2c-.4,2.1.7,4,1,6s1.1,2.5,1,3.3-1.6,1.1-2,1.7c-.4-.2-.9-.6-1-1s.2-1.3-.2-1.8c-.7-.7-2.7-1-3.8-1.2s-.7,0-1,0l-.5-1-.5,1c-.6,0-1.5-.1-2,0v-1c-1-3.9,4.8-6.9,0-9,.2-.2.3-1.3,1-2s4.3.2,2-4h3l-1,3c1,.2,3.4-.3,4,0s.4,3.9,3,3c1.4-1.3.9-9.9,1.2-11.2.5-2,4-4.3,4.8-5.7h2Z"/>
      <path class="st1" d="M452.2,267.7c-1.6,5.7,4.6.2,4.9,3.5s-1.4,4.7-1.7,5.3c-1,2-1.9,2.8-3.3,6.2s-.8.6-1,1c-.6,0-1.6,1.5-3,1-1.6-4.7,6.9-8,2.5-12l-1.5,5c-3.9-2.2-2.7,1-3.5,1-3.6.1-2.3-3.5-.5-5.6s2.4-1.2,2.8-1.7c.6-.9,0-2.2.2-2.7s.2-.8,1-1,2.3.2,3,0h.1Z"/>
      <path class="st14" d="M449.3,265.7c1-.4,3.2-.4,3.8-1.3,1-1.4,0-6.6,3.2.3-1.3,1.4.4,1.6-4,3s-2.1-.2-3,0v-2Z"/>
      <path class="st1" d="M420.3,311.6c2.8,1.8,7.1-3.7,9-2s-3.7,4.5-.5,5,5.9-2.5,8-3l-1.5,4.5h3c-3.8,2.3-4.7,2.6,0,4.5-3.8,1.9-4.4,2.4-7,5s-4,.5-4,1.5l5,.5-1,2,4-2c1.4.2,3.7.9,2,3s-5.5,1.9-6,2-2.5.1-3,0c-1.2-.3-2.9-4.3-4.5-4-3.1.5-3.4,2.8-.5,4l-1,5c-2.6-.7-6.8-2.5-6,1-.4,0-.9.1-1-.5,1.2-1.7,0-3.9,0-4.5,0-6.6,3.1-15.4,5-22ZM429.3,317.6c-2.9-4.7-9.6.9-10,5,3.6,1.5,5,1.3,7-2l-3-2,6-1ZM419.3,331.6c-1.4-.7-2.7.6-2,1,1.4.7,2.7-.6,2-1Z"/>
      <path class="st4" d="M426.3,300.6c.3,1.7-.4,7.6,0,8,5.5-2.1,7.4,4.9,9-5,1,.3,1.9,1,3,1-.2,1.8-.2,2.1,1,3s1.3.2,3,2,0,1.3.5,1.9c1.2,1.4,3.3,1.9,4.4,3.5,0,.4-5.9,5-6.8,5.4s-1.8-.1-2.2,0c-4.7-1.9-3.8-2.2,0-4.5h-3l1.5-4.5c-2.1.5-6.3,3.2-8,3-3.3-.5,1.5-4.1.5-5-1.9-1.7-6.2,3.8-9,2,1.3-4.5,1.7-9.9,5-13,0,.1.8.8,1,2v.2Z"/>
      <path class="st1" d="M447.3,288.6c0,.8.1,3.8,0,4-.8,1.2-.9-.1-3,4s-1.3,3.1-2,4-3.6.9-4,4c-1.1,0-2-.7-3-1-1.5-.5-4.3-1.1-5-1.5-1.3-.8-.3-4.2-4-1.5-.2-1.2-1-1.9-1-2,0-.5-.9-1.2-.9-2.5s.9-2,.9-2.5l3,1v1c-.4.1-2.3,1.1-2,2,2.6-1.5,8.8,5.8,10.9,4,2.1-1.8-.2-1.7,0-2,.4-.5,1.9-.8,2-1.7s-.8-2.3-1-3.3c4.9.9,4-1,5-5h3c.5-.6-.9-3.5,1-3v2h.1Z"/>
      <path class="st12" d="M411.3,347.5c2.3,2.6-.5,6,0,8.4s1.8.3,2.1.6c.8.7.9,1.9,1,2l-6,2c.2-3.8,1.7-9.5,2-13h1-.1Z"/>
      <path class="st12" d="M428.3,285.6c4.8,2.1-1,5.1,0,9l-3-1c.2-2.1,0-5.5,1-7.3s1.8-.6,2-.7Z"/>
      <path class="st14" d="M433.3,276.7l4,3c-.2.9.1,2,0,3-.5-.3-3,.2-4,0l1-3h-3c2.3,4.2-1,3.1-2,4v-3c2.1-2.9,1.2-2.7,4-4Z"/>
      <path class="st3" d="M416.3,338.5h1l3,1c.4.5.6,1.6,1,2-.5-.1-5.3-.9-5.6-.9s-1.7,5.4-2.4,0c1-2.2-.5-5.2,2-7,0,.6,1.2,2.8,0,4.5,0,.6.6.4,1,.5h0Z"/>
      <path class="st3" d="M425.3,342.5v1c-.7-.3-1.3-.7-2-1h2Z"/>
      <path class="st3" d="M423.3,342.5c-1.3-.2-1.1-.1-2-1,1.2.3,1.4.7,2,1Z"/>
      <path class="st12" d="M411.3,343.5c0,.2,3.1,2.2-1,2,0-.3-3-2.3,1-2Z"/>
      <path class="st12" d="M408.3,362.5c0,.2,1.8,1.9,1,3s-1.8-.2-2,0l1-3Z"/>
      <path class="st3" d="M388.4,169.9c-.5-.5.9-1.6,1-.5s-.8.7-1,.5Z"/>
      <path class="st3" d="M457.2,185.8c-.6-.1-1.3,0-2,0v-1l2,1Z"/>
      <path class="st3" d="M348.5,269.7c1.4,3.3,4.9,9.6,9,9l-3-3c.3-3.2,3.6-4.1,3-7h2v1c-1,5.2,2.5,4.8,1,12s-1.7,3.3-1,4,3.3-1,3,1c-5.3-1.5-3.3,2.5-4.7,3.1s-1.9-.3-2.3,0c-.7-.3-2.4-1.2-3-1-.2-1.6.4-3.9,0-5.4s-1.7-.4-2-.6c-3.5-2-.7-1.7-.9-4.4s-1.7-.7-2-1.4-3.1-10.4.9-7.2h0Z"/>
      <path class="st1" d="M364.4,279.7c-.2.5-1,3.8-.9,3.9.4.5,2.4-.6,1.9,1.1-3.9-.3-1,1.8-1,2-.1,1.3-1.1,2.6-1,4,3.3-1.8,2.7,0,4,1-3.1-.7-1.6,1.7-2.2,4.3l-.8.7c-.6-.4-4.7.3-6,0l1-2h-8c1-1.2,3.7-4.9,4-5s1.6.4,2.3,0c1.3-.6-.6-4.6,4.7-3.1.3-2-2.5-.5-3-1s.8-3.2,1-4l4-2h0Z"/>
      <path class="st14" d="M359.4,269.7c4.1-.5,6.6,2.9,6.8,6.7s-1.4,2.3-1.8,3.3l-4,2c1.5-7.2-2-6.7-1-12Z"/>
      <path class="st1" d="M362.4,258.7c-1.4,1.1-2.5.8-2,3,1.4.2,2.6.7,4,1s.4.7.8.7c.8,0,1-.7,1.2-.7.5-.1,1.4,0,2,0-.2,1.4-1.9,2.7-2,3h-1c0-1-1.3-1.1-2-1-1.4.3-.9,2-4,3s-.8.6-1,1h-1c-.6-1.6,4-5.2,3-6s-5.8,0-7,0l2-2c1.5,0,2.6.4,4,1l1-4s1.9,1,2,1Z"/>
      <path class="st14" d="M365.4,285.6c0,1.7-.4,2.3,1.5,2l.5-1c1.3.2,3.2-.7,4.1.6s.4,6.1-2.1,5.4c0,0-1-.2-2-1s-.7-2.8-4-1c-.1-1.4.9-2.7,1-4-.1-.7.3-1,1-1Z"/>
      <path class="st4" d="M367.4,291.6c1,.8,1.9.9,2,1,1.7,2.5.7,9.5-4,6.5s-.8-2.4-1-2.5l.8-.7c.6-2.6-.9-5,2.2-4.3h0Z"/>
      <path class="st14" d="M372.4,276.7c.3,1.9-1.2,3.3-3,3v-4l3,1Z"/>
      <path class="st1" d="M367.4,286.6l-.5,1c-1.8.3-1.6-.3-1.5-2,1.2,0,1.7.9,2,1Z"/>
      <path class="st14" d="M365.4,265.7c-1.1,2.1-2.5,1.1-2-1,.7-.1,2.1,0,2,1Z"/>
      <path class="st14" d="M359.4,268.7h-1c.2-.4.6-.9,1-1v1Z"/>
      <path class="st14" d="M350.5,296.6l1-1c-.3.5-.2.8-1,1Z"/>
      <path class="st14" d="M346.5,297.6c.1-.5.5-.9,1-1-.1.5-.5.9-1,1Z"/>
      <path class="st2" d="M331.5,374.5c0-.9,0-1.7,1-2-.1.8,0,1.7-1,2Z"/>
      <path class="st3" d="M367.4,258.7c.7,1.2,1.2,2.6,1,4-.6,0-1.5-.1-2,0h-2c-1.3-.3-2.6-.8-4-1-.5-2.2.5-1.9,2-3,.9.2,4,.2,5,0Z"/>
      <path class="st4" d="M389.4,210.8l2,5-6-1c-.9-1.3,2.7-4.9,4-4Z"/>
      <path class="st11" d="M379.4,202.8c-2,1.1-7.5,6.6-8,1,2.6-.5,5.3-1.2,8-1Z"/>
      <path class="st13" d="M407.3,246.7c-5.7-2.2-6.6-1.8-5-8,17.9-4.4,29,17.1,5,8Z"/>
      <path class="st7" d="M407.3,246.7c24,9.1,12.9-12.4-5-8,.2-.7-.3-2.7,0-3,2.5-2.2,18.4,1.8,20.8,5.6,6.9,10.8-12.3,14.9-15.9,5.4h0Z"/>
      <path class="st6" d="M383.3,346.6c.7,1-.9,6.3-1.4,7.9s-.9,4.8-2.5,5c.3-3.1-4.3-2.5-5.5-5s-.5-7.9.4-8.5c1.5-1.1,8.3-.3,9,.6Z"/>
      <path class="st13" d="M416.3,371.5v1c-.4.2-1,1.6-2.2,2.2-3.6,1.7-7.7,3.5-11.7,1.8,0-.6.1-1.5,0-2,3.3-.5,6.2-2.3,6-6l8,3h-.1Z"/>
      <path class="st3" d="M433.3,346.5c.8.7,3.7,5.3,3,6-1.8.4-3.9-1.3-5.4-1.1s.2,3.2-3.6,1.1l-1,4c-.5-1.3-1.5-4.8-.9-5.9,1-1.7,9.6-.9,5.9-5.1h1c.5.2.7.7,1,1Z"/>
      <path class="st4" d="M416.3,351.5c.4,3.7.3,3.6-3,5-.3-.2-1.8.6-2.1-.6-.4-2.4,2.4-5.9,0-8.4,4.3-.3,4.6.1,5,4h.1Z"/>
      <path class="st2" d="M419.3,351.5v1c-1,1.8,1.3,8.6,1,9-1.3,1.5-2.3-1.7-3.2-2.3s-2.3-.3-2.8-.7-.2-1.3-1-2c3.3-1.3,3.4-1.3,3-5h3Z"/>
      <path class="st4" d="M432.3,345.5h-1c-1.1-.3-2.8.3-4.3-.2s-1.5-1.7-1.7-1.8v-1c2.5-.3,3.3-1,5.5-2,2.1,1.3.6,3.2,1.5,5Z"/>
      <path class="st4" d="M419.3,351.5c4,.2,2.5,3.1,0,1v-1Z"/>
      <path class="st3" d="M428.3,360.5v-1c.2.2,1,.2,1,.5s-.9.4-1,.5Z"/>
      <path class="st6" d="M412.3,408.4c-4.2.9-1.6,3.7-5,4l2,2h-4c-1.3,0-1.1-.2-3,0s-5.8,1.8-9,1c.3-1.3.7-2.7,1-4,.8,0,1.5-.8,2-1,1.7-.6,4.7-.7,6-1.5s.8-2.3,1-2.5c4.5-3.9,6.6-3.9,9,2Z"/>
      <path class="st1" d="M398.4,396.4l8,3c2,4.9-6.8,2.2-3,7-.2.1,0,1.7-1,2.5s-4.3,1-6,1.5l-1-1c1.1-4.2,2-8.7,3-13Z"/>
      <path class="st3" d="M391.4,421.4c.6-2.1,1.5-4.1,2-6,3.2.8,6.5-.7,9-1,.9,6.2-5.9,7.6-11,7Z"/>
      <path class="st3" d="M396.4,410.4c-.5.2-1.2,1.1-2,1,.2-.9.9-1.6,1-2l1,1Z"/>
      <path class="st3" d="M447.3,292.6l11,9c-.3,1.5-1.9,5.2-3,7.3s-3.2,3.4-4,5.2,3.7,1.4,2,5.5c-1.2,0-2.2-.9-3-1-9.3-1.6-4.8,1.7-7,4s-1.8-1.1-2.9-.6c-2.2,1.1-1.9,5.7-9,3.6.4,2.1,2.4,1.8,4,2l-4,2,1-2-5-.5c0-1,3.6-1.1,4-1.5,2.6-2.6,3.2-3.1,7-5,3.8-1.9,1.5.3,2.2,0s6.8-5,6.8-5.4c-1.1-1.6-3.2-2.2-4.4-3.5s-.4-1.8-.5-1.9c6.2,3,10.8,1.9,7.6-5.7l-5.6-7.3c2.1-4.1,2.2-2.8,3-4l-.2-.2Z"/>
      <path class="st0" d="M455.2,285.6c.1.2.9.9,1,1-.5,2.5.8,2.2,3,2,2.2,2,3.8.1,3,6.5s-3.3,2.6-4,6.4l-11-9c.1-.2,0-3.2,0-4,1.5-.1,4.1-.3,5.3-1s.6-1.9.7-2c.2-.2,1.4.1,2,0h0Z"/>
      <path class="st12" d="M455.2,285.6c-.6.1-1.8-.2-2,0-.3-.7-1.3-2-2-2,.2-.4.9-.7,1-1,3-.3,2.3,2,3,3Z"/>
      <path class="st12" d="M456.2,286.6c.6.2,2-.5,2.8.2s0,1.7.2,1.8c-2.2.2-3.5.5-3-2Z"/>
      <path class="st2" d="M466.2,261.7c0,4.6,3.1,8.1,2,13-4.5.5-5.4-9.2-4.3-11.7s.3-1.5,2.3-1.3Z"/>
      <path class="st2" d="M430.3,295.6h2l4,3c.1.4.6.8,1,1-.2.3.3,1.7,0,2-2.2,1.8-8.3-5.5-10.9-4-.3-.8,1.6-1.9,2-2s1.4,0,2,0h-.1Z"/>
      <path class="st14" d="M438.3,294.6c-.3-2-1.4-3.9-1-6l2.5,2c1.9.8,1.3-2,2.1-2.1s1.3,1.1,1.4,1.1c-1,3.9,0,5.9-5,5Z"/>
      <path class="st1" d="M432.3,295.6c1.1.2,3.1.5,3.8,1.2s0,1.3.2,1.8l-4-3Z"/>
      <path class="st1" d="M431.3,295.6h-1l.5-1,.5,1Z"/>
      <path class="st14" d="M429.3,317.6l-6,1,3,2c-2,3.3-3.4,3.4-7,2,.4-4.1,7.1-9.7,10-5Z"/>
      <path class="st3" d="M423.3,332.6c-2.9-1.2-2.6-3.6.5-4s3.2,3.7,4.5,4v1c-1.1,0-2.1-.7-3-1s-1.6.2-2,0Z"/>
      <path class="st4" d="M425.3,332.6v6c-1.3-.3-2.2-.8-3-1l1-5c.4.2,1.4-.2,2,0Z"/>
      <path class="st4" d="M431.3,332.6l1,5c-1,.1-2-.1-3,0l-1-4v-1c.5.1,2.4.1,3,0Z"/>
      <path class="st3" d="M419.3,331.6c.7.3-.6,1.7-2,1s.6-1.7,2-1Z"/>
      <path class="st13" d="M444.3,296.6l5.6,7.3c3.1,7.6-1.5,8.7-7.6,5.7-1.7-1.8-2.1-1.4-3-2,0-5.5,3,1.9,5,0s-2.1-5.5-2-7c.7-.9,1.4-2.8,2-4Z"/>
      <path class="st14" d="M426.3,300.6c3.7-2.7,2.7.6,4,1.5s3.5,1,5,1.5c-1.6,9.9-3.4,2.9-9,5-.4-.4.2-6.3,0-8Z"/>
      <path class="st3" d="M442.3,300.6c-.1,1.5,2.6,6.4,2,7-2,1.9-4.9-5.5-5,0-1.2-.9-1.2-1.2-1-3,.4-3.1,3.5-3.4,4-4Z"/>
      <path class="st4" d="M420.3,339.5l-3-1c1.3-.2.4-2.2,3,1Z"/>
      <path class="st14" d="M366.4,262.7c-.2,0-.5.8-1.2.7s-.6-.7-.8-.7h2Z"/>
      <path class="st1" d="M428.3,333.6l1,4h-1c-.5.1-.8.5-1,1-2,1.3-.9.3-2,0v-6c.9.3,1.9,1,3,1Z"/>
      <path class="st4" d="M438.8,332.6c.6.3.6.7,0,1v-1Z"/>
      <path class="st4" d="M427.3,338.5c.2-.5.5-.9,1-1-.3.3-.6.7-1,1Z"/>
    </g>
  </g>
</svg>