<?xml version="1.0" encoding="UTF-8"?>
<svg id="Layer_1" xmlns="http://www.w3.org/2000/svg" version="1.1" viewBox="0 0 792 612">
  <!-- Generator: Adobe Illustrator 29.0.0, SVG Export Plug-In . SVG Version: 2.1.0 Build 186)  -->
  <defs>
    <style>
      .st0 {
        fill: #a6885b;
      }

      .st1 {
        fill: #bc9b5d;
      }

      .st2 {
        fill: #7a4833;
      }

      .st3 {
        fill: #907243;
      }

      .st4 {
        fill: #e1dacc;
      }

      .st5 {
        fill: #846b48;
      }

      .st6 {
        fill: #c2ac8f;
      }

      .st7 {
        fill: #d7c3bb;
      }

      .st8 {
        fill: #cc2b43;
      }

      .st9 {
        fill: #543127;
      }

      .st10 {
        fill: #ac986f;
      }

      .st11 {
        fill: #907652;
      }

      .st12 {
        fill: #fefefe;
      }

      .st13 {
        fill: #a07f4c;
      }

      .st14 {
        fill: #b32a3c;
      }

      .st15 {
        fill: #9d8057;
      }
    </style>
  </defs>
  <g id="CsoHS3">
    <g>
      <path class="st0" d="M357.8,169.1h2c-2,1.8,0,3.6,0,4,0,1,.2,3.3,0,4s-1.4.4-1.9,2.5c-.7,3.2,0,5.7,0,7.5v7c0,.6-.9,4.8-1,5s-1.8-.4-2.1.6c-.4,1.7,1.1,3.1,1.1,3.4,0,2.9-1.5,6.8-1,10l-2.1.6c-.2,1.3,1.1,2.1,1.1,2.3v4c-3.9-.4-1,1.5-1,2v3c-2.2-1.4-3,5.5-3,7.5s1,2.3,1,2.4v3c-4.3-.7-1.1,4.5-1,6s-.2,2.8,0,4c-2.9-.6-2,1.6-2,3.5,0,8.1,2.7,12.4,11.3,10.3s8-12.4,8.8-18.2-1.2-4,2-3.5c.5,8.1,0,13.6-4.6,20.9-1.3,2-3.5,3.2-4.8,5.2s-1.9,7.8-5,7.8-6.2-2.8-8.6.6c3.8,4.1,3.5,8.5,7,12.5-30,13.7-21.2,59.6-21,86.8-2.7.6-4.5-8.1-4.8-9.7-.6-4.4,2-13.9-4.2-13.2,0-29.8-2.1-64.1,0-93.3,2-26.5,14.4-60.7,18.9-88.3,5-.1,10,.2,15,0v-.2Z"/>
      <path class="st11" d="M444.6,169.1c2.4,26.6,9.2,52.5,13.4,78.9.8,2.3,2,3.4,4.5,3,.9-.9-2.8-19.8-3.5-22.9s-1.8-3.5,1.5-3c1.2,5.6,6.3,22,6,25.9s-3.2,3.4,1,3c.1,1,0,2,0,3-1.5.1-1.5,2.9,0,3,0,10.7.9,21.3,1,31.9-7.1,0-5.7,13-6.3,18.2s0,6.6-2.7,5.8c-1.4-8.4-3.8-13.7-9-20s-3-4.2-4-5c-.5-4.6,1-31.3-1-32.9s-5.6,4.4-6.4,6.1-4,13.4-4.7,13.8c-3.5,2.3-4.6-6.5-6.1-9.2s-7.8-9.4-8.4-11.6.2-3.5.2-5.4-2-3,1.4-2.6c1.2,5.9,6,18.1,14,14.4s4.7-4.4,5-6c1.9-10.1-3.4-39-5.2-50.6s-1.8-8.2-2.7-11.7v-3c.1-2,.5-4.3-1-6v-3c.1-5-1.6-9.9-1-15h1c5,0,8.2.3,13,1h0Z"/>
      <path class="st5" d="M445.6,484.5c-.8,4.8-2.3,20.2-.5,24s10.1.1,13.5,2c-5.4,6.3-11.5,9.5-19.4,12-23.5,7.5-84.6,8.6-103.3-9,3.1-3,7.6-1.5,11.4-2.1,5.6-.9,12-1.3,16.8-2s4.3-3.1,7.2-2.8,8.4,5.3,12.5,6.5c6.7,1.9,15.1,2.6,20.9-2s6.1-13.7,7-22.4c10.6-.6,23.4-2.3,33.9-4v-.2Z"/>
      <path class="st14" d="M348.8,88.3c8.2-3.4,19.8-2.5,28.4-3,16.5-.9,33.3-1.6,49.9,0,3.6.4,17.9,2,19.6,4.6s1.7,15.5,2.1,16.1,2.2.4,2.7,1.8c1.4,3.8-1.8,5-2.9,7.4-6.7-1.5-14.5-2.7-21.4-3-18.1-.9-40.3-.7-58.4,0-8,.3-17.2,1.1-25,3-.8-1.7-8.9-5.8-1-10s9.1-2.6,15-3,2.7,0,4,0c3.2-.2,5.9-.6,9-1s4,.2,6,0l-3-2c1.2-3.8,4.6-7.3,4-12h-6c-2.6.2-4.9.8-8,1s-1.3,0-2,0h-1c-3.8.2-9.1,1.2-12,0h0ZM417.7,88.3h-5c-.5.5,2.5,7.1,2.8,8.7s-1.9,4.2,1.7,4.2h14.5c-3-6.9,3-12.2-6-13s-5.5,0-8,0h0ZM375.8,104.3h-15.5c-.2,0-4.8,1-4.5,2,3.8,0,8.5,1.9,12.3,1s.6-1.8,1.4-1.9c1.8-.4,5.9,1.1,6.3-1h0ZM432.6,105.3c-5.5-1.4-11.3-1-17-1l8.5,2,8.5-1Z"/>
      <path class="st11" d="M350.8,484.5c11.5,2.3,22.2,3.5,33.9,4,1.5,4.7-1.1,9.4.4,14s13.6,5.7,16.1.9-1.6-11.9-.6-15h2c3,0,6,.2,9,0-.9,8.7.5,16.4-7,22.4s-14.2,3.9-20.9,2c-4.1-1.2-10.7-6.3-12.5-6.5-2.9-.3-4.9,2.5-7.2,2.8-4.8.8-11.2,1.2-16.8,2s-8.2-.9-11.4,2.1c-3.7-3.4-4.8-5.4-7-10l11.9,3c1.9-7.8.8-15.9,1-23.9,3.2,1.1,5.8,1.4,9,2v.2Z"/>
      <path class="st15" d="M323.9,350.8c6.3-.6,3.6,8.8,4.2,13.2s2,10.3,4.8,9.7c0,7.3.9,15,1,22s-1.1,11.3-1,17-.8,11.7,1,16c-1.7,9.4-1.2,20.2-1,29.9s-.9,13.8.9,18.5,4.4,4.2,8.1,5.4c-.3,8,.8,16.1-1,23.9l-11.9-3c-2.3-4.9-3.6-7.8-4-13.4-2.6-32.9-.8-70.9-1-104.3,3,1.4,3.3-7.1,0-6v-28.9h-.1Z"/>
      <path class="st15" d="M459.6,419.6c5.4-1.5,1.2,6.6,7,7,0,5.7.9,11.7,1,17,.4,14.2,1.5,36.6-1,49.9-3.4,1.4-3.4-3.5-5.5-3s-6.1,12.3-11.5,10v-17c-1.7-.8-3.3.9-4,1-10.6,1.7-23.3,3.4-33.9,4-3,.2-6,0-9,0v-8c1.5.3,3.9-1.2,5-1,2.6.5,3.6,4.7,9,3s5.5-3.6,8-4,5.2-.6,8-1,7.3-1.2,11-1c0-2.5.4-3.9-1-6s.2-.9,0-1c.3-1,1.2-.9,2-1v7l11-2c-.4-2.1-1.1-3.8-1-6s.9-1.1,1-2c.2-1.6-.2-3.4,0-5,.8-.2,4-1.3,4.1-1.6,0-4.5-.1-8.9,0-13.4,0-8.6-.2-17.3,0-25.9h-.2Z"/>
      <path class="st10" d="M445.6,131.2c-1.2,3,1.3,25.1,2,29.9-3.9.6-3.2-3.1-6.7-3.8-10.6-2.1-9.8,2-9.3,10.7h-2c.6-5.7,0-24.2-3.1-28.3s-2.6-1.6-2.7-1.8c-.5-.9.9-2.7.9-3.8h3c3.3-.2,6.6-1.3,7-5h1c3.4.4,6.8.6,10,2h0Z"/>
      <path class="st11" d="M460.6,350.8h1.4c1.3,4.1,2.7.5,5.6,0,0,22.9-.6,46,0,68.9-1.7,1.4-1,4.8-1,7-5.8-.4-1.6-8.5-7-7,.2-8.4.9-16.6,1-25s0-6.7,0-10c0-11.3.2-22.6,0-33.9Z"/>
      <path class="st15" d="M449.6,169.1c3.1,18.7,7.1,37.4,11,55.9-3.2-.4-1.9,1.2-1.5,3,.6,3.1,4.4,22,3.5,22.9-2.6.4-3.8-.6-4.5-3-4.2-26.4-11-52.2-13.4-78.9,1.6.2,3.4-.1,5,0h-.1Z"/>
      <path class="st0" d="M468.6,291.9c.2,19.6-.9,39.6-1,58.9-3,.5-4.3,4.1-5.6,0h-1.4c-.2-11.3.9-23.8-1-34.9,2.7.9,2.5-4.3,2.7-5.8.5-5.2-.8-18.1,6.3-18.2Z"/>
      <path class="st11" d="M445.6,484.5c.7-.1,2.3-1.8,4-1v17c5.4,2.4,9.5-9.5,11.5-10s2.1,4.4,5.5,3c-1.3,6.9-3.5,11.7-8,17-3.4-1.9-11.3,2.5-13.5-2s-.3-19.2.5-24Z"/>
      <path class="st8" d="M348.8,88.3c2.8,1.2,8.2.2,12,0-5,3.3,1.1,9.4-3,14-5.9.4-9.4,0-15,3,1-6.7-1-14.1,6-17Z"/>
      <path class="st7" d="M448.6,115.3c-.2.5-1,1.9-1,2-9.8-1.9-19.9-2.6-29.9-3-8.2-.3-16.7,0-25,0s-16.7-.4-24,0v-2c18.1-.7,40.4-1,58.4,0,6.9.4,14.7,1.5,21.4,3h.1Z"/>
      <path class="st0" d="M431.7,168.1c-.5-8.8-1.3-12.8,9.3-10.7s2.8,4.4,6.7,3.8c.3,2.1,1.6,5.5,2,8-1.6-.1-3.4.2-5,0-4.8-.7-7.9-1-13-1h0Z"/>
      <path class="st10" d="M359.8,129.2c.3,1.9,1.7,3.1,2,5-.3,0-.6.8-1,1-.6.4-2.8-1.1-2,3-.5,0-1.4,0-2,0-2.5-.3-5.4.2-8,0,.8,7-.7,13.2-2,20-.3,0-2.2,1.1-3,1,.9-6.7,4.1-21.1,3-26.9l2-2c3.7,0,7.2-1.5,11-1h0Z"/>
      <path class="st1" d="M366.8,115.3v1c-2.8,0-6.2-.5-8,2-1.2,0-3.8,2-6,1v2c1.6,0,3.4.2,5,0v1c-.1,0,.2,1.9-1.7,2.8-3.8,1.9-9.9-.5-12.3,3.2-5.4-7.3,0-4.1,0-11,7.6-1.7,15.3-1.5,23-2Z"/>
      <path class="st1" d="M357.8,168.1v1c-5,.2-10-.1-15,0,.5-3.1.6-6.9,1-10,.8.1,2.7-1.1,3-1s1.2,1.5,2.6,1.8c6.9,1.2,9.3-2.2,8.3,8.2h0Z"/>
      <path class="st0" d="M448.6,121.2c.4.8,2.6.5,1.8,4.3s-4.7,5.3-4.8,5.7c-3.2-1.4-6.6-1.6-10-2,1.3-4.4-1.8-3.8-2-4-2.4-3.2,5.5-.5,4-4,3,0,8,2.8,11,0Z"/>
      <path class="st10" d="M447.6,117.2v2l-31.9-1c-.1,0-4.3,0-2-2s5,1.6,4-2c10,.4,20.1,1.1,29.9,3Z"/>
      <path class="st3" d="M447.6,119.2c0,.6.7,1.4,1,2-3,2.8-8,0-11,0h-7c-3.4-2.2-8.9-.5-13-1-2.3.5-1.8-1.8-2-2l31.9,1h.1Z"/>
      <path class="st15" d="M362.8,122.2v3c-.9.2-2-.2-3,0v4c-3.8-.5-7.3.9-11,1s-1.7-1.6-3,0c0,0-1.4-1.2-2-2,2.4-3.7,8.5-1.3,12.3-3.2s1.5-2.7,1.7-2.8c.3-.2,3.9,0,5,0Z"/>
      <path class="st4" d="M368.8,112.3v2c-1.1,0-1.9,1-2,1-7.7.5-15.3.3-23,2,0-.6.1-1.7,0-2,7.8-1.9,16.9-2.7,25-3Z"/>
      <path class="st0" d="M467.6,443.6c-.1-5.3-1.1-11.2-1-17s-.7-5.6,1-7c0,.2,1,1.6,1.1,3.4.2,6.4.5,14.5-1.1,20.6Z"/>
      <path class="st0" d="M323.9,379.7c3.3-1.1,3,7.4,0,6v-6Z"/>
      <path class="st0" d="M348.8,130.2l-2,2c0,0-.8-1.7-1-2,1.3-1.6,2.8,0,3,0Z"/>
      <path class="st0" d="M467.6,254c-4.2.4-1-2.7-1-3,1,.8.9,1.9,1,3Z"/>
      <path class="st0" d="M467.6,260c-1.5-.1-1.5-2.9,0-3v3Z"/>
      <path class="st1" d="M404.7,278.9c3.5.2,7.5,1.4,11,2-1.5,5.9-.9,11.9-1,18-3.8-1.4-4.8-1.3-8,1.5s-.7,2.3-.9,2.5c-.7.7-1.8,1.2-3.5,3s-2.2.8-2.4,1.1,1.1,3.7.9,5.9-1,1.8-1,2c-2,0-3.2,1.3-4,3-1-1.4-2.4-3.2-4-4-4.5-2.2-5.9-.2-8,3-1.8-.7-5.1,2.6-6,2s-.9-3.9-3-4c-.1-.6.1-1.4,0-2-.4-2.3-.8-4.6-1.1-6.9-5.9.5-12.7.3-18.5.9s-2.2,1-2.4,1c-2.4.2-6.4-.6-8.4.1s-1.2,2.8-2.6,3.9-2.2-1.4-2,4c-1.5.4-3.8-1.4-4,1.5-1,14.2,6.1,6.2,8.9,8.6s5.2,27.7,9,32.4,9.4,1.2,12.4-.6.6-1.9.7-2c1-1.1.8,1.8,2-3,5.2,1.2,9.6,7.2,15.3,3.8s2-5.2,7.1-1.7.9,7.7-.4,9.9-1.1-.3-1.8.3-.1,1.7-.2,1.7-1.8.1-2,0-.6-1.9-2.5-2.1c-6.5-.5-4.1,9.3-4.5,13.4,2.8,1.6,6.7,2.4,7-1.4h2c0,.9,1,1.8,1,2,0,.5-1.3,2-1,3,4.1-.4,2.6.4,3,3-6-1.2-3.2,2.6-5,7-.3-.1-1.2.4-1.7-.3-.9-1.1-.2-4.2-3.3-3.7.3-.8,3-.7,2-3-1.6-.9-3.6,1-4,1h-1c-1.2,0-4.6-1.5-7,0,0-1.3,1.4-2.5,1-4-2.4,3.3-4.1,3.3-8,4-.2-.6-1.8-1.5-2-2s1.6-2-.5-3l-2,4-3.5-4,2,11c-1.5.2-3.8-.3-5,0l1-9h-5c0-3.3.3-4.1-4-2.4v8.8l4-.4c1,1.6,2.4-2.4,1,5s-.4,3.4-1,5c-1.7-.4-5.6-1.4-7,0,.4-3-.6-1.6-2-2-2.3-.6-4.6-1.2-7-1,0-7-.9-14.7-1-22-.2-27.2-9-73.1,21-86.8s36.2-8.9,50.9-8h0ZM347.8,362.8h-2v14h2v-14ZM354.8,375.7h1c.1.2-.5,1.8.6,2s9.2,1,9.6.8c4.7-1.2,4.7-18.1-4.3-14.8v12c-3.3.3-5,.5-4-3.3s2.5,0,2-2.1-3.2-.1-2-4,3.9.8,3-2.5c-1.9-1-4.2.9-5,1s-.7,0-1,0c-1.3-.3-3.7-3.8-5.5-1s-1.2,13.4,2.1,13.9c1.5,0,2.2-1.7,3.4-1.9h0ZM378.8,369.7c2.1-2.7-3.1-7.6-5.5-4s-.9,11.6.5,12.6c4,2.8,8-4.4,3.1-4.6l-2,3v-10c2.5-2,1.9,5.8,4,3h-.1Z"/>
      <path class="st13" d="M375.8,168.1c.2.7,0,1,1,1,1.6,4.7-.2,8.9,4,12.5s3.3,1.1,3.7,1.7,1.1,5.3,2,7.4c5.6,12.1,9.8,19.8,12.7,33.2s5.5,26.3,5.2,32.5-1.8,5.1-1.7,7.9c.1,4.1,3.3,9.6,1.9,14.6-14.7-.9-37.5,1.9-50.9,8-3.4-3.9-3.1-8.4-7-12.5,2.4-3.4,6.1-.5,8.6-.6s3.6-5.8,5-7.8,3.6-3.2,4.8-5.2c4.5-7.2,5.1-12.7,4.6-20.9s0-1.3,0-2c1.6-2.3,1.2-6.2,1-9s0-1.3,0-2c1.6-1.9,1.6-5,0-7,0-4,.8-9.7-1-13v-3c5.2.5,2.3-1.1,2-3s.7-4.1-1-5c.1-1.3,0-2.7,0-4,3.1.6,1.9-1.5,2-3.4.4-6.8,1.4-13.6,1-20.5.4-.2,1.4.1,2,0h0Z"/>
      <path class="st6" d="M366.8,150.2c1.5,5.7-.4,7,6.3,5.8s2.1-.8,2.7-1.8h1l.5,5c5-1.9,10.4-.9,15.5-.7l.9,3.7c-4.5,0-7.3.2-12,0s-7.3.4-6,6c-.6.1-1.6-.2-2,0-1.4.6-1.7.9-2,2.5-1,5.9-.2,15.1-1,21.5,0,1.3.1,2.7,0,4s-.8,2.9-1,5,0,2,0,3v3c0,1-.9,1.1-1,2.4-.7,7.7-2.4,47.5-9.6,49.5-9,2.5-8.4-5.1-9.3-11s0-2.7,0-4c1.4-1.7,1.1-4,1-6s0-2,0-3c1.3-2.9,1.9-6.8,2-10s0-2,0-3c1-.3.9-1.2,1-2v-4h3c-.2,1.2.3,4.6,0,5s-1.4-.1-2,0c-.4,1,1,1.9,1,2,0,.9.1,4.8,0,5-.6.9-1.5-2.3-2,3s0,2.7,0,4c-.1,2.2,0,3.6,0,5v4c0,1.3-1,1.2-1.1,2.4-.5,7.2,4,12.3,7.9,3.9s1.7-5,2.1-7.4,0-1.3,0-2c.2-1.6,0-1.3,0-2v-4c4.1.5,1.1-2.1,1-3s0-2,0-3v-2c2.9,1,2.7-3.3,1-5,.3-2,.7-4,1-6,.5-3.6,0-3,0-5s.1-3.4,0-5c3,.8,2-2.3,2-5s0-1.3,0-2c0-1.5-1-3.2-1-5,3.1.6,1.9-1.5,2-3.4.3-6.1.3-13.7,1-19.5s-.1-1.4,0-2,1.6-.4,2-2.5.3-8.2,0-8.5c-.5-.4-4.7.6-5.9-.1s-.8-5.5-1.1-6.9l2-1h.1Z"/>
      <path class="st6" d="M356.8,138.2c-1,5.6,4.8,3.2,5.9,4.1s.9,3.9,1.1,4.9l-3,21c-.4.2-.8.9-1,1s-.6,0-1,0l-1-1c.9-10.3-1.5-6.9-8.3-8.2s-2.5-1.8-2.6-1.8c1.3-6.7,2.8-13,2-20,2.6.2,5.5-.3,8,0h0Z"/>
      <path class="st10" d="M370.8,220v7c0,2.6,0,1.3,0,2-3-1.1-2.2,4.8-2,7.5s1,1.4,1,1.5v2c-3.2-.6-1.7,1.6-2,3.5-.7,5.8-1.9,16.5-8.8,18.2s-11.2-2.2-11.3-10.3-.9-4,2-3.5c.8,5.8.3,13.5,9.3,11,7.3-2,8.9-41.8,9.6-49.5s1-2.2,1-2.4c1.8,3.3,1.1,8.9,1,13h.2Z"/>
      <path class="st6" d="M357.8,203.1h1v4c-2.9-.3-1.7.3-2,2s.1,1.4,0,2c-.2,1-.9,1.6-1,2h-1c-.5-3.2,1-7.1,1-10h2Z"/>
      <path class="st10" d="M360.8,177.1c-1,3.5-.8,5.6-1,9s0,.7,0,1h-2c0-1.8-.7-4.2,0-7.5s1.9-2.4,1.9-2.5h1.1Z"/>
      <path class="st10" d="M352.8,225c0,3.1-.7,7.1-2,10,0-.1-1-.1-1-2.4s.8-8.9,3-7.5h0Z"/>
      <path class="st6" d="M359.8,194.1c0,1.7-1.1,3.8-1,5h-2c.1-.2.9-4.3,1-5h2Z"/>
      <path class="st10" d="M350.8,238c.1,2,.4,4.3-1,6-.1-1.5-3.3-6.7,1-6Z"/>
      <path class="st10" d="M356.8,199.1h1v4h-2c0-.3-1.5-1.7-1.1-3.4s2-.5,2.1-.6Z"/>
      <path class="st10" d="M361.8,173.1h-2c0-.4-2-2.2,0-4,.2,0,.6-.8,1-1,.5,1.6.9,3.3,1,5Z"/>
      <path class="st6" d="M359.8,187.1v5h-2v-5h2Z"/>
      <path class="st10" d="M354.8,213.1h1c-.2.8.1,2.1,0,3h-2c0-.2-1.3-1-1.1-2.3l2.1-.6h0Z"/>
      <path class="st7" d="M359.8,192.1v2h-2v-2h2Z"/>
      <path class="st6" d="M361.8,173.1v2c-1,.4-.8,1.2-1,2h-1c.2-.7,0-3,0-4h2Z"/>
      <path class="st10" d="M353.8,220c0,.8,0,1.7-1,2,0-.4-3-2.4,1-2Z"/>
      <path class="st10" d="M358.8,169.1h-1v-1l1,1Z"/>
      <path class="st3" d="M379.8,168.1c11.2-.3,23.8-.5,34.9,0,11.1.5.7,0,1,0l4,61.9c-1.7,1.9-1.6,3.5,1,3,0,2.3-.2,4.7,0,7-3.6-1.4-1.9,8,1,7,.1.6-.1,1.4,0,2-3.4-.4-1.3,1-1.4,2.6s-.8,3.3-.2,5.4,6.7,8.3,8.4,11.6,2.6,11.5,6.1,9.2,3.8-11.9,4.7-13.8,4.2-7.9,6.4-6.1.6,28.3,1,32.9c-8.4-6.4-20.9-8.4-30.9-10s-7.4-1.8-11-2c1.4-5-1.8-10.4-1.9-14.6s1.6-5.2,1.7-7.9c.2-6.2-3.7-25.5-5.2-32.5-2.9-13.4-7.1-21.1-12.7-33.2s-1.6-6.8-2-7.4-2.7-.8-3.7-1.7c-4.2-3.6-2.4-7.8-4-12.5.5,0,2-1,3-1h-.2Z"/>
      <path class="st13" d="M459.6,315.8c1.9,11.1.8,23.6,1,34.9s0,22.6,0,33.9c-2.1,0-4.3-.3-6.3.2s-7,5.6-6.7.8c4-9.3,2.2-26.6-10.5-26s-2.1,1-2.5,1.1c-1.8.3-3.4-.1-5.3,1s-6.4,6.3-6.7,6.8c-2.6,4.5-1.5,7.8-2,12.2s0,1.9,0,2v1c-.4,3.1-1.1,8.1-5,7,0-6.3-2-4.6-3-6s-1.7-4.1-2-5l6-1-4-2c-1.4-5.5,2.5-3.4,3-4.5,1.1-2.6-4.8-.1-3-4s2,0,3-3.5,2.3-11.5,1-16c2-.2,5.9-.7,5-3,4-.4,12.1,1.2,12-4.5l-1-.5c1-.4,2.4-2,3-3,2.8-.8,4,2.3,5.7,2.8,3.2,1,10.6-1.7,11-5.5s-.8-1.2-.8-1.3v-2c0-.6,1-.7,1-1.5-.1-3-6-7-7.9-9.5-2.2-2.5,2.1-6.5,2.8-9.7s.2-3.4.2-5.2c.1-4.2-1.1-4.3,4-4l-1-6c5.2,6.3,7.6,11.6,9,20h0Z"/>
      <path class="st0" d="M446.6,290.9c1,.8,3,3.8,4,5l1,6c-5.1-.3-3.9-.2-4,4-5.7-4.1-8.2,4.4-11.7,4.8s-2.5-2.6-4.8-2.9-8.2,1.2-12.4,1c.7-1.9.7-6.1-.3-7.7s-1.6-.2-1.7-.3c-.6-.6,1.3-.8-2-2,0-6-.5-12.1,1-18,10,1.6,22.6,3.6,30.9,10h0Z"/>
      <path class="st0" d="M419.7,169.1v3c0,1-.9,1.1-1,2.4-.2,2.7-.9,8.7,2,7.6v4c-.1,2.3-2.8,7.5,0,10v2c-.1,2.9-1.1,10.1,2,9v2c-.5,12.1-.3,34.5,4.5,45.9s10.8,4.6,11.1-4.7c.6-18-6-37.2-5.6-55.2.9,3.6,2.2,8.2,2.7,11.7,1.8,11.7,7.2,40.5,5.2,50.6-.3,1.6-3.7,5.4-5,6-8,3.7-12.7-8.6-14-14.4s.1-1.4,0-2c-.3-1.8-.9-5.3-1-7s0-4.7,0-7,.3-2.5-1-3l-4-61.9c1.3.1,2.7.8,4,1h0Z"/>
      <path class="st6" d="M427.7,176.1c4.6-.9-.7,7.9,4,7v3c0,1.4-3.3,6.7,1,6v3c-.3,18,6.3,37.2,5.6,55.2s-7.2,14.2-11.1,4.7-4.9-33.8-4.5-45.9h1v4c-.1,2.1-.6,5.7,1,7v3c-.1,2.1-.6,5.7,1,7v2c0,1.7.6,12.4,1,13s1.6-.1,2,0v2c.4,3.1.9,4,3.5,6,3-.2,2.3-2.8,2.5-5,.2-3.4,0-7.5,0-11s1.2-7.9-2-7v-3c1.6-.4,1.5-3.7,0-4v-3c.1-1.8.6-5-1-6v-2c.1-1.3.4-3.4-1-4,0-.8.2-4.8,0-5l-1-2c.1-1.9,0-4,0-6s.5-3.3-1-4c.1-1.6,0-3.4,0-5s.5-3.3-1-4c.1-1.9-.2-4.1,0-6h0Z"/>
      <path class="st0" d="M430.7,168.1c-.6,5.1,1.1,9.9,1,15-4.6.9.7-7.9-4-7,.2-1.3-.2-2.7,0-4s1.9-3.2,2-4h1Z"/>
      <path class="st0" d="M432.7,192.1c-4.3.7-1.1-4.6-1-6,1.5,1.7,1.1,3.9,1,6Z"/>
      <path class="st10" d="M417.7,88.3c-.2,9.6,9.5,11,8,0,9,.8,3,6.1,6,13h-14.5c-3.6,0-1.4-2.7-1.7-4.2s-3.3-8.3-2.8-8.7h5Z"/>
      <path class="st10" d="M373.8,87.3h4c.6,4.7-2.8,8.2-4,12l3,2c-1.9.2-4.1-.2-6,0-1.8-3.9-6.6-1.2-10-1l1,2h-4c4.1-4.6-2-10.7,3-14h1c.3,11.7,10.1,7.3,12-1Z"/>
      <path class="st7" d="M425.7,88.3c1.5,11-8.2,9.6-8,0,2.5,0,5.6-.2,8,0Z"/>
      <path class="st7" d="M373.8,87.3c-1.9,8.3-11.7,12.6-12,1h2c.3,5.1,7.8,3.7,8-1h2Z"/>
      <path class="st0" d="M375.8,104.3c-.4,2.1-4.5.6-6.3,1s-.6,1.8-1.4,1.9c-3.8.9-8.5-.9-12.3-1-.3-1,4.2-2,4.5-2h15.5Z"/>
      <path class="st8" d="M432.6,105.3l-8.5,1-8.5-2c5.7,0,11.4-.4,17,1Z"/>
      <path class="st4" d="M370.8,101.3c-3.1.4-5.8.8-9,1l-1-2c3.3-.2,8.2-2.9,10,1Z"/>
      <path class="st4" d="M371.8,87.3c-.2,4.7-7.7,6.1-8,1,3-.2,5.4-.8,8-1Z"/>
      <path class="st0" d="M390.7,472.5c.3,0,.6.8,1,1-3.1,4.7,5,12.8,10,6h1v9h-2c-5.3,0-10.7.2-16,0-11.7-.5-22.4-1.7-33.9-4-.2-2.7-1.6-6.7-3-9,.1-2.5-1-4.6,2-4,.5,1.8-1.6,5.8,2,5-5.3-12,5.7-12.2,12-19,5.8,4,20.6,13.1,26.9,15ZM355.8,467.5h-3c.4,3.2-1.2,7.5,1.5,10,2.4.5,1.4-1.9,1.5-3.5s0-4.4,0-6.5ZM358.8,467.6l-2,.5c1.3.3-1.1,14.2,3,10.5,1.9-1.7-1.9-2.2-1.9-2.4.2-2.4,1.8-5.6.9-8.6ZM362.8,472.5l-.5-4c-2.8,2.8-1.4,7.5-.5,11l1.5-4c1.1.7,1,2.6,2.2,3,4.3,1.3,11.6.5,16.2,2l-1-10-2,3c-1.6.4-.5-1.7-1.6-2-3.9-1-3.4,2.2-3.9,2-2.5-.9-.3-3.8-.5-4s-5.1-1.1-5.4-1.1c-.8,0-.5,4.6-2,0l-2.5,4h0Z"/>
      <path class="st1" d="M363.8,457.6c-6.3,6.8-17.3,6.9-12,19-3.6.8-1.5-3.2-2-5s-3.7-2.5-2-6c-2.5.6-2.6,7.3-2,9.3s2,.6,2,.7c1.4,2.2,2.8,6.3,3,9-3.2-.6-5.8-.9-9-2s-6.4-1.1-8.1-5.4-.8-13.1-.9-18.5c1.3.2,2.8-.2,4,0,3.5.7,7.8,2.6,11.6,2.9s1-2.5,1.4-3.9c3.2-.2,4.2-3.7,7-5,1.7,1.3,5.1,3.7,7,5h0ZM340.8,463.5c-.3-.2-3,.2-4,0,.8,4.1-2.3,9.9,2.7,10.7,7.6,1.2,4.9-4.2,5.3-9.7h-3c2.4,2.5,1.2,5.9.5,9-2.8-1.5-.8-9.3-1.5-10Z"/>
      <path class="st15" d="M400.7,488.5c-1.1,3.1,1.4,13.3.6,15-2.4,4.8-14,5.3-16.1-.9s1-9.4-.4-14c5.3.2,10.7,0,16,0h-.1Z"/>
      <path class="st9" d="M341.8,409.7c4.9.8,2.5,5.1,3,9s2,1.2,2.8,2.1,1.1,11.6,4.1,14.4,1.5-2.4,3.5-1.5,5.3,6.4,4.4.6-4.8-9.7-4.9-10.3c-.5-2.1.3-5,0-7.3,4.1-.8.3,3.2,1,4,1.7,1.9,2.3-4.6,4.5-1s2,12.2,2.6,14.9c2.5,1.2,5.3,1,7.9,1.6s4.7,3.4,3.9.1c-1.1-4.7-4.2-10.9-4.9-15.5s-.1-2.2,0-3l6-2c1.6,3.4-1.3,12.6.1,14.8s3.6.7,4.8,1.7,1.8,4.2,3.6,5.4c4.1-.8-.2-7.6-.5-9.5s-.1-4.3,0-6.4-.1-2.1,0-3c5.1.5,6.7-2.2,11-3,.4,4.6,3.1,8,2,13,5.2.5,4.8-2.7,7-6,1.8.6-.4,2,0,4l4-1c.8.9,0,6.3.3,7.3.4,1.5,2.2,2.1,2.6,3.3.4,1.8-1.9,4.8.4,7s13,0,16.7,1.2c.8-3.7-2.9-.9-4.1-2.6-1.7-2.5-3.7-12.7-4.9-16.4s.2-1.8-1-2c1.3-1,1.4-2.9,2-4,6.5-.5,3.9,5.3,5.5,8s3.5,1.8,4.6,3.4c2.3,3.5.1,10.9,5.9,11.5,0,.1,1.4.9,2,2s.3,2.2,1,3c-.5.2-1.5-.2-2,0-6.6,2.4-2.6,1.8-5.2,6.3s-10.4,2.3-13.8,6.2c5.7,1.4,2.6,8.1,3,8.5s2.7-.3,3,0-1.4,3.8-1.1,5.3,2,.6,2.1.6c.3.4-.2,3,0,4-2.4.4-4.9,3-8,4-2.6-5.2-4.7-9.9-4-16s.5-2,1-3c1.4-2.8,5-5.6,6-9,1.4-.7,2-1.4,3-2,1.6-1,4.4-1.4,4-4-4.9-.3-10,.3-15,0s-3.8-.8-6-1-3.4.2-5,0c-3.1-.3-7.6-.6-10.4-1s-3.2-2.5-5.5-2l-1,11c-8.3-3.7-1.6,7.1,1,5s.9-5.3,2.2-7.3,2.9-2.6,4.5-4,.3-1.5.4-1.6c.3-.2,3.5,3.2,6,1-.4,3.2-3.4,3.9-3.9,7.5s-.7,11.4,0,15.4c-1.1,0-2.1.5-3,1-6.3-1.8-21.1-11-26.9-15s-5.3-3.7-7-5-4.2-4.3-6-6c2.3-7.2,2.4-10.3-5-12.4s-2.8.6-3,.4c-.4-.5.3-4.7,0-6-4.1-.9-.3,5.4-3,7-1.8-2.1-4.8-4.3-6-7-1.8-4.2-1-11.1-1-16,5.8-.5,4.9,4.8,8-1s.7-1.1,1-2l-.3.3ZM363.6,440.8c-.6-1-8-2.9-8.8-2.2.1,2.2-.5,5.1.5,7s3.2,1.5,4.2,2.3c1.5,1.2,3.9,7.4,4.3,1.2s.3-7.5-.2-8.3ZM374.8,441.6l-7-1c-2.2,6.1.4,6.2,1.7,9.7s.7,5.7,1.3,6.2c1.8,1.7,1.7-.8,2.1-1.4,1.3-2.2,4.7-6.4,4.9-8.1s-1.3-2.2-2-1.5.3,3.8-2,4l1-8h0Z"/>
      <path class="st10" d="M339.8,435.6c3.4,3.9,7.2,7.5,11,11s3.9,4.4,6,6c-2.7,1.3-3.8,4.7-7,5s-8.1-2.1-11.6-2.9-1,2.6-1.4,3.9c-1.1-.2-2.7.2-4,0-.2-9.7-.7-20.5,1-29.9,1.2,2.7,4.1,4.9,6,7h0Z"/>
      <path class="st3" d="M340.8,396.7c-.7,4.3-9.1,9-4,13l2-4,2,6c-3.1,5.8-2.2.5-8,1,0-5.7,1-12.2,1-17,2.4-.3,4.7.4,7,1Z"/>
      <path class="st10" d="M460.6,394.7c0,8.4-.8,16.6-1,25s0,17.3,0,25.9l-18-1c.8-1.4,1.5-6.5,2.3-7.7s2.4-.8,3.5-3,5.7-15.5,6-17c1-4.7-.6-4.5-1.8-7.3s-.3-5.2-5-6c.8-5.5,8.7-10.1,14-9h0Z"/>
      <path class="st0" d="M447.6,468.5c-.2.7-2.2,1.1-3,1v-1c1,0,2,.1,3,0Z"/>
      <path class="st0" d="M459.6,445.6v13.4c0,.2-3.3,1.4-4.1,1.6-1.2.3-7,.8-7,1.5.9,5.7,1.8,5,7,3.5-.1.9-1,1.9-1,2-2.3.4-4.6.7-7,1,.3-1.1-1.6-4.3-1-6-2,.6-3.9.8-6,1,.4-5.9,0-11.3-4-16,.5-.2,1.5.2,2,0,.9-.4,2.5-2.1,3-3l18,1h.1Z"/>
      <path class="st2" d="M411.7,448.6c4.9.3,10-.3,15,0,.4,2.6-2.4,3-4,4,.6-2.8-1.6-2.3-3.4-1.9-3.8.7-7.5,4.4-8.6,7.9s-.9,4.9-1,6c-.2,2.7.3,2,3,2-.7,6,1.4,10.8,4,16-5.4,1.7-6.4-2.5-9-3v-1c1-.6,0-.8,0-1-.2-1.1-1-2.8-1-3v-1c-.1-6.5,1.7-11.7,2-17.6s-.3-2.4-2-3.4c1.7-1.9,2.5-2.9,5-4Z"/>
      <path class="st6" d="M440.6,463.6c2-.2,4-.4,6-1-.5,1.7,1.3,4.9,1,6-1,.1-2,0-3,0s-1.7,0-2,1c-.7-.4-3.4,1-3-2h-1l-.7,1.9-8.3,2c0-.7-2.2-5.4.1-6.8s8.8-.9,10.8-1.1h.1Z"/>
      <path class="st6" d="M454.6,467.5c0,2.2.6,3.9,1,6l-11,2v-6c.8.1,2.8-.3,3-1,2.4-.3,4.7-.6,7-1Z"/>
      <path class="st6" d="M442.6,470.5c1.5,2.1,1.1,3.5,1,6-3.7-.2-7.4.4-11,1v-5c3.3-.6,6.6-1.8,10-2Z"/>
      <path class="st10" d="M424.7,474.5c-1.1-3,3.8-2.2,4-2,.4.5-.7,3.5.5,4,.8,0,.6-3.1.5-4,1-.1,2.1.2,3,0v5c-2.8.4-5.6.6-8,1-.2-1,.3-3.5,0-4Z"/>
      <path class="st6" d="M455.6,460.6c-.2,1.6.2,3.4,0,5-5.2,1.6-6.1,2.2-7-3.5,0-.7,5.8-1.2,7-1.5Z"/>
      <path class="st6" d="M406.7,474.5c0,.2.8,1.9,1,3v2c-1-.2-3.5,1.3-5,1v-6h4Z"/>
      <path class="st0" d="M429.7,471.5l8.3-2,.7-1.9h1c-.4,3,2.3,1.6,3,2s-.2.8,0,1c-3.4.2-6.7,1.4-10,2s-2-.1-3,0v-1h0Z"/>
      <path class="st6" d="M405.7,130.2c-.2,1.3.1,2.7,0,4,2-1,4.2-1.4,6.5-1.1,5.1.6,1.8,2.6,8.5,0-.3.2-1.1,3.5-2.6,3.9-1,0-1.6-.5-2.4-1-2.6-1.4-4.9-4-8-.5l6,4.5c0,.3,1.5,4.7-2,6-.3-1.6,1.9-4.8.9-5.9s-3.8-.4-4.4-2.1l-.5,2c-1.7-4.3-1.9-5.9-7-5,.9,4.9,1.8,15.9,8.5,14,.8-.4.7-2.3.5-3,.6,0,1.8-.2,2,0,.8.6-1.6,3.4,5,1s1.8-1.3,2-1c-1.4,4.5,6.5,4.2,9,2-.1-1.8-3.5-.7-5.2-1.2s-2.7-1.7-3.7-2.8c.4-.9,0-2.6.7-3.7s6.2-5.4,4.3-7.2c.3.2,1,.3,1,1,0,1.1-1.4,3-.9,3.8s1.9.7,2.7,1.8c3.1,4.2,3.8,22.6,3.1,28.3s-1.9,3.2-2,4c-1.2,0-1.2-2.2-1-3s1.4-.4,1.6-1.4c.2-1.5-1.2-16.4-2.2-16.6s-7.2-.2-7.4,0-1,8.9-1,9.4c.3,3.2,2.5,2.6,2,8.5-1.3-.2-2.7-.9-4-1s-.7,0-1,0v-6h-9l1-3.6,7-.4c.8-1.9-.9-4.5-.9-5.6s1.7-.2,1.9-.4c4-4.1-7.1-.3-8,0-6.5.4-3.5-7.9-8-8-.1-2.9.3-6.1,0-9s0-.7,0-1c3.5.3,6.5.3,6-4h1v.3Z"/>
      <path class="st15" d="M417.7,128.2c3.3,0,6.7-.2,10,0v6h-3c0-.7-.7-.8-1-1-2.1-1.8-1.5-.6-3,0-6.7,2.5-3.4.5-8.5,0s-4.5,0-6.5,1.1c0-1.3-.2-2.7,0-4s1.1-1.2,1-2c3.6-.2,7.4,0,11,0h0Z"/>
      <path class="st15" d="M437.6,121.2c1.5,3.5-6.3.8-4,4s3.2-.4,2,4h-1c-1.8-.2-4.3-1-5-1,3-3.9-2.1-2.5-2-6,1.7,0,2.8-1,3-1h7Z"/>
      <path class="st0" d="M429.7,128.2c.7,0,3.2.8,5,1-.4,3.7-3.7,4.8-7,5v-6h2Z"/>
      <path class="st0" d="M410.7,340.8c.8,5.1-2.5,6.2,4,6-.2,2.2-.1,2.2,2,2,1.3,4.4.2,11.5-1,16h-6c.1,5.4-.7,9.9,1,15s1.8,4.8,2,5c-2.3,1.6-.6,4.3,1,5.5l-2,.5,3,2c.3,14,10.7,7.2,18,4.5s5.3.8,6-3.5c4.2-1.2,7.2-4,9-8-.3,4.8,5-.4,6.7-.8s4.2-.2,6.3-.2v10c-5.2-1.1-13.2,3.5-14,9-3.8-.6-7.4,1.3-10.4,1s-3.5-2.1-6-2c-4.5.2-9.6,2-16.1,2s-14.2-.3-22.5-1c.7-5-4.6-4.1-7.1-6.4s-1.5-3.3-2.9-4.6c.3-1.4-.4-3.8,0-5,3.1-.4,2.4,2.6,3.3,3.7s1.4.1,1.7.3c3.6,1.6,1.2-.3,2-.9,2-1.6,1.8,1.7,2.7,2s2.3-.1,3.3,0c2.5.3,2.4,0,4,0,2.8-.1,5.2-1.1,8,0l.5-6c1.6,0-1.4,7.2,2.5,6v-7h-12c-.1-1.3,0-2.7,0-4-5.1.1-4.1,2.9-4,7-.9-1.2-1.1,2.1-2-4s1.1-3.4-3-3c-.3-1,1-2.5,1-3,1.5-.4.8-2.7,1-3s2.7.3,3,0-.2-1.7,0-2,1.4.1,2,0c0,2.1-1.3,6.9,2,6-1.9-7,2.7-5.7,3-6.5,1-2.3-2.7-1.2-3-1.5-1.3-1.5.8-6.4,4-5l1,13,6-1c.6-4.1-6.9,0-3.5-5s3.1-.2,2.5-2.4-3.9,1.1-3-3,4.4-.3,4-3c-2.6-1.7-6,.5-8.5.5s-3-.8-4.5-1-1.3,0-2,0h-3c1.3-2.2,3-8.1.4-9.9-5-3.5-5,.5-7.1,1.7-5.7,3.4-10.2-2.6-15.3-3.8,0-.4-.1-.8,0-1,.5-.6,2.3.7,3-3,3.3.3,3.4,5,7.7,5.8s6.4-.7,7.2-2.4c1.3-2.5-5-1.2-6-1.5v-1c3.6.3,6.9.1,10-2,.8,2.6,4.9,4,7.4,3.9s10-2.2,4.6-4.9c4-1,5.3-1.3,5-6h3.1Z"/>
      <path class="st0" d="M368.8,114.3c7.3-.4,16.1,0,24,0-.4,3.5,4.4,5.2,0,7-1.5-.4-5,0-7,0-3.6-.2-7.4,0-11,0s-1.3,0-2,0c-2.7-1.6-8.2-1.3-11.6-1.1s-2.9,1-3.4,1.1c-1.6.2-3.4,0-5,0v-2c2.2,1,4.8-.9,6-1,4.4-.5,9.5.4,14,0-.9-2.6-3.9-1.9-6-2v-1c.1,0,.9-.9,2-1Z"/>
      <path class="st13" d="M417.7,114.3c1,3.6-3.2,1.3-4,2-2.3,2,1.9,1.9,2,2s-.3,2.5,2,2v1c-6.1,0-12.4-.2-18.5,0s-4-1-3.4,2c-2.5-.4-2.8-1.9-3-2,4.4-1.8-.4-3.5,0-7,8.3,0,16.7-.3,25,0h-.1Z"/>
      <path class="st0" d="M372.8,128.2h3c-.6,3,1.5,1.9,3.4,2,5.5.2,11-.2,16.5,0-.2.5-1.9.9-2,1.7-.2,1.4.9,3,1,4.3s0,5.6-2.5,5-1.6-5.4-6.5-5-2.7,3.2-3.5,3c-1.4-.3-3.3-2.9-3.5-3-.4-1.1-.4-3.7-1.7-4s-11.3.6-13.3,1-.9,1-1,1c-.3,0-.7,0-1,0-.3-1.9-1.6-3.1-2-5s0-.7,0-1h13.1Z"/>
      <path class="st4" d="M360.8,135.2c-.3,3.8,0,2.9,3,3s.7,0,1,0h2c-.5,1.3.9,2.4,1,3,.5,2.1.5,4.8,1,7s.8,5.7,1.1,5.9c.3.3,3,0,3.9,0h2c-.6,1-1.5,1.6-2.7,1.8-6.7,1.2-4.8,0-6.3-5.8s-1.7-9.6-2.1-9.9-3,.2-4.3-.3-1.6-1.8-1.7-1.8c-.8-4.1,1.4-2.6,2-3h.1Z"/>
      <path class="st11" d="M358.8,138.2c.1,0,.4,1.3,1.7,1.8s3.8,0,4.3.3,1.6,8.2,2.1,9.9l-2,1c-.3-1.3-.7-2.7-1-4s-.9-4.7-1.1-4.9c-1.1-.9-6.9,1.5-5.9-4.1.6,0,1.5,0,2,0h-.1Z"/>
      <path class="st6" d="M363.8,133.2c2-.4,11.8-1.4,13.3-1s1.3,2.9,1.7,4c-.4-.2-1.4,0-2,0,0-2.7.9-3.3-2.4-2.9s-9,1.9-13.6,1.9c.4-.2.7-.9,1-1s.7,0,1,0l1-1Z"/>
      <path class="st10" d="M372.8,121.2c-2.8,0-6.4.9-10,1s-4.7-.2-5,0v-1c.4,0,1.5-1,3.4-1.1,3.4-.2,8.9-.5,11.6,1.1Z"/>
      <path class="st7" d="M366.8,116.2c2.1,0,5.1-.7,6,2-4.5.4-9.6-.5-14,0,1.8-2.5,5.2-2.1,8-2Z"/>
      <path class="st0" d="M430.7,121.2c-.2,0-1.3,1-3,1-3.6,0-7.7-1-10-1v-1c4.1.5,9.6-1.2,13,1Z"/>
      <path class="st3" d="M372.8,124.2v4h-13v-3c.9-.2,2.1.2,3,0,3.6-.8,6.4-.9,10-1Z"/>
      <path class="st13" d="M374.8,121.2v3h-2c-3.6,0-6.4.2-10,1v-3c3.6,0,7.2-.8,10-1s1.3,0,2,0Z"/>
      <path class="st10" d="M364.8,385.7c.8,2.8-1.7,5.1,3.6,6.9s1.4-3.3,3.3-3.9c1,6.2,9.3,5.1,7-3h1c.3,1.9-.5,4.7,0,6.4s1.8.4,2,.6c1.4,1.2,1.5,3.2,2.9,4.6,2.5,2.3,7.8,1.4,7.1,6.4-3.8-.3-7.4,1.1-10,1s-1-.8-2-1c-8.3-1.3-16.6-1.6-25-3s-1.4-.9-2-1c-1.5-.3-2.4-.9-3-1,.6-1.6.7-3.3,1-5,1.7.5,2.8-1.9,3-2,1.2-.3,3.5.2,5,0,4.6-.5,1.6-5.1,4-8,.2.5,1.8,1.4,2,2h0Z"/>
      <path class="st3" d="M339.8,315.8c0,1.6.8,5.7,2,6.6,2.4,1.7,6.5-2.6,7.9,1.1,1.4,4,5.8,32.2,7.3,33.1s7.5-.8,9.8-.9c-.1.1.2,1.5-.7,2-3,1.8-9.9,3.6-12.4.6-3.8-4.7-6.8-30.5-9-32.4s-9.9,5.6-8.9-8.6,2.5-1,4-1.5h0Z"/>
      <path class="st9" d="M341.8,311.9c-.6,1.8.5,2.7,1,4s-.4,2.7.9,3.5c2.1,1.4,7.1-.7,8.6,1.4l6.6,31.3c.3,1.9,5.5,3.3,4.8-.3,1.6.2,3.4-.1,5,0-.1.2,0,.6,0,1-1.2,4.8-1,1.9-2,3-2.4.1-8,2-9.8.9s-5.9-29.1-7.3-33.1c-1.4-3.7-5.4.6-7.9-1.1s-1.9-5-2-6.6c-.2-5.4,1.3-3.5,2-4h0Z"/>
      <path class="st4" d="M352.8,307.9v1c-2.3,0-8-1.2-8,1.5s.5,4.9,1.2,5.3,6.6.3,6.8.1c2.5-.5,2.2,1.1,2.7,2.8,2.8,9.9,3.8,20.4,6.8,30.2.9,1.4,6.7-.3,9.5,0-.7,3.7-2.5,2.4-3,3-1.6-.1-3.4.2-5,0s-3.2.4-3.8-1.7l-6.7-31.3c-1.5-2.4-9.5,3.4-10.5-3-.5-1.3-1.6-2.2-1-4,1.5-1.1,1-3.3,2.6-3.9s5.9.1,8.4-.1h0Z"/>
      <path class="st4" d="M374.8,312.9c.1.6-.1,1.4,0,2s-.1,1.4,0,2c-3,.3-6.8-1.1-9,1.5,3.9,5,6,11.1,9,16.5s5.9,10.8,7,11.5c2.6,1.6,4.7,0,7-.5s1.4,0,2,0c0,.6-.1,1.5,0,2-3.1,2.1-6.3,2.3-10,2l-11-20-2,4c-1.2-5.2-2.3-15.7-6-19,2.5-.1,10.2.8,11-2h2Z"/>
      <path class="st4" d="M355.8,364.8c.8,0,3.1-2,5-1,.9,3.3-2.6,1.2-3,2.5-1.1,3.9,1.9,3.3,2,4,.5,2.2-1.7,1.1-2,2.1-1,3.9.7,3.6,4,3.3v-12c9-3.3,8.9,13.6,4.3,14.8s-8.9-.6-9.6-.8c-1.1-.3-.5-1.9-.6-2v-11h0ZM365.8,366.8c-3.9-.7-1.3,6.7-2,9,3.9.7,1.3-6.7,2-9Z"/>
      <path class="st3" d="M349.8,398.7c.6.1,1.5.7,3,1l-9,7.5c-.9,2.5,2.7,1.1,3,1.5.5.6-1.5,4.1,3,3-.3,1.7.4,7.5,0,8l-5-1c-.5-3.8,1.9-8.2-3-9,1.9-5.9-1-3.4-1.1-4.5s1.8-6.2,2.1-6.4c1.4-1.4,5.3-.4,7,0h0Z"/>
      <path class="st4" d="M386.7,366.7c-.2,3.3.3,6.8,0,10s-4.2,3-7,1.4c.4-4.1-1.9-14,4.5-13.4s2.2,1.9,2.5,2.1h0ZM384.7,376.7c-.4-3.1,1.5-8.3-2-10-.1.6-.7,13.4,2,10Z"/>
      <path class="st0" d="M340.8,396.7c1.4.4,2.4-1,2,2-.2.2-2.1,6.1-2.1,6.4,0,1.1,2.9-1.4,1.1,4.5s-.6,1.3-1,2l-2-6-2,4c-5.1-3.9,3.3-8.7,4-13h0Z"/>
      <path class="st4" d="M391.7,313.9v1c-1.8-.6-2.7.5-4,1s-1.8-.6-2,.6c-.9,3.9-.5,11.1-1,15.3-1.6-2.2-2.5-3.7-4-6,2.8.5,1.9-.7,2-3s0-2.7,0-4c1.3-1.1.8-1.6,1-2,2-3.2,3.5-5.2,8-3h0Z"/>
      <path class="st4" d="M354.8,364.8v3l-4-1.5v8.5c3.7.8.3-3.9,4-3v4c-1.1.2-1.9,2-3.4,1.9-3.4-.5-3.4-12-2.1-13.9,1.8-2.8,4.2.7,5.5,1Z"/>
      <path class="st4" d="M378.8,369.7c-2.1,2.8-1.5-5-4-3v10l2-3c5,.1.9,7.4-3.1,4.6s-1.4-11.2-.5-12.6c2.4-3.5,7.6,1.3,5.5,4h.1Z"/>
      <path class="st7" d="M352.8,307.9c.2,0,1.1-.9,2.4-1,5.8-.6,12.6-.4,18.5-.9.2,2.3.6,4.6,1.1,6.9h-2c.4-1.4.2-4.2-1.6-4.9s-15.4.8-18.3.9v-1h0Z"/>
      <path class="st7" d="M371.8,385.7c0,.9-.1,2.2,0,3-1.9.6-1.1,4.6-3.3,3.9-5.3-1.8-2.8-4.1-3.6-6.9,3.9-.7,5.6-.7,8-4,.4,1.5-.9,2.7-1,4h0Z"/>
      <path class="st4" d="M378.8,385.7c2.3,8.1-6,9.2-7,3s0-2.1,0-3c2.4-1.5,5.8,0,7,0Z"/>
      <path class="st4" d="M402.7,313.9l-1,16c-1.6-2.2-1.9-3.3-3-5v-1c1.9-2.4.8-6,1-9s.9-1.1,1-2c.8,0,1.6.9,2,1Z"/>
      <path class="st9" d="M405.7,302.9v3l-1,.5,1,.5v1c.2.9,2.2,3.8,2,4-2.6.1-4.6-1-4,2h-1c-.3,0-1.2-1.1-2-1,.2-2.2-1.1-5.6-.9-5.9s1.8-.4,2.4-1.1c1.7-1.8,2.7-2.3,3.5-3Z"/>
      <path class="st4" d="M390.7,364.8h3c2.9,3.6-4,.7-3,5.5s3.7,1.2,3,3.5c-2.4,0-3.5-.7-3,2-.2.2.5,2.6-1,3,0-.2-1-1.1-1-2-.1-3.3,0-6.7,0-10,.1,0-.2-1.3.2-1.7s1.7-.2,1.8-.3Z"/>
      <path class="st7" d="M391.7,384.7c.8,6.1,1.1,2.8,2,4s0,3.1,1,4c-1-.1-2.3.3-3.3,0s-.7-3.6-2.7-2,1.5,2.6-2,.9c1.8-4.4-1-8.2,5-7h0Z"/>
      <path class="st4" d="M349.8,388.7l-4,.4v-8.8c4.3-1.6,3.9-.9,4,2.4s-.2,5.6,0,6Z"/>
      <path class="st7" d="M358.8,391.7l-2-11,3.5,4,2-4c2.1,1,.5,2.8.5,3-2.4,2.9.6,7.5-4,8Z"/>
      <path class="st7" d="M349.8,382.7h5l-1,9c-.2,0-1.3,2.5-3,2,1.4-7.4,0-3.4-1-5s0-4.7,0-6Z"/>
      <path class="st7" d="M374.8,314.9c2.1.1,2.8,3.8,3,4,.9.7,4.2-2.7,6-2-.2.4.3.9-1,2s-6.7,1.7,0,4c0,2.3.8,3.5-2,3-1.6-2.5-5.2-5.9-6-9s.1-1.4,0-2Z"/>
      <path class="st7" d="M414.7,298.9c3.3,1.2,1.4,1.4,2,2-11.8-5.3-12.2,12.9-1.6,10,10.6-2.9.5-1.5.7-2,.9.2,2,0,3,0,4.2.2,9.7-1.4,12.4-1s3.1,3.1,4.8,2.9c3.4-.5,6-9,11.7-4.8,0,1.8.1,3.4-.2,5.2-.7,3.3-4.9,7.2-2.8,9.7v1c-.2-.2-1.2-.4-1.5-1-2.1-4.5,3.4-9.1,2.5-14-5.3-.7-4.9,5.1-7.5,8-6.2-4.9-6.3-5.9-14.5-4s-2.9-.5-2,1.5,5.6,5.3,7,6.5,4.9,2.1,5,4.4-6.8,13.8-6,14.5c8,1.6,6.4-5.8,10.5-10,5.5,3.4,5.3,6.9,12.5,3,.2.4.6.7,1,1v2c-6.3,3.7-8,3.6-13.5-1-2,1-1.8,3.9-2.5,5s-2,2.6-3,3c-3.1,1.4-6.1.6-9,1s-4.9,2-6.5,2c-3.9,0-6-15.4-6.4-18.9-2,.8-1.8,5.2-2,7s0,2.7,0,4v5h-1c0-.9-1-1.8-1-2-.2-7.9,1.7-16.9,2-25s1.3-3.7-3-6v-5c.2-.2.2-1.8.9-2.5,3.2-2.8,4.2-2.9,8-1.5h0ZM422.7,322.8c-.4-1.8-2.4-9.7-2.9-10.4-1.3-1.9-6.9.5-9.1.4.5,3.4,1.3,6.6,2,10s3.3,17.4,4.1,17.9,8.3-.8,8.9-2.9,0-2.1,0-3v-2c3.7-.2,3.5-3.3,4-6s1-.7,1-1.5c0-2.2-5.2-4.1-6.5-6.5-.8.4-.7,3.2-.5,4h-1Z"/>
      <rect class="st4" x="345.8" y="362.8" width="2" height="14"/>
      <path class="st2" d="M399.7,314.9c-.2,3,.9,6.6-1,9-1.2-1.5-2.1-4.8-3-6,.8-1.7,2-2.9,4-3Z"/>
      <path class="st7" d="M379.8,385.7c.4,0,2.4-1.9,4-1,1,2.3-1.7,2.2-2,3-.4,1.1.3,3.6,0,5-.2-.2-1.8.6-2-.6-.4-1.7.4-4.5,0-6.4Z"/>
      <path class="st6" d="M388.7,366.7c0,3.3-.1,6.7,0,10h-2c.3-3.2-.2-6.7,0-10,.2.1,1.9,0,2,0Z"/>
      <path class="st7" d="M395.7,317.8c.9,1.2,1.8,4.5,3,6v1c-2-3-6.3-6.1-7-10v-1c1.6.8,3,2.6,4,4Z"/>
      <path class="st6" d="M355.8,375.7h-1v-4h1v4Z"/>
      <path class="st6" d="M355.8,367.7h-1v-3h1v3Z"/>
      <path class="st10" d="M373.8,168.1c.4,6.9-.6,13.7-1,20.5s1.1,4-2,3.4c.8-6.3,0-15.5,1-21.5s.6-1.9,2-2.5h0Z"/>
      <path class="st10" d="M381.8,162.2l-2,6c-1,0-2.5,1-3,1-1,0-.8-.3-1-1-1.3-5.6,1.2-6.2,6-6Z"/>
      <path class="st0" d="M370.8,229c.2,2.8.6,6.7-1,9,0,0-.8.1-1-1.5-.2-2.7-1.1-8.6,2-7.5Z"/>
      <path class="st0" d="M370.8,227v-7c1.6,1.9,1.6,5,0,7Z"/>
      <path class="st10" d="M371.8,201.1h-2c.2-2.1.9-4.1,1-5,1.7.9.8,3.5,1,5Z"/>
      <path class="st0" d="M371.8,201.1c.3,1.9,3.2,3.5-2,3v-3h2Z"/>
      <path class="st12" d="M369.8,169.1c-.1.6,0,1.3,0,2-3.2-.6-1.8,1.6-2,3.5-.7,6.7-1.2,12.6-1,19.5s.9,3.5,1,5h-3c-.4,1.2,1,1.9,1,2,.2,1.5-.1,3.4,0,5s0,3.3,0,5c-1.6.7-1.6,4.3,0,5-.3,2-.7,4-1,6s-.9,2.4-1,5,0,1.3,0,2c-4.1-.5-1.1,2.1-1,3s0,2,0,3v1c-4.1-.5-1.8,8.4-4.5,9s-3.2-3.8-3.5-5,.8-4.2-1-5c0-1.3-.1-2.7,0-4,2.7.5,2-.6,2-3,.1-.2,0-4.1,0-5l1-2c.3-.4-.2-3.8,0-5s.9-4.8,1-5,1.4.3,1.9-.2c.9-.8-.8-1.7-.9-1.8v-6c.6-.1,1.3,0,2,0,.5-1.8-.9-1.8-1-2-.3-.7-1-1.9-1-2,0-1.2,1-3.3,1-5v-7c0-1.7,0-.7,0-1,4.3,1.6,3.3-5.3,3-9s-1-1.8-1-2v-2h2v-5l6,1Z"/>
      <path class="st10" d="M387.7,152.2c1-1.6.6-1.3,0-3,3-1,2.9,4.5,4.7,5,3.6,1,3.1-2.4,6.3-3,1.4,5.2,5.6,1.8,8,1s11.9-4.1,8,0-1.9-.3-1.9.4c0,1.1,1.7,3.7.9,5.6l-7,.4-1,3.6h-12l-.9-3.7c-5.1-.2-10.5-1.2-15.5.7l-.5-5c.5-.1.8-.5,1-1h1c3.3.5,6.6,2.8,9-1h-.1Z"/>
      <path class="st0" d="M393.7,162.2h21v6c-11.1-.5-23.7-.3-34.9,0l2-6c4.6.2,7.4,0,12,0h-.1Z"/>
      <path class="st7" d="M364.8,151.2c.3,1.4-.1,6.1,1.1,6.9s5.4-.3,5.9.1.2,7.4,0,8.5c-.4,2-1.9,2.3-2,2.5l-6-1v5h-2c-.1-1.7-.5-3.3-1-5l3-21c.3,1.3.7,2.7,1,4Z"/>
      <path class="st7" d="M362.8,243c-.4,2.4-1.1,5.2-2.1,7.4-3.9,8.4-8.4,3.2-7.9-3.9s1-2.3,1.1-2.4l3.5,6,5.5-7h-.1Z"/>
      <path class="st4" d="M362.8,236v3l-1,1.5,1,.5c0,.6.1,1.4,0,2l-5.5,7-3.5-6v-4h1c.3,1.2,1.7,5.4,3.5,5,2.7-.6.4-9.5,4.5-9Z"/>
      <path class="st7" d="M369.8,171.1c-.7,5.8-.7,13.5-1,19.5s1.1,4-2,3.4c-.1-6.8.4-12.7,1-19.5s-1.2-4,2-3.5h0Z"/>
      <path class="st7" d="M365.8,216c-1.6-.7-1.6-4.3,0-5,0,2,.5,1.4,0,5Z"/>
      <path class="st7" d="M354.8,240h-1c0-1.4-.1-2.8,0-5,1.8.8.7,3.7,1,5Z"/>
      <path class="st7" d="M364.8,222c1.7,1.7,1.9,6-1,5,.1-2.6.7-3.4,1-5Z"/>
      <path class="st7" d="M367.8,201.1c0,2.6,1,5.8-2,5-.1-1.6.2-3.5,0-5h2Z"/>
      <path class="st7" d="M356.8,216h-1c.1-.9-.2-2.2,0-3s.8-1,1-2h1c-.1.2-.8,4.1-1,5Z"/>
      <path class="st7" d="M355.8,228c0,2.4.7,3.5-2,3,.5-5.3,1.4-2.1,2-3Z"/>
      <path class="st4" d="M363.8,229v3h-1c0-.9-3.1-3.5,1-3Z"/>
      <path class="st7" d="M363.8,232c0,.9,3.1,3.5-1,3v-3h1Z"/>
      <path class="st4" d="M367.8,199.1v2h-2c0-.1-1.4-.8-1-2h3Z"/>
      <path class="st7" d="M356.8,221l-1,2c0-.1-1.4-.9-1-2,.6-.1,1.9.2,2,0Z"/>
      <path class="st7" d="M362.8,241l-1-.5,1-1.5c0,.7.2.4,0,2Z"/>
      <path class="st7" d="M377.8,153.2c-.2.5-.5.9-1,1s-.7,0-1,0h-1v-1h3Z"/>
      <path class="st4" d="M358.8,209.1c0,.1,1.7,1,.9,1.8s-1.8,0-1.9.2h-1c.1-.6-.1-1.4,0-2h2Z"/>
      <path class="st7" d="M359.8,201.1c-1,.3-.9,1.2-1,2h-1v-4h1c0,.1.7,1.3,1,2Z"/>
      <path class="st7" d="M358.8,207.1v2h-2c.3-1.7-.9-2.3,2-2Z"/>
      <path class="st4" d="M362.8,177.1c.3,3.6,1.3,10.6-3,9,.2-3.4,0-5.5,1-9h2Z"/>
      <path class="st7" d="M362.8,177.1h-2c.2-.8,0-1.6,1-2,0,.2.9,1,1,2Z"/>
      <path class="st11" d="M420.7,240c.1,1.7.7,5.2,1,7-2.9,1-4.6-8.4-1-7Z"/>
      <path class="st11" d="M420.7,233c-2.6.5-2.7-1.1-1-3,1.3.5,1,1.9,1,3Z"/>
      <path class="st15" d="M421.7,384.7c2.3,3.3,2.2,6,6.3,8.2s6.4,2,10.7.8c-.7,4.3-3.2,2.4-6,3.5-7.3,2.7-17.7,9.5-18-4.5s1-1.5,1-2c3.9,1.1,4.5-3.9,5-7,.3.3.7.6,1,1Z"/>
      <path class="st2" d="M447.6,385.7c-1.7,4-4.8,6.8-9,8-4.3,1.2-6.5,1.4-10.7-.8s-4-4.9-6.3-8.2h1c.4,1.7,2.2,2.1,3,3s1.4,2.5,3.1,3.5,2.1.3,2.9.5c11.3,3.1,16.3-6.9,16-17s-.2-3.6-2-7-3.1-5.8-9-6-1.4,0-2,0v-1c.4,0,1.1-1,2.5-1.1,12.7-.6,14.5,16.7,10.5,26h0Z"/>
      <path class="st9" d="M408.7,331.8c2.7-1.7,1.6-1,2.3,1.2s2,11.1,2.8,11.6,10.6.7,9.8-2.9c2.9-.4,5.9.4,9-1l1,.5c.1,5.7-8,4-12,4.5s-4.5.9-7,1c-6.5.2-3.2-.9-4-6s-.6-3.7-2-5c0-1.3-.1-2.7,0-4h.1Z"/>
      <path class="st2" d="M451.6,333.8s.9.6.8,1.3c-.4,3.8-7.8,6.5-11,5.5s-2.9-3.6-5.7-2.8c.7-1.1.5-4,2.5-5,5.5,4.6,7.1,4.7,13.5,1h0Z"/>
      <path class="st7" d="M415.7,364.8c-.9,3.4-2.4,2.3-3,3.5-1.8,3.9,4.1,1.4,3,4s-4.4-1-3,4.5l4,2-6,1c-1.7-5.1-.9-9.6-1-15h6Z"/>
      <path class="st9" d="M434.7,360.8v1c-1.1.1-1.5.8-2,1-6,2.1-6.7,3.4-9,9s-1.3,3.7-1,8-.3,3.7,0,5h-1c-.3-.4-.7-.7-1-1v-3c.5-4.4-.6-7.8,2-12.2s6.3-6.5,6.7-6.8c1.8-1.1,3.5-.6,5.3-1Z"/>
      <path class="st7" d="M415.7,390.7c0,.5-1,1.5-1,2l-3-2,2-.5c-1.6-1.2-3.3-3.9-1-5.5.9,1.3,3-.3,3,6Z"/>
      <path class="st6" d="M451.6,331.8c-.4-.3-.8-.6-1-1-1.7-3.8-3.8-5.8-6-9v-1c2,2.4,7.8,6.4,7.9,9.5s-1,1.4-1,1.5h.1Z"/>
      <path class="st2" d="M421.7,345.8c.9,2.3-3,2.8-5,3s-2.2.2-2-2c2.5,0,4.6-.7,7-1Z"/>
      <path class="st15" d="M420.7,382.7c0-.1-.2-.5,0-2v2Z"/>
      <path class="st14" d="M416.7,300.9c.1.1,1.4-.2,1.7.3,1,1.6,1,5.8.3,7.7-1,0-2.1.2-3,0,2.7-8.9-9.5-6.7-5.1-1.4s3.3,1.1,5.1,1.4c-.2.5.4,1.7-.7,2-10.6,2.9-10.2-15.3,1.6-10h0Z"/>
      <path class="st7" d="M419.7,169.1c.5-5.9-1.7-5.4-2-8.5s.6-9.1,1-9.4,6.4-.2,7.4,0,2.4,15.1,2.2,16.6-1.5,1.2-1.6,1.4c-2.8-2.4-5.4.1-6,3h-1v-3h0Z"/>
      <path class="st6" d="M421.7,186.1c-.1,1.6.2,3.4,0,5s-1,4.4-1,5c-2.8-2.5-.1-7.7,0-10h1Z"/>
      <path class="st6" d="M420.7,172.1c-.5,2.5.3,6.2,0,9s0,.7,0,1c-3,1.1-2.3-4.9-2-7.6s1-2.2,1-2.4h1Z"/>
      <path class="st6" d="M422.7,198.1c-.1,2,.2,4,0,6s0,2,0,3c-3.1,1.1-2.1-6.1-2-9h2Z"/>
      <path class="st7" d="M421.7,191.1c4.4-.7,1.1,5.2,1,7h-2v-2c0-.7.8-3.1,1-5Z"/>
      <path class="st7" d="M420.7,181.1c4.3-.6,1.1,3.5,1,5h-1v-4c0-1.3,0-.7,0-1Z"/>
      <path class="st7" d="M422.7,204.1c4.3-.6,1.1,3.4,1,5h-1v-5Z"/>
      <path class="st4" d="M426.7,169.1c-.2.8-.2,2.9,1,3-.2,1.3.2,2.7,0,4-.2,1.9.1,4,0,6s-3.2,4.5,1,4c0,1.6.1,3.4,0,5s-3.2,4.5,1,4c0,1.9.1,4.1,0,6s-1.4.9-1,2c.6.1,1.9-.2,2,0s0,4.2,0,5c-.1,1.3-3.2,4.5,1,4v2c-.2,1.9-3.3,6.7,1,6v10c.3,3-1.4,7.9,2,7,0,3.5.2,7.5,0,11l-6-1v-2c-.2-2.1-.3-12-1-13s-1.4,0-2,0v-2c0-1.7,3.4-7.7-1-7v-3c.1-1.8,3.4-7.7-1-7v-4c0-1.3,3.3-5.6-1-5,.2-2-.1-4,0-6s3.4-7.7-1-7c.2-1.6-.1-3.3,0-5s3.3-5.6-1-5c.3-2.8-.5-6.5,0-9s3.2-5.4,6-3Z"/>
      <path class="st7" d="M425.7,232c.6,0,1.8-.2,2,0,.7,1,.8,10.8,1,13-.4-.1-1.9.2-2,0-.4-.5-1-11.3-1-13Z"/>
      <path class="st7" d="M434.7,248c-.2,2.1.5,4.8-2.5,5-2.6-2-3.1-2.9-3.5-6l6,1Z"/>
      <path class="st7" d="M424.7,223c4.4-.8,1.1,5.3,1,7-1.6-1.3-1.1-4.9-1-7Z"/>
      <path class="st7" d="M432.7,230c3.2-.9,1.9,4.1,2,7-3.4.9-1.7-4-2-7Z"/>
      <path class="st7" d="M423.7,213.1c4.4-.7,1.1,5.2,1,7-1.6-1.3-1.1-4.9-1-7Z"/>
      <path class="st7" d="M432.7,220c-4.3.7-1.2-4.1-1-6,1.6,1,1.1,4.2,1,6Z"/>
      <path class="st7" d="M428.7,186.1c-4.2.5-1.1-2.8-1-4,1.5.7,1,2.7,1,4Z"/>
      <path class="st7" d="M431.7,212.1c-4.2.5-1.1-2.7-1-4,1.4.6,1.1,2.7,1,4Z"/>
      <path class="st7" d="M429.7,195.1c-4.2.5-1.1-2.8-1-4,1.5.7,1,2.7,1,4Z"/>
      <path class="st7" d="M432.7,227v-4c1.5.3,1.6,3.6,0,4Z"/>
      <path class="st7" d="M430.7,203.1c-.1-.2-1.4.1-2,0-.4-1,1-1.9,1-2l1,2Z"/>
      <path class="st6" d="M362.8,472.5l2.5-4c1.6,4.6,1.2,0,2,0s5.2.9,5.4,1.1-2,3.1.5,4,0-3.1,3.9-2,0,2.5,1.6,2l2-3,1,10c-4.7-1.5-12-.7-16.2-2s-1.2-2.3-2.2-3l-1.5,4c-.9-3.5-2.4-8.1.5-11l.5,4h0Z"/>
      <path class="st6" d="M400.7,473.5l1,5v1c-5,6.8-13.1-1.3-10-6s2.4.9,2-2c3.8-.2,4.6,1.5,7,2ZM398.7,473.5h-4l1,5c3.2.8,1.5-3.2,3-5Z"/>
      <path class="st6" d="M355.8,467.5c0,2.2.1,4.3,0,6.5s.9,3.9-1.5,3.5c-2.8-2.5-1.2-6.8-1.5-10h3Z"/>
      <path class="st6" d="M347.8,475.5s-1.7.5-2-.7c-.5-2.1-.5-8.7,2-9.3-1.7,3.5,1.9,5.5,2,6-3-.6-1.9,1.5-2,4Z"/>
      <path class="st6" d="M358.8,467.6c.9,3-.7,6.2-.9,8.6s3.8.7,1.9,2.4c-4.1,3.7-1.7-10.2-3-10.5l2-.5Z"/>
      <path class="st2" d="M400.7,447.6c0,4,1.7,6-1,9.5l4-.5c-.8,4.9.6,11.8,0,17-.9,0-2.2.2-3,0-2.4-.5-3.2-2.2-7-2,.4,2.8-1.9,1.8-2,2-.4-.2-.7-.9-1-1,.9-.5,1.9-.9,3-1-.6-4-.6-11.2,0-15.4s3.5-4.3,3.9-7.5c-2.5,2.2-5.7-1.2-6-1s.2,1.1-.4,1.6c-1.6,1.5-3.1,1.8-4.5,4s-1.9,7.1-2.2,7.3c-2.6,2.1-9.3-8.7-1-5l1-11c2.3-.5,3.6,1.6,5.5,2,2.9.5,7.3.7,10.4,1h.3Z"/>
      <path class="st15" d="M402.7,479.5h-1v-1h1v1Z"/>
      <path class="st6" d="M340.8,463.5c.7.6-1.3,8.5,1.5,10,.7-3.1,1.9-6.5-.5-9h3c-.4,5.5,2.3,11-5.3,9.7s-2-6.7-2.7-10.7c1,.2,3.7-.2,4,0Z"/>
      <path class="st6" d="M349.8,457.6c-.4,1.5,1.3,4.2-1.4,3.9s-8-2.2-11.6-2.9c.3-1.3-1.2-4.4,1.4-3.9s7.8,3.2,11.6,2.9Z"/>
      <path class="st2" d="M446.6,403.7c4.7.7,3.9,3.3,5,6h-1c-.6-1.3-1.2-1.3-2-2s-.6-1.8-1.6-1.9-2.3,1.4-3.4,1.9c-7.4,3.8-13,15-11.9,23.4s1.5,3.3,1.9,4.6c.7,2.2,1,4.8,2,7-5.8-.6-3.7-8-5.9-11.5s-3.9-2.3-4.6-3.4c-1.5-2.7,1-8.5-5.5-8,1-1.9,1.9-3,3-5,6.8-12.5-5.6-1.1-8,2.4s-1.6,4.1,2,3.5c-.2.7.2,2.1,0,3s-1.4.8-1,2h3c1.2,3.6,3.1,13.9,4.9,16.4s4.9-1.1,4.1,2.6c-3.7-1.3-14.7.7-16.7-1.2s0-5.3-.4-7-2.1-1.9-2.6-3.3.5-6.5-.3-7.3l-4,1c-.4-2,1.8-3.4,0-4,.1-.2-.2-1.1.3-1.7.8-1,9-5.6,6.7-8.3s-7.3,6.5-8.5,7c-1.5,3.9,0,2.5,1.5,3-2.2,3.3-1.8,6.5-7,6,1.1-5-1.6-8.3-2-13-4.2.8-5.9,3.5-11,3,.5-3.5,1.5-1.2,2.7-2.3,2.2-2,5.8-7,5.3-10.2-3.4-2.2-3.6,2.2-5,4.5-2.2.7-8.4.9-9,3.5s3.8,2.3,4,2.5c.3.4-.7,4.7,2,5,0,2.1-.2,4.4,0,6.4s4.6,8.7.5,9.5c-1.8-1.3-1.9-4.2-3.6-5.4s-4.5-1.1-4.8-1.7c-1.4-2.2,1.5-11.4-.1-14.8l-6,2c.4-3.2,4.2-2.7,5.7-4.3s.6-2.5,1.3-3.2c1.8-2,4.8-2.5,5-5.5,2.5.1,6.2-1.3,10-1,8.3.7,14.2,1,22.5,1s11.5-1.8,16.1-2,3.9,1.8,6,2c3,.3,6.6-1.6,10.4-1v-.2ZM427.7,424.6c2.3,2.6,4.3-7.9,4-9-1.9.3-4.3,8.6-4,9Z"/>
      <path class="st2" d="M379.8,403.7c.2,3-4,2.4-6.5,4s-7.2,5.8-7.5,6.5l4,6.5c.7,4.7,3.8,10.9,4.9,15.5s-3,0-3.9-.1c-2.6-.6-5.4-.4-7.9-1.6-.6-2.6-1.7-13.4-2.6-14.9-2.2-3.6-2.8,2.9-4.5,1s3.1-4.8-1-4c.3,2.3-.5,5.1,0,7.3s4.2,5.7,4.9,10.3-3.5-.1-4.4-.6c-2-.9-1.1,3.8-3.5,1.5s-3.6-13.9-4.1-14.4c-.9-.9-2.4,1.6-2.8-2.1l5,1c.4-.4-.3-6.3,0-8s2.2-5.4,3-7,2-2.3,2-4c8.4,1.4,16.7,1.7,25,3h0ZM362.3,404.7v1c.6-.3.6-.7,0-1ZM356.8,413.7c.3-.3,4.3-7.7,4-8-7.2-.9-8.9,13.5-4,8-.2.2.2,1,.5,1,1.1,0,0-1.5-.5-1Z"/>
      <path class="st2" d="M436.6,447.6c3.9,4.7,4.4,10.1,4,16-2,.2-10.4.8-10.8,1.1-2.3,1.4-.2,6.1-.1,6.8s0,.7,0,1c.1.9.3,4-.5,4-1.2-.5,0-3.5-.5-4s-5.1-1-4,2c0,0-1.8.4-2.1-.6-.3-1.5,1.5-5,1.1-5.3s-2.7.3-3,0,2.7-7.1-3-8.5c3.3-3.9,11-1.4,13.8-6.2s-1.4-3.9,5.2-6.3h-.1Z"/>
      <path class="st1" d="M441.6,421.6c.3,1.2,2.7,3.7,2,6l4-3c-.5,1.4,0,3.6-1.1,6.4-1.8,4.4-6.8,9-8.9,13.6-.6-1.1-1.9-1.9-2-2-1-2.2-1.3-4.7-2-7,3.7-4.1,3.3-10.7,8-14Z"/>
      <path class="st2" d="M374.8,441.6l-1,8c2.3-.2,1.7-3.6,2-4,.7-.7,2.2-.5,2,1.5s-3.6,5.9-4.9,8.1-.3,3.1-2.1,1.4-.8-4.9-1.3-6.2c-1.3-3.6-3.9-3.7-1.7-9.7l7,1h0Z"/>
      <path class="st2" d="M339.8,435.6c2.7-1.6-1.2-7.8,3-7,.3,1.3-.4,5.5,0,6s1.9-.7,3-.4c7.4,2,7.3,5.1,5,12.4-3.8-3.5-7.6-7.1-11-11Z"/>
      <path class="st2" d="M363.6,440.8c.5.8.3,6.7.2,8.3-.5,6.2-2.8,0-4.3-1.2s-3.3-.5-4.2-2.3-.3-4.9-.5-7c.8-.8,8.2,1.2,8.8,2.2Z"/>
      <path class="st15" d="M381.8,404.7c-.2,2.9-3.2,3.5-5,5.5s-.6,2.4-1.3,3.2c-1.5,1.6-5.2,1.1-5.7,4.3s-.1,2.2,0,3l-4-6.5c.3-.7,6.4-5.8,7.5-6.5,2.5-1.6,6.7-1,6.5-4,1,.2,1.9,1,2,1Z"/>
      <path class="st15" d="M386.7,410.7c1.4-2.3,1.6-6.7,5-4.5.4,3.2-3.1,8.2-5.3,10.2s-2.2-1.3-2.7,2.3,0,2,0,3c-2.7-.3-1.7-4.6-2-5,.6-2.4,3.8-3.1,4.7-4.3s.1-1.5.3-1.7Z"/>
      <path class="st6" d="M419.7,454.6c-1,3.4-4.6,6.1-6,9l-4,1c0-1,.7-5.2,1-6,2.8,0,3.6-3,5.7-3.8s2.8,0,3.3-.2Z"/>
      <path class="st11" d="M410.7,458.6c1.1-3.6,4.8-7.2,8.6-7.9,3.8-.7,4-.9,3.4,1.9-1,.6-1.6,1.3-3,2s-2.1-.2-3.3.2c-2.2.8-3,3.8-5.7,3.8Z"/>
      <path class="st5" d="M405.7,447.6c-.1,2.9-5.9,9.9-1,7-.2.4-1,1.9-1,2l-4,.5c2.7-3.5,1-5.5,1-9.5,1.6.2,3.4-.1,5,0Z"/>
      <path class="st3" d="M451.6,409.7c1.1,2.7,2.8,2.5,1.8,7.3s-5.3,15.6-6,17c-1.1,2.1-3,2.1-3.5,3-.8,1.2-1.5,6.3-2.3,7.7s-2.1,2.6-3,3c-.7-.8-.6-2.3-1-3,2.1-4.6,7.1-9.2,8.9-13.6s.6-5,1.1-6.4.7-1.8,1-3,.9-.5,1-1c.4-1.7.7-3.3,1-5s1.5-2.5,0-6h1Z"/>
      <path class="st6" d="M411.7,448.6c-2.5,1.1-3.3,2.1-5,4s-1.7,1.4-2,2c-4.9,2.9.9-4.1,1-7,2.2.2,4.3.9,6,1Z"/>
      <path class="st6" d="M422.7,414.7c-1.1,2-2,3.1-3,5s-.7,3-2,4h-1c.2-.9-.2-2.3,0-3,.9-2.7,2.5-6.6,6-6Z"/>
      <path class="st11" d="M417.7,423.6c1.2.2.8,1.3,1,2h-3c-.4-1.2,1-1.9,1-2h1Z"/>
      <path class="st11" d="M412.7,466.5c-2.7,0-3.2.8-3-2l4-1c-.5,1-.9,1.9-1,3Z"/>
      <path class="st9" d="M406.7,452.6c1.7.9,2.2,1.3,2,3.4-.3,5.9-2.2,11.1-2,17.6h-3c.6-5.2-.8-12.1,0-17s.8-1.6,1-2,1.4-1.4,2-2Z"/>
      <path class="st0" d="M403.7,473.5h3v1h-4v4h-1l-1-5c.8.2,2.1,0,3,0Z"/>
      <path class="st0" d="M407.7,478.5v-1c0,.2,1,.4,0,1Z"/>
      <path class="st14" d="M398.7,135.2c.3,2.9-.1,6,0,9s0,1.3,0,2c-3.2,13.1-10.2-3.1-12-1v7c-6.2,1.3-6.5-3.2-9-7l-1-7c4.5.6,3.3,4.6,6.5,7l2.5-9c4.9-.4,5,4.6,6.5,5,2.6.6,2.6-3.5,2.5-5h1l3-1Z"/>
      <path class="st14" d="M409.7,146.2c.2.7.3,2.6-.5,3-6.7,1.9-7.6-9.2-8.5-14,5.1-.9,5.3.7,7,5s1.7,4.8,2,6Z"/>
      <path class="st0" d="M423.7,133.2c1.9,1.8-3.6,6.1-4.3,7.2s-.3,2.8-.7,3.7-1.9,1.8-2,3c-6.6,2.4-4.2-.4-5-1,3.5-1.3,1.9-5.7,2-6s3-1.8,2-4c.8.4,1.4,1.1,2.4,1,1.5-.5,2.2-3.8,2.6-3.9s2.9,0,3,0Z"/>
      <path class="st9" d="M398.7,144.2c4.5,0,1.5,8.4,8,8-2.4.8-6.5,4.2-8-1s0-3.5,0-5v-2Z"/>
      <path class="st2" d="M404.7,129.2v1c.5,4.3-2.5,4.3-6,4-.2-.9-1.1-1.7-2-2,2.6-5.2,3.8-2.5,8-3Z"/>
      <path class="st14" d="M415.7,136.2c1,2.2-1.9,3.8-2,4l-6-4.5c3-3.5,5.3-.9,8,.5Z"/>
      <path class="st5" d="M407.7,140.2l.5-2c.6,1.7,4.2,1.8,4.4,2.1,1,1.1-1.2,4.3-.9,5.9-.2-.2-1.4,0-2,0-.3-1.1-1.5-4.7-2-6Z"/>
      <path class="st4" d="M418.7,144.2c1,1.1,2.3,2.3,3.7,2.8,1.4.5,5.1-.6,5.2,1.2-2.5,2.2-10.4,2.5-9-2-.2-.3-1.4.8-2,1,0-1.2,1.8-2.4,2-3h0Z"/>
      <path class="st0" d="M398.7,134.2v1l-3,1c-.5-1.9.3-2.6,1-4,.9.3,1.8,1.1,2,2Z"/>
      <path class="st3" d="M406.7,128.2c0,.8-1,1.7-1,2h-1v-1c.3,0,1.1-.9,2-1Z"/>
      <path class="st5" d="M392.7,121.2c.2,0,.5,1.6,3,2,6.9,1.1,15.4-1.4,22.4,1l-.4,4c-3.6,0-7.4-.2-11,0s-1.7,1-2,1c-4.1.4-5.4-2.2-8,3s-1.5,2.1-1,4h-1c0-1.3-1.2-2.9-1-4.3s1.8-1.2,2-1.7.3-2.1-.6-2h-22.4v-4h2c1.8,0,10.6.4,11,0s-.1-2.3,0-3c2,0,5.5-.4,7,0Z"/>
      <path class="st3" d="M417.7,121.2c2.3,0,6.3,1.1,10,1,0,3.5,5,2.1,2,6h-2c-3.3-.2-6.7,0-10,0l.4-4c-7-2.4-15.5,0-22.4-1-.6-3,1.5-1.9,3.4-2,6.1-.2,12.4,0,18.5,0h.1Z"/>
      <path class="st10" d="M423.7,133.2c-.1,0-2.7,0-3,0,1.5-.6.9-1.8,3,0Z"/>
      <path class="st4" d="M395.7,364.8c1.4.2,2.8,1,4.5,1,2.5,0,5.9-2.2,8.5-.5.4,2.6-3.8,2.1-4,3-.9,4.1,2.6,1.6,3,3,.6,2.2-1.9,1.5-2.5,2.4-3.4,5.1,4.1.9,3.5,5l-6,1-1-13c-3.1-1.4-5.3,3.4-4,5s4-.8,3,1.5-4.9-.5-3,6.5c-3.2.9-1.9-3.9-2-6-.1-3,0-6,0-9h0Z"/>
      <path class="st4" d="M392.7,332.8c1.3.8,4.3,9.5,6.9,10.4s8.4-.6,7-4.4c0,.2.9,1.1,1,2,.3,4.6-.9,5-5,6s-2.8,0-4,0c-4.3-1-4.7-5.2-7-8s-1-1-2-1c.1-1.2,0-4.3,1-5s1.9,0,2,0h.1Z"/>
      <path class="st9" d="M370.8,339.8c0-1-.6-3.3,1-3,.4,3.1,6.7,13.4,9,14s7.3-1,6,1.5-5.4,2.7-7.2,2.4c-4.3-.8-4.4-5.5-7.7-5.8.1-.6,0-1.4,0-2,0-2.5-.8-4.6-1-7h-.1Z"/>
      <path class="st7" d="M397.7,385.7h12v7c-3.9,1.3-.9-6-2.5-6l-.5,6c-2.8-1.1-5.2-.1-8,0-1.5-2.2-.8-4.6-1-7Z"/>
      <path class="st9" d="M398.7,346.8c1.2,0,3.1.2,4,0,5.4,2.7-1.8,4.8-4.6,4.9s-6.6-1.3-7.4-3.9,0-1.4,0-2c0-1.2-.1-2.8,0-4,3.2,0,3.6,4.2,6.1,5.6s1.8-.6,1.9-.6Z"/>
      <path class="st10" d="M393.7,388.7c-.1-4.1-1.1-6.9,4-7,0,1.3-.1,2.7,0,4,.2,2.3-.5,4.8,1,7-1.6,0-1.5.3-4,0-1-.9-.7-3.6-1-4Z"/>
      <path class="st1" d="M395.7,364.8c0,3-.1,6,0,9-.6.1-1.8-.2-2,0s.2,1.8,0,2c-.3.3-2.7-.3-3,0-.5-2.7.6-2,3-2,.7-2.3-2.9-2.8-3-3.5-1-4.8,5.9-1.9,3-5.5h2Z"/>
      <path class="st2" d="M410.7,340.8h-2v-5c1.4,1.3,1.7,3.2,2,5Z"/>
      <path class="st10" d="M380.8,349.8v1c-2.3-.6-8.6-10.9-9-14-1.6-.3-1.1,2-1,3-2.6.9-2.4-3.4-3-6l2-4,11,20Z"/>
      <path class="st3" d="M385.7,121.2c-.1.7.2,2.8,0,3-.4.4-9.1,0-11,0v-3c3.6,0,7.4-.2,11,0Z"/>
      <path class="st7" d="M376.8,136.2c.6,0,1.6-.2,2,0s2.1,2.7,3.5,3,.2-2.7,3.5-3l-2.5,9c-3.2-2.4-2-6.3-6.5-7s-2,0-3,0c-.4,3,2.8,5.1,4,7,2.5,3.8,2.8,8.3,9,7h1c-2.3,3.8-5.7,1.5-9,1l-3-8c-2.1.2,0,3.9,0,5.4s-.9,1.3-1,1.6c-.2-3.1-1.1-7-2-10s-.6-3.8-3-5h2c.6,0,.7-1,1-1,1.1,0,2.9,0,4,0Z"/>
      <path class="st15" d="M375.8,128.2h19.4c.9,0,.7,1.6.6,2-5.5-.2-11,.2-16.5,0s-4,1-3.4-2h-.1Z"/>
      <path class="st10" d="M362.8,134.2s.2-.8,1-1l-1,1Z"/>
      <path class="st10" d="M372.8,142.2c.9,3,1.8,6.9,2,10v2h-1c-1.9-2-1.7-6.1-5-6-.5-2.2-.5-4.9-1-7l5,1Z"/>
      <path class="st14" d="M360.8,135.2c4.6,0,9.1-1.3,13.6-1.9s2.4.2,2.4,2.9c-1.1,0-2.8,0-4,0l-1,1h-2c-1.5.2-2.8,1-3,1h-3c-3.1,0-3.3.8-3-3Z"/>
      <path class="st0" d="M369.8,137.2c2.4,1.2,2.3,2.8,3,5l-5-1c-.1-.6-1.5-1.7-1-3,.2,0,1.5-.8,3-1Z"/>
      <path class="st6" d="M373.8,154.2c-1,0-3.6.3-3.9,0s-.8-4.6-1.1-5.9c3.3-.2,3,3.9,5,6h0Z"/>
      <path class="st0" d="M364.8,138.2h-1,1Z"/>
      <path class="st13" d="M354.8,400.7c0,1.7-1.4,2.7-2,4l-6,4c-.3-.3-3.9,1-3-1.5l9-7.5c.6.1,1.4.9,2,1Z"/>
      <path class="st10" d="M342.8,315.8c1,6.4,9,.6,10.5,3l6.7,31.3c.6,2.1,2.3,1.5,3.8,1.7.7,3.6-4.5,2.2-4.8.3l-6.6-31.3c-1.5-2.1-6.5,0-8.6-1.4s-.6-2.8-.9-3.5h0Z"/>
      <path class="st8" d="M372.8,312.9c-4.6,0-8.5,1-13,1-.4,1.8,1.6.6,2,1,3.7,3.2,4.8,13.8,6,19s.4,6.9,3,6c.2,2.4.9,4.4,1,7l-9,1c-.8-5.1-5.4-32.5-8.5-33.9-2.2-.6-1.3,1.9-1.5,2-.3.2-6.3.2-6.8-.1s-1.2-4.2-1.2-5.3c0-2.7,5.8-1.5,8-1.5s17.4-1.2,18.3-.9c1.8.6,2,3.4,1.6,4.9v-.2Z"/>
      <path class="st14" d="M352.8,315.8c.2-.1-.7-2.6,1.5-2,3.1,1.4,7.7,28.8,8.5,33.9l9-1c0,.6.1,1.4,0,2-2.8-.3-8.6,1.4-9.5,0-3-9.8-4-20.3-6.8-30.2s-.2-3.2-2.7-2.8h0Z"/>
      <path class="st8" d="M408.7,313.9c-.3,8.1-2.2,17-2,25,1.4,3.9-5.1,5.2-7,4.4s-5.6-9.6-6.9-10.4l-.5-1-1.5,1c-1,.6-.9,3.8-1,5-.2,2.3.8,5.1-1,7-2.2.8-4.4,1.4-6.4,0s-3.7-9.2-7.6-9.9c-3-5.4-5.1-11.5-9-16.5,2.1-2.6,6-1.2,9-1.5.8,3,4.4,6.5,6,9s2.4,3.7,4,6-.8,2.4,1,2l2-18c1.3-.5,2.2-1.6,4-1,.7,3.9,5,7,7,10s1.4,2.8,3,5-.8,2.4,1,2l2-18h4-.1Z"/>
      <path class="st14" d="M372.8,312.9c-.8,2.8-8.5,1.9-11,2-.4-.3-2.4.8-2-1,4.5,0,8.4-1.1,13-1Z"/>
      <path class="st14" d="M374.8,334.8c3.8.7,4.8,7.9,7.6,9.9s4.3.8,6.4,0v1c-2.2.5-4.4,2.1-7,.5s-5.9-9.5-7-11.5h0Z"/>
      <path class="st7" d="M391.7,338.8c0,1-.9,2.3-1,3-.1,1.1,0,2.8,0,4-.6,0-1.4-.1-2,0v-1c1.8-1.9.8-4.7,1-7,1,0,1.4.3,2,1Z"/>
      <path class="st1" d="M354.8,371.7c-3.7-.9-.3,3.8-4,3v-8.5l4,1.5h1v4h-1Z"/>
      <path class="st10" d="M365.8,366.8c-.7,2.3,1.9,9.7-2,9,.7-2.3-1.9-9.7,2-9Z"/>
      <path class="st6" d="M352.8,404.7c-.8,1.6-2.8,5.7-3,7-4.5,1.1-2.5-2.4-3-3l6-4Z"/>
      <path class="st10" d="M384.7,376.7c-2.6,3.5-2.1-9.3-2-10,3.5,1.7,1.6,6.9,2,10Z"/>
      <path class="st14" d="M387.7,315.8l-2,18c-1.8.4-.6-1.5-1-2,.5-4.3,0-11.5,1-15.3s1.6-.4,2-.6h0Z"/>
      <path class="st1" d="M382.8,318.8v4c-6.7-2.3-1.5-2.7,0-4Z"/>
      <path class="st14" d="M404.7,313.9l-2,18c-1.8.4-.6-1.5-1-2l1-16h2Z"/>
      <path class="st6" d="M408.7,313.9h-4c-1.3,0-.7,0-1,0-.6-3,1.4-1.9,4-2,.2-.2-1.8-3.1-2-4,4.3,2.3,3.1,2.7,3,6Z"/>
      <path class="st1" d="M405.7,306.9l-1-.5,1-.5v1Z"/>
      <path class="st4" d="M359.8,201.1c0,.2,1.5.2,1,2-.6,0-1.4-.1-2,0,0-.8,0-1.7,1-2Z"/>
      <path class="st6" d="M398.7,146.2c0,1.5-.3,3.8,0,5-3.2.6-2.6,4-6.3,3s-1.7-6-4.7-5c.6,1.7,1,1.4,0,3h-1v-7c1.8-2.1,8.7,14,12,1Z"/>
      <path class="st6" d="M374.8,152.2c0-.3,1-.7,1-1.6,0-1.5-2.1-5.2,0-5.4l3,8h-4v-1h0Z"/>
      <path class="st14" d="M423.7,310.9c8.1-1.9,8.2-.9,14.5,4,2.6-2.9,2.2-8.6,7.5-8,.9,4.9-4.6,9.4-2.5,14s1.3.8,1.5,1c2.2,3.2,4.3,5.2,6,9-7.2,3.9-6.9.4-12.5-3-4.1,4.2-2.5,11.5-10.5,10-.9-.8,6.1-11.6,6-14.5s-3.4-3.1-5-4.4c0-4.1-5.9-3.5-5-8h0Z"/>
      <path class="st14" d="M412.7,322.8c-.7-3.3-1.5-6.6-2-10,2.1,0,7.8-2.3,9.1-.4s2.5,8.6,2.9,10.4c.9,3.7.7,8.6,3,12,0,.9.2,2.3,0,3-1.6,0-7.1,1.8-8,1s-2.2-10.6-2.7-12.8.6-3.8-2.3-3.2Z"/>
      <path class="st2" d="M412.7,322.8c2.9-.6,1.8,1.4,2.3,3.2s2.3,12.3,2.7,12.8c.8.8,6.3-1,8-1-.6,2.1-7.9,3.6-8.9,2.9s-3.6-15.5-4.1-17.9Z"/>
      <path class="st9" d="M429.7,326.8c-2.1,1.3-1.1,4.7-4,4v-2c1.7-1.2.3-1.4,0-2-.5-1.2-1.8-3-2-4s-.3-3.6.5-4c1.3,2.4,6.5,4.2,6.5,6.5s-1,1.3-1,1.5Z"/>
      <path class="st5" d="M423.7,341.8c.8,3.5-9.1,3.3-9.8,2.9s-2.3-9.7-2.8-11.6.4-2.9-2.3-1.2c.2-1.8,0-6.2,2-7,.4,3.6,2.6,18.9,6.4,18.9s4.4-1.7,6.5-2h0Z"/>
      <path class="st6" d="M425.7,326.8v8c-2.3-3.4-2.1-8.3-3-12h1c.2,1,1.5,2.8,2,4Z"/>
      <path class="st11" d="M425.7,332.8v-2c2.9.7,1.9-2.7,4-4-.5,2.6-.3,5.8-4,6Z"/>
      <path class="st2" d="M423.7,310.9c-.9,4.4,4.9,3.9,5,8-1.4-1.2-6.6-5.5-7-6.5-.9-2,1.2-1.3,2-1.5Z"/>
      <path class="st15" d="M447.6,374.7c.3,10.1-4.7,20.1-16,17-.5-3.2,1.1-1.5,3-2,5.3-1.3,4.1-11,7-13s4.8-1.1,6-2Z"/>
      <path class="st6" d="M430.7,379.7c.4.8.6,1.9,1,3l-6,5c-.8-.9-2.6-1.3-3-3s.1-3.5,0-5c2.8-1.3,5.2-.5,8,0Z"/>
      <path class="st6" d="M445.6,367.7h-1c-5-.7-4.7,1.5-6,5s-.7,1-1,2h-4c-.3-1-.7-2.2-1-3-.4-1.6.2-2,1-3,1.5,7.3,9.3-.5,2-2,0-.3-.8-3.1,1-5,5.9.2,6.6,1.4,9,6Z"/>
      <path class="st10" d="M447.6,374.7c-1.2.9-5.4,1.6-6,2,.5-3.6-1.3-.8-4-1v-1c.3-1,.8-1.5,1-2l.5.9c3.7-.8,4.6-2.4,5.5-5.8h1c1.8,3.4,1.9,2.6,2,7h0Z"/>
      <path class="st10" d="M434.7,389.7c-1.9.5-3.5-1.2-3,2-.8-.2-1.9,0-2.9-.5-1.6-1-2-2.3-3.1-3.5l6-5c.8,1.8,3.7,3.9,3,7Z"/>
      <path class="st10" d="M434.7,361.8h2c-1.8,1.9-.9,4.7-1,5-.4,1.5-1.6,1.5-2,2-.8,1-1.3,1.4-1,3-.7-1.6-1.1-3.6-3-3,.6-.7,2.5-4.7,3-6,.5-.2.9-.8,2-1Z"/>
      <path class="st10" d="M426.7,371.7c3.1,1.4,2.9,5.5,4,8-2.8-.5-5.2-1.3-8,0-.3-4.3-1-3.1,1-8,.8.2,2.4-.3,3,0Z"/>
      <path class="st15" d="M432.7,362.8c-.5,1.3-2.4,5.3-3,6-1.1,1.3-3.7.5-3,3-.6-.3-2.1.2-3,0,2.2-5.6,3-6.9,9-9Z"/>
      <path class="st9" d="M415.7,308.9c-1.8-.3-3.5.5-5.1-1.4-4.4-5.3,7.8-7.5,5.1,1.4Z"/>
      <path class="st0" d="M398.7,473.5c-1.5,1.8.2,5.7-3,5l-1-5h4Z"/>
      <path class="st13" d="M443.6,407.7v7c0,1-.1,2.1,0,3-.9.7-1.8,1.9-2,3s0,.7,0,1c-4.7,3.2-4.3,9.9-8,14-.4-1.3-1.6-2.2-1.9-4.6-1.1-8.4,4.5-19.6,11.9-23.4Z"/>
      <path class="st11" d="M416.7,420.6c-3.6.6-4-.8-2-3.5s14.8-15,8-2.4c-3.5-.7-5.1,3.3-6,6h0Z"/>
      <path class="st10" d="M450.6,409.7c1.5,3.5.3,3.8,0,6-2.3-2.2-4.2-2.2-7-1v-2c2.5-1.3,4-2.3,5-5,.8.7,1.4.7,2,2Z"/>
      <path class="st3" d="M403.7,422.6c-1.6-.5-3,.9-1.5-3,1.2-.5,7.6-8,8.5-7,2.3,2.6-5.9,7.3-6.7,8.3s-.1,1.5-.3,1.7Z"/>
      <path class="st3" d="M386.7,410.7c-.1.2.2,1.1-.3,1.7-.9,1.2-4.2,1.9-4.7,4.3-.2-.2-4.5.2-4-2.5s6.8-2.8,9-3.5Z"/>
      <path class="st0" d="M448.6,407.7c-1,2.7-2.5,3.7-5,5v-5c1.1-.5,2.1-2.1,3.4-1.9s1.2,1.6,1.6,1.9Z"/>
      <path class="st5" d="M427.7,424.6c-.3-.4,2.1-8.7,4-9,.3,1.1-1.7,11.6-4,9Z"/>
      <path class="st6" d="M356.8,413.7c-4.9,5.5-3.2-8.9,4-8,.3.3-3.7,7.6-4,8Z"/>
      <path class="st9" d="M356.8,413.7c.5-.5,1.6.9.5,1s-.7-.8-.5-1Z"/>
      <path class="st6" d="M362.3,404.7c.6.3.6.7,0,1v-1Z"/>
      <path class="st6" d="M450.6,415.7c-.3,1.7-.6,3.3-1,5l-1,1c-.3,1.2-.6,1.9-1,3l-4,3c.7-2.3-1.8-4.8-2-6s0-.7,0-1c5.2.5,2.3-1.2,2-3s0-2,0-3c2.8-1.2,4.7-1.2,7,1Z"/>
      <path class="st1" d="M448.6,421.6l1-1c-.1.5-1,.8-1,1Z"/>
      <path class="st8" d="M376.8,138.2l1,7c-1.2-1.9-4.4-4-4-7,1,0,2,0,3,0Z"/>
      <path class="st0" d="M398.7,346.8c-.1,0-.6,1.3-1.9.6-2.5-1.4-2.9-5.6-6.1-5.6,0-.7,1.1-2,1-3,2.3,2.8,2.7,7,7,8Z"/>
      <path class="st7" d="M392.7,332.8h-2l1.5-1,.5,1Z"/>
      <path class="st0" d="M371.8,137.2l1-1c-.3,0-.7,1-1,1Z"/>
      <path class="st11" d="M425.7,328.8v-2c.3.6,1.7.8,0,2Z"/>
      <path class="st2" d="M429.7,368.7c1.9-.6,2.3,1.4,3,3s.7,2,1,3c1.6,4.6,1.3,9,4,1,2.7.2,4.5-2.6,4,1-2.9,1.9-1.7,11.7-7,13,.7-3.1-2.2-5.2-3-7s-.6-2.2-1-3c-1.1-2.5-.9-6.6-4-8-.7-2.5,1.9-1.7,3-3Z"/>
      <path class="st2" d="M444.6,367.7c-.9,3.4-1.9,5.1-5.5,5.8l-.5-.9c1.3-3.5,1-5.6,6-5h0Z"/>
      <path class="st0" d="M433.7,368.7c.4-.5,1.6-.5,2-2,7.3,1.5-.5,9.3-2,2Z"/>
      <path class="st15" d="M437.6,374.7v1c-2.6,8-2.4,3.6-4-1h4Z"/>
      <path class="st10" d="M443.6,417.6c.3,1.8,3.3,3.5-2,3,.2-1.1,1.1-2.3,2-3Z"/>
    </g>
  </g>
</svg>