<?xml version="1.0" encoding="UTF-8"?>
<svg xmlns="http://www.w3.org/2000/svg" version="1.1" viewBox="0 0 841.89 595.28">
  <!-- Generator: Adobe Illustrator 28.6.0, SVG Export Plug-In . SVG Version: 1.2.0 Build 709)  -->
  <g>
    <g id="Layer_1">
      <g>
        <path d="M455.34,442.77c-13.48,7.78-27.06,15.62-40.64,23.46-3.89,2.24-7.88,4.33-11.63,6.77-3.49,2.27-6.5,1.97-10.04-.08-43.34-25.14-86.74-50.16-130.13-75.21-3.99-2.31-7.97-4.65-12-6.89-2.79-1.55-4.05-3.77-4.04-6.99.04-55.16.04-110.31,0-165.47,0-3.24,1.33-5.38,4.08-6.97,47.72-27.52,95.44-55.04,143.1-82.65,3.5-2.03,6.28-1.1,9.38.7,31.38,18.18,62.8,36.3,94.21,54.43,15.33,8.85,30.58,17.82,46.02,26.47,4.27,2.39,5.81,5.35,5.79,10.19-.16,34.94-.06,69.88-.14,104.82,0,2.42.62,3.7,2.88,4.85,29.35,14.89,46.1,47.12,41.15,78.87-5.24,33.6-30.19,59.31-63.5,64.34-29.14,4.39-53.19-5.43-72.02-28.07-.56-.67-1.08-1.37-1.65-2.03-.15-.18-.41-.27-.83-.53ZM258.87,227.61v4.1c0,48.67.03,97.34-.08,146.01,0,2.94.99,4.39,3.41,5.78,42.13,24.24,84.21,48.57,126.31,72.87,1.04.6,2.13,1.12,3.63,1.91,0-1.68,0-2.89,0-4.1,0-48.54-.03-97.09.08-145.63,0-3.05-1.01-4.6-3.57-6.07-37.39-21.49-74.71-43.09-112.05-64.66-5.69-3.29-11.4-6.56-17.72-10.21ZM404.11,458.49c15.43-8.91,30.26-17.48,45.18-26.1-12.59-29.31-10.64-57.1,9.41-81.86,20.13-24.86,46.98-32.64,78.2-26.2v-96.4c-1.43.75-2.52,1.27-3.56,1.87-19.97,11.53-39.91,23.12-59.94,34.53-2.62,1.49-3.5,3.13-3.47,6.1.15,16.1.05,32.2.09,48.3,0,3.53-1.23,6.15-4.84,7-4,.93-7.12-2.09-7.13-6.89-.04-13.73-.02-27.46-.02-41.19,0-1.28,0-2.56,0-4.28-1.74.97-2.82,1.55-3.89,2.17-15.63,9.08-31.23,18.21-46.92,27.17-2.38,1.36-3.17,2.83-3.16,5.54.09,46.68.07,93.35.07,140.03v10.2ZM517.8,462.86c35.14.16,64.29-28.65,64.5-63.72.21-35.59-28.36-64.86-63.51-65.07-36-.21-65.06,28.33-65.24,64.09-.18,35.56,28.6,64.54,64.25,64.7ZM531.18,217.36c-.97-.71-1.42-1.1-1.93-1.4-42.85-24.76-85.71-49.49-128.52-74.31-2.06-1.19-3.53-.93-5.43.18-17.23,10.04-34.51,19.99-51.77,29.99-.78.45-1.47,1.05-2.23,1.6.38.4.53.62.73.75,40.16,26.76,80.31,53.53,120.53,80.18,1.02.68,3.11.65,4.25.06,4.43-2.27,8.69-4.89,13-7.38,16.94-9.79,33.88-19.58,51.37-29.68ZM452.72,262.64c-.64-.55-.99-.91-1.4-1.18-39.92-26.65-79.86-53.27-119.74-79.98-2.15-1.44-3.56-.75-5.37.3-19.19,11.12-38.41,22.2-57.62,33.29-1.04.6-2.01,1.3-3.35,2.16.91.62,1.47,1.05,2.08,1.4,42.83,24.75,85.68,49.48,128.48,74.3,2.01,1.17,3.37.72,5.09-.28,11.41-6.66,22.85-13.27,34.28-19.89,5.79-3.35,11.58-6.7,17.54-10.14Z"/>
        <path d="M509.24,416.36c11.32-14.94,22.38-29.53,33.43-44.13,1.5-1.99,2.89-4.06,4.41-6.03,2.15-2.79,6-3.27,8.59-1.14,2.47,2.03,2.83,5.72.79,8.39-13.77,18.02-27.54,36.03-41.31,54.05-4.47,5.85-7.65,5.96-12.41.3-7.31-8.68-14.56-17.39-21.83-26.1-1.73-2.07-2.75-4.53-1.08-6.83,1.12-1.54,3.26-3.31,4.89-3.26,2.03.07,4.48,1.47,5.91,3.06,6.25,6.93,12.19,14.14,18.62,21.69Z"/>
      </g>
    </g>
  </g>
</svg>