<?xml version="1.0" encoding="UTF-8"?>
<svg xmlns="http://www.w3.org/2000/svg" version="1.1" viewBox="0 0 841.89 595.28">
  <!-- Generator: Adobe Illustrator 28.6.0, SVG Export Plug-In . SVG Version: 1.2.0 Build 709)  -->
  <g>
    <g id="Layer_1">
      <g>
        <path d="M232.56,468.34c0-103.8,0-207.6,0-311.4.19-.31.5-.61.54-.94,2.23-17.78,18.71-35.2,43.2-35.11,84.45.32,168.9.15,253.35.06,5.09,0,9.04,1.5,12.65,5.13,22.76,22.92,45.61,45.76,68.54,68.52,3.62,3.6,5.15,7.54,5.14,12.64-.11,55.5-.07,111-.07,166.49,0,29.56.18,59.12-.07,88.67-.15,18.07-8.87,31.01-25.27,38.57-3.33,1.54-7.06,2.22-10.6,3.29h-311.47c-.56-.23-1.09-.56-1.67-.67-12.88-2.41-22.73-9.26-28.96-20.72-2.44-4.49-3.58-9.67-5.31-14.54ZM304.68,481.71c0-2.03,0-3.65,0-5.26,0-35.93-.05-71.85.02-107.78.05-25.06,17.72-43.17,42.3-43.21,51.53-.09,103.06-.14,154.59.12,5.71.03,11.83,1.16,17.03,3.45,17.06,7.51,25.09,21.31,25.13,39.77.07,36.05.02,72.1.02,108.15,0,1.55,0,3.1,0,4.86,10.34,0,20.06.03,29.77,0,11.95-.05,19.88-7.99,19.88-20.01.02-83.21.02-166.41-.09-249.62,0-1.83-1.01-4.1-2.31-5.41-19.67-19.86-39.59-39.46-59.11-59.46-3.72-3.81-7.37-4.27-12.28-3.54,0,1.59,0,3.06,0,4.54,0,28.19.09,56.39-.03,84.58-.11,25.06-17.74,42.85-42.55,42.91-43.3.1-86.59.17-129.89-.13-5.95-.04-12.34-1.24-17.74-3.66-16.68-7.5-24.66-21.11-24.73-39.27-.1-28.19-.03-56.39-.03-84.58,0-1.45,0-2.9,0-4.68-9.67,0-18.88,0-28.08,0-14.28,0-21.58,7.34-21.58,21.69,0,98.3,0,196.6,0,294.9,0,1.12-.02,2.25.02,3.37.3,9.4,7.32,17.65,16.64,18.15,10.8.58,21.65.13,33,.13ZM521.31,481.71c0-1.62,0-2.84,0-4.06,0-36.16.01-72.32,0-108.48,0-13.7-7.62-21.28-21.32-21.28-50.51,0-101.02,0-151.54,0-13.69,0-21.29,7.58-21.3,21.3-.02,36.16,0,72.32,0,108.48,0,1.32,0,2.63,0,4.04h194.16ZM497.19,143.74h-170.04c0,1.49,0,2.72,0,3.94,0,28.07,0,56.13,0,84.2,0,13.95,7.56,21.49,21.52,21.49,42.3,0,84.6,0,126.89,0,14.26,0,21.61-7.38,21.62-21.71.01-27.94,0-55.89,0-83.83,0-1.33,0-2.66,0-4.1Z"/>
        <path d="M471.49,198.8c0,5.74.06,11.47-.02,17.21-.09,6.73-4.79,11.56-11.11,11.59-6.31.02-11.22-4.79-11.29-11.49-.13-11.84-.13-23.69,0-35.53.08-6.58,5.24-11.59,11.37-11.49,6.26.11,10.94,5.04,11.03,11.76.07,5.98.02,11.97.01,17.95Z"/>
      </g>
    </g>
  </g>
</svg>