<?xml version="1.0" encoding="UTF-8"?>
<svg xmlns="http://www.w3.org/2000/svg" version="1.1" viewBox="0 0 841.89 595.28">
  <!-- Generator: Adobe Illustrator 28.6.0, SVG Export Plug-In . SVG Version: 1.2.0 Build 709)  -->
  <g>
    <g id="Layer_1">
      <g>
        <path d="M229.29,170.39c1.96-2.87,4.79-3.47,8.09-3.45,21.21.08,42.41,0,63.62.09,2.63.01,4.28-.66,5.79-2.97,5.69-8.71,13.14-15.57,22.44-20.41,1.16-.6,2.31-2.27,2.48-3.57,2.57-19.46,19.11-34.05,38.79-34.05,20.5,0,36.18,10.63,40.7,28.84,1.49,6.01,4.21,9.47,9.34,12.4,7.11,4.06,12.87,9.87,17.13,16.92,1.38,2.29,2.98,2.85,5.44,2.84,21.08-.07,42.16-.05,63.25-.04,7.33,0,8.7,1.39,8.7,8.79,0,13.72,0,27.44,0,41.17,0,2.85-.28,5.57-3.28,6.96-4.34,2.01-8.38-.87-8.42-6.12-.07-11.48-.02-22.95-.03-34.43,0-1.37,0-2.74,0-4.41h-57.62c.46,6.78,1.09,13.57,1.33,20.38.18,5.21-1.79,7.09-6.86,7.09-45.41.02-90.81.02-136.22,0-4.77,0-6.73-1.8-6.61-6.51.18-6.94.73-13.87,1.14-21.01h-57.29v298.42h261.58c0-1.92-.1-3.86.02-5.79.24-3.83,2.5-6.13,5.75-6.05,3.04.08,5.73,2.76,5.85,6.17.14,3.86.46,7.8-.13,11.57-.33,2.15-2.3,4.05-3.53,6.07H229.29V170.39ZM308.97,194.58h125.47c.13-.55.23-.79.24-1.03.02-.37-.01-.75-.05-1.12-1.88-18.76-11.49-32.01-28.63-39.7-3.6-1.62-5.45-3.65-5.47-7.83-.08-15.35-12.69-27.12-28.82-27.22-16.07-.1-28.91,11.58-29.12,26.91-.06,4.31-1.81,6.54-5.51,8.25-11.03,5.1-19.29,13.14-24.36,24.26-2.5,5.47-3.88,11.22-3.74,17.48Z"/>
        <path d="M612.54,347.75c0,16.09-.09,32.18.06,48.27.04,4.17-1.59,6.66-5.2,8.58-33.9,17.97-67.76,36.01-101.57,54.14-3.47,1.86-6.27,1.9-9.67-.26-34.1-21.61-68.28-43.12-102.48-64.58-2.53-1.59-3.53-3.55-3.53-6.44.04-30.06.05-60.12,0-90.18,0-3.52,1.42-5.84,4.5-7.49,34.38-18.39,68.75-36.78,103.06-55.31,3.05-1.65,5.19-.42,7.61.9,26.7,14.53,53.4,29.05,80.1,43.58,7.33,3.99,14.61,8.08,22.02,11.91,3.63,1.88,5.21,4.43,5.17,8.6-.16,16.09-.07,32.18-.07,48.27ZM494.4,443.78c.13-1.24.25-1.84.25-2.43.01-26.95.05-53.89-.1-80.84,0-1.32-1.32-3.18-2.54-3.88-29.34-16.72-58.74-33.32-88.15-49.93-.69-.39-1.51-.56-2.34-.86-.13.66-.27,1.02-.27,1.38-.02,25.07-.07,50.15.08,75.22,0,1.33,1.34,3.12,2.56,3.91,14.36,9.24,28.81,18.34,43.24,27.47,15.58,9.87,31.15,19.74,47.26,29.95ZM506.91,444.33c1.41-.64,2.32-1.01,3.18-1.46,29.35-15.39,58.67-30.82,88.06-46.12,2.29-1.2,2.81-2.64,2.81-4.99-.06-26.7-.04-53.39-.05-80.09,0-1.15-.18-2.3-.31-3.95-8.1,4.33-15.69,8.3-23.16,12.5-.86.48-1.43,2.2-1.45,3.36-.12,9.23-.15,18.46-.02,27.69.05,3.52-1.22,5.92-4.33,7.58-7.8,4.18-15.51,8.51-23.31,12.69-5.13,2.75-9.25.38-9.49-5.48-.17-3.99-.05-7.98-.05-11.97,0-4.04,0-8.07,0-12.68-1.92.95-3.14,1.51-4.32,2.15-8.1,4.4-16.14,8.92-24.31,13.18-2.4,1.25-3.34,2.62-3.32,5.42.16,15.59.07,31.19.07,46.78,0,11.59,0,23.19,0,35.39ZM407.91,295.73c.84.62,1.38,1.12,2.01,1.48,29.7,16.81,59.39,33.62,89.16,50.31,1.09.61,3.15.47,4.31-.15,8.89-4.76,17.68-9.72,26.48-14.64.68-.38,1.24-.97,1.9-1.5-.33-.3-.4-.41-.51-.47-30.59-16.74-61.17-33.48-91.79-50.16-.81-.44-2.24-.57-3.02-.15-9.47,4.98-18.87,10.08-28.54,15.28ZM476.75,258.72c6.17,3.41,11.68,6.46,17.2,9.49,24.66,13.55,49.31,27.11,74,40.6,1.16.63,3.02,1.29,3.97.8,7.61-3.92,15.08-8.11,22.84-12.35-.63-.53-.96-.9-1.36-1.13-30.18-16.42-60.36-32.84-90.57-49.2-.77-.41-2.03-.72-2.7-.38-7.61,3.86-15.15,7.86-23.37,12.16ZM550.41,356.81c4.22-2.25,8.02-4.06,11.55-6.31,1.18-.75,2.29-2.6,2.33-3.98.23-7.47,0-14.96.17-22.44.06-2.51-.85-3.74-3-4.88-8.91-4.73-17.71-9.67-26.55-14.53-22.7-12.47-45.4-24.96-68.14-37.38-1.18-.65-3.02-1.3-4.04-.83-4.21,1.97-8.23,4.36-12.62,6.77,1.43.81,2.39,1.37,3.37,1.91,30.55,16.54,61.08,33.14,91.7,49.55,3.81,2.04,5.41,4.58,5.28,8.86-.23,7.55-.07,15.11-.07,23.25Z"/>
        <path d="M314.63,418.51c0,6.85.04,13.7-.01,20.55-.04,4.63-1.97,6.64-6.6,6.66-12.58.07-25.16.06-37.74,0-4.71-.02-6.63-1.93-6.65-6.57-.05-13.7-.05-27.4,0-41.11.02-4.32,1.84-6.22,6.11-6.25,12.83-.08,25.66-.08,38.49,0,4.3.03,6.34,2.18,6.38,6.53.07,6.73.02,13.45.02,20.18ZM275.35,403.48v30.31h27.36v-30.31h-27.36Z"/>
        <path d="M314.63,262.83c0,6.61.04,13.21-.01,19.82-.04,4.91-1.89,6.78-6.78,6.79-12.46.04-24.93.03-37.4,0-4.98-.01-6.8-1.79-6.82-6.72-.04-13.46-.04-26.92,0-40.39.01-4.97,1.84-6.81,6.74-6.82,12.46-.04,24.93-.04,37.4,0,4.92.01,6.82,1.89,6.86,6.75.05,6.86.01,13.71.01,20.57ZM302.74,277.25v-30.37h-27.34v30.37h27.34Z"/>
        <path d="M314.63,340.24c0,6.73.03,13.46-.01,20.19-.03,4.93-1.89,6.82-6.75,6.83-12.59.03-25.18.04-37.77,0-4.51-.02-6.45-1.87-6.46-6.31-.06-13.71-.05-27.42,0-41.13.02-4.52,1.89-6.44,6.33-6.46,12.71-.06,25.43-.06,38.14,0,4.61.02,6.48,1.98,6.52,6.7.05,6.73.01,13.46.01,20.19ZM303.04,325.17h-27.63v30.26h27.46c.07-1.32.16-2.3.17-3.29.01-8.85,0-17.7,0-26.98Z"/>
        <path d="M372.49,256.44c13.33,0,26.66-.01,40,0,4.83,0,7.14,1.85,7.16,5.62.03,3.73-2.4,5.92-7.01,5.93-26.91.04-53.83.05-80.74-.01-5.26-.01-8.03-3.59-6.42-7.89,1.09-2.89,3.39-3.68,6.26-3.67,13.58.04,27.16.02,40.74.02Z"/>
        <path d="M364.77,424.2c-12.22,0-24.44.02-36.66,0-4.63-.01-6.89-1.82-6.97-5.44-.08-3.65,2.55-6.06,6.94-6.07,24.56-.04,49.13-.03,73.69,0,4.63,0,7.07,2.18,6.95,5.92-.12,3.63-2.45,5.57-6.92,5.59-12.34.03-24.69.01-37.03.01Z"/>
        <path d="M354.49,346.35c-7.72,0-15.43.02-23.15,0-4.39-.02-6.77-2.02-6.84-5.62-.07-3.62,2.31-5.81,6.63-5.82,15.43-.04,30.87-.04,46.3,0,4.35,0,6.76,2.09,6.83,5.67.07,3.8-2.26,5.76-6.99,5.78-7.59.02-15.19,0-22.78,0Z"/>
        <path d="M394.11,151.29c0,12.52-10.04,22.64-22.49,22.69-12.38.05-22.6-10.12-22.65-22.55-.05-12.63,10.21-22.92,22.75-22.82,12.66.1,22.39,9.96,22.39,22.67ZM371.77,162.24c6.33-.06,11.02-4.94,10.84-11.25-.17-5.98-5.14-10.67-11.21-10.61-6.01.06-10.91,4.97-10.92,10.93,0,6.09,5.06,11,11.28,10.94Z"/>
      </g>
    </g>
  </g>
</svg>