<?xml version="1.0" encoding="UTF-8"?>
<svg xmlns="http://www.w3.org/2000/svg" version="1.1" viewBox="0 0 841.89 595.28">
  <!-- Generator: Adobe Illustrator 28.6.0, SVG Export Plug-In . SVG Version: 1.2.0 Build 709)  -->
  <g>
    <g id="Layer_1">
      <g>
        <path d="M425.44,133.38c2.17.51,4.37.92,6.51,1.54,10.48,3.01,18.08,9.42,22.37,19.5.79,1.84,1.71,2.57,3.76,2.53,6.31-.13,12.61-.08,18.92-.03,1.7.01,3.45.08,5.08.49,3.79.95,5.32,2.99,5.37,6.89.05,3.92.01,7.84.01,12.08,9.42,0,18.49-.13,27.54.06,3.71.08,7.51.41,11.07,1.37,13.77,3.7,23.84,16.78,23.85,31.07.06,74.3.06,148.61,0,222.91-.01,14.7-11.15,27.05-26.26,29.43-2.63.41-5.31.63-7.97.63-63.18.03-126.37.02-189.55.04-7.34,0-14.2-1.57-20.38-5.61-9.07-5.93-13.86-14.2-13.84-25.19.05-32.93.02-65.86.02-98.79,0-40.52,0-81.04,0-121.56,0-19.97,14.32-34.29,34.36-34.35,8.23-.03,16.46,0,24.7-.01,1.04,0,2.08-.09,3.43-.14,0-3.81,0-7.42,0-11.02.02-5.62,2.17-8.04,7.87-8.21,6.94-.2,13.9-.14,20.84-.07,1.86.02,2.79-.55,3.59-2.31,5.21-11.39,14.03-18.28,26.34-20.69.5-.1.97-.38,1.45-.57,3.64,0,7.27,0,10.91,0ZM354.43,192.05c-9.69,0-18.86-.04-28.04.01-11.74.07-18.9,7.33-18.9,19.11,0,34.85,0,69.7,0,104.55,0,38.27.03,76.54-.03,114.81,0,5.92,2.16,10.68,7.53,13.04,3.6,1.58,7.77,2.58,11.69,2.59,62.86.16,125.72.11,188.58.11.75,0,1.5.02,2.24-.02,11.23-.57,16.9-6.5,16.9-17.68,0-57.62,0-115.24,0-172.86,0-15.29.03-30.57-.01-45.86-.03-9.2-6.48-16.98-15.42-17.46-10.22-.55-20.5-.16-30.75-.15-.16,0-.33.23-.75.56,0,5.35,0,10.9,0,16.44-.01,7.03-3.13,10.18-10.16,10.18-37.63.01-75.26,0-112.89,0-6.98,0-9.96-2.97-9.98-9.91-.01-5.65,0-11.3,0-17.45ZM471.51,203.7v-31.18c-6.62,0-13.01,0-19.41,0-6.59,0-8.88-1.76-10.7-8.19-3-10.61-12.91-17.44-23.5-16.2-8.69,1.02-16.16,7.69-18.7,16.73-1.63,5.78-4.1,7.65-10.13,7.66-5.34,0-10.69,0-16.03,0-.92,0-1.84.11-2.61.17v31h101.08Z"/>
        <path d="M458.01,278.1c-13.99,0-27.98,0-41.98,0-1.17,0-2.36.02-3.52-.11-4.39-.5-7.22-3.7-7.1-7.97.11-4.04,3.08-7.15,7.28-7.54,1.27-.12,2.56-.05,3.84-.05,28.09,0,56.18,0,84.27.02,1.58,0,3.23.08,4.73.53,3.45,1.02,5.49,4.25,5.26,7.87-.23,3.56-2.75,6.42-6.35,7.02-1.36.23-2.76.24-4.15.24-14.1.02-28.2,0-42.3,0Z"/>
        <path d="M458.32,387.53c14.21,0,28.41-.01,42.62.02,1.48,0,3.01.09,4.42.49,3.5.99,5.6,4.11,5.44,7.74-.15,3.58-2.59,6.47-6.17,7.17-1.25.24-2.54.31-3.82.31-28.52.02-57.04.01-85.56,0-.85,0-1.71,0-2.56-.11-4.62-.56-7.46-3.76-7.28-8.15.17-4.13,3.26-7.27,7.73-7.42,5.12-.17,10.25-.06,15.38-.06,9.93,0,19.87,0,29.8,0Z"/>
        <path d="M458.2,325.06c14.63,0,29.27-.02,43.9.02,4.84.01,8.01,2.45,8.64,6.42.74,4.64-2.49,8.75-7.24,9.09-1.7.12-3.42.05-5.12.05-27.98,0-55.97,0-83.95,0-5.46,0-8.83-2.81-9.01-7.42-.19-4.79,3.03-8.08,8.25-8.13,10.47-.08,20.93-.03,31.4-.03,4.38,0,8.76,0,13.14,0Z"/>
        <path d="M355.49,331.07c7.66-7.31,15.59-14.92,23.58-22.47,3.73-3.53,8.07-3.71,11.45-.67,3.37,3.04,3.86,7.64.61,10.79-10.34,10.03-20.8,19.95-31.35,29.76-3.15,2.92-7.3,2.62-10.38-.44-5.37-5.34-10.67-10.77-15.88-16.27-3.3-3.49-3.2-8.56-.04-11.51,3.16-2.95,7.59-2.59,11.19.81,3.48,3.29,7.03,6.51,10.81,9.99Z"/>
        <path d="M355.45,268.52c7.72-7.35,15.73-15.02,23.79-22.63,3.46-3.27,7.32-3.57,10.7-1,3.93,2.99,4.59,7.99,1.05,11.42-10.27,9.96-20.66,19.79-31.13,29.53-3.29,3.06-7.34,2.75-10.58-.5-5.2-5.21-10.36-10.47-15.44-15.8-3.52-3.69-3.62-8.64-.44-11.74,3.12-3.05,7.91-2.53,11.66,1.09,3.3,3.18,6.72,6.24,10.39,9.63Z"/>
        <path d="M355.41,393.69c7.73-7.36,15.68-14.95,23.65-22.5,3.27-3.1,6.55-3.67,9.87-1.83,4.73,2.63,5.87,8.38,2,12.14-10.26,9.96-20.66,19.78-31.13,29.52-3.19,2.97-7.25,2.7-10.34-.38-5.29-5.27-10.52-10.61-15.68-16.02-3.5-3.67-3.55-8.68-.34-11.75,3.07-2.94,7.81-2.49,11.43.97,3.38,3.24,6.84,6.39,10.54,9.84Z"/>
      </g>
    </g>
  </g>
</svg>