<?xml version="1.0" encoding="UTF-8"?>
<svg xmlns="http://www.w3.org/2000/svg" version="1.1" viewBox="0 0 841.9 595.3">
  <defs>
    <style>
      .cls-1 {
        fill: #27aae1;
      }

      .cls-1, .cls-2 {
        stroke: #000;
        stroke-miterlimit: 10;
      }

      .cls-2 {
        fill: #fff;
      }
    </style>
  </defs>
  <!-- Generator: Adobe Illustrator 28.6.0, SVG Export Plug-In . SVG Version: 1.2.0 Build 709)  -->
  <g>
    <g id="Layer_1">
      <g id="Layer_1-2" data-name="Layer_1">
        <g>
          <g>
            <path class="cls-1" d="M482.1,151.8c-2.4,3.1-4.7,6.1-7.1,9.1-10.5,13.5-21,27.1-31.4,40.6-2.6,3.4-6.7,4.7-10.6,3.4-3.8-1.2-6.6-4.5-6.9-8.5-.2-2.7.6-5.1,2.3-7.2,12.4-15.9,24.8-31.9,37.2-47.9.4-.5.8-.9,1.3-1.5-10-11.9-13.7-25.5-11.4-40.7,1.8-11.6,6.8-21.4,15.6-29.1,18.2-16,46.9-16.6,65.3-1.2,15.8,13.2,24.7,40.6,10.9,63.4-12.3,20.3-39.9,32.2-65.2,19.4h0ZM523.6,147.6c.2,0,.4-.1.6-.2,5.5-2.8,10.4-6.4,14.4-11.1,13.8-16.1,14.1-40.9.2-57.6-12.5-15-28.8-19.2-47.3-14.2-24.1,6.5-38,33.7-29.7,57.2,6.6,18.5,23,30.3,42.6,30.4,1.8,0,4,.2,5.4-.7,3.9-2.6,7.8-5.3,11.2-8.5,13.4-12.5,15-36,3.8-50.5-10.4-13.3-29.5-15-41.8-3.7-11.1,10.2-12.2,27.8-2.4,38.5,7.4,8.1,17.2,8,24.7,2,7.5-6.1,8.7-17,3-24.6-2.7-3.6-7.3-4.4-10.8-1.9-3.5,2.5-4.2,7.1-1.8,10.7,1.1,1.7,1,3.2-.4,4s-2.7.3-3.8-1.4c-3.4-5.4-2.3-12.6,2.6-16.7,5.1-4.2,11.8-4,16.6.7,4.6,4.5,6.6,10.1,6.2,16.4-.7,9.2-5.2,16-13.6,19.7-8.5,3.8-16.7,2.7-23.8-3.2-7.5-6.2-10.7-14.6-10.6-24.2.4-25.7,28.1-41.2,50.2-28.1,8.4,5,13.6,12.6,16.2,21.9,3.5,12.9,2.2,25.2-5,36.6-1.9,3-4.4,5.6-6.6,8.3h0ZM448.4,187.5c-4.3.3-8.1.5-11.9.8-.4,0-1,.1-1.2.4-1.3,1.6-2.7,3.3-3.9,5-.8,1.1-1,2.5-.4,3.8,1.5,3.4,6,4.1,8.4,1.2,2.1-2.5,4.1-5.2,6.1-7.8.9-1.1,1.7-2.2,2.8-3.5h0ZM460.6,156.4c3.8-.3,7.5-.5,11.3-.8.5,0,1.1-.1,1.4-.4,1.6-1.9,3-3.8,4.2-5.4-2.6-2.1-5-4-7.3-5.8-3.1,4-6.3,8.2-9.6,12.4h0ZM468.8,160.8c-4.3.3-8.3.6-12.2.9-.3,0-.6.1-.8.4-1.9,2.4-3.8,4.9-6,7.7,4.3-.3,8.3-.6,12.2-.9.3,0,.7-.2.9-.5,1.9-2.4,3.7-4.8,5.8-7.5h0ZM458.3,174.5c0-.1-.1-.3-.2-.4-4,.3-8,.6-12,.9-.2,0-.5.2-.6.4-1.9,2.4-3.8,4.9-5.7,7.3.3.1.4.2.4.2,3.9-.3,7.8-.5,11.7-.8.3,0,.6-.2.8-.4,1.9-2.4,3.8-4.8,5.6-7.1h0Z"/>
            <g>
              <path class="cls-1" d="M683.4,125.5c-1,.8-1.8,1.7-2.9,2.3-12.5,6.2-25.6,10.3-39.7,10.6-1.3,0-2.7,0-4,0,1.5,2.5,3.2,4.8,4.3,7.4,4.9,11.2,2.7,23.2-6,32.1-6.3,6.5-12.7,12.9-19.2,19.2-11,10.7-26.4,11.4-38.5,2.1-.2-.2-.5-.4-.8-.5-.2,3.9-.2,7.7-.7,11.5-1.4,11.8-5.1,22.9-10.6,33.4-1,2-2.9,2.4-4.5.9-2.5-2.3-5.5-3.5-8.6-4.7-6.3-2.4-10.8-6.9-12.9-13.3-1.5-4.4-3.7-8.1-7.8-10.5-1.5-.9-3.3-1.5-5-2.1-6.5-2.5-11-6.9-13.3-13.4-1-2.8-2.1-5.5-4.2-7.8-2-2.2-1.5-4,1.1-5.3,13.7-6.8,28.1-11.2,43.6-10.7.2,0,.4,0,.7,0-1.2-1.9-2.5-3.6-3.5-5.5-5.8-10.9-4.3-24,4.2-32.9,6.8-7.2,13.9-14.3,21.1-21.1,10.4-9.8,26-10.3,37.2-1.4.3.3.7.5,1.3.9,0-2,0-3.7,0-5.5.3-11.2,3.2-21.8,7.5-32,.9-2.2,1.9-4.4,3-6.5.6-1.1,1.5-1.9,2.3-2.9h1.7c2.9,2.7,6.3,4.4,10,5.7,6.2,2.3,10.3,6.8,12.7,12.9.7,1.7,1.2,3.5,2.1,5,2.4,4.1,6.2,6.4,10.6,7.9,6.3,2.1,10.8,6.5,13.1,12.7,1.4,3.7,3.1,7.1,5.7,10v1.7h0ZM638.1,157.4c-.2-6.4-2.4-11.9-7-16.5-6.4-6.4-12.7-12.8-19.2-19.2-9.4-9.2-23.4-9.2-32.8,0-6.5,6.4-12.9,12.8-19.3,19.3-9.2,9.4-9.2,23.4,0,32.8,6.4,6.5,12.8,12.9,19.3,19.3,9.4,9.2,23.3,9.2,32.7,0,6.5-6.4,13-12.9,19.4-19.4,4.5-4.5,6.7-10,6.8-16.3h0ZM570,193c-.2.2-.3.3-.3.4-4.3,8.9-9.9,17.1-15.7,25.1-.4.6-.8,1.1-1.4,1.5-1.1.8-2.3.8-3.3,0-1-.9-1.4-1.9-.8-3.2.3-.6.7-1.2,1.1-1.7,2.6-3.8,5.5-7.5,7.9-11.4,2.8-4.6,5.3-9.5,7.8-14.2.3-.5.2-1.2.3-1.9-.7,0-1.4,0-2,.2-2.5,1.1-4.9,2.4-7.4,3.6-.7.3-1.5.6-2.3.6-1.2,0-2.1-.8-2.3-2.1-.3-1.4.3-2.5,1.5-3.1,2.2-1.2,4.5-2.4,7.2-3.8-16.3-2.2-30.9,1.9-45.1,8.1,1.1,2.6,2.1,4.9,3,7.2,1.9,5.1,5.3,8.5,10.4,10.4,1.9.7,3.8,1.3,5.5,2.4,5.1,3.1,8.5,7.5,10.2,13.2,1.4,4.6,4.5,7.9,8.9,9.9,2.8,1.3,5.8,2.4,8.7,3.6,6.3-12.3,10.9-32,8.2-44.6h0ZM621,121.6c4.5-9.1,10.2-17.3,16.1-25.4.4-.5.8-1,1.2-1.4,1.1-.9,2.2-.9,3.3,0,1.1.8,1.5,2,.9,3.3-.3.6-.6,1.1-1,1.6-2.6,3.8-5.5,7.5-7.9,11.4-2.9,4.8-5.4,9.8-8,14.7-.2.4,0,1,0,1.5.5,0,1.1,0,1.5,0,1.2-.5,2.4-1,3.6-1.6,7.9-3.9,15-8.9,22.1-14.1.7-.5,1.4-1,2.2-1.4,1.2-.6,2.3-.1,3.1.8.8,1,.9,2.1.2,3.2-.4.6-.9,1-1.5,1.4-5.9,4-11.8,8-17.8,11.9-2.5,1.6-5.2,2.9-8.1,4.5,16.2,2.2,30.9-1.9,45-8.2-1.1-2.6-2.2-4.9-3-7.3-1.9-5.1-5.3-8.5-10.5-10.3-1.9-.7-3.8-1.3-5.5-2.4-5.1-3.1-8.4-7.5-10.2-13.3-1.6-5-5-8.3-9.8-10.3-2.5-1-5-2.1-7.8-3.2-6.2,14.1-10.3,28.7-8,44.5h0Z"/>
              <path class="cls-1" d="M595.6,120.5c3.9,0,8.2,1.3,11.8,4.7,1.4,1.3,1.6,2.9.5,4.1-1.1,1.3-2.7,1.4-4.2,0-3.6-3.1-7.7-4.2-12.2-2.5-1.5.5-2.8,1.5-4.1,2.4-1.8,1.2-3.3,1.3-4.4,0-1-1.3-.8-2.8.7-4.2,3.1-2.8,6.7-4.2,11.8-4.6h0Z"/>
              <path class="cls-1" d="M580.5,135.4c-.7,1.1-1,1.9-1.7,2.5-3.5,3.6-7.1,7.1-10.7,10.7-1.5,1.5-3.1,1.7-4.4.4-1.2-1.2-1.1-2.8.4-4.4,3.6-3.6,7.2-7.2,10.8-10.8,1-.9,2.1-1.6,3.4-.8.8.5,1.4,1.5,2.1,2.4h0Z"/>
              <path class="cls-1" d="M547.5,195.6c-.3.4-.7,1.3-1.4,1.9-3,2.3-6.1,4.4-9.2,6.6-1.5,1-3.2.7-4.1-.6-.9-1.2-.7-2.9.8-3.9,3.1-2.3,6.2-4.5,9.3-6.6,2-1.4,4.5-.1,4.5,2.7h0Z"/>
            </g>
            <path class="cls-1" d="M388.9,181.3c-.8-.6-1.6-1.1-2.3-1.8-9.9-9.9-19.8-19.8-29.6-29.7-.4-.4-.6-.8-1.1-1.5-.4.9-.5,1.4-.7,1.9-.8,1.9-2.8,2.5-4.5,1.2-.4-.3-.7-.6-1-1-4.3-4.3-8.6-8.6-12.9-12.9-2.4-2.4-2.4-3.5,0-5.9.3-.3.6-.6.9-1-.4-.4-.8-.8-1.2-1.2-12.8-12.8-25.7-25.7-38.5-38.5-2.3-2.3-2.3-3.5,0-5.8,15.4-15.4,30.8-30.8,46.3-46.3,2.2-2.2,3.5-2.2,5.8,0,12.8,12.8,25.6,25.6,38.4,38.4.4.4.7.9,1.4,1.7.7-.8,1.1-1.6,1.8-2.1,1.4-1.3,2.9-1.3,4.2,0,4.9,4.8,9.7,9.7,14.5,14.5,1.6,1.6,1,3.9-1.1,4.8-.4.2-.9.3-1.8.7.7.5,1.1.7,1.5,1.1,9.9,9.9,19.8,19.8,29.6,29.7.7.7,1.2,1.5,1.8,2.3v1.4c-.6.8-1.2,1.7-1.9,2.4-15.3,15.3-30.5,30.5-45.8,45.8-.7.7-1.6,1.3-2.4,1.9h-1.4,0ZM433.4,130.4c0,0-.2-.3-.4-.4-10.2-10.2-20.5-20.5-30.8-30.7-.3-.3-1.1-.5-1.5-.3-3.3,1-6.6,2.1-9.9,3-1,.3-1.5.8-1.8,1.8-1.8,5.9-3.6,11.7-5.4,17.6-.5,1.7-1.5,2.7-3.2,3.2-5.9,1.7-11.7,3.6-17.6,5.4-1,.3-1.5.8-1.8,1.8-.9,3.2-1.9,6.4-3,9.5-.4,1.1-.1,1.7.6,2.4,9.9,9.9,19.9,19.8,29.8,29.7.4.4.6.9.8,1.2,14.9-14.9,29.5-29.5,44.1-44.1h0ZM348.9,85.3c5.6,5.6,11.3,11.3,16.9,16.8,6.5-6.5,13.1-13.1,19.7-19.7-5.6-5.6-11.3-11.3-16.9-16.9-6.6,6.6-13.2,13.2-19.7,19.7ZM361.4,106.8c-5.7-5.7-11.4-11.4-17-17-6.5,6.4-13,13-19.5,19.5,5.6,5.7,11.4,11.4,17,17,6.5-6.5,13.1-13.1,19.6-19.5ZM344.4,81c6.6-6.6,13.2-13.2,19.5-19.5-5.6-5.6-11.3-11.3-16.9-16.9-6.5,6.4-13,13-19.6,19.5,5.6,5.6,11.3,11.3,16.9,16.9h0ZM340.1,85.4c-5.6-5.6-11.4-11.4-16.9-16.9-6.5,6.5-13.1,13.1-19.7,19.7,5.5,5.6,11.2,11.2,16.9,16.8,6.5-6.5,13.1-13.1,19.7-19.7ZM351.3,143.8c.2-.6.4-1,.5-1.5,1.5-4.7,3-9.5,4.4-14.2.5-1.7,1.4-2.6,3.1-3.1,6-1.8,11.9-3.7,17.9-5.5.9-.3,1.3-.7,1.5-1.6,1.8-6,3.7-12,5.5-18,.5-1.5,1.3-2.4,2.8-2.8,2.2-.6,4.3-1.3,6.5-2,3.2-1,6.3-2,9.3-2.9-3.1-3.1-6.1-6.2-8.9-9.1-17.2,17.2-34.4,34.4-51.6,51.5,2.9,2.9,5.9,5.9,9.1,9.1h0Z"/>
            <g>
              <path class="cls-1" d="M431.2,322.2c-.5-.7-1.2-1.3-1.6-2-4.5-9-7.4-18.4-7.6-28.5,0-1,0-1.9,0-2.9-1.8,1-3.5,2.3-5.3,3.1-8,3.5-16.6,1.9-23-4.3-4.6-4.5-9.2-9.1-13.8-13.8-7.6-7.9-8.2-18.9-1.5-27.6.1-.2.2-.4.4-.6-2.8-.2-5.5-.2-8.2-.5-8.5-1-16.4-3.7-24-7.6-1.4-.8-1.7-2.1-.6-3.3,1.7-1.8,2.5-4,3.4-6.2,1.7-4.5,4.9-7.7,9.5-9.3,3.2-1.1,5.8-2.7,7.5-5.6.7-1.1,1.1-2.4,1.5-3.6,1.8-4.6,4.9-7.9,9.6-9.6,2-.7,4-1.5,5.6-3,1.5-1.4,2.8-1.1,3.8.8,4.9,9.9,8,20.1,7.7,31.3,0,.1,0,.3,0,.5,1.4-.9,2.6-1.8,4-2.5,7.8-4.2,17.2-3.1,23.6,3,5.2,4.9,10.2,9.9,15.1,15.1,7,7.5,7.4,18.7,1,26.7-.2.2-.4.5-.7.9,1.4,0,2.7,0,3.9,0,8,.2,15.6,2.3,23,5.4,1.6.6,3.2,1.4,4.7,2.2.8.4,1.4,1.1,2.1,1.6v1.2c-1.9,2.1-3.1,4.5-4.1,7.2-1.6,4.4-4.9,7.4-9.3,9.1-1.2.5-2.5.9-3.6,1.5-2.9,1.7-4.6,4.4-5.6,7.6-1.5,4.5-4.6,7.8-9.1,9.4-2.6,1-5.1,2.2-7.2,4.1h-1.2ZM408.3,289.7c4.6-.1,8.5-1.7,11.8-5,4.6-4.6,9.2-9.1,13.7-13.8,6.6-6.8,6.6-16.8,0-23.5-4.6-4.7-9.2-9.3-13.8-13.8-6.8-6.6-16.8-6.6-23.5,0-4.7,4.6-9.3,9.2-13.8,13.8-6.6,6.7-6.6,16.7,0,23.4,4.6,4.7,9.3,9.3,13.9,13.9,3.2,3.2,7.2,4.8,11.7,4.9h0ZM382.8,240.9c-.1-.1-.2-.2-.3-.2-6.4-3.1-12.3-7.1-18-11.3-.4-.3-.8-.6-1.1-1-.6-.8-.6-1.6,0-2.4.6-.7,1.4-1,2.3-.6.4.2.8.5,1.2.8,2.7,1.9,5.4,3.9,8.2,5.6,3.3,2,6.8,3.8,10.2,5.6.4.2.9.1,1.3.2,0-.5,0-1-.2-1.4-.8-1.8-1.7-3.5-2.6-5.3-.2-.5-.5-1.1-.4-1.6,0-.9.6-1.5,1.5-1.7,1-.2,1.8.2,2.3,1.1.9,1.6,1.7,3.2,2.7,5.2,1.6-11.7-1.4-22.2-5.8-32.3-1.8.8-3.5,1.5-5.2,2.2-3.7,1.3-6.1,3.8-7.5,7.5-.5,1.3-1,2.7-1.7,3.9-2.2,3.6-5.4,6.1-9.5,7.3-3.3,1-5.7,3.2-7.1,6.4-.9,2-1.7,4.1-2.5,6.2,8.8,4.5,23,7.8,32,5.8h0ZM434,277.4c6.5,3.3,12.4,7.3,18.2,11.5.4.3.7.5,1,.9.6.8.6,1.6,0,2.4-.6.8-1.4,1.1-2.4.6-.4-.2-.8-.5-1.1-.7-2.7-1.9-5.4-3.9-8.2-5.6-3.4-2.1-7-3.9-10.5-5.8-.3-.2-.7,0-1.1,0,0,.4,0,.8,0,1.1.3.9.7,1.7,1.1,2.6,2.8,5.6,6.4,10.8,10.1,15.9.4.5.7,1,1,1.5.4.9.1,1.6-.6,2.2-.7.6-1.5.7-2.3.1-.4-.3-.7-.7-1-1.1-2.9-4.3-5.7-8.5-8.5-12.8-1.1-1.8-2-3.7-3.2-5.8-1.6,11.6,1.4,22.1,5.8,32.2,1.9-.8,3.5-1.5,5.2-2.2,3.6-1.4,6.1-3.8,7.4-7.5.5-1.3,1-2.7,1.7-3.9,2.2-3.6,5.4-6,9.5-7.3,3.6-1.1,6-3.6,7.4-7,.7-1.8,1.5-3.6,2.3-5.6-10.1-4.5-20.6-7.4-31.9-5.7h0Z"/>
              <path class="cls-1" d="M434.8,259.2c0,2.8-.9,5.9-3.4,8.5-.9,1-2.1,1.1-2.9.4-.9-.8-1-1.9,0-3,2.2-2.6,3-5.5,1.8-8.8-.4-1.1-1.1-2-1.8-2.9-.9-1.3-.9-2.4,0-3.1.9-.7,2-.6,3,.5,2,2.2,3,4.8,3.3,8.5Z"/>
              <path class="cls-1" d="M424.1,248.3c-.8-.5-1.4-.8-1.8-1.2-2.6-2.5-5.1-5.1-7.7-7.6-1.1-1.1-1.2-2.2-.3-3.1.9-.9,2-.8,3.1.3,2.6,2.6,5.2,5.1,7.7,7.7.7.7,1.2,1.5.6,2.4-.4.6-1.1,1-1.7,1.5Z"/>
              <path class="cls-1" d="M380.9,224.7c-.3-.2-1-.5-1.3-1-1.6-2.1-3.2-4.4-4.7-6.6-.7-1.1-.5-2.3.4-2.9.9-.6,2-.5,2.8.6,1.6,2.2,3.2,4.4,4.8,6.7,1,1.4.1,3.2-1.9,3.2h0Z"/>
            </g>
            <path class="cls-1" d="M553.5,330.8c-.5-.4-1.1-.8-1.6-1.3-7.1-7.1-14.2-14.2-21.3-21.3-.3-.3-.4-.6-.8-1.1-.2.7-.4,1-.5,1.4-.6,1.4-2,1.8-3.2.9-.3-.2-.5-.5-.7-.7l-9.3-9.3c-1.7-1.7-1.7-2.5,0-4.2.2-.2.4-.4.7-.7-.3-.3-.6-.6-.8-.9-9.2-9.2-18.4-18.4-27.6-27.6-1.6-1.6-1.6-2.5,0-4.1,11.1-11.1,22.1-22.1,33.2-33.2,1.6-1.6,2.5-1.6,4.1,0,9.2,9.2,18.4,18.4,27.6,27.6.3.3.5.6,1,1.2.5-.6.8-1.1,1.3-1.5,1-.9,2.1-.9,3,0,3.5,3.4,7,6.9,10.4,10.4,1.2,1.2.7,2.8-.8,3.4-.3.1-.6.2-1.3.5.5.3.8.5,1.1.8,7.1,7.1,14.2,14.2,21.3,21.3.5.5.9,1.1,1.3,1.6v1c-.5.6-.9,1.2-1.4,1.7-11,11-21.9,21.9-32.9,32.9-.5.5-1.1.9-1.7,1.4h-1,0ZM585.4,294.2s-.1-.2-.2-.3c-7.3-7.4-14.7-14.7-22.1-22-.2-.2-.8-.3-1.1-.2-2.4.7-4.8,1.5-7.1,2.2-.7.2-1.1.5-1.3,1.3-1.3,4.2-2.6,8.4-3.9,12.6-.4,1.2-1,1.9-2.3,2.3-4.2,1.2-8.4,2.6-12.6,3.9-.7.2-1.1.6-1.3,1.3-.7,2.3-1.4,4.6-2.1,6.8-.3.8,0,1.2.5,1.7,7.1,7.1,14.2,14.2,21.4,21.3.3.3.4.6.6.8,10.7-10.7,21.2-21.2,31.7-31.7h0ZM524.7,261.9c4,4,8.1,8.1,12.1,12.1,4.7-4.7,9.4-9.4,14.1-14.1-4-4-8.1-8.1-12.1-12.1-4.7,4.7-9.5,9.5-14.1,14.1h0ZM533.7,277.3c-4.1-4.1-8.2-8.2-12.2-12.2-4.6,4.6-9.4,9.4-14,14l12.2,12.2c4.7-4.7,9.4-9.4,14-14h0ZM521.5,258.7c4.7-4.7,9.5-9.5,14-14-4-4-8.1-8.1-12.1-12.1-4.6,4.6-9.4,9.4-14,14,4,4,8.1,8.1,12.1,12.1h0ZM518.4,261.9c-4-4.1-8.1-8.1-12.1-12.1-4.7,4.7-9.4,9.4-14.1,14.1,4,4,8.1,8.1,12.1,12.1,4.7-4.7,9.4-9.4,14.1-14.1h0ZM526.5,303.9c.1-.4.3-.7.4-1.1,1.1-3.4,2.1-6.8,3.1-10.2.4-1.2,1-1.9,2.2-2.2,4.3-1.3,8.5-2.6,12.8-3.9.6-.2.9-.5,1.1-1.1,1.3-4.3,2.7-8.6,4-12.9.3-1.1.9-1.7,2-2,1.6-.4,3.1-.9,4.6-1.4,2.3-.7,4.5-1.4,6.7-2.1-2.2-2.2-4.4-4.5-6.4-6.5-12.3,12.3-24.7,24.7-37,37,2.1,2.1,4.2,4.3,6.5,6.5h0Z"/>
          </g>
          <g>
            <path class="cls-2" d="M676.5,128c-4,15.3-8.2,30.5-12.1,45.8-11.2,43.4-22.2,86.8-33.3,130.2-6.7,26.1-26.8,41.5-53.9,41.6-24.1,0-48.2,0-72.3,0-3.5,0-4.8.9-5.9,4.3-5.2,16-19.4,26.1-36.4,26.1-39.6,0-79.3,0-118.9.1-2.9,0-6,.9-8.5,2.2-16.5,9.1-32.8,18.6-49.3,27.8-3.8,2.1-6.8,4.8-5.6,9.6,1.3,5,5.2,5.9,9.9,5.9,110.4,0,220.9,0,331.4,0,12.1,0,20.8,6.1,23.8,16.5,4,13.9-5.8,27.9-20.2,29-1.3.1-2.7,0-4,0-110.5,0-220.9,0-331.4,0-26.4,0-47.2-15.6-53.5-40-5.8-22.5,3.5-46.1,23.5-58.1,14.1-8.5,28.6-16.5,43-24.5,2.9-1.6,3.9-3.1,3-6.7-19.1-74-37.9-148.1-56.9-222.1-4.9-19.1-19-29.9-38.6-30-9.3,0-18.6,0-27.8,0-13.7,0-23.9-9.9-23.8-22.9,0-12.7,10.2-22.7,23.6-22.6,15,.2,30.3-1,44.9,1.8,34.9,6.6,56.6,28.6,66,62.7,1.2,4.3,2.3,8.7,3.5,13.4h6.8c120.7,0,241.5,0,362.2,0,4.7,0,8.6.8,11.2,5.1v5.1h0ZM484.1,345.5h-135.4c-8.7,0-10-1.1-12.2-9.5-19.5-76.3-39.1-152.7-58.6-229-2.4-9.5-6.4-18.2-12.7-25.8-3.8,3.7-7.3,7-10.1,9.7,2.9,7.4,6.5,14,8.3,21,19.7,76.3,39.2,152.6,58.7,229,1.8,7,.8,9.2-5.5,12.7-15.8,9-31.7,17.9-47.4,27-12.2,7-18.9,17.7-19.5,31.7-.9,22.3,16.4,39.4,39.5,39.4,110.4,0,220.9,0,331.3,0s1.3,0,2,0c5.1-.2,8.4-3.1,8.5-7.5,0-4.4-3.2-7.5-8.2-7.7-1.5,0-3,0-4.5,0h-229.6c-33,0-66.1,0-99.1,0-6.1,0-11.7-1.4-16.4-5.4-12.4-10.4-10.6-29,3.9-37.5,15.7-9.2,31.8-17.8,47.4-27.1,7.4-4.4,14.7-6.2,23.3-6.2,38.1.4,76.2.2,114.3.1,10.8,0,18.4-5.1,22.3-15.2h0ZM434.8,133.3h-59.5c6.5,42,12.9,83.9,19.3,125.9h46.6c-.9-18.5-1.9-36.8-2.8-55.4h-6c-8.2,0-16.5.1-24.8,0-4.7-.1-7.7-3.4-7.5-7.7.1-4.1,3-7,7.5-7.3,1.8-.1,3.7,0,5.6,0h24.5c-1-18.8-1.9-36.9-2.9-55.3h0ZM300.3,133.2c4.8,18.6,9.5,37,14.1,55.2h54c-2.9-18.6-5.7-37-8.5-55.2h-59.6ZM452.9,188.5h53.9c.9-18.4,1.9-36.7,2.8-55.1h-59.6c1,18.5,1.9,36.6,2.9,55.1ZM575.9,188.4c2.8-18.4,5.6-36.7,8.5-55.1h-59.5c-.9,18.5-1.9,36.7-2.8,55.1h53.8ZM645,188.5c4.7-18.6,9.4-36.8,14.1-55.1h-59.3c-2.8,18.5-5.6,36.7-8.4,55.1h53.6ZM318.4,204c4.8,18.8,9.5,37.1,14.1,55.1h46.8c-2.9-18.6-5.7-36.8-8.5-55.1h-52.4ZM456.5,259.3h46.7c.9-18.5,1.9-36.7,2.8-55.1h-52.3c.9,18.6,1.9,36.8,2.8,55.1h0ZM573.5,204.3h-52.3c-.9,18.5-1.8,36.6-2.8,55h46.6c2.8-18.3,5.6-36.6,8.4-55h0ZM580.5,259.3h46.4c4.7-18.4,9.4-36.7,14.1-55.2h-52c-2.8,18.4-5.6,36.7-8.5,55.2ZM336.5,274.9c4.8,18.8,9.5,37.1,14.1,55.1h39.5c-2.9-18.6-5.7-36.9-8.5-55.1h-45.2ZM502.4,275h-45.1c1,18.5,1.9,36.8,2.8,55.1h39.4c1-18.4,1.9-36.5,2.9-55.1h0ZM442.1,274.9h-45c2.9,18.5,5.6,36.8,8.5,55.1h39.4c-1-18.5-1.9-36.6-2.8-55.1ZM517.7,274.9c-1,18.6-1.9,36.7-2.9,55.1h39.4c2.8-18.3,5.6-36.6,8.4-55.1h-45ZM578.1,274.9c-2.8,18.4-5.6,36.8-8.5,55.5,4,0,7.4.2,10.7,0,15.9-1,27.8-8.4,33.7-23.3,4-10.2,6.1-21.2,9.1-32.2h-45ZM253.8,69.9c-7.7-6.4-16.3-11.5-26-12.5-15.6-1.6-31.5-1.7-47.2-2.1-4.2,0-6.6,3.1-6.8,7.3-.2,4,2.9,7.4,7.2,7.6,5.7.2,11.4.2,17.1,0,16-.5,31.7,0,44.9,10.4,3.7-3.8,7.1-7.2,10.8-10.8Z"/>
            <path class="cls-2" d="M327.4,558.1c-3.2-1.1-6.5-1.9-9.5-3.2-17.1-7.3-26.2-26-21.7-44.2,4.4-17.6,21.5-29.8,39.8-28.4,18.2,1.4,33,16.1,34.8,34.4,1.7,18.1-10.2,35.2-28,40.1-1.4.4-2.9.9-4.3,1.3h-11.1ZM310.2,520.2c0,12.5,10.4,22.8,22.9,22.7,12.3,0,22.5-10.2,22.6-22.6.1-12.5-10.1-22.9-22.7-23-12.5,0-22.9,10.3-22.8,22.8h0Z"/>
            <path class="cls-2" d="M587.5,558.1c-3.2-1.1-6.5-1.9-9.5-3.2-17.1-7.3-26.2-26-21.7-44.2,4.4-17.6,21.5-29.8,39.8-28.4,18.2,1.4,33,16.1,34.8,34.4,1.7,18.1-10.2,35.2-28,40.1-1.4.4-2.9.9-4.3,1.3h-11.1,0ZM593.2,497.4c-12.5,0-22.9,10.2-22.9,22.7s10,22.6,22.4,22.8c12.5.2,23-10,23.2-22.5.1-12.5-10.1-23-22.6-23h0Z"/>
            <path class="cls-2" d="M333,527.7c-4.2,0-7.7-3.6-7.6-7.8.1-4,3.5-7.3,7.5-7.4,4,0,7.4,3.3,7.6,7.3.2,4.2-3.3,7.8-7.5,7.9Z"/>
            <path class="cls-2" d="M593.3,512.6c4,.1,7.3,3.6,7.3,7.5s-3.6,7.7-7.8,7.6c-4.2-.2-7.6-3.9-7.3-8.1.3-4,3.8-7.2,7.8-7h0Z"/>
          </g>
        </g>
      </g>
    </g>
  </g>
</svg>