<?xml version="1.0" encoding="UTF-8"?>
<svg xmlns="http://www.w3.org/2000/svg" version="1.1" viewBox="0 0 841.89 595.28">
  <defs>
    <style>
      .cls-1 {
        fill: #27aae1;
      }
    </style>
  </defs>
  <!-- Generator: Adobe Illustrator 28.6.0, SVG Export Plug-In . SVG Version: 1.2.0 Build 709)  -->
  <g>
    <g id="Layer_1">
      <g>
        <g>
          <path class="cls-1" d="M462.92,145.77c-2.39,3.1-4.72,6.13-7.06,9.15-10.48,13.52-20.95,27.05-31.44,40.55-2.63,3.38-6.69,4.66-10.64,3.44-3.82-1.17-6.56-4.53-6.88-8.51-.21-2.7.65-5.05,2.31-7.19,12.4-15.95,24.77-31.93,37.16-47.89.38-.49.81-.94,1.26-1.46-10.05-11.89-13.74-25.46-11.43-40.66,1.76-11.55,6.82-21.36,15.65-29.12,18.23-16.04,46.88-16.57,65.32-1.19,15.82,13.19,24.72,40.64,10.94,63.42-12.29,20.32-39.9,32.18-65.19,19.45ZM504.4,141.51c.17-.06.41-.12.63-.23,5.48-2.81,10.35-6.41,14.37-11.1,13.8-16.06,14.09-40.86.2-57.55-12.52-15.05-28.83-19.22-47.34-14.24-24.14,6.49-38.01,33.65-29.67,57.2,6.56,18.53,23,30.3,42.6,30.4,1.83.01,4.04.21,5.41-.69,3.92-2.55,7.78-5.33,11.18-8.53,13.36-12.53,15.04-36.03,3.81-50.5-10.36-13.35-29.45-15.03-41.79-3.67-11.07,10.19-12.18,27.84-2.38,38.54,7.38,8.07,17.24,8.04,24.71,2.03,7.52-6.05,8.74-16.99,3-24.64-2.69-3.58-7.31-4.38-10.83-1.87-3.45,2.46-4.23,7.05-1.84,10.73,1.13,1.74,1,3.19-.36,4.04-1.36.85-2.7.35-3.84-1.42-3.44-5.37-2.3-12.63,2.62-16.67,5.12-4.2,11.84-3.99,16.6.67,4.58,4.49,6.65,10.1,6.19,16.43-.66,9.15-5.18,15.99-13.59,19.73-8.45,3.76-16.66,2.74-23.83-3.19-7.49-6.2-10.7-14.64-10.57-24.16.36-25.71,28.12-41.19,50.24-28.1,8.43,4.99,13.59,12.55,16.15,21.87,3.53,12.88,2.15,25.21-5.05,36.6-1.88,2.98-4.4,5.55-6.62,8.31ZM429.21,181.38c-4.27.29-8.08.54-11.88.83-.43.03-1,.15-1.24.44-1.34,1.63-2.68,3.28-3.87,5.02-.79,1.15-.95,2.47-.35,3.83,1.53,3.45,5.95,4.12,8.4,1.18,2.11-2.54,4.1-5.18,6.15-7.78.85-1.08,1.7-2.16,2.79-3.53ZM441.4,150.35c3.8-.27,7.55-.52,11.3-.81.49-.04,1.14-.11,1.41-.43,1.56-1.88,3.04-3.84,4.25-5.4-2.6-2.06-5.04-4-7.31-5.8-3.1,3.99-6.34,8.17-9.65,12.44ZM449.69,154.77c-4.32.3-8.27.56-12.21.85-.28.02-.64.15-.8.36-1.93,2.45-3.82,4.92-5.95,7.68,4.33-.32,8.28-.61,12.22-.93.32-.03.72-.21.91-.46,1.88-2.38,3.73-4.79,5.82-7.5ZM439.19,168.42c-.08-.13-.15-.26-.23-.39-4,.29-8,.57-11.99.88-.22.02-.5.19-.64.37-1.9,2.42-3.78,4.85-5.69,7.31.26.13.35.22.44.22,3.91-.26,7.81-.52,11.72-.81.27-.02.59-.22.77-.44,1.89-2.37,3.76-4.76,5.63-7.14Z"/>
          <g>
            <path class="cls-1" d="M664.26,119.4c-.95.77-1.8,1.74-2.86,2.27-12.52,6.23-25.64,10.26-39.74,10.57-1.34.03-2.69,0-3.97,0,1.47,2.49,3.16,4.81,4.3,7.38,4.94,11.21,2.68,23.22-6.02,32.11-6.32,6.46-12.7,12.87-19.17,19.17-10.96,10.67-26.41,11.45-38.52,2.08-.25-.19-.53-.35-.8-.53-.22,3.92-.24,7.74-.67,11.51-1.37,11.82-5.14,22.92-10.6,33.45-1.04,2.01-2.89,2.41-4.55.88-2.51-2.32-5.52-3.52-8.64-4.72-6.3-2.43-10.78-6.87-12.92-13.32-1.46-4.4-3.74-8.1-7.76-10.49-1.55-.92-3.33-1.48-5.03-2.13-6.46-2.47-10.97-6.88-13.33-13.39-1.02-2.81-2.13-5.5-4.21-7.76-2-2.17-1.55-3.96,1.14-5.29,13.74-6.83,28.09-11.22,43.63-10.73.21,0,.42-.04.72-.08-1.22-1.9-2.51-3.63-3.52-5.51-5.84-10.9-4.3-24,4.18-32.93,6.85-7.21,13.87-14.28,21.11-21.1,10.41-9.8,26.02-10.26,37.21-1.42.34.27.71.5,1.3.92,0-2-.04-3.74,0-5.49.27-11.19,3.25-21.75,7.46-32.02.91-2.22,1.92-4.4,3.05-6.51.57-1.06,1.5-1.92,2.27-2.87.57,0,1.14,0,1.72,0,2.89,2.68,6.28,4.36,9.99,5.74,6.15,2.29,10.32,6.78,12.66,12.94.65,1.7,1.2,3.48,2.11,5.04,2.4,4.09,6.15,6.38,10.61,7.87,6.32,2.11,10.8,6.46,13.12,12.66,1.38,3.7,3.06,7.09,5.74,9.99v1.72ZM618.94,151.31c-.15-6.42-2.43-11.93-6.97-16.47-6.39-6.39-12.73-12.83-19.18-19.16-9.41-9.23-23.37-9.25-32.78-.02-6.5,6.37-12.93,12.79-19.29,19.29-9.22,9.43-9.2,23.36.04,32.79,6.37,6.49,12.79,12.93,19.29,19.29,9.37,9.16,23.29,9.17,32.66.02,6.55-6.4,12.97-12.91,19.42-19.4,4.48-4.51,6.68-10.01,6.81-16.34ZM550.89,186.94c-.19.21-.29.28-.33.37-4.3,8.95-9.88,17.1-15.74,25.07-.4.55-.83,1.11-1.37,1.51-1.08.81-2.26.84-3.31-.05-1-.85-1.41-1.95-.8-3.22.3-.61.7-1.18,1.09-1.74,2.64-3.8,5.48-7.48,7.88-11.43,2.82-4.62,5.28-9.46,7.84-14.23.28-.52.18-1.24.26-1.87-.67.07-1.43-.03-2.01.23-2.49,1.15-4.91,2.43-7.39,3.6-.7.33-1.52.64-2.26.6-1.25-.07-2.1-.84-2.35-2.13-.27-1.41.29-2.48,1.52-3.14,2.24-1.22,4.51-2.39,7.22-3.82-16.32-2.25-30.94,1.9-45.06,8.12,1.07,2.55,2.15,4.86,3.02,7.25,1.86,5.11,5.32,8.54,10.41,10.4,1.87.69,3.8,1.34,5.49,2.36,5.09,3.07,8.49,7.51,10.24,13.23,1.42,4.63,4.52,7.89,8.87,9.9,2.82,1.31,5.75,2.37,8.65,3.55,6.32-12.26,10.89-32,8.15-44.59ZM601.89,115.56c4.55-9.05,10.17-17.3,16.11-25.36.37-.5.76-1.02,1.24-1.41,1.06-.86,2.24-.89,3.31-.07,1.11.84,1.53,1.99.88,3.33-.27.56-.64,1.08-1,1.59-2.64,3.8-5.49,7.48-7.88,11.42-2.89,4.77-5.42,9.77-8.05,14.7-.22.41-.06,1.02-.08,1.54.52-.02,1.09.09,1.55-.08,1.23-.46,2.43-1,3.6-1.58,7.86-3.9,15.02-8.91,22.1-14.05.69-.5,1.4-1,2.17-1.36,1.2-.56,2.26-.14,3.07.81.83.97.92,2.11.21,3.17-.37.55-.92,1.02-1.48,1.4-5.92,3.99-11.82,8.01-17.81,11.88-2.47,1.6-5.15,2.86-8.07,4.47,16.22,2.21,30.86-1.91,44.95-8.15-1.08-2.59-2.15-4.92-3.04-7.32-1.89-5.09-5.35-8.51-10.45-10.35-1.87-.68-3.79-1.35-5.48-2.38-5.08-3.08-8.43-7.54-10.21-13.26-1.56-4.99-5.01-8.34-9.83-10.29-2.53-1.02-5.05-2.05-7.8-3.17-6.22,14.05-10.34,28.69-8,44.51Z"/>
            <path class="cls-1" d="M576.48,114.43c3.88-.08,8.22,1.3,11.82,4.7,1.38,1.31,1.56,2.89.55,4.1-1.07,1.28-2.7,1.39-4.24.07-3.64-3.12-7.71-4.16-12.25-2.5-1.46.53-2.78,1.54-4.07,2.45-1.75,1.25-3.3,1.28-4.39-.06-1.02-1.26-.78-2.82.73-4.21,3.06-2.83,6.7-4.25,11.85-4.55Z"/>
            <path class="cls-1" d="M561.3,129.28c-.68,1.06-1.05,1.91-1.66,2.53-3.52,3.59-7.09,7.14-10.66,10.68-1.55,1.54-3.14,1.66-4.37.44-1.22-1.21-1.1-2.84.41-4.37,3.58-3.62,7.18-7.21,10.79-10.8.95-.94,2.11-1.63,3.37-.83.83.52,1.37,1.49,2.13,2.35Z"/>
            <path class="cls-1" d="M528.32,189.56c-.27.38-.66,1.32-1.36,1.85-3,2.26-6.07,4.43-9.16,6.58-1.48,1.03-3.15.73-4.08-.56-.89-1.24-.65-2.86.78-3.91,3.07-2.27,6.16-4.51,9.32-6.64,2.02-1.37,4.45-.15,4.5,2.69Z"/>
          </g>
          <path class="cls-1" d="M369.79,175.27c-.76-.6-1.6-1.14-2.28-1.83-9.9-9.87-19.78-19.76-29.65-29.66-.36-.36-.6-.84-1.06-1.49-.35.94-.51,1.42-.71,1.88-.81,1.93-2.83,2.47-4.5,1.18-.37-.28-.69-.63-1.02-.96-4.31-4.31-8.62-8.62-12.93-12.94-2.37-2.37-2.36-3.46.02-5.87.29-.3.57-.61.93-.99-.41-.43-.78-.84-1.17-1.23-12.83-12.84-25.67-25.67-38.51-38.51-2.3-2.3-2.31-3.51-.05-5.77,15.42-15.43,30.84-30.85,46.27-46.27,2.24-2.24,3.49-2.23,5.77.06,12.8,12.8,25.61,25.61,38.4,38.42.4.4.72.86,1.37,1.65.69-.84,1.15-1.55,1.76-2.11,1.36-1.28,2.93-1.31,4.25,0,4.87,4.81,9.72,9.65,14.52,14.53,1.61,1.64,1.01,3.92-1.12,4.76-.43.17-.86.32-1.77.65.66.46,1.14.7,1.5,1.06,9.89,9.87,19.78,19.76,29.65,29.65.68.69,1.22,1.52,1.83,2.28v1.41c-.64.79-1.22,1.65-1.94,2.37-15.26,15.28-30.52,30.55-45.8,45.81-.72.72-1.58,1.29-2.37,1.93h-1.41ZM414.24,124.29c-.06-.07-.19-.26-.35-.42-10.25-10.25-20.49-20.5-30.77-30.72-.32-.32-1.09-.48-1.55-.35-3.33.96-6.62,2.06-9.94,3.02-1,.29-1.53.75-1.84,1.78-1.76,5.88-3.63,11.72-5.37,17.6-.51,1.71-1.46,2.67-3.17,3.18-5.88,1.74-11.72,3.62-17.6,5.37-1.03.31-1.5.83-1.79,1.83-.92,3.19-1.9,6.37-2.97,9.52-.37,1.07-.1,1.67.65,2.42,9.94,9.89,19.85,19.82,29.76,29.74.36.36.59.85.81,1.17,14.88-14.88,29.49-29.49,44.14-44.14ZM329.75,79.27c5.62,5.61,11.34,11.32,16.88,16.85,6.5-6.5,13.11-13.11,19.66-19.67-5.57-5.58-11.26-11.28-16.86-16.89-6.58,6.59-13.19,13.21-19.68,19.71ZM342.23,100.77c-5.71-5.7-11.42-11.42-17.03-17.02-6.45,6.45-13.04,13.03-19.55,19.54,5.65,5.65,11.37,11.37,17.02,17.02,6.52-6.51,13.11-13.09,19.56-19.54ZM325.22,74.88c6.59-6.59,13.2-13.2,19.54-19.55-5.59-5.59-11.3-11.31-16.88-16.9-6.45,6.44-13.04,13.03-19.57,19.55,5.62,5.61,11.32,11.3,16.92,16.9ZM320.91,79.32c-5.64-5.64-11.35-11.36-16.86-16.87-6.5,6.51-13.1,13.13-19.66,19.7,5.55,5.55,11.25,11.23,16.86,16.83,6.54-6.53,13.13-13.12,19.66-19.66ZM332.14,137.76c.19-.57.36-1.04.51-1.52,1.47-4.74,2.99-9.46,4.39-14.23.49-1.66,1.39-2.6,3.06-3.09,5.97-1.78,11.89-3.69,17.86-5.49.88-.27,1.27-.7,1.53-1.56,1.82-6.01,3.71-11.99,5.53-17.99.45-1.48,1.28-2.4,2.81-2.82,2.17-.59,4.3-1.31,6.45-1.97,3.16-.98,6.31-1.97,9.31-2.9-3.07-3.12-6.11-6.2-8.92-9.05-17.18,17.16-34.42,34.38-51.59,51.53,2.9,2.91,5.91,5.93,9.07,9.09Z"/>
          <g>
            <path class="cls-1" d="M412.05,316.08c-.55-.68-1.25-1.29-1.63-2.05-4.47-8.98-7.35-18.39-7.58-28.5-.02-.96,0-1.93,0-2.85-1.78,1.05-3.45,2.27-5.29,3.08-8.04,3.55-16.65,1.92-23.03-4.32-4.63-4.53-9.23-9.11-13.75-13.75-7.65-7.86-8.21-18.94-1.49-27.62.14-.18.25-.38.38-.58-2.81-.16-5.55-.17-8.25-.48-8.48-.98-16.44-3.68-23.99-7.6-1.44-.75-1.73-2.07-.63-3.26,1.67-1.8,2.52-3.96,3.38-6.2,1.74-4.52,4.93-7.73,9.55-9.27,3.16-1.05,5.81-2.68,7.52-5.57.66-1.11,1.06-2.39,1.53-3.61,1.77-4.63,4.93-7.87,9.6-9.56,2.02-.73,3.95-1.53,5.56-3.02,1.55-1.43,2.84-1.11,3.79.81,4.9,9.86,8.05,20.14,7.69,31.29,0,.15.03.3.06.51,1.36-.87,2.6-1.8,3.95-2.52,7.81-4.19,17.21-3.09,23.62,2.99,5.17,4.91,10.24,9.95,15.13,15.14,7.03,7.46,7.35,18.66,1.02,26.69-.19.25-.36.51-.66.93,1.43,0,2.68-.03,3.94,0,8.02.19,15.6,2.33,22.96,5.35,1.59.65,3.16,1.38,4.67,2.19.76.41,1.38,1.07,2.06,1.62,0,.41,0,.82,0,1.23-1.92,2.07-3.13,4.51-4.11,7.16-1.64,4.41-4.86,7.4-9.28,9.08-1.22.46-2.5.86-3.61,1.51-2.93,1.72-4.58,4.41-5.64,7.61-1.51,4.53-4.63,7.75-9.08,9.41-2.65.99-5.09,2.19-7.16,4.11h-1.23ZM389.16,283.59c4.61-.11,8.55-1.74,11.81-5,4.59-4.58,9.2-9.13,13.74-13.76,6.62-6.75,6.63-16.76.02-23.51-4.56-4.66-9.17-9.27-13.84-13.83-6.76-6.61-16.76-6.6-23.51.03-4.66,4.56-9.27,9.17-13.83,13.84-6.57,6.72-6.58,16.7-.02,23.42,4.59,4.69,9.26,9.3,13.92,13.93,3.24,3.21,7.18,4.79,11.71,4.89ZM363.61,234.79c-.15-.14-.2-.21-.27-.24-6.42-3.08-12.27-7.08-17.98-11.29-.39-.29-.8-.6-1.09-.98-.58-.77-.6-1.62.04-2.37.61-.72,1.4-1.01,2.31-.57.44.21.84.5,1.25.78,2.73,1.89,5.37,3.93,8.19,5.65,3.31,2.02,6.78,3.79,10.21,5.62.37.2.89.13,1.34.18-.05-.48.02-1.02-.17-1.44-.82-1.78-1.74-3.52-2.58-5.3-.24-.5-.46-1.09-.43-1.62.05-.89.6-1.51,1.53-1.68,1.01-.19,1.77.21,2.26,1.09.87,1.61,1.71,3.23,2.74,5.18,1.61-11.7-1.36-22.19-5.82-32.31-1.83.77-3.49,1.54-5.2,2.17-3.66,1.33-6.12,3.81-7.46,7.46-.49,1.34-.96,2.72-1.69,3.93-2.2,3.65-5.38,6.09-9.49,7.34-3.32,1.02-5.66,3.24-7.1,6.36-.94,2.02-1.7,4.12-2.55,6.2,8.79,4.53,22.95,7.81,31.97,5.84ZM414.8,271.36c6.49,3.27,12.41,7.3,18.18,11.55.36.27.73.54,1.01.89.62.76.64,1.61.05,2.38-.61.79-1.43,1.09-2.39.63-.4-.19-.77-.46-1.14-.72-2.73-1.89-5.36-3.94-8.19-5.65-3.42-2.08-7.01-3.89-10.54-5.78-.29-.16-.73-.04-1.1-.06.01.37-.06.78.06,1.11.33.88.72,1.74,1.14,2.58,2.8,5.64,6.39,10.77,10.08,15.85.36.49.72,1,.97,1.55.4.86.1,1.62-.58,2.2-.7.59-1.51.66-2.28.15-.4-.26-.73-.66-1-1.06-2.86-4.25-5.74-8.48-8.52-12.77-1.14-1.77-2.05-3.69-3.2-5.79-1.58,11.63,1.37,22.13,5.84,32.24,1.86-.78,3.53-1.54,5.25-2.18,3.65-1.35,6.1-3.84,7.43-7.5.48-1.34.97-2.72,1.7-3.93,2.21-3.65,5.41-6.04,9.51-7.32,3.58-1.12,5.98-3.59,7.38-7.05.73-1.81,1.47-3.62,2.27-5.59-10.08-4.46-20.58-7.42-31.92-5.73Z"/>
            <path class="cls-1" d="M415.61,253.14c.06,2.78-.93,5.89-3.37,8.47-.94.99-2.07,1.12-2.94.39-.92-.77-1-1.94-.05-3.04,2.24-2.61,2.98-5.53,1.79-8.78-.38-1.05-1.1-1.99-1.76-2.92-.89-1.26-.92-2.37.04-3.15.91-.73,2.02-.56,3.02.53,2.03,2.19,3.05,4.81,3.27,8.5Z"/>
            <path class="cls-1" d="M404.96,242.25c-.76-.49-1.37-.76-1.82-1.19-2.58-2.53-5.12-5.08-7.66-7.65-1.1-1.11-1.19-2.25-.31-3.14.87-.88,2.04-.79,3.13.29,2.59,2.57,5.17,5.15,7.74,7.74.68.68,1.17,1.52.6,2.42-.37.59-1.07.99-1.68,1.53Z"/>
            <path class="cls-1" d="M361.73,218.61c-.27-.19-.95-.47-1.33-.98-1.62-2.15-3.18-4.35-4.72-6.57-.74-1.06-.53-2.26.4-2.92.89-.64,2.05-.46,2.8.56,1.63,2.2,3.23,4.42,4.76,6.68.98,1.45.11,3.19-1.93,3.23Z"/>
          </g>
          <path class="cls-1" d="M534.32,324.7c-.55-.43-1.14-.82-1.64-1.31-7.1-7.08-14.19-14.18-21.28-21.28-.26-.26-.43-.6-.76-1.07-.25.67-.37,1.02-.51,1.35-.58,1.39-2.03,1.77-3.23.85-.26-.2-.5-.45-.73-.69-3.09-3.09-6.19-6.19-9.28-9.28-1.7-1.7-1.7-2.48.01-4.21.21-.21.41-.44.67-.71-.29-.31-.56-.6-.84-.88-9.21-9.21-18.42-18.42-27.63-27.64-1.65-1.65-1.65-2.52-.03-4.14,11.07-11.07,22.13-22.14,33.2-33.21,1.61-1.61,2.5-1.6,4.14.04,9.19,9.19,18.37,18.38,27.56,27.57.28.28.52.62.98,1.18.49-.6.83-1.11,1.26-1.51.98-.92,2.1-.94,3.05,0,3.5,3.45,6.98,6.92,10.42,10.43,1.15,1.17.72,2.81-.81,3.42-.31.12-.62.23-1.27.46.47.33.82.5,1.08.76,7.1,7.09,14.2,14.18,21.28,21.28.49.49.88,1.09,1.31,1.64v1.01c-.46.57-.87,1.18-1.39,1.7-10.95,10.97-21.9,21.93-32.87,32.87-.51.51-1.13.93-1.7,1.38h-1.01ZM566.22,288.12s-.14-.19-.25-.3c-7.35-7.36-14.7-14.71-22.08-22.05-.23-.23-.78-.34-1.11-.25-2.39.69-4.75,1.48-7.14,2.17-.72.21-1.1.54-1.32,1.28-1.26,4.22-2.6,8.41-3.86,12.63-.36,1.23-1.05,1.91-2.27,2.28-4.22,1.25-8.41,2.6-12.63,3.86-.74.22-1.08.59-1.28,1.32-.66,2.29-1.36,4.57-2.13,6.83-.26.77-.07,1.2.46,1.73,7.13,7.1,14.25,14.22,21.36,21.34.26.26.42.61.58.84,10.68-10.68,21.16-21.16,31.68-31.68ZM505.58,255.81c4.03,4.03,8.14,8.12,12.11,12.09,4.66-4.66,9.4-9.41,14.11-14.11-4-4-8.08-8.1-12.1-12.12-4.72,4.73-9.47,9.48-14.13,14.14ZM514.54,271.24c-4.09-4.09-8.2-8.19-12.22-12.22-4.63,4.63-9.36,9.35-14.03,14.02,4.05,4.05,8.16,8.16,12.22,12.22,4.68-4.67,9.41-9.4,14.04-14.02ZM502.34,252.66c4.73-4.73,9.47-9.47,14.02-14.03-4.01-4.01-8.11-8.12-12.12-12.12-4.63,4.62-9.36,9.35-14.05,14.03,4.03,4.03,8.12,8.11,12.14,12.12ZM499.24,255.84c-4.05-4.05-8.14-8.15-12.1-12.11-4.67,4.67-9.4,9.42-14.11,14.13,3.99,3.98,8.08,8.06,12.1,12.08,4.69-4.69,9.42-9.42,14.11-14.11ZM507.3,297.78c.14-.41.26-.74.36-1.09,1.06-3.4,2.15-6.79,3.15-10.21.35-1.19,1-1.86,2.19-2.22,4.28-1.28,8.54-2.65,12.81-3.94.63-.19.91-.5,1.1-1.12,1.3-4.31,2.66-8.6,3.97-12.91.32-1.06.92-1.72,2.02-2.02,1.56-.42,3.09-.94,4.63-1.42,2.27-.7,4.53-1.41,6.68-2.08-2.21-2.24-4.38-4.45-6.4-6.5-12.33,12.31-24.7,24.67-37.02,36.98,2.08,2.09,4.24,4.25,6.51,6.53Z"/>
        </g>
        <g>
          <path d="M657.36,121.89c-4.04,15.28-8.18,30.54-12.12,45.85-11.15,43.38-22.18,86.79-33.35,130.16-6.71,26.07-26.83,41.53-53.86,41.56-24.11.03-48.23.08-72.34-.08-3.46-.02-4.82.94-5.92,4.32-5.2,15.99-19.36,26.07-36.43,26.1-39.63.08-79.26-.02-118.88.12-2.86.01-6.01.85-8.51,2.23-16.5,9.14-32.84,18.57-49.29,27.83-3.83,2.15-6.84,4.79-5.63,9.56,1.27,5,5.25,5.87,9.88,5.87,110.45-.05,220.9-.04,331.36-.03,12.1,0,20.81,6.09,23.79,16.51,3.96,13.86-5.83,27.91-20.21,28.95-1.34.1-2.7.06-4.05.06-110.45,0-220.9.02-331.36,0-26.38,0-47.2-15.65-53.51-40.04-5.82-22.47,3.51-46.11,23.5-58.15,14.14-8.51,28.61-16.47,43.03-24.51,2.94-1.64,3.9-3.08,2.97-6.68-19.08-74.02-37.95-148.1-56.94-222.15-4.89-19.08-19-29.93-38.56-30-9.27-.03-18.55.05-27.82-.02-13.67-.1-23.87-9.95-23.8-22.9.07-12.72,10.21-22.72,23.57-22.56,14.98.18,30.3-.99,44.85,1.75,34.9,6.59,56.59,28.58,66.04,62.71,1.21,4.35,2.26,8.74,3.45,13.39h6.75c120.74,0,241.48.02,362.21-.07,4.73,0,8.63.83,11.17,5.13v5.06ZM464.97,339.47h-5.96c-43.16,0-86.33,0-129.49,0-8.69,0-10.03-1.08-12.18-9.46-19.53-76.33-39.06-152.66-58.6-228.99-2.44-9.52-6.43-18.25-12.67-25.8-3.8,3.66-7.27,6.99-10.07,9.68,2.94,7.37,6.46,13.99,8.28,21.05,19.71,76.28,39.17,152.64,58.68,228.97,1.78,6.95.77,9.16-5.55,12.74-15.82,8.97-31.68,17.88-47.44,26.96-12.17,7-18.93,17.66-19.49,31.68-.89,22.28,16.38,39.4,39.5,39.4,110.44.04,220.88.02,331.32.02.67,0,1.35.02,2.02,0,5.1-.2,8.4-3.12,8.47-7.47.07-4.36-3.23-7.46-8.24-7.69-1.51-.07-3.03-.02-4.55-.02-76.55,0-153.1,0-229.65,0-33.05,0-66.1-.04-99.14.03-6.14.01-11.69-1.37-16.43-5.36-12.41-10.43-10.61-29.03,3.86-37.48,15.71-9.17,31.77-17.75,47.37-27.09,7.35-4.4,14.74-6.24,23.34-6.16,38.1.36,76.21.18,114.32.13,10.8-.01,18.39-5.1,22.31-15.16ZM415.68,127.27h-59.5c6.45,42.05,12.87,83.91,19.32,125.92h46.62c-.94-18.52-1.86-36.76-2.81-55.41-2.31,0-4.13,0-5.95,0-8.25,0-16.51.12-24.76-.07-4.7-.11-7.66-3.41-7.54-7.74.11-4.1,3.01-7,7.48-7.32,1.84-.13,3.7-.04,5.56-.04,8.03,0,16.06,0,24.46,0-.97-18.76-1.91-36.89-2.87-55.33ZM281.12,127.15c4.77,18.63,9.46,36.97,14.13,55.21h54c-2.87-18.65-5.68-36.98-8.49-55.21h-59.64ZM433.75,182.39h53.93c.94-18.44,1.88-36.69,2.82-55.11h-59.62c.96,18.46,1.9,36.57,2.87,55.11ZM556.79,182.34c2.83-18.45,5.63-36.68,8.46-55.07h-59.53c-.94,18.53-1.85,36.75-2.78,55.07h53.85ZM625.81,182.45c4.74-18.56,9.38-36.78,14.06-55.13h-59.28c-2.83,18.52-5.6,36.69-8.41,55.13h53.63ZM299.21,197.95c4.82,18.84,9.49,37.05,14.11,55.12h46.79c-2.87-18.63-5.68-36.83-8.49-55.12h-52.41ZM437.34,253.19h46.74c.93-18.47,1.85-36.69,2.77-55.12h-52.31c.94,18.55,1.87,36.8,2.8,55.12ZM554.36,198.2h-52.29c-.93,18.49-1.84,36.59-2.76,54.97h46.62c2.82-18.34,5.61-36.57,8.44-54.97ZM561.3,253.22h46.4c4.71-18.42,9.37-36.66,14.1-55.17h-52.04c-2.83,18.44-5.63,36.68-8.46,55.17ZM317.32,268.78c4.83,18.81,9.52,37.14,14.14,55.14h39.53c-2.87-18.62-5.68-36.85-8.51-55.14h-45.16ZM483.29,268.93h-45.13c.95,18.54,1.89,36.76,2.83,55.07h39.44c.96-18.39,1.9-36.51,2.86-55.07ZM422.94,268.87h-45.04c2.85,18.55,5.65,36.78,8.47,55.09h39.4c-.95-18.48-1.88-36.62-2.83-55.09ZM498.51,268.87c-.96,18.58-1.9,36.71-2.85,55.14h39.42c2.8-18.32,5.58-36.57,8.42-55.14h-44.99ZM558.9,268.8c-2.82,18.42-5.62,36.75-8.48,55.47,4.03,0,7.39.18,10.72-.03,15.86-1.01,27.82-8.43,33.65-23.28,4.01-10.22,6.1-21.2,9.14-32.16h-45.03ZM234.6,63.81c-7.7-6.38-16.31-11.53-25.99-12.53-15.65-1.61-31.46-1.73-47.22-2.07-4.18-.09-6.63,3.06-6.84,7.33-.2,3.99,2.91,7.38,7.21,7.57,5.71.25,11.44.23,17.15.06,15.97-.48,31.7-.05,44.94,10.4,3.74-3.75,7.14-7.15,10.75-10.76Z"/>
          <path d="M308.28,551.99c-3.18-1.06-6.45-1.88-9.51-3.2-17.08-7.35-26.2-26.04-21.68-44.19,4.39-17.6,21.49-29.81,39.79-28.41,18.16,1.39,33.03,16.08,34.78,34.37,1.74,18.14-10.16,35.22-27.95,40.13-1.44.4-2.87.87-4.3,1.3h-11.13ZM291.09,514.09c.03,12.53,10.39,22.79,22.93,22.71,12.31-.08,22.48-10.24,22.58-22.56.1-12.54-10.15-22.92-22.68-22.95-12.55-.04-22.85,10.26-22.82,22.81Z"/>
          <path d="M568.32,551.99c-3.18-1.06-6.45-1.88-9.51-3.2-17.08-7.35-26.2-26.04-21.68-44.19,4.39-17.6,21.49-29.81,39.79-28.41,18.16,1.39,33.03,16.08,34.78,34.37,1.74,18.14-10.16,35.22-27.95,40.13-1.44.4-2.87.87-4.3,1.3h-11.13ZM574.02,491.29c-12.55-.07-22.89,10.21-22.89,22.74,0,12.34,10.05,22.58,22.36,22.77,12.55.19,23.01-9.97,23.15-22.49.13-12.55-10.09-22.95-22.62-23.02Z"/>
          <path d="M313.89,521.6c-4.19.03-7.71-3.57-7.6-7.77.11-4,3.51-7.33,7.5-7.36,4-.03,7.43,3.26,7.6,7.26.17,4.19-3.3,7.84-7.5,7.87Z"/>
          <path d="M574.13,506.49c4,.14,7.31,3.56,7.31,7.55,0,4.2-3.62,7.7-7.81,7.56-4.2-.15-7.57-3.87-7.29-8.06.27-4,3.79-7.19,7.78-7.05Z"/>
        </g>
      </g>
    </g>
  </g>
</svg>