<?xml version="1.0" encoding="UTF-8"?>
<svg xmlns="http://www.w3.org/2000/svg" version="1.1" viewBox="0 0 841.89 595.28">
  <!-- Generator: Adobe Illustrator 28.6.0, SVG Export Plug-In . SVG Version: 1.2.0 Build 709)  -->
  <g>
    <g id="Layer_1">
      <g>
        <path d="M325.15,489.27c-3.63-1.23-7.45-2.06-10.84-3.76-11.8-5.91-18.98-15.51-19.84-28.73-1.58-24.26-2.55-48.56-3.72-72.85-1.94-39.98-3.84-79.96-5.74-119.94-.41-8.57-.79-17.15-1.2-26.23-2.12,0-4.07.03-6.02,0-7.43-.13-12.45-5.07-12.49-12.48-.06-13.84-.12-27.69.01-41.53.16-16.59,13.17-29.66,29.76-29.78,20.83-.15,41.65-.04,62.48-.04.99,0,1.98,0,3.53,0,0-3.33,0-6.52,0-9.7.02-22.98,15.22-38.19,38.19-38.21,14.72,0,29.43-.03,44.15,0,21.97.04,37.36,15.46,37.43,37.46.01,3.34,0,6.68,0,10.44,1.63,0,2.96,0,4.29,0,19.95,0,39.91-.02,59.86,0,18.95.02,31.63,12.71,31.66,31.69.02,12.72.01,25.44,0,38.16,0,9.43-4.55,13.96-14.01,13.98-1.36,0-2.72,0-4.42,0-.27,4.65-.57,9.08-.78,13.53-1.6,33.75-3.15,67.51-4.77,101.26-1.66,34.62-3.18,69.26-5.17,103.86-.94,16.35-12.85,29.01-29.04,32.2-.58.12-1.13.43-1.69.65h-191.63ZM307.81,237.88c.39,8.71.73,17.04,1.13,25.37,1.91,40.11,3.84,80.21,5.75,120.32,1.08,22.67,2.08,45.34,3.24,68.01.5,9.82,4.86,13.74,14.76,13.74,58.99,0,117.98,0,176.97,0,9.36,0,13.73-4.03,14.31-13.42.46-7.34.69-14.7,1.03-22.05,1.34-28.4,2.66-56.8,4.02-85.2,1.64-34.25,3.3-68.5,4.94-102.76.06-1.31,0-2.62,0-4.01h-226.16ZM552.71,213.69c0-9.21,0-18.05,0-26.89,0-7.34-1.61-8.92-9.04-8.92-81.8,0-163.6,0-245.4,0-.5,0-1,0-1.5,0-5.41.06-7.51,2.09-7.54,7.42-.03,8.6-.02,17.21,0,25.81,0,.83.16,1.66.25,2.58h263.22ZM385.07,153.66h71.79c0-4.36.18-8.48-.04-12.56-.34-6.12-5.35-11.02-11.55-11.07-16.21-.13-32.41-.13-48.62,0-6.18.05-11.22,4.99-11.55,11.08-.22,4.09-.04,8.2-.04,12.55Z"/>
        <path d="M349.11,351.55c0-25.7-.03-51.39.02-77.09.02-9.16,8.13-15.11,16.22-11.92,4.57,1.8,7.09,5.33,7.66,10.2.13,1.11.06,2.24.06,3.37,0,50.27,0,100.54,0,150.81,0,1.62.05,3.27-.26,4.84-1.22,6.03-6.88,10.15-12.9,9.55-6.02-.61-10.7-5.63-10.74-11.92-.09-15.09-.03-30.19-.04-45.28,0-10.85,0-21.7,0-32.56Z"/>
        <path d="M408.99,351.54c0-25.7-.03-51.39.02-77.09.02-9.16,8.14-15.1,16.23-11.9,4.57,1.81,7.09,5.34,7.65,10.21.13,1.11.06,2.24.06,3.37,0,50.27,0,100.54,0,150.81,0,1.62.05,3.27-.27,4.84-1.23,6.03-6.89,10.15-12.91,9.54-6.02-.61-10.69-5.63-10.73-11.93-.09-15.34-.03-30.69-.04-46.03,0-10.6,0-21.21,0-31.81Z"/>
        <path d="M492.82,351.54c0,25.7-.01,51.39,0,77.09,0,5.4-2.29,9.43-7.2,11.67-4.66,2.12-9.04,1.21-12.85-2.15-3.01-2.66-3.96-6.14-3.94-10.09.06-20.33.03-40.66.03-61,0-30.81-.02-61.62.01-92.43.01-9.36,8.25-15.34,16.43-12.05,4.78,1.92,7.5,6.29,7.5,12.25.02,25.57,0,51.14,0,76.71Z"/>
      </g>
    </g>
  </g>
</svg>