<?xml version="1.0" encoding="UTF-8"?>
<svg xmlns="http://www.w3.org/2000/svg" version="1.1" viewBox="0 0 792 612">
  <!-- Generator: Adobe Illustrator 28.6.0, SVG Export Plug-In . SVG Version: 1.2.0 Build 709)  -->
  <g>
    <g id="Layer_1">
      <g id="_x36_3bZAG">
        <g>
          <path d="M302.2,307.6c6.5-6.8,12.9-13.7,19.5-20.4,6.3-6.5,12.9-6.6,19.4-.1,9.8,9.7,19.4,19.6,29.4,29.8,3.4-3.2,6.4-6,9.3-8.9,13.8-13.7,27.6-27.4,41.4-41.1,8.1-8.1,14-8,22.1,0,11.3,11.3,22.7,22.5,33.7,34,1.6,1.7,2.7,5.1,2.2,7.3-.7,3.7-5.4,3.7-8.8.3-11.3-11.2-22.7-22.4-33.8-33.9-3.5-3.7-5.4-3.6-9,0-22.6,22.8-45.4,45.3-68.2,67.9-.7.7-1.4,1.4-2.1,2.1-2.4,2.4-5.3,3.5-7.8.9-2.6-2.6-2.1-5.7.7-8.3,4.4-4.2,8.8-8.5,13-12.6-10.9-10.9-21.4-21.4-33.4-33.5-3,3.6-5.8,7.5-9,11-3.9,4.3-7.8,8.7-12.4,12.3-6.8,5.2-9.1,11.6-8.1,19.9.5,3.8,0,7.6.1,11.5,0,9.7,3.1,12.7,12.9,12.7,25.8,0,51.5,0,77.3,0,3.8,0,7.6,0,11.5,0,3.3,0,6,1.3,5.9,5.1,0,3.8-2.7,5.1-6.1,5.1-30.9,0-61.8.2-92.7-.1-11-.1-18.9-8.7-18.9-19.8-.1-40.4-.1-80.8,0-121.1,0-12.2,8.8-20.1,21.7-20.1,37.9,0,75.8,0,113.7,0,17.9,0,35.9,0,53.8,0,14.2,0,22.2,7.9,22.2,22.2,0,28.4,0,56.8,0,85.2,0,.8,0,1.7,0,2.5,0,3.7-1.5,6.5-5.3,6.4-3.6,0-4.8-2.8-4.8-6.2,0-15.3,0-30.6,0-45.9,0-14,0-27.9,0-41.9,0-8.6-3.4-12.1-12.1-12.1-55.7,0-111.3,0-167,0-8.7,0-12.1,3.4-12.1,12.1,0,24.3,0,48.5,0,72.8,0,1.3.1,2.6.2,3.9.5.4,1.1.8,1.6,1.2Z"/>
          <path d="M461.1,322.6c23.3.7,41.3,19.3,40.6,42-.7,22.3-19.8,40.6-41.8,40-23.9-.7-41.7-20.9-40.2-44.4,1.3-20.4,20.2-38.2,41.4-37.6ZM460.7,332.8c-17.3,0-30.7,13.5-30.8,31,0,16.8,14,30.6,30.9,30.5,16.8-.2,30.9-14.2,30.8-30.8,0-16.8-14-30.6-30.9-30.6Z"/>
          <path d="M383.1,248.4c0,11-8.6,19.8-19.3,19.8-10.5,0-19.4-8.9-19.6-19.3-.2-10.7,8.7-19.6,19.5-19.6,10.7,0,19.3,8.5,19.4,19.2ZM373,248.7c.1-5-4-9.3-9-9.4-5.1-.2-9.8,4.3-9.7,9.3,0,4.6,4.8,9.4,9.4,9.3,4.8,0,9.2-4.4,9.3-9.3Z"/>
          <path d="M454.9,362.5c-2,1.8-3.5,3.9-5.5,4.7-2,.7-5.3.9-6.5-.3-1.2-1.2-1.5-5.2-.4-6.4,4.6-5.4,9.7-10.4,15.1-15.1,1.2-1.1,5.1-.8,6.4.3,5,4.3,9.5,9.2,14.1,14,2.3,2.4,2.7,5,.2,7.4-2.5,2.4-5.3,1.8-7.4-.6-1.3-1.4-2.1-3.3-3.1-5l-2,1.4c0,3.6,0,7.1,0,10.7,0,4,.6,8.4-5,9.2-3.8.5-5.1-2-5.2-8.8,0-3.3,0-6.6,0-9.9,0-.3-.2-.6-.7-1.6Z"/>
        </g>
      </g>
    </g>
  </g>
</svg>