<?xml version="1.0" encoding="UTF-8"?>
<svg xmlns="http://www.w3.org/2000/svg" version="1.1" viewBox="0 0 841.89 595.28">
  <!-- Generator: Adobe Illustrator 28.6.0, SVG Export Plug-In . SVG Version: 1.2.0 Build 709)  -->
  <g>
    <g id="Layer_1">
      <path d="M432.94,501.95h-24c-5.4-.64-10.82-1.19-16.21-1.95-40.38-5.69-76.09-21.79-106.65-48.74-36-31.73-58.51-71.22-66.8-118.56-1.34-7.68-2.11-15.46-3.15-23.2,0-7.99,0-15.97,0-23.96.62-5.24,1.14-10.5,1.88-15.73,5.64-40.15,21.28-75.96,48.38-106.18,48.75-54.36,109.94-77.2,182.41-68.51,40.75,4.89,76.61,21.76,107.32,48.94,35.81,31.7,58.22,71.09,66.46,118.28,1.34,7.68,2.11,15.46,3.15,23.19v23.96c-.25,1.41-.54,2.81-.73,4.23-.97,7.37-1.55,14.82-2.93,22.12-7.75,40.72-26.32,75.9-55.51,105.31-30.6,30.84-67.37,50.26-110.33,57.65-7.72,1.33-15.53,2.11-23.3,3.15ZM372.36,317.49c-47.25-33.94-46.44-94.44-16.09-128.03,31.97-35.39,85.8-39.24,120.72-8.48,18.97,16.71,29.47,37.69,29.96,62.93.6,30.72-12.53,55.04-37.57,73.59,22.06,8.43,40.66,20.92,56.08,38.02,15.47,17.17,25.95,37.04,31.94,59.59,57.48-63.72,65-176.59-14.09-250.29-75.45-70.3-197.6-61.61-262.26,18.46-65.57,81.19-42.88,182.82,3.41,231.38,13.26-46.61,42.6-78.78,87.9-97.16ZM424.18,478c4.15-.34,11.61-.72,19.01-1.6,34.35-4.11,64.81-17.41,91.65-39.07.96-.77,1.68-2.67,1.51-3.9-9.16-65.16-70.06-109.72-134.77-98.71-50.09,8.52-88.54,47.94-95.99,98.59-.19,1.31.62,3.35,1.66,4.18,33.16,26.64,71.11,39.96,116.93,40.51ZM420.8,308.24c34.05.19,61.96-27.4,62.38-61.68.42-33.92-27.83-62.32-62.09-62.42-34.08-.1-61.93,27.46-62.38,61.73-.45,33.96,27.64,62.18,62.09,62.37Z"/>
    </g>
  </g>
</svg>