<?xml version="1.0" encoding="UTF-8"?>
<svg id="Layer_1" xmlns="http://www.w3.org/2000/svg" version="1.1" viewBox="0 0 792 612">
  <!-- Generator: Adobe Illustrator 29.0.0, SVG Export Plug-In . SVG Version: 2.1.0 Build 186)  -->
  <defs>
    <style>
      .st0 {
        fill: #fc5f31;
      }

      .st1 {
        fill: #904220;
      }

      .st2 {
        fill: #ed4e1f;
      }

      .st3 {
        fill: #f75323;
      }

      .st4 {
        fill: #e9cc05;
      }

      .st5 {
        fill: #e44f2a;
      }

      .st6 {
        fill: #401c1c;
      }

      .st7 {
        fill: #fd9685;
      }

      .st8 {
        fill: #fd7257;
      }

      .st9 {
        fill: #c74727;
      }

      .st10 {
        fill: #fefefe;
      }

      .st11 {
        fill: #dae1e2;
      }

      .st12 {
        fill: #7d391c;
      }

      .st13 {
        fill: #058f4a;
      }

      .st14 {
        fill: #da8843;
      }

      .st15 {
        fill: #829a84;
      }
    </style>
  </defs>
  <g id="lCL9WL">
    <g>
      <path class="st13" d="M203.4,183.2c-1.1,1.8-1.8,4.2-3,6s-1.3,1.9-2,3c-1,1.5-3.6,2.5-4.5,6-3.4,13,3.1,13.2,7.5,21s1.9,4.9,2,6c.3,2.7,0,8.6-1,11-1.9,4.9-7.4,7.2-8,14.4-1.2,13.1,7.5,13.9,9,23.1s.1,10.8-1.9,14.4-5.5,5.1-6.5,9c-2.4,9.2,1.6,15.5,7.5,22,.2,4.4,1.7,7.9.8,13.2-1.5,8.5-9.8,9.7-8.8,22.2.6,7.6,6.7,10.1,8.4,16.6,4.3,16.5-9.1,18-9.4,30.3-.2,9.1,5.2,10.4,8.1,16.5s1.8,6.2,2,9,0,.7,0,1v1c-8.7,1.1-17.2,1.3-25.9,1v-247.5c8.1.4,18.1-.9,25.9,1Z"/>
      <path class="st13" d="M591.6,183.2c7.6-.7,15.2-1.5,23-1v247.5c-6.7-.4-14,.6-20.5,0s-2.1-1-2.4-1c.4-2.4-.5-5.9,0-8s6-8.1,7.5-10.9c8.6-16.3-6.7-19.1-8.5-28.5-2.6-13.9,9.8-17.3,10-28.9s-15.3-17.1-9-32.5,5.9-6.8,7.4-10.1c8.1-17.4-15-21.6-6.9-39.8,1.5-3.3,5.4-6,6.9-9.1,9.1-18.7-18.4-22-3.4-44.8,1-1.6,3.5-2.7,4.7-5.8,2.6-6.5,1.3-15.2-4.7-19.2s-.6-.9-1-1-.7,0-1,0c.5-1.4-.7-2.3-1-3-.4-1.3-.6-2.7-1-4Z"/>
      <path class="st0" d="M205.4,184.2c20.8,2.6,41.5,5.4,62.4,7,75.4,5.6,150.5,2.6,225.6,2.9.6,0,.1-2.1.9-1.9,2.6.7,1,2.2,5.5,1h4c3.8,0,14.3-1.5,19.5-2,21.6-1.8,42.9-4.6,64.3-7-5,2.9-11.7,7.5-17,9.5-15.7,6-30.9,9-47.5,10.4-10.4.9-20.9,1.3-31.3,1.1-4.4-1.3-15.2-3.8-19.4-3.1s.3,6.3-4.1,7l-46.9-1c-11-1.9-23.8-3-35-2.1s-2.4.1-3.4,2.1c-.3-.2-2.2.1-3,0-4.9-.9-8,1.9-12.5,2s-4.2-.9-6.4-1c-.9-3.1,3.6-2.4,4-3,1.9-3-4.5-4.7-7-4.9v6c-7.2-2.1-4.7.2-6,1s-6-1.7-5,2c-1,0-2,0-3,0,.6-3.2-1.6-1.7-4-2-3.4-.4-6.5-.9-10-1-3.9-2.5-6,1.3-4.5-5-3.7,1.3-2.4,2.9-2.7,3.5-.5,1.1-3.3-.1-3.8,1.5-1.3,0-2.7,0-4,0-2.9-1.4-6.8-1.8-10-2s-5.3,0-8,0c-7,0-10.4-.5-17-1s-3.4,0-5,0l1-5-3.5,5c-.8-3.3-1.2-1.1-4-1-12.4.5-36.2-4.2-47.5-9.5-5.5-2.6-10.9-7.1-15.9-9.5ZM539.7,195.2h-6c-1.7,6.4,7.7,6.4,6,0ZM459.9,206.2c2.3-2.3-4.1-6.3-5-2.5s4.3,3.1,5,2.5Z"/>
      <path class="st8" d="M205.4,184.2c5,2.4,10.5,7,15.9,9.5,11.2,5.3,35.1,10,47.5,9.5s3.1-2.3,4,1l3.5-5-1,5c-5.8.1-12.2,1.2-18.5,1-7.8-.2-21.3-4-10.9,9.9,4.9,6.5,8.1,3.3,14.9,4.1s7.6,2.1,11,2.1c6.8,0,14.7-2,22-1.1,5.7.7,3.4,3.8,12.4,2s3.3-.6,5-1l2,4v-4c6.1,2.5,4.4-.5,5-1,7.1-6.2,30.7,5.7,38.6,5.9s6.1-1.5,9.3-.9c.3.4.7.7,1,1,0,.5.9,1.4,1,2s0,1.4,0,2c-2.7-.1-5.2.9-8,1s-4.7-.1-7,0-1.3,0-2,0c-8.3-5.5-16.2,1.6-23.6,1.9s-11.9-2.4-18.9-2c-4.6.3-12.6,3.4-16,1.1s-1.9-3.4-3.1-4.1c-5.3-3.3-15.9-2.1-21.3,1.1-.4,0-1.9,0-2,0-2.4,0-3.5-.7-3,2-3.2.6-3.1.3-6,0-8.8-1-6.1-2.2-11.6-4.9s-11.8-3.4-14.8-8.2-2.1-7.4-3.3-9.7-2.1-1.1-2.3-1.2c-.3-.3.6-2.1-.5-2s-.2,3.2-3.5,2c-.1-1,.2-2.1,0-3,3.4.4,2.1-2,1-3.5-1.6-2.3-6.3-5.4-9-6.4-2.9-3.3-6.7-4.3-11-5s-1.3,0-2,0c1.2-1.7,1.9-4.1,3-6,1.3.3,1.4.7,2,1Z"/>
      <path class="st12" d="M361.1,412.8c-1.8,2.7-1,1.9,1.5,2,41.4,2,83.9,0,125.8,2,1.9,0,3.7.5,5.4,1-.4,0-1.2,1.1-2,1-87.6-4.8-187.5-3.9-274.5,7l-1-1c.6-.1,1.4,0,2,0,2.2-.3,3.5,1,3-2,.7,0,1.3,0,2,0,4.1-.3,6.5-1.3,10.6-1.9,32.7-4.4,67.7-5.5,100.7-7.1,8.8-.4,17.7.8,26.4-1Z"/>
      <path class="st8" d="M591.6,183.2c.4,1.3.6,2.7,1,4-1.3.1-2.2,1.6-3,2-2.7,1.3-2.4-1-5,4-2.2-.2-3.1,2.3-4.7,2.8-4.2,1.2-10.8-1.1-12.3,6.2-1.4-.3-3.4,0-5,0-10.1-.6-23.8,2.9-31.9,10l-13.5-3h-17c-3.7,0-7.7-3.8-8.5-4,10.5.2,20.9-.2,31.3-1.1,16.6-1.4,31.8-4.4,47.5-10.4,5.2-2,12-6.6,17-9.5.7,0,2-.8,4-1Z"/>
      <path class="st1" d="M568.7,420.7c.3,0,.7,0,1,0-.6,3,1.6,1.7,3.2,2.3,3.9,1.4,8.9,3.6,12.8,4.7-12.6-.8-24.9-3.7-37.4-5-18.1-1.8-38.4-3-56.4-4,.8,0,1.6-.9,2-1,1.3-.3,4.3-.8,5.5-.8,22.3-.1,46.5,3.4,69.4,3.8Z"/>
      <path class="st9" d="M591.6,420.7c-.5,2.1.4,5.6,0,8-2.3-.4-3.4-.3-6-1-3.9-1.1-8.8-3.3-12.8-4.7s-3.8.8-3.2-2.3c7.3,0,14.7,0,22,0Z"/>
      <path class="st1" d="M216.4,424.7l1,1c-4.1.5-9.1,2.4-14,3v-1l2-1c.3,0,.7,0,1,0,3.3-.5,6.7-1.5,10-2Z"/>
      <path class="st12" d="M503.8,193.2h-4c3.7-.9,2.5,0,4,0Z"/>
      <path class="st3" d="M202.4,189.2c4.3.7,8.1,1.7,11,5s.3,1.8,1.4,3c2.2,2.4,6.1,4.4,6.6,7s-.1,2,0,3c3.2,1.2,2.8-1.9,3.5-2,1.1,0,.2,1.7.5,2,1.6,4.5.8,11.7,4.1,15.4s7.4,3,10.9,4.6c-2.8,1.6-3.8,4.1-3,7.3s1.1,1.2,2,3.7c1.7,4.9.5,9,8,8-9.8,9.5-30,42.2-24.2,55.6,2.7,6.2,10.5,3.8,14.2-.3l8-12.5c-.6,4.9,1,12.7,6,15-2.7,6.1.6,4.5,1,5,2.3,2.6,6.3,18.6,8,23-8.8-.9-6,.9-10.5,7-3.8-7.7-6.5-6.1-14.5-6,0,9.1-.4,17.9,1,27s.4,8.7,8.6,9.9c1.5.2,9.4-.9,8.4,1.6s-8.9,4.2-10.5,7.5,3.7,10.6-6.5,13.5c-6,1.7-3-.9-4.2-2.3s-1.6-.1-1.8-.2c-3.9-3.4-9.9-6.8-14-2s-1-.1-1,0c-2.7,5.2.2,13.7-1,19s-9.9,9.5-13,11c-2.9-6-8.3-7.4-8.1-16.5.3-12.2,13.7-13.8,9.4-30.3-1.7-6.5-7.7-9-8.4-16.6-1-12.5,7.3-13.7,8.8-22.2s-.6-8.8-.8-13.2c-.3-8.8-1.1-17-.5-25.9s-.3-3.3-.5-5c2.1-3.6,2.6-10.3,1.9-14.4-1.5-9.2-10.2-10-9-23.1.7-7.2,6.1-9.5,8-14.4,6.8,4.7,8.5-11.3,5.9-13s-2.9,2.6-4.9,2c-.1-1.1-1.5-5.1-2-6,.9-1.9.2-7.2-.4-9.1s-3.5-2.8-3.6-3.6c-.2-1.3,1-2.7,1.1-3.3,1.2-4.6,1.6-9.4,4-14ZM216.9,245.1c-2.5.5-2,6.6,1,6s2-6.6-1-6ZM205.4,337.9c9.8,1.3,10.7-11.2,5.5-17-4.5-1-5.7,14-5.5,17ZM218.6,325.2c-4.5,6.4,5.4,11.2,6.5,3.9s-5-6-6.5-3.9Z"/>
      <path class="st2" d="M239.3,359.9v1c1.4,6.5,8.2,3,12.4,3,8.8-.2,17.7.3,26.5,0v2c-1.5,0-8.7,1.1-9.1,2.6,2.1,16.8,22,4.7,33,7.4-.3,3.9.7,4.6,4.8,5.7s5.5-1.4,6-1.9.5-6.5.2-7.3-2.7-1.5-4.1-2.6-2.4-1.2-2-3c3.7,0,7.3-.7,11-1,1,9.7,12.8,2.4,18.4,3s4.3,2,6.6,2.5,9.6,1.3,11.4,2.4.4,1.7.6,2.1c.7,1.4,3.8,6.2,3,7s-2.5.3-3.3-1.3.1-5.3-3.5-3.4.6,2.5-3.2.6c.8,2.4,0,4.8,0,7s0,1.4,0,2c.3,2.9,2.3,1.8,2,2.5s-2.6,1.5-2,3.5c2.6-.9,4.4-.9,7,0-1.8-4.1.8-3.6,4-5,1.1,4.1-3.3,5.2-3,9-10,.4-14.5,1.7-23.5,2.9-6.9,1-14.6,2-21.4,1.1,0-1.6,0-5.7-2-6v4s-3-1-3-1c.2,1.6-.3,3.5,0,5-.9.1-2.2-.2-3,0v-7c-1.6-.7-2.6.9-3,1s-1.9,0-2,0c-.2-.3.2-1.8,0-2-.5-.6-1.9,1-2,1-1.9,0-1.7-.4-4,0s-2-.1-3,0c.4,2.3.7,4.7,1,7-7.3,2-3.8,0-5.3-1.7s-1.7-.2-1.7-.3c-.6-1,1.3-3.9-2-3v5h-2c-.4-.7-1.8-1.5-2-2-.4-.9.6-5.7-2.5-5s-1.7,4.4-1.5,6c-.7.3-2.9.9-3,1v-6s-3,0-3,0v7c-1.7,0-2.6.2-4,1l1-8h-5.5c-1.2,0,.5.9.5,1-.1.3.2.8-.5,1h-1.5c0-2,.4-2.2-2-2l-1,4-2-4,2,8c-2.8-.4-4.2.8-6,1-3.3-1.4-1.3-2.5-1-5,3.9.6,2.4-.7,3-2s1.5-.4,1-2c-8.8,0-10-1.8-11,7s.4,3.3-.1,3.9-2.6.2-3.6.9c-8.5,5.3-18.4,9.9-27.5,14.5s-3.3,0-2.8,2.7c-.3,0-.7,0-1,0-.7,0-1.3,0-2,0-.2-2.8-.8-6.5-2-9,3.1-1.5,12.3-7.9,13-11h1c.3,0,.7,0,1,0,2.7,4.5,8.7,3,13,2s1.3.1,2,0c.1-.6,0-1.3,0-2s0-2.1,0-3c-.1-1.9-1-3.5-1-4-.3-3.3.2-6.7,0-10,.1.1,1.3-.4,1.8.2,1.2,1.4-1.8,4,4.2,2.3,10.2-2.9,4.4-9,6.5-13.5s9.3-4.6,10.5-7.5-6.9-1.3-8.4-1.6c-8.1-1.2-7.5-3.3-8.6-9.9,1,0,2.1.1,3,0Z"/>
      <path class="st2" d="M202.4,318.9c-6-6.4-9.9-12.8-7.5-22s5-6.3,6.5-9c.3,1.7.7,3.2.5,5-.7,8.9.2,17.1.5,25.9Z"/>
      <path class="st5" d="M198.4,203.2c0,.7-1.3,2-1.1,3.3s2.8,1.1,3.6,3.6,1.3,7.1.4,9.1c-4.5-7.8-10.9-8-7.5-21,.9-3.5,3.5-4.4,4.5-6-.2,3.6.2,7.4,0,11Z"/>
      <path class="st0" d="M203.4,225.1c2,.6,2.4-3.6,4.9-2s.8,17.7-5.9,13c1-2.4,1.3-8.3,1-11Z"/>
      <path class="st0" d="M202.4,189.2c-2.4,4.6-2.8,9.4-4,14,.2-3.6-.2-7.3,0-11,.7-1,1.3-2,2-3,.6,0,1.4-.1,2,0Z"/>
      <path class="st9" d="M205.4,426.7l-2,1c0-.3,0-.7,0-1,.7,0,1.3,0,2,0Z"/>
      <path class="st3" d="M589.6,189.2c.7,1.7,2.8.8,4,1s.7,0,1,0c.2.4,1,.8,1,1,1.3,7.1-.9,17.5,0,25-15,22.8,12.5,26.1,3.4,44.8-1.5,3.1-5.4,5.8-6.9,9.1-8.1,18.2,15,22.5,6.9,39.8-1.5,3.3-6.3,7.3-7.4,10.1-8.3-4.1-17.4-6.7-26.6-7.9-8.1-1.1-14.4-.6-22.3-.1l-1-11c2,.2,4.9.1,7,0,3.2-.2,6.7.6,8.8-2.6l16.7-35.3c1.4-4-4.4-7-7.6-8-.6-1.9-1.9-2.2-3.5-3-3.8-2-11.6-5.7-15.5-7l2-4c3.6.7,10.7-2.2,14-4s6.6-5,6.8-5.7c.7-2.4.7-22.1.2-25.3s-.5-.9-1-1c-.1-.6.2-1.7,0-2,4.1-4.6,10.7-.6,14.4-7.1s.3-2.5.5-2.9c2.6-4.9,2.3-2.7,5-4ZM588.1,208.2c-2.4.6-1.7,5.6,1,5s1.7-5.6-1-5ZM587.4,299.2c-1.6-2.3-7.6-1.5-5.6,5.1s9.6.7,5.6-5.1Z"/>
      <path class="st11" d="M591.6,319.9c-6.3,15.4,9.3,20.1,9,32.5s-12.6,15-10,28.9c1.8,9.5,17.1,12.3,8.5,28.5-1.5,2.9-6.9,8.2-7.5,10.9-7.3,0-14.7,0-22,0s-.7,0-1,0c-6.1-3.2-13.1-4.5-20-4-.5-2.9.6-1.6,2.3-2.1,2.5-.7,5.7-1.3,8.3-1.7s8.9.7,9.4-1.6-6.3-9.1-6.7-9.5c-1.2-1-7-2.9-8.3-2.9,1.7.7,2.5-1.5,3-3,8.3,0,11,1.7,16.4-5.1,8.8-11.1,7.3-18.6,8.6-31.3s3.8-20.3-2.5-32.5c-5-9.7-14.4-6.6-23-5.9s-8.3-2.5-9.5,3c-2.2-1-4.9.9-6,1-4.9.5-3.9-7-9,1,0,0-1.5,0-2,0,.1-1.7-.1-3.6-2-4-4.3-1-3.9,4.5-7.5,5s-1.6-3.3-2.6-3.9-3.7.1-4.7.6c-2.4,1.1-1.8,4-2.2,4.3-1.6,1.4-4.9-1.4-4-4,2-1,4.6-5.9,6-8,9.8-2.7,19.9-3.4,29.9-4s14.2-.9,22.3.1c9.2,1.2,18.3,3.8,26.6,7.9Z"/>
      <path class="st5" d="M595.6,216.2c-.9-7.5,1.3-17.9,0-25,6,4,7.3,12.7,4.7,19.2s-3.7,4.2-4.7,5.8Z"/>
      <path class="st0" d="M593.6,190.2c-1.2-.2-3.3.7-4-1,.7-.4,1.7-1.9,3-2,.3.7,1.5,1.6,1,3Z"/>
      <path class="st0" d="M595.6,191.2c0-.2-.8-.6-1-1,.4.1.7.8,1,1Z"/>
      <path class="st7" d="M515.8,231.1c-.2.6,0,1.7-.5,2.9-1,2-4.6,3.1-4.5,6-.7,0-1.4-.1-2,0-.5-3.4,4.2-8.3,7-9Z"/>
      <path class="st7" d="M508.8,230.1c-.4-.6-.6-1.4-1-2,.7-.3,1.3-.8,2-1-.3.8.5,1.5-1,3Z"/>
      <path class="st7" d="M491.8,205.2c.8.2,4.8,4,8.5,4h17l13.5,3c-6.5,5.6-3.4,5.5,0,11h-9s0,5,0,5c-.2.1-2.9,2.8-3,3-.9.1-2.2-.2-3,0,1.4-3.8,1.2-2.6,3-5.4s.3-5.1-2.1-4.1-1.4,3.7-7,5.5c.7-1.6,3.1-6.8,2-8-1.7-1.8-5.2,4.8-8,3.5-2.8,3.1,1.9.3,2,.5.3,1.4-.4,2-1,3s-.9,1.6-2,2c-.3-1.9.4-3.4-2-3,.3-.6.5-2.1,1-3l-7,1c-.3-3.6-1.5-.6-2-1l-1.5-5c-2.7,2.5-3,7-4.5,10s-3.1,4.9-4.5,7c-3,.5-.2-1.8-.5-2-2.1-1.5-2,2-2.6,2s-2.4-.8-3.4-1.1c-4.6-1.3-4.8-1.2-10-1s-16.3,2.6-22-1c1.6-6,1.3-5.5-5-6.5,2.4-1.7,1.7-3,1-5.5,11.3,2.7,4.8-2.7-1.5-3.1-6.2-.4-10.9,2.3-9.5,9.1-2.6-2.8-2-5-7-5,2.6,9,1.3,17.7-6.5,6-2.4-.5-1.5,2.6-1.5,4h-1c-.3,0-.7.1-1,0-5.2-2.1-10.4-3.9-16-5,.1-1,0-2,0-3-1.5-.4-.8,1.5-1.6,2-7.7,4.3-19.1-1.7-8.3-8l-3-3c4-1.7,2-.4,3,.3,3.4,2.8.5-3.8,2-5.8-1.3-1.8-.8,1-1.2,1.3s-1.4-.8-1.7-.5-.2,3.4-2.2,1.7.2-1.8,0-2c1-1.9,1.4-1.9,3.4-2.1,11.2-.9,24,.2,35,2.1l46.9,1c4.3-.8,2.8-6.8,4.1-7,4.2-.7,15,1.7,19.4,3.1ZM486.8,208.2c-1.7-1.9-5.1,5.2-4,7,2-.3,5-5.8,4-7ZM478.8,210.2c-1.7-1.9-7.2,10.9-7.1,12.3s2,.5,2.6,1.6c.8-5.4,4.5-8.5,4.5-14ZM483.8,221.1c-3-.4-3.9,3.5-1,3.5.1.5-4,.6-2,2.5s3.4-2.7,5-2c-.7-1.7-2.8-1-2-4Z"/>
      <path class="st7" d="M275.2,204.2c1.6,0,3.4-.1,5,0-.6,2.6,1.3,2,3,2.5,4.7,1.3,6.1,1.3,10.7.7,1.9-.3,3.9.7,3.3-2.1,2.6,0,5.3-.1,8,0-1.4,2.2,5.5,3,7.5,3s2.3-1.1,2.4-1c1.3,0,2.7,0,4,0,3.3,0,7.8,0,11,0s6.6.6,10,1c-.6,3,1.5,1.9,4,2s2,0,3,0c2,0,4,0,6,0-.8,8-3.8,4-5,5,1,10.7,10.7,1.1,18,10-3.2-.6-6.2,1-9.3.9-7.9-.2-31.4-12.1-38.6-5.9l-2.5-2,2.5-3c-4.6,1.4-3.5-2.6-7-3v4s-5-2-5-2c-.8,2,3.5,4.2,3,5s-3.6.4-3,3c-9.1,1.7-6.7-1.3-12.4-2-7.3-.9-15.2,1.1-22,1.1-3.4,0-7.4-1.6-11-2.1-6.7-.8-10,2.4-14.9-4.1-10.4-13.8,3.1-10.1,10.9-9.9,6.3.2,12.7-.9,18.5-1Z"/>
      <path class="st7" d="M380,208.2c-2,2.2.6,3.7,1,6-2.4.7-4.3,1.5-7,1-.6,2.3,2.4,2.9,2.8,4.6s-.5,8.1-.8,8.4-3.1,0-4,0c-1.3,0-2.7,0-4,0-.1-.6-1-1.5-1-2-.2-3-.8-4.8-.9-6.4s1.5-4,.9-4.5-8.8,2-9.9-1.6.7-4.2,2.9-4.4.7,0,1,0c2.2.1,4.3,1.1,6.4,1,4.5-.2,7.6-2.9,12.5-2Z"/>
      <path class="st10" d="M358.1,207.2c1.3.4,2.4-1,2,2-2.2.2-3.7,2-2.9,4.4,1.1,3.6,9.5,1.3,9.9,1.6.6.5-1,3.5-.9,4.5,0,1.6.7,3.5.9,6.4-.3-.3-.7-.6-1-1-7.2-8.9-17,.8-18-10,1.2-1,4.2,3,5-5s0-1.9-1-2c1.2-.8-1.2-3.1,6-1Z"/>
      <path class="st11" d="M383,208.2c.2.2-.2,1.8,0,2,2,1.6,1.9-1.5,2.2-1.7s1.4.7,1.7.5-.2-3.1,1.2-1.3c-1.5,2,1.4,8.6-2,5.8s1-2-3-.3-1,.7-2,1c-.4-2.3-3-3.8-1-6,.8.1,2.7-.2,3,0Z"/>
      <path class="st11" d="M358.1,207.2v-6c2.5.3,8.8,2,7,4.9s-4.8,0-4,3c-.3,0-.7,0-1,0,.5-3-.7-1.6-2-2Z"/>
      <path class="st8" d="M297.2,205.2c.6,2.9-1.4,1.9-3.3,2.1-4.6.6-6,.6-10.7-.7s-3.5.2-3-2.5c6.6.5,10,.9,17,1Z"/>
      <path class="st8" d="M319.2,207.2c.5-1.6,3.3-.4,3.8-1.5s-1-2.2,2.7-3.5c-1.5,6.3.6,2.5,4.5,5-3.2,0-7.7,0-11,0Z"/>
      <path class="st10" d="M539.7,195.2c1.7,6.4-7.7,6.4-6,0h6Z"/>
      <path class="st8" d="M315.2,207.2c-.1,0-.1,1.1-2.4,1s-8.9-.8-7.5-3c3.2.2,7.1.6,10,2Z"/>
      <path class="st11" d="M459.9,206.2c-.6.6-5.5,0-5-2.5.9-3.8,7.3.2,5,2.5Z"/>
      <path class="st8" d="M352.1,208.2c.9,0,1.1,1.3,1,2-2,0-4,0-6,0-1-3.7,3.7-1.2,5-2Z"/>
      <path class="st8" d="M340.1,208.2c2.4.3,4.6-1.2,4,2-2.5-.1-4.6,1-4-2Z"/>
      <path class="st3" d="M368.1,230.1c.3,0,4.7.9,5,1,1.5.5,2.6,2.5,8,4s.7,0,1,0c1.8.4,3.8,1.6,5.7,1.8l9.2-.8c.9.9,2.6,1.3,3,3,0,0,.2,1.4-.3,1.7-2.3,1.2-7.5.4-8.6,4-1.8,5.9,3.9,4.8,4.8,9.3-1.9.6-2.7,8.7-3,9s-5.3-1.9-7-2c.2-2-.4-3.3-2-4.5-6.5-4.9-37.6,2.1-40.8-1.6s-.3-8.5.4-9.9c1.6-3.3,6.7-1.4,7.5-2.1s-.2-2.2,0-2.9c.3-1.1,1.7-2.2,1-4-1.9-.8-3.1.8-4,1-2.7.7-17.5,5-18.5,5h-19c-.4,0-7.4,4.1-7.5,4.5-.2,1,4,4.6.5,5.5s-8-4.6-11.5-3c0-3.7-.8-6-3-9,6.4-3.3,13.1-6.7,20.5-6.8s8.4,1.6,12,1.8c10,.5,19.4-3.3,29.4-4s1.3,0,2,0c-1.5,3,8.1,3.3,7,0,2.8,0,5.3-1.1,8-1Z"/>
      <path class="st0" d="M268.3,229.1c5.4-3.1,15.9-4.4,21.3-1.1s1.7,3.1,3.1,4.1c3.4,2.3,11.4-.9,16-1.1,7-.4,13.5,2.3,18.9,2s15.3-7.5,23.6-1.9c-10,.7-19.4,4.4-29.4,4s-8.5-1.8-12-1.8c-7.4,0-14.1,3.4-20.5,6.8-2.1-2.9-6.4-5.5-10-6-.3-7.3-4.4-3.9-8.5-3.9s-2.1-1-2.4-1.1Z"/>
      <path class="st0" d="M225.3,207.2c.2.2,1.4-.5,2.3,1.2s1.8,7.2,3.3,9.7c3,4.8,10.1,5.9,14.8,8.2s2.8,3.9,11.6,4.9c.2,3.6-3.8,1.9-5.9,4.6s-2.1,6-2.1,8.4c-.5.4-1.4,1.4-2,2-7.5,1-6.3-3.1-8-8,2-.5,5.9-2.7,6.1-4.5.7-5.8-1.6-4.9-5.1-6.5s-8.9-2.4-10.9-4.6c-3.3-3.6-2.5-10.8-4.1-15.4Z"/>
      <path class="st3" d="M268.3,229.1c.4,0,1.1,1.1,2.4,1.1,4.2,0,8.2-3.4,8.5,3.9-10.7-1.5-21.9,3.1-29.9,10,0-2.4.7-6.6,2.1-8.4,2.1-2.7,6.1-1,5.9-4.6,2.9.3,2.8.6,6,0,4.8-1,2.1-1.1,3-2s1.6,0,2,0Z"/>
      <path class="st10" d="M306.2,222.1c-.6-2.6,2.9-2.8,3-3,.5-.7-3.8-3-3-5l5,2v-4c3.5.4,2.4,4.4,7,3l-2.5,3,2.5,2c-.6.5,1.2,3.5-5,1v4s-2-4-2-4c-1.7.4-3.3.7-5,1Z"/>
      <path class="st0" d="M213.4,194.2c2.7,1.1,7.4,4.2,9,6.4s2.4,4-1,3.5c-.4-2.6-4.3-4.6-6.6-7s-1.2-2.8-1.4-3Z"/>
      <path class="st0" d="M360.1,231.1c1.1,3.3-8.5,3-7,0,2.3-.1,4.7,0,7,0Z"/>
      <path class="st0" d="M372,228.1l1,3c-.2,0-4.7-1-5-1,0-.6.1-1.4,0-2,1.3,0,2.7,0,4,0Z"/>
      <path class="st0" d="M266.3,229.1c-.9.9,1.8,1-3,2-.5-2.7.6-2,3-2Z"/>
      <path class="st9" d="M377,397.8c-1,1-2,3-3,4-3.4,3.2-7.1,6.8-11,9-14.5-.7-29,.6-43.5,1-25.4.8-53.1,1.3-78.6,5.2-5.1.8-13.3,3.1-17.7,5.8-.7,0-1.3,0-2,0-2.3,0-3.5-.7-3,2-.6,0-1.4-.1-2,0-3.3.5-6.7,1.5-10,2-.6-2.7,1.4-2,2.8-2.7,9.1-4.6,19-9.2,27.5-14.5s3.2-.5,3.6-.9c.5-.5,0-2.8.1-3.9l2-1c-1.1,4.1,2.5,3.3,6,3s3.2-1.3,6-1,.8,1.4,2,1c-.2-2.4,1-4.7,1-7h1.5c.7-.2.4-.7.5-1,3.2-.9,1.9,5.2,3,8,1,.2.9-1,1-1,1.4-.8,2.3-1.1,4-1s1,1.3,2.4,1.1.5-2,.6-2.1,2.3-.7,3-1c1-.4,2.9,0,4-1,.2.5,1.6,1.3,2,2s-.2,1.8,0,2c.8.7,1.9-1,2-1,1.3-.6,2.6.9,2-3,0,0,1.2-.2,1.7.3,1.5,1.7-2,3.7,5.3,1.7.1.9-.5,3,.5,3,.7-.5,2.6-4,3.1-4,.9,0,3,1.4,3.4,1,2.7-3-4-3.7-6-3,1.1-2.6,5.4-1.5,1-4,2.3-.4,2.1,0,4,0l2,1c0,0,1.6,0,2,0v7c1.6.7,2.5-.9,3-1,.8-.2,2.1.1,3,0,0,.5,1.5,1.7,1,3,4.3-.4,4-1.3,4-5,6.7.9,14.5-.1,21.4-1.1,9-1.2,13.5-2.5,23.5-2.9s2-.7,3-1c-.6,6.7,4,.5,6-1s.7.1,1,0c.4-.2.7-.7,1-1,.3,0,.7-.1,1,0,2.8,1.3,5.1,3.7,9,3ZM294.7,404.8v1c.6-.3.6-.7,0-1Z"/>
      <path class="st15" d="M553.7,398.8c1.3,0,7.1,1.9,8.3,2.9s6.8,8.9,6.7,9.5c-.5,2.3-7.2,1.3-9.4,1.6s-5.8,1-8.3,1.7-2.8-.7-2.3,2.1c6.9-.5,13.8.8,20,4-22.8-.4-47.1-3.9-69.4-3.8s-4.2.5-5.5.8c-1.8-.6-3.6-.9-5.4-1-41.9-2-84.4,0-125.8-2-2.5-.1-3.3.7-1.5-2,1.3-.4,1.6-1.8,2-2,3.8-2.2,7.6-5.8,11-9,2.2,1.4,2.8,5,5.1,6.3,5.4,3.1,5.7.2,10.3-.4,10.2-1.2,24.5,1.6,34.9,2.1,13.1.5,32.4-.8,44.5,1s4.3,1.5,6,2c5.4,1.5,5.6,1.9,12,2s22.5-.6,24-2c2.6-2.5-4.4-2-5-2,2.6-1.4,7.2-3.3,10-4s2.3-.9,3-1c9.6-1.3,17.5-1.9,27.4-4.1s5.5-2.7,6.6-2.9.7,0,1,0Z"/>
      <path class="st1" d="M363.1,410.8c-.3.2-.7,1.6-2,2-8.7,1.8-17.6.6-26.4,1-33,1.6-67.9,2.7-100.7,7.1-4.1.6-6.5,1.6-10.6,1.9,4.4-2.7,12.6-5,17.7-5.8,25.5-3.9,53.1-4.4,78.6-5.2,14.5-.4,28.9-1.7,43.5-1Z"/>
      <path class="st1" d="M221.3,422.7c.5,3-.8,1.7-3,2-.5-2.7.6-2,3-2Z"/>
      <path class="st15" d="M562.7,202.2c-1.1,1.7-.3,5.5,1.6,6,2.9.8,2.2-3.2,5.4-2h1c.5,3.2.5,22.8-.2,25.3s-5.9,5.2-6.8,5.7c-1.6-1.7-2.2-3.7-2-6-1.2,1-3.1.6-4,1l-2-1.5c0-1,1.6-.2,2-.5l3,1c-.2-1.9.3-4.2,0-6,4.8,0,1.3-3.8,2.1-4.9s2.3.6,1.9-1.1c-4.9-2.6-3.4.9-6,2s-2.1-.2-3,0c-.5,1.7,1.4.6,1.8,1.1s-.7,1.6-.6,2.4c.1,1.6.8,3.1.8,4.5-3.8-2.8-2,2.5-6,0l1,6c-.3.1-.7-.1-1,0,0-4-2.7-4.9-4-8-3.3-.2,1.2,8.1-3,5-.8-1.6-.5-3.6-3-3,.5,2.7,4.6,9.6,7,11-6.2,4.3-11.8-7.2-15-12s-2-3.4-3-5c-3.4-5.5-6.5-5.4,0-11,8.2-7.1,21.8-10.6,31.9-10Z"/>
      <path class="st0" d="M584.6,193.2c-.2.4.1,1.8-.5,2.9-3.8,6.5-10.3,2.5-14.4,7.1,0,0-1.7-.9-2-1,1.5-7.3,8-4.9,12.3-6.2s2.5-3,4.7-2.8Z"/>
      <path class="st13" d="M567.7,202.2c.3,0,1.9.9,2,1,.2.3-.1,1.4,0,2v1c-3.2-1.2-2.5,2.8-5.4,2s-2.7-4.3-1.6-6c1.6,0,3.6-.3,5,0Z"/>
      <path class="st6" d="M279.2,234.1c3.6.5,7.8,3.1,10,6s2.9,5.2,3,9-1.6,7.5-3,12c8.5-.5,17.3-.6,20,9,9.1-8.1,24.1-14.6,32.4-2,5-5.9,12.9-8.3,20.5-6.5s6.6,4.5,8.2,4.4c3.4-.2,8.4-5.4,15.6-4.8s6.5,2.4,7,2,1.1-8.4,3-9,14-.2,15,.5c1.9,1.4-1,5.6,0,6.5s13.6,0,15.6,7-4.8,9-5.6,9.6c-2.6,1.7-3.5-1.7-6-1.5,1.4,4.8,4.4,8.9,3.9,14.3-.8,9-11,15-19.4,14.7-5-.2-9.2-3.9-11.9-4s-9.9,4.3-16,3.9-11.3-5.8-12-5.9-8,5.2-12.1,5.7c-7.5.9-12.3-3.9-15.9-3.8s-9.5,4.5-16.5,3.9-7.1-2.3-9.9-4.6-.9-2.4-1.6-2.4c-4.2-.3-12.6,9.4-24.4,6.1s-5.9-2.9-7.5-2.9c-5.1,0-10.6,7.3-20.5,2.9s-6.6-10.1-6-15l-8,12.5c-3.7,4-11.5,6.5-14.2.3-5.8-13.5,14.4-46.1,24.2-55.6s1.5-1.6,2-2c8-6.9,19.2-11.5,29.9-10ZM317.7,283c2.5-.8,14.2,0,18,0s5.5-17-7-17.1c-16.2,0-19.9,23.2-36.4,27.6-4.1,1.1-10,1.5-10.1-4s.7-6.5,1-6.5h19.5c2.3,0,4.9-13.9-3.4-16.5-10.5-3.2-20.5,6.8-24.7,15.3s-.9,10.8-9.8,10.3,2.3-15.9-5.5-21c11.2,0,30.5-10.9,27.5-24-.8-3.5-4.2-6.6-7.5-7.5-20.6-5.4-41.7,24.2-48.4,40.5s-9,21.9-.3,19.7,10.8-16.9,14.9-22.1,4.5-6.1,8.9-4.2c4.4,3-12,24.5,1.5,26.5s15.2-6.4,17.8-6,1.5,3.7,4.5,4.6c10.4,3.3,19.3-3.4,27.5-8.5,2.4,9.8,10.5,11,19,8s7.2-4,7.8-3.9,2.9,2.7,4.6,3.5c10.2,4.9,23.8,0,20.5-12.6s-8.7-12.6-1-14,11.9,2.3,8.4-2.9-4.8-1.9-5.5-2c-9.4-1.3-16.9,4.4-15.3,14.4s8.5,11.9.9,14.1c-5.6,1.6-10.3-5.2-11.5-5.3-2.4-.2-11.2,8-16.5,4.3s-1.6-9.9.6-10.5ZM406,258.1c-1.5.3-4.8-.6-5.8.1s-3.7,9.2-4.1,10.8c5-1.3,9.1-5.9,10-11ZM373.5,283c2.3-.8,14.3,0,18,0s4.6-16.2-6-16.9-33.7,26.3-17.6,32.6c9.2,3.6,14.6-3.6,19.7-3.6s7.2,4.6,12.1,4.9,14.6-4.3,14.3-11.3-14.4-20.8,6-16.6c.8-2.8,1.1-3.3-1.7-4.8-8.7-4.3-20.9,2.3-18.8,12.8.8,4.3,10.5,14.8-.7,14.6s-7.6-5.3-9.3-5.6-8.7,7.1-15.7,4.7c-3.9-1.4-2.2-10.1-.2-10.8Z"/>
      <path class="st6" d="M252.3,309c.9-2.4,2.9,1.1,4.3.8s1.7-1.9,3-1.7,2,2.1,4.2,1.9.5-2,1-2.1c2.1-.2,3.6,2.1,6,2.2s-.6-2.8,6.5-1.1,3.1-.9,5.5-1,3.6,2,6,2.1,1-2.3,2.9-2.2,3.9,2.4,5.9,2.1,2.8-2.3,5-2.1,2.7,2.2,5,2.1,4.9-3,7.6-2,.6,1.9,2.5,2.1,3.7-2.3,5.9-2.1,2.6,1.9,4.1,2.1c2.1.2,3.3-1.9,5-2.1s3.3,1.9,5,2.1,3.3-1.9,5-2.1,3.6,2.3,5.8,2.1,2.8-2.3,5-2.1,2.6,1.9,4.1,2.1,3.5-2,5.9-2.1,1,2.3,2.9,2.2,3.7-2.1,5-2.1,2.5,2,4,2,2.7-2.3,5-2.1.6,2,1,2.1c2.3.3,3.7-2.4,5.9-2.1s0,2.6,1.9,2,1.7-2.5,3.6-1.9l-7,21c-1.3,0-3.3-.4-4,1-.6,0-1.5-.1-2,0-5.1,1-15.3,1-21.5,1h-19c-.2,0-1.4,2-3,2-3.5,0-2.9-4.5-7.5,0s-.8.7-1,1c-2.7,2.3-2.2-1.6-3.7-2-5.3-1.3-14.4,1-18.2,5-2.4-8.7-11.1-1-12.3-1.1s-2.8-1.8-5.2-1.9c-5.8-.4-14.3,2.4-20.9,1.1s-2.5-2.5-7.5-3c-1.6-4.3-5.7-20.4-8-23ZM279.2,320c-4.7,1.3-7.5-1.1-12-1v7c2.1.4,3.5-2.1,5.5-2s0,1.9,1.9,2.1c3,.4,6-.6,8.9-.7,1.7,0,4,1.2,6,.7s.2-2.1,1.1-2,.2,1,.5,1.2c4.4,3.2,2.7-3.2,2.9-6.2l-2,3-3.5-3-2,5c-5.3-11.3-4.4-1-6.5,1s-2.3-3.9-1-5ZM297.2,319c-3.5-.9-1.7,4.8-1.9,6.8,5.3,2,6.1.3,6.4-4.9l4.5,5c-.6-3.6,0-3.4,1.3-5,3.1-3.7-6.2-.8-8.3-2l-1.5,5-.5-5ZM343.1,318.9c-2.9-.1-20.2-.7-21,0s1.5,5.5-1.5,5l-.5-5h-9s0,6.4,0,6.4c4.5,3,6.1-1.4,6.5-1.4s.2,3.5,4.9,1.9-.1-5.6,3.6-4.9v5s3,0,3,0v-5s4,0,4,0c.7.7-1.7,6.1,2,5l1.5-5c1.3.7,0,4.5.5,5s4.9,0,6,0,.7,0,1,0c1.8,0,3.8-.8,6,0-1-6.4,1.9-6.4-6-7s-.7,0-1,0ZM359.1,320.9c-6.8-6.9-9.6,7.3,0,5,.8-3.7-3.3-1.3-4-2-1.9-2.1,1.8-4.1,4-3ZM362.1,319c-3.4-1.2-2.2,5.8-1.1,6.6,4.2,3,6.1-3.1,5.1-6.6l-2.5,5-1.5-5ZM378,319h-11s0,7,0,7l6.5-3-.5,3c8.7.5,4.2-1.8,5-7Z"/>
      <path class="st11" d="M411,330.9c0,1,0,2,0,3,.2,8.1,4.6,15.7-7.5,17-3.9.4-7.1-.9-10-.8s-9.5,1.4-12.4,1.8-.7,0-1,0l-7-7c1.5,7.6-3.3,7.5-9.5,8s-9.1-1-11.8-.7-2.9,1.8-5.1,1.8-3.9-1.7-5-1.7-4.4,2.5-7.1,2.5c-4.4,0-11.8-1.1-16.7-.6s-2.8,1.8-5.1,1.8-4.4-2.2-6-2.1-.4,1.9-1.2,2c-1.6.4-16.1,1-17.3.5s-1.7-2.3-3-2.5l-.6,3.1c-5.1-1.1-27.9,3.1-30.4,1.4s-.9-2.4-1-2.5c-.3-.2-3.3,3.9-6,0,1.4,3.8-4.3,3.4-8,4s-2,0-3,0c-1.4-9-1-17.8-1-27,8-.1,10.7-1.8,14.5,6,4.4-6.1,1.7-7.9,10.5-7,5,.5,4.9,2.5,7.5,3,6.6,1.3,15.2-1.5,20.9-1.1s4,1.8,5.2,1.9,10-7.6,12.3,1.1c3.8-4,13-6.3,18.2-5s1,4.4,3.7,2c-1,1.6-2,3.3-1.9,5.4s2.1,11,2.4,11.6c2.4,3.8,14.4,2.1,10-4s-3.3-.4-3.6-1.5c-1.7-5.8,2.9-4,3.1-4.9,1.4-7.1-.9-4.7-4.4-5.5s-1.6-3.5-4.7-2c4.6-4.5,4,0,7.5,0s2.8-2,3-2h19c6.1,0,16.4,0,21.5-1-2.7,5.4-5.6,6.2-4.7,13.2.7,6.1,3.3,6.9,9.2,6.9,3.7,0,5.8-1.6,8.2-1.9,4.2-.4,8.7,2.2,14,0s4.7-7.1,1.3-9.7-4.6-.7-5-2.5l7,.5c.4-8.4-10-8.2-15-4s-.2,3-2.4,2.5-.8-2.7-2.5-3.5-6.9-1.5-8-1.5c.7-1.4,2.7-1,4-1,2.9.1,6.3,1.9,7.3,1.8,3.5-.5,5.2-3.6,12.2-2.8,4.3.5,3.9,2.2,5.5,3ZM340.1,332.9v14.5c0,1.8,3.6,4.3,5.6,4.5,3.1.3,4.2-1.5,6-1.7,4.4-.5,14.9,2.6,18.7-.2s-1.3-5.5-1.4-5.8c-1.6-6.2,2.1-3.4,4-4.7s1.2-7.8-1.7-8.4c-1.8,0-3.5.8-3.4,2.8h-1c.5-3.5-4.4-1.6-7-2,.7,3.6,1.2,6.7,1,10.5s.9,4-1.5,3.5c-3.2-1.8-.6-12.1-1.5-13h-8c-1.3,1.3,5.2,14.7-3,12v-12s-7,0-7,0ZM263.3,333.9c-2.1.4-7.4-.7-8.8.2s-2.3,7.1-4.6,7.8c-5-5.5-3.2-8.3-12-7-1.5.2-1.5-.6-1.5,1.5,0,6.3,2.1,13.7,1,20.5,8,0,8.7,1.8,8-7l6,6c.3-2.4,1.7-5,4-6v7c.4.4,8.7-.7,9-1,.7-.8-1-3.1-1-3.5v-18.5ZM324.1,333.9c-9.4-.9-19.7,2-17.9,13.4s3.2,6.6,6.4,6.6,4-1.9,5.9-2,5,1.6,7.5.9c-1-6.4-2.9-12-2-19ZM304.2,353.9c.8-3.6-.9-7.3-1-10.5s1.5-5,1-6.8c-1.1-3.5-9-1.4-7.8,2.7s5.3,1.5,5.9,3.6c-7.4-1-4.5,6-5,11h7ZM276.2,340.4c.5,4.9-.4,10.5,0,15.5,1.2-.3,6.7-.8,6.9-1,.6-.6-.3-9.9,0-11.9,7.9-.9-.4,15.8,11.3,11.8,3.9-1.3.2-5.7-.1-7.6s0-4.9-.7-7.3c-1.6-5.4-9.2-5.4-12-.9-.8-3.3-3.6-1.8-6.5-2-.6,1.5.9,2.8,1,3.5ZM274.2,355.9c-1.4-3.7.2-17.9-2.6-18.8-7.3-2.4-8.6,4.3-2.4,7.8-5.5-1.4-2.1,7.3-3,11h8Z"/>
      <path class="st11" d="M230.3,389.8c.2,3.3-.3,6.7,0,10-12.8.5-15.2,3.1-14-12,4.1-4.8,10.1-1.4,14,2ZM224.3,389.8c-.3-.3-3.8-.2-4.5,1s.4,2.3.4,3.4c0,3.1-2.4,2.9,4.1,3.6-.2-1.5.4-7.6,0-8Z"/>
      <path class="st2" d="M279.2,304c0,1.9-.3,3.9-2,5-7-1.7-4.2,1.2-6.5,1.1s-3.9-2.4-6-2.2-.6,2-1,2.1c-2.2.2-3.2-1.8-4.2-1.9s-2.1,1.5-3,1.7c-1.4.3-3.4-3.2-4.3-.8-.4-.5-3.7,1.1-1-5,9.8,4.4,15.4-2.9,20.5-2.9s5.1,2.3,7.5,2.9Z"/>
      <path class="st0" d="M205.4,337.9c-.2-3,1-18,5.5-17,5.2,5.8,4.3,18.2-5.5,17Z"/>
      <path class="st15" d="M230.3,399.8c0,.5.8,2.1,1,4l-4,2v-3s-1,3-1,3c-7.5-5.2-5.3.1-6,.9s-2.9.1-3.9.1-.7,0-1,0c.9-4.9-1.3-14.9,0-19s.9.1,1,0c-1.2,15.1,1.2,12.5,14,12Z"/>
      <path class="st10" d="M240.3,227.1c3.5,1.6,5.8.7,5.1,6.5s-4.1,4-6.1,4.5c-.8-2.5-1.9-3.5-2-3.7-.8-3.2.1-5.7,3-7.3Z"/>
      <path class="st10" d="M218.6,325.2c1.5-2.2,7.2-1.1,6.5,3.9-1.1,7.3-11,2.5-6.5-3.9Z"/>
      <path class="st11" d="M216.9,245.1c2.9-.7,3.4,5.4,1,6s-3.4-5.4-1-6Z"/>
      <path class="st1" d="M215.4,406.8h-1c1.2-5.3-1.7-13.7,1-19-1.3,4.1.9,14.1,0,19Z"/>
      <path class="st5" d="M412,356.9c-15.1,3-30.1,1.1-46,3.4-1.3.2-2.5,1.5-2.9,1.6s-.7,0-1,0c-.9.1-2-.1-3,0-.3-1.5-3.6-1.6-4,0-1,0-2,0-3,0-.1-1.5-2.9-1.5-3,0-.7,0-1.3,0-2,0s-.7,0-1,0c-3.7,0-7.6-.8-10.5,2-.4.1-.6-5-2.5,1-1.9.3-.5-2.3-1-3s-5.4.7-6,1c-3.8,2-.5,2.2-7,3,.4-6.5-7-3.9-8.5,0l-.5-3c-5.9,1.2-13.3-.9-18.9,0s-2.7,1.9-4.5,4l-.5-4c-.7-.2-.9,1-1,1-2.6,0-4.3,0-7,0-8.8.3-17.7-.2-26.5,0s-11.1,3.5-12.4-3c2.2-.4,4.5,1,6.5,1,29.1,0,57.6-3.2,86.8-5s23.1,0,33.9-1c5.2-.5,8.7-3.4,13.5-4s.7,0,1,0c1.8.8,5.8,2.8,7.5,3s3.3-1,5-1c4.5,0,21,1.2,21.4-5.4-2.6-4.1,2-13.5-3.9-14.5,0-1,0-2,0-3,.7.4,3.2-.7,4.5,1s2.7,16.3,2,18-5.5,3.7-5.5,7Z"/>
      <path class="st3" d="M421.9,357.9c-3.3,2.4-7.7,6.3-11,9-11.7-6.5-23.2.1-34.7,2.8-5.6,1.3-8-.2-15.2,3.2s-2,.4-3,1-.9,1.9-1,2c-.2.2-1.4-.1-2,0-.2-.4.5-1.4-.6-2.1-1.9-1.1-8.6-1.8-11.4-2.4s-4.5-2.2-6.6-2.5c-5.5-.7-17.4,6.7-18.4-3,.3,0,.7,0,1,0,6.4-.8,3.1-1,7-3l3.6,4c6.2-3,15.2,3.6,16.3-5,.3,0,.7,0,1,0,.4,1.5-1.4,3.8,1.5,4,3,.2,7.4,1.1,8-2,.9,2.8,1.5,1.7,3.5,2s.9,1.2,1.5,1c2.6-.7.5-1.8.5-2,0-.7,0-1.3,0-2l1-1c.4,0,1.6-1.4,2.9-1.6,15.9-2.3,30.9-.4,46-3.4s10-3.9,10,1Z"/>
      <path class="st9" d="M380,351.9c-4.8.6-8.2,3.5-13.5,4-10.8,1.1-23,.4-33.9,1-29.2,1.8-57.7,5-86.8,5-2,0-4.3-1.4-6.5-1v-1c3.7-.6,9.4-.2,8-4,2.7,3.9,5.7-.2,6,0s0,1.9,1,2.5c2.6,1.7,25.4-2.5,30.4-1.4l.6-3.1c1.3.2,1.9,2,3,2.5s15.7,0,17.3-.5.7-2,1.2-2c1.5,0,3.4,2.1,6,2.1s3.6-1.6,5.1-1.8c4.9-.5,12.3.7,16.7.6s6.1-2.5,7.1-2.5,2.8,1.7,5,1.7,3.6-1.6,5.1-1.8c2.7-.3,7.9,1,11.8.7,6.2-.4,11-.4,9.5-8l7,7Z"/>
      <path class="st3" d="M285.2,363.9c0,0,.2-1.2,1-1l.5,4c1.8-2,1.5-3.5,4.5-4,.4,1.5-1.4,3.8,1.5,4,4.2.3,10.1,0,14.5,0-.4,1.8.9,2.1,2,3-5.6,1.4-6.6.6-7,6-11-2.6-31,9.5-33-7.4.3-1.5,7.5-2.6,9.1-2.6s6.8,3.1,7-2Z"/>
      <path class="st11" d="M361.1,372.8c-1.6,5.6,4,0,3,3.5s-4.7,5.5-3,7.5,4.7-5.6,5.5-6c2-.8,1.3,1.4,1.6,1.7s2.8-1.7,3.8.8c-2.7,1-.6,5-1,5.5s-6-1.9-8,0c.9,4.2,7.2,1.4,8,2s-.7,1.8-.5,2.5c.3,1.4,2,1.7,1.5,3.5l-4,1c-.3-.1-.7,0-1,0h-1c-.2-3.2-2.1-5-5-6l4,7c-2,1.5-6.6,7.7-6,1-1,.3-1.9,1-3,1-.3-3.8,4.1-4.9,3-9-3.2,1.4-5.8.9-4,5-2.6-.9-4.4-.9-7,0-.7-2,1.6-2.5,2-3.5s-1.7.5-2-2.5c3.2,1.3,7.1,1.6,9-2h-9c0-2.2.8-4.6,0-7,3.8,1.9,2.7-.4,3.2-.6,3.6-1.9,2.5,1.3,3.5,3.4s2.5,2,3.3,1.3-2.3-5.5-3-7c.6-.1,1.7.2,2,0l1-2c1-.6,2.2-.6,3-1Z"/>
      <path class="st11" d="M309.2,369.8c1.4,1.1,4,2.4,4.1,2.6.2.8,0,7-.2,7.3-.5.5-4.8,2.2-6,1.9-4.1-1.1-5-1.8-4.8-5.7s1.4-4.6,7-6Z"/>
      <path class="st12" d="M319.2,365.9c-.3,0-.7,0-1,0-3.6.3-7.3,1-11,1s-10.3.3-14.5,0-1-2.5-1.5-4c5.7-.9,13,1.2,18.9,0l.5,3c1.5-3.9,8.9-6.5,8.5,0Z"/>
      <path class="st11" d="M216.4,406.8c1,0,3.5.3,3.9-.1.8-.8-1.5-6.1,6-.9l1-3v3s4-2,4-2c0,.9.1,2.1,0,3-2.1-.2-2.2-.1-2,2-4.3,1-10.3,2.5-13-2Z"/>
      <path class="st6" d="M240.3,404.8c.9-8.8,2.2-6.9,11-7,.5,1.6-.9,1.8-1,2-5.7-2.1-2.9,1.4-3,2-.3,2.5-2.3,3.6,1,5-3.5.3-7.1,1.1-6-3l-2,1Z"/>
      <path class="st12" d="M311.2,401.8c0,3.7.4,4.6-4,5,.4-1.2-.9-2.5-1-3-.3-1.5.2-3.4,0-5l3,1v-4c2.1.3,2,4.4,2,6Z"/>
      <path class="st1" d="M292.2,396.8c4.4,2.5,0,1.4-1,4,2-.6,8.7,0,6,3s-2.5-1-3.4-1-2.4,3.5-3.1,4c-1,0-.4-2.1-.5-3-.3-2.3-.6-4.7-1-7,1-.1,2.1.1,3,0Z"/>
      <path class="st6" d="M254.3,405.8l-2-8,2,4,1-4c2.4-.2,2,0,2,2s-1.2,4.6-1,7c-1.2.4-1.9-1-2-1Z"/>
      <path class="st5" d="M348.1,385.8h9c-1.9,3.6-5.8,3.3-9,2,0-.6,0-1.3,0-2Z"/>
      <path class="st12" d="M285.2,363.9c-.2,5.1-5,2-7,2v-2c2.7,0,4.4,0,7,0Z"/>
      <path class="st6" d="M300.2,397.8c.4,0,1.4-1.7,3-1v7c-.5.1-1.4,1.6-3,1v-7Z"/>
      <path class="st6" d="M267.3,404.8v-7s3,0,3,0v6c-.1.1.5,1.9-.6,2.1s-2.1-1.1-2.4-1.1Z"/>
      <path class="st1" d="M277.2,401.8c-1.1,1-3,.6-4,1-.2-1.6-.2-5.6,1.5-6,3.1-.7,2.1,4.1,2.5,5Z"/>
      <path class="st6" d="M259.3,398.8c0,0-1.7-1-.5-1h5.5s-1,8-1,8c0,0,0,1.2-1,1-1.1-2.8.2-8.9-3-8Z"/>
      <path class="st6" d="M281.2,403.8v-5c3.3-.9,1.4,2,2,3,.6,3.9-.7,2.4-2,3v-1Z"/>
      <path class="st9" d="M250.3,399.8c-.6,1.3.9,2.6-3,2,0-.6-2.7-4.1,3-2Z"/>
      <path class="st12" d="M281.2,403.8v1c-.1,0-1.2,1.7-2,1s.2-1.6,0-2h2Z"/>
      <path class="st15" d="M231.3,406.8c0,.6.1,1.3,0,2-.6.2-1.4-.1-2,0-.2-2.1-.1-2.2,2-2Z"/>
      <path class="st1" d="M296.2,396.8c.1,0,1.5-1.5,2-1s-.2,1.7,0,2l-2-1Z"/>
      <path class="st1" d="M555.7,280c-.7,0-1.3,0-2,0,.6-.8.7-2.5,1-3s.9-.7,1-1c-.2,1.3.1,2.7,0,4Z"/>
      <path class="st1" d="M540.7,274c3.9-.3,4.4,1.8,5,2-.4,1.8-1.4,3.2-2,5-2.5.1-4.6-1-4,2,0-2.2-.1-5.3,0-8s0-.7,0-1c.3,0,.7,0,1,0Z"/>
      <path class="st1" d="M540.7,249.1c-.2,0-2.1,2.7-3.5,3s-.3-1.6-1.2-1.9c-2.6-1.1-8.7-3.6-8.2.9,9.1.8,18.1,4.5,26.5,8l.6-2.8c.6-.2,1.2,0,1.8-.1,1.4,0,3.1.3,4.3,0s-.5-3,5.7-1,9,4,7.6,8l-16.7,35.3c-2.1,3.3-5.6,2.5-8.8,2.6l1-3c-1-.1-2.1.1-3,0l2-8c.6,0,1.4,0,2,0,1.5-.2,3.7.3,5,0,2-.5,6.4-7.5,7.1-9.5s-.1-4,.3-5.5,5.1-7.6,2.5-10-4.6.4-6,3-2.8,5.6-4,8c.2-1.7.8-3.3,1-5-3.3,1.2-2.5.4-4-1l2-4,1,3c2.3-.8,4-1.4,3-4.3s-3-3.4-3.2-3.5-3.3,0-4.8-.2-2.7-1.8-5,1c1.2-2.8-1.3-5.9-3.9-3.9s-2.7,12-2.8,13.6.7,2,.7,2.3c-.4,0-.8-.1-1,0-2,1.3-2.7,11.3-5,14,0,0-.4,1.2-1,1,.2-2.3-.1-5.4.2-7.5s1.7-.4,1.8-1.1c.2-1.3-.7-5.7-1-7.3,3.6-.9,4.9-3.6,2-6l3-10c.6.2,1.1.5,1.5,1,2.1-1.7-1.7-2.9-3.5-3.5-2.8-.9-6.8-1.4-9-1.5-4.5,0-6.4-1.2-7,4l-1-.5c-1.5,5.2-1,10.5-5.9,13.5,0-4.6,0-9.3,0-14s0-.7,0-1c0-1.9.4-2.7,0-6s-.9-1.3-1-2,1.4-1.1,0-3c3,.5,6.5.5,9.4,1.1s2.8,1.9,4.1,1.9c3.3,0,11-8,14.5,2ZM552.2,292v1c.6-.3.6-.7,0-1Z"/>
      <path class="st2" d="M529.7,297c.3,0,1.1.7,2,1,3.3,1,6.1,2.6,10,3l1,11c-10.1.5-20.1,1.3-29.9,4,3.5-5.1,6.8-10.6,10-16s1.5-.3,2-3c1.5.2,3.6-.3,5,0Z"/>
      <path class="st2" d="M533.7,228.1c3.2,4.8,8.7,16.3,15,12,1,.6.9,1,1,1l-2,4c-8.1-2.6-17.6-3.1-25.9-4s-1.9-.9-4-1-2.7,0-4,0c2.7-2.2,3.4-6.7,5-9s2.8-2.9,3-3c.3-.2,1.6.3,2.2,0s.8-1.9,1.3-2c1.9-.1,5.9,2.4,8.4,2Z"/>
      <path class="st12" d="M517.8,240.1c-.3,3.2-.3,3.3,3,3-1.1-2.1-1.7-2.2,1-2,8.3.9,17.9,1.4,25.9,4s11.7,5,15.5,7,2.8,1.2,3.5,3c-6.2-2-4.5.6-5.7,1s-2.9,0-4.3,0c1.3-4.7-14.5-7.5-16-7-3.4-10.1-11.2-2-14.5-2s-2.4-1.6-4.1-1.9c-2.9-.5-6.4-.6-9.4-1.1,1.4,1.9,0,2.8,0,3-.6,0-1.6.2-2,0s-1.2-1.5-2-2c-1-3.9,4.8-1,7-2,.3-1.6-2.5-1-3-3,.3,0,.7,0,1,0,1.3,0,2.7,0,4,0Z"/>
      <path class="st13" d="M548.7,240.1c-2.4-1.4-6.5-8.3-7-11,2.5-.6,2.2,1.3,3,3s-1,.4-.1,1.5,4.4,3.4,4.6,3.5.2-1,2.5-2,.7.1,1,0c1.8-.8,3.8-2.5,5-3s2.8,0,4-1c-.2,2.3.4,4.3,2,6-3.2,1.8-10.4,4.7-14,4s0-.4-1-1Z"/>
      <path class="st6" d="M541.7,290c-2.2,6.7-3.6,6.6,5,8s2-.1,3,0l-1,3c-2.1.1-4.9.2-7,0-3.8-.4-6.7-2-10-3,0-.8.8-1.5,1-2,4.6,2.8,4.5-2.6,5-6h4Z"/>
      <path class="st10" d="M587.4,299.2c4.1,5.8-3.9,10.6-5.6,5.1s4-7.3,5.6-5.1Z"/>
      <path class="st11" d="M588.1,208.2c2.7-.6,3.4,4.4,1,5s-3.4-4.4-1-5Z"/>
      <path class="st0" d="M570.7,206.2h-1v-1c.5.1.9.5,1,1Z"/>
      <path class="st12" d="M527.7,321.9c-.3,1.4,0,4.8,1.5,4.9s.4-.9.5-.9c.5,0,1.9,0,2,0,.2.2-.5,2,.5,2,1.8,0,3.1-2.8,5.5-2l.5,3,2.5-4c1.1-.1,3.8-2,6-1s.9,2.9,1,3c.5.4,6.7-5.8,9,4l-1,.5,1,.5c0,.6,0,1.3,0,2,0,1,0,2,0,3-2.3.9-4.8,1.7-7,3s-1-.2-2,1c-1.7-.7-3.1.8-4,1-6,1.3-12,2.6-18,4-12.7,3-25.3,5.6-37.9,9-.1,1.9,2.4.6,4,1.5s1.4,2.9,2.5,3.5l2.5-4,2,6c-.2.1-.8,1.6-1,2-2.1-1.1-2.5-.5-4,0s-2.5.9-4,2c1.3-7.7-2.7-3.9-3.9-5.1s.5-2.7-.6-3-5.9-.2-6.8.2c-1.7.6-1.2,2.7-2.3,3.9-1.8,1.9-11.5,5.2-14,5.7s-5.4-2.5-6.3-1.7,1,2.6,2.5,3c3.3.7,3.9-1.6,3.4,4l-4-1c-.5.5.8,9.9,1.5,11.1s2.4-.2,2.5-.1c1.4,2.1-1.6,2-1.8,2.2-.6.8,1.1,3.5.8,4.8-1-.5-2.8-.5-4-1-1.8-3.3-13.6-23-13.6-24.4s2-7.1,2.2-7.5c.7-1.1,2.9-1.2,3.3-2.6.6-2.6-3-5,5.2-4.4l-1-5c2.5-.7,5.2-1.9,7.5,0-2.2-10.2,8.7-3.3,9.5-4,.4-.9-1.7-3.8-2-4-.4-2,1.5-2.3,2-3,1.9-2.6,1.5-5.5,4-5-.2.9-1.2,5.7-1,6,1.4-.2,5.2,1.6,6,1s-.1-1.5,0-2h2.5c1.6,5.3,4.6,4.6,9.9,3.9,11.7-1.6,4.3-3.7,1.6-9.9,2.6,0,4.5,2.1,5.4,1.9,1.4-.2,2.6-3.8,4.2-4.8s3.5-.7,4.4-1.1c-.9,2.6,2.4,5.4,4,4s-.1-3.2,2.2-4.3,3.9-1.1,4.7-.6,0,4.3,2.6,3.9,3.2-6,7.5-5ZM474.8,359.9c-4.2-.5-4.2,1.5,0,1v-1Z"/>
      <path class="st10" d="M556.7,395.8c.2-.5-.2-1.4,0-2,.8-3.2,1.8-6.1,2-9.4,1.1-15.7-.3-32.2,1-48l-3.1-2.5c0-.7,0-1.4,0-2s0-.7,0-1c-2.3-9.8-8.5-3.6-9-4s-.4-2.7-1-3c1.2-5.5,7-2.8,9.5-3,8.6-.7,18-3.8,23,5.9,6.2,12.2,3.7,20.3,2.5,32.5s.2,20.3-8.6,31.3-8.1,5.1-16.4,5.1ZM567.7,369.8c-.3.3-2.7-.3-3.6.9s.4,4.4-.4,6c1.8.3,3.4-.8,5-1s4,.2,6,0c0-1,.1-2,0-3s-.8-1.3-1-2c-.7-2.4.8-4.6-5.3-3s-.6,1.9-.7,2Z"/>
      <path class="st6" d="M522.7,300c-3.2,5.4-6.5,10.8-10,16s-4,7-6,8-2.7,0-4.4,1.1-2.8,4.6-4.2,4.8-2.7-1.9-5.4-1.9c-5.4,0-3.3,3.8-4.5,4.1-3.2.5-3.9-1.4-5.4-2.1,2.4-5.9,4.4-13.3,7-19s2.6-6.2,5-6c.7,1.2,1.7,1.5,2,2s0,1.4.5,2c2.3,2.9,6.6-.9,4.8-3.7l2.7-.3c.9.8,4.1,3.7,5,3,1.2-1.9-.6-6.1,1.5-7,.9,2.9,7.6,5.8,7.5,1.5s-2.5-2.5-2-4.5l6,2Z"/>
      <path class="st1" d="M556.7,336.9c.3,6-.2,12,0,18-8.9-3.6-5,.2-4.9,5.5s-1.1,3.7-1.1,4.9,4.4,3.1,4.8,4.2c.9,3,.6,9.8,1.2,13.3-4.4-2.6-3-8.1-2-12l-5,1.5c7.2,3.1-4.4,22.3,7,21.5-.2.6.2,1.5,0,2-.5,1.5-1.2,3.6-3,3-.3,0-.7,0-1,0-3.8-7.3-2.9-2.8-5.2-1.3s-4.8.2-6.2,2.2c-.7,0-1.5-3.6-1.5-4,.1-1.8,2.6-4.2,1-7l5,1c.7-1.4-1.2-4.8-1-5,.6-.5,3.3,1,3-1-4.5.1-3.3-4.9-4.2-5.8s-3.2-1.2-4.8-2.2c.4-.2.9-.6,1-1,1.9,1.9,8.4-1,9-2.5-6.4-2.2.7-5.3-.5-8.5s-4.3-3.5-6.5-1c-.2-1.3.2-2.8,0-4l5-4c.6-1.1-2.7-1.8-2.9-2.1s.8-3.7.9-3.9,1.8,1,2.4,1,.6-1.5.9-1.6c1.5-.6,4.2-.3,4.6-2s-2-4.7-3-6.4c2.2-1.2,4.7-2.1,7-3ZM550.2,385.8v1c.6-.3.6-.7,0-1Z"/>
      <path class="st1" d="M531.7,325.9c5.1-8,4.1-.5,9-1l-2.5,4-.5-3c-2.4-.8-3.7,2-5.5,2s-.3-1.8-.5-2Z"/>
      <path class="st1" d="M529.7,325.9c-.1,0-.3.9-.5.9-1.4,0-1.8-3.6-1.5-4.9,1.9.4,2.1,2.3,2,4Z"/>
      <path class="st2" d="M465.9,232.1c.7,3.2,4.3,6.1,7,8,4.2,3,12,7.2,17,9s6.6,2.9,10,2,1.3-2.7,3-2c.2.2,1.7-.6,2,.6,1.1,4.4-1.7,12,1,16.3-.2,0-2,1.8-3,1s1.8-3.1-4-4c-6.5-1-4.5-3.2-6.7-3.9s-7.1,2-8.3.8,2.2-4.1-4.3-2.7-3.4,2-3.7,1.8-.6-4.5-2.6-4.9-4,3-5.9,3-.4-1.8-1.2-2c-6.2-1.5-5.3,1.1-6.3,6-2.8-1.5-1-5-5.3-4.7s-2.5,2.5-3.3,2.7c-1.6.3-4.1-.5-5.4.5s-.7,3.4-.9,3.6c-.5.5-2.5-.9-3-1-4.5-.6-2.2,1.3-3.3,2.7s-2.6,1.1-2.7,1.8,1,.4,1,.5c0,.3,0,.7,0,1-2.7-.3-1.8.1-2,2s.1,2.1,0,3c-.5,3.1-1.1,4.5-1,7,.2,4,2,9.6,2,12.5v16c0,2.4,3.6,10.1,5,12.5s1.7,2.8,4,5,1.6.7,2,1c1.6,1.2,2,1.7,4,3s1.4.7,2,1,1.4.7,2,1,1.7,2,4,3c-1.1,1.9-31.6,19.1-36.9,23,0-4.9-6.3-1.7-10-1,0-3.3,4.5-4.8,5.5-7s-.8-16.4-2-18-3.8-.6-4.5-1c-1.5-.8-1.2-2.5-5.5-3-7-.8-8.7,2.3-12.2,2.8-1,.1-4.4-1.7-7.3-1.8l7-21c-1.9-.6-2.3,1.5-3.6,1.9-1.8.7-1.3-1.9-1.9-2-2.2-.3-3.7,2.4-5.9,2.1s-.6-2-1-2.1c-2.2-.3-3.5,2.1-5,2.1s-2.5-2-4-2-2.7,2-5,2.1-1-2.3-2.9-2.2-3.9,2.4-5.9,2.1-2.6-1.9-4.1-2.1c-2.1-.2-3.3,1.9-5,2.1s-3.6-2.3-5.8-2.1-2.8,2.3-5,2.1-2.8-2.3-5-2.1-2.8,2.3-5,2.1-2.6-1.9-4.1-2.1c-2.2-.2-3.6,2.3-5.9,2.1s-2.4-2-2.5-2.1v-3c7,.5,12.8-3.9,16.5-3.9s8.4,4.7,15.9,3.8,11.4-5.7,12.1-5.7,6.6,5.6,12,5.9,12.4-4,16-3.9,7,3.7,11.9,4c8.4.4,18.7-5.7,19.4-14.7.5-5.4-2.5-9.5-3.9-14.3,2.5-.2,3.4,3.2,6,1.5s6-8.3,5.6-9.6c-2-6.9-15-6.3-15.6-7-.9-.9,2-5.1,0-6.5-1-.6-13.7-.9-15-.5-.9-4.4-6.6-3.4-4.8-9.3s6.3-2.8,8.6-4,.2-1.6.3-1.7c.8-.5,4.1,1.4,3-3,.8-1,3.6-.7,4-1-.6,4.7,5.1,5.2,8.4,6.1s24.6,5.7,25.6,4.9c.5-2.8-3.7-3.4-6-4v-1c5.4.3,7.8-5.5,9-10,5.7,3.6,14.9,1.3,22,1Z"/>
      <path class="st10" d="M414,230.1c0-1.4-.9-4.5,1.5-4,7.8,11.7,9.1,3,6.5-6,4.9,0,4.3,2.2,7,5-1.3-6.8,3.3-9.5,9.5-9.1,6.3.4,12.7,5.8,1.5,3.1.7,2.4,1.4,3.8-1,5.5,6.3.9,6.6.5,5,6.5s-3.5,10.3-9,10-18.5-4.4-19.3-4.9c-1.5-1-1.5-3.5-1.7-5.1s0-.7,0-1Z"/>
      <path class="st14" d="M518.8,231.1c-1.6,2.2-2.3,6.8-5,9-.3,0-.7,0-1,0-.7,0-1.3,0-2,0-.1-2.9,3.5-4.1,4.5-6s.3-2.3.5-2.9c.8-.2,2.1.1,3,0Z"/>
      <path class="st14" d="M504.8,226.1c.6-1,1.3-1.6,1-3-.1-.2-4.8,2.5-2-.5,2.8,1.4,6.3-5.3,8-3.5s-1.3,6.3-2,8c-.7.2-1.3.7-2,1-.8-1.3-1.1-2.1-3-2Z"/>
      <path class="st14" d="M509.8,227.1c5.5-1.8,4.7-4.6,7-5.5s4,1.1,2.1,4.1-1.7,1.7-3,5.4c-2.8.7-7.5,5.6-7,9-1.1.2-2.1.4-3,1-3.1,2-.8,2.7-1.3,3.8s-4.4,2-1.7,4.2c-1.7-.7-2.5,1.9-3,2l-10-10.5c1-5.3,9.4-8.4,6-13.5,3.3-.6,2.2,6.1,3.7.7s.5-1.1,1.3-2.7c2.4-.4,1.7,1.1,2,3s-.1,2.7,0,4c1.9-.4,4.5-.6,6-2s.7-2.2,1-3Z"/>
      <path class="st10" d="M383,213.2l3,3c-10.8,6.3.6,12.3,8.3,8s.1-2.4,1.6-2c0,1,.1,2,0,3s-2,3-.6,5,6.1.3,7.6,5.9-2.2,2.5-3,3c-.4-1.7-2.1-2.1-3-3s.3-1.8-1.7-2.8c-3.6-1.7-9.4-1-13.3-1.2s-3.9-1-6-1l5,4c-5.4-1.5-6.5-3.5-8-4l-1-3c.9,0,3.9.2,4,0,.3-.3.8-8,.8-8.4-.3-1.7-3.4-2.3-2.8-4.6,2.7.5,4.6-.3,7-1s1.4-.7,2-1Z"/>
      <path class="st14" d="M494.8,225.1c-.8,3.5-5.3,9.2-5.9,13.6-.7.6-5-1.4-5-2.1s4.9-1.8,3-3.5-3.9,2.7-6,3-2.8-1-5,0v-3c1,.3,2.8,1.1,3.4,1.1s.5-3.6,2.6-2-2.5,2.5.5,2c1.4-2,3.4-4.9,4.5-7,1.5,2.1,5.6-1.7,8-2Z"/>
      <path class="st8" d="M412,230.1c-2.1-2-4.7,4.8-5,5s-3.1,0-4,1c-1.4-5.7-6.2-4-7.6-5.9s.4-3.7.6-5c5.5,1.1,10.7,2.9,16,5Z"/>
      <path class="st0" d="M414,231.1c.2,1.6.2,4.1,1.7,5.1s17.8,4.8,19.3,4.9v1c-3.5-.8-23.7-3.3-24.8-5.1-2-3,3.6-5.1,1.9-6.9.3.1.7,0,1,0l1,1Z"/>
      <path class="st1" d="M475.8,233.1v3c-1.7.8-2.9,2-3,4-2.6-1.9-6.3-4.8-7-8,5.2-.2,5.4-.3,10,1Z"/>
      <path class="st15" d="M486.8,227.1c1.5-3,1.8-7.4,4.5-10l1.5,5c.4.4,1.7-2.6,2,1s.1,1.5,0,2c-2.3.3-6.5,4.1-8,2Z"/>
      <path class="st8" d="M530.7,223.1c1,1.6,2,3.4,3,5-2.5.4-6.5-2.1-8.4-2s-.5,1.5-1.3,2-2-.1-2.2,0v-5s9,0,9,0Z"/>
      <path class="st11" d="M478.8,210.2c0,5.5-3.7,8.5-4.5,14-.5-1.1-2.5-.6-2.6-1.6s5.4-14.3,7.1-12.3Z"/>
      <path class="st1" d="M507.8,228.1c.4.6.6,1.4,1,2-1.4,1.4-4.1,1.6-6,2-.1-1.3.2-2.7,0-4,1.1-.4,1.5-1.1,2-2,1.9,0,2.2.7,3,2Z"/>
      <path class="st10" d="M486.8,208.2c1,1.2-2,6.7-4,7-1.1-1.7,2.3-8.9,4-7Z"/>
      <path class="st15" d="M483.8,221.1c-.8,3,1.3,2.3,2,4-1.5-.7-4.8,2.2-5,2-2-1.9,2.1-2,2-2.5-2.9,0-2-3.8,1-3.5Z"/>
      <path class="st8" d="M414,231.1l-1-1h1c0,.3,0,.7,0,1Z"/>
      <path class="st2" d="M348.1,237.1c-.3,3.2-.2,3.3,3,3-.2.7.4,2.6,0,2.9-.8.7-5.9-1.2-7.5,2.1s-.9,9.3-.4,9.9c3.1,3.7,34.3-3.3,40.8,1.6s2.2,2.4,2,4.5c-7.3-.6-12.2,4.6-15.6,4.8s-5.3-3.7-8.2-4.4c-7.6-1.8-15.5.6-20.5,6.5-8.3-12.6-23.3-6.1-32.4,2-2.7-9.6-11.5-9.5-20-9,1.4-4.5,3.1-7,3-12,3.4-1.6,9.5,3.5,11.5,3,3.5-.8-.7-4.5-.5-5.5s7.1-4.5,7.5-4.5h19c1,0,15.8-4.3,18.5-5Z"/>
      <path class="st0" d="M397,236.1l-9.2.8c-2-.2-3.9-1.4-5.7-1.8v-3c3.9.2,9.7-.5,13.3,1.2s1.4,2.5,1.7,2.8Z"/>
      <path class="st11" d="M348.1,237.1c.9-.2,2.1-1.8,4-1,.7,1.8-.7,2.9-1,4-3.2.3-3.3.2-3-3Z"/>
      <path class="st7" d="M382,232.1v3c-.3,0-.7,0-1,0l-5-4c2.1,0,3.9.9,6,1Z"/>
      <path class="st2" d="M411,366.9c-11.5,9.5-23,20.7-33.9,30.9-3.8.7-6.2-1.7-9-3l4-1c.5-1.8-1.2-2.1-1.5-3.5s.9-2.2.5-2.5c-.8-.6-7.1,2.2-8-2,2-1.9,7.7.3,8,0,.4-.5-1.7-4.5,1-5.5-1.1-2.5-3.4-.4-3.8-.8s.3-2.6-1.6-1.7-3.6,8.1-5.5,6,2.5-5.6,3-7.5c1-3.4-4.6,2.1-3-3.5,7.3-3.4,9.6-1.9,15.2-3.2,11.5-2.7,23-9.3,34.7-2.8Z"/>
      <path class="st5" d="M366.1,394.8v1c-.3.1-.8-.2-1,0l-4-7c2.9,1,4.7,2.8,5,6Z"/>
      <path class="st1" d="M294.7,404.8c.6.3.6.7,0,1v-1Z"/>
      <path class="st2" d="M366.1,395.8v-1h1c-.3.3-.6.8-1,1Z"/>
      <path class="st12" d="M539.7,395.8c0,.3.8,4,1.5,4,1.5-2,4.9-1.4,6.2-2.2,2.4-1.5,1.4-6.1,5.2,1.3-1.1.2-4.3,2.4-6.6,2.9-9.8,2.2-17.8,2.8-27.4,4.1-.1-.9-1.4-3.5-1-3.9s2.4,0,3-1c.6,0,1.3,0,2,0,1,0,2,0,3,0l-1-2c2.1.8,3.8-.7,5-1,4.1-.9,7.2.4,10-2ZM521.2,402.8v1c.6-.3.6-.7,0-1Z"/>
      <path class="st12" d="M494.8,400.8c.6,5.5.2,5.5,5,7s1.3,1.7,3,1c0-.7,0-1.3,0-2,1.4-.1,2.8.2,4.3-.2s2-1.4,2.7-1.8.6-.8,1-1l3-1c.4-.2.7-.9,1-1,.5-.2,1.4.1,2,0-2.6,1.2-2.5,2.6-1,5-2.8.6-7.4,2.6-10,4-1.5,0-3.6-.2-5,0l-13-2,1,5c-.8.2-1.6,0-2,1-6.4-.1-6.6-.5-12-2v-1c2.9-2.6,7.3-.6,9.3-1s.6-1.6.9-1.8c.9-.5,2.8,3.1.8-4.3,4.5-2,3.7,1.8,8,1,.6-1.3-1-3.7-1-4s1.5-.9,2-1Z"/>
      <path class="st6" d="M460.9,389.8c4.3,2.3,12.4,17,14,22v1c-1.7-.5-5.2-1.9-6-2-4.7-6.9-8-14.7-12-22,1.2.5,3,.5,4,1Z"/>
      <path class="st13" d="M505.8,410.8c.6,0,7.6-.5,5,2s-20.6,2.1-24,2c.4-1,1.2-.8,2-1,3-.8,9.4-2.6,12-3s3.4,0,5,0Z"/>
      <path class="st1" d="M520.8,400.8c-.5,1.1-2.8.9-3,1-.4.5.9,3,1,3.9-.7,0-2,.8-3,1-1.5-2.4-1.6-3.8,1-5,1.3-.3,1.9-.7,4-1Z"/>
      <path class="st12" d="M544.7,232.1c4.1,3.1-.4-5.1,3-5,1.3,3.1,4.1,4,4,8-2.3.9-2.3,2.1-2.5,2-.3,0-4.3-3.1-4.6-3.5-.9-1,.2-1.4.1-1.5Z"/>
      <path class="st1" d="M558.7,221.1c0,1.3,1.9,3.3,2,4,.3,1.7-.2,4.1,0,6l-3-1c0,0,0-.7,0-1,0-1.4-.6-3-.8-4.5s.8-2.1.6-2.4c-.4-.5-2.3.6-1.8-1.1.9-.2,2.4.2,3,0Z"/>
      <path class="st12" d="M557.7,229.1c0,.3,0,1,0,1-.4.3-2.1-.5-2,.5l2,1.5c-1.2.5-3.2,2.2-5,3l-1-6c3.9,2.5,2.2-2.8,6,0Z"/>
      <path class="st14" d="M558.7,221.1c2.5-1.1,1.1-4.6,6-2,.4,1.7-1.4.6-1.9,1.1-.9,1.1,2.6,5-2.1,4.9-.1-.7-2-2.7-2-4Z"/>
      <path class="st4" d="M317.7,283c-2.1.7-2.2,9.4-.6,10.5,5.3,3.7,14.2-4.5,16.5-4.3s5.9,7,11.5,5.3c7.5-2.2-.3-10.2-.9-14.1-1.6-10,5.9-15.6,15.3-14.4s5.3,1.8,5.5,2c3.5,5.2-7.1,2.7-8.4,2.9-7.7,1.4.2,10.9,1,14,3.3,12.6-10.3,17.4-20.5,12.6s-3.8-3.3-4.6-3.5-5.9,3.3-7.8,3.9c-8.5,2.9-16.6,1.8-19-8-8.2,5.1-17.1,11.8-27.5,8.5s-3.9-4.5-4.5-4.6c-2.6-.4-10.3,7.1-17.8,6-13.5-1.9,2.9-23.4-1.5-26.5-4.4-1.8-6.5,1.1-8.9,4.2-4,5.2-8.8,20.6-14.9,22.1-8.8,2.1-1.3-16,.3-19.7,6.7-16.3,27.8-45.9,48.4-40.5s6.8,4,7.5,7.5c2.9,13.1-16.3,24.1-27.5,24,7.8,5.1-4.7,20.5,5.5,21s7.1-5,9.8-10.3c4.2-8.5,14.2-18.5,24.7-15.3,8.3,2.6,5.7,16.5,3.4,16.5h-19.5c-.3,0-1.1,6.1-1,6.5.1,5.4,6,5,10.1,4,16.5-4.3,20.2-27.6,36.4-27.6,12.5,0,10.2,17.1,7,17.1s-15.4-.8-18,0ZM272,244.3c-6.9,1.2-18,17.1-20.2,23.8,8.2-2.5,21.3-7.5,24.7-16.2s.8-8.4-4.5-7.5ZM286.2,279c4.5-.7,10.4,2.4,11-3.5,1.2-11-10.7-3.6-11,3.5ZM330.1,279c1.3-7.1-1.4-12.9-7.9-6.4s-4.8,6-1.6,6.4,6.5-.3,9.5,0Z"/>
      <path class="st4" d="M373.5,283c-2,.7-3.7,9.5.2,10.8,6.9,2.4,14-5,15.7-4.7s3.6,5.4,9.3,5.6c11.3.2,1.6-10.3.7-14.6-2-10.5,10.1-17.1,18.8-12.8,2.9,1.4,2.6,2,1.7,4.8-20.4-4.2-6.3,9.2-6,16.6s-8,11.6-14.3,11.3-9.7-4.9-12.1-4.9c-5.1,0-10.5,7.2-19.7,3.6-16.1-6.2,2.8-33.5,17.6-32.6s8.5,16.9,6,16.9c-3.7,0-15.7-.8-18,0ZM375,279c4.5-.7,10.4,2.4,11-3.5,1.2-11-10.1-2.7-11,3.5Z"/>
      <path class="st3" d="M279.2,304c11.8,3.3,20.1-6.4,24.4-6.1s.9,1.8,1.6,2.4c2.9,2.3,6.1,4.3,9.9,4.6v3c-2.7-1-5.5,1.9-7.6,2s-3.3-1.9-5-2.1-3.3,1.9-5,2.1-3.5-2-5.9-2.1-1,2.3-2.9,2.2-4.5-2.2-6-2.1c-2.3.1-1.1,2-5.5,1,1.7-1.1,2-3.1,2-5Z"/>
      <path class="st4" d="M406,258.1c-.8,5.1-5,9.7-10,11,.5-1.6,3.6-10.5,4.1-10.8,1.1-.7,4.3.1,5.8-.1Z"/>
      <path class="st13" d="M382,329.9c1.1,0,7.3,1.1,8,1.5,1.7.8,1.5,3.3,2.5,3.5,2.2.5,1.3-1.5,2.4-2.5,5-4.2,15.4-4.4,15,4l-7-.5c.4,1.8,3.2,1.2,5,2.5,3.4,2.6,2.8,8-1.3,9.7s-9.8-.4-14,0-4.5,1.8-8.2,1.9c-5.9,0-8.5-.8-9.2-6.9-.8-7,2.1-7.8,4.7-13.2.5-.1,1.4,0,2,0ZM396,341.9c.2-.3-2.8-4.7-4-5,.7,1.6-2.2,4.7-2,4.9s1-.1,1.6.4,0,1.4.9,1.6,3.4-1.9,3.5-2Z"/>
      <path class="st13" d="M329.1,332.9c3.1-1.5,4.2,1.9,4.7,2,3.5.8,5.7-1.7,4.4,5.5s-4.8-.8-3.1,4.9,2.9.5,3.6,1.5c4.4,6.2-7.7,7.9-10,4s-2.4-10.5-2.4-11.6c0-2,.9-3.7,1.9-5.4s.7-.7,1-1Z"/>
      <path class="st4" d="M343.1,325.9c-1.1,0-5.8.2-6,0-.5-.5.8-4.3-.5-5l-1.5,5c-3.7,1.1-1.3-4.3-2-5h-4s0,5,0,5h-3s0-5,0-5c-3.7-.8-.6,3.8-3.6,4.9-4.7,1.6-4.4-1.9-4.9-1.9s-2,4.5-6.5,1.4v-6.4s9,0,9,0l.5,5c3,.5.8-4.3,1.5-5s18.1-.1,21,0l-4,2.5,4,4.5Z"/>
      <path class="st4" d="M279.2,320c-1.3,1.1-1.4,7.3,1,5s1.2-12.3,6.5-1l2-5,3.5,3,2-3c-.2,3,1.5,9.4-2.9,6.2s.5-1.2-.5-1.2,0,1.8-1.1,2c-2.1.5-4.3-.7-6-.7-2.9.1-5.9,1.1-8.9.7s-1.4-2.1-1.9-2.1c-1.9,0-3.3,2.5-5.5,2v-7c4.4,0,7.3,2.3,12,1Z"/>
      <path class="st4" d="M378,319c-.8,5.1,3.7,7.5-5,7l.5-3-6.5,3v-7s11,0,11,0Z"/>
      <path class="st4" d="M297.2,319l.5,5,1.5-5c2.1,1.2,11.4-1.8,8.3,2s-1.9,1.4-1.3,5l-4.5-5c-.3,5.2-1,6.9-6.4,4.9.2-2-1.7-7.7,1.9-6.8Z"/>
      <path class="st4" d="M344.1,318.9c7.9.5,5,.6,6,7-2.1-.8-4.2,0-6,0v-7Z"/>
      <path class="st4" d="M362.1,319l1.5,5,2.5-5c1,3.5-.8,9.6-5.1,6.6s-2.4-7.7,1.1-6.6Z"/>
      <path class="st4" d="M359.1,320.9c-2.2-1.1-5.9.9-4,3s4.8-1.7,4,2c-9.6,2.3-6.8-11.9,0-5Z"/>
      <path class="st12" d="M344.1,325.9c-.3,0-.7,0-1,0l-4-4.5,4-2.5c.3,0,.7,0,1,0v7Z"/>
      <path class="st13" d="M263.3,333.9v18.5c0,.4,1.7,2.7,1,3.5s-8.5,1.4-9,1v-7c-2.3,1-3.7,3.6-4,6l-6-6c.7,8.7,0,7.1-8,7,1-6.7-1-14.2-1-20.5s0-1.3,1.5-1.5c8.8-1.3,7,1.5,12,7,2.4-.7,4.1-7.4,4.6-7.8,1.4-.9,6.7.3,8.8-.2Z"/>
      <path class="st13" d="M340.1,332.9h7s0,12,0,12c8.2,2.7,1.7-10.7,3-12h8c.9.9-1.6,11.1,1.5,13,2.4.5,1.4-1.9,1.5-3.5.2-3.8-.3-6.9-1-10.5,2.6.4,7.5-1.6,7,2h1c-.2-2,1.5-2.8,3.4-2.8,2.9.6,3.8,7,1.7,8.4s-5.6-1.5-4,4.7,4.6,3.4,1.4,5.8-14.3-.3-18.7.2-2.9,2-6,1.7-5.6-2.7-5.6-4.5v-14.5Z"/>
      <path class="st13" d="M324.1,333.9c-.9,7,1,12.5,2,19-2.5.7-5.5-.9-7.5-.9s-3.6,2-5.9,2-5.9-3.6-6.4-6.6c-1.8-11.4,8.5-14.3,17.9-13.4ZM317.2,340.9c-2.4-2.4-5.6,4.3-4,6,2.4,2.4,5.6-4.3,4-6Z"/>
      <path class="st13" d="M276.2,340.4c0-.7-1.6-2-1-3.5,2.9.2,5.6-1.3,6.5,2,2.9-4.4,10.4-4.5,12,.9s.2,4.9.7,7.3,4,6.3.1,7.6c-11.7,3.9-3.4-12.7-11.3-11.8-.4,2,.5,11.3,0,11.9s-5.7.7-6.9,1c-.4-5,.5-10.6,0-15.5Z"/>
      <path class="st13" d="M274.2,355.9h-8c.9-3.7-2.5-12.4,3-11-6.2-3.5-4.9-10.3,2.4-7.8,2.8.9,1.3,15.1,2.6,18.8Z"/>
      <path class="st13" d="M304.2,353.9h-7c.5-5-2.4-12,5-11-.6-2.1-5.2-1-5.9-3.6-1.2-4.2,6.7-6.2,7.8-2.7s-1.1,4.5-1,6.8c.1,3.2,1.9,6.9,1,10.5Z"/>
      <path class="st6" d="M224.3,389.8c.4.3-.2,6.5,0,8-6.5-.7-4.1-.5-4.1-3.6s-.8-2.8-.4-3.4c.7-1.2,4.2-1.3,4.5-1Z"/>
      <path class="st9" d="M381,351.9c3-.4,10.3-1.8,12.4-1.8s6.2,1.2,10,.8c12.1-1.2,7.7-8.8,7.5-17,5.9,1,1.3,10.5,3.9,14.5-.3,6.6-16.9,5.4-21.4,5.4s-3.3,1.1-5,1-5.7-2.1-7.5-3Z"/>
      <path class="st12" d="M326.1,362.9c.5-.3,5.8-1.3,6-1,.4.7-1,3.3,1,3,1.9-6,2.1-.9,2.5-1,2.9-2.8,6.8-1.9,10.5-2-1.2,8.6-10.1,2-16.3,5l-3.6-4Z"/>
      <path class="st12" d="M349.1,361.9c.7,0,1.7,0,3,0s2,0,3,0,2.7.1,4,0,2,.1,3,0v1c0,.7,0,1.3,0,2l-2,1c-2-.3-2.6.8-3.5-2-.6,3.1-5,2.2-8,2-2.8-.2-1-2.5-1.5-4,.7,0,1.3,0,2,0Z"/>
      <path class="st3" d="M352.1,361.9c-1.3,0-2.3,0-3,0,.1-1.5,2.9-1.5,3,0Z"/>
      <path class="st3" d="M359.1,361.9c-1.3.1-2.7,0-4,0,.4-1.6,3.7-1.5,4,0Z"/>
      <path class="st9" d="M362.1,362.9v-1c.3,0,.7,0,1,0l-1,1Z"/>
      <path class="st9" d="M362.1,364.9c0,.2,2,1.3-.5,2s-1.2-1-1.5-1l2-1Z"/>
      <path class="st2" d="M357.1,375.8c0,0-.2-1.2,1-2l-1,2Z"/>
      <path class="st9" d="M508.8,245.1c.8.5,1.6,1.8,2,2l-2,4c0-.1-2.4-.6-3-1l2,9,3-5c1.1.6,2,1.4,3,2,0,4.6,0,9.3,0,14,4.9-3,4.4-8.3,5.9-13.5l1,.5c-.3,2.8.1,5.9,0,9s-.9.2-1,1c-.3,2.7.3,5.9.9,8.5s3.1.7,1.1,4.4c3.1.6,1.7-1.2,2-3,1.3,1.7,4.6.9,3-1s-1.8.2-2,0,.2-.8,0-1c3.3.6,4.3-5.9,1-7,.4-1.6.6-4,1-6l4.3,3.2.7,4.8c-.1.2,0,2.3,0,3,0,2.3.7,3.8,1,6l-2-.5c.3,1.9,1.5,3.8,1,5.8s-1.6.6-1.7.9c-.3.5.8,1.6.7,1.7-.3.5-4.7.9-5,1.1s.9,2.4,0,5-.5,1.3-1,2-2.3,1.2-2.1,3c-3.6-1.3-2.4-4.2-6.9-2l5-3c0-1.9-4.6-1.4-5-2s1.8-6.3,1-8c2.9,1,4.1,1.2,6-1.5-1.6-3.3-6.4,0-7-.5-2.4-2.3,5.4-2.4,4-5-6.7,1.6-2.9-3.9-4-5s-3.3.2-4,1c-3.7,1-.7-3.8-2.9-5.6-.9-.6-2-.5-3.1-.4-2.7-4.4.1-11.9-1-16.3s-1.8-.5-2-.6c-2.7-2.2,1.6-3.9,1.7-4.2.4-1.1-1.8-1.8,1.3-3.8-.8,4.3,2.5,3.7,3,4Z"/>
      <path class="st14" d="M546.7,276c5.7,1.6,3.5-.7,4.5-1,2-.6,2.6.5,3.5,2-.3.5-.4,2.1-1,3,.7,0,1.3,0,2,0s1.3,0,2,0c-.3,2.2-.4,2.9-1,5l-3,2h-1c.5-3.9-3.5-.9-6-1l4,4c-.6,0-1.3,0-2,0-1.6.2-3.8,1.8-6,1v-2c.8-2.5.1-5.3,1-8s1.5-3.2,2-5c.3,0,.7,0,1,0Z"/>
      <path class="st12" d="M527.7,253.1c-.5,1.2.9,2.5,1,3,.1.8,0,2.2,0,3-3-.4-1.6.4-2,2s0,.7,0,1c-.4,1.9-.6,4.4-1,6s.5,2.2-2,2l3,1c-.8,2.1-3.7,1.2-2,4s-.2.8,0,1c-.5.1-.9.5-1,1-.3,1.7,1.1,3.6-2,3,2-3.7-.7-2.3-1.1-4.4s-1.2-5.9-.9-8.5l1-1c.1-3.1-.3-6.2,0-9,.6-5.2,2.5-4.1,7-4Z"/>
      <path class="st9" d="M556.7,256.1c-.6,0-1.2-.1-1.8.1l-.6,2.8c-8.3-3.4-17.4-7.1-26.5-8-.4-4.5,5.7-2.1,8.2-.9s.7,2.1,1.2,1.9c1.4-.3,3.3-2.9,3.5-3,1.4-.5,17.3,2.3,16,7Z"/>
      <path class="st12" d="M533.7,273c.4,1.6,1.2,6.1,1,7.3s-1.7.6-1.8,1.1c-.3,2.1,0,5.2-.2,7.5.6.2.9-1,1-1,.3,0,.8,1,1,1-1.6,1.8-1.2,4.7-2,7s-1.1,1.1-1,2c-.9-.3-1.7-.9-2-1,3.1-4.5,0-4.3-4-4,.9-2.6-.2-4.8,0-5s4.6-.6,5-1.1-.9-1.3-.7-1.7,1.6-.2,1.7-.9c.5-2-.7-3.9-1-5.8l2,.5c-.3-2.2-.9-3.7-1-6,.6,0,1.4.1,2,0Z"/>
      <path class="st12" d="M550.7,261.1c-1.1,3.6-1.9,7.4-3,11s-1.3,2.4-1,4c-.3,0-.7,0-1,0-.6-.2-1.1-2.3-5-2,0-2,2.6-2.8,2.9-3.8.9-2.5-.1-5.6,2.1-8.2s3.3-1.2,5-1Z"/>
      <path class="st12" d="M565.7,265.1c2.6,2.3-1.9,8-2.5,10s.5,3.3-.3,5.5-5.2,8.9-7.1,9.5c-.5-2,.6-3.4,1-5s.7-2.8,1-5c.8-5.2,4.2-3.8,5-9l3-6Z"/>
      <path class="st5" d="M550.7,261.1c1.5.2,4.6,0,4.8.2s3.1,3.3,3.2,3.5c1,2.8-.7,3.5-3,4.3l-1-3-2,4c-.5-.5-1-1.3-1-2h-1c.4,2.8-.5,3.3-3,4,1.1-3.6,1.9-7.4,3-11Z"/>
      <path class="st5" d="M539.7,274c0-.2-.8-1.1-.7-2.3s2.3-13.1,2.8-13.6c2.6-2.1,5.1,1,3.9,3.9-2.2,2.6-1.2,5.7-2.1,8.2s-3,1.7-2.9,3.8c-.3,0-.7,0-1,0Z"/>
      <path class="st5" d="M539.7,275l-1-1c.2-.1.6,0,1,0,0,.3,0,.7,0,1Z"/>
      <path class="st9" d="M542.7,289v2c2.2.8,4.4-.8,6-1l-2,8c-8.6-1.4-7.2-1.2-5-8,.1-.3.9-.7,1-1Z"/>
      <path class="st12" d="M538.7,257.1l-3,10c-.4-.3-.6-.7-1-1,.4-3,.3-6.1-2.5-8l-1.5,5-1-7c2.1-1.7,6.5,0,9,1Z"/>
      <path class="st9" d="M552.7,270c1.4,1.4.7,2.2,4,1-.2,1.7-.8,3.3-1,5-.1.3-.7.6-1,1-.8-1.5-1.5-2.6-3.5-2s1.2,2.7-4.5,1c-.3-1.6.6-2.7,1-4,2.5-.7,3.4-1.2,3-4h1c0,.7.5,1.5,1,2Z"/>
      <path class="st9" d="M562.7,271c-.8,5.2-4.2,3.8-5,9-.7,0-1.3,0-2,0,.1-1.3-.2-2.7,0-4,1.2-2.4,2.6-5.3,4-8l.5,1c1.4-.9,1-3.3,2.5-3-1.1,1.6,0,4.7,0,5Z"/>
      <path class="st14" d="M539.7,275c-.1,2.7,0,5.8,0,8s0,.7,0,1c-2.9-.3-1.7.3-2,2s0,.7,0,1v1c0,.3,0,.7,0,1-1,0-2.1.1-3,0s-.7-1-1-1c2.3-2.6,3-12.7,5-14l1,1Z"/>
      <path class="st9" d="M550.7,290l-4-4c2.5,0,6.5-2.9,6,1h1s3-2,3-2c-.4,1.6-1.5,3-1,5-1.3.3-3.5-.2-5,0Z"/>
      <path class="st8" d="M512.8,247.1c.1.7.9,1.5,1,2-2,1.2-.4,4.1,0,6,0,.3,0,.7,0,1-1-.6-1.9-1.4-3-2s-1.7.3-2,0c-.4-.5.2-2.5,0-3l2-4c.4.2,1.4,0,2,0Z"/>
      <path class="st6" d="M535.7,267.1c3,2.4,1.6,5.1-2,6s-1.4,0-2,0c0-.7-.1-2.8,0-3s2.5,0,3-4c.4.3.6.7,1,1Z"/>
      <path class="st9" d="M527.7,253.1c2.2,0,6.2.6,9,1.5s5.5,1.8,3.5,3.5c-.4-.5-.9-.8-1.5-1-2.5-1-6.9-2.7-9-1h-1c0-.4-1.5-1.8-1-3Z"/>
      <path class="st5" d="M565.7,265.1l-3,6c0-.3-1.1-3.4,0-5-1.5-.3-1.1,2-2.5,3l-.5-1c1.4-2.6,2.7-6,6-3Z"/>
      <path class="st9" d="M513.8,255.1c-.4-1.8-2-4.8,0-6,.4,3.3,0,4.1,0,6Z"/>
      <path class="st9" d="M552.2,292c.6.3.6.7,0,1v-1Z"/>
      <path class="st1" d="M441.9,262.1c.5,0,2.5,1.5,3,1s-.2-2.8.9-3.6,3.8-.1,5.4-.5.8-2.5,3.3-2.7c4.3-.3,2.6,3.2,5.3,4.7,1-4.9.2-7.5,6.3-6s.6,2,1.2,2c1.9,0,4-3.4,5.9-3s2.4,4.8,2.6,4.9,2.5-1.5,3.7-1.8c6.5-1.4,3.5,1.9,4.3,2.7,1.2,1.1,6.4-1.5,8.3-.8s.1,2.9,6.7,3.9c-.9,6.4,3.7,5.7,6.9,7.6s2.3,2.7,3.7,3.3c3.4,1.2,2-1.5,2.3-1.8.6-.8,3.5-1.5,4-1,1.1,1.1-2.7,6.5,4,5,1.4,2.6-6.4,2.7-4,5s5.4-2.7,7,.5c-1.9,2.7-3.1,2.5-6,1.5.8,1.6-1.2,7.6-1,8,.4.6,5.1.1,5,2l-5,3c4.6-2.2,3.3.7,6.9,2-.3-1.8,1.7-2.5,2.1-3,0,.6.1,1.4,0,2-.5,2.7-1.5,2.2-2,3l-6-2c-.5,2,2,2.8,2,4.5,0,4.3-6.6,1.5-7.5-1.5-2.1.9-.4,5.1-1.5,7-.9.7-4.1-2.2-5-3s.3-1.3-.2-1.8-2.4,0-2.8-.2-.7-3.9-3.7-4.8-8.1.2-11.7-.2c-5.2-.6-16.9-2.3-21.5-3.4s-8.4-3.5-8.7-3.8c-.5-.5-.3-2.2-1.3-3.2-3.3-3.4-5.2-2.2-4.9-8.9.6-11.7,6.7-4.4,9.9-12.6-5.9-.3-10.1-.7-16,0l-2-4Z"/>
      <path class="st6" d="M525.7,293c4-.3,7.1-.5,4,4-1.4-.3-3.5.2-5,0,.1-.6,0-1.4,0-2,.5-.7.7-1.2,1-2Z"/>
      <path class="st1" d="M521.7,241.1c-2.6-.2-2.1,0-1,2-3.3.4-3.3.2-3-3,2.1.1,3.3.9,4,1Z"/>
      <path class="st1" d="M508.8,240.1c.6-.1,1.3,0,2,0s1.3,0,2,0c.5,2,3.3,1.4,3,3-2.2,1-8-1.9-7,2-.5-.3-3.8.3-3-4,.9-.6,1.9-.8,3-1Z"/>
      <path class="st12" d="M543.7,281c-.9,2.7-.2,5.5-1,8s-.9.7-1,1h-4c0-.3,0-.7,0-1s0-.7,0-1,0-.7,0-1,0-.7,0-1c2.4.2,2,.1,2-2s0-.7,0-1c-.6-3,1.5-1.9,4-2Z"/>
      <path class="st9" d="M537.7,289c0,.3,0,.7,0,1-.5,3.3-.4,8.8-5,6,.8-2.3.4-5.2,2-7,.9.1,2,0,3,0Z"/>
      <path class="st14" d="M509.8,362.9c3.4.7,3.7,3.3,5,6-3.6,3.6-.3,3.2,0,4,1.1,2.7-2.3,4.2-4,5.5,6.3,1.6,3.6,4.4,3,9.5-2.2,0-4.3-4.1-5-4.5s-1.1.2-3-.7c-3.5-1.8-1,.2-1.7,2s-1.9,1.2-2.1,1.5c-.9,1.8.9,3.9-1.7,3.7s-3.9-.8-4.3-1.2c-1.4-1.2-.2-4.6-2.2-4.7,1.6,2-.3,6.7,0,7s6.9.7,7,2.6-2.8,6.7-2,9.4h-1c.3-2.2-1-2.3-3-2s-1.9.6-2,1l-6-4.5,5,.5-1.5-5c-2.2,4.7-2,1.8-5,1.9s-3.5,1.2-4.9,1.1-2.7-3.6-3.6-4c.2-1.3.7-2.7,1-4s.7-.4.7-.8c0-.8-.7-1-.7-1.2-.2-.5.2-1.8,0-2-1.9-1.6-2,1.8-2.6,2-7.5,1.8-6.2-2.2-4.3-7,.8-.2.9,0,1-1h1c.2,1.2-1,4.7,1.5,4s2.4-2.2.5-1.6l-1-1.4,6.5,1c0-1.7.6-3.3,0-5-.9-2.8-2.6,2.7-3.5,1-.9-4.8,1.7-7.7,6.5-7.6s2.3,1.4,2.9,1.3c1.1-.1,2.3-2.9,3.5-3.8s2.3-1.4,4-2c-.5,3.6,1.3.8,4,1-.2.5.2,1.5,0,2-.8,2-5.9,3.8-4,9l6-8c1.2,0,3.9-2.4,5,0-1.1,2.2-2.4,7.9-3.5,9-1.9,2-5.7.8-6.5,4.5s.8,1.6,2.1,1.1c3.3-1.3,2.1-6,6.8-1.6-.1-2.4,2.8-2.8,3.4-4.3,1.2-3-2.7-5.4,2.6-4.7.7-2.7-5.2-2.7-.6-4l-2.4-2c.6-1.1-1.5-4,3-3ZM485.5,380.1c-.6-.6-3.2-1.7-3.7-1.3-2.1,1.9,3.9,2,2,4s-4.8-3.1-4,1c3.8,2.3,9.7.3,5.7-3.7ZM490.8,385.8c-.3-1.4-1.6-2.3-3-2v2s3,0,3,0ZM482.3,391.8v1c.6-.3.6-.7,0-1Z"/>
      <path class="st1" d="M460.9,389.8c.3-1.3-1.4-4-.8-4.8s3.2,0,1.8-2.2-1.9,1.1-2.5.1-2-10.5-1.5-11.1l4,1c.5-5.6-.1-3.3-3.4-4s-3.7-2-2.5-3,4.4,2,6.3,1.7,12.2-3.8,14-5.7.7-3.3,2.3-3.9,5.7-.4,6.8-.2.2,2.5.6,3c1.3,1.2,5.3-2.6,3.9,5.1-1.2.9-2.4,3.6-3.5,3.8s-1.8-1.3-2.9-1.3c-4.8-.2-7.4,2.7-6.5,7.6l-4,2h-1c.4-3.9-4.4-4.6-5-8-1.6-.2-1.2,2.1-2,3-1.4,1.5-3.7.3-3,2.5s4.8,3.4,7,3.5,1.5.1,2,0c-1.9,4.8-3.1,8.8,4.3,7s.7-3.6,2.6-2-.2,1.5,0,2c-1.3,0-2.8.5-3,2h3c-.3,1.3-.7,2.7-1,4-.8-.4-4.6-1.3-5-1,.4,6,1.1,4.7,4.3,7s3.5,3.1,6.7,3.5,3.1-2.5,4-1.5c1.8,2-2,3.3-2,3.5,0,1.1,1,1.4,1.1,1.5,2,7.4.1,3.7-.8,4.3s-.1,1.6-.9,1.8c-2,.3-6.4-1.6-9.3,1-1.6-5-9.7-19.6-14-22Z"/>
      <path class="st9" d="M556.7,333.9l3.1,2.5c-1.4,15.8,0,32.3-1,48-.2,3.4-1.2,6.3-2,9.4-11.4.9.3-18.3-7-21.5l5-1.5c-1,3.9-2.4,9.4,2,12-.6-3.5-.2-10.3-1.2-13.3s-4.8-3.8-4.8-4.2c0-1.2,1.1-3,1.1-4.9-.1-5.3-4-9.1,4.9-5.5-.2-6,.3-12,0-18s0-2,0-3Z"/>
      <path class="st1" d="M525.7,345.9c1,1.1-.2,4.8,0,5,.9.7,7.5-1,6,4-1-.3-7.5-.9-9-1-2.9-.1-8.7.8-11.2,2s-.5,1.3-.7,2c-1,.1-11.4,3.7-12,4l-2-6-2.5,4c-1.1-.6-1.5-2.9-2.5-3.5-1.5-.9-4.1.4-4-1.5,12.7-3.4,25.2-6,37.9-9Z"/>
      <path class="st9" d="M549.7,339.9c1,1.7,3.6,4.3,3,6.4s-3.2,1.4-4.6,2-.3,1.6-.9,1.6-2.2-1.2-2.4-1-1,3.7-.9,3.9c.2.3,3.5,1,2.9,2.1l-5,4c-1-5.2-5.2-1.5-8.3-2s-1.4-1.9-1.7-2c1.5-5-5.1-3.3-6-4s1-3.9,0-5c6-1.4,11.9-2.7,18-4l.6.8c4.7,1.3,2.9-1.3,3.3-1.8,1-1.2,1.5-.7,2-1Z"/>
      <path class="st6" d="M475.8,302c2.2,11.1-5.1,21-6,31.9-.5.7-2.4,1-2,3-.9-.4-4.1-.3-6-1,1.2-.8,2.1-1.4,2.5-2.9,1.3-4.2,2.7-12.4,3.5-17,.1-.9-.1-2,0-3s.9-.3,1-2,0-1.4,0-2c1.3-.5.9-1.9,1-3s0-1.3,0-2c1.7-.5,2.9-2.8,6-2Z"/>
      <path class="st6" d="M484.8,304c.7.7,2.9,2.8,3,3,.2.4,0,2.3,0,3-.4,3.8-5,11.8-6.5,16s-.2,3.2-.5,4-1.2,1-2,4,.2,1.9,0,2c-.7.6-4.6-1.2-6-1-.2-.2.8-5,1-6,1.5-6,4.5-16.8,7.4-22s1.2-3.1,3.5-3Z"/>
      <path class="st1" d="M492.8,327.9c2.7,6.2,10.1,8.3-1.6,9.9-5.3.7-8.2,1.4-9.9-3.9h-2.5c.8-3,1.8-3.4,2-4,.6.1,1.6-.2,2,0,1.5.6,2.2,2.6,5.4,2.1s-.9-4.1,4.5-4.1Z"/>
      <path class="st1" d="M475.8,302c3,.8.9,7.5,4.9,4.9s1-4.3,2.6-4.9c.8.4,1,1.5,1.5,2-2.3,0-2.6,1.4-3.5,3-2.9,5.2-5.9,16-7.4,22-2.5-.5-2,2.4-4,5,.9-10.9,8.2-20.8,6-31.9Z"/>
      <path class="st5" d="M510.8,357.9c-.4,1.3-.5,2.7-1,4v1c-4.5-1-2.4,1.9-3,3s-1.7,1.3-2,2c-1.1-2.4-3.8,0-5,0s-1.4-.9-2-1c.2-.5-.2-1.5,0-2s-.1-.7,0-1c.2-.4.8-1.9,1-2,.5-.3,11-3.9,12-4Z"/>
      <path class="st1" d="M547.7,340.9c-.4.5,1.3,3.1-3.3,1.8l-.6-.8c.9-.2,2.3-1.7,4-1Z"/>
      <path class="st1" d="M497.8,363.9c-.1.3.1.7,0,1-2.7-.2-4.5,2.6-4-1,1.5-.5,1.9-1.1,4,0Z"/>
      <path class="st1" d="M474.8,359.9v1c-4.2.5-4.2-1.5,0-1Z"/>
      <path class="st11" d="M461.9,335.9c1.9.7,5.1.6,6,1s2.4,3.1,2,4c-.7.7-11.7-6.3-9.5,4-2.3-1.9-5-.6-7.5,0l1,5c-8.2-.6-4.6,1.8-5.2,4.4s-2.6,1.5-3.3,2.6-2.2,7.1-2.2,7.5c0,1.4,11.8,21.1,13.6,24.4,3.9,7.2,7.3,15,12,22-12.1-1.7-31.4-.4-44.5-1-10.4-.4-24.7-3.3-34.9-2.1s-4.9,3.5-10.3.4-2.9-5-5.1-6.3c1-1,2-3,3-4,11-10.2,22.4-21.4,33.9-30.9,3.3-2.7,7.7-6.6,11-9,5.3-3.9,35.8-21.1,36.9-23,.8.4,2,.6,3,1Z"/>
      <path class="st9" d="M556.7,331.9l-1-.5,1-.5c0,.3,0,.7,0,1Z"/>
      <path class="st11" d="M567.7,369.8c1.1,1.8,4.1.9,6,1,.2.7.9,1.5,1,2-3.7.3-6.9-1.6-6,3-1.6.2-3.2,1.3-5,1,.9-1.6-.4-4.9.4-6s3.2-.7,3.6-.9Z"/>
      <path class="st15" d="M574.6,372.8c.1,1,0,2,0,3-2,.2-4-.2-6,0-.9-4.6,2.3-2.7,6-3Z"/>
      <path class="st15" d="M567.7,369.8c0,0-.4-1.7.7-2,6.1-1.6,4.6.6,5.3,3-1.9-.1-4.9.8-6-1Z"/>
      <path class="st12" d="M443.9,266.1c5.8-.7,10.1-.3,16,0-3.2,8.2-9.3.9-9.9,12.6-.4,6.7,1.6,5.5,4.9,8.9s.8,2.6,1.3,3.2,7.8,3.6,8.7,3.8c4.7,1.1,16.4,2.9,21.5,3.4,3.6.4,8.5-.7,11.7.2s3.4,4.6,3.7,4.8c-2.8,1.3-.7,5.1-5,4-.3-.5-1.3-.8-2-2s.9-3.2-2.4-1.9-2.4,3.4-2.6,4.9l-2-1c0-.2-2.3-2.3-3-3s-.7-1.6-1.5-2c-1.6.6-2.3,4.7-2.6,4.9-4,2.6-1.9-4.2-4.9-4.9s-4.3,1.5-6,2-2.1-.2-3,0c.7-6.8-2.3-4.5-6-4s-2.4-.6-3-2,0-2.3-1.5-3c-.7-.5-4.3,1.8-4.5,2,.5-2.7-.6-2-3-2,.2-1.2,1-2.1,1-4s0-1.3,0-2l-8,1c1.1-3.1,2.4-2.3,3-4,1.1-3.1-2.9-1.8-5-2l3-4c-2.3.3-6.1.1-6,2.9-3.8.5-.9-1.2-1-1.9,1.4-.9.7-3,1.5-4s7.7-1.5,1.5-3c-.4-3.1,0-3.3,3-3,.4-1.8-1.2-2.5-2-4,1.3-.2,2.3-.8,4-1Z"/>
      <path class="st12" d="M489.8,311c-2.6,5.7-4.6,13-7,19-.4-.2-1.4.1-2,0,.3-.8,0-2.5.5-4,1.6-4.2,6.1-12.2,6.5-16l2,1Z"/>
      <path class="st9" d="M501.8,303c.4.2,2-.4,2.8.2s.1,1.7.2,1.8l-2.7.3c1.9,2.8-2.5,6.5-4.8,3.7s-.3-1.7-.5-2c4.3,1.1,2.2-2.7,5-4Z"/>
      <path class="st1" d="M487.8,307l2,1c.2-1.6,1.1-4.3,2.6-4.9,3.3-1.3,2.1,1.4,2.4,1.9-2.4-.2-4,3.8-5,6l-2-1c0-.7.2-2.6,0-3Z"/>
      <path class="st14" d="M531.7,354.9c.4.1.9,1.9,1.7,2,3,.5,7.3-3.2,8.3,2s-.2,2.7,0,4c2.1-2.6,5.3-2,6.5,1s-5.9,6.3.5,8.5c-.6,1.5-7.1,4.4-9,2.5,1.1-3.7,1.8-5.9,1-10-1.8,0-1.2,2.7-2.5,4s-7.2,3.8-7.4,4.1.6,1.7.4,2.3c-.3,1.1-1.6,2.2-1.5,3,.3,1.4,4.5,2.3,5.5,3.5,1-1.9-2.5-6.1-2.5-6.5,0-1.2,3-1.8,4.3-1.5s1.2,1.7,1.7,2c1.6,1,4.6,2,4.8,2.2.8,1-.4,5.9,4.2,5.8.3,2-2.4.5-3,1s1.7,3.6,1,5l-5-1c1.6,2.7-.9,5.2-1,7-2.8,2.4-5.9,1.1-10,2,0-.7-1-1.7-1-2s0-4.1,0-4.3c.2-.8,3.2-1.2,2.7-4-1.1-5.9-5.5-3.4-5.7-3.7-1.6-2,1.9-3.3,2-3.6,1-3.6-1.8-3.3-2-4.1-1.5-5.7,2-3.7,2.8-4.5s-.2-2.2.9-2.8c3.3-1.9,5.3,3.6,4.3-6.2l-5-4.7c.7,6.2-3,6.6-8,8-1-3.1,3-6.3,3-6.6.2-1.5-1.2-3.6-1-5.3,1.5,0,8,.7,9,1ZM538.7,385.8c-3.3-.7-4.8,2.2-5,5l5,1v-6Z"/>
      <path class="st9" d="M539.7,374.8c-.1.4-.6.8-1,1-.5-.3-.7-1.8-1.7-2s-4.3.3-4.3,1.5,3.5,4.5,2.5,6.5c-1-1.3-5.2-2.1-5.5-3.5s1.2-1.9,1.5-3-.7-2-.4-2.3,6.4-3.1,7.4-4.1.7-3.9,2.5-4c.8,4,0,6.3-1,10Z"/>
      <path class="st9" d="M550.2,385.8c.6.3.6.7,0,1v-1Z"/>
      <path class="st6" d="M466.9,304c-.4,3.9-4,10-1,14-1,1.2-2.3,1.5-3.1,3.4-1.5,3.4-2.1,10.7-3.9,13.6-2.2-1-3.1-2.5-4-3l6-31.9c3.7-.5,6.7-2.9,6,4Z"/>
      <path class="st6" d="M457.9,298c-3-.6-1.9,1.5-2,3.4-.4,10.4-1.5,19.2-3,29.5-.6-.3-1.3-.5-2-1-.5-1.6-.9-3.3-1-5-.2-4.4,0-25.3,2-27.9s3.8-2.5,4.5-2c1.5.7,1.1,2,1.5,3Z"/>
      <path class="st6" d="M449.9,291c0,1.9-.8,2.8-1,4-1.7,9.8-.9,19.8-2,29.9s0,1.3,0,2c-.4-.3-1.3-.3-2-1-.5-2.7-.9-5.2-1-8-.3-8-.3-16-1-24,2.5.5,2.8-2.9,3-3,.4-.3,3,.2,4,0Z"/>
      <path class="st1" d="M435.9,281c0,.8-2.8,2.4,1,1.9,0-2.8,3.8-2.7,6-2.9l-3,4c2.1.2,6-1.1,5,2l-6-1c-.8,11.7.4,23.4,2,34.9v1c-1.4-2.4-5-10.1-5-12.5v-16c0-2.9-1.8-8.4-2-12.5h1.5c.6.2.5.5.5,1Z"/>
      <path class="st11" d="M412,230.1c1.8,1.7-3.8,3.9-1.9,6.9s21.3,4.3,24.8,5.1,6.5,1.2,6,4c-1,.9-22.4-4-25.6-4.9s-9-1.4-8.4-6.1c.3-.2,2.9-7,5-5Z"/>
      <path class="st12" d="M480.8,236.1c-.6,6.5,10.9,6.6,11.6,9.9s-.3,2.9-2.6,3.1c-5-1.7-12.8-6-17-9,0-2,1.3-3.2,3-4s3.8.2,5,0Z"/>
      <path class="st1" d="M457.9,298c.6,1.4-1.2,2.6,3,2l-6,31.9c-.6-.3-1.3-.6-2-1,1.5-10.2,2.6-19.1,3-29.5,0-1.9-1-4,2-3.4Z"/>
      <path class="st12" d="M498.8,263.1c5.8.9,2.7,3,4,4s2.8-1,3-1c1-.1,2.1-.2,3.1.4,2.2,1.8-.8,6.6,2.9,5.6-.3.3,1,3-2.3,1.8s-2.3-2.4-3.7-3.3c-3.2-1.8-7.8-1.1-6.9-7.6Z"/>
      <path class="st14" d="M438.9,274c6.2,1.5-.7,1.8-1.5,3s-.1,3.1-1.5,4c0-.5,0-.8-.5-1h-1.5c-.1-2.5.5-3.9,1-7,1.2,1,2.7.7,4,1Z"/>
      <path class="st9" d="M439.9,267.1c.8,1.5,2.4,2.2,2,4-3-.3-3.4,0-3,3-1.2-.3-2.8,0-4-1,.1-.9-.1-2,0-3,3.2,4.5,3.1,2.1,2-2s0-.7,0-1c1-.1,2.1.2,3,0Z"/>
      <path class="st14" d="M441.9,262.1l2,4c-1.7.2-2.7.8-4,1s-2-.1-3,0c0-.1-1-.3-1-.5.2-.7,2.1-1,2.7-1.8,1-1.4-1.3-3.3,3.3-2.7Z"/>
      <path class="st12" d="M443.9,318c.1,2.8.5,5.3,1,8-2.3-2.2-2.4-2.2-4-5v-1c1-.3.9-1.2,1-2h2Z"/>
      <path class="st12" d="M449.9,324.9c0,1.7.5,3.4,1,5-2-1.3-2.4-1.8-4-3,0-.7,0-1.3,0-2h3Z"/>
      <path class="st12" d="M436.9,268.1c1.1,4.1,1.2,6.5-2,2,.2-1.9-.7-2.3,2-2Z"/>
      <path class="st1" d="M494.8,223.1l7-1c-.5.8-.7,2.4-1,3-.8,1.6-.6,0-1.3,2.7-1.5,5.4-.4-1.3-3.7-.7,3.4,5.1-4.9,8.2-6,13.5l10,10.5c-3.4.9-7-.9-10-2,2.3-.2,3.1-.5,2.6-3.1s-12.2-3.4-11.6-9.9c2-.3,5.3-3.6,6-3,1.9,1.7-2.9,2.7-3,3.5s4.3,2.7,5,2.1c.6-4.4,5.1-10.1,5.9-13.6s0-1.4,0-2Z"/>
      <path class="st12" d="M467.9,316c-.7,4.6-2.1,12.8-3.5,17s-1.3,2.1-2.5,2.9c-1-.4-2.2-.6-3-1,1.8-2.9,2.4-10.2,3.9-13.6s2.1-2.2,3.1-3.4-.9-2.7,2-2Z"/>
      <path class="st14" d="M514.8,401.8c-3.5.6-1.3-2.6-2.3-4.7s-1.5-.2-1.7-.9c-.4-1.9.2-4.3,0-6.3l5.9.9c1.2-6.4-1.7-14.9,8.1-12.9-.2,1.9-.6,4.7-3,4l-.5-2c-3.3,3-.1,1.5.5,2s-.1,4.3.4,5c1,1.2,3.8.8,4.5,2.6,1.3,3.7-4,6.6,0,6.4-2.3.8-4.6,2.3-4,5-.7,0-1.3,0-2,0-2.1.2-2.7.7-4,1s-1.5-.2-2,0ZM517.8,398.8c.1-2.4.6-6.2-3-6-.7,3-1.1,5.8,3,6Z"/>
      <path class="st1" d="M528.7,395.8c0,.3,1.1,1.2,1,2-1.2.3-2.9,1.8-5,1l1,2c-1,0-2,0-3,0-.7-2.7,1.7-4.2,4-5s1.4.1,2,0Z"/>
      <path class="st1" d="M521.2,402.8c.6.3.6.7,0,1v-1Z"/>
      <path class="st9" d="M522.7,353.9c-.2,1.7,1.2,3.8,1,5.3s-4,3.6-3,6.6c5-1.3,8.7-1.8,8-8l5,4.7c.9,9.8-1,4.3-4.3,6.2s-.3,2.3-.9,2.8c-.8.8-4.2-1.2-2.8,4.5s3,.4,2,4.1-3.6,1.6-2,3.6,4.6-2.2,5.7,3.7-2.5,3.2-2.7,4-.1,4.1,0,4.3c-.6.1-1.5-.2-2,0-4.1.3,1.2-2.7,0-6.4s-3.4-1.4-4.5-2.6.3-4.4-.4-5-3.8,1-.5-2l.5,2c2.4.7,2.8-2.1,3-4-9.8-2-6.9,6.5-8.1,12.9l-5.9-.9c.2,2-.4,4.4,0,6.3s1.5.7,1.7.9c1,2.1-1.2,5.3,2.3,4.7-.3,0-.6.8-1,1-.7.3-1.5.3-3,1s-.7.8-1,1c-1.5-4.4-5.2.3-7,0,.5-3.5,3.2-1.9,4-5.5.9-4.2-3.1-.9-3-4.5-1.8.4-.9,3.8-1.7,5.8s-3.4.9-2.3,4.2l1.5-2c.9,0,.5,1.8,1.5,2,0,.6,0,1.3,0,2-1.1.1-2.1.5-3,1-4.7-1.5-4.4-1.4-5-7,2-.3,3.3-.3,3,2h1c-.8-2.7,2.2-7.5,2-9.4s-6.7-2.4-7-2.6,1.6-5,0-7c2,.1.9,3.5,2.2,4.7s3.5,1.1,4.3,1.2c2.6.2.8-1.9,1.7-3.7s1.6-.3,2.1-1.5c.7-1.8-1.9-3.8,1.7-2s2.2.3,3,.7,2.8,4.5,5,4.5c.6-5.1,3.4-7.9-3-9.5,1.7-1.3,5-2.8,4-5.5l5-1.5-1-4.5c-.7-.6-3.4,1.4-4,2-1.3-2.6-1.5-5.2-5-6v-1l10-3c-1.8-4.2-3.9-.6-5.8-.2s-2.8-.9-3.2-.8c.2-.6-.5-1.4.7-2,2.5-1.2,8.3-2.1,11.2-2ZM525.7,366.9h-3v2h3v-2Z"/>
      <path class="st9" d="M476.8,391.8c.9.5,3.4,4,3.6,4,1.3.1,3.2-1,4.9-1.1,2.9-.2,2.7,2.8,5-1.9l1.5,5-5-.5,6,4.5c0,.3,1.6,2.7,1,4-4.3.8-3.5-3-8-1,0,0-1.1-.4-1.1-1.5s3.9-1.5,2-3.5-2.6,1.7-4,1.5c-3.2-.5-4.8-2.1-6.7-3.5-3.1-2.3-3.8-1-4.3-7,.4-.3,4.2.6,5,1Z"/>
      <path class="st6" d="M500.8,410.8c-2.6.4-8.9,2.2-12,3l-1-5,13,2Z"/>
      <path class="st6" d="M502.8,404.8c1.8.3,5.5-4.4,7,0-.7.4-1,1.3-2.7,1.8s-2.9,0-4.3.2c0,.7,0,1.3,0,2-1.6.7-2.4-.8-3-1,.9-.5,1.9-.9,3-1,0-.7,0-1.4,0-2Z"/>
      <path class="st14" d="M513.8,402.8l-3,1c1.5-.7,2.3-.7,3-1Z"/>
      <path class="st6" d="M330.1,279c-3-.3-6.6.4-9.5,0s.4-5.2,1.6-6.4c6.5-6.4,9.2-.7,7.9,6.4Z"/>
      <path class="st6" d="M286.2,279c.4-7,12.3-14.4,11-3.5s-6.5,2.8-11,3.5Z"/>
      <path class="st6" d="M272,244.3c5.2-.9,6,3.4,4.5,7.5-3.3,8.7-16.5,13.7-24.7,16.2,2.3-6.7,13.3-22.6,20.2-23.8Z"/>
      <path class="st6" d="M375,279c.9-6.1,12.3-14.5,11-3.5-.6,5.8-6.5,2.8-11,3.5Z"/>
      <path class="st11" d="M396,341.9c-.1.2-3.1,2.1-3.5,2-.9-.2-.4-1.1-.9-1.6s-1.5-.4-1.6-.4c-.2-.3,2.7-3.3,2-4.9,1.1.2,4.1,4.7,4,5Z"/>
      <path class="st11" d="M317.2,340.9c1.6,1.7-1.6,8.4-4,6s1.6-8.4,4-6Z"/>
      <path class="st1" d="M508.8,251.1c.3.4-.3,2.5,0,3s1.6-.2,2,0l-3,5-2-9c.6.4,2.9.9,3,1Z"/>
      <path class="st1" d="M519.8,267.1c0-.7,1-.9,1-1l-1,1Z"/>
      <path class="st1" d="M529.7,256.1l1,7,1.5-5c2.8,1.9,2.9,4.9,2.5,8s-2.8,3.8-3,4l-.7-4.8-4.3-3.2c0-.3,0-.7,0-1,2.7.3,1.8,0,2-2s.1-2.2,0-3h1Z"/>
      <path class="st1" d="M525.7,268.1c3.3,1.1,2.3,7.6-1,7-1.7-2.7,1.2-1.9,2-4l-3-1c2.5.2,1.7-.8,2-2Z"/>
      <path class="st1" d="M524.7,276c.2.2,1.8-.2,2,0,1.6,1.9-1.7,2.7-3,1,0-.5.5-.9,1-1Z"/>
      <path class="st9" d="M528.7,259.1c-.2,1.9.7,2.3-2,2,.4-1.6-1-2.4,2-2Z"/>
      <path class="st9" d="M539.7,284c0,2.1.4,2.2-2,2,.3-1.7-.9-2.3,2-2Z"/>
      <path class="st9" d="M537.7,288v-1c0,.3,0,.7,0,1Z"/>
      <path class="st9" d="M506.8,365.9l2.4,2c-4.6,1.3,1.3,1.3.6,4-5.3-.7-1.4,1.7-2.6,4.7s-3.5,1.9-3.4,4.3c-4.7-4.4-3.5.3-6.8,1.6s-2.5,1.1-2.1-1.1c.8-3.7,4.6-2.5,6.5-4.5s2.4-6.8,3.5-9,1.7-1.4,2-2Z"/>
      <path class="st9" d="M464.9,372.8c.8-.9.4-3.2,2-3,.6,3.4,5.4,4.1,5,8s-.2.8-1,1-1.4,0-2,0l-4-6Z"/>
      <path class="st9" d="M476.8,375.8c1,1.7,2.6-3.8,3.5-1s0,3.3,0,5l-6.5-1,1,1.4c1.9-.6,0,1.5-.5,1.6-2.5.7-1.2-2.8-1.5-4l4-2Z"/>
      <path class="st9" d="M485.5,380.1c4,4-1.9,6-5.7,3.7-.8-4.1,3.3-.3,4-1,1.9-2-4.1-2.1-2-4s3.1.6,3.7,1.3Z"/>
      <path class="st1" d="M499.8,367.9l-6,8c-1.9-5.1,3.2-7,4-9,.6.1,1.6,1,2,1Z"/>
      <path class="st1" d="M514.8,368.8c.6-.6,3.3-2.6,4-2l1,4.5-5,1.5c-.3-.8-3.6-.4,0-4Z"/>
      <path class="st9" d="M477.8,385.8c0,.2.8.4.7,1.2s-.7.6-.7.8h-3c.2-1.5,1.7-1.9,3-2Z"/>
      <path class="st9" d="M490.8,385.8h-3s0-2,0-2c1.4-.3,2.7.5,3,2Z"/>
      <path class="st9" d="M482.3,391.8c.6.3.6.7,0,1v-1Z"/>
      <path class="st6" d="M468.9,378.8c-2.1-.1-6.3-1.4-7-3.5s1.6-1,3-2.5l4,6Z"/>
      <path class="st1" d="M469.9,304c0,.7,0,1.3,0,2-4-.5-1.1,2-1,3s0,1.4,0,2c-2.3-.4-2.8.4-1,2-.1,1,.1,2.1,0,3-2.9-.7-1.7,1.6-2,2-3-4,.6-10.1,1-14,.9-.2,2.2.2,3,0Z"/>
      <path class="st12" d="M469.9,306c0,1.1.3,2.5-1,3-.1-1-3-3.5,1-3Z"/>
      <path class="st12" d="M468.9,311c0,1.7-1,1.9-1,2-1.8-1.6-1.3-2.4,1-2Z"/>
      <path class="st14" d="M510.8,357.9c.4,0,1.8,1.2,3.2.8s3.9-4,5.8.2l-10,3c.5-1.3.6-2.7,1-4Z"/>
      <path class="st6" d="M444.9,286c-.6,1.7-1.9.9-3,4-2,5.7.6,20.3,0,27.9s0,1.7-1,2c-1.6-11.5-2.8-23.3-2-34.9l6,1Z"/>
      <path class="st1" d="M448.9,295c2.4,0,3.5-.7,3,2-1.9,2.6-2.2,23.6-2,27.9h-3c1.1-10.2.3-20.2,2-29.9Z"/>
      <path class="st1" d="M441.9,290l8-1c0,.7,0,1.3,0,2-1,.2-3.6-.3-4,0-2,0-3.1,1-3,3,.6,8,.7,16,1,24h-2c.6-7.7-2-22.2,0-27.9Z"/>
      <path class="st1" d="M538.7,385.8v6s-5-1-5-1c.2-2.8,1.7-5.7,5-5Z"/>
      <path class="st12" d="M445.9,291c-.2.1-.5,3.5-3,3,0-2,1-3.1,3-3Z"/>
      <path class="st9" d="M517.8,398.8c-4-.2-3.7-2.9-3-6,3.6-.2,3.1,3.6,3,6Z"/>
      <path class="st14" d="M502.8,404.8c-1-.2-.6-2-1.5-2l-1.5,2c-1.1-3.2,1.7-2.7,2.3-4.2s-.1-5.3,1.7-5.8c-.1,3.6,3.9.3,3,4.5-.8,3.6-3.5,2-4,5.5Z"/>
      <rect class="st14" x="522.8" y="366.9" width="3" height="2"/>
    </g>
  </g>
</svg>