<?xml version="1.0" standalone="no"?>
<!DOCTYPE svg PUBLIC "-//W3C//DTD SVG 20010904//EN"
 "http://www.w3.org/TR/2001/REC-SVG-20010904/DTD/svg10.dtd">
<svg version="1.0" xmlns="http://www.w3.org/2000/svg"
 width="1200.000000pt" height="1200.000000pt" viewBox="0 0 1200.000000 1200.000000"
 preserveAspectRatio="xMidYMid meet">
<metadata>
Created by potrace 1.16, written by Peter Selinger 2001-2019
</metadata>
<g transform="translate(0.000000,1200.000000) scale(0.100000,-0.100000)"
fill="#000000" stroke="none">
<path d="M8155 11986 c-53 -24 -82 -67 -189 -286 -304 -623 -526 -1329 -615
-1960 -35 -248 -43 -356 -50 -648 l-6 -283 -65 52 c-325 262 -720 408 -1150
426 -495 20 -965 -140 -1345 -459 -110 -92 -1818 -1807 -1914 -1921 -172 -205
-280 -427 -338 -697 -14 -67 -18 -129 -18 -300 0 -189 3 -228 23 -319 32 -143
74 -256 143 -391 73 -142 157 -257 288 -392 l101 -105 -208 -6 c-805 -24
-1736 -274 -2575 -689 -166 -83 -180 -92 -207 -135 -25 -39 -30 -57 -30 -111
0 -74 7 -89 73 -162 135 -148 195 -253 271 -477 24 -72 60 -165 79 -206 126
-273 410 -562 682 -692 50 -24 158 -67 240 -95 233 -81 344 -148 492 -296 143
-144 207 -252 293 -499 84 -242 154 -367 295 -528 199 -228 388 -352 701 -461
72 -25 152 -54 178 -66 72 -30 175 -100 263 -178 96 -85 128 -102 189 -102 69
0 130 33 166 89 70 109 239 480 347 758 269 696 430 1472 431 2071 l0 102 88
-74 c212 -179 436 -290 706 -348 136 -29 444 -32 581 -5 134 26 298 81 405
136 52 27 122 63 155 80 33 17 103 49 156 71 112 48 280 146 388 226 88 67
1582 1552 1672 1663 224 275 371 617 420 971 30 214 12 528 -42 741 -74 296
-182 508 -411 803 l-16 21 160 -4 c621 -13 1385 131 2098 396 305 114 729 303
851 381 58 37 89 97 89 171 0 65 -6 76 -94 176 -126 142 -169 218 -246 440
-91 262 -170 400 -329 575 -194 214 -376 329 -696 440 -224 77 -331 144 -482
297 -139 142 -201 248 -285 493 -96 279 -222 475 -428 661 -175 159 -313 238
-575 329 -228 79 -296 118 -442 247 -45 40 -94 78 -108 83 -37 14 -124 12
-160 -4z m-1613 -3182 c121 -46 260 -119 362 -191 59 -42 293 -269 867 -843
731 -730 791 -793 858 -893 116 -177 190 -349 232 -540 21 -94 20 -126 -1 -60
-22 67 -111 235 -173 328 -51 76 -216 245 -1056 1088 -725 726 -1023 1019
-1094 1073 -54 41 -96 74 -93 74 2 0 46 -16 98 -36z m-342 -300 c234 -40 449
-147 608 -302 58 -57 71 -75 81 -118 16 -66 2 -120 -42 -171 -40 -45 -82 -63
-149 -63 -62 0 -86 13 -178 94 -78 68 -214 138 -325 167 -95 25 -269 29 -360
10 -136 -30 -283 -106 -391 -204 -61 -55 -92 -69 -157 -68 -130 0 -219 133
-173 256 43 110 302 290 520 359 175 56 387 71 566 40z m-1375 -833 c47 -22
89 -64 104 -104 16 -41 13 -114 -4 -151 -8 -17 -207 -223 -443 -458 -409 -408
-429 -426 -475 -436 -152 -31 -277 110 -223 250 23 61 843 882 902 903 53 19
91 18 139 -4z"/>
</g>
</svg>
