<?xml version="1.0" encoding="UTF-8"?>
<svg id="Layer_1" xmlns="http://www.w3.org/2000/svg" version="1.1" viewBox="0 0 792 612">
  <!-- Generator: Adobe Illustrator 29.0.0, SVG Export Plug-In . SVG Version: 2.1.0 Build 186)  -->
  <defs>
    <style>
      .st0 {
        fill: #642b1e;
      }

      .st1 {
        fill: #a58b04;
      }

      .st2 {
        fill: #faec03;
      }

      .st3 {
        fill: #eddf0e;
      }

      .st4 {
        fill: #e5db29;
      }

      .st5 {
        fill: #eadb02;
      }

      .st6 {
        fill: #f3e604;
      }

      .st7 {
        fill: #ebece1;
      }

      .st8 {
        fill: #152574;
      }

      .st9 {
        fill: #ecf0f8;
      }

      .st10 {
        fill: #ae6c50;
      }

      .st11 {
        fill: #212d58;
      }

      .st12 {
        fill: #d7d7d8;
      }

      .st13 {
        fill: #e4ba02;
      }

      .st14 {
        fill: #f7ea8f;
      }
    </style>
  </defs>
  <g id="beLOFS">
    <g>
      <path class="st7" d="M327.7,395c2.2,3.6-2.1,5.7-1.9,10.3.3,6.6,4.4,9.6,5.5,14.6s-.2,7.8.9,10.1,5,2.5,7,4c4.7,3.5,6.8,8.7,10.4,12.6s9.4,8.7,10.1,9c2.3.9,5.6-2.9,6.6,3.4s-.8,3.5-.4,3.9,1.7,0,1.8.2c.2.2,0,3.1,1,4.3s1.9.5,2,.7-.7,1.3,1.4,2.2,9.3.5,9.6.8.2,8.4,0,9.3c-.4,1.4-2.6-.2-3,6.7s0,1.3,0,2c-4.9,8-9.3,17-12,26-14.6-.1-29.4,0-44,0,3.1-4.9-8.8-14.9.5-16s11.4,1,8.5-1.9-26.6-1-31-5c2.3-4.9,4.8-10.1,7-15,10.2-7,5.5,2.1,8.2,4.8s2.6.4,3.5,1c4.3,2.9,15,10,19.9,10.2s12.2-6.7,17.1-7.7,11.8.2,12.3-.2c2.2-2.3-3.3-11.9-6.1-13.5s-2.8-.2-3.7-.8-.9-2.1-2.3-3.2-2.5-.3-2.8-.7c-.6-.7.5-4.6-1.1-7.4-2.5-4.4-10.8-9.5-14.1-12.9s-.8-3.2-2-4-4-.2-5-2,2-1.4,2-2c0-2.3-2.6-5.4-5.1-4.5v5s-3,0-3,0c.5-2.2-1.2-15-2-16s-2.7,1.3-3,2c-2.1-13.8,2.8-18.3,7-30Z"/>
      <path class="st4" d="M241.7,141c-3.3.6-1.6-1.7-2-3.5-3.2-14.2-6.2-18.7-5.9-34s-2.6-6.8.6-9.5l323.3-1c3.2,15.5-2.4,28.1-5.7,42.8-2.8,12.6-5.1,24.6-8.7,36.2-2.3,7.4-8.5,19.1-8.6,26.5s3.7,9.8,3.9,15c.2,7.1-2.4,18.3-2.8,26-3.1,55.4.8,109.7,2,165,.2,6.7-3.3,12.7-3.1,18s5,14.3,6.5,19.5c1.8,6.3,3.1,12.3,4.5,18s3.9,12.4,6,18c0,.6,0,1.4,0,2l1,2c.1.3-.2.9,0,1l1,2c0,.6,0,1.4,0,2,.2,3,2.6,9.1,4,12,0,1.3,0,2.7,0,4,0,4,0,8,0,12s0,.7,0,1c-11,.5-22-.6-33-1s-7.4.1-11,0c-24-.7-48-.4-72,0-5,0-10,0-15,0s-8.9.9-12,1-3.3,0-5,0c-8,.1-16,0-24,0s-1.3,0-2,0c-1.9,0-4.3-1-7-1s-.7,0-1,0c1.7-6.9,5.5-13.8,9-20,0,.3.9,4.8,1,5-.4.3-.7.7-1,1-1.9,1.7-5.3,9.1-5,11.4s13.9.5,16.6.5c20,.6,38.1-1.5,57.9-2,33.4-.9,66.7,2,100,3.1,1.7-.3.9-14.7.6-16.6-.3-2.8-2.3-4.4-3.1-7.4-1.9-7.9-3.4-18.8-6-26.2s-3-1.1-3.8-3.5-.5-8.6-1.4-11.6c-1.5-4.7-3-9.4-4.5-14.5-2.1-7.1-4.2-7.3-3.2-16.6.9-8.4,1.1-10,.9-18.6s0-4,0-6c-.7-46.2-4.2-92.2-2-138.5.7-13.7,4.3-30.5,3.1-44.1-.4-4.1-2.5-4.9-3-8s-.4-9.5-.1-12,4.1-8.1,5-10.2c7-17.4,10.7-35.2,14.1-53.2s9.6-20.3,1-24c0-2,3.3-.4,3.9-2.6s-.7-4-1.1-4.2c-3.1-1.9-6.8,1.9-8.3,1.9s-.4-2-1.1-2.1c-3-.5-14.7,2-18.9,2.2-12.2.3-25.3-2.1-38-1.1-3.1.2-2.6-.5-2.5,3-2.5-1.6-7.3-1.5-10-2s-.9.1-1,0c-.1-.2.3-1.4-.2-1.8s-12-.5-13.2,0-1.4,4.4-3.5,2.8.6-1.7-1.5-2c-3.7-.5-8.4,1.1-12.6,1.1-9.4,0-20.1-1.8-29.5-2-56.4-1.2-112.7,1.6-169.1,1.1-2.9,0-6-2.1-8.5.4s-2.1,10.6-2,12.1,1.6,5,2.1,7.4c1.1,5.5,2.9,10.6,4,16s.6,5.3,1,8Z"/>
      <path class="st3" d="M240.7,133c2.8,0,3.8,3.8,4.7,5.8,3.9,9,6.3,19.4,11.2,27.8,2.9,4.9,17.7,18.3,16.9,22.8s-5.6,3.2-4.9,11.1,1.4,3.5,1.7,5.1-2.2,7.3,3.3,6.4c-1.7,5.5,2.1,18.3,4,24-1.1.1-5.5.2-5.9-.1-.9-.7-2.9-11-3.6-12.9s-3.7-10.3-6.5-8-2.2,45.8-2.1,52.5,1.2,19.3,1.7,28.8-2.6,6.1,2.4,8.7c-4.1,1.4-4.7,4.4-5,8.5s-1.3,6.8,4,7l-5,2.5c0-31.6-2.7-69.8,0-100.5.4-4.8,4-12.9,3.9-16s-7.5-17.5-8.9-23.5c-2.9-12.8-4.8-25.2-8.5-38s.2-3.6-2.5-3c0-.3,0-.7,0-1-.4-2.7-.4-5-1-8Z"/>
      <path class="st6" d="M259.7,375c.6,0,1.6.1,2,0,.8,5.2,6.6,5.4,11,5-.7,1.8-.8,3.1-.6,5,1.1,9.5,3.2,16.9,5.1,25.9s1.8,10.1,1.5,11.5-2.5,0-2.9.6.2,2.5-.4,3.6-5.1,3.5-5.7,7.3c-4.8-.5-1.9-4.3-4-6.5s-8.3-.5-8.9-3c1.6-8.3.9-17,.9-25.4s0-16,0-24c.7,0,1.3,0,2,0Z"/>
      <path class="st12" d="M300.7,492c4.4,4,29,3,31,5,2.8,2.9-7.8,1.8-8.5,1.9-9.2,1.1,2.6,11.2-.5,16-11.1,0-21.9,0-33,0,3.2-6.8,5.8-14.2,9-21s1.7-1.4,2-2Z"/>
      <path class="st13" d="M271.7,304c.5.6,1.3.7,2,1,1,.5,2.8,2,3,2,.6,1.2,1.8,3.1.4,4.1-2,1.5-12.3,5.7-13.4,6.9-2.2,2.6,2.6,1.7,4,1,1.8,2.6-1,7.4,0,11-.8.5-8.8,4.3-7,6,3.4-1.4,6.8-3.3,10-5,0,4.4,4,7.3,3,12-4.4,2.8-7.2,3.8-10,8-2.2.9-4,1.9-6,3,0-5.3,0-10.7,0-16l1-1.5-1-.5c0-4.3,0-8.7,0-13l5-2.5c-5.3-.1-4.3-1.9-4-7s.8-7.1,5-8.5,5.7-.5,8-1Z"/>
      <path class="st13" d="M263.7,351c2.5-1,1.8-.3,4.7-2s14.2-9.4,17-9.9,7.9,5.4,8.2,7.5-.8,1.5-1.5,2.2c-5.3,4.9-13.9,9-19.8,14.2s-4.6,4.6-6.5,7-.9,1.9-1,2c-1,.6-4.4-.1-5,3-.7,0-1.3,0-2,0,0-6,0-12,0-18,4.1-1,4.4-3.5,6-6Z"/>
      <path class="st13" d="M265.7,370c.3-.2,2,.2,2.9-.5,8.4-6.5,16-14.4,26.1-18.4.3,4.9,0,9.9-2.1,14.4s-8.2,7.5-10.9,12.6c-2.6.7-6.4,1.8-9,2-4.4.4-10.2.2-11-5,1.9-.7,2.1-2.3,3-3s.9-1.9,1-2Z"/>
      <path class="st14" d="M257.7,399c0,8.4.7,17.2-.9,25.4.6,2.6,6.8.8,8.9,3s-.8,6,4,6.5c-.4,2.3-.5,18.5,0,20.3s2.2,2.5,3,3.7c-1.5,3-4,2.8-6.3,4s-.5,1.8-1.4,2c-1.3.3-3.8.1-5.3,0s-4.2-.6-6-1-.7,0-1,0-.3-1.8-4-2-2.7-.2-2.9,0-1.5,6.3-2.1,7.9h-2c.6-4.8,4.2-13.6,6-18.5s1.8-6,4-5.5c.2,4.9,2,5.7,2,6s-2.2,4,.2,5.8,10.5,2.5,9.8-1.8c.3,0,.7,0,1,0,.7,0,1.3,0,2,0,.2-1.9-.3-4.1,0-6s1-2.6,1-5c0-5.8-2.8-5.8-3.1-10.9l-11.9.9c1-4.1,3-4.2,3.1-4.6.2-1.1-1.2-4.5-1.2-6.8.1-6,.7-12.9,1-19.1s-.2-3.7,2.1-4.4Z"/>
      <path class="st11" d="M414.7,363c7.2-.6,13.5,7,14,13.6s-1.2,4.2-1,4.4c.6.6,5,.8,7.9,4.7,3.8,5.2,2,8.6,3.3,12.7s7.9,4.1,6.8,14-7.4,16.7-10.1,20.9c-9,14.2-20.8,25.4-36.8,30.7-.3,1.2-.2,2.2-.8,3.7-2.3,5.7-12.7,22.3-13.2,26.3s0,.7,0,1c-3.5,6.2-7.3,13.1-9,20-1,0-2,0-3,0h-4c-.7,0-1.3,0-2,0,2.7-9,7.1-18,12-26,0,1.7,0,3.3,0,5,.9,1,6.4-3.6,6.7-4.2.7-1.3,0-3.2.8-4.7,1.4-2.5,8.1-13.2,8.4-14.8s-.5-4.1.2-5.2,3-.8,3.9-1.1c.1-.5-.3-1.4.1-1.8s9.7-3.3,11.5-4.5,15-12.8,15.7-13.6c1.1-1.3.6-3.1,1.6-4.6,1.5-2.2,5.6-5.3,5.8-5.7,1-1.6-.2-6.6.2-8.8-2.8-.4-5.3.4-8,1,3.5-4.2,12.8-10,11.8-16.3-1.1-7.4-5.4,0-8.3,2.2s-4.2,2.7-6.5,4l1-5c-2,0-4-.2-6,.4s-8.1,6.8-8,1.5c2.9-.2,14.9-8,17-10.5,2.8-3.3,5.8-8.3,2.1-12s-11.9,5.3-16.7,8.4-7.2,4-10.3,5.2-4.6.5-5,1,.1,1.4,0,2c-5.8-1.1-.2-1.8,0-2s-.3-1.4.2-1.8c.9-.7,3,.2,4.1-.3s.8-1.5,1.6-1.8c2.2-1.1,13.7-5.2,10.2-9.1s-8.9,5-10.9,5.6-10.2,2.4-11.1-.6c2.4,0,4.6.2,7-.5,4.6-1.2,20.1-10.9,21.5-15.5s-.7-6.3-.6-9.1,2.2-3.3,2-4.5-3.9-1.3-5-2-.7-2.2-1-2.5Z"/>
      <path class="st10" d="M252.7,434l11.9-.9c.2,5.1,3.1,5.2,3.1,10.9-1.3,0-4.5,1.2-5.4,1s-.3-2.9-3.1-2,.9,4.9,1.5,6c-1.9.4-4.3,2.9-7,2,0-.3-1.8-1.1-2-6s0-7.4,1-11Z"/>
      <path class="st11" d="M295.7,484c2,3.8-.6,2.6-.9,3.7s-1.7,8.5-2.3,9.1c-.9.9-4-1.7-2.8,5.1,3.6.9,1.3-3.2,2-4,1.8-2,2.2,4.1,4,2s-2.3-9.9,3-6c-3.2,6.8-5.8,14.2-9,21-3,0-6,0-9,0,3-6,5.3-13.1,8-19s-.1-.7,0-1c.6-1.3,2.3-4.9,3-6s3.3-3.4,4-5Z"/>
      <path class="st7" d="M513.7,515h-72c24-.4,48-.7,72,0Z"/>
      <path class="st4" d="M241.7,142c2.7-.6,2,1.3,2.5,3,3.7,12.9,5.6,25.3,8.5,38-4.1-4.2-4-12.4-5.5-18-2.1-8.2-4.3-14.5-5.5-23Z"/>
      <path class="st7" d="M557.7,516c0,.7,0,1.3,0,2-9.9.5-19.7-.4-29.6-1-1.9-.1-4,1.1-3.5-2,11,.4,22,1.5,33,1Z"/>
      <path class="st14" d="M249.7,515c8.3,0,16.7-.2,25,0s3.3-.5,4,1c-.8.3-.9.9-2.4,1-7,.8-17.9.2-25.1,0s-4,1-3.5-2c.7,0,1.3,0,2,0Z"/>
      <path class="st4" d="M235.7,498c2.3.8-.1,4.7.1,4.9.4.4,1.8-.5,1.9.6s-1.7,0-2,1.1c-.6,2.2.4,5.9,0,8.4.9.9,12.2-1.8,14,2-.7,0-1.3,0-2,0-1.7,0-3.3,0-5,0h-1c-2.2,0-5.1.4-7,0l-1-2c0-2.6-.4-6.6,0-9s1.7-4.5,2-6Z"/>
      <path class="st7" d="M409.7,516c.6,3-1.5,1.9-3.5,2-5.5.2-11.6.2-17.1,0s-4,1-3.5-2c8,0,16,.1,24,0Z"/>
      <path class="st4" d="M280.7,515c-.4,1-1.4.7-2,1-.7-1.5-2.7-1-4-1-.6-3.3,2.4-1.3,4.5-3,4.1-3.4,4.6-12.9,9.5-16-2.7,5.9-5,13-8,19Z"/>
      <path class="st14" d="M239.7,482c0,.3,0,.7,0,1,0,.7,0,1.3,0,2-2.7,2.2-2.1,6.8-3,10s-.7,1.6-1,3-1.8,4.6-2,6c-1.8-1-.9-3.5-.6-5,1-4.4,2.9-9.3,4.1-14s-.1-3.5,2.5-3Z"/>
      <path class="st7" d="M545.7,460c2.6-.5,2,1.3,2.7,2.7,2.4,5.4,2.5,10.3,3.3,15.3-2.1-5.6-4.6-12.2-6-18Z"/>
      <path class="st7" d="M553.7,487c2.8-.6,5.1,9.2,5,10.4s-1,1.4-1,1.6c-1.4-2.9-3.8-9-4-12Z"/>
      <path class="st7" d="M426.7,515c0,.6.2,1.9,0,2-.5.4-10.7.4-12-1,3.1,0,7.9-.9,12-1Z"/>
      <path class="st14" d="M241.7,471c0,2,0,4,0,6-.5.1-1,.5-1,1s0,1.4,0,2h-1c0-.1-.9-.6-.9-1.4s.7-7.2.9-7.6,1.4,0,2,0Z"/>
      <path class="st3" d="M264.7,372c0,0,.2-1.1,1-2,0,0-.2,1.3-1,2Z"/>
      <path class="st3" d="M263.7,351c-1.6,2.5-1.9,5-6,6,0-1,0-2,0-3,2-1.1,3.8-2.1,6-3Z"/>
      <path class="st3" d="M264.7,372c-.9.7-1.1,2.3-3,3s-1.4,0-2,0c.6-3.1,4-2.4,5-3Z"/>
      <path class="st3" d="M279.7,307c.5,1.5,3,5.5,3,6.5v15c0,2.3,9.9,10.4,11.8,14.2s3.4,9.1,3.3,12.8c-.2,8.4-6.7,20.4-15.1,22.5s-.7,0-1,0c2.7-5.1,8.3-7,10.9-12.6s2.4-9.5,2.1-14.4c-10.1,4-17.7,11.9-26.1,18.4s-2.6.3-2.9.5c1.9-2.3,3.7-4.6,6.5-7,5.9-5.1,14.6-9.3,19.8-14.2s1.8-.7,1.5-2.2-5-8-8.2-7.5-13.4,7.8-17,9.9-2.3,1-4.7,2c2.8-4.2,5.6-5.2,10-8s11.4-5.5,11-7.4-5.6-5.7-4-9.6c-.9-1-8.6,4.2-10,5-3.2,1.7-6.6,3.6-10,5-1.8-1.7,6.2-5.5,7-6,4.1-2.6,8.4-5.3,13.1-6.6v-11.4c-.5-.4-9.5,4.1-10.8,4.8s-1.9,2-2.3,2.2c-1.4.7-6.2,1.6-4-1s11.4-5.4,13.4-6.9.2-2.9-.4-4.1c.7.2,2.1,0,3,0Z"/>
      <path class="st7" d="M557.7,503l1.8,6.5-1.8,5.5c0-4,0-8,0-12Z"/>
      <path class="st7" d="M383.7,516v3c-2.2-1.4-7.8-1.4-7-4,2.7,0,5.1,1,7,1Z"/>
      <path class="st4" d="M240.7,480c.1,1,3,3.5-1,3,0-.3,0-.7,0-1,0-.7,0-1.3,0-2h1Z"/>
      <path class="st7" d="M552.7,483c.4.2,1.8-.2,2,0,.7.7-1,1.9-1,2l-1-2Z"/>
      <path class="st4" d="M243.7,469c-.2.5.3,1.7,0,2s-1.4,0-2,0c0-.7,0-1.4,0-2h2Z"/>
      <path class="st7" d="M372.7,515c-1.1,0-2.9,0-4,0h4Z"/>
      <path class="st7" d="M552.7,482l-1-2c0,.1.8,1.7,1,2Z"/>
      <path class="st3" d="M257.7,338c0-.7,0-1.3,0-2l1,.5-1,1.5Z"/>
      <path class="st14" d="M234.7,515c-.6-.1-1.2-.5-1.5-1-.4-.7.6-1,.5-1l1,2Z"/>
      <path class="st14" d="M241.7,515h1c-.3,0-.6,0-1,0Z"/>
      <path class="st12" d="M353.7,373c.3.3-.6,2.1.5,2l1.5-2c.2.8,8.3,10.3,10,13,1.3,7.2,3.7,12.8,2.9,20.4s-3.8,8.9-.5,11.7c7.5,6.2,11.1-18,8.6-22.1,1,4.2,10.6,7.7,11.5,9s.9,6,2.3,8.7c4.1,8.1,13,7.3,14.1,8.4s.3,3.2.9,4.6c3.8,8.6,10.8,8.8,19.2,8.3-8.7,12.8-24.5,23.3-40,25-2.4-1.6-13.2-1.8-15,0s-.7,2.5-2,3c-.1-.1-1.4.3-1.8-.2s.6-2.5.4-3.9c-1-6.4-4.2-2.5-6.6-3.4s-9.1-7.9-10.1-9c-3.7-3.9-5.8-9.1-10.4-12.6s-6.2-2.2-7-4-.3-6.9-.9-10.1c-1-5-5.2-8-5.5-14.6s4.1-6.8,1.9-10.3c2.9-8.1,5.7-15.7,8-24s2.2-3.2,1-9c5.5,1.9,9.3,6.4,13.7,9.9s3.2,1,3.3,1.1Z"/>
      <path class="st8" d="M347.7,328c-.8,4.5,3.4,4.7,5,6s.6.7,1,1l7.5,22c2.9,5,11.6-5,14.7-7.2s8.9-6.6,9.5-6.8c5.6-1.5,14.5-2.2,20.3-1s.7,0,1,0c0,3.6,4,4.9,4.8,6.7,1.6,3.6.7,9.1,2.2,13.3s.7.6,1,1-.2,1.8,1,2.5,4.7.5,5,2-1.9,2.5-2,4.5c-9-4-12.4,4.1-18.5,9s-3.8,2-5.5,3c-2.8-2.3-4.1,1.1-6.3,2.3s-2.9.4-4,.8-.6,1.8-.7,2c-.7.6-5.1-.1,1,4,.2.5.7,1.6,1,2s.5.7,1,1,.7-.1,1,0,.3.8,2,1,.7,0,1,0c.9,3,9,1.2,11.1.6s10.4-6.1,10.9-5.6c3.5,3.9-8,8-10.2,9.1s-.7,1.5-1.6,1.8-3.1-.5-4.1.3,0,1.7-.2,1.8c-.2.2-5.8.9,0,2-.1.5,0,1.3,0,2s-1.9,1.3-.6,3,2.6.7,3.6,1,.7,0,1,0c.3.3.6.8,1,1,2.4,1.4,4.6.7,7-1,.3,0,.7,0,1,0-.1,5.2,6.5-1.1,8-1.5s4-.5,6-.4l-1,5c-2.5,1.5-7.8,3.6-9,4.5-3.2,2.5,2.5,6.8,4.7,7.3s5.3-1.4,7.3-1.8,5.2-1.4,8-1c-.4,2.2.7,7.2-.2,8.8s-4.3,3.5-5.8,5.7-.6,3.2-1.6,4.6-14.5,12.8-15.7,13.6c-1.8,1.2-11.1,4.1-11.5,4.5s0,1.4-.1,1.8c-.9.3-3.6.7-3.9,1.1-.6,1.1.2,3.6-.2,5.2s-7.1,12.2-8.4,14.8-.1,3.4-.8,4.7-5.8,5.3-6.7,4.2c0-1.7,0-3.3,0-5s0-1.4,0-2c1.8-2.2,10.1-17.9,9-19h-17c-.1-.1-1.4.3-2-.7s-.7-4.1-1-4.3c1.3-.5,1.5-2.5,2-3,4.8-.4,10.3.5,15,0,15.5-1.6,31.3-12.2,40-25-8.5.5-15.4.3-19.2-8.3s-.6-4.3-.9-4.6c-1.1-1.1-10-.3-14.1-8.4s-1.4-7.4-2.3-8.7-10.5-4.8-11.5-9l-2.2,17.3c-1.4,3.2-5.5,4.4-5.4-.3.3-8,2.4-18.3-1.6-25.4s-1.6-1.3-1.8-1.6c-1.7-2.7-9.8-12.2-10-13-.8-3.3.3-9.3-.1-13.4-1.2-11.4-7.8-22.1-16.9-28.6-.9-5,6-4.3,9-3ZM402.7,347c-9.4.9-17,2.6-25,8h-5s0,4,0,4c-1.1,1-7.7,8.9-7.9,9.7-.4,1.4,2.3,5.8,3.4,6.3,1.8.9,1.9-2.7,2.5-4,2.9-1.4,6.5-5.5,8.6-7.9s0-5.2,6.4-4.1v6c-3.2,2.2-6.6,4.2-7.8,8.7-4.8,18.3,18.6,0,22.8-4.2,2-1.9,3.1-5.1,5-6.5s1.5.3,1.9,0c.5-.7,0-3.6.1-4.9s0-1.4,0-2,.3.3,0-1-1.7-4.5-2-5v-4c-1,.3-1.9.9-3,1Z"/>
      <path class="st9" d="M320.7,425c.3-.7,1.9-3.3,3-2s2.5,13.8,2,16h3s0-5,0-5c2.5-.9,5.1,2.2,5.1,4.5s-3,.2-2,2,3.8,1.2,5,2,1,3,2,4c3.3,3.4,11.6,8.5,14.1,12.9s.5,6.8,1.1,7.4,2.1.1,2.8.7c1.4,1.1,1.8,2.8,2.3,3.2.9.6,2.6.2,3.7.8,2.8,1.6,8.3,11.2,6.1,13.5s-9.8-.3-12.3.2c-4.9,1-11,8-17.1,7.7s-15.6-7.3-19.9-10.2-2.9-.4-3.5-1c-2.8-2.7,2-11.8-8.2-4.8,4.8-10.6,15.3-32.6,15.1-43.5s-1.7-5.8-2.1-8.5Z"/>
      <path class="st8" d="M333.7,351c-.2,2.1.6,4,1,6s1,1.9,1,2c0,.3,0,.7,0,1,.4,3.5-.3,7.4,0,11-2.3,8.3-5.1,15.9-8,24-4.2,11.7-9.1,16.2-7,30s2,5.2,2.1,8.5c.2,10.9-10.3,32.9-15.1,43.5s-4.7,10.1-7,15-1.7,1.4-2,2c-5.3-3.9-2,4.8-3,6-1.8,2.1-2.2-4-4-2s1.6,4.9-2,4c-1.2-6.8,1.9-4.2,2.8-5.1s1.8-7.7,2.3-9.1,3,0,.9-3.7.2-.8,0-1c1.9,2.3,4.7-7.4,5.1-8.2,1.2-2.2,6.4-7.6,3.9-10.8.2-.5.9-1.8,1-2,2.3.5,2.2-1.1,2.8-2.6,3.5-7.5,8.3-16.5,8.2-24.9s-1.8-6.5-2.1-10c-1.1-13.3,2.6-23.8,7.1-35.8s1.8-.8,2.2-2c4.1-11.4,6.3-20.8,3.2-32.8s.1-3.5-2.5-3c0-.3,0-.7,0-1l-1-1c0-.3,0-.7,0-1l-2-4c0-2.7,2.1-5.2,4-7s.8.2,1,0l7,14Z"/>
      <path class="st12" d="M370.7,468h17c1.1,1.1-7.2,16.8-9,19,.5-6.9,2.7-5.3,3-6.7s.3-9,0-9.3-7,.3-9.6-.8-1.2-2-1.4-2.2Z"/>
      <path class="st2" d="M268.7,143c-1.3,8.3.6,19.2,10.8,19.8s4.9-2.1,8.3-1.4,1.6,2,2,2.6c2.5,3.9,6.7,7.7,12,7.5l16,7.5c-8.2,7.3-7.9,10.8-12.6,19s-3,2-3.5,8.5c-1.5,19.7,9.7,32,26,40.5s8.8,4.7,12,6c-1.1,2.8-1.8,7.6,1.1,9.5s2.7.4,2.9.5-1.1,2.4,2.5,2.1,1.2-1.8,2.2-2.1,2.5.3,3.5,0,4.2-5.2,5.8-6c1,0,2,0,3,0,0,4.4,8.8,3.4,12,2s1.5-.2,2-1c.9,0,2.1,0,3,0v1c.4,2.2,1.9,0,2,0,4.9-.2,10.1,0,15,0s1.6,1.1,3.4,1.1,8.2-.9,8.6-1.1,0-1.4,0-2c1.3,0,2.7-.1,4,0s.9,1.4,2,1c.1-.6-.2-1.9,0-2,.4-.3,6.4.2,8,0s5.9-.7,5-3c1,0,2.1.1,3,0,7.8-1.1,16.4-2.7,21-8s1.3-.7,2-1c-.3,1.3.9,10.5,1.3,12.2s5.1,10.4,4.7,10.8c-2.3-.4-5.3,1.4-7.3,1s-.5-1.8-1.4-2c-2.8-.7-10.3-3-12.3-3h-2c-2.7-3.5-11.4-4.3-14.1-.6s1.6,24.4-.1,27.4-24.7,10.6-27.3,16.2,3.6,16,6.5,20.3,2,.6,2,.7c.3.3.4,1.3,1,2s.7.6,1,1c.8,1.1.4,3.4,2.5,3.1l21.4-2c.9.8,1.6,14,3.3,17.2s5,4.3,5.6,4.8c1.9,1.9-2.5,4.9,7.2,5.8.9,1.5-1.2,4.3,4,4s1.5-.9,2-1,2.3.5,2.8-.2-.1-2.3.3-2.7c.6-.5,2.6.2,3.7-.4s2.1-3.6,3.7-4.8,3.4-.8,3.5-1c.2-.2-1.1-3.4-.9-5.2s2-3.3,2.8-4.8l14,15c-.4.3-.5,1.7-2.5,2-3.1.5-7.5-2.2-8.3.7s-1.5,8.1-1.2,8.3c.5.4,4.6-.9,5.8,2.7s-1.6,3.1-1.8,4-.3,6.6.2,7.1,1.6,0,1.8.2-.3,1.4.2,1.8c1,.9,4.8-1.1,6.5-1.5s2.2.8,2.8.7.5-1.8.7-1.9c2-1.5,1.9,1.6,3,2.3,2.6,1.9,2.3.7,4.9,4s6.3-7.8,6.1-8.8-2.1-.5-2.1-1.1c-.3-6.9,4.4-2.8,5-3.4s0-2,.6-2.9c1-1.5,5.3-4.8,3.4-7.1s-6.6,2-5-7.1,10.6-7,11-15,0-1.3,0-2c.2-.2-.3-1.9.5-3s3.9-.8,2.4-2.9-3.3.3-1.8-3.5,2.9-1.1,3.6-1.9c2-2,.6-5.6,7.8-4.8,3.8.4,4.1,3,4.5,6.6,1.8,18.2-.2,40.9,3.9,58.2s-1,3.9,2.1,3.3c0,2,0,4,0,6-3.4,2.6-12.5-2-14.6.9-4.1,5.9,6,8.9,6.5,11.7s-7,11.2-5.9,14.4c-2.4-1.7-7.3-1.1-9.7-1.2-5.9-.4,4.4-7.1-.3-10.8,0-.3,0-.7,0-1s1.9-1.9,1-3-1.4.1-2,0-.7,0-1,0c-.5-5-2.9-2.1-4-2s-.7,0-1,0c-3.6.6-6,.3-5,5-3.7.9-3.7-5.7-4-6-1.1-1.1-2.6.4-2,2-.6.5-2.4-2.8-4-2,.8,4.2-2.8,3.8-6,4,.7-3.9-7.2-1.3-10-2-.4,1.2,1,1.9,1,2,.2,2.7-1.4,5.3,0,8-.7.2-.8.2-1,1-1.5,7.3,9.1-2.3,10,5-4.8-1.1-10.9,4.5-15.4,1.1s.9-4.6-6.6-3.1c-1.8-1-5-2.5-7-3-.8.8,6,12,6,14.5s-7.5,7.8-9,12.5c-2.4-.2-2.8-.5-3.5,1.9-1.3,4.1-2.9,10.5,3.5,10.1,0,.3,0,.7,0,1,.1.6-.3,1.5,0,2.3s4.4,2.1,1.1,6.3-16.2,2.5-17,3.4c-1.5,1.6,3.6,9.5-10,7-.7-.7,2.3-7.1,3-8,1.9-2.5,5.7-3.7,6.5-5s.8-7.5.4-7.9-5.8-.9-7-.7c-6.8,1.1-14.3,8.4-19,12.9s-6.2,5-9,9.2-5.7,7.9-6,12.5c-.7-.4-2.2-.3-3-1,.8-1.9.4-2,1.9-4.8,2.1-4,7.3-16.9,9.6-19.2s9.1-5.6,11.3-6.9,2.6,0,3.8-1,1.1-3.6,1.6-4,2.4.2,3.6-.4,10.4-11,11.3-12.2,3.3-5.3,4.2-6.7c2.5-4,9.1-15.7,10-20s1-9.4-1.1-13.5-3-3-3.7-4.3c-1.6-3.2-1.4-8.4-3.7-12.3s-6.6-5.4-7.3-6.7c-1.3-2.2-.8-7.5-3.5-11.5s-9.5-6.1-9.9-6.6c-1.1-1.6.7-5.5.7-7.4-.2-6.1-7-13.3-12.6-15.2-9.5-3-22.2.7-30.5,5.8s-6.2,6.5-10.6,7.9c-1.8-6.3-4.9-12.7-8.2-18.4s-2.3-1.4-3.2-2.9c-1.5-2.4-1.3-5.3-3.1-7.8-3-4.1-15.6-10-20.1-12.9s-11.4-8-17.1-12-3.4-4-4.7-4.8c-.9-.7-1.5.7-1.7.8-.9.2-2.7-.6-3.1.5-1,3.7,1.5,6.2,2.1,8.5,3.1,12.5,6.9,24.6,10.5,37s-.6,8.8,5.5,9c.9,1.5,1,3.9,3,5,3,14.7,1.8,18.2-3,32-2.2,0-2.7,1.3-3.6,2.9-3.4,6.4-8.5,22.5-8.5,29.5,0,12.4,5.2,15.4-.5,29.6s-2.7,3.1-3.3,4.7,0,4.1-.2,4.3c-.8.8-12.1-3.2-15.5-3.1-5.1.3-13.8,6.1-15.9,6.1s-1.1-1.3-1.6-2c-.8-1.2-3-3.5-3-3.7-.5-1.8-.4-18,0-20.3.6-3.8,4.9-5.7,5.7-7.3s0-3.1.4-3.6,2.7.5,2.9-.6-1.1-9.5-1.5-11.5c-1.9-9-4.1-16.5-5.1-25.9s-.2-3.2.6-5c2.6-.2,6.4-1.3,9-2s.7,0,1,0c-1.6,1.8-.3,2.8,1.5,3.1,3.6.4,12.8-7,14.9-10.1,6.3-9.2,5.8-27.8.4-37.3s-6.1-6.8-7.6-10.4c-2.6-6.4,0-14.4-9.3-16.8s-2.8.6-2.9.6c-.9,0-2.3.2-3,0s-2-1.5-3-2v-2c0-17,2-39.8,5-56.6s-1.1-4,2-3.4c2,3.6,6,11.8,10.5,11,6.7-1.1-2.6-10.4-4.3-13.7s-3.7-7.9-4.2-9.3c-1.4-4.4-1.6-20.1-5.6-20.9s-3.1,1.1-3.4,1.9c-5.5,1-2.9-4.2-3.3-6.4s-1.5-2.9-1.7-5.1c-.7-8,4.5-8.7,4.9-11.1.8-4.5-14-17.9-16.9-22.8-5-8.4-7.4-18.8-11.2-27.8s-1.9-5.9-4.7-5.8c-1.1-5.4-2.9-10.5-4-16,11.7,6.5,18.5,21.2,32,26ZM324.5,258.2c-.2-.3-4.7-2.3-6.2-3.3-17.2-12.5-26.8-31.7-24.7-53.3s6.3-18.7,6-21-4.1-4.7-6.5-1.4c-8,11.2-7.5,37.2-3.1,49.9s19.5,33,30.2,34.8,5.7-3,4.1-5.7ZM333.7,301c.1-.1,1.4.3,2-.7,2.7-3.9.8-8.6,2-12.6s1.9-.8,2.2-2c.8-2.5,2.6-8.8,2.4-11.2s-4-5.6-4.4-5.7c-3.9-.7-3.8,2.4-4.3,3.1s-1.4-.3-1.7.3c-1.8,3.1-5.8,20.6-6.2,24.4s-.8,4.9,2.9,5.3.7,0,1,0c.8,6.4,3.3-.3,4-1ZM355.5,290.1c-.3-.5-3.3-1.2-4.2-1-2.5.6-17.4,19.7-6.4,18.7s12.5-14.7,10.6-17.7ZM349.7,317c.7,1.2,3.9,3.3,5.4,3.1s.8-1.8,1.7-2.4c8.8-6.6,16.1-12.9,24.4-19.7s3.5-.6,3.6-1.5c1.2-7.3-7.9-8.5-11.8-4.1s-.1,2-.5,2.4c-1,1-4.4.6-5.6,1.5s-.6,2.7-1.5,3.5c-1.5,1.3-9.4,4.8-11.5,6.6s-2,3.9-2.3,4.7c-2.5,1.7-3.9,2.8-2,6ZM379.6,326.9c.9-1.1.7-6.5-2.4-6.9s-16.2,1.7-17.8,2.2c-2.7,1-2.7,6.1.8,6.8s18.8-1.4,19.4-2.1ZM467.7,359c-1.1-1.1-3.1.9-2,2s3.1-.9,2-2ZM508.7,370c-1.1-1.1-3.1.9-2,2s3.1-.9,2-2ZM295.7,427c.4,4.2.3,9.6,5.6,10s4.4-.7,4.4-1v-31.5c0-.7,5.5-10.3,5.7-12.2.4-3.6-2.2-2.9-3.6-3.9s-.9-4.3-5.5-1.3c-4.3,2.9-5,13.4-5.6,13.9-2.9,2.4-3.4-5.6-9.3-3.8s-5.6,14.6-5.7,18.3-.2,16.9,4.7,17.3c8.6.7,6.1-11.4,6.3-16.8l3,4c0,2.3-.2,4.8,0,7Z"/>
      <path class="st6" d="M550.7,127c-3.4,18-7.1,35.8-14.1,53.2s-4.6,7.6-5,10.2-.3,9.6.1,12,2.6,3.9,3,8c1.3,13.6-2.4,30.3-3.1,44.1-2.2,46.3,1.3,92.3,2,138.5-3.1.6-1.7-1.5-2.1-3.3-4.1-17.3-2-39.9-3.9-58.2-.4-3.6-.6-6.2-4.5-6.6-7.2-.8-5.8,2.8-7.8,4.8s-2.9.1-3.6,1.9c-1.5,3.8,1.7,3.3,1.8,3.5,1.5,2.1-1.7,1.9-2.4,2.9s-.3,2.8-.5,3-5.7.8,0,2c-.4,8-9.9,8.6-11,15-.4.4-1.9.8-2,1v-2s-3,0-3,0v2s3,0,3,0c-.5,1.3,1,5.4-4,2.5s-1.1-14.3-8.4-9.4-2.5,4.1-3.9,5.6-1.4.1-1.7.3l-14-15c.2-.3-.6-1.8.6-2,1.8-.4,4.6.4,6.8,0s2.7-1.8,4.5-2,.7,0,1,0,1.6.3,4,0,.7,0,1,0c4,.2,5,6.8,5.5,7,4.3,1.8,1.8-5.4,2.5-6s4,.2,5.4,0,1.4-.9,1.6-.9c.9-.2,2.3.2,3,0,4.4-1.4,5.1-3.6,3-8,.7-.8.6-1.3,2-2s2.2.4,2.8-.2,0-1.6.2-1.8c2.5-4.5,3.8-9.5,2.1-14.5s-1.7-1.5-2-2.2c-.7-1.4-.6-4.3-1.3-5s-2.7-.8-3.8-1.2c-1.3-1.4,2.4-4.8,3-5,5-1.4,10.1,1.8,16.3-2s.6-1.9.7-2c.3-.4,2.1,1.3,2.1-2.5s-1.7-2.1-2.1-2.5.9-1.8-1.4-2.1-9.9-.2-12.6,1.1c-.6-3.1,2.8-4.1,3-7,.3,0,.7,0,1,0,.8-.2,2.4.4,2.9,0s0-1.6,0-1.9c2.7-4.3,11.1-5.7,11-10.4-.3-8.2-11.2.8-15,3.4-3.3-1.1-5.5,2.5-7.7,2.8s-5.6-1.3-8.3.2c0-.4-.8-2.6-1-3,3.7-5.3-1.6-3.6-2-4s.7-4,.6-5.3c-.2-3.4-1.2-9.4-1.7-13.1-1-6.6-4.2-9.6-.9-16.6,7.4-9.4,11.8-23,12-35,2.4-.8,4.8-1.6,7,0-.1,6.3-.9,11.6-2.8,17.7s-7.6,13-3.7,16.4c2.3,2.1,4.1-.8,5.4-2.7,7.4-10.7,9.6-34.7,7.2-47.3,2.3-4.4-1.6-8.9.5-14s12.4-12.8,14.9-16.1c6-7.7,9.8-15.1,14.6-23.5s1-2.9,3-2.4ZM497.7,346h-2v4h2v-4Z"/>
      <path class="st5" d="M443.7,98c1.2,6.2-2.7,3.1-6.7,4.8s-11.1,9.3-12.3,13.2c-5.6.3-10.1-3.3-15.6-3.9s-10.4,0-15.4-.1c-1,7.5-1.8,15.5-3,23s-.6,4.4-1,6.5c-.9,4.7-6,4.7-6.9,0-1.3-6.7,4.7-21.7,4-29.5,2.3,0,4.7,0,7,0,.3-2.4,2-9.8-1.5-10.1-6.8-.5-5,5.5-6.5,10.1-4.5,0-9,0-13.5,0l-6.5,2c-.5-.2-1.4.1-2,0-6.6-1.2-13.4-1.6-20-3-1.4-3.2-1.6-4.2-5.3-3.8s-3.4,2.8-2.7,5.8c-9.4,4.4-18.8.4-28.5,0s-23.1,2.4-35,3.1c-9.9.6-19.7-.4-29.5-1l3.8,3.9,20.4,6.3,10.7,5.8c-.2.1-3.9,2.5-4.1,2.7-1.2,1.2-4.7,7.6-4.9,9.3-13.5-4.8-20.3-19.5-32-26-.5-2.5-2-6.1-2.1-7.4s1.5-11.5,2-12.1c2.5-2.5,5.6-.5,8.5-.4,56.4.6,112.7-2.3,169.1-1.1,9.4.2,20.1,2.1,29.5,2Z"/>
      <path class="st5" d="M485.7,100c-.1-3.5-.6-2.8,2.5-3,12.7-1,25.8,1.4,38,1.1s15.9-2.6,18.9-2.2.5,2.1,1.1,2.1c1.5,0,5.3-3.8,8.3-1.9s1.3,3.5,1.1,4.2c-.7,2.2-4,.6-3.9,2.6,8.6,3.7.4,16.5-1,24-2-.4-2.2,1.1-3,2.4-4.8,8.3-8.6,15.8-14.6,23.5-2.5,3.3-14.3,14.7-14.9,16.1-2.1,5,1.8,9.5-.5,14-.2-1.2-2.7-8.6-3.4-9.1-1.2-1-4.7-1.7-5.7-.3s2.6,13.2,3,17,.2,5.6.1,8.4c-2.2-1.6-4.6-.8-7,0,.3-14.2-3.7-21.3-8-34s0-1.7-.5-2.9c-2.1-4.2-7.8-3.3-9.4-5.6s-2.2-7.6-1.6-8.4c.8-1.4,4.7-1.7,6.6-3.5s5.7-9.9,6.2-10.3,6.6-1.9,7.6-2c2.9-.5,7.5,2.4,8.2-3.2,4.5.6,25,2.6,27.4,1.9s2.3-4.4,1.2-5.9-4.8-.7-6.6-.9c.8-3.4,7-5,9.7-5.3l3.3-3.6c-10.4-.2-20.6-1.5-31-1,0-3.6,6.8-3.6,7.8-6.7s.1-2.9.2-4.3c-2.1-2.2-20.3,5.9-17,12-1.4,0-2.9,1-4.5,1-3.1,0-6.2-1.6-9.5-1-.2-2.3-1.4-8.2-3.6-8.9s-1.7.7-2.4.9-1.4,0-2,0c1.5-2.7,3.1-4.4-1-7ZM519.4,143.3c-.5-.5-12-7.6-12.7-7.8-4-1.2-6.4.5-4.5,4.6.4.9,13.2,9.6,14.2,9.9,3.5.9,5.6-4,3-6.6Z"/>
      <path class="st13" d="M443.7,98c4.2,0,8.9-1.6,12.6-1.1s1.2,1.8,1.5,2c2.2,1.6,1.9-2.2,3.5-2.8s12.7-.4,13.2,0,0,1.6.2,1.8l-1,3c-4.3,3.4-7.7,9.7-10.4,15.1-2.7,5.4-5.6,10.8-6.6,16.9-2-.9-10.7-2.2-10.9-3.6l6-17.4c-2.5-.6-2.4,1.6-3.1,3.3-2.1,4.7-4.1,10.5-4.9,15.6l-10.9,1,7-21c-2.9-.5-1.6.8-2.3,2.2-2,4.4-4.5,14.2-6.7,17.2s-2.9-.4-4.1-.4c-2.3-5.9-3.9-7.2-2-14s8.6-11.7,12.3-13.2,7.9,1.4,6.7-4.8ZM457.7,101c-1.7-1.8-5.8,6.3-5,8l5-8Z"/>
      <path class="st13" d="M485.7,100c4.1,2.6,2.5,4.3,1,7-5.2,9.7-12.1,18.3-17.2,29.3-1.4,3,.3,5-4.8,3.2s-4.1-3.6-7-3.6c-1.2-1.5,14.5-30.5,16-35,1.1-.9,2.2-1,2-3,2.7.5,7.5.4,10,2Z"/>
      <path class="st6" d="M533.7,399c.2,8.6,0,10.1-.9,18.6-1,9.4,1.1,9.6,3.2,16.6,1.5,5.1,3,9.8,4.5,14.5s.4,8.4,1.4,11.6,3.3,2.1,3.8,3.5c2.6,7.4,4.1,18.3,6,26.2-4.1-.6-4.9-5.4-7.5-8-6.6-6.6-17.5-10.6-14.5-23,3.3-3.9,5.6-10.8,5-16s-3.9-11.5-9-11c-.3-.3-.7-.7-1-1-1-.9-1.8-.8-2-1-.4-.3-.6-.7-1-1-1.9-1.4-1.9-2.9-2-3-1.1-3.2,6.2-12.9,5.9-14.4-.5-2.9-10.6-5.8-6.5-11.7s11.2,1.6,14.6-.9Z"/>
      <path class="st3" d="M473.7,101c-1.5,4.5-17.2,33.4-16,35,2.9,0,4.7,2.8,7,3.6,5.1,1.8,3.5-.3,4.8-3.2,5.1-11,12-19.6,17.2-29.3.6,0,1.5.1,2,0-2.1,4.6-20.3,31.4-18,34,9.6.5,22.2-9.8,24-19,1,0,1.5,0,2,1-4.9,13.8-18.8,24.1-33.7,18.2-5.5-2.2-10-8.3-15.1-9s-13.7,4.1-21.2-.2c-.2-.5.2-1.5,0-2,1.2,0,3.1,1.8,4.1.4,2.1-3,4.6-12.9,6.7-17.2s-.6-2.7,2.3-2.2l-7,21,10.9-1c.8-5.1,2.8-10.9,4.9-15.6s.7-3.9,3.1-3.3l-6,17.4c.3,1.4,9,2.7,10.9,3.6,1-6,3.9-11.4,6.6-16.9,2.7-5.4,6-11.7,10.4-15.1Z"/>
      <path class="st3" d="M475.7,98c.2,2-.9,2.1-2,3l1-3c0,.1.7,0,1,0Z"/>
      <path class="st6" d="M263.7,305c-4.9-2.6-2.2-5.4-2.4-8.7-.5-9.5-1.4-19.4-1.7-28.8s-.6-50.3,2.1-52.5,5.8,6.1,6.5,8,2.7,12.1,3.6,12.9,4.8.3,5.9.1c1.1,3.3,1.4,4.1,3,7-3.2-.6-1.7,1.6-2,3.4-3,16.8-5,39.6-5,56.6-1-.4-1.9,1-2,1-2.3.5-5.6.2-8,1Z"/>
      <path class="st13" d="M282.7,231c-3.8,1.4-1.3,4.5-5,5-1.9-5.7-5.7-18.5-4-24s2.4-2.1,3.4-1.9c4.1.8,4.3,16.5,5.6,20.9Z"/>
      <path class="st5" d="M551.7,490c.7,3.1,2.7,4.6,3.1,7.4s1,16.3-.6,16.6c-33.3-1.1-66.6-4-100-3.1-19.8.5-37.9,2.6-57.9,2-2.7,0-16.3,1.7-16.6-.5s3.1-9.7,5-11.4c1.7,1.9,4.4.8,3-1s-1.9.2-2,0-1-4.7-1-5,0-.7,0-1c1.6,1,4.5-1.9,5-3,.8.7,2.3.6,3,1,2.8,1.7,2.5,5.1,6,4s1.3-.7,2-1,2.1-.2,3-1c.9,2.9,2.5,1.4,4,1.5,9.8.6,22.7.3,32.5-.5s14.8-4.1,22.5-3v3s-18,3-18,3l5.5,3h27c.7,0,2.5-2.3.5-3.5s-9.1-2.1-11.8-3.2-1.6-.1-1.3-2.2c6.8-1.7,12.5,2.3,18.5,3,9.5,1.1,18.8-2.6,28.2-.3l17.3-4.7c.4-1.8-.5-2-1.7-2.8-3.9-2.5-10.5-5.2-14.2-7.8s-3.2-5.5-7.1-6.4c7.1-2.7,19.1-8.2,24-14-3,12.4,7.9,16.4,14.5,23,2.6,2.6,3.4,7.4,7.5,8ZM441.7,499h-16v2h16v-2ZM417.7,500h-28v2h28v-2Z"/>
      <path class="st6" d="M385.7,500c.1.2,1.8-.2,2,0,1.5,1.8-1.2,2.8-3,1,.3-.3.6-.7,1-1Z"/>
      <path class="st5" d="M267.7,319c.3-.2,1-1.5,2.3-2.2s10.3-5.2,10.7-4.8v11.4c-4.6,1.3-8.9,4-13,6.6-1-3.6,1.8-8.4,0-11Z"/>
      <path class="st5" d="M270.7,331c1.4-.8,9-6,10-5-1.6,3.9,3.6,8.3,4,9.6.5,2-8.9,6.1-11,7.4,1-4.7-2.9-7.6-3-12Z"/>
      <path class="st3" d="M273.7,303v2c-.7-.3-1.5-.4-2-1,.1,0,1-1.4,2-1Z"/>
      <path class="st3" d="M321.7,386c-3.5,10.1-9.8,20.5-9.9,31.6s2.8,12.1,2.9,16.9-5.5,19.6-9,25.5-1.6-.2-2.8,1.7c-2,3-2.3,7.5-3.2,10.3s0,.7,0,1c-3.8-.2-1.2,4-6,5s-2.1,0-3,0c.4-2.8-1.4-2.8-1,0-.6,0-1.4.1-2,0-1.5-.3-7.3-5.1-9,0s0,.7,0,1c-2.8-.6-2.2,1.8-2,3.5.3,2.9.7,3.1,4,3.5v-4c.2-.2,1.5.7,2,1s.6.8,1,1,.7,0,1,0,.6.8,1.6,1c2.9.4,7.3-2.6,5.4,4-.7,1.1-2.4,4.7-3,6-2.3,0-6.2-5.5-8-4s-2.3,8.6-6,8c.3-6.4,3.7-9.8-4-12,5.5-2,1.5-9.4,2-10s6.9.2,7.9-4.7-2.7-4.2-2.9-4.3-.6,0-1,0c.8-3.2-3.9-3-3,0-.3,0-.7,0-1,0-.9.2-1.8,1.4-2.5,2-1.2-3.3-1.9-2.2-4.5-1s-1.8.8-2,1c-1.5-2.3-4.7-2.6-4-6,1.5,0,4,.3,5.3,0s.8-1.7,1.4-2c2.3-1.2,4.8-1,6.3-4,.5.7,1,2,1.6,2,2.1,0,10.8-5.8,15.9-6.1s14.7,3.9,15.5,3.1-.3-3,.2-4.3,2.5-2.7,3.3-4.7c5.6-14.2.5-17.2.5-29.6s5.1-23.2,8.5-29.5,1.3-3,3.6-2.9Z"/>
      <path class="st4" d="M259.7,464c-.7,3.4,2.5,3.7,4,6-.2.2.1.7,0,1s0,.7,0,1c-.8,0-1,.2-1,1,0,1.4,1.4.7,2,1s-.1,1.2,1,1v-6c2.6-1.2,3.3-2.3,4.5,1,.7-.6,1.7-1.8,2.5-2-.7,9.7,5.7,9.7,5,0,.2.1,3,4,2.9,4.3-1,4.9-7.3,3.9-7.9,4.7s3.5,7.9-2,10c-1.9-.5-4.4-.6-6.4-1.1-.6-.1-.6-.4-.6-.9,2.3,0,4.7,0,7,0-1.2-1.4-.1-6.3-1.1-6.9s-4.4-.3-4.8,0-1.1,6.3-1.1,6.9c-.7,0-1.3,0-2,0,.2-2.5-2.3-3.7,1-4.5l-3.5-3.5c-3.6,2.5-3.1,4-2.5,8-3.2.1-5.9.8-9,1-.6-3.3-1.6-4.8,0-8s2.5-1.1,2-3c3,.2,7.3-1.6,8-4.9-3.1-1.4-5.4-2.7-9-2.1.2-.3-.3-1.8,0-2s7.2,2,9,1l-4-4c1.8.4,4.2.9,6,1Z"/>
      <path class="st3" d="M248.7,461l4,2c.3,0,.7,0,1,0l4,4c-1.8,1-8.6-1.3-9-1s.2,1.7,0,2-.9.7-1,1-1,.4-1.1,1.5.9,1.9,1.1,2.5-.1.8,0,1c.4.6.1.7,1,1s.7,0,1,0c.5,1.9-1.8,2.6-2,3-1.5-4.5-4.5-4.5-6,0v-1c0-2,0-4,0-6,.6,0,1.7.2,2,0s-.1-1.5,0-2c.5-1.6,1.8-7.6,2.1-7.9s2.2,0,2.9,0Z"/>
      <path class="st7" d="M266.7,449c-.3,1.9.2,4.1,0,6-.7,0-1.3,0-2,0,.3-5.1-12.9-3-10,1s6-1.1,9-1c.7,4.3-8.6,2.7-9.8,1.8-2.4-1.8-.2-5.3-.2-5.8,2.7.9,5.1-1.6,7-2s4.1.2,6,0Z"/>
      <path class="st12" d="M260.7,449c-.6-1.1-5.1-4.8-1.5-6s2.3,1.8,3.1,2,4.1-1.1,5.4-1c0,2.4-.8,3.4-1,5-1.9.2-4.3-.3-6,0Z"/>
      <path class="st12" d="M264.7,455c-.3,0-.7,0-1,0-3,0-8.7,1.4-9,1-2.9-4,10.3-6.1,10-1Z"/>
      <path class="st4" d="M252.7,463l-4-2c3.7.2,3.8,1.9,4,2Z"/>
      <path class="st4" d="M306.7,294c.3,0,.8-1.5,1.7-.8,1.2.9,4.1,4.4,4.7,4.8,5.6,4,11.3,8.3,17.1,12s17.1,8.8,20.1,12.9,1.6,5.4,3.1,7.8,2.5,1.8,3.2,2.9c3.2,5.7,6.3,12,8.2,18.4,4.4-1.4,7-5.6,10.6-7.9,8.3-5.1,21.1-8.8,30.5-5.8,5.7,1.8,12.5,9.1,12.6,15.2s-1.7,5.8-.7,7.4,7,2.3,9.9,6.6,2.2,9.3,3.5,11.5,5.6,3.7,7.3,6.7,2.1,9.1,3.7,12.3,2.7,2.4,3.7,4.3c2.1,4.2,2.1,9.1,1.1,13.5s-7.5,16-10,20-3.7,6-4.2,6.7c-.9,1.2-10.6,11.8-11.3,12.2-1.1.6-2.9,0-3.6.4s-.2,2.9-1.6,4-3,.5-3.8,1c-2.2,1.3-10,5.6-11.3,6.9-2.3,2.3-7.5,15.2-9.6,19.2s-1.1,2.9-1.9,4.8-3.4,4-5,3c.5-4.1,10.9-20.6,13.2-26.3s.5-2.5.8-3.7c16-5.3,27.8-16.5,36.8-30.7,2.7-4.3,9.6-16.4,10.1-20.9,1.1-9.9-5.7-10.8-6.8-14s.5-7.5-3.3-12.7c-2.8-3.8-7.3-4.1-7.9-4.7s1.1-2.5,1-4.4c-.5-6.6-6.8-14.3-14-13.6-.3-.4-.9-.7-1-1,3-7.2,1.7-17.8-7-20s-.7,0-1,0c-8.3-5.1-20.9-.9-28.7,3.8s-13.5,11.1-14.3,10.2c-.5-6.4-4.3-16.9-9-21s-.6-.7-1-1c-.3-1.6-1.8-4-3-5,.6-3.3-3.2-6.3-6.3-5.8s-7.2,1.9-7.5,2.1-1.3,2.7-2.7,3.8-5.2,2.8-6.5,4c-1.1-1.1-2-.1-4-1l7-5.5c-1-.9-3.6-.5-5-.5,1.4-1.5,2.9-1.8,3-3-2.4.9-3.4-1.8-4-2-1.9-.7-1.7.9-2.7,2h-1.3c.2-.1.7-3.1,3-3.5l-3-.5,2-3c-4.4,1.8-4-.6-4.3-.7-1-.3-1.4.4-2.7-.3-2.8-1.4-2.9-1.3-4-4l5-4-4.4-.8-.6.8c-.2-.3-4.9-.8-1-5s3.3-.4,3-2c-2.4.5-6.6-3-6-6ZM323.7,318l8-3.5c-2.4.2-6.8,1.1-8,3.5ZM337.7,317c-.7-.7-8.5.8-9,3,2.6-.4,7.5,1.6,7-2h1s1,3,1,3v-4ZM329.7,324c.7-1.4-.6-2.7-1-2-.7,1.4.6,2.7,1,2Z"/>
      <path class="st4" d="M323.7,327v-1c.3,0,.7,0,1,0-.3.3-.7.6-1,1Z"/>
      <path class="st5" d="M241.7,478c1.5-4.5,4.5-4.5,6,0-1.6,3.2-.5,4.7,0,8,3.1-.1,5.8-.8,9-1s3.3,0,5,0,1.3,0,2,0c0,.5,0,.8.6.9,2,.5,4.5.5,6.4,1.1,7.7,2.2,4.3,5.6,4,12,3.7.6,5.6-7.6,6-8,1.7-1.5,5.6,4,8,4-.1.3.1.7,0,1-4.9,3.1-5.5,12.6-9.5,16s-5.1-.3-4.5,3c-8.3-.2-16.7,0-25,0-1.8-3.8-13.1-1.1-14-2,.4-2.5-.6-6.2,0-8.4s2.2-.2,2-1.1-1.5-.2-1.9-.6,2.2-4.1-.1-4.9c.3-1.4.8-2.2,1-3,4.1.3,3-7.4,3-10s0-1.3,0-2c4,.5,1.1-2,1-3s0-1.4,0-2h1Z"/>
      <path class="st1" d="M289.7,478c.3,0,.7,0,1,0,.9,0,2.2.2,3,0-1.2,5.5,1.2,4.2,2,5s-.1.7,0,1c-.7,1.6-3.4,4-4,5,1.9-6.6-2.5-3.6-5.4-4s-1.4-.9-1.6-1c2.3-1.1,3-3.6,3-6,.6.1,1.4,0,2,0Z"/>
      <path class="st4" d="M239.7,485c0,2.6,1.1,10.3-3,10,.9-3.2.3-7.8,3-10Z"/>
      <path class="st4" d="M241.7,478h-1c0-.5.5-.9,1-1v1Z"/>
      <path class="st9" d="M326.7,337c3-2.8,6.2-5.6,9.7-7.9,1.5-.8,1.5,1.3,2.3,1.9,9,6.6,15.7,17.2,16.9,28.6s-.6,10.1.1,13.4l-1.5,2c-1.1,0-.2-1.7-.5-2-.3-2,.5-11.5,0-12s-3.1.3-4.6-.9-1.3-3.9-2.4-4.6-3.6-.1-5-1-1.6-5.6-3.5-6.5c-3.9-1.8-1,4.1-4.5,3l-7-14Z"/>
      <path class="st7" d="M333.7,351c3.5,1.1.6-4.8,4.5-3s1.7,5.5,3.5,6.5,3.8.1,5,1,1,3.6,2.4,4.6,4.3.7,4.6.9c.5.5-.3,10,0,12-.2-.2-2.3-.3-3.3-1.1-4.4-3.5-8.1-8-13.7-9.9-.2-.8,0-1.7-1-2,0-.3,0-.7,0-1l-1-2c-.4-2-1.2-3.9-1-6Z"/>
      <path class="st11" d="M376.7,396c2.6,4.1-1.1,28.3-8.6,22.1s.1-8.3.5-11.7c.8-7.6-1.6-13.2-2.9-20.4.2.3,1.3.7,1.8,1.6,4,7.1,1.8,17.4,1.6,25.4s3.9,3.5,5.4.3l2.2-17.3Z"/>
      <path class="st9" d="M384.7,460c-4.7.5-10.2-.4-15,0,1.8-1.8,12.6-1.6,15,0Z"/>
      <path class="st9" d="M336.7,362c1.2,5.8.2,4.6-1,9-.3-3.6.4-7.5,0-11,1,.3.8,1.2,1,2Z"/>
      <path class="st9" d="M402.7,347c.2,1.6,2.7,2.5,3,3s1.9,4.4,2,5v1c0,.6,0,1.4,0,2l-2,5c-1.9,1.4-3,4.6-5,6.5-4.2,4.1-27.5,22.6-22.8,4.2,1.2-4.5,4.6-6.5,7.8-8.7,5.4-3.8,2.5-9.8-2-8.6s-10.4,9.4-13,14.6-.7,4.9-2.5,4-3.8-4.8-3.4-6.3,6.8-8.7,7.9-9.7,4.5-3.7,5-4c8-5.4,15.6-7.1,25-8Z"/>
      <path class="st9" d="M418.7,372c-.1,2.7,1.9,4.8.6,9.1s-16.9,14.2-21.5,15.5-4.6.6-7,.5-.7,0-1,0l-2-1c-.3-.1-.8.1-1,0l-1-1c-.3-.4-.8-1.5-1-2-.5-1.3-1.4-2.4-1-4,4.9.4,7.7-3,11-5s3.4-1.4,5.5-3c6.2-4.9,9.5-13,18.5-9Z"/>
      <path class="st9" d="M409.7,413c-.3,0-.7,0-1,0-2.4,0-9.4-1.9-10-4.5s3.8-1.8,3-4.5c3.1-1.1,7.5-3.4,10.3-5.2,4.8-3.1,11.8-13.3,16.7-8.4s.8,8.7-2.1,12c-2.1,2.5-14.1,10.3-17,10.5Z"/>
      <path class="st9" d="M422.7,416c2.3-1.4,4.2-2.2,6.5-4s7.2-9.6,8.3-2.2c1,6.3-8.3,12-11.8,16.3-2,.4-4.7,2.3-7.3,1.8s-7.9-4.8-4.7-7.3,6.5-3,9-4.5Z"/>
      <path class="st11" d="M353.7,335c4.8,4.1,8.5,14.6,9,21,.9.9,12.5-9.1,14.3-10.2,7.8-4.7,20.4-8.9,28.7-3.8-5.8-1.2-14.6-.5-20.3,1s-7.9,5.7-9.5,6.8c-3.1,2.2-11.9,12.2-14.7,7.2l-7.5-22Z"/>
      <path class="st14" d="M349.7,329c-.4-.3-1.4-.8-2-1-3-1.3-9.9-2-9,3-.8-.6-.8-2.6-2.3-1.9-3.5,2.2-6.7,5.1-9.7,7.9s-.8-.2-1,0v-2c.4-.4.6-1.6,1-2,1.3-1.2,5.1-2.8,6.5-4s2.2-3.6,2.7-3.8,6.8-1.9,7.5-2.1c3-.5,6.8,2.5,6.3,5.8Z"/>
      <path class="st11" d="M413.7,362c-1.5-4.2-.6-9.7-2.2-13.3s-4.8-3.1-4.8-6.7c8.7,2.2,10,12.8,7,20Z"/>
      <path class="st12" d="M401.7,404c.8,2.7-3.5,2.2-3,4.5s7.6,4.5,10,4.5c-2.4,1.7-4.6,2.4-7,1-.1-.5-.5-.9-1-1s-.7,0-1,0l-3-4c0-.7-.1-1.5,0-2s-.2-1.8,0-2c.4-.5,4.1-.7,5-1Z"/>
      <path class="st11" d="M370.7,371c2.6-5.2,6.9-12.9,13-14.6s7.4,4.8,2,8.6v-6c-6.5-1.1-4,1.2-6.4,4.1s-5.7,6.6-8.6,7.9Z"/>
      <path class="st11" d="M394.7,384c-3.3,2-6.1,5.4-11,5-.4,1.6.5,2.7,1,4-6.1-4.1-1.7-3.4-1-4s-.5-1.5.7-2,2.7-.1,4-.8c2.2-1.1,3.4-4.5,6.3-2.3Z"/>
      <path class="st11" d="M349.7,329c1.2,1,2.7,3.4,3,5-1.6-1.3-5.8-1.5-5-6,.6.2,1.6.7,2,1Z"/>
      <path class="st11" d="M377.7,355c-.5.3-4.5,3.5-5,4v-4s5,0,5,0Z"/>
      <path class="st11" d="M399.7,413c-1-.3-2.6.4-3.6-1s.5-2.7.6-3l3,4Z"/>
      <path class="st11" d="M407.7,358c0,1.3.4,4.3-.1,4.9s-1.7,0-1.9,0l2-5Z"/>
      <path class="st11" d="M405.7,350c-.3-.5-2.8-1.4-3-3,1.1-.1,2-.7,3-1v4Z"/>
      <path class="st11" d="M389.7,397c-1.7-.2-1.7-.9-2-1l2,1Z"/>
      <path class="st11" d="M401.7,414c-.4-.2-.7-.7-1-1,.5,0,.9.5,1,1Z"/>
      <path class="st11" d="M386.7,396c-.5-.3-.6-.6-1-1l1,1Z"/>
      <path class="st11" d="M407.7,356v-1c.3,1.3,0,1,0,1Z"/>
      <path class="st11" d="M324.7,351c2.6-.6,2,1.3,2.5,3,3.1,12,.9,21.4-3.2,32.8s-1.9,1-2.2,2c-4.4,12-8.2,22.5-7.1,35.8s2.1,5.9,2.1,10c0,8.4-4.7,17.4-8.2,24.9s-.5,3.1-2.8,2.6c.1-.5,0-1.4,0-2,3.6-5.8,9.2-18.8,9-25.5s-3-11.7-2.9-16.9c.1-11.1,6.4-21.6,9.9-31.6,4.8-13.8,6-17.3,3-32s.2-2.1,0-3Z"/>
      <path class="st10" d="M325.7,337c-1.9,1.8-4.1,4.3-4,7s1.8,3.4,2,4,0,.7,0,1c.2.7,1,.9,1,1,0,.3,0,.7,0,1,.2.9-.2,2.1,0,3-2-1.1-2.1-3.5-3-5s-1.6-.8-2.2-2.5c-2-6.1,2.7-8.1,6.2-11.5v2Z"/>
      <path class="st11" d="M304.7,464c2.5,3.2-2.7,8.6-3.9,10.8s-3.2,10.5-5.1,8.2,3.4-8.1,4-10,0-.7,0-1c1.7-2.4,3.7-5.5,5-8Z"/>
      <path class="st4" d="M305.7,460c0,.6.1,1.5,0,2s-.8,1.5-1,2c-1.3,2.5-3.3,5.6-5,8,.9-2.8,1.2-7.3,3.2-10.3s2.7-1.5,2.8-1.7Z"/>
      <path class="st12" d="M335.7,359c0-.1-.7-.6-1-2l1,2Z"/>
      <path class="st11" d="M323.7,348c-.2-.6-1.9-1.5-2-4l2,4Z"/>
      <path class="st11" d="M324.7,350c0,0-.8-.3-1-1l1,1Z"/>
      <path class="st1" d="M459.7,423c2.5,1.5,6.2,5.6,9.6,6s13.9-3.6,19.9-4c11.4-.8,21.8.4,32.5,4,.4.3.6.7,1,1l2,1c.3.3.7.7,1,1,3.9,3.7,6.5,5.9,9,11,.6,5.2-1.7,12.1-5,16-4.9,5.8-16.9,11.3-24,14s-1.3.8-2,1c-1.9-1.4-7.6-.1-10,1-17.6.2-32.2.1-44-15,0-.3,0-.7,0-1-.9-4.9-1.6-6.8,0-12s8.9-10.6,9-12.5-6.8-13.7-6-14.5c2,.5,5.2,1.9,7,3ZM478.7,434c-.5.2-2-.6-2,.6v11.4c3.4.8,1.8-2.9,2-5,2.1,0,6.2,5.5,7.7,6,6,1.7,6.9-4.2,1.3-6.5-.8-1.9,2-1.4,2.1-2,0-1.7-2.5-3.4-1.1-5.5-4.5-.4-6-.7-10,1ZM501.7,434l-8,3.5,4,1.5-2,7c4.5-2.7,3.1-8.6,10-7-.2,1.7.4,3.8,0,5.4s-2.4,0-2,1.6c1-.1,3.7.3,4,0s.2-7.2-.4-8.1c-1.7-2.3-6.9,1.3-5.6-3.9ZM515.1,451.6c-1-1.6-.9-4.1-3.4-3.6-1.6,3.3-3.3,2.2,0,6l-4-1c1.7,4.6.8,3.1-2,6h4s-1,3-1,3c2.8.2,4.1-2.4,7-1l-3-3c-.3-2,2.1-.1,3-1.6,2.2-3.7,0-3.8-.6-4.7ZM499.7,450c-7.3-2.5-9.2,2.6-15,4,2.1,2.5,2.3,4.7,2,8,8.1-4.9,4.6,1.7,5,2s7.3-1.1,9,0c.8-3.1-3.1-1.1-2-4.5s5.5-1.8,0-2.5v-1s2,0,2,0c-1.6-2.1-2.2-3.4-1-6ZM479.7,454c0,0,1.1-.3,1-1-6.2,1.5-2.1-3.1-6-3v4c-4.8-2.2-6,.9-2,3-3.8,1.5-.1,5-1,8,1.9.6,3-2.4,4.5-2s.6,4.8,6.5,2c.6-.6-2.2-6.1-2.1-7.4s2.5.2,2.1-1.5c-1.1,0-3-.7-3-2ZM506.7,450c-3.8-2.2-6.7,4.1-3.5,5s3.9-2.6,3.5-5Z"/>
      <path class="st6" d="M493.7,475c4.1,0,4.8.8,10-1s1.3-.7,2-1c3.8,1,4.7,4.8,7.1,6.4,3.7,2.5,10.3,5.3,14.2,7.8s2.1.9,1.7,2.8l-17.3,4.7c-9.4-2.3-18.8,1.3-28.2.3s-11.6-4.7-18.5-3c-.3,2.1-.1,1.6,1.3,2.2,2.7,1.2,10.8,2.6,11.8,3.2,2,1.2.2,3.5-.5,3.5h-27l-5.5-3,18-3v-3c-7.8-1.1-15,2.3-22.5,3s-22.7,1.1-32.5.5-3.1,1.4-4-1.5c2.8-2.3,2.7-7,4-9.2s6.2-5.5,8.8-7.4,6.3-7.2,10.2-6.3c-.7.9-3.7,7.3-3,8,13.6,2.5,8.5-5.3,10-7s15.2-1.1,17-3.4c3.3-4.2-.8-5.6-1.1-6.3s.1-1.7,0-2.3c11.8,15.1,26.4,15.2,44,15Z"/>
      <path class="st3" d="M513.7,129c-.8,5.6-5.3,2.7-8.2,3.2s-7.3,1.8-7.6,2c-.5.4-3.9,8.2-6.2,10.3s-5.8,2.1-6.6,3.5.9,7.4,1.6,8.4c1.6,2.3,7.4,1.5,9.4,5.6s.3,2.3.5,2.9c-2.5-2-4.5-4.2-8.1-2.6-3.4,2.3,3.3,9.7,4.6,12.6,7.4,16.8,6.2,37.4-4.5,52.5s-12.3,9.8-7.6,13.6,9.5-4.4,11.6-7.1c-3.4,7-.1,10.1.9,16.6s1.5,9.6,1.7,13.1-1.1,4.8-.6,5.3,5.7-1.2,2,4c-.1-.2-2.4-3.1-3-4-1.2-1.7-3.1-2.9-4-4s-1-4-3.1-5.4c-4.6-3.3-13.5-.9-16.9,3.4-.3,0-.7,0-1,0-5,.4-2,.7-3,2s-2.2.6-3,1c-2.6,1.1-3.5,1.6-6,3s-.7.8-1,1l-7-1c-4-1.4-8.2-2.2-12-4v-2c2,0,9.5,2.3,12.3,3s.7,1.9,1.4,2c2.1.4,5-1.5,7.3-1,.4-.4-4.3-9-4.7-10.8s-1.5-10.9-1.3-12.2c.4-.2.7-.7,1-1,1.4-1.5,3.2-1.8,5-3s.7-.7,1-1c13.6-8,26.5-18.4,30-35s.9-2.4,1-5,.2-3.6,0-5-.9-2.4-1-3c-2.5-12-6.9-18.2-17-25s-.7-1.2-2-2-.8.1-1,0c-2.8-1.1-2.8-4.8-3-5v-1.4c4.7-1.7-1-4.8,0-8.6,13.9.2,28-3.9,31-19,2.9-.7,6.4,1,9.1.5s1.6-1.7,1.9-3.5c1.9,2.1,3.7,1.7,6,2Z"/>
      <path class="st7" d="M401.7,327c0,0-1.4.2-2-.7-2.9-4.3-8.7-15.5-6.5-20.3s25.2-12.7,27.3-16.2-3.4-22.4.1-27.4,11.4-2.9,14.1.6-.3,1.4.2,1.8,1.5,0,1.8.2c3.8,1.8,8,2.6,12,4s1.8,3.9,7,1,.6-.8,1-1c2.3,0,6.6.1,6-3,.8-.4,2.9-.9,3-1,2.3,0,3.5.7,3-2,.3,0,.7,0,1,0,1.4-.2,2.7.2,4.2-.2s4.3-2.7,6.3-2.7,7.5,3.7,8.5,4.9c1.9,2.2,3,7.2,4,10,.6,4.6-8,13.8-8,16.5s3.2,2.9,5,3.5,1.5-.2,2,0c-.5,3,5.7,4.4,8,6,.5.6.7,1.4,1.4,2.1s1.8.6,2.6.9l1,4c-.4.1-2.9,2.5-3,3-.4-2.1-1.8-2.8-3-4-4.3-4.6-8.1-5.7-14-8-.5-1-3.9-4.1-5-5,1.2-2.2,1.4-4.8,2.6-6.9,5.1-8.8,8.4-5.1,3.4-17.1s.3-2.2-1.4-4.1c-3.6-4.2-5-.7-8.1,0-5.2,1.1-7.6,1.9-12.5,3.5s-3,1.5-3,3.6c-4.2.9-6.3,3.6-10,4-5.2-4.6-10.8-5.5-16.1-9.4s-8.8-6.5-10.8-.2l2,20.1c0,.9-1.8,7-2.1,7.5s-2.8,1.9-3,2c-7.8,3.3-13.4,5.7-21,10s-1.9,0-2.5.9c-2,3.2,2.7,13.9,5.8,15.3,4.9,2.3,19.5-4.5,27.1-2.3s.6,2.4,2.6,4.1c-.8,6.8,2.7,16.9,5,24s1.5,3.2,2,5h-1c-1.1-1.2-3.6-2.2-4.5-4-2.1-4.3-4.4-15.8-5.5-21s1.1-1.5,1-2-2.1-2.6-2.3-2.7c-4.9-2-18.1,1.6-23.7,2.7-.3-.1-.7,0-1,0h-1Z"/>
      <path class="st3" d="M334.7,130c.8,2.1.4,2.5,0,5,4-.9,2.5,1.9,3.2,2.7s2.4.2,3.3,1.3-.8,3.9,3.5,3c-.4-2.8-2.8-6.3,1-8,.1.3,1.5,1,2.2,2.3,2.4,4.5,3.8,11,8.8,12.7-.2.2.3,1.6,0,1.9-3.5,2.5-2.7-2.7-2.9-2.8-2.4-2.1-7,2.9-5,5s5.5.9,6.3.8c3.5-.3,8.3-5.6,12.7-1.8-3.5.6-5,2.1-7,3s-2.6,1.8-3,2-5.2,1.8-5.5,1.7c-1,0-2.4-3.6-8-2.8s-1.2,1.9-1.4,2.1c-1.6,1.2-2.6.7-6,4s-1.4-.3-1.8.2c-.7.8.1,2.9-.2,3.8-.5,1.7-14.1,10.4-17,13l-16-7.5c-5.3.2-9.5-3.6-12-7.5,7.2,6.3,10.6,1.3,16.7.2s10.6.6,14.6-1.4,1.4-2.5,1.7-2.8,2.3.1,2.9-1.6c1.8-5.6-2.9-9.7,3.3-14.8s2.8-.3,2.9-1.2c.4-1.9-1-3.2-1.1-3.5-.2-3.7.9-5.7,2-9,.4.2,1.4-.1,2,0Z"/>
      <path class="st5" d="M324.5,258.2c1.7,2.6,0,6.4-4.1,5.7-10.7-1.9-26.7-24.9-30.2-34.8s-4.9-38.7,3.1-49.9,6.2-1.5,6.5,1.4-5.5,15.8-6,21c-2.1,21.6,7.5,40.8,24.7,53.3s6,3,6.2,3.3Z"/>
      <path class="st5" d="M282.7,378c8.4-2.1,14.9-14.1,15.1-22.5s-1.6-9.5-3.3-12.8-11.8-11.9-11.8-14.2v-15c0-1-2.5-5-3-6.5.2,0,.6-1.2,2.9-.6,9.2,2.4,6.7,10.4,9.3,16.8s5.6,7,7.6,10.4c5.4,9.4,5.9,28.1-.4,37.3s-11.4,10.5-14.9,10.1-3.1-1.2-1.5-3.1Z"/>
      <path class="st14" d="M468.7,164c.2.1.8-.1,1,0l2,2c10.1,6.8,14.5,13,17,25l1,3c.2,1.4,0,3.5,0,5-1.6.9-.9,3.4-1,5-3.5,16.6-16.4,27-30,35s-.7.7-1,1c-1.8,1.2-3.6,1.5-5,3s-.9.6-1,1c-.7.3-1.1,0-2,1l-21,8c-.9.1-2,0-3,0-2,.2-5.9.7-5,3-1.6.2-7.6-.3-8,0l-2,1c-1.3-.1-2.7,0-4,0-3.7,0-8.8.6-12,2-4.9,0-10.1-.2-15,0h-2v-1c.8,0,1.7,0,2-1,7.4-.7,14.7-1,22-2,20.5-2.9,48.6-10.4,64-25,.9,0,1.4-.4,2-1s.7-.7,1-1c2.5-2.1,6.2-5,8-7.5s.7-2.2,1-2.5c1.1-1.5,3.2-4.5,4-6,8.5-15.7,5.8-31.7-9-42-1.7-2.8-3.1-5-7-4v-3c.7.4,2,.4,3,1Z"/>
      <path class="st3" d="M481.7,411c3.2-.2,6.8.2,6-4,1.6-.8,3.4,2.5,4,2-.6-1.6.9-3.1,2-2s.3,6.9,4,6c-1-4.7,1.4-4.4,5-5-2.8,1.6-4.9,4.2-2.5,6.9s2.8.6,2.5,2c-6.8,1,5.1,5,6,4-.4-2.5.6-4.7,1-7,4.7,3.7-5.6,10.4.3,10.8s7.3-.5,9.7,1.2.1,1.6,2,3c-10.7-3.7-21.2-4.9-32.5-4-6,.4-15.8,4.5-19.9,4s-7.1-4.5-9.6-6c7.5-1.5,5.2,2.1,6.6,3.1,4.5,3.4,10.6-2.2,15.4-1.1-.9-7.3-11.5,2.3-10-5,2.9,2.1,5.9.2,9,0,.9-2.6-2.9-5.4-3-5.7-1.2-4.4,1-3.1,4-3.3ZM491.7,415c-.2-.2,1.9-5.2-.5-5s.2,6.4-6.5,3c1.1,4.5,5.7,1.3,4,8,2.2-.1,1.7-3.7,2-4,.4-.4,3.7,1.4,5,1,1.1-3.1-3.5-2.4-4-3Z"/>
      <path class="st14" d="M334.7,166c3.1-.9,1.6,2.6,2,3l-12.5,9c-5.4,5.4-10.4,9.5-14.3,16.7-8.4,15.2-5.9,28,5.8,40.3s3.7,3.1,6,5,5.6,3.7,6,7c-16.3-8.5-27.5-20.8-26-40.5s1.6-5.2,3.5-8.5c4.6-8.2,4.3-11.7,12.6-19s16.5-11.3,17-13Z"/>
      <path class="st3" d="M479.7,358c.2-.2,1.2.2,1.7-.3,1.5-1.5,1.8-4.2,3.9-5.6,7.2-4.9,5.4,7.6,8.4,9.4,5,2.9,3.5-1.2,4-2.5h-3s0-2,0-2h3s0,2,0,2c0-.2,1.6-.6,2-1-1.6,9.1,3.8,5.7,5,7.1,1.9,2.2-2.4,5.5-3.4,7.1s-.5,2.8-.6,2.9c-.7.6-5.3-3.5-5,3.4s2,.6,2.1,1.1c.2,1.1-4.1,11.4-6.1,8.8s-2.3-2-4.9-4-1-3.8-3-2.3.2,1.8-.7,1.9-1.9-.9-2.8-.7c-1.7.4-5.5,2.4-6.5,1.5s0-1.7-.2-1.8c.3.4,8.1-4,10.4-3.8s8.8,6.8,9.6,5.8c-1.1-9,.3-13.6,9-17-1.5-2.9-9-2.4-10.8-4.2s-2.8-8.6-3.2-10.8c-6.3,7.2-6.7,10.8-18,9-1.5,1.3,5.8,8.1,5.9,10.5s-3.9,9.2-2.9,10.5c-.1-.1-1.4.3-1.8-.2s-.5-6-.2-7.1,3.1-.2,1.8-4-5.3-2.3-5.8-2.7,1-7.8,1.2-8.3c.8-2.8,5.3-.2,8.3-.7s2.1-1.7,2.5-2Z"/>
      <path class="st1" d="M309.7,302c-3.9,4.2.8,4.7,1,5s-1.2,1.2,0,4,1.2,2.6,4,4c-2.5,6.1.1,4.1,1.7,5.3s1.4,3.9,3.3,2.7h1.3c.9-1.1.8-2.7,2.7-2,.9,3.4-2.2,3.3-4,5.5,1.2.2,2.5-.4,4-.5v1c-2.2,2.5-4.2,3.6-1,5s2.9-.1,4,1c-.4.4-.6,1.6-1,2-3.4,3.4-8.2,5.4-6.2,11.5s1.8,1.9,2.2,2.5c-6.1-.3-4.3-5-5.5-9-3.6-12.4-7.5-24.5-10.5-37-.6-3.4,1.5-1.5,4-1Z"/>
      <path class="st14" d="M301.7,128c-2.8,4.8-8.5,1.5-11.5,7l-.5-4c-5,2-8.1,0-12.5,4s-6.4,10.2-5.5,17.6,4.7,8.1,10.4,7.4,4.7-2,6-1.8,3.6,7.6,9.1,7.8,8.4-4.2,11-4.4,11.3,1.7,14.5-1.5-.6-15.5,0-16,7.6.7,8-5c0,.3,1.4,1.5,1.1,3.5s-2.1.4-2.9,1.2c-6.1,5.1-1.4,9.2-3.3,14.8s-2.6,1.3-2.9,1.6.3,1.8-1.7,2.8c-4,2-10.3.6-14.6,1.4s-9.5,6.1-16.7-.2c-.3-.5.9-1.9-2-2.6s-5.1,1.5-8.3,1.4c-10.2-.5-12.1-11.4-10.8-19.8s3.8-8.1,4.9-9.3,3.8-2.6,4.1-2.7c7.3-3.4,16-2.3,24-3Z"/>
      <path class="st4" d="M295.7,420l-3-4c-.2,5.4,2.3,17.5-6.3,16.8-4.8-.4-4.8-13.1-4.7-17.3s1.9-17.2,5.7-18.3c5.9-1.8,6.4,6.2,9.3,3.8s1.3-11,5.6-13.9c4.5-3,3.8,0,5.5,1.3s4.1.4,3.6,3.9-5.7,11.5-5.7,12.2v31.5c0,.2-3.7,1-4.4,1-5.3-.3-5.2-5.8-5.6-10h2c0,.3,0,.7,0,1,.2,2.8-.5,6.6,3.5,7,5.9.6,2.6-9.8,2.5-14s0-1.3,0-2,0-1.3,0-2c0-1.3,0-2.7,0-4v-6c1.2-4.2,6.9-15.3,3.6-18.1-6.2-5.1-9.3,16.5-9.6,20.1-.4.3-.7.6-1,1-1.8,2.3-1,6.9-1,10ZM284.7,410c-1.6,2.9-2,19.2,1,20,5.4,1.4,3.9-5.6,4-9,1.4-4.7,1.3-10.7,2-16s1.6-1.9.5-4-2.7-2.6-4.6-1.6c-2.7,1.4-2.8,7.8-3,10.6Z"/>
      <path class="st7" d="M317.7,220c0,.3,0,.7,0,1s0,.7,0,1l-.9.6.9,1.4c.8,4.7,2.9,8.4,8,9,3.1,7.2,12.9,11.1,20,13-2.4,3.3-2.8,2.9-4,7-.6-.1-1.6.2-2,0-3.2-1.3-8.7-4.3-12-6-.4-3.3-3.7-5.1-6-7,.3-3.2-2.6-5.5-4-8s-1.4-1.1-1.8-2.7,0-2.9-.2-4.3,0-1.8-1-2c0-1,.1-2.1,0-3h3Z"/>
      <path class="st11" d="M373.7,295c.3-.2,1.5.3,2.3,0s3-4.8,4.7-.5-2,1.8-3.1,3.1-.5,1.9-.9,2.4-.7.7-1,1c-2.9,1.4-5.5,2.9-8,5-5.1,4.3-10.6,14.4-18,11-1.9-3.2-.5-4.3,2-6,7-4.8,14.5-12,22-16Z"/>
      <path class="st4" d="M392.7,492c.4-4.7,3.5-8.8,6-12.5s5.5-5.8,9-9.2,12.2-11.8,19-12.9,6.7.4,7,.7.3,6.8-.4,7.9-4.6,2.5-6.5,5c-3.9-.9-7.4,4.2-10.2,6.3s-7,4.2-8.8,7.4-1.2,6.9-4,9.2-2.2.6-3,1c3.4-7.5,8.2-14.6,14.5-20s15.6-9.2,16-10c.8-1.3.9-3.6-.5-4.6-4.1-2.8-17.1,6.6-20.5,9.6-5.2,4.5-19.8,20.1-11.5,26-3.5,1.1-3.2-2.3-6-4Z"/>
      <path class="st11" d="M333.7,301c-1.3,0-2.7.9-4,1s-.7,0-1,0c-.7-1.4-1.6-2.4-1.5-4.1s5.7-24.9,6.5-25.9c1.2-1.6,6.9-1.3,6.6,2.5l-6.6,26.5Z"/>
      <path class="st7" d="M390.7,251c.7,0,1.3,0,2,0,2-.2,4.1.2,6,0s2,.1,3,0v1c-7.7,1.6-15.5,3.6-23.5,4l1.5,1c-.3,1-1.2.9-2,1s-2.1,0-3,0-2.5-.9-5-1-6,0-9,0-2,0-3,0-1.3-.9-3-1c.7-1.2,1.2-2.9,2-4s1.3-.9,2-2c9.8,1.8,19.6,2.4,29.6,2s2.3-1,2.4-1Z"/>
      <path class="st5" d="M280.7,243c-1.6-2.9-1.9-3.7-3-7,3.7-.5,1.2-3.6,5-5,.4,1.4,3.4,7.8,4.2,9.3,1.8,3.3,11,12.6,4.3,13.7s-8.5-7.5-10.5-11Z"/>
      <path class="st11" d="M379.6,326.9c-.6.7-17.6,2.5-19.4,2.1-3.5-.7-3.5-5.8-.8-6.8s16.4-2.4,17.8-2.2c3.1.4,3.3,5.8,2.4,6.9Z"/>
      <path class="st11" d="M355.5,290.1c1.9,3-7.7,17.5-10.6,17.7-11,1,3.9-18.1,6.4-18.7s3.8.5,4.2,1Z"/>
      <path class="st3" d="M477.7,339c-1.8.2-2.9,1.6-4.5,2s-5-.4-6.8,0-.4,1.7-.6,2c-.9,1.5-2.5,2.8-2.8,4.8s1.1,5,.9,5.2-2.2,0-3.5,1-3.4,4.7-3.7,4.8c-1.1.6-3.1-.2-3.7.4s.2,2.1-.3,2.7-2.2,0-2.8.2v-3c7.6-1.4,11.5-14.3,15.2-20.4s2.5-2.1,2.8-2.6c.9.1,2.1-.2,3,0s1.8.7,3,1,2.9,1.2,3,1c-.2-5.1,1.6-3.4,1,1Z"/>
      <path class="st4" d="M428.7,329c1.1,5.2,3.5,16.6,5.5,21s3.3,2.8,4.5,4,4.5,4.2,5,5c-9.7-1-5.3-4-7.2-5.8s-4.3-2.4-5.6-4.8-2.4-16.5-3.3-17.2l-21.4,2c-2,.3-1.6-2-2.5-3.1,8,2.9,16.6-2.4,25-1Z"/>
      <path class="st1" d="M503.7,408c1.2,1.2,2.5,1.5,4,2s.7,0,1,0c-.4,2.5-2.3,3.3,1,3,0,.3,0,.7,0,1-.4,2.3-1.4,4.5-1,7-.9,1-12.8-3.1-6-4,.4-1.4-1.5-1-2.5-2-2.5-2.7-.3-5.4,2.5-6.9.3,0,.7,0,1,0Z"/>
      <path class="st4" d="M333.7,272c.6-.6.5-3.8,4.3-3.1s4.3,4.5,4.4,5.7c.2,2.3-1.6,8.7-2.4,11.2s-2,1-2.2,2c-1.2,4,.6,8.7-2,12.6s-1.9.6-2,.7c-.7.7-3.2,7.4-4,1,1.3,0,2.7-.9,4-1l6.6-26.5c.4-3.7-5.3-4-6.6-2.5s-6.4,24.2-6.5,25.9.8,2.7,1.5,4.1c-3.7-.5-3.1-2.3-2.9-5.3s4.4-21.3,6.2-24.4,1.6-.1,1.7-.3Z"/>
      <path class="st1" d="M472.7,411c0-.1-1.4-.8-1-2,2.8.7,10.7-1.9,10,2-3,.2-5.2-1.1-4,3.3s3.9,3.1,3,5.7c-3.1.2-6.1,2.1-9,0,.2-.8.3-.8,1-1s2.1.2,3,0c1.2-3.3-1.9-2.8-2-3.5-.1-1,1.7.4,2.1-1.9s-.4-2.7-3-2.6Z"/>
      <path class="st0" d="M429.7,327c0,.5-1.1,1.7-1,2-8.4-1.4-17,3.9-25,1-.3-.4-.7-.6-1-1v-2c.3,0,.7-.1,1,0,2.2,1,2.2,1.9,5.5,2.1,6.1.3,14.2-2.2,20.5-2.1Z"/>
      <path class="st6" d="M449.7,447c-1.6,5.2-.9,7.1,0,12-6.4.4-4.8-6-3.5-10.1s1.1-2.2,3.5-1.9Z"/>
      <path class="st13" d="M306.7,294c-.6,3,3.6,6.5,6,6,.3,1.6-2.2,1.2-3,2-2.5-.5-4.6-2.4-4,1-.6-2.3-3.1-4.7-2.1-8.5s2.1-.3,3.1-.5Z"/>
      <path class="st4" d="M351.7,311c.3-.8,2.1-4.5,2.3-4.7,2-1.8,10-5.3,11.5-6.6s.7-2.8,1.5-3.5,4.6-.5,5.6-1.5,0-1.9.5-2.4c3.9-4.4,13-3.3,11.8,4.1s-2.5.6-3.6,1.5c-8.3,6.8-15.6,13.1-24.4,19.7s-1,2.3-1.7,2.4c-1.5.2-4.7-1.8-5.4-3.1,7.4,3.4,12.9-6.7,18-11,3.7.2,5.8-2.6,8-5s.7-.7,1-1c10.9-3.7,4.4-14.3-3-5-7.5,4-15,11.2-22,16Z"/>
      <path class="st3" d="M449.7,245c-4.6,5.3-13.2,6.9-21,8l21-8Z"/>
      <path class="st3" d="M369.7,257l3,2c-3.2,1.4-12,2.4-12-2,3,0,6-.1,9,0Z"/>
      <path class="st3" d="M357.7,257c-1.6.8-4.8,5.7-5.8,6s-2.4-.2-3.5,0-.3,1.9-2.2,2.1c-3.6.3-2.3-1.9-2.5-2.1.1,0,1.5,0,2,0,2.6-.2,7.8-4,8-7,.3,0,.7,0,1,0,1.7,0,2.8,1,3,1Z"/>
      <path class="st3" d="M406.7,257c0,.6.2,1.8,0,2-.4.3-7.6,1.1-8.6,1.1-1.9,0-3.2-1.1-3.4-1.1,3.2-1.4,8.3-1.9,12-2Z"/>
      <path class="st11" d="M342.7,233c3.4,1.7,8.7,3.4,10,7-3,5.1-5.9,8.1-9,13-.2-.2-1.4.1-2,0-1.5,5.2-2.1,4.8,1.4,8.1s.5,1.8.6,1.9c-.2-.2-1.9.1-2.9-.5-2.8-1.8-2.2-6.7-1.1-9.5.4.2,1.4-.1,2,0,1.2-4.1,1.6-3.7,4-7s5.7-4.9,5-7.4-7.4-2.2-8-5.6Z"/>
      <path class="st3" d="M472.7,411c2.6-.1,3.5-.7,3,2.6s-2.2.9-2.1,1.9,3.2.2,2,3.5c-.9.2-2.3-.2-3,0-1.4-2.7.2-5.3,0-8Z"/>
      <path class="st14" d="M296.7,427h-1c-.2-2.2,0-4.7,0-7s-.8-7.7,1-10v17Z"/>
      <path class="st3" d="M446.7,359l1,4c-5.2.3-3.1-2.5-4-4,.9,0,2,0,3,0Z"/>
      <path class="st4" d="M449.7,359v3c-.5.1-1,.9-2,1l-1-4c1,0,2.1.2,3,0Z"/>
      <path class="st3" d="M425.7,253c.9,2.3-2.9,2.8-5,3-.9-2.3,3-2.8,5-3Z"/>
      <path class="st3" d="M507.7,410c-1.5-.5-2.8-.8-4-2,1.1,0,3.5-3,4,2Z"/>
      <path class="st3" d="M508.7,410c.6.2,1.9-.2,2,0,.9,1.1-.9,2.6-1,3-3.3.3-1.4-.5-1-3Z"/>
      <path class="st14" d="M374.7,258c-.5.8-1.4.7-2,1l-3-2c2.5.1,3.8.9,5,1Z"/>
      <path class="st14" d="M436.7,263v2c-.3-.2-1.4.3-1.8-.2s0-1.6-.2-1.8h2Z"/>
      <path class="st3" d="M508.7,370c1.1,1.1-.9,3.1-2,2s.9-3.1,2-2Z"/>
      <path class="st3" d="M467.7,359c1.1,1.1-.9,3.1-2,2s.9-3.1,2-2Z"/>
      <path class="st3" d="M412.7,256c-.2.1.1,1.4,0,2-1.1.4-1.9-1-2-1l2-1Z"/>
      <path class="st3" d="M510.7,341c0,.7,0,1.3,0,2-5.7-1.2-.2-1.8,0-2Z"/>
      <path class="st3" d="M379.7,259c-.1,0-1.6,2.2-2,0h2Z"/>
      <path class="st4" d="M402.7,329c-.6-.7-.7-1.7-1-2h1v2Z"/>
      <path class="st13" d="M496.7,165c4.3,12.7,8.3,19.8,8,34-.2,12-4.6,25.6-12,35s-8.3,9.8-11.6,7.1,5-10,7.6-13.6c10.7-15.1,11.9-35.7,4.5-52.5-1.2-2.8-7.9-10.2-4.6-12.6,3.5-1.7,5.5.5,8.1,2.6Z"/>
      <path class="st13" d="M517.7,183c2.4,12.6.3,36.6-7.2,47.3-1.3,1.9-3,4.8-5.4,2.7-3.8-3.4,2.3-12,3.7-16.4s2.7-11.4,2.8-17.7.2-5.6-.1-8.4-4.4-15.1-3-17,4.5-.7,5.7.3,3.2,7.9,3.4,9.1Z"/>
      <path class="st3" d="M513.7,273c-2.4,1.7-9.5,6.2-9.7,8.6-.7,7.3,7.3,1.2,9.7.4-.2,2.9-3.6,3.9-3,7-.8.4-2.7,2.2-3,3s0,.7,0,1c-1.9,1.2-1,4.4,0,6-.6.2-4.3,3.6-3,5-.3-.1-.7.1-1,0-.8-.3-1.6-.2-2.6-.9s-1-1.5-1.4-2.1c-2.7-3.1-3.2-4.2-8-6,.2-1.2,2.1-2,2.4-3,.6-1.7.5-3.5,1-5,1.6-4.3,3.4-4.7,2.5-11,2.7-1.4,6.3.1,8.3-.2s4.4-3.9,7.7-2.8Z"/>
      <path class="st11" d="M513.7,273c3.8-2.6,14.7-11.6,15-3.4s-8.3,6.1-11,10.4c-1.5,0-2.6.6-3,2-.3,0-.7,0-1,0-2.4.9-10.4,7-9.7-.4s7.3-7,9.7-8.6Z"/>
      <path class="st4" d="M506.7,329c-1.4.7-1.3,1.2-2,2-2.1,2.4-3.3,4.7-3,8-.7.2-2.1-.2-3,0v-1.5c-.2-.6-.6-.4-1-.5l-.5-1-1.5,1c-.3,0-.7,0-1,0-2-2.2-5-3.3-8-3v3c-3-1.7-5-2.8-8.5-3.1s-5.3-.9-4.5,3c-1.2-.3-2.4-.9-3-1,.8-1.5.3-2.8,2.5-3.1,6.1-.7,13.7,1.5,19.5-.9,5.7-.2,9.7.9,14-4v1Z"/>
      <path class="st1" d="M473.7,337c-.8-4,1.5-3.3,4.5-3s5.5,1.4,8.5,3.1v-3c3-.3,6,.8,8,3-2.7.1-8.1,1.6-11,2s-.7,0-1,0h-4c-.3,0-.7,0-1,0,.6-4.3-1.2-6.1-1-1,0,.1-2.5-.9-3-1Z"/>
      <path class="st4" d="M504.7,304c1,.5,3.4.9,3.8,1.2.7.7.6,3.6,1.3,5s1.4.6,2,2.2c1.7,5,.5,10-2.1,14.5h-2c2.9-4.6,4.6-17.4-2-19s-.8,0-1,0l-1-4c.3.1.7-.1,1,0Z"/>
      <path class="st3" d="M497.7,337c.4.1.8,0,1,.5v1.5c-.2,0-.8.8-1.6.9-1.4.2-5.2-.1-5.4,0-.7.7,1.8,7.8-2.5,6s-1.5-6.8-5.5-7c2.9-.4,8.3-1.9,11-2s.7,0,1,0,1.9,0,2,0Z"/>
      <path class="st4" d="M510.7,289c2.7-1.3,9.5-1.5,12.6-1.1s1.2,1.8,1.4,2.1c.4.4,2.1-1.3,2.1,2.5s-1.8,2.1-2.1,2.5.2,1.5-.7,2c-6.2,3.7-11.3.6-16.3,2-1-1.6-1.9-4.8,0-6,0,1-.1,2.1.4,3,1.6,2,15.7-.4,16.6-1s.5-4.7,0-5c-1.7-1.1-14.3.6-17,2,.3-.8,2.2-2.6,3-3Z"/>
      <path class="st3" d="M501.7,339c-.3-3.3.9-5.6,3-8,2.1,4.4,1.4,6.6-3,8Z"/>
      <path class="st4" d="M496.7,273c.2.4.9,2.6,1,3,.9,6.3-.9,6.6-2.5,11s-.4,3.3-1,5-2.3,1.9-2.4,3c4.8,1.8,5.3,2.9,8,6-2.3-1.6-8.5-3-8-6-.5-.2-1.4.2-2,0,1.1-1.5,1.4-3.3,2-5,1.8-.5,1.6-1.7,2-3s0-.7,0-1c6.1-4.7.7-11.3,0-17,.6.9,2.9,3.8,3,4Z"/>
      <rect class="st3" x="495.7" y="346" width="2" height="4"/>
      <path class="st3" d="M509.7,327c-.2.3.4,1.4-.2,1.8s-2.4,0-2.8.2v-1c.3-.4.8-.7,1-1h2Z"/>
      <path class="st3" d="M517.7,280c-.2.3.3,1.5,0,1.9s-2.1,0-2.9,0c.4-1.4,1.5-2,3-2Z"/>
      <path class="st3" d="M482.7,339c-2.4.3-3.7,0-4,0h4Z"/>
      <path class="st6" d="M363.7,114c-1.1,1.4-2,2.3-1.8,4.2.4,5.5,3.6,13.3,4,19.1,1.5,3.6,7.3.6,6.9-2.8l-5-19.9c-.4-1.1-1.5-.4-2.1-.6l6.5-2c4.5-.1,9,0,13.5,0s.7,0,1,0c.7,7.8-5.3,22.8-4,29.5s6,4.7,6.9,0,.7-4.5,1-6.5c2.3,1.4,6.1.5,8,1s1.8,3,4,2c-.8,2.5,1.7,7.1,1,10-.3,0-1.8,1.1-3,1-9.5-.6-14.7-2.3-25.5-1-4.6.6-5.3,0-5.5,4-.3,0-.7,0-1,0s-.7,0-1,0c-4.4-3.8-9.3,1.4-12.7,1.8s-6.1-.6-6.3-.8c-2-2.1,2.6-7.1,5-5s-.6,5.4,2.9,2.8,0-1.7,0-1.9c1.7-1.8,3.5-1.2,2.8-5.2-3.5-7.9-8.4-15.2-12.2-22.9s-2.4-7.1-3.6-9.9c6.6,1.4,13.4,1.8,20,3Z"/>
      <path class="st6" d="M335.7,113c.5,2.1,6.3,11.5,7.9,14.6s1.4,4.9,2.1,6.4c-3.8,1.7-1.4,5.2-1,8-4.3.9-2.3-1.5-3.5-3s-2.7-.7-3.3-1.3.8-3.6-3.2-2.7c.4-2.5.7-2.9,0-5s-3.4-4.9-6-5.6-8.8,2.4-10,1.6.2-4.9-4.5-4.8-9.5,3.2-8.5,6.9c-1.3.1-2.7-.1-4,0-8,.7-16.7-.4-24,3l-10.7-5.8-20.4-6.3-3.8-3.9c9.8.7,19.7,1.6,29.5,1,11.9-.7,22.8-3.7,35-3.1s19,4.4,28.5,0Z"/>
      <path class="st2" d="M424.7,116c-1.9,6.8-.3,8.1,2,14s-.2,1.5,0,2c.7,1.6,6.2,8.7,7,9,0,3.2-2.9,4.8-1,8-3.7-.6-8.5-1.3-12-1.6s-3.1-1-4,1.6c-4.2-.5-8.7-.6-13-1,.7-2.9-1.8-7.5-1-10s3.5-4.3,4.4-6.1,4.9-9.7,4.5-11.2-3.3-3.3-5.2-2.6-7.6,15-7.6,17.9c-1.9-.5-5.7.4-8-1,1.2-7.5,2-15.5,3-23,5,.1,10.5-.5,15.4.1s10,4.2,15.6,3.9Z"/>
      <path class="st13" d="M343.7,111c1.2,2.8,2,6.7,3.6,9.9,3.8,7.7,8.7,15,12.2,22.9.7,4-1.1,3.4-2.8,5.2-5-1.8-6.4-8.3-8.8-12.7s-2.1-2-2.2-2.3c-.8-1.5-1.1-4.3-2.1-6.4-1.6-3.2-7.4-12.5-7.9-14.6-.7-3-.5-5.4,2.7-5.8s3.8.6,5.3,3.8Z"/>
      <path class="st13" d="M365.7,114c.6.2,1.7-.5,2.1.6l5,19.9c.5,3.4-5.3,6.4-6.9,2.8-.5-5.8-3.7-13.6-4-19.1s.7-2.8,1.8-4.2c.6.1,1.5-.2,2,0Z"/>
      <path class="st13" d="M385.7,112c1.5-4.6-.3-10.6,6.5-10.1s1.8,7.7,1.5,10.1c-2.3,0-4.7,0-7,0s-.7,0-1,0Z"/>
      <path class="st6" d="M517.7,114c10.4-.5,20.6.8,31,1l-3.3,3.6c-2.7.4-8.9,1.9-9.7,5.3-8.1-1-16.3-1.1-24.5-2-3.5.6-3,2.5-3.5,5s1.1,3-1.9,3.5-6.1-1.2-9.1-.5c.5-2.4,1.4-4.5,0-7s-1-1.1-2-1c.3-1.5.2-5.3,0-7,3.3-.6,6.4,1,9.5,1s3.2-1,4.5-1c3.2-.2,6.2-.9,9-1Z"/>
      <path class="st13" d="M494.7,115c.2,1.7.3,5.5,0,7-1.8,9.2-14.4,19.5-24,19-2.3-2.6,15.9-29.4,18-34,.6-.2,1.4-1.1,2.4-.9,2.2.6,3.4,6.6,3.6,8.9Z"/>
      <path class="st13" d="M535.7,124c1.8.2,5.4-.7,6.6.9s.8,5.3-1.2,5.9-22.9-1.3-27.4-1.9-4.1,0-6-2c.5-2.5,0-4.4,3.5-5,8.2.9,16.3,1,24.5,2Z"/>
      <path class="st13" d="M519.4,143.3c2.6,2.6.5,7.5-3,6.6s-13.8-9-14.2-9.9c-1.9-4,.6-5.8,4.5-4.6s12.2,7.3,12.7,7.8Z"/>
      <path class="st13" d="M508.7,115c-3.3-6.1,14.9-14.2,17-12,0,1.4.3,3-.2,4.3-1.1,3-7.8,3.1-7.8,6.7-2.8.1-5.8.8-9,1Z"/>
      <path class="st4" d="M457.7,101l-5,8c-.8-1.7,3.3-9.8,5-8Z"/>
      <path class="st4" d="M534.7,443c-2.5-5.1-5.1-7.3-9-11,5.1-.5,8.5,6.8,9,11Z"/>
      <path class="st4" d="M524.7,431l-2-1c.2.2,1,.1,2,1Z"/>
      <path class="st11" d="M400.7,495c-.7.3-1.3.8-2,1-8.2-5.8,6.3-21.5,11.5-26s16.4-12.4,20.5-9.6,1.3,3.3.5,4.6-13,7.3-16,10c-6.3,5.4-11,12.5-14.5,20Z"/>
      <rect class="st6" x="389.7" y="500" width="28" height="2"/>
      <rect class="st6" x="425.7" y="499" width="16" height="2"/>
      <path class="st4" d="M287.7,478c0,2.4-.7,4.9-3,6-.3,0-.7.1-1,0l-1-1c-.5-.3-1.8-1.2-2-1v4c-3.4-.4-3.8-.5-4.1-3.5s-.8-4.2,2-3.5c0,1,0,2,0,3l2.6-2c1.2-.4,3.8,5,4.4.5-3.3-4.9-4.8,1.8-7-2.5,1.7-5.1,7.5-.3,9,0Z"/>
      <path class="st1" d="M276.7,468c.4,0,.8-.1,1,0,.7,9.7-5.7,9.7-5,0,.3,0,.7,0,1,0,.7-.1,2.3-.1,3,0Z"/>
      <path class="st4" d="M299.7,473c-.6,1.9-4.4,9.5-4,10-.8-.8-3.2.5-2-5,4.8-1,2.2-5.2,6-5Z"/>
      <path class="st0" d="M265.7,469v6c-1.1.2-.9-1-1-1l-1-3c.1-.3-.2-.8,0-1s1.5-.8,2-1Z"/>
      <path class="st4" d="M273.7,468c-.9-3,3.8-3.2,3,0-.7-.1-2.3-.1-3,0Z"/>
      <path class="st1" d="M278.7,478c2.2,4.3,3.7-2.4,7,2.5-.7,4.5-3.3-.9-4.4-.5l-2.6,2c0-1,0-2,0-3s0-.7,0-1Z"/>
      <path class="st4" d="M290.7,478c-.3,0-.7,0-1,0-.4-2.8,1.4-2.8,1,0Z"/>
      <path class="st1" d="M283.7,484c-.4-.2-.7-.9-1-1l1,1Z"/>
      <path class="st1" d="M248.7,468c3.6-.7,5.9.7,9,2.1-.6,3.4-4.9,5.2-8,4.9s-.7,0-1,0l-1-1c-.1-.2.1-.7,0-1v-4c.1-.3.8-.6,1-1Z"/>
      <path class="st0" d="M263.7,485c0-.6.8-6.7,1.1-6.9.4-.3,4.4-.3,4.8,0,.9.6-.2,5.5,1.1,6.9-2.3,0-4.7,0-7,0Z"/>
      <path class="st0" d="M256.7,485c-.6-4-1.1-5.5,2.5-8l3.5,3.5c-3.3.8-.8,2-1,4.5-1.7,0-3.3,0-5,0Z"/>
      <path class="st14" d="M264.7,474c-.6-.3-1.9.4-2-1,.5-.2.9-.5,1-1s-.1-.7,0-1l1,3Z"/>
      <path class="st3" d="M262.7,473c0-.8.2-1.1,1-1-.1.5-.5.8-1,1Z"/>
      <path class="st4" d="M247.7,473c-.2-.5-1.2-.9-1.1-2.5s1-1.4,1.1-1.5v4Z"/>
      <path class="st4" d="M248.7,475c-.9-.3-.6-.4-1-1l1,1Z"/>
      <path class="st13" d="M314.7,315c1.3.7,1.7,0,2.7.3s-.2,2.6,4.3.7l-2,3,3,.5c-2.3.4-2.8,3.4-3,3.5-1.9,1.2-2.4-2-3.3-2.7-1.5-1.2-4.2.9-1.7-5.3Z"/>
      <path class="st13" d="M324.7,326c1.4,0,4-.4,5,.5l-7,5.5c-3.2-1.4-1.2-2.5,1-5s.7-.7,1-1Z"/>
      <path class="st13" d="M323.7,321c.6.2,1.6,3,4,2,0,1.1-1.6,1.5-3,3-.3,0-.7,0-1,0-1.4,0-2.8.7-4,.5,1.8-2.2,4.9-2.1,4-5.5Z"/>
      <path class="st14" d="M337.7,317v4s-1-3-1-3h-1c.5,3.5-4.4,1.6-7,2,.5-2.2,8.3-3.7,9-3Z"/>
      <path class="st13" d="M310.7,307l.6-.8,4.4.8-5,4c-1.2-2.8.1-3.8,0-4Z"/>
      <path class="st13" d="M323.7,318c1.2-2.4,5.6-3.3,8-3.5l-8,3.5Z"/>
      <path class="st14" d="M329.7,324c-.3.7-1.7-.6-1-2s1.7.6,1,2Z"/>
      <path class="st7" d="M499.7,450c-1.2,2.5-.6,3.8,1,6h-2s0,1,0,1c5.5.7,0,2.2,0,2.5-1,3.4,2.9,1.4,2,4.5-1.7-1.1-8.6.3-9,0s3.1-6.9-5-2c.3-3.3.1-5.5-2-8,5.8-1.4,7.8-6.5,15-4Z"/>
      <path class="st7" d="M478.7,434c4-1.6,5.5-1.4,10-1-1.5,2.1,1.1,3.8,1.1,5.5s-2.9.1-2.1,2c5.6,2.2,4.7,8.1-1.3,6.5s-5.6-5.9-7.7-6c.3-2.4,1.5-4.3,0-7Z"/>
      <path class="st14" d="M515.1,451.6c.6.9,2.8,1,.6,4.7s-3.3-.3-3,1.6l3,3c-2.9-1.4-4.2,1.2-7,1l1-3h-4c2.8-2.9,3.7-1.4,2-6l4,1c-3.2-3.8-1.6-2.7,0-6,2.5-.5,2.4,1.9,3.4,3.6Z"/>
      <path class="st7" d="M479.7,454c0,1.3,1.9,1.9,3,2,.5,1.7-2,.4-2.1,1.5s2.7,6.8,2.1,7.4c-6,2.8-5.2-1.7-6.5-2s-2.6,2.6-4.5,2c.9-3-2.8-6.5,1-8,.4.2,2-.5,2.8.2s.2,4.5,3.2,3.8l1-7Z"/>
      <path class="st14" d="M501.7,434c-1.3,5.2,3.9,1.6,5.6,3.9s.7,7.8.4,8.1-3-.2-4,0c-.4-1.6,1.7-.5,2-1.6s-.2-3.7,0-5.4c-6.9-1.6-5.5,4.3-10,7l2-7-4-1.5,8-3.5Z"/>
      <path class="st14" d="M472.7,457c-4-2.1-2.8-5.2,2-3v-4c3.9-.1-.1,4.5,6,3,0,.7-1,.9-1,1l-1,7c-3,.7-2.4-3.1-3.2-3.8s-2.3,0-2.8-.2Z"/>
      <path class="st14" d="M478.7,434c1.5,2.7.3,4.6,0,7s1.3,5.8-2,5v-11.4c0-1.2,1.5-.4,2-.6Z"/>
      <path class="st7" d="M506.7,450c.4,2.4-.2,5.9-3.5,5s-.3-7.2,3.5-5Z"/>
      <path class="st5" d="M503.7,474c-5.2,1.8-5.9,1-10,1,2.4-1.1,8.1-2.4,10-1Z"/>
      <path class="st13" d="M496.7,130c-3,15.1-17.1,19.2-31,19-12.1-.2-13.6-6.4-21.7-7.8-3-.5-8.5.4-10.3-.2s-6.3-7.4-7-9c7.6,4.3,14.5-.7,21.2.2s9.5,6.8,15.1,9c14.9,5.9,28.8-4.4,33.7-18.2,1.4,2.5.5,4.6,0,7Z"/>
      <path class="st6" d="M465.7,149c-1,3.9,4.7,6.9,0,8.6v1.4c-.7-.8-17.3-5.9-19.8-6.7-3.9-1.2-9.8-2.8-13.2-3.3-1.9-3.2.9-4.8,1-8,1.7.6,7.3-.3,10.3.2,8.2,1.4,9.7,7.6,21.7,7.8ZM462.7,153h-3v2h3v-2Z"/>
      <path class="st4" d="M432.7,149c3.4.5,9.3,2.1,13.2,3.3s19.1,5.9,19.8,6.7.2,3.9,3,5c-1-.6-2.3-.6-3-1-17.8-9.5-22.7-9.4-42-12-1.5-.2-5.5-1.8-7-2,.9-2.6,2.1-1.7,4-1.6,3.6.2,8.4,1,12,1.6Z"/>
      <path class="st14" d="M489.7,265h-1c-1-1.2-7-4.9-8.5-4.9s-4.1,2.2-6.3,2.7-2.9,0-4.2.2c3.4-4.3,12.3-6.7,16.9-3.4s2.2,4.3,3.1,5.4Z"/>
      <path class="st0" d="M493.7,269c.7,5.7,6.1,12.3,0,17,.6-3,1.6-5.1,1-8.5s-1.9-2.3-2-2.5c-1-2.8-2.1-7.8-4-10h1c.9,1.1,2.8,2.3,4,4Z"/>
      <path class="st14" d="M462.7,266c.6,3.1-3.7,2.9-6,3,2.5-1.4,3.4-1.9,6-3Z"/>
      <path class="st14" d="M455.7,270c-5.2,2.9-5.2-.4-7-1l7,1Z"/>
      <path class="st14" d="M468.7,263c.5,2.7-.7,2.1-3,2,1-1.3-2-1.6,3-2Z"/>
      <path class="st4" d="M488.7,204c0-1.6-.6-4.1,1-5-.1,2.6-.6,3.1-1,5Z"/>
      <path class="st4" d="M489.7,194l-1-3c.1.6.8,1.3,1,3Z"/>
      <path class="st4" d="M471.7,166l-2-2c1.3.8,1.7,1.8,2,2Z"/>
      <path class="st4" d="M451.7,244c0-.4.7-.7,1-1-.3.3-.6.8-1,1Z"/>
      <path class="st4" d="M457.7,240c.3-.3.6-.8,1-1-.3.3-.6.7-1,1Z"/>
      <path class="st0" d="M423.7,295c2.2,2.6,2.9,6.9,7,3.5s-4.2-5.7,1-8.5c3.3,7.3,6.8,12.9,16,10l-.5-2c-6.7,3.1-4.1-1.2-5.2-3.7s-4.3-6.7-4.6-7-3.4-1-4.3-2.5.3-3.5,2.1-3.7,6.5,9.7,8.5,11.4c3.1,2.5,7.6,1.4,4.9,5.6l7,1-1-3c6.4-.6,11.6-4,18.3-2s.8,1.6,1.4,2c1.3.7,2.9.5,3.6,1,1.1.6.4,2,1,2.6,3.3,3.5,4.6,5.7,9.7,3.4.2-2.1-3.1-.3-4-1s.2-2.4,0-2.9c5.9,2.3,9.7,3.4,14,8-3.1,1.7-3.3,5.3.7,5.7s2.2-.7,2.3-.7c-.3,1.9.2,4.1,0,6-6.1,9.4-12.4,5.2-21.3,5.4s-12.5.8-18.7,1.1c-1.7,1.6-3,3.8-4.2,5.8-2.2,3.8-8.5,19.4-10.3,20.8-2.6,2-6.5-1.9-9.5-2.1-2.3-7.1-5.8-17.2-5-24,3.2,2.6,5,1.5,4,8,5.5-1.4,8.5-1.2,10.2-7.3,1.7-5.8-3.2-8.8-5.7-12.8s0-3.2-1.2-4c-1.7-1.3-6.3.8-8.4,1.2-.3,3.2,1.9,5.5,2.6,8.3s-1.4,4.7-1.7,6.7c-2.1-1.7-1.9-3.9-2.6-4.1-7.7-2.2-22.3,4.6-27.1,2.3s-7.8-12.1-5.8-15.3,2-.6,2.5-.9c.2,6.5,7,6.2,10.5,2,2.1,5,3.6.1,4.2,0,2.4-.5,9.4.5,9.4-4.5s-1.7-.3-2-1.2c-.6-1.7,0-4.4-1-6.3.2,0,2.9-1.9,3-2ZM473.7,303c-.2-5.3-2.2-5.1-6-3-.2,3.6,3.6,3.1,6,3ZM430.7,303l-4-.5c1.1,1.6,2.1,1.7,4,1.5v-1ZM455.8,304.9c-.4-.3-.6-2.5-1.6-2.9-1.7,1.3,1,9.2,1.7,9.8s6.1-.2,7.8.2c-2.4-1.4-3-6.8-4-7.6s-3.2,1-3.9.5ZM478.7,308c-.1-2.3,2-4.4-.5-6l-.5,4-6-1c-.6,1.7,2.5,3.8,3.5,4s0-3.6,3.5-1ZM431.2,305v1c.6-.3.6-.7,0-1ZM452.7,318c2-1.9-2.5-16.6-8-11.5s.9,7.7,1.5,8.5c.9,1.2,5,1.2,6.5,3ZM487.7,305c-1.7-1.9-2.1,2-2.6,2-1.2,0-2.9-1.5-4.4-1,1,1.4-.5,5.5,0,6s10.5,1.1,12,0c-1.1-2.2-4,.5-3-4l-3,2c-.7-1.4,1.2-4.8,1-5ZM449.5,329.2c-2.2-1.7-4,5.4-3.9,6.8l3-4c1.9-.4.3,1.9,1.5,2s.9-2.7,2.5-2c.4-1.8-1.5-.6-2.2-1-1.1-.8-.8-1.7-.9-1.8Z"/>
      <path class="st10" d="M450.7,277c1.1,1,4.5,5.2,7,7.5,4,3.6,3.1,5.8,10.4,5.6,2.2-4.1-4.2-1.8-4.5-2s-1.1-6.1-1-6.4c.2-1.2,2.4.1,2-1.6-4.7-.8-10.2,1.7-5.5-5,2.2,0,1.4,2.9,4.5,2l-2,2c5.4-1,3.3,1.4,4.5,3s2.9.7,3.3,1.2-.3,2.5.4,3.6,3.2.2,1.7,2.2-3.7-.1-1.9,2,1.7-.8,3-.6c1.8.3,5.5,2.4,7,3.6s4.5,4,5,5-.4,2.6,0,2.9c.8.7,4.2-1.1,4,1-5.1,2.4-6.4.1-9.7-3.4s0-2-1-2.6-2.4-.3-3.6-1-.5-1.7-1.4-2c-6.6-2-11.9,1.4-18.3,2l1,3-7-1c2.7-4.2-1.9-3-4.9-5.6s-7.8-11.5-8.5-11.4c-1.8.2-3,2.1-2.1,3.7s4,2.3,4.3,2.5,4.4,6.7,4.6,7c1.1,2.5-1.5,6.8,5.2,3.7l.5,2c-9.2,2.9-12.7-2.7-16-10-5.2,2.8,3,5.2-1,8.5s-4.8-.9-7-3.5c.3-.5,2.1-6.5,2.1-7.5l-2-20.1c2.1-6.3,7.2-2.5,10.8.2,5.3,3.9,10.9,4.9,16.1,9.4ZM426.7,276c.3,1.9-.2,4.1,0,6,.6.8,4.3-2.8,4.5-3,.5-.7-.5-.9-.5-1,.2-1.6,1.2-5.8,1-6s-4.9-.6-6-2c-1,2.3.8,4.7,1,6ZM445.6,279.1c-1.4-.6-3.2,1-2.9,2.4s9,12.4,11,10.5c.6-4.3-3.3-5.3-4.7-7.2s.5-1.3.3-1.5c-.6-.6-3.5-4.1-3.8-4.2Z"/>
      <path class="st11" d="M507.7,327c-.2.3-.7.6-1,1-4.3,4.9-8.3,3.8-14,4s-23.1-.9-24.5,1-.2,2.7-.5,3c-.3.5-1.9,1.1-2.8,2.6-3.6,6.1-7.5,19-15.2,20.4s-2,0-3,0-2.1,0-3,0c-.5-.8-3.7-3.5-5-5h1c15.3,6.5,17.7-22.6,26.2-26.3,6.9-3,20.3,1.3,28.3.3,9.6-1.2,12.1-11.7,11.5-20,6.6,1.6,4.9,14.4,2,19Z"/>
      <path class="st0" d="M485.7,270c5,12,1.6,8.3-3.4,17.1-1.2,2.1-1.4,4.7-2.6,6.9-1.5-1.2-5.2-3.3-7-3.6s-2.9.7-3,.6c-1.8-2.2,1.8-1.9,1.9-2,1.5-2-1.5-1.9-1.7-2.2-.7-1.1.1-2.9-.4-3.6s-2.4,0-3.3-1.2.9-4-4.5-3l2-2c-3.1.9-2.3-1.9-4.5-2-4.7,6.7.7,4.2,5.5,5,.4,1.7-1.8.4-2,1.6s.8,6.2,1,6.4,6.6-2.1,4.5,2c-7.3.3-6.4-2-10.4-5.6s-5.9-6.5-7-7.5c3.7-.4,5.8-3.1,10-4s1.8.8,2.7.7c1.8-.2,2.8-2.1,5.3-.7l-3,1c.3,5.4,6.3,3,10,4-2.4-6.4,2.2-4.2,4-5.4s-1.3-5.5,6-2.6Z"/>
      <path class="st9" d="M505.7,308c.7,8.3-1.8,18.8-11.5,20-8,1-21.4-3.2-28.3-.3-8.5,3.7-11,32.7-26.2,26.3-.5-1.8-1.4-3.2-2-5,3.1.2,6.9,4.1,9.5,2.1s8.1-17,10.3-20.8,2.4-4.2,4.2-5.8c6.1-.4,12.6-1,18.7-1.1,8.9-.2,15.3,4,21.3-5.4,1-1.6,4-5.3,0-6,0-.3,0-.7,0-1,.1-.5,2.6-2.9,3-3s.8,0,1,0Z"/>
      <path class="st10" d="M420.7,297c1,1.9.5,4.6,1,6.3s2,.7,2,1.2c0,5-7,4-9.4,4.5s-2.1,5-4.2,0c-3.5,4.2-10.3,4.5-10.5-2,7.6-4.3,13.2-6.7,21-10Z"/>
      <path class="st10" d="M485.7,270c-7.2-2.9-4,1.2-6,2.6s-6.4-.9-4,5.4c-3.7-1-9.7,1.4-10-4l3-1c-2.5-1.4-3.5.5-5.3.7s-2.2-.8-2.7-.7c0-2,1.2-3,3-3.6,4.9-1.6,7.3-2.3,12.5-3.5s4.5-4.2,8.1,0,.9,2.9,1.4,4.1Z"/>
      <path class="st11" d="M493.7,286c0,.3,0,.7,0,1-1.9.4-1.5,1.8-2,3s-.9,3.5-2,5c-1.8-.5-5.1-.9-5-3.5s8.7-11.9,8-16.5c0,.1,1.6.4,2,2.5.6,3.5-.4,5.5-1,8.5Z"/>
      <path class="st11" d="M403.7,327c5.6-1.1,18.8-4.7,23.7-2.7s2.2,2.5,2.3,2.7c-6.3-.1-14.4,2.4-20.5,2.1s-3.3-1.1-5.5-2.1Z"/>
      <path class="st10" d="M501.7,311c0,.3,0,.7,0,1-.1,0-1.2.8-2.3.7-4-.4-3.8-4-.7-5.7,1.2,1.2,2.6,1.9,3,4Z"/>
      <path class="st9" d="M380.7,151l6,17-6,2c-1.7.1-3.4,1.3-5.4,1s-2.5-2.4-4.6-2c3.9,9.7-8.5,7.4-9,8s.4,4.1-.5,6-5.2,4.4-6.5,6l-14.2-24.3-3.8-2.7c3.4-3.3,4.4-2.8,6-4-.8.9,3,7.4,3.8,8.7s1.8,4.9,4.2,4.3c1.6-2.5-6-15.2-8-13,.2-.2-.9-1.8,1.4-2.1,5.6-.8,7,2.7,8,2.8s5.2-1.6,5.5-1.7c-1.3,1.5,7.5,16.4,10,18-.5-4.4-4.2-11.9-6.8-15.7s-2.1-3.6-3.2-2.3c.4-.2,1.1-1.2,3-2,4.9-.7,2.5,4.2,6,6-.7-3.6.7-5.9,2-9,.3,0,.7,0,1,0-.3,5.3,2.3,15.3,8,17l-3-7.5c7.4-1.6,2.3-5.6,2-10.5,1.3,0,2.7,0,4,0ZM354.7,161c0,0-2.1-.4-2,.5,2.2,2-.3,8.2,0,8.5s5.5,0,6.5,2c0-1.6-4-10.5-4.5-11ZM370.2,167v1c.6-.3.6-.7,0-1ZM358.7,184c1.7-2.8-5.4-14.3-8-12s6.4,11.2,8,12Z"/>
      <path class="st0" d="M308.7,128c-.2-3,5.9-4.9,6.9-3.9s-.2,1.7.4,2.5c4.1,5.9,4.8,1.9,8.7,1.4l-2,4c-1.8-.1-3.7.2-5.5,0s-2.3-1-2.5-1c2.8-1.3-.2-1.8-.9-2.8s0-2,0-2.2c-.6-.6-3.4,1.7-5,2,.2,2.3,1.6,4.7,0,8-2.1,0-.2-3.3-1.9-4.6-2.5-1.8-5.5-.3-6.6,2.6s.5,3.2.5,4,.1,1.8,0,2-.9-.2-1,0c-2.1,2.5-2.5,2.9-6,1,9.8-2.2,3.3-12.3-.9-6.4s0,4.3-1.1,6.4c-1.8-.4-3.4-1-5-2,.4-.9,1.4-4.5,1-5-4.7,1.4-4.2,3.8-4,8s1.4,6.6,1,10c-1.3.4-2.2,2.4-4.3,1.9s-4.1-4.7-4.3-5.9,3.1-5.4,3.6-6,2.3.1,2.9-1.6c1.1-3.5.8-6.4-3.2-5.4s-2.8,4.4-4.8,4.7c-.4.6-.9,4.2-.9,5.3-.3,5.7-1.2,13.3,6.5,13.1s4.5-2.9,6.5-5.1c3-3.2,6.8-5,5-10,3.9,4.1,5.2.7,7.7.3,5.9-1,12.1.5,18.8-.4s2.2-1.3,3.3-1.6c1.5-.3,3.4,1.2,5.6-.3,4.6-3-1.6-7.7-1.3-8.1,1.2,0,2.2-.2,3-1s1.4-2.5,1-3c-1.2.5-2.5-.9-3-1,2.7-.8,4.2,1.2,6,2-1.1,3.3-2.2,5.3-2,9-.4,5.7-7.6,4.7-8,5-.6.5,2.4,13.6,0,16s-11.2,1.2-14.5,1.5-9,4.5-11,4.4c-5.6-.2-7.3-7.4-9.1-7.8s-4.1,1.5-6,1.8c-5.7.6-9.7-1.4-10.4-7.4s-.1-12.5,5.5-17.6,7.5-2,12.5-4l.5,4c3-5.5,8.7-2.2,11.5-7,1.3-.1,2.7.1,4,0s2.1.2,3,0ZM308.7,148c-.4,1.2-1.4,2.8-1,4s1.6,1,3,1c-.3.2-.7,1.8-1.5,1.8s-3.1-2.2-4.5-2.8c-.4-1.5,1.3-4.2-1.4-3.9-5,.6-6-.7-9.6,2.9-5.2,5.2-1.4,3.6-1.1,4.5s-1.3,4.1-.9,4.5,2.6-.2,3,0,.7,3.7,1,4,7.9-2.4,9.2-3,1.3-2.6,1.8-4c2.2,1.1,2.3,1.3,5,2s11.6,1.9,10-4-2.1-2.2-2-2.5c.9-2.1,4.9-4.3-1-5.5s-.7,0-1,0c-1,0-2,0-3,0-1.3-.3-5.1-1.6-6-1s.1,1.5,0,2Z"/>
      <path class="st11" d="M336.7,162l3.8,2.7,14.2,24.3c-2,2.4-3,8.4-8.6,9s-2.6-6.9-8.4-6c-.6-2.3,0-3.5-3-5,7.2.1,8.6,2.9,9,10,2.9-1.5,7.8-3.2,8-7s-1.7-3.7-3-6-.3-3.9-4-5c-.3-1.1-.8-1.5-1-2-.9-2.3-1.4-2-2-3s-1-3.9-2.3-4.7-2.6-.2-2.7-.3c-.4-.4,1.1-3.9-2-3,.3-1-.5-3,.2-3.8s1.7,0,1.8-.2Z"/>
      <path class="st14" d="M305.7,128c-1-3.6,6-6.8,8.5-6.9,4.7-.1,3.8,4.3,4.5,4.8,1.1.8,6.9-2.4,10-1.6s5.1,3.1,6,5.6c-.6-.1-1.6.2-2,0-1.8-.8-3.3-2.8-6-2-.5,0-1.5,0-2,0-3.9.6-4.5,4.6-8.7-1.4s-.2-2.4-.4-2.5c-1-1-7.2.9-6.9,3.9-.9.2-2,0-3,0Z"/>
      <path class="st11" d="M368.7,152c-1.3,3.1-2.7,5.4-2,9-3.5-1.8-1.1-6.7-6-6,2-.9,3.5-2.4,7-3s.7,0,1,0Z"/>
      <path class="st13" d="M481.7,212c-.8,1.5-2.9,4.5-4,6-3,3.3-6,6.7-9,10s-.7.7-1,1c-1-.1-1.4.4-2,1-15.4,14.6-43.5,22.1-64,25-.7-2.4,1.6-1.8,3-3,2.2-.5,5.5-1.2,7-3,11.9-2.3,24.1-6.9,34.7-12.8,8.8-4.9,19.4-12.3,24.3-21.2.6,0,1.4,0,2,0,4.6-.4,3.5-3.7,8.5-5l.5,2Z"/>
      <path class="st7" d="M465.7,163v3c3.9-1,5.3,1.2,7,4s2.7,6.9,4,9c-4.8.7-3.5-3.2-4.8-5.7-2.9-5.7-11.7-2.8-12.2-3.3s0-6.8-7-5c.2-2.5-4-3.1-5.8-3.7-13.5-4.3-28-5.2-42.2-4.3,0-.6.2-1.8,0-2,4.9-3.2,13.8-.6,18-3s.7-.7,1-1c19.3,2.6,24.2,2.5,42,12Z"/>
      <path class="st10" d="M481.7,212l-.5-2c-5,1.3-3.9,4.6-8.5,5,6.4-5.7,9.4-6.1,10-15.5.2-3.4-.3-12.8-1.2-15.8s-4.1-3.6-4.8-4.7c-1.3-2.1-2.3-6.3-4-9,14.8,10.3,17.5,26.3,9,42Z"/>
      <path class="st10" d="M404.7,252c-1.4,1.2-3.7.6-3,3-7.3,1-14.6,1.3-22,2l-1.5-1c8-.4,15.8-2.4,23.5-4s2.2.2,3,0Z"/>
      <path class="st10" d="M468.7,228c3-3.3,6-6.7,9-10-.2.3-.2,1.5-1,2.5-1.9,2.5-5.6,5.4-8,7.5Z"/>
      <path class="st10" d="M467.7,229c-.6.6-1.1,1.1-2,1,.6-.6,1-1.1,2-1Z"/>
      <path class="st1" d="M491.7,415c.5.6,5.1,0,4,3-1.2.4-4.5-1.4-5-1s.2,3.9-2,4c1.7-6.7-2.9-3.5-4-8,6.7,3.4,4.7-2.8,6.5-3s.3,4.8.5,5Z"/>
      <path class="st13" d="M336.7,169c0,.1,1.7-.3,2.7.3s1.6,3.6,2.3,4.7c-16,11.6-30.2,24.5-27,46s0,2,0,3,0,1.7,1,2c.1,1.4-.2,2.8.2,4.3s1.4,1.9,1.8,2.7c0,2.4.7,3.5-2,3-11.8-12.3-14.2-25.1-5.8-40.3,3.9-7.2,8.9-11.3,14.3-16.7l12.5-9Z"/>
      <path class="st4" d="M321.7,240c-2.3-1.9-3.4-2.3-6-5,2.7.5,2-.6,2-3,1.4,2.5,4.3,4.8,4,8Z"/>
      <path class="st11" d="M473.7,383c-1-1.3,3-8.3,2.9-10.5s-7.4-9.2-5.9-10.5c11.3,1.8,11.6-1.8,18-9,.4,2.2,2,9.5,3.2,10.8,1.8,1.8,9.2,1.3,10.8,4.2-8.7,3.4-10.1,8-9,17-.9,1-7.4-5.5-9.6-5.8s-10,4.2-10.4,3.8Z"/>
      <path class="st11" d="M303.7,407c-.4,1.5-2.6,4.1,0,6,0,1.3,0,2.7,0,4l-1,1.5,1,.5c0,.7,0,1.3,0,2-3,2,1.2,10.8,0,12-2.4,2.4-5.6-2.6-6-5,0-.3,0-.7,0-1-.3-5.6-.3-12.5,0-18s3.3-25.3,9.6-20.1-2.4,13.9-3.6,18.1Z"/>
      <path class="st8" d="M291.7,405c-3.4,3.8-1.9,10.9-2,16s1.4,10.4-4,9c-1.4-6.1-1.4-13.7-1-20s.3-9.1,3-10.6,3.7,0,4.6,1.6-.4,2.9-.5,4Z"/>
      <path class="st0" d="M289.7,421c.1-5.1-1.4-12.2,2-16-.7,5.3-.6,11.3-2,16Z"/>
      <path class="st0" d="M297.7,427h-1v-17c.3-.4.6-.7,1-1-.3,5.5-.3,12.4,0,18Z"/>
      <path class="st11" d="M285.7,430c-3-.8-2.6-17.1-1-20-.4,6.3-.4,13.9,1,20Z"/>
      <path class="st8" d="M323.7,213c-1,18.5,12,5.5,15.4,6.1s11.9,14.8,17.6,12.9c.9,1-3.3,6.8-4,8-1.3-3.6-6.6-5.3-10-7s-.7.1-1,0-.7-1.4-2-2c-6.5-3-4.2,0-9,1.5s-3.4.6-5,.5c-5.1-.6-7.2-4.3-8-9s0-1.3,0-2,0-.7,0-1c2.4-1.9,2.7-5.5,4.2-7.8s1.7,0,1.8-.2Z"/>
      <path class="st4" d="M339.7,231l2,2c.3.1.7-.1,1,0,.6,3.3,7.5,3.8,8,5.6s-3.7,5.7-5,7.4c-7.1-1.9-16.9-5.8-20-13,1.7.2,3.4,0,5-.5,4.8-1.6,2.5-4.5,9-1.5Z"/>
      <path class="st14" d="M343.7,177c-2.8.3-9.5,4.7-11,6.5s-.7,2.2-1,3.5c-6.6,1.3-5.5,5.5-8,9s-1.5-.2-2,.7c-3.2,5.2-4.7,8.5-5,14.8s-.8,4.1,2,3.5c-.6,1.5-.8,3.4-1,5h-3c-3.2-21.5,11-34.4,27-46,.6,1,1.1.7,2,3Z"/>
      <path class="st11" d="M330.7,196c-.1-.6-1.4-5.6-3-4s-1.9,13.9.5,14c4.4,0,2.8-5.5,2.5-8l3,9c-2.2.1-4.9-.5-7,.5s-2.5,5-3,5.5-1.5-.3-1.8.2c-1.5,2.3-1.8,5.9-4.2,7.8,0-.3,0-.7,0-1,.2-1.6.4-3.5,1-5s4-6.5,4.3-6.7c.9-.6,2.5-.1,2.7-.3.4-.4-2.9-9.8-2-12,2.5-3.5,1.4-7.7,8-9-.8,3-1.3,5.8-1,9Z"/>
      <path class="st14" d="M315.7,225c-1-.3-.9-1.2-1-2,1,.2.9,1.2,1,2Z"/>
      <path class="st14" d="M317.7,224l-.9-1.4.9-.6c0,.7,0,1.4,0,2Z"/>
      <path class="st0" d="M376.7,300c.4-.5.5-1.8.9-2.4,1.1-1.3,4.4.3,3.1-3.1s-4.4.3-4.7.5c-.8.3-1.9-.2-2.3,0,7.4-9.3,13.9,1.3,3,5Z"/>
      <path class="st0" d="M367.7,306c2.5-2.1,5.1-3.6,8-5-2.2,2.4-4.3,5.2-8,5Z"/>
      <path class="st3" d="M470.7,215c-4.9,8.8-15.6,16.2-24.3,21.2-10.5,5.9-22.8,10.6-34.7,12.8s-7.6,1.7-10,2-2-.1-3,0c-.9-1.6-5-1.6-6,0-.7,0-1.3,0-2,0h-13c-.4-2.1,1.7-2.8,3-4,4-3.7,9.1-6.9,13-11l-10,11h20.5c10.9,0,41.5-12.9,50.5-19.5s8.7-7.4,11-12c.7-2.3-2.9-.7-4-.5l2.5-3c2.1,3,3.4,2.7,6.5,3Z"/>
      <path class="st4" d="M366.7,241c.3,0,.8,0,1,0-3.1,10.6,6.2,8.6,13,6-1.3,1.2-3.4,1.9-3,4h13c-.2,0-1.1,1-2.4,1-9.9.3-19.8-.2-29.6-2,2.2-3.4,3.5-9.1,8-9Z"/>
      <path class="st8" d="M356.7,252c-.8,1.1-1.3,2.8-2,4-.3,0-.7,0-1,0-2.5.5-7.8,4.2-8,7-.5,0-1.9,0-2,0s0-1.3-.6-1.9c-3.4-3.3-2.8-2.9-1.4-8.1.6.1,1.8-.2,2,0,.8.7,0,4.4,5.3,2.8s7.3-6.2,7.7-6.8v3Z"/>
      <path class="st11" d="M366.7,241c-4.5,0-5.8,5.6-8,9s-1.7,1.5-2,2v-3c1-1.3,5.2-8.5,6-10l4,2Z"/>
      <path class="st14" d="M411.7,249c-1.5,1.8-4.8,2.5-7,3s-2.1-.2-3,0v-1c2.4-.3,7.1-1.4,10-2Z"/>
      <path class="st4" d="M398.7,251c-1.9.2-4-.2-6,0,1-1.6,5.1-1.6,6,0Z"/>
      <path class="st14" d="M492.7,332c-5.8,2.4-13.4.2-19.5.9s-1.7,1.6-2.5,3.1c-.9-.2-2.1.1-3,0,.2-.3-.2-2.1.5-3,1.4-1.9,20.5-.9,24.5-1Z"/>
      <path class="st0" d="M297.7,428c.4,2.4,3.6,7.4,6,5s-3-10,0-12c.1,4.2,3.4,14.6-2.5,14s-3.3-4.2-3.5-7Z"/>
      <path class="st0" d="M303.7,413c-2.6-1.9-.4-4.5,0-6v6Z"/>
      <path class="st0" d="M303.7,419l-1-.5,1-1.5c0,.7,0,1.3,0,2Z"/>
      <path class="st11" d="M353.7,256c-.2,3-5.4,6.8-8,7,.2-2.8,5.5-6.5,8-7Z"/>
      <path class="st11" d="M524.7,290c.5.3.6,4.6,0,5-.9.7-15,3.1-16.6,1-.6-1-.4-2-.4-3s0-.8,0-1c2.7-1.4,15.3-3.1,17-2Z"/>
      <path class="st1" d="M497.7,337c0,0-1.9,0-2,0l1.5-1,.5,1Z"/>
      <path class="st5" d="M402.7,138c-2.2,1-3.8-1.9-4-2,0-3,6.2-17.4,7.6-17.9s4.8.7,5.2,2.6-3.5,9-4.5,11.2-4.3,5.8-4.4,6.1Z"/>
      <path class="st4" d="M400.7,149v3c-.8,0-2.3-.9-4-1-7.1-.4-17.7-3.3-24,1-1.3.1-2.7,0-3,0,.3-4,.9-3.4,5.5-4,10.8-1.3,16,.4,25.5,1Z"/>
      <path class="st14" d="M416.7,149c1.5.2,5.5,1.8,7,2-.3.3-.6.8-1,1-6.3-.3-12.7.4-19,0s-2.2,0-3,0v-3c1.2,0,2.7-1,3-1,4.3.4,8.8.5,13,1Z"/>
      <rect class="st3" x="459.7" y="153" width="3" height="2"/>
      <path class="st10" d="M432.7,325c.2-2,1.9-5.6,1.7-6.7-.8-2.8-3-5.1-2.6-8.3,2.1-.3,6.7-2.5,8.4-1.2s.4,2.8,1.2,4c2.5,4,7.3,7,5.7,12.8-1.7,6.1-4.7,5.9-10.2,7.3,1-6.5-.8-5.4-4-8Z"/>
      <path class="st10" d="M452.7,318c-1.5-1.8-5.6-1.8-6.5-3s-2.7-7.4-1.5-8.5c5.5-5.1,10,9.6,8,11.5Z"/>
      <path class="st10" d="M455.8,304.9c.7.5,2.7-1.4,3.9-.5s1.5,6.2,4,7.6c-1.7-.3-7,.6-7.8-.2s-3.4-8.6-1.7-9.8c1,.5,1.2,2.6,1.6,2.9Z"/>
      <path class="st10" d="M487.7,305c.2.2-1.7,3.6-1,5l3-2c-1,4.5,1.9,1.8,3,4-1.5,1.1-11.6.4-12,0s1-4.6,0-6c1.6-.4,3.3,1.1,4.4,1s.8-3.9,2.6-2Z"/>
      <path class="st10" d="M478.7,308c-3.4-2.6-3,1.1-3.5,1-1-.2-4.1-2.3-3.5-4l6,1,.5-4c2.5,1.6.4,3.7.5,6Z"/>
      <path class="st10" d="M473.7,303c-2.4.1-6.2.6-6-3,3.8-2.1,5.8-2.3,6,3Z"/>
      <path class="st10" d="M449.5,329.2c.1,0-.2,1,.9,1.8s2.6-.7,2.2,1c-1.6-.7-1.9,2.1-2.5,2-1.2,0,.4-2.4-1.5-2l-3,4c-.2-1.4,1.7-8.5,3.9-6.8Z"/>
      <path class="st7" d="M501.7,318c.2-1.9-.3-4.1,0-6,4,.7,1,4.4,0,6Z"/>
      <path class="st10" d="M430.7,303v1c-1.8.2-2.9,0-4-1.5l4,.5Z"/>
      <path class="st10" d="M431.2,305c.6.3.6.7,0,1v-1Z"/>
      <path class="st0" d="M445.6,279.1c.3.1,3.2,3.5,3.8,4.2s-.5,1.2-.3,1.5c1.4,1.9,5.3,2.9,4.7,7.2-2,1.9-10.8-9.8-11-10.5-.3-1.4,1.5-2.9,2.9-2.4Z"/>
      <path class="st0" d="M426.7,276c-.2-1.3-2-3.7-1-6,1.1,1.4,5.8,1.8,6,2s-.8,4.4-1,6l-4-2Z"/>
      <path class="st14" d="M430.7,278c0,0,1.1.2.5,1s-3.9,3.9-4.5,3c-.2-1.9.2-4.1,0-6l4,2Z"/>
      <path class="st0" d="M491.7,290c.5-1.2.1-2.6,2-3-.4,1.3-.2,2.5-2,3Z"/>
      <path class="st8" d="M404.7,165c.8.5-1.9,1.7,4,2s8,0,12,0c-.9,3.6.3,13-5,10.5-.4-4.1,1.5-5-3-6.5s-15.3.4-16.3,3.2,5.8,23.4,6.3,28.8c-1.7,3.9-1.7,11.3,0,15-.2,3.1-3.1,4.9-1,9s3.8,2.4,2,4-8.6-3.8-8-7c1.5-3.9,3-13.5,2-17.3s-5.8-2.5-6.8,1-.2,6.9-1.3,10.7-2.6,6.6-3.9,8.6c-2.6,1.4-3.8.5-6,0s-2.1-1.5-3.5-1.6c-2.6,0-9.1,3.5-11.1.6s-1.3-13-2.5-16.5-6.3-7.8-4-13.5c-2.7,3.2-12.8,9.1-16.5,8.7s-3.7-9.9-4.5-12.7c5.8-.9,1.4,6.7,8.4,6s6.5-6.6,8.6-9,5.6-4.1,6.5-6,.3-5.8.5-6c.5-.6,12.9,1.7,9-8,2-.3,2.6,1.7,4.6,2s3.7-.9,5.4-1c4.7-.4,7.5,2,8-4,2.6.8,5.4.2,8,0s1.3,0,2,0c1.6,0,5.8-1.2,6-1ZM384.7,199c-.4-1.1-.8-1.5-1-2-.5-1.2-1.7-4.3-2-5h4c.4.5.2,2.3,1,3.3,1.5,2,5.6,6.1,8,3.3,4.6-5.4-8.3-14.5-10-19.5l-.5-1-.5,1c-.5-.1-2.4-.1-3,0l-.5-1-.5,1c0,0-1,.9-1,1-2.3,2.1-3.4-.4-5-1-14-5.1-.8,12.1,1.2,16.3s3.2,7.9,4.4,11.6,0,10.8,5.8,8.9.7-13.7-.3-16.9ZM361.3,187.1c-4.4,1.4,3,14.1,4,17.6s.9,12.5,3,13.2c7.7,2.6,4.8-11.3,3.9-15s-5.7-17.6-10.9-15.9Z"/>
      <path class="st11" d="M376.7,151c.3,4.9,5.4,8.9-2,10.5l3,7.5c-5.7-1.7-8.3-11.7-8-17,.3,0,1.7.1,3,0s3.3-1,4-1Z"/>
      <path class="st11" d="M385.7,151c.8,2.7,2.2,6.2,2.6,9s.4,5.7.4,6c-.5,6-3.3,3.6-8,4l6-2-6-17c1.7,0,3.3,0,5,0Z"/>
      <path class="st11" d="M357.7,157c1.1-1.2,2.7,1.6,3.2,2.3,2.6,3.8,6.3,11.3,6.8,15.7-2.5-1.6-11.3-16.5-10-18Z"/>
      <path class="st11" d="M342.7,158c2-2.2,9.6,10.5,8,13-2.4.5-3.1-2.7-4.2-4.3s-4.6-7.8-3.8-8.7Z"/>
      <path class="st11" d="M358.7,184c-1.6-.8-8.7-11.4-8-12,2.6-2.3,9.7,9.2,8,12Z"/>
      <path class="st11" d="M354.7,161c.5.5,4.5,9.3,4.5,11-1-2-6.3-1.8-6.5-2s2.2-6.5,0-8.5c-.1-.9,1.9-.6,2-.5Z"/>
      <path class="st0" d="M396.7,151c-.1.5-.5,1-1,1-1.7.2-4.2.1-6,0s-1.8-.9-4-1-3.3,0-5,0-2.7,0-4,0-2.5.8-4,1c6.3-4.3,16.9-1.4,24-1Z"/>
      <path class="st8" d="M370.2,167c.6.3.6.7,0,1v-1Z"/>
      <path class="st10" d="M314.7,131c.2,0,1.1,1,2.5,1s3.7-.1,5.5,0,3.6,1.1,6,0c-.8.9-1.8,1.1-3,1-.3.3,5.9,5.1,1.3,8.1s-4.1,0-5.6.3-1.9,1.4-3.3,1.6c-6.6.9-12.9-.6-18.8.4-2.5.4-3.7,3.8-7.7-.3,1.8,5-2,6.8-5,10-.5-.2-1.7-1.1-2-1,.4-3.4-.9-6.6-1-10,2.8.1,2.4-1.3,3-3,1.6,1,3.2,1.6,5,2s.2.4,2,0c3.5,1.9,3.9,1.5,6-1,0,1.3,1.9,1.5,2,.5l-1-.5c.1-.2,0-1.4,0-2,2.4-.7,1.5,2.3,3.4,2s5.7-1.6,7.1-2-.8-2-.5-3c3.1-.8,1.6,1.5,2,2,3.4,4.3,7.6,4.5,7-2-1.5-.4-2,.7-3,1,1.4-3.7-3.9-.5-5-2s1.2-3.2,3-3ZM295.2,143v1c.6-.3.6-.7,0-1Z"/>
      <path class="st13" d="M314.7,147c1,0,2,0,3,0l.5,1,.5-1c5.9,1.2,1.9,3.4,1,5.5s1.3,0,2,2.5c-4.8-3.3-1.6,1.7-3.2,2.8s-5.3.7-6.8,1.2c-2.7-.7-2.8-.9-5-2-4.4-2.2-1.5,1.4-6,1l2,2h-8c-.4-.3-2.6.4-3,0s1-4.1.9-4.5c-.3-.9-4.1.7,1.1-4.5.6,0,1.4.1,2,0l-.5,4c2.1-1.9,8.8.8,8.5-3,.3.1.7-.1,1,0,1.5.6,4.1,2.8,4.5,2.8.8,0,1.2-1.6,1.5-1.8s1.4.1,2,0v-1s-5,0-5,0c-.4-1.2.6-2.8,1-4,1.3-.6,4.7-1,6-1Z"/>
      <path class="st4" d="M279.7,142c-.5.6-3.7,5.6-3.6,6,.2,1.2,2.9,5.5,4.3,5.9,2.1.5,3-1.5,4.3-1.9s1.5.8,2,1c-2.1,2.2-1.3,4.9-6.5,5.1-7.7.2-6.8-7.4-6.5-13.1,2.6-1.5,2.6-5.7,6-3Z"/>
      <path class="st10" d="M273.7,145c0-1.1.5-4.6.9-5.3,1.9-.4,4.3-4.6,4.8-4.7,3.9-1,4.3,1.9,3.2,5.4s-2.7,1.4-2.9,1.6c-3.4-2.7-3.4,1.5-6,3Z"/>
      <path class="st4" d="M306.7,157c-.4,1.4-.2,3.2-1.8,4s-8.6,3.4-9.2,3-.9-3.8-1-4h8s-2-2-2-2c4.5.4,1.6-3.2,6-1Z"/>
      <path class="st4" d="M321.7,155c1.6,5.9-6.6,4.8-10,4,1.6-.5,5.9-.5,6.8-1.2,1.6-1.1-1.6-6.1,3.2-2.8Z"/>
      <path class="st10" d="M293.7,151c3.6-3.6,4.6-2.3,9.6-2.9s1,2.4,1.4,3.9c-.3-.1-.7.1-1,0-4.3-1.7-2.8-2.3-8-1s-1.4,0-2,0Z"/>
      <path class="st4" d="M326.7,128c.5,0,1.8,1.5,3,1,.4.5-.5,2.5-1,3-2.4,1.1-4.3.1-6,0l2-4c.5,0,1.5,0,2,0Z"/>
      <path class="st14" d="M307.7,152h5s0,1,0,1c-.6.1-1.7-.2-2,0-1.4,0-2.6.5-3-1Z"/>
      <path class="st10" d="M314.7,147c-1.3,0-4.7.4-6,1,.2-.4-.3-1.8,0-2,.8-.6,4.6.7,6,1Z"/>
      <path class="st10" d="M317.7,147c.3,0,.7,0,1,0l-.5,1-.5-1Z"/>
      <path class="st6" d="M344.7,179c.8,3.3-1.8,3.8,4,5,1.3,2.3,3.2,2.7,3,6l-5.5,3c-2.8-5.4-5-7.1-10.5-9.5,3.6-2.1,4.3-5.9,9-4.5Z"/>
      <path class="st4" d="M343.7,177c.2.5.7.9,1,2,3.7,1.1,2.4,2.2,4,5-5.8-1.2-3.2-1.7-4-5-4.7-1.4-5.4,2.4-9,4.5,5.5,2.4,7.7,4.1,10.5,9.5l5.5-3c-.2,3.8-5.1,5.5-8,7-.4-7.1-1.8-9.9-9-10s-2.2-.2-3,0c.3-1.2-.3-1.8,1-3.5s8.2-6.2,11-6.5Z"/>
      <path class="st11" d="M452.7,165c7.1-1.9,6.3,4.3,7,5s9.4-2.4,12.2,3.3,0,6.4,4.8,5.7c.7,1.1,4.1,2.4,4.8,4.7s1.4,12.4,1.2,15.8c-.6,9.4-3.6,9.8-10,15.5-.6,0-1.4,0-2,0-3.1-.3-4.4,0-6.5-3l-2.5,3c-4.4.6-5.7-.3-8.4,0s-.6,2.1-2.5,2.6c-3.1.8-5.2-.4-7.2,0s-3.1,2-5.4,2.4-7.7-1-8.8-.8c-1.6.4-2.7,4.5-4.3,5.9-3.9,3.1-5.3.1-6.8.2s-3.4,4.4-7.1,4.7-2.1-2.3-6.4,2l-5,1c-.3,0-.7,0-1,0-1.5-2.9-2.4-2.6-4,0s-.8,2-1,3c-3.9,4.1-9,7.3-13,11-6.8,2.6-16.1,4.6-13-6,1.9.9.9,5.6,2.7,6,4.3,1,9.1-.3,10.3-5-3.5.4-2.5,3-6,1,9-2.8,17.6-10.1,21-19-.6,3.2,6.1,8.7,8,7s-1.8-3.6-2-4c5.8.5,6.3-7.7,7-12,.8.6,2,2.1,2,3s-1.7,3.3-1,5c7.9,1.9,10.7-6.2,10.9-12.6s-1.4-6.2-.9-9.9-.3-1.6,2-1.5v20.5c0,1.7,3.1,2.1,4.5-.6s.3-2.1.5-2.9c7.1,5.1,11.1,0,16.6-.9s5.8.5,7.8,0,.4-1.8.6-2,1.5-.6,2-1c0,0,1.3-.2,1.7.3.9,1.4-.6,3.8,3.7,2.7s1.6-3.2,1.6-4c4.5.2,6.4-10.4,7.1-10.9,1.2-.8,6,.2,7.9-.1-.4,10-2.9,3-8,6.5,6.2,8.5,10.4.2,12-6.5s1-1.6,1-4-.6-7.2-1.2-9.5-1.3-.4-1.5-1,.6-2.3-.4-3.3c-1.7-1.7-6.5-1.2-8.8-1.2l.9-7.9c-3.7-1.5-8.1-1.8-11.9-.1v-5c-6-1.3-3.3,3.3-5.2,8.3s-6.5,5.6-3.8,9.7c-1.4-.6-2.3-1.1-4-1,3.4-9.6-6.4-3.4-7-4,2.9-11-9.5-7.3-10-8s.3-3.1,0-4h1c1.5,1.5,10.5,2.5,11,3s0,4.4,2,5.5c8.1,4.8,4.6-10.8,11-12.5Z"/>
      <path class="st4" d="M404.7,157c14.2-.9,28.7,0,42.2,4.3,1.8.6,6,1.2,5.8,3.7-6.5,1.7-2.9,17.3-11,12.5s-1.8-5.3-2-5.5c-.5-.5-9.5-1.5-11-3l-2-4c4.2.4,2.6,1.5,3.7,2,5.4,2.4,5.2,1.3,9.3,5s1.3,0,1.9.6,2,4,4.1,2.4,2.2-7.6,2-7.9c-2.2-3-38.2-8.9-40-7.1v5c5.5-1.2,12.6-2,18,0-5.5-.3-11.8.1-17,2-5.9-.3-3.2-1.5-4-2,0-3.3,1.9-6.1-2-7.5,0-.9,1.4-.5,2-.5Z"/>
      <path class="st12" d="M400.7,152c.8,0,1.7,0,3,0-2.8,3.8.8,2.8,1,3s0,1.4,0,2c-.7,0-2.1-.4-2,.5,3.9,1.4,2,4.2,2,7.5-.2-.2-4.4.9-6,1l-.5-4,4.5,1.5c-2.1-4-6.9-6.6-7-11.5.5,0,.9-.5,1-1,1.7.1,3.2.9,4,1Z"/>
      <path class="st10" d="M422.7,152c-4.2,2.4-13.1-.2-18,3-.2-.2-3.8.8-1-3,6.3.4,12.7-.3,19,0Z"/>
      <path class="st4" d="M308.7,128c1.6-.3,4.4-2.6,5-2s-.3,1.6,0,2.2c.7,1,3.7,1.5.9,2.8-1.8-.2-3.9,1.7-3,3s6.4-1.7,5,2c-1.1.4-2.1,1.7-4,1-.4-.5,1.1-2.8-2-2-.3,1,1.7,2.6.5,3s-6.2,1.9-7.1,2c-1.9.3-1.1-2.7-3.4-2,0-.8-1.3-1.9-.5-4s4.1-4.4,6.6-2.6-.2,4.6,1.9,4.6c1.6-3.3.2-5.6,0-8Z"/>
      <path class="st4" d="M291.7,141c1-2.1-.7-3.9,1.1-6.4,4.2-5.9,10.7,4.2.9,6.4s-.7.3-2,0Z"/>
      <path class="st4" d="M286.7,139c-.6,1.7-.2,3.1-3,3-.2-4.2-.7-6.6,4-8,.4.5-.6,4.1-1,5Z"/>
      <path class="st4" d="M300.7,140l1,.5c-.1,1-2.1.8-2-.5.1-.2.9.2,1,0Z"/>
      <path class="st9" d="M334.7,187c2.9,1.5,2.4,2.7,3,5s1.3,12.4,4.5,12.7,13.9-5.5,16.5-8.7c-2.3,5.7,2.3,8.8,4,13.5s2,15.8,2.5,16.5c2,2.8,8.5-.7,11.1-.6s2.5,1.3,3.5,1.6c-.2,1.1.3,4.6,0,5s-7,.4-8,2c-1.6,0-7.1-.3-7.9.1s-.7,4.1-1.1,4.9c-.8,1.5-5,8.7-6,10s-7.2,6.7-7.7,6.8c-5.4,1.6-4.5-2.1-5.3-2.8,3.1-4.9,6-7.9,9-13s4.9-7,4-8c-5.7,2-16.5-12.7-17.6-12.9-3.4-.7-16.4,12.3-15.4-6.1.5-.5.6-4.4,3-5.5s4.7-.4,7-.5l-3-9c0-.6.1-1.4,0-2-.3-3.2.2-6,1-9,.8-.2,2.1,0,3,0ZM357.7,225c.4-6.3-1.5-12.6-4.5-18l-7.4,8.4c.9,1.5,10.7,11.1,11.9,9.6Z"/>
      <path class="st9" d="M385.7,227c1.3-2,3.3-6.2,3.9-8.6,1-3.9.4-7.9,1.3-10.7s6.4-2.9,6.8-1c.9,3.9-.5,13.4-2,17.3-3.4,8.9-12,16.2-21,19-4.4-2.4-4-5.5,0-8s2.8-1.5,5-3,4.3-2.4,6-5Z"/>
      <path class="st11" d="M341.7,233l-2-2c1.3.6,1.9,1.9,2,2Z"/>
      <path class="st4" d="M323.7,196c-.9,2.2,2.4,11.6,2,12s-1.8-.3-2.7.3-4.1,6.1-4.3,6.7c-2.9.6-2.1-1.6-2-3.5.3-6.3,1.8-9.6,5-14.8s2-.6,2-.7Z"/>
      <path class="st6" d="M461.7,215c1.2-.2,4.7-1.8,4,.5-2.3,4.5-7,8.9-11,12-9,6.7-39.6,19.5-50.5,19.5h-20.5l10-11c.2-1,.4-2.1,1-3,1.3.1,2.7-.2,4,0s.7,0,1,0c2.5.2,1.4,2.6,5-1s1.9-1.7,6.4-2,5.9-4.6,7.1-4.7,2.8,2.9,6.8-.2,2.7-5.5,4.3-5.9,5.7,1.3,8.8.8,3.9-2.1,5.4-2.4,4.1.9,7.2,0,1.8-2.6,2.5-2.6c2.7-.2,4,.7,8.4,0Z"/>
      <path class="st8" d="M371.7,234c1.1,0,2.5-.3,3,1-4,2.5-4.4,5.6,0,8s2.5-.6,6-1c-1.3,4.7-6,6-10.3,5s-.8-5.1-2.7-6-.7,0-1,0l-4-2c.4-.8.3-4.3,1.1-4.9s6.3-.2,7.9-.1Z"/>
      <path class="st9" d="M427.7,169c.3.9-.4,3.5,0,4s12.9-3,10,8c.6.6,10.4-5.6,7,4-1.2,0-2,.7-3,1-5.1,1.5-10.1,4.6-16,4-.8.8,2.1,18.5,2,22s-.8,3.3-1,4,.1,1.8-.5,2.9c-1.4,2.6-4.5,2.2-4.5.6v-20.5c-2.4-.1-1.8-.3-2,1.5-.5,3.6,1,6.6.9,9.9-.2,6.5-3,14.6-10.9,12.6-.7-1.7,1-4.1,1-5,6,1.4,4.9-12.4,1.4-12.9s-3,7.9-3.4,9.9c-.7,4.3-1.2,12.5-7,12-2.1-4.1.8-5.9,1-9s.4-10.8,0-15-7.1-26.6-6.3-28.8,13-4.4,16.3-3.2c2.2,5.1,2.7,10.8,4.5,16s.1,2.3,1.5,2c-.4-6.2,5.5-2.9,9.8-4.7s6.5-6.9,1.8-7.2c-5.1-.3-9.4,10.6-12.1,4.9s2.7-5.1,3.3-7.7-1.1-5.9,2.2-7.3c1,.3,3.7,1.2,4,2ZM408.6,176.1c-.7-.5-5.5.5-5.8,1-.9,1.3,1.4,6,.9,7.9l7-2c-.2-1.2-1.8-6.7-2.1-6.9ZM407.8,199.9c7.9,5,8.3-15.8-2.1-9.8-.3.4,1.7,9.5,2.1,9.8Z"/>
      <path class="st9" d="M373.7,179c2,3.8,4.1,7.6,6.2,11.4s1.7,1.4,1.8,1.6c.3.7,1.5,3.8,2,5l1,2c1.1,3.2,4.5,15.5.3,16.9s-4.8-5.9-5.8-8.9-2.7-8.1-4.4-11.6-15.2-21.4-1.2-16.3Z"/>
      <path class="st9" d="M361.3,187.1c5.2-1.7,9.9,11.8,10.9,15.9s3.8,17.5-3.9,15-2.3-10.4-3-13.2-8.3-16.2-4-17.6Z"/>
      <path class="st9" d="M383.7,179c.3,0,.7,0,1,0,1.7,5.1,14.6,14.1,10,19.5s-6.6-1.3-8-3.3-.6-2.7-1-3.3c-2.3-3.2-7.9-8-7-12s.9-1,1-1c.2-.1.7,0,1,0,.6-.1,2.5-.1,3,0Z"/>
      <path class="st11" d="M423.7,167c-3.3,1.4-1.5,4.6-2.2,7.3s-4.5,5.3-3.3,7.7c2.8,5.7,7.1-5.3,12.1-4.9,4.6.3,1,6-1.8,7.2-4.3,1.8-10.1-1.5-9.8,4.7-1.4.3-1.1-1-1.5-2-1.8-5.1-2.3-10.9-4.5-16,4.5,1.5,2.6,2.4,3,6.5,5.3,2.5,4.1-6.9,5-10.5.7,0-.1-1,3,0Z"/>
      <path class="st9" d="M389.7,152c1.6,4.8-.2,5.7,6,5,0,3.5-4.4,2.2-3,6.5l3-1.5,1,4c-2.6.2-5.4.8-8,0,0-.3-.3-5.3-.4-6-.4-2.8-1.8-6.3-2.6-9,2.2,0,3.4,1,4,1Z"/>
      <path class="st11" d="M395.7,152c.1,4.9,4.9,7.5,7,11.5l-4.5-1.5.5,4c-.7,0-1.3,0-2,0l-1-4-3,1.5c-1.5-4.3,2.9-3,3-6.5-6.2.7-4.4-.2-6-5,1.8.1,4.3.2,6,0Z"/>
      <path class="st11" d="M378.7,180c-.9,4,4.7,8.8,7,12h-4c-.1-.2-1.3-.7-1.8-1.6-2.1-3.8-4.2-7.6-6.2-11.4,1.6.6,2.7,3.1,5,1Z"/>
      <path class="st0" d="M425.7,165c.3,0,.7,0,1,0l2,4h-1c-.3-.8-3-1.7-4-2-3.1-1-2.3,0-3,0-4,0-8,.2-12,0,5.2-1.9,11.5-2.3,17-2Z"/>
      <path class="st11" d="M402.7,218c-1.7-3.7-1.7-11.1,0-15,.4,4.2.3,10.7,0,15Z"/>
      <path class="st11" d="M379.7,232c-2.2,1.5-3.2,1.9-5,3-.5-1.3-1.9-1-3-1,1-1.6,7.7-1.6,8-2Z"/>
      <path class="st11" d="M385.7,227c-1.7,2.6-3.9,3.6-6,5,.3-.4-.2-3.9,0-5,2.2.5,3.4,1.4,6,0Z"/>
      <path class="st11" d="M384.7,199l-1-2c.2.5.6.9,1,2Z"/>
      <path class="st11" d="M380.7,179c-.3,0-.8-.1-1,0l.5-1,.5,1Z"/>
      <path class="st11" d="M384.7,179c-.3,0-.7,0-1,0l.5-1,.5,1Z"/>
      <path class="st0" d="M316.7,136c1-.3,1.5-1.4,3-1,.6,6.5-3.6,6.2-7,2,1.9.7,2.9-.6,4-1Z"/>
      <path class="st4" d="M295.2,143c.6.3.6.7,0,1v-1Z"/>
      <path class="st4" d="M303.7,152c.3,3.8-6.4,1.1-8.5,3l.5-4c5.2-1.3,3.7-.7,8,1Z"/>
      <path class="st9" d="M448.7,186c-2.7-4.1,2.3-5.8,3.8-9.7s-.8-9.6,5.2-8.3v5c3.7-1.7,8.2-1.4,11.9.1l-.9,7.9c2.3,0,7.1-.4,8.8,1.2s.2,2.8.4,3.3,1.4.4,1.5,1c.6,2.3,1.3,7.1,1.2,9.5l-1,4c-1.6,6.7-5.8,15-12,6.5,5.1-3.5,7.6,3.5,8-6.5-1.9.4-6.6-.7-7.9.1s-2.7,11-7.1,10.9c0-.7-1.4-2-.8-4.2s5.2-6.9,1.3-5.8-4.2,2.1-4.6,2.7-3.2,8-2.9,8.3c-.5.4-1.8.7-2,1-4.3-2.7,1-8.7,1-13.5s-1.2-5.9-2-8.5c0-2.1.6-3.6-1-5s-.7.1-1,0ZM465.7,176c-5.9-.6-9.6,1.8-12,7,5.5.9,9.1-2.9,12-7ZM474.7,185c-.3-.3-5.6.2-7,0-1.6,6.3,10.5,3.5,7,0ZM462.7,186c-.7-.7-9.1,1.7-7,5,1.3.1,9.7-2.3,7-5ZM476.7,193c-2.5.7-7.1-2.2-8.5,0-3.2,4.7,5.4,2.7,8.5,3v-3ZM463.7,193c-.3-.4-9.7,2-7,5s6.7-.8,6.9-1.1.2-3.8,0-3.9Z"/>
      <path class="st8" d="M444.7,185c1.7,0,2.6.4,4,1s.8-.2,1,0c-.8,2.2.6,3.7,1,5,.8,2.6,2,5.7,2,8.5,0,4.8-5.3,10.8-1,13.5-.2.3.6,1.8-.6,2-2,.5-5.3-.4-7.8,0-5.5.9-9.5,6-16.6.9.2-.7,1-3.8,1-4l2-2c4.5,9.5,20.8,1.6,19-8h-4c-1-1,3.8-7,.7-10.7s-3.5-2.2-3.7-2.3v-3c1-.3,1.8-.9,3-1Z"/>
      <path class="st8" d="M453.7,212c-.3-.4,2.6-7.8,2.9-8.3s3.9-2.5,4.6-2.7c3.9-1.2-1.1,5-1.3,5.8-.6,2.3.8,3.5.8,4.2s-.7,3.8-1.6,4c-4.3,1.1-2.8-1.3-3.7-2.7s-1.6-.3-1.7-.3Z"/>
      <path class="st12" d="M479.7,200l1-4c0,2.4-.7,2.6-1,4Z"/>
      <path class="st2" d="M425.7,165c-5.4-2.1-12.5-1.2-18,0v-5c1.8-1.8,37.8,4,40,7.1s-1.7,7.7-2,7.9c-2,1.7-3.3-1.7-4.1-2.4s-1.7-.5-1.9-.6c-4-3.7-3.9-2.7-9.3-5s.5-1.6-3.7-2-.7,0-1,0Z"/>
      <path class="st8" d="M357.7,225c-1.2,1.4-11-8.1-11.9-9.6l7.4-8.4c3,5.4,4.9,11.7,4.5,18Z"/>
      <path class="st8" d="M330.7,198c.3,2.5,1.9,8.1-2.5,8s-2.4-12-.5-14,2.9,3.4,3,4,0,1.4,0,2Z"/>
      <path class="st3" d="M398.7,233c-1.3-.2-2.7.1-4,0,1.6-2.6,2.5-2.9,4,0Z"/>
      <path class="st3" d="M399.7,233l5-1c-3.6,3.6-2.5,1.2-5,1Z"/>
      <path class="st8" d="M408.7,215c.4-2.1-1.1-10.7,3.4-9.9s4.6,14.3-1.4,12.9c0-.9-1.2-2.4-2-3Z"/>
      <path class="st11" d="M441.7,189c-9.9-2.1-15.9,12.8-12,21l-2,2c.1-3.5-2.8-21.2-2-22,5.9.6,10.9-2.5,16-4v3Z"/>
      <path class="st8" d="M407.8,199.9c-.4-.3-2.4-9.4-2.1-9.8,10.3-6,10,14.8,2.1,9.8Z"/>
      <path class="st11" d="M408.6,176.1c.3.2,1.9,5.7,2.1,6.9l-7,2c.5-1.9-1.8-6.7-.9-7.9s5.1-1.5,5.8-1Z"/>
      <path class="st11" d="M465.7,176c-2.9,4.1-6.5,7.9-12,7,2.4-5.2,6.1-7.5,12-7Z"/>
      <path class="st11" d="M476.7,193v3c-3.2-.3-11.8,1.7-8.5-3s6,.7,8.5,0Z"/>
      <path class="st11" d="M463.7,193c.1.1.1,3.7,0,3.9s-6.7,1.3-6.9,1.1c-2.7-2.9,6.7-5.4,7-5Z"/>
      <path class="st11" d="M474.7,185c3.5,3.5-8.6,6.3-7,0,1.4.2,6.7-.3,7,0Z"/>
      <path class="st11" d="M462.7,186c2.7,2.7-5.6,5.1-7,5-2.1-3.2,6.3-5.7,7-5Z"/>
      <path class="st11" d="M450.7,191c-.4-1.3-1.8-2.8-1-5,1.6,1.4,1,2.9,1,5Z"/>
      <path class="st9" d="M441.7,189c.2,0,3.6,2.1,3.7,2.3,3.1,3.8-1.8,9.8-.7,10.7h4c1.8,9.6-14.5,17.5-19,8s2.1-23.1,12-21ZM440.7,195c-8.9-1.6-9.3,17.3-1,13.5s5.1-5,4-6.5c-1.6,1.2-7.1,4.5-8,1.4-1.3-4.6,5.2-4,5-8.4Z"/>
      <path class="st8" d="M440.7,195c.1,4.4-6.4,3.8-5,8.4s6.4-.2,8-1.4c1.1,1.5-2.5,5.8-4,6.5-8.3,3.8-7.9-15,1-13.5Z"/>
    </g>
  </g>
</svg>