<?xml version="1.0" encoding="UTF-8"?>
<svg id="Layer_1" xmlns="http://www.w3.org/2000/svg" version="1.1" viewBox="0 0 792 612">
  <!-- Generator: Adobe Illustrator 29.0.1, SVG Export Plug-In . SVG Version: 2.1.0 Build 192)  -->
  <defs>
    <style>
      .st0 {
        fill: #f2f6fa;
      }

      .st1 {
        fill: #231f20;
      }

      .st2 {
        fill: #f16c8d;
      }

      .st3 {
        fill: #343e43;
      }

      .st4 {
        fill: #fefefe;
      }

      .st5 {
        fill: #484f54;
      }

      .st6 {
        fill: #fbfbfb;
      }

      .st7 {
        fill: #bdc0c6;
      }
    </style>
  </defs>
  <g id="mS78bT">
    <g>
      <path class="st2" d="M791.4,64.4c1.8,5.1.9,12.6,1.1,18.1s0,4.3,0,6.4H-.2c0-1.4,0-2.8,0-4.3.1-6.2-1-15.9,1.1-21.3s12-12.9,19.7-12.8h750c8.1-.3,18.1,6.3,20.8,13.9ZM23,64.5c-4.9,1.4-5.3,9.5-.2,10.5,11.5,2.2,8.8-13,.2-10.5ZM42.2,64.5c-4.9,1.4-5.3,9.5-.2,10.5,11.5,2.2,8.8-13,.2-10.5ZM61.4,64.5c-4.9,1.4-5.3,9.5-.2,10.5,11.5,2.2,8.8-13,.2-10.5Z"/>
      <path class="st4" d="M792.4,88.9c2.2,150.5-1.7,301.3,0,451.8.1,5.6-3.3,9.8-5.4,14.4-4.4,3-8.7,6.5-14.4,6.4-202.9-.3-405.8.2-608.7,0l68.9-137.6-136.8-66.9-88.2,29.8c-1.8,1.1-7.2,10.3-8.2,12.6C.7,295.9-1.5,192.3-.2,88.9h792.6Z"/>
      <path class="st0" d="M61.4,64.5c8.6-2.5,11.2,12.7-.2,10.5s-4.7-9,.2-10.5Z"/>
      <path class="st0" d="M42.2,64.5c8.6-2.5,11.2,12.7-.2,10.5s-4.7-9,.2-10.5Z"/>
      <path class="st0" d="M23,64.5c8.6-2.5,11.2,12.7-.2,10.5s-4.7-9,.2-10.5Z"/>
      <path class="st5" d="M164.1,561.5c-1.3,0-3.1,0-4.3,0l69.3-136.5-132.8-64.1-1.3.2c-7.4,10.4-14.2,21.2-19.4,32.9-3.6,8.1-6.2,15.8-8.1,24.6-4.5.7-35-13-41-16.1s-16.6-11-18.6-10.7L-.2,405.7c0-1.8-2-1.8,0-6.4s6.4-11.5,8.2-12.6l88.2-29.8,136.8,66.9-68.9,137.6ZM65.9,415.3c2.6-19.8,13.8-36.7,24-53.3l-78.4,26.7c-2.4,3.1,49.4,27.5,54.4,26.7Z"/>
      <path class="st0" d="M75.5,394c5.2-11.7,12-22.5,19.4-32.9l1.3-.2,132.8,64.1-69.3,136.5c-47.5,0-95,0-142.4,0-5.2-.6-9.5-3.1-13.3-6.4-1.5-3.3-3.9-6.3-4.3-10.1-.9-46.4,1.2-92.9,0-139.2l8.1-13.9c2-.3,15.4,9.1,18.6,10.7-.4,2.3,1.2,2.3,2.6,3.2,4.8,3.1,38.4,22,41.1,19.2l5.3-30.9ZM29.8,439c-1,.6-1.7,4.4-.2,5.7,5.6,5.2,31.4,2,32.1-5.4s-11.1,0-15.6.5c-3.8.5-15.2-1.5-16.3-.8ZM149.9,487.1c-1.2-1.2-6-2.6-8.2-4.1-5.3-3.8-9.5-14.1-10.7-14.9-3-1.8-6.6-.8-6.1,3,.9,7.3,14.3,21.6,21.7,22.1s6-3.4,3.3-6.1ZM43.2,474.3c-8.9.4-13.1,17.7-5.3,19.8s15.9-20.3,5.3-19.8ZM111.5,506.2c-9.2,1.4-12,22-1.8,19.7,9.7-2.3,11.8-21.2,1.8-19.7ZM45.7,518.8c9.5-.5,19.6,2,27.6,7s8.5,8.4,10.7,9.5,3,0,3.2-1.1c.9-4.4-18.1-15.6-22.4-17s-20.4-6.1-19.1,1.5Z"/>
      <path class="st6" d="M65.9,415.3c-5,.8-56.8-23.6-54.4-26.7l78.4-26.7c-10.2,16.6-21.4,33.5-24,53.3Z"/>
      <path class="st7" d="M75.5,394l-5.3,30.9c-2.8,2.8-36.4-16.1-41.1-19.2s-3-.9-2.6-3.2c5.9,3,36.4,16.7,41,16.1,1.9-8.8,4.5-16.5,8.1-24.6Z"/>
      <path class="st3" d="M29.8,439c1.1-.7,12.5,1.3,16.3.8,4.5-.6,16.4-9.5,15.6-.5s-26.5,10.6-32.1,5.4-.8-5.1.2-5.7Z"/>
      <path class="st3" d="M149.9,487.1c2.7,2.7.3,6.3-3.3,6.1-7.4-.4-20.8-14.8-21.7-22.1s3.1-4.8,6.1-3,5.4,11.1,10.7,14.9c2.2,1.5,7,2.9,8.2,4.1Z"/>
      <path class="st3" d="M43.2,474.3c10.7-.5,4.4,22.4-5.3,19.8s-3.7-19.4,5.3-19.8Z"/>
      <path class="st3" d="M111.5,506.2c10-1.6,7.8,17.4-1.8,19.7-10.2,2.4-7.3-18.2,1.8-19.7Z"/>
      <path class="st5" d="M45.7,518.8c-1.3-7.7,14.6-3,19.1-1.5s23.4,12.6,22.4,17-1.8,1.8-3.2,1.1c-2.2-1.1-7.2-7.3-10.7-9.5-8-5-18.2-7.5-27.6-7Z"/>
    </g>
  </g>
  <g>
    <path class="st1" d="M347.4,271.6c-7.3-.1-13.6-.2-18.8-.3-5.3,0-10,0-14.4,0-.1,11.9-.1,21.6,0,29.3s.2,12.5.2,14.4h-14c0-1.9,0-7,.1-15.2s.2-17.7.3-28.4l-52.1.4-5.8-10.8c15.5-17,29.2-32.4,41.2-46.2,12-13.9,18.6-21.5,20-23.1l10.7,6.3c-.2,10.4-.4,23.1-.4,38.2,0,15.1,0,23.1,0,24.1,3,0,6.8,0,11.6,0,4.7,0,11.9-.2,21.6-.3v11.9ZM301,210.7h-.2c0,0-42.6,49.1-42.6,49.1l.2.2c.7,0,2.6,0,5.7,0,3.1,0,7.8,0,14,0h9.6c4,0,8.4,0,13.1,0v-23.3c0-7,0-15.6.2-26Z"/>
    <path class="st1" d="M454.4,240.5c0,7.2-1.2,13.9-3.7,20.1-2.5,6.2-5.9,11.3-10.3,15.5-4.4,4.2-9.4,7.4-15.2,9.7s-12,3.4-18.6,3.4-12.8-1.1-18.6-3.4-10.7-5.5-14.9-9.7-8-9.9-10.4-15.9c-2.4-6-3.6-12.7-3.6-19.9s1.1-13.4,3.3-19.2c2.2-5.7,5.4-10.8,9.5-15.3,4-4.3,9.1-7.7,15.1-10.3,6.1-2.6,12.6-3.8,19.7-3.8s13.6,1.2,19.5,3.6c5.9,2.4,10.8,5.7,14.9,9.9,4.3,4.5,7.6,9.6,9.9,15.5,2.3,5.8,3.4,12.4,3.4,19.7ZM439.6,241.3c0-5.8-.9-11.3-2.7-16.3-1.8-5-4.4-9.2-7.7-12.6-2.8-2.9-6.1-5.2-9.8-6.7-3.8-1.6-8-2.4-12.6-2.4s-9.6.9-13.2,2.6c-3.6,1.7-6.7,3.9-9.3,6.4-3.2,3.2-5.8,7.3-7.7,12.3-1.9,5-2.8,10.2-2.8,15.6s.9,11.2,2.7,16.1c1.8,4.9,4.6,9.2,8.4,12.8,2.7,2.6,5.8,4.7,9.5,6.2,3.6,1.5,7.7,2.3,12,2.3s8.6-.7,12.4-2.2c3.7-1.5,7-3.6,9.7-6.2,3.6-3.4,6.3-7.5,8.3-12.3,1.9-4.8,2.9-10,2.9-15.5Z"/>
    <path class="st1" d="M540.9,277.8c0,5.8-1.7,11.2-5.1,16.2-3.4,5-8.4,9.1-15,12.4-5.5,2.7-11.4,4.7-17.7,6-6.3,1.3-14.3,2-23.9,2s-2.9,0-4.5,0c-1.5,0-2.6,0-3.3-.1l-1.7-12h9.1c5.3,0,10.5-.3,15.8-.9,5.2-.6,9.8-1.5,13.6-2.8,5.6-1.9,9.9-4.4,13-7.6,3.1-3.2,4.6-7.3,4.6-12.3s-1.6-8.1-4.7-11.1c-3.2-3-7.3-5.3-12.3-6.7-2.1-.6-4.5-1.1-7.1-1.4-2.6-.3-5.7-.5-9.3-.5s-2.6,0-3.7,0c-1.2,0-2.2.1-3,.2l-1.6-11.2c11.4-1.2,20.1-3.6,26.1-7.4,6-3.8,9-8.8,9-15.2s-1.1-8-3.2-10.8c-2.2-2.8-5.2-4.9-9.2-6.5-2.8-1.1-6.1-1.9-9.8-2.4-3.8-.5-7.5-.7-11.1-.7s-3.2,0-4.9,0c-1.7,0-2.8,0-3.2,0l2.5-12.2h4.6c6.4,0,12.2.3,17.5,1,5.3.6,10.6,2.1,15.7,4.5,4.9,2.2,8.9,5.3,11.9,9.3,3,4,4.5,8.9,4.5,14.9s-2.1,11.8-6.2,16.7c-4.2,5-9.3,8.6-15.4,11.1v.4c8.7,1.6,15.6,4.6,20.7,8.9,5.1,4.3,7.7,10.4,7.7,18.3Z"/>
  </g>
  <g>
    <path class="st1" d="M264.7,371.8c-.4,0-2,0-4.8,0s-6.2,0-10.2,0-3.5,0-5,0c-1.5,0-2.8,0-3.9,0,0,2.7,0,5.7,0,8.9,0,3.2,0,6,0,8.5.3,0,1.1,0,2.5,0,1.4,0,2.7,0,4,0,4,0,7.7,0,11.3,0s5.5,0,5.9,0v5c-.5,0-2.7,0-6.7,0-4,0-7.6,0-10.8,0s-2.2,0-3.6,0c-1.4,0-2.2,0-2.6,0,0,4.3,0,8.4,0,12.2s0,6.9,0,9.2h-6c0-1.5,0-4,.1-7.8,0-3.7,0-9.1,0-16.1s0-6.4,0-10.9c0-4.5,0-9.1-.1-14,1.8,0,3.9,0,6.5,0,2.6,0,5.3,0,8.1,0,4.3,0,7.8,0,10.5,0,2.8,0,4.3,0,4.7,0v5.1Z"/>
    <path class="st1" d="M306.8,397c0,2.8-.5,5.5-1.5,8.1-1,2.6-2.5,4.8-4.4,6.6-1.6,1.5-3.4,2.7-5.3,3.5-2,.8-4.2,1.2-6.6,1.2s-4.5-.4-6.6-1.2-3.9-1.9-5.5-3.5c-1.8-1.8-3.3-4-4.3-6.6-1-2.6-1.5-5.3-1.5-8.2s.4-5.4,1.3-7.7c.9-2.3,2.2-4.5,4-6.3,1.6-1.7,3.5-3,5.7-3.9,2.2-.9,4.4-1.4,6.8-1.4s4.8.4,6.9,1.3c2.1.8,3.9,2.1,5.5,3.8,1.8,1.9,3.2,4.1,4.1,6.5.9,2.4,1.3,5,1.3,7.9ZM301,397.2c0-2.3-.4-4.5-1.1-6.7-.7-2.2-1.9-4-3.4-5.5-.9-.9-2.1-1.6-3.4-2.1-1.3-.5-2.7-.7-4.1-.7s-3.1.3-4.4.8c-1.2.5-2.4,1.4-3.5,2.5-1.3,1.3-2.3,3-3,5-.7,2-1.1,4.2-1.1,6.3s.4,4.8,1.1,6.8c.8,2.1,2,3.9,3.6,5.4.9.9,2,1.5,3.3,1.9,1.2.4,2.6.7,3.9.7s3-.3,4.3-.8c1.3-.5,2.5-1.3,3.5-2.3,1.4-1.4,2.4-3.1,3.2-5.1.7-2,1.1-4.1,1.1-6.3Z"/>
    <path class="st1" d="M338.2,382.9c-1.3.3-3.4,1-6.1,2-2.8,1-5.9,2.4-9.5,4.1,0,.3,0,1.5,0,3.7,0,2.2,0,4.2,0,6.1,0,2.9,0,6.3,0,10.2,0,3.9,0,6.1,0,6.6h-5.8c0-.4,0-1.8,0-4.1,0-2.3,0-6.3,0-11.8s0-5.4,0-9.5c0-4.1,0-7.9-.1-11.5h5.6v5.5h0c2.7-1.5,5.5-2.9,8.1-4,2.7-1.1,4.8-1.9,6.4-2.3l1.1,5.1Z"/>
    <path class="st1" d="M377.1,396.7c0,4-1,7.4-2.9,10.3-2,2.9-4.6,5-7.9,6.4-2.2.9-4.6,1.6-7.4,2-2.8.4-6.1.6-10,.6h-3.2c0-1.9,0-5.3,0-10.4,0-5.1,0-11.2,0-18.3s0-8.6,0-12.7c0-4.1,0-8.3-.1-12.6h5.8v16.8c4.9,0,8.9.5,11.9,1.3,3,.8,5.5,2,7.5,3.4,2.1,1.5,3.6,3.3,4.7,5.6,1.1,2.2,1.6,4.8,1.6,7.6ZM371.3,396.8c0-2.9-.8-5.4-2.5-7.4-1.7-2-3.8-3.4-6.4-4.3-1.4-.5-2.8-.8-4.4-1.1-1.6-.3-3.2-.4-4.9-.4h-1.8c0,.5,0,2.5,0,5.8,0,3.3,0,6.1,0,8.2,0,4.1,0,6.9,0,8.6,0,1.7,0,3.4,0,5.1,2.7,0,5.1-.2,7.3-.6,2.2-.4,4.1-1,5.7-1.9,2.3-1.2,4.1-2.9,5.2-4.9,1.1-2,1.7-4.4,1.7-7.2Z"/>
    <path class="st1" d="M393.4,371.5h-6.4v-6.3h6.4v6.3ZM393.1,415.4h-5.8c0-.4,0-2.8,0-7.2,0-4.4,0-8,0-10.9s0-5.3,0-8.3c0-3,0-6.5-.1-10.5h5.8c0,3.5,0,6.8-.1,9.8,0,3,0,5.8,0,8.1,0,5.7,0,10.2,0,13.6,0,3.4,0,5.2,0,5.3Z"/>
    <path class="st1" d="M434.8,416c-.1,0-.6,0-1.4,0-.8,0-1.4,0-1.9,0-4.6,0-8.2-.2-10.8-.6-2.6-.4-5.1-1.2-7.6-2.4-3.2-1.6-5.7-3.6-7.4-6.2-1.7-2.6-2.5-5.4-2.5-8.6s.9-7,2.8-9.8c1.9-2.9,4.6-5.1,8.1-6.7,2.1-1,4.4-1.7,7.1-2.2,2.7-.5,5.3-.7,7.9-.7v-16.8c-.1,0,5.6,0,5.6,0,0,.5,0,3.9,0,10.2,0,6.3,0,12.7,0,19.2s0,9.8,0,13.9c0,4.1,0,7.7,0,10.7ZM429.1,390.4v-6.7c-2.4,0-4.7.2-6.9.6s-4,1-5.5,1.7c-2.4,1.1-4.3,2.7-5.6,4.8-1.3,2.1-2,4.5-2,7.3s.6,4.6,1.9,6.4c1.3,1.8,2.9,3.2,4.8,4.2,1.7.9,3.6,1.6,5.7,2,2.1.4,4.3.7,6.6.7h.9c0-.2,0-2,0-5.4,0-3.4,0-8.6,0-15.6Z"/>
    <path class="st1" d="M476.1,416c-.1,0-.6,0-1.4,0-.8,0-1.4,0-1.9,0-4.6,0-8.2-.2-10.8-.6-2.6-.4-5.1-1.2-7.6-2.4-3.2-1.6-5.7-3.6-7.4-6.2-1.7-2.6-2.5-5.4-2.5-8.6s.9-7,2.8-9.8c1.9-2.9,4.6-5.1,8.1-6.7,2.1-1,4.4-1.7,7.1-2.2,2.7-.5,5.3-.7,7.9-.7v-16.8c-.1,0,5.6,0,5.6,0,0,.5,0,3.9,0,10.2,0,6.3,0,12.7,0,19.2s0,9.8,0,13.9c0,4.1,0,7.7,0,10.7ZM470.5,390.4v-6.7c-2.4,0-4.7.2-6.9.6s-4,1-5.5,1.7c-2.4,1.1-4.3,2.7-5.6,4.8-1.3,2.1-2,4.5-2,7.3s.6,4.6,1.9,6.4c1.3,1.8,2.9,3.2,4.8,4.2,1.7.9,3.6,1.6,5.7,2,2.1.4,4.3.7,6.6.7h.9c0-.2,0-2,0-5.4,0-3.4,0-8.6,0-15.6Z"/>
    <path class="st1" d="M517.9,395.6h-26.3c0,2.6.6,4.9,1.6,7.1,1.1,2.1,2.7,3.9,4.9,5.3,1.4.9,3,1.6,4.8,2,1.8.4,4,.7,6.5.7s2.7,0,3.8-.1c1.2,0,1.9-.1,2.1-.1l-.7,4.8c-.2,0-.8,0-1.9.1s-2.4,0-3.9,0c-3.9,0-7.3-.5-10.1-1.5-2.9-1-5.2-2.4-7.1-4.2-1.6-1.5-2.9-3.4-4-5.7-1.1-2.3-1.7-4.9-1.7-7.7s.4-5.3,1.2-7.5c.8-2.2,2.1-4.3,3.7-6.2,1.4-1.7,3.2-2.9,5.3-3.8,2.1-.9,4.3-1.3,6.6-1.3s4.3.3,6,1c1.7.7,3.3,1.7,4.6,3.1,1.4,1.6,2.5,3.5,3.3,5.7.8,2.3,1.1,5,1.2,8.2ZM512.3,391.6c-.4-3-1.4-5.4-3.1-7.1-1.7-1.7-3.9-2.6-6.6-2.6s-5,.9-6.8,2.6c-1.8,1.7-3.1,4.1-3.8,7.1h20.3Z"/>
    <path class="st1" d="M557.8,415.4h-5.8c0-.7,0-2.9,0-6.7,0-3.8,0-6.2,0-7.1s0-3.1,0-5.6c0-2.5,0-4.3,0-5.4,0-2.8-.6-4.8-1.6-6-1-1.2-2.7-1.8-5.2-1.8s-3.3.4-5.5,1.3-4.4,2-6.6,3.4c0,.3,0,1.7,0,4.3,0,2.6,0,5,0,7.2s0,6.2,0,10.2c0,4,0,6.1,0,6.3h-5.8c0-.2,0-1.7,0-4.5,0-2.8,0-7,0-12.5s0-5.5,0-9c0-3.4,0-7.1-.1-10.9h5.7v4.2s0,0,0,0c3.4-1.9,6.2-3.3,8.5-4.1,2.3-.8,4.2-1.1,5.7-1.1,3.1,0,5.6,1,7.5,2.9,1.9,2,2.8,4.6,2.8,8s0,5.7,0,7.9c0,2.2,0,4,0,5.4,0,2.2,0,5,0,8.3,0,3.3,0,5.1,0,5.2Z"/>
  </g>
  <text/>
</svg>