<?xml version="1.0" encoding="UTF-8"?>
<svg id="Layer_1" xmlns="http://www.w3.org/2000/svg" version="1.1" viewBox="0 0 792 612">
  <!-- Generator: Adobe Illustrator 29.0.0, SVG Export Plug-In . SVG Version: 2.1.0 Build 186)  -->
  <defs>
    <style>
      .st0 {
        fill: #4e2539;
      }

      .st1 {
        fill: #56083a;
      }

      .st2 {
        fill: #613b2c;
      }

      .st3 {
        fill: #9d187d;
      }

      .st4 {
        fill: #8c156e;
      }

      .st5 {
        fill: #b2509a;
      }

      .st6 {
        fill: #61214b;
      }

      .st7 {
        fill: #efe6dd;
      }

      .st8 {
        fill: #ac8d85;
      }

      .st9 {
        fill: #decbc5;
      }

      .st10 {
        fill: #f8f4f0;
      }

      .st11 {
        fill: #fefefe;
      }

      .st12 {
        fill: #582614;
      }

      .st13 {
        fill: #8d2d6f;
      }

      .st14 {
        fill: #7f6458;
      }

      .st15 {
        fill: #a43188;
      }
    </style>
  </defs>
  <path class="st1" d="M274.3,92.8c6,0,12,0,18,0,0,.8.9,1.5,1,2,1.3,4.3,2,5,6.1,7.4,7.2,4.2,5.5,1.6,11.6.9,5.7-.7,39.1-5,41.6-6.2s.5-1.8,1.4-2c3.4-.8,8.3,1.3,11.3-1,7.7,0,15.3,0,23,0,4.1,1.7,11.7,1.7,16,0,2,0,4,0,6,0,1,1.7,3.8,1,5.5,1,18.1.2,37.1.6,55.1,0s4,1,3.5-2c15.3-.2,30.7-.1,46,0s4,0,6,0c0,3,9.8,9.7,10,10.7.5,2.5.4,11.1.1,13.8-.9,8.4-9.2,14.2-10.1,21.4-3.1-.3-12.8,1.3-12,6-.3,0-.7,0-1,0-8,1-14.6,2.3-21.7,4s-17.8.7-23.6,2-.3,1.8-2.1,2.1c-8.4,1.1-26.6,0-34.9-2.1s-6.4-1.1-10-2c-5.6-1.4-13.9-6.2-21.2-7.9s-3.7,0-5.5,0l1-2c3.7.2,3.5-4.8,1.8-5.9s-13.4,0-16.4-.1-2.6.5-2.5-3c.7,0,1.3,0,2,0l50,1c.2-1-.2-2.1,0-3,.6-2.6,1.9-4.4,0-7.3s-20.5-1-25.1-1.7c3-10.4-8.5-22.2-16.9-12.4s-1.9,7-2.1,11.4c-5.8.2-11.7-.2-17.5,0s-4-1-3.5,2c-1.5.1-2.6.2-4,1s-1.4,2.8-3,3c2.4-7.1-1.5-6.3-7.5-6-10.5.6-9.5,2.4-14.5,9.5s-4.5,1.1-3,7.4c-2.5.2-4.6,1-5,4-.8,0-1.8,1-3,1s-4.7-3.3-4,1c-.6.2-1.5-.2-2,0l-2-3c2-.7,2.2-3.1,2.6-5,1.3-6.4,1.9-13.5,2.4-20-7.1-1.1-4.7,5.2-5,10-4.4-2.6-.1-11.1-6-10s0,.9,0,1c0,2.3-1.3,5.7-2,8-.3-1.9-1.1-6.2-3-5-.2-1.3.1-2.7,0-4-.7,0-1.3,0-2,0s-.7,0-1,0c-.7,0-1.3,0-2,0-3.3-.1-6.7,0-10,0v25c4,.8,7.7-.5,11-1s3.8-.1,4,0-.4,1.7.7,2c3.6.9,5.1.2,4.3-3.5l4,.4c.2.8,1,1.9,1,2,.2,2.8-2.8,5.6,1,5-3,1-4.9,1.5-8,2s-4.3-.4-6.3,0-7.3,5-11.3,5.9-4.7-.4-5.4.1.1,1.5,0,1.9c-.3.6-1.3,1.8-1,2-.7,0-1.5.1-2,0-1.4-.3-3.4-2.9-3,1-.7,0-1.4,0-2,0-2.3-.3-8.7-3.3-8,1-1,0-2,0-3,0s-2.7,0-4,0c1.1-4.5-6.5-5.1-8-7.8-2.8-5.2.8-14.8-2-20.2,0-4.3,0-8.7,0-13,4.1.5,1.1-2.1,1-3-.1-1.3,0-2.7,0-4-.1-3.7-.4-8.4,0-12s1.6-.1,1-1.5l-1-.5c0-.7-.1-1.4,0-2h20ZM275.3,128.8c-2.5,1.8-.5,4.3,0,6,.7,2.6-1.7,3.5,4,3,0-2.3,0-4.7,0-7h2c.5,1.6,1.8,6.7,2,7,.8.7,5-.3,5-1.5v-23.5c-6-1.4-3.8,3.2-4,8h-2c-1.4-4-1.6-9.2-7-8,0,5.3,0,10.7,0,16Z"/>
  <path class="st7" d="M350.3,135.8c.7,0,1.3,0,2,0,1.6,1.7,6.5,1.7,8,0,3.9,0,7.2.8,11,1-.9,3.7,5,1.5,8,2,1.6.4,2.8.3,5,1,.5,1.4,2,.8,3,1,1.7.3,2.4.4,4,1s2.1,1.7,4,1c11.1,3.1,21.8,7.8,33,10.5,21.9,5.3,53.9-.1,76.3-4.8,2.7-.6,6.7-1.8,8.8-3.7.3,0,.7,0,1,0,3.5-.5,8.5-2.6,12-4s6.8-4.2,11-4c0,2.4.1,4.9,0,7.4-.2.8-1.4.8-2,.6s.2-.8-.5-1c-2.4-.6-2.4,2.8.5,2,2.2,6.2-4.2,11.7-6.4,17.1-4.9,11.7-2.2,25.7-2.6,38.5,0,1.9,1,4-2,3.5,0-1.3,0-2.7,0-4,1.7-3.7,1.7-10.3,0-14,0-.6-.1-1.4,0-2s.9.2,1-1-.5-3-2.3-2.9-11.7,4.8-15.2,5.9-5.7,1.2-8.5,2c-6.6-1-11.5,1.6-17.7,2.9s-3.9-.9-3.3,2.1c-5,.4-14.1,1-19,1s-2.7,0-4,0-.7,0-1,0c-3.8-.2-10.6-1.4-15-2-3.7-.4-3.8-2.8-4-3,5.5-1.7,8.8-13.6,7-18-.1-.4.4-1.4-.1-1.9-.7-.6-2.8,0-3.9-.1-5.8-1.1-10.5-2-11,6h-2c0-5.3.2-10-7.4-9s-5,7.7-4.6,10.5c.7,4.7,8.8,1.6,12,2.5s1.2,1.2,3,2,.7.6,1,1c-1.5.1-1.8-.3-3,1-2.2,2.4-.6,4.2,2,5v2c-25.3-4.7-49.4-17.9-75.5-17s-10.2,1.9-14.5,2-1.3,0-2,0c-12.4.4-40.3-2.3-50.3.2s-6.2,3-6.7,3.3c-4.7,3.3-2.8,7-3.1,12s-1,2.3-1,2.4h-12c-.5-19.6-5.3-22.1-9-38,2.8,1.6,6,.9,9,1s2.7,0,4,0c-.9,3.8,4.3,1.3,5,2s-.4,3.7,0,4c1.7,1.7,26.3-.6,32,3.5s-1.1,4.1-1,6.5c8.2.5,16.3.9,24.5,1,12.5.1,24.6-4.8,38.1-3.1s1.3,1.9,2.1,2.1c5,1.2,6-.4,12.1,1.9s7.9,3.4,12.2,1.1c-.4,2.8,0,4.2,3,2.5-2.3-4.4,2-8,1.9-12.9s-1.3-4.9-1.5-7.3.9-3,.6-3.3c-1.7-1.9-2.1,3.2-4,2-.8-1.7-4.5-2.5-3-7-5.4-1.2-2.5,2.7-7,4-.2-.3-1.7-.6-2-1s-.1-1.9-1.4-3c-6.2-5.3-17.8,1.6-4.6,2l-2,2c-3.2-.5-2.9-.3-6,1s-1.9-.2-2,0c.5-4.5-4.7-5.1-8-4-.2-.6-.9-1.4-1-2s.1-1.4,0-2,.2-1.8,0-2-3.1,0-4,0c-3.5,0-3.7-.6-5,3h-1v-6c-3.3,0-6.7,0-10,0l-4-2c2.8-1.2,7-.4,9.3-1s.6-1.9.7-2c.5-.4,7.5-.9,9-1ZM405.3,164.8l.6-7.1-6.6-.9c3.1,6.9-1.3,12-1.8,17.8s6.3,4.6,9.3,4.3c7.7-.6,8.3-16.6-1.5-14.1Z"/>
  <path class="st13" d="M428.3,190.8c3.8.7,7.1,1.5,11,2s11.2,1.8,15,2l.5,1,.5-1c1.3,0,2.7,0,4,0,.4,1.7,3.1.9,4.5,1,4.8.2,9.7-.1,14.5,0,.2-1.7-2.3-.9-3.5-1-5.2-.2-10.4.2-15.5,0,4.9,0,14-.6,19-1,7.3-.6,14-3.1,21-5s5.7-1.1,8.5-2,13.2-5.7,15.2-5.9,2.4,1.4,2.3,2.9l-1,1c-.1.6,0,1.4,0,2-1,6.7-.1,8.2,0,14s0,2.7,0,4c.1,8.6,0,17.4,0,26-1.7,1-1,3.8-1,5.5-.3,24.2,1,49,0,73.1,0,1.9,1,4-2,3.5,0-3.5,1-6.5,1-9.5,0-39.5,0-79,0-118.5-3.4-1.2-3.9,1.5-4.3,1.7-2.2,1-4.9,2.1-7.1,2.4s-4.1-1.3-3.5,2c-5.7,0-4.7,1.8-6.4,2.1s-8.2-.5-8.6,0c-1.5,6.9,4.7,2.9,9.3,4s.5,1.6,1.5,1.9,2.9-.2,3.2,0,0,3,0,4c.3,4.5,4.5-.4,4,4-1.3-.2-4.2.5-4.9-.1s-.1-5.3-4.4-7.1-17.1-.3-19.1,1.2-1.4,4.5-1.6,6.1c-3.7-1.3-5.4-3.8-9.6-4.9-7.5-2.1-14.5-1.3-21.7,1.2s-5.4,3.4-6.4,3.6-3.1-1.6-4.9-1.8c-8.7-.8-15.7,2-23.6,3.3s-15.8,2.8-22.8,2.7-2,0-3,0c.2-.2-.6-1.7.6-2,2.3-.6,6.1.6,8.7,0s10.1-3.9,11.1-4.1c9.7-1.3,29.2,0,36.9-1.9s.6-1.8,1.4-2c3.9-.9,6.2,2.3,5.3-4-1.7,0-3.3,0-5,0l2-1v-1c-3.6-.1-7.3.1-11,0s-5.8.3-8.5,0c-14.3-2-26.7-7.9-38.4-11.8-5.8-2-15.6-1.9-18.9-4.4s-.2-1.7-.2-1.7h-30c-.9,3.4,1.6,5.5,2.1,8.4,1.2,8.2-1,19,0,27.6h14c0,0-.3,1.3.2,1.7,1.3,1,9.6,3.4,11.4,4.6s2.2,3.2,2.6,3.4c3.9,1.7,3.7-1.5,4.4-1.7,2.4-.6,5.7.3,8.3,0,.4-4.1-3.3.4-3-4.5s3.6-3,4.1-3.5c-.7,2.5,1.6,7.5.1,9.4s-4.5,0-5.1,2.6c-3.5.3-8.9,3.1-9.4,3-1.1-.2-2.7-4.6-4-6-6.3-6.9-19.3-6.3-27.5-4,7.2-4.4,2.3-1.4,1.9-4.4-.9-7.5,1.7-21.7.1-27.9s-1.9-.5-2-.7c-.3-.3.6-2.7-2-2v-7c4.2-.2,10.1-1.9,14.5-2,26.2-.9,50.3,12.3,75.5,17Z"/>
  <path class="st13" d="M267.3,410.8c.9.5,2.8.6,3,1.7.6,2.4-.5,6,0,8.8s2.4,4.1,2.9,7.1c2,13.7.8,30.6,3.1,43.9s4.5,7.4,2.9,12.6c-.6.4-1.3.6-2,1-2.6-3-1.3-4.6-2.5-7s-3.7-1.9-4.3-3.7c-1.4-4.1,1.1-18.8-.3-21.2s-3-1.2-3.8-1.2c-1.5,1.3-1.7,18.2-8,19,2.4-8,2.9-12.8,4-21s1.1-6.2,1-12,0-10.7,0-16c3.5.5,1.2-4.8,3-9s1.5-1.5,1-3ZM268.3,445.8h-2v5h2v-5Z"/>
  <path class="st5" d="M267.3,276.8c3.1,3.6-.4,25.7,1,27h3c.1-2.7.4-11.9,2.5-13s1.9.3,1.5,1.5l-8,105.5c0-.1-.9-1.1-1-2.4-.4-3.1,1.6-8.5-2-7.6,0-2.3,0-4.7,0-7,1.1-1.6,1.8-5.1,2-7s0-2.7,0-4c.6-14.5.5-31,0-45.5s1-4-2-3.5c0-1,0-2,0-3,3,.6,1.9-1.5,2-3.5.1-4.2,0-8.4,0-12.5,0-7.9.7-16.4-1-24,.5-.1,1.2-1,2-1Z"/>
  <path class="st6" d="M322.3,92.8c14,.2,28.7.9,43,1-3,2.4-7.9.3-11.3,1s-.8,1.7-1.4,2c-2.5,1.2-35.8,5.5-41.6,6.2-6.1.7-4.3,3.3-11.6-.9s-4.9-3.1-6.1-7.4c4.5-.1,9,.1,13.5,0s4,1,3.5-2c4,0,8,0,12,0Z"/>
  <path class="st1" d="M276.3,494.8c-.4,1.6,1.4,3.8-1.5,4-5.4.4-9.4,1.1-14.5,3,2.4,7.4,13.8,7,13,16-4-.3-8.2-.7-12-1,1.2-3.7-4.9-4.9-8-5,.2-5.6.1-11.4,0-17,7.3.6,15.9-.9,23,0Z"/>
  <path class="st13" d="M267.3,193.8c.4,1.6,3.7,1.5,4,0h4c0,4.9,1.6,12.6,1.6,17.9,1.5,4.1,2.7,2.7,5.9,3.1s4.1-1.2,3.5,2c-.7,0-1.3,0-2,0-1.9,0-4.2.2-6,0-9-1.1,1.5-21-9.4-20s-1.9,2.4-2.6,2.8c.5,25.7-1.2,51.7,1,77.3-.8,0-1.5.9-2,1s-1.4-.1-2,0c0-12.3,0-24.7,0-37,1.7-1,1-3.8,1-5.5,0-7,0-14,0-21s.6-4.4-1-5.5c0-5,.1-10,0-15h4Z"/>
  <path class="st14" d="M280.3,514.8c1-.8,3.3,2.3,5.5,2.1s.4-1.9,1.2-2c2.4-.6,5.8.4,8.3,0l-7-1v-3c6.1.3,12.4-.4,18.5,0s10.9.5,12.1,3l23.3,2c-13.8.3-28.5,1.3-42.5,2-1.9,0-4-1-3.5,2-.7,0-1.3,0-2,0-1,0-2,0-3,0-4.5-.2-10.2-.7-15-1,0-.7,0-1.3,0-2,4.5,1.3,3.8-1.8,4-2Z"/>
  <path class="st5" d="M524.3,410.8c-.2-18.3,0-40-2-58-1.3-11-1-28.4-1-40,3,.6,1.9-1.5,2-3.5,1-24-.3-48.9,0-73.1,0-1.7-.6-4.4,1-5.5.2,60-.2,120,0,180Z"/>
  <path class="st13" d="M259.3,490.8c2.7-.1,3.9,1.7,6.5,2.1s5-1.1,5.5-1.1c11.7.2,25,3.1,37,4s11.3.8,17,1c.6,3-1.5,1.9-3.5,2-9.4.4-30,.8-38.5-1s-3.8-2.6-7-3c-7.1-.9-15.7.6-23,0,0-.3,0-.7,0-1,1.9-1.2,3.6-2.9,6-3Z"/>
  <path class="st6" d="M537.3,92.8c0,.7,0,1.3,0,2,0,1,0,2,0,3,.1,2.3,0,4.7,0,7,.1,10.6.3,21.4,0,32-4.2-.2-7.7,2.7-11,4,0-.7,0-1.4,0-2,.9-7.3,9.2-13,10.1-21.4.3-2.8.4-11.4-.1-13.8s-10-7.7-10-10.7c3.7,0,7.3,0,11,0Z"/>
  <path class="st9" d="M466.3,92.8c-18.3.2-37.4,1-56,1-2,0-4,0-6,0-5.3,0-10.7,0-16,0-7.7,0-15.3,0-23,0-14.3,0-29-.8-43-1h144Z"/>
  <path class="st5" d="M535.3,468.8c.8,2.6.8,3.4,1,6s0,1.3,0,2c-5.3-1.5-5.3-4.1-7.3-8.3s-1.7-1.6-1.7-1.7c-.8-2.1-.7-4-1-6-.6-3.7-.2-10.1-1-13.3s-2-.6-2-1.3c-.7-5.3.9-20.4,1-26.4,2.3,11.8,0,24.6,4.5,36s5,7.9,6.5,13Z"/>
  <path class="st13" d="M264.3,320.8c3-.6,1.9,1.5,2,3.5.5,14.5.6,31,0,45.5-1.6.4-1.5,3.7,0,4-.2,1.9-.9,5.4-2,7,0-19.3,0-40.4,0-60Z"/>
  <path class="st13" d="M524.3,410.8c0,3,0,6,0,9-.1,5.9-1.7,21.1-1,26.4s1.9.5,2,1.3c.8,3.2.4,9.6,1,13.3-3.6.7-1.5-4.2-2-6.3s-2.3-.6-2.1-2.1v-99.6c2.2,18,1.9,39.7,2.1,58Z"/>
  <path class="st8" d="M261.3,516.8c3.8.3,8,.7,12,1s1.8.9,3,1c4.8.3,10.5.8,15,1v1c-1.6-.1-3.3,0-5,0-7.9-.1-22.8,1.4-29.5,0s-2.4-1.7-3.5-3c0-.3,0-.7,0-1,2.6.2,5.4-.2,8,0Z"/>
  <path class="st8" d="M264.3,387.8c3.5-.9,1.6,4.5,2,7.6s1,2.3,1,2.4c0,1.3,0,2.7,0,4s0,.7,0,1c0,1.1-1,4.2-1,7s0,2.7,0,4c-1.8,4.2.5,9.5-3,9,0-11.6,1-23.8,1-35Z"/>
  <path class="st5" d="M258.3,471.8c-.6,2.1-1.5,3.6-2,5-2.9.6-2.2-1.5-1.9-3.4s1.4-6.2,2-7.8,1.8-.9,1.9-1.3c.9-3.2-1.9-2.3-2-2.5s0-1.5,0-2c4.5-.7,3.2-6.1,6-9-1.1,8.2-1.6,13-4,21Z"/>
  <path class="st6" d="M474.3,92.8c.6,3-1.5,1.9-3.5,2-18,.6-37,.2-55.1,0s-4.4.6-5.5-1c18.6,0,37.7-.8,56-1s5.3,0,8,0Z"/>
  <path class="st6" d="M253.3,128.8c2.8,5.4-.8,15.1,2,20.2s9.1,3.3,8,7.8c-3,0-6.2.6-9-1-1.8-7.9-1-18.7-1-27Z"/>
  <path class="st8" d="M265.3,277.8c1.7,7.6,1,16.1,1,24h-3c0-8,0-16,0-24,.6-.1,1.5.2,2,0Z"/>
  <path class="st13" d="M256.3,461.8c.2.2,2.9-.7,2,2.5s-1.6.4-1.9,1.3c-.6,1.6-1.7,6.1-2,7.8s-1,4,1.9,3.4c-1.1,3.5-2.9,5.8-2,10-.1,0,.4,2.8-2,2-.2-8.4-.7-15,2-23l1-3c.2-.3.7-.6,1-1Z"/>
  <path class="st13" d="M266.3,301.8c0,4.2.1,8.4,0,12.5s1,4-2,3.5c0-4.4-1-10.7-1-16h3Z"/>
  <path class="st9" d="M254.3,92.8c.1-.7-.5-2.1.6-2,5.3.2,10.6-.2,15.9,0s4-1,3.5,2h-20Z"/>
  <path class="st8" d="M259.3,486.8c1,0,2,0,3,0-.6,2-3.7,1.5-3,4-2.4,0-4.1,1.8-6,3,0-.5-1-2.8-1-5,2.4.8,1.9-1.9,2-2,.3-.2,4,0,5,0Z"/>
  <path class="st8" d="M262.3,450.8c-2.8,2.9-1.5,8.3-6,9,.5-3.4,4.2-9.1,5.3-13.2s.2-5.5,1.7-7.8c0,5.8-.3,6.4-1,12Z"/>
  <path class="st0" d="M310.3,92.8c.6,3-1.5,1.9-3.5,2-4.5.1-9-.1-13.5,0-.1-.5-1-1.2-1-2,6,0,12,0,18,0Z"/>
  <path class="st9" d="M520.3,92.8c-.6-3,1.5-1.9,3.5-2s12.7-.3,13.4.2,0,1.7.2,1.8c.2.2,5.8.9,0,2,0-.7,0-1.3,0-2-3.7,0-7.3,0-11,0s-4,0-6,0Z"/>
  <path class="st0" d="M253.3,511.8c3.1.1,9.2,1.3,8,5-2.6-.2-5.4.2-8,0,.3-1.4,0-3.4,0-5Z"/>
  <path class="st8" d="M263.3,240.8c0-10.6.1-21.4,0-32,1.7,1,1,3.8,1,5.5,0,7,0,14,0,21s.6,4.4-1,5.5Z"/>
  <path class="st9" d="M537.3,97.8c3-1.5,3.3,8.1,0,7,0-2.3.1-4.7,0-7Z"/>
  <path class="st6" d="M254.3,112.8c0,.9,3.1,3.5-1,3,0-1,0-2,0-3h1Z"/>
  <path class="st9" d="M254.3,112.8h-1c0-1.3-.5-3.3,1-4,0,1.3-.1,2.7,0,4Z"/>
  <path class="st9" d="M535.3,144.8v1c-2.9.8-2.9-2.6-.5-2s.5,1,.5,1Z"/>
  <path class="st8" d="M254.3,465.8c.4-1.1-.1-1.3,1-3l-1,3Z"/>
  <path class="st6" d="M254.3,96.8v-1c0-.3,0-.7,0-1l1,.5c.6,1.4-1,1.4-1,1.5Z"/>
  <path class="st9" d="M254.3,96.8v-1,1Z"/>
  <path class="st10" d="M322.3,144.8c-.2,1.3.6,7.5,1.1,7.9,1,.8,4.9.5,3.9-1.9h1c0,0,1.7-.4,2,.6.6,2.4-.5,6.6,0,9.4-.3,0-.7,0-1,0-3.5.6-1.3.3-2,3s-1.6,1.5-1,3l14,1c0-1,0-2,0-3s0-2.7,0-4c.1-2-1.1-4.7,2-4-1.2,5.9,2.5,6.6,7.6,6.9s1.4-.9,1.5-.9c1,0,2,0,3,0,0,.3,0,.7,0,1s-.2,0,0,1,.4,1.9.5,3c4.2-.8,10.9-2.5,15.1-2s4.2,2.3,8.5,3.1c0,.8-.3,2.4.1,2.8,1.2,1.2,5.6,1.4,4.9-1.8,9.1.5,4.8-1.6,6-3s5.8,2.2,3-8,.2-1.6,0-2c1.9,1.2,2.3-3.9,4-2s-.8,2.2-.6,3.3c.3,2.4,1.5,5.1,1.5,7.3.1,4.8-4.1,8.5-1.9,12.9-2.9,1.7-3.4.3-3-2.5-4.3,2.3-8.1.5-12.2-1.1-6.1-2.3-7.1-.7-12.1-1.9s-.3-1.8-2.1-2.1c-13.4-1.8-25.5,3.2-38.1,3.1s-16.3-.5-24.5-1c-.2-2.4,3.9-4.4,1-6.5-5.7-4.1-30.3-1.8-32-3.5s.4-3.6,0-4c-.7-.7-5.9,1.8-5-2,1,0,2,0,3,0,2.7,0,5.4.1,8,0s4.4.7,5-1v-1c.5.1,1.3,0,2,0,1.5.1,3.7,1,5-1v-1c1,0,2,0,3,0,6.8-.3,6.9-1.2,12.6-2.9s6.1-.6,7.8-1.2,1.1-3.6,2.2-3.9,4.7,0,6.4,0Z"/>
  <path class="st6" d="M333.3,134.8c-1.5-6.3,1.5-5.3,3-7.4,5-7.1,4-8.9,14.5-9.5s9.9-1.1,7.5,6c1.6-.2,1.1-1.8,3-3-4,11.5,9.9,8.8,17,9-.1,3.5-.6,2.8,2.5,3s15.2-.6,16.4.1,1.9,6-1.8,5.9c-3.8,1.6-5-1.9-6.4-2.1-4-.5-9.3.3-13.6,0s-2.7,0-4,0c-3.8-.2-7.1-.9-11-1s-5.4-.1-8,0-1.3,0-2,0c-2-6.9-5.2-1.1-5.7-1-3,.7-7.9-.2-11.3,0Z"/>
  <path class="st0" d="M375.3,136.8c4.3.2,9.6-.6,13.6,0s2.6,3.7,6.4,2.1l-1,2c1.8.1,3.8-.3,5.5,0,7.3,1.7,15.6,6.6,21.2,7.9s6.2,1,10,2c8.3,2.2,26.4,3.2,34.9,2.1s1.3-1.9,2.1-2.1c5.8-1.4,17.1-.5,23.6-2s13.7-3,21.7-4c-2.1,1.9-6,3.2-8.8,3.7-22.4,4.6-54.4,10-76.3,4.8-11.2-2.7-21.9-7.4-33-10.5s-2.2-1.8-4-1c-1.6-.6-2.3-.7-4-1-.7-1.3-2.1-.7-3-1-2.2-.7-3.4-.6-5-1s-3-1.4-4-2Z"/>
  <path class="st7" d="M304.3,112.8c.7,0,1.3,0,2,0,.1,1.3-.2,2.7,0,4,.4,3,1,6,1,9h2c-.1-1.3.2-2.7,0-4,.7-2.3,1.9-5.7,2-8v-1c5.8-1.1,1.6,7.4,6,10,.3-4.8-2.1-11.1,5-10-.6,6.5-1.2,13.6-2.4,20s-.5,4.2-2.6,5h-1c0-.1-.8-1.2-1-2-.7-2.6-1.4-4.8-2-7.5s.7-1.8-2-1.5c0,1.4-1.6,9.7-2,10s-2.2-.1-3,0l-3-23,1-1Z"/>
  <path class="st9" d="M282.3,120.8c.4,1.2.4,3.2,1.5,4,.9,0,.5-3,.5-4,.2-4.8-2-9.4,4-8v23.5c0,1.2-4.2,2.1-5,1.5s-1.5-5.4-2-7,0-3.9-1.5-5c-.9,0-.5,3.8-.5,5,0,2.3,0,4.7,0,7-5.7.5-3.2-.4-4-3v-6c0-5.3,0-10.7,0-16,5.4-1.2,5.6,4,7,8Z"/>
  <path class="st9" d="M301.3,112.8c1.1,5.3-3.7,1.8-6.1,3.4-3.6,2.5.4,8.1,5.1,7.1,1,6.4-3.7,1.8-5.6,4.4s-.3,4.4-.4,6.1c2,0,4,0,6,0s1.3,0,2,0v3c-3.3.5-7,1.8-11,1v-25c3.3,0,6.7-.1,10,0Z"/>
  <path class="st6" d="M303.3,112.8v1l3,23c.8-.1,2.7.2,3,0,.4-.3,2-8.6,2-10,2.7-.2,1.6,0,2,1.5.6,2.7,1.4,4.9,2,7.5l-4-.4c.8,3.6-.7,4.4-4.3,3.5s-.6-1.9-.7-2c-.2-.1-3.3,0-4,0v-3c.7,0,1.3,0,2,0,0-2,.8-7-2.5-7-.9,3-2.7,2-5.5,2-1.3,1,3.5,4.1,4,5-2,0-4,0-6,0,.2-1.7-.5-4.7.4-6.1,1.9-2.7,6.6,1.9,5.6-4.4-4.7,1.1-8.7-4.6-5.1-7.1s7.2,1.8,6.1-3.4c.7,0,1.3,0,2,0Z"/>
  <path class="st7" d="M321.3,140.8c.8-.2,2.1.1,3,0-.3.9,1,1.8,1,2,.1.6,0,1.3,0,2-1,0-2,0-3,0-1.7,0-5.2-.4-6.4,0s-.1,3.2-2.2,3.9-5.2.4-7.8,1.2c-5.6,1.7-5.8,2.7-12.6,2.9l16-8c3.1-.5,5-1,8-2s1.9-2,2-2c.5-.2,1.4.2,2,0Z"/>
  <path class="st6" d="M430.3,127.8c-.2.9.2,2.1,0,3l-50-1c14.5,0,30-.5,44.5-1,1.9,0,3.8,0,5.5-1Z"/>
  <path class="st0" d="M333.3,134.8c3.4-.3,8.3.6,11.3,0s3.7-5.8,5.7,1c-1.5,0-8.5.6-9,1-4.2-2-4,.8-4.7,1-2.3.5-5.8.7-8.3,1,.4-3,2.5-3.8,5-4Z"/>
  <path class="st9" d="M341.3,136.8c0,0,.4,1.7-.7,2-2.4.6-6.6-.2-9.3,1l4,2c-3.4,0-6.7-.3-10,1,0-.2-1.3-1.1-1-2,.1,0,.5-.9,1-1,1.2,0,2.2-.9,3-1,2.5-.3,6-.6,8.3-1s.5-3,4.7-1Z"/>
  <path class="st6" d="M386.3,117.8c0,.7,0,1.3,0,2-6.8.5-14.3-.6-21,0-.6-3,1.5-1.9,3.5-2,5.8-.2,11.7.2,17.5,0Z"/>
  <path class="st0" d="M526.3,138.8c0,.6,0,1.3,0,2-3.5,1.4-8.5,3.5-12,4-.8-4.7,8.9-6.3,12-6Z"/>
  <path class="st0" d="M309.3,144.8l-16,8c-1,0-2,0-3,0s-2.7,0-4,0c.2-.4-.3-1.6,0-1.9.7-.5,3.9.2,5.4-.1,4-.9,10.7-5.8,11.3-5.9,2-.5,4.3.3,6.3,0Z"/>
  <path class="st14" d="M306.3,116.8c1.9-1.2,2.7,3.1,3,5s-.1,2.7,0,4h-2c0-3-.6-6-1-9Z"/>
  <path class="st6" d="M278.3,155.8v1c-2.6.1-5.3,0-8,0-.7-4.3,5.7-1.3,8-1Z"/>
  <path class="st6" d="M404.3,93.8c-4.3,1.7-11.9,1.7-16,0,5.3,0,10.7,0,16,0Z"/>
  <path class="st0" d="M319.3,140.8c-.1,0-.8,1.6-2,2-3.8.6-.8-2.2-1-5h1l2,3Z"/>
  <path class="st6" d="M281.3,130.8h-2c0-1.2-.4-5,.5-5,1.4,1.1,1.1,3.6,1.5,5Z"/>
  <path class="st0" d="M325.3,139.8c-.5.1-.9,1-1,1-.9.1-2.2-.2-3,0-.7-4.3,3.5-1,4-1Z"/>
  <path class="st6" d="M275.3,134.8c-.5-1.7-2.5-4.2,0-6v6Z"/>
  <path class="st6" d="M284.3,120.8c0,1.1.4,4-.5,4-1.1-.8-1.1-2.8-1.5-4h2Z"/>
  <path class="st6" d="M283.3,154.8v1c-1,0-2,0-3,0-.4-3.9,1.6-1.3,3-1Z"/>
  <path class="st7" d="M280.3,155.8c1,0,2,0,3,0-.6,1.7-3.3.9-5,1v-1c.6,0,1.3,0,2,0Z"/>
  <path class="st6" d="M290.3,152.8v1l-5,1c-.3-.2.7-1.4,1-2,1.3,0,2.7,0,4,0Z"/>
  <path class="st14" d="M311.3,113.8c0-.1-2-.6,0-1v1Z"/>
  <path class="st9" d="M303.3,113.8v-1c.3,0,.7,0,1,0l-1,1Z"/>
  <path class="st14" d="M336.3,175.8c-4.5,6-4.3,1.2-6.4.9-4.4-.6-9.2,1-13.6,0-1.1,1.2,0,1.8,1.3,2.3,2.9,1.1,13-1.9,13.7,3.7-1.7-.1-3.3,0-5,0-8-.3-16,.2-24,0,1.1-4.1,8.7-2.6,10-4,3.2-3.3-8.1-1.4-9.7-.6s-3.1,4.6-5.2,5.2c-3.9,1.1-11.8-.6-14.1.9s.7,3.8-.9,6.5-1.8.5-2.1,2.5c-.5,4.1.5,9.2,0,13.5,9.2.8,6.6-9,6-15,1,0,2-.1,3,0v14c-5-.3-3.3,8.2-.2,9s2.8,0,4.2,0l1,2c-2.7,0-5.3,0-8,0,.6-3.2-1.6-1.8-3.5-2-3.2-.4-4.4,1.1-5.9-3.1,0-5.3-1.7-13.1-1.6-17.9s1-1.2,1-2.4c.2-5-1.7-8.7,3.1-12s6.3-3.3,6.7-3.3c10-2.5,37.9.2,50.3-.2ZM297.3,176.8c-2.3.1-5-.5-7.3.2s-5.5,3-4.7,4.8l12-5Z"/>
  <path class="st2" d="M335.3,141.8c3.3,0,6.7,0,10,0v6c-.9,1.8-2,2.4-4,2,0-.3,0-.7,0-1-.2-1,.5-2.7-.5-3-3.9-1.1-3.4.3-3.5,3s-1.5,12,3,12c0,1.3,0,2.7,0,4-3.6-.2-7.4.3-11,0v-4c.3,0,.7,0,1,0s1.9.1,2,0c.7-.9-.5-12.6,0-15-3.1-1.3-5.2,3.2-4,5h-1c-3.2.8-1.8-3.2-2-6s.1-1.4,0-2c3.3-1.3,6.6-.9,10-1Z"/>
  <path class="st2" d="M438.3,169.8c.5,1.8,2.3,2.2,4,2,1.8,4.4-1.5,16.3-7,18-.3-.2-5.6-.6-7-1-2.6-.8-4.2-2.6-2-5,3.2,1.5,9.4,4.5,10-1-2.3.1-4.7-.2-7,0-.3-.4-.6-.8-1-1-.5-2-1.1-3.9-1-6,.5-8,5.2-7.1,11-6ZM432.4,172.9c-3,1.9-.4,10.2,4.9,6.4s-.5-9.2-4.9-6.4Z"/>
  <path class="st2" d="M405.3,164.8c9.8-2.5,9.2,13.5,1.5,14.1s-9.7-.5-9.3-4.3c.5-5.8,4.9-10.9,1.8-17.8l6.6.9-.6,7.1ZM408.3,167.8c-4.9-2.2-8.1,6.9-4.5,8s5.2-5.3,4.5-8Z"/>
  <path class="st2" d="M380.3,152.8c.4,4-1.6,7.1-2,11-3.5-.3-6.4-1-10-1-2.8-2.9-3.2-4-2-8,3.1-1.3,2.8-1.5,6-1s2.9,2.1,4,1,.3-2.9-2-3c-13.2-.5-1.6-7.3,4.6-2s1.1,2.6,1.4,3ZM375.3,156.8c-.5-.5-6.6-.3-6,2.5s8.6.1,6-2.5Z"/>
  <path class="st14" d="M425.3,179.8c-3.3-.9-11.4,2.1-12-2.5-.4-2.8,1.1-10,4.6-10.5,7.6-1,7.5,3.8,7.4,9s0,2.7,0,4Z"/>
  <path class="st2" d="M382.3,153.8c4.5-1.3,1.6-5.3,7-4-1.5,4.5,2.2,5.3,3,7s-.2,1.4,0,2c-2.9-2-8,2.5-6,5s4.2-1.5,3,3c-1.2,1.4,3.1,3.5-6,3s-.7,0-1,0c-3.3-5.4,2.6-11.3,0-16Z"/>
  <path class="st2" d="M356.3,150.8c3.3-1.1,8.5-.5,8,4-.3.4.7,2.7-.5,3.1s-6.9-.6-7.5,0c0,6.5,8.2-1.7,7,5-3.1,0-5.6.1-9,0-.2-2.4-1.5-4.5-1-7.5s2.7-4.4,3-4.5Z"/>
  <path class="st2" d="M338.3,175.8v8c-.3,0-3.7-.9-4-1l-.5-1-.5,1c-.7,0-1.3,0-2,0-.7-5.6-10.8-2.6-13.7-3.7s-2.4-1.1-1.3-2.3c4.4.9,9.2-.6,13.6,0s2,5.1,6.4-.9c.7,0,1.3,0,2,0Z"/>
  <path class="st2" d="M351.3,144.8c-.6,3,1.5,1.9,4,2,.1.6,0,1.4,0,2-6-.8-6.8,4-6,9,0,1-.3,1.4-1,2l-2-1c-1-2.7-1.3-3.9-1-7s.9-3.8,1-4c1.3-3.6,1.5-3,5-3Z"/>
  <path class="st9" d="M355.3,148.8c0,.6.8,1.4,1,2-.3.1-2.8,3.6-3,4.5-.5,2.9.8,5,1,7.5-1,0-2,0-3,0,.4-1.7-1.9-4.2-2-5-.8-5,0-9.8,6-9Z"/>
  <path class="st9" d="M382.3,153.8c2.6,4.7-3.3,10.6,0,16-1.2,0-2.7-.8-4-1-.1-1.4-.2-3.6,0-5,.4-3.9,2.4-7,2-11,.3.4,1.8.7,2,1Z"/>
  <path class="st8" d="M366.3,154.8c-1.2,4-.8,5.1,2,8-1.4,0-3.3,0-5,0,1.2-6.7-7,1.5-7-5,.6-.5,6,.5,7.5,0s.2-2.6.5-3.1,1.6.2,2,0Z"/>
  <path class="st9" d="M499.3,188.8c-7,1.9-13.7,4.4-21,5-.6-3,1.5-1.8,3.3-2.1,6.2-1.3,11.1-3.9,17.7-2.9Z"/>
  <path class="st5" d="M524.3,200.8c-.1-5.8-1-7.3,0-14,1.7,3.7,1.7,10.3,0,14Z"/>
  <path class="st9" d="M429.3,182.8c2.3-.2,4.7.2,7,0-.6,5.5-6.8,2.5-10,1,1.2-1.3,1.5-.9,3-1Z"/>
  <path class="st9" d="M435.3,189.8c.2.2.3,2.6,4,3-3.9-.5-7.2-1.3-11-2v-2c1.4.4,6.7.8,7,1Z"/>
  <path class="st9" d="M346.3,147.8c0,.2-1,3.8-1,4h-4c0-.7,0-1.3,0-2,2,.4,3.1-.2,4-2h1Z"/>
  <path class="st9" d="M427.3,175.8c-.1,2.1.5,4,1,6-1.8-.8-2.8-2-3-2,0-1.3,0-2.7,0-4h2Z"/>
  <path class="st9" d="M375.3,136.8c1,.6,3,1.7,4,2-3-.5-8.9,1.7-8-2,1.3,0,2.7,0,4,0Z"/>
  <path class="st8" d="M374.3,151.8c2.3,0,3.2,1.8,2,3s-3.5-.9-4-1l2-2Z"/>
  <path class="st9" d="M351.3,144.8c.9,0,3.8-.2,4,0s-.1,1.4,0,2c-2.5-.1-4.6,1-4-2Z"/>
  <path class="st9" d="M360.3,135.8c-1.5,1.7-6.4,1.7-8,0,2.6-.1,5.4,0,8,0Z"/>
  <path class="st9" d="M438.3,169.8c1,.2,3.1-.5,3.9.1s0,1.5.1,1.9c-1.7.2-3.5-.2-4-2Z"/>
  <path class="st9" d="M395.3,142.8c-1.9.7-2.9-.6-4-1,1.8-.8,3.3.8,4,1Z"/>
  <path class="st8" d="M271.3,193.8c-.3,1.5-3.6,1.6-4,0h4Z"/>
  <path class="st9" d="M387.3,140.8c-1-.2-2.5.4-3-1,.9.3,2.3-.3,3,1Z"/>
  <path class="st5" d="M524.3,184.8l1-1c0,1.2-1,.9-1,1Z"/>
  <path class="st4" d="M454.3,194.8c.3,0,.7,0,1,0l-.5,1-.5-1Z"/>
  <path class="st3" d="M386.3,212.8c-.5.5-3.9,1.2-4.1,3.5-.3,4.9,3.5.4,3,4.5-2.6.4-5.9-.5-8.3,0s-.5,3.4-4.4,1.7-1.9-2.9-2.6-3.4c-1.8-1.2-10.1-3.6-11.4-4.6s-.2-1.7-.2-1.7h-14c-.9-8.5,1.2-19.3,0-27.6s-3-5-2.1-8.4h30c0,0-.3,1.3.2,1.7,3.4,2.5,13.1,2.4,18.9,4.4,11.6,3.9,24.1,9.8,38.4,11.8,2.7.4,5.7,0,8.5,0-1,3.4,5.8,1.9,9,2s3.3,0,5,0c.8,6.3-1.4,3.1-5.3,4s-.6,1.8-1.4,2c-7.7,1.9-27.2.7-36.9,1.9s-10.3,3.9-11.1,4.1c-2.5.6-6.3-.6-8.7,0s-.4,1.8-.6,2c-.6.7-1.3,1.4-2,2Z"/>
  <path class="st7" d="M391.3,210.8c7,0,15.7-1.6,22.8-2.7s15-4.1,23.6-3.3,3.5,2,4.9,1.8,4.3-2.8,6.4-3.6c7.2-2.5,14.2-3.3,21.7-1.2s5.9,3.6,9.6,4.9c.3-1.5.4-5.2,1.6-6.1,2-1.5,16.3-2.3,19.1-1.2,4.2,1.8,3.8,6.6,4.4,7.1s3.6-.1,4.9.1.7,0,1,0c1.8,8.2.4,17.9,5,25,.2,2.3,0,4.7,0,7-2,4.2-6,9.6-10.7,10.8s-16.5.5-17.3,1.2c-2.5,2.4,3.8,4,4.3,5.2,1.2,2.6,2.5,13.5,2.7,16.8s0,.7,0,1c-7.7,1.1-15.3,3-23,4s-1.3-.2-3,0-3.6.9-5,1c-2,.1-4,0-6,0l-2-4c1.3-.3,2.8,0,4-1,1.5,2.2,2.9,2.4,5.5,3l.5-2c4.9.7,11-.5,16,0,.7-4-3.6-1-5.5-1.1s-1.3-.9-1.5-.9c2.7-2.3,14.9-.2,14.9-4.4s-1.2-7.1-1.5-7.6c-.6-1-2.7-1.4-3.6-2.4-3-3.9-4.5-32.9-6.4-40.6s-1.3-3.9-3.5-7,.3-1.2-.2-1.8-1.6-.1-1.8-.2c-9.7-7.4-20.8-3.9-30,3-.7,0-1.3,0-2,0-4-4.3-12.9-2.8-17.8-1.3-3,.9-6.8,4-8.7,4.4s-.8-2-2.9-2.2-4.5.5-6.5,1.1c-2-1.6-10.2-2.2-9,1-.3,0-.7,0-1,0-1.7-.2-3,0-4,1.5l1,.5c-.4,1.3.2,4.3,0,6-.2,2.7.6,5-2,6-3.3-1.8-11.8,1.5-15,2s-5.5-.3-8,0c-.2-1.2-.9-1.6-1-2-.4-1.2-.5-1.1-1-2s.3-1.1-.2-1.7c-4-4.6-15.7-5.7-20.8-3.3s-1.4.3-2,1c-2.4-.2-3.4.6-5,2s-1.4,1.3-2,2c-8.6-1.5-14.1-3.3-23-.5s-15.7,3-26,4.5-5.2-1.2-5,1.5c.3,4.3.6,10.5,6,10.5.2,1.5.7,3.4,1,5s0,2.2,1,3c-.3,2.8.7,6.1,1,9,.6,6.3,1.6,12.8,3,19,0,2.7,0,5.3,0,8-.8.9-3.8.5-4.1,1.6s.8,9.1,1.1,9.4,4.6-.2,6,0,1.1,1,2.4,1c4.8.3,9.8-.3,14.6,0,.6-1.6-.8-2.3-1-3s.1-1.4,0-2c1-.2,3.7.3,4,0s0-3,0-4l1-1c1.5.5,1.3,4.1.9,5.4s-3.1.9-2.9,2.6c2.3,0,4.7,0,7,0v1c-5.1.6-11,1.7-16,3-.7,0-1.3,0-2,0-3,.1-6.6,0-9,2-1.9,0-3.9.9-6,0-.5-.3-2.8.7-3.1-.5s.3-3.3,0-4.9c-.4-2.8-2.7-10.8-1.5-12.5s2.8-1.1,3.4-2.7c.8-2.3-3.4-33.8-4.8-34.9s-3.7-.5-5-1.5c-.3-3.1-.6-5.9-1-9-.1-1.9.8-4.9-1-6,0-.6,0-1.3,0-2,3.2-4.1,11-1.5,15-4,1,0,2,0,3,0s3.3.5,4-1c.7,0,1.3,0,2,0s1.3,0,2,0c6.9-.7,13.3-3.9,19.5-4s5.9,3,13.5,0,1.6-.9,2-1c1-.3,2-.7,3-1,8.3-2.3,21.3-3,27.5,4s3,5.8,4,6,5.9-2.7,9.4-3,4.7.2,7,0c1.3-5.9-4.3-11.7,3-14ZM483.3,203.8c-.3.9-1.3,8.7-1,9h5c0,.4.8,1.4,1,2-3.3,2.2-4,10-1.9,13.4,3.4,5.5,13.1,3.1,15.7,4.8s.7,7.1-4.3,6.8c-3.7-.2-5.9-3.9-6.3-4-7.4-1.7-3.7,5.9-3.3,11,2.2.6,4-1.5,5.6-1.7s5.4,1.2,8.8.6c6.4-.9,11.1-7.8,9.1-14-2.8-8.9-18.5-5.5-18.6-10.4,1.5-6.7,12.8,1.7,15-.5-.2-5.2,1.9-9.6-5-9-.7-.4-2.5-2-3-2,1.1-1.9,1.9-4.3,0-6s-3.8-1.3-5-1v-1c-2.6-2.2-10.7-1.5-12,2Z"/>
  <path class="st4" d="M507.3,190.8c-.6-3.2,1.7-1.7,3.5-2s4.9-1.4,7.1-2.4.9-2.9,4.3-1.7c0,39.5,0,79,0,118.5,0,3-1,6-1,9.5,0,11.6-.3,29,1,40v99.6c-.3,1.5,1.8,1.3,2,2.1.5,2.1-1.6,7,2,6.3.3,2,.2,3.9,1,6-1.6,1.4-.6,4.4-3,5-2.7-2.8-5.6-5.2-7-9s.4-2.4,0-2.9-1.8.1-1.9,0,0-2.3,0-3,0-1.3,0-2c1.9-29.6-1.9-58.1-1-88s.3-5.8,0-10,0-4,0-6c1.3-2.5,1.3-7.7,0-10,4.1.3,2.5.1,3-2.5s1.4-10.8,1.1-12.9-1.9-.2-2.1-2.1c-1.6-12.1.4-23.6-1.8-37.1s-.7-21.4-2.1-30.9-1.8-6.3-3.9-5.6c4-2.5,8.5-3.6,8.7-9.7s-.7-1.2-.7-1.3c0-2.3.2-4.7,0-7-.3-5.2-1.9-6.9-2.1-8.4-.5-4.2,2.1-15.3-2.9-16.6s-.7,0-1,0c.5-4.4-3.7.5-4-4,4.5-1.8,6.2,2,6.6,2.1,4.7.3,4.3-9.9,3.2-11.8s-6.6-2.2-8.8-2.2Z"/>
  <path class="st3" d="M507.3,190.8c2.2,0,7.6,0,8.8,2.2s1.5,12.1-3.2,11.8-2.1-3.9-6.6-2.1c0-1,.2-3.8,0-4-.3-.3-2.3.3-3.2,0s-.8-1.8-1.5-1.9c-4.6-1.1-10.9,2.9-9.3-4,.4-.4,6.9.3,8.6,0s.7-2.1,6.4-2.1Z"/>
  <path class="st6" d="M338.3,182.8c2.6-.7,1.7,1.7,2,2s1.7-.5,2,.7c1.6,6.2-1,20.5-.1,27.9s5.3,0-1.9,4.4c-1,.3-2,.7-3,1-.5-1.6-1.5-1.8-3-2s-4.1,0-6,0c1.2-4,11-1,12-2v-30c-1,.3-1.7-.9-2-1v-1Z"/>
  <path class="st5" d="M391.3,210.8c-7.3,2.3-1.7,8.1-3,14-2.3.2-4.7-.2-7,0,.6-2.7,4.1-1.3,5.1-2.6,1.5-1.9-.8-6.9-.1-9.4.7-.6,1.4-1.3,2-2,1,0,2,0,3,0Z"/>
  <path class="st4" d="M438.3,194.8c3.6.1,7.3-.1,11,0v1s-2,1-2,1c-3.2-.1-10,1.4-9-2Z"/>
  <path class="st4" d="M459.3,194.8c5.1.2,10.4-.2,15.5,0s3.7-.8,3.5,1c-4.8-.1-9.7.2-14.5,0s-4.1.7-4.5-1Z"/>
  <path class="st6" d="M469.3,494.8c5.2,1,8.4.6,13.5,1,12.7,1.1,27.2,3.9,40,3,2.8-.2,1-2.5,1.5-4,.7,0,1.3,0,2,0-.6,4.1,7.4,2,10,2,0,1,0,2,0,3-2.6-.7-4.2,2.9-4.7,3-1.3.3-3.5-.4-4.2.2s0,2-.6,2.8c-.9,1.2-2.9.9-3.9,2.1s-.7,3.1-1.9,4.1c-2.4,2-5.5-.9-5.6,2.9-3,.6-4.7-1.7-7.4-2.1-10.9-1.5-22.5,1.7-33,2.1-16.3.5-32.8-.4-49.1,0-1.9,0-3.9-.5-5.5,1-2,0-4,0-6,0s-3.3,0-5,0c-20,0-40.1-.4-60,0l3-5-23-1,1-4c-10.5-.2-21.1-.5-31.5-1-5.1-.2-12.8-2.2-17.9-1.1s-.2,2.3-.7,2.9-4.5-.4-2.8,2.2,1.4-.4,1.9.8.3,3.8,1,5.3c-.2.2.5,3.3-4,2,0-8.5-6.6-6.3-6-14,.5-.5,13.1.4,13-5,8.6,1.8,29.2,1.4,38.5,1s4,1,3.5-2c13.3.4,28.2.5,41.5,0s4,1,3.5-2c6.7.2,14.3.3,21,0-.6,3,1.5,1.9,3.5,2,12,.4,24.1-.3,36.1,0l-.5-1c12-.3,27.3-3.1,39-1ZM400.3,512.8c.4-.9-.8-3-1.5-3h-24.5v2c1.9-.8,4.6,1,5.5,1h20.5Z"/>
  <path class="st13" d="M280.3,514.8c-.7-1.5-.5-4-1-5.3s-1.9-.7-1.9-.8c-1.7-2.6,2.3-1.6,2.8-2.2s-.3-2.7.7-2.9c5.1-1.1,12.8.9,17.9,1.1,10.5.5,21.1.7,31.5,1l-1,4,23,1-3,5c-2.3,0-4.7,0-7,0l-23.3-2c-1.2-2.5-8.8-2.8-12.1-3-6.1-.3-12.4.3-18.5,0v3s7,1,7,1c-2.6.4-6-.5-8.3,0s-.7,2-1.2,2c-2.2.3-4.4-2.8-5.5-2.1Z"/>
  <path class="st14" d="M515.3,514.8c0,.7,0,1.3,0,2-30-1.9-64.6-.9-95-1,1.6-1.5,3.6-1,5.5-1,16.3-.4,32.8.6,49.1,0,10.5-.4,22.2-3.6,33-2.1s4.4,2.7,7.4,2.1Z"/>
  <path class="st0" d="M536.3,499.8c0,3.2.4,6.9,0,10-5.1.6-8.3,2.7-9,8-4.7.3-8.1-.8-12-1,0-.7,0-1.3,0-2,.1-3.8,3.2-.9,5.6-2.9s1.1-3.2,1.9-4.1,3.1-.9,3.9-2.1.3-2.5.6-2.8c.6-.6,2.9.1,4.2-.2s2.1-3.7,4.7-3Z"/>
  <path class="st14" d="M536.3,509.8c-.8,7.1-2.6,7.7-9,8,.7-5.3,3.9-7.4,9-8Z"/>
  <path class="st14" d="M414.3,515.8c-.7,1.6-4.3,1.6-5,0,1.7,0,3.3,0,5,0Z"/>
  <path class="st5" d="M278.3,245.8c1.3,1,4,.7,5,1.5s5.6,32.6,4.8,34.9-2.7,1.7-3.4,2.7c-1.1,1.7,1.1,9.7,1.5,12.5s-.4,3.8,0,4.9,2.6.2,3.1.5-.4,1.7.7,2,3.8-.4,4.3,0c1.1,1,1.1,15.7,1,18.4-.7,25-1.5,50.1-3,75s-.5,31.8,4.3,47.7,6.7,19,18.3,27.8c.9.7,1.2,2.5,1.7,2.8,1.9,1.1,19.2,1.7,20.8,3.2s-.1,1.8-1.5,2c-3.8.5-24.5.2-25.5,1-2.1,1.8,4,2.2,2,4s-5.4-1.1-5,3c-1.7,0-3.4-.8-5-1s-1.8,0-2,0c-6.3-.5-14.3,0-20.5-1s-1.7-1-2.5-2c.7-.4,1.4-.6,2-1,3.8-2.2,3.2-4.4,3-8.5-.6-15.4-6.6-32.5-7-48s1.6-36.6,2-54.1c1-41.1,4.3-88.6,1-128.5Z"/>
  <path class="st15" d="M267.3,276.8c-2.2-25.6-.5-51.5-1-77.3.7-.4,2.4-2.8,2.6-2.8,10.9-.9.3,18.9,9.4,20-.3,2.6.5,5.9,0,8.3s-1.8-.4-2,3.7,0,1.4,0,2c.2,2.6.8,4.2,1,6,.4,3.1.7,5.9,1,9,3.3,39.9,0,87.4-1,128.5-.4,17.5-2.5,37-2,54.1s6.4,32.6,7,48,.9,6.2-3,8.5c1.5-5.1-2.2-8.6-2.9-12.6-2.4-13.3-1.2-30.2-3.1-43.9s-2.5-4.9-2.9-7.1.5-6.4,0-8.8-2.2-1.2-3-1.7-.6-.8-1-1c0-2.8,1-5.9,1-7v-1c0-1.3,0-2.7,0-4l8-105.5c.4-1.2-.4-2.1-1.5-1.5-2.1,1.1-2.4,10.3-2.5,13h-3c-1.4-1.3,2.1-23.4-1-27Z"/>
  <path class="st4" d="M258.3,471.8c6.3-.8,6.5-17.7,8-19,.9,0,3.6.7,3.8,1.2,1.4,2.4-1.1,17.1.3,21.2s3.5,2,4.3,3.7c1.2,2.4,0,4,2.5,7s.5,1.7,2.5,2c6.2,1,14.2.5,20.5,1l1.5,1,.5-1c1.6.2,3.3,1.1,5,1l25,4c-.1,0-1.1,1-2.4,1-7,0-15-1-21.6,1-12-.9-25.3-3.8-37-4-2.6-1.3-4.1-6-6.7-6.8s-6.2-1.4-5.3,1.8c-1,0-4.7-.2-5,0-.9-4.2.9-6.5,2-10s1.4-2.9,2-5Z"/>
  <rect class="st4" x="266.3" y="445.8" width="2" height="5"/>
  <path class="st5" d="M267.3,410.8c.5,1.5-.7,2.2-1,3,0-1.3,0-2.7,0-4,.4.2.7.8,1,1Z"/>
  <path class="st8" d="M266.3,373.8c-1.5-.3-1.6-3.6,0-4,0,1.3.1,2.7,0,4Z"/>
  <path class="st0" d="M283.3,497.8c0,5.4-12.5,4.5-13,5-.6,7.7,5.9,5.5,6,14s0,1.3,0,2c-1.2,0-2.4-1-3-1,.8-9-10.6-8.6-13-16,5.1-1.9,9.1-2.6,14.5-3s1.1-2.4,1.5-4c3.2.4,5.4,2.7,7,3Z"/>
  <path class="st15" d="M286.3,216.8c2.7,0,5.3,0,8,0s1.3,0,2,0c2,0,4,0,6,0l.5,1,.5-1c.7,0,1.3,0,2,0-.6,3,1.5,1.9,3.5,2,2.8.1,9.7.5,11.9,0s.5-1.1.6-2c2,0,4,0,6,0s.7,0,1,0c1.9,0,4.2-.2,6,0l1,3c-7.5,2.9-6.8-.1-13.5,0s-12.7,3.4-19.5,4l-1.5-1-.5,1c-.7,0-1.3,0-2,0-1.3,0-3.3-.5-4,1-1,0-2,0-3,0-1.7,0-3.3,0-5,0-1-4,4.7-.2,4-3.5-1.1-5.1-6.1,0-6-4.5.7,0,1.3,0,2,0Z"/>
  <path class="st5" d="M284.3,216.8c-.2,4.5,4.9-.6,6,4.5s-5-.6-4,3.5c1.7,0,3.3,0,5,0-4,2.5-11.8-.1-15,4,.2-4.1,1.7-2.5,2-3.7.5-2.4-.3-5.7,0-8.3,1.8.2,4.1,0,6,0Z"/>
  <path class="st1" d="M363.3,492.8c-.9,3.2,4.1,1.9,7,2,.6,3-1.5,1.9-3.5,2-13.3.5-28.2.4-41.5,0-5.7-.2-11.3-.6-17-1,6.6-1.9,14.6-.9,21.6-1s2.3-1,2.4-1c12.1,0,18.7.6,31-1Z"/>
  <path class="st15" d="M271.3,491.8c-.5,0-2.7,1.4-5.5,1.1s-3.8-2.2-6.5-2.1c-.7-2.5,2.4-2,3-4-1,0-2,0-3,0-.9-3.2,4-2.2,5.3-1.8,2.6.8,4.1,5.5,6.7,6.8Z"/>
  <path class="st5" d="M518.3,472.8l-10.8-13.7-13.2-25.9c1.1-4,.6-8.1,1.9-12,.9-2.8,8.4-14.8,12-12.4s-.2,5.7,3.1,4.9c0,1,0,2,0,3,0,6-1.2,12.9-1,19.5s-1,4,2,3.5c0,1.7,0,3.3,0,5-1.6.4-1.5,3.7,0,4,0,1,0,2,0,3,0,2.1.3,5.7,3,5,0,.7-.1,2.9,0,3,0,2.4-.7,3.5,2,3,1.4,3.8,4.3,6.2,7,9s7.6,7.9,12,9c.1,3.3,0,6.7,0,10h-4c.9,5.5-1.3,4-6,4s-1.3,0-2,0c-2.9-.1-5.6-1-8-1,0-3.2-3-3.7-5.5-4-25.2-2.9-56.1,3.8-82.1,1.1-14.7-1.3-29.7-1.5-44.5-2-.6-3,1.5-1.9,3.5-2,37.8-1.5,76.1,4.6,114.5,1,.3,0,.7,0,1,0,4.7-.5,9.2-.5,14-2s4.5-1.6,7.5-5,2.1-.9,2.3-1.2c2.3-3.8-2.1-2.4-2.8-2.8s-1.9-2.2-6-4Z"/>
  <path class="st13" d="M527.3,466.8c0,.1,1.3.7,1.7,1.7,2,4.2,1.9,6.7,7.3,8.3,0,1.3,0,2.7,0,4-4.4-1.1-8.8-5.7-12-9,2.4-.6,1.4-3.6,3-5Z"/>
  <path class="st13" d="M536.3,490.8c0,2,0,4,0,6-2.6,0-10.6,2.1-10-2,4.7,0,6.9,1.5,6-4h4Z"/>
  <path class="st5" d="M267.3,402.8c0-.3,0-.7,0-1v1Z"/>
  <path class="st7" d="M341.3,148.8c0,.3,0,.7,0,1,0,.7,0,1.3,0,2h4c-.3,3.1,0,4.3,1,7s-.1,1.4,0,2c1.9.6,1.7-.7,2-1,.7-.6,1.1-1,1-2,.1.8,2.4,3.3,2,5-.1,0-.7.9-1.5.9-5.1-.2-8.7-.9-7.6-6.9-3.1-.7-1.9,2-2,4-4.5,0-3.1-8.4-3-12h4Z"/>
  <path class="st7" d="M363.3,162.8c1.7,0,3.6,0,5,0,3.6,0,6.5.7,10,1-.2,1.4-.1,3.6,0,5,1.3.2,2.8.9,4,1s.7,0,1,0c.7,3.2-3.6,3-4.9,1.8s0-2-.1-2.8c-4.3-.7-8-3-8.5-3.1-4.1-.5-10.8,1.2-15.1,2,0-1.1-.3-2-.5-3l1-.5-1-.5c0-.3,0-.7,0-1,3.4.1,5.9,0,9,0Z"/>
  <path class="st7" d="M392.3,158.8c2.8,10.2-1.7,6.5-3,8,1.2-4.5-2.7-2.6-3-3-2-2.5,3.1-7,6-5Z"/>
  <path class="st7" d="M329.3,164.8c3.6.3,7.4-.2,11,0,0,1,0,2,0,3l-14-1c-.6-1.5.9-2.4,1-3,.3,1,1.2.9,2,1Z"/>
  <path class="st9" d="M328.3,150.8c-1.2-1.8.9-6.3,4-5-.5,2.4.7,14.1,0,15s-1.6,0-2,0c-.4-2.7.7-6.9,0-9.4s-2-.6-2-.6Z"/>
  <path class="st9" d="M325.3,144.8c.2,2.8-1.2,6.8,2,6,1,2.4-2.9,2.7-3.9,1.9s-1.3-6.5-1.1-7.9c1,0,2,0,3,0Z"/>
  <path class="st9" d="M329.3,160.8v4c-.8,0-1.7,0-2-1,.7-2.7-1.5-2.4,2-3Z"/>
  <path class="st7" d="M290.3,153.8c-1.3,2-3.5,1.1-5,1l5-1Z"/>
  <path class="st9" d="M354.3,164.8c-.2-1.1,0-1,0-1l1,.5-1,.5Z"/>
  <path class="st1" d="M300.3,133.8c-.5-.9-5.3-4-4-5,2.8,0,4.6,1,5.5-2,3.3,0,2.5,5,2.5,7-.7,0-1.3,0-2,0s-1.3,0-2,0Z"/>
  <path class="st12" d="M331.3,182.8c.7,0,1.3,0,2,0s.7,0,1,0,3.7.9,4,1,1,1.3,2,1v30c-1,1-10.8-2-12,2-.3,0-.7,0-1,0,.9-3.1-3.2-1.9-6-2s-11.2.6-12.1-.6c-4.7-6.5,4-6.8,8.1-7.4s2,.1,3,0c1.5-.2,2.8-1,3-1,.7,0,1.3,0,2,0s.7,0,1,0,1.9.9,3,1,.7,0,1,0c2.1.1,4.3,0,6.4,0,3-4.2-3.5-2.2-3.4-5.5s3-.3,4-2-4.9-1.4-4-4,4.9-.4,4-3.5c-2.3,0-4.7,0-7,0s-.7,0-1,0c-1,0-2,0-3,0s-.7,0-1,0c-1.3,0-2.7,0-4,0-.8-2.1-3.4-2.4-5.4-3-1.2,0-.3,1.4-.6,2s-1,.8-1,2l-4-1c1.9-4.3,1.5-2.4,4.6-4.4s.6-1.5,1.6-1.9c2.3-.9,4.1-.5,6.3-.7s4,1.2,3.5-2c1.7,0,3.3-.1,5,0Z"/>
  <path class="st2" d="M282.3,190.8c1.7-2.7-.7-5.5.9-6.5s10.3.2,14.1-.9,4-4.6,5.2-5.2,12.8-2.7,9.7.6-8.8-.1-10,4c8,.2,16-.2,24,0,.6,3.2-1.6,1.8-3.5,2s-4-.2-6.3.7-1.1,1.6-1.6,1.9c-3.1,2-2.8,0-4.6,4.4s-.9.5-1,1h-3c-1,0-2,0-3,0-3-.3-4.2,0-6,0s-1.3,0-2,0c-1,0-4-.8-6-1s-2,0-3,0-2.7-.8-4-1Z"/>
  <path class="st2" d="M317.3,197.8v9c-4.1.7-12.8.9-8.1,7.4s9.8.5,12.1.6c0,.7,0,1.3,0,2-5.3,0-10.7,0-16,0s-1.3,0-2,0-.7,0-1,0c-2,0-4,0-6,0,.5-2.9-.7-1.8-3-2s-2.8.3-4.2,0c-3.1-.7-4.7-9.3.2-9s1-.6,2.5-1c3.4-1,1.5,2.9,4.5,2,.2-.6-.2-1.7,0-2s.8,0,1,0c1.6.3,3.2,3.5,6.4,1.1s.6-3.7.6-5.1c.6,0,1.4-.1,2,0,.2,1.8-.6,5.1,1.5,6,3.3,1.3,2.3-1.8,2.7-4.3l.8-.7c.5,1.8,1.3,5.4,3,4s1-6.4,1-8h2Z"/>
  <path class="st9" d="M286.3,191.8c.6,6,3.2,15.8-6,15,.4-4.3-.6-9.4,0-13.5s1.7-1.8,2.1-2.5c1.3.2,2.7.9,4,1Z"/>
  <path class="st9" d="M295.3,192.8c2.5,3.8-1.8,8,1,12-.2.3.2,1.4,0,2-3,.8-1.1-3-4.5-2s1.5,1.3-2.5,1v-14c2,.2,5,.9,6,1Z"/>
  <path class="st2" d="M297.3,176.8l-12,5c-.8-1.7,4.1-4.6,4.7-4.8,2.3-.7,4.9,0,7.3-.2Z"/>
  <path class="st13" d="M293.3,214.8c2.3.2,3.5-.9,3,2-.7,0-1.3,0-2,0l-1-2Z"/>
  <path class="st9" d="M337.3,148.8c0-2.7-.4-4.1,3.5-3s.3,2,.5,3h-4Z"/>
  <path class="st9" d="M432.4,172.9c4.4-2.7,8.3,4,4.9,6.4-5.3,3.7-7.9-4.6-4.9-6.4Z"/>
  <path class="st9" d="M408.3,167.8c.7,2.7-.4,9.2-4.5,8s-.5-10.2,4.5-8Z"/>
  <path class="st9" d="M375.3,156.8c2.6,2.6-5.1,6.3-6,2.5s5.5-3,6-2.5Z"/>
  <path class="st14" d="M334.3,182.8c-.3,0-.7,0-1,0l.5-1,.5,1Z"/>
  <path class="st9" d="M348.3,159.8c-.3.3,0,1.6-2,1-.1-.6.2-1.5,0-2l2,1Z"/>
  <path class="st15" d="M334.3,298.8c8.7.7,5,4.7,5,10.5s1.2,13.4.8,17.8-4.4,8.8-4.8,11.3c-.5,3.6-.5,17.3,0,20.9.9,7.5,5.4,7.3,9.1,10.9,19.4,19.5,27.9,23.4,52,35,1.2.6,5.6,2.9,6.3,3.5,1.5,1.3,1.3,3.6,1.8,3.9,1.8,1.2,6-2.1,4.9,3.1-1.1,0-2.5-.3-3,1-2.7.2-9.8,1.9-12,3-8,4.1-2.7,15.8,0,8.6s-.1-1.2,0-1.6c3-.4,3.8-3,6-3.6s6.5-.3,10-1.4c-.4,1.3-2.9,5.5-3.5,5.9-1.7,1.1-5.6,1.7-8.4,3.8s-4,4.8-4.3,5c-1.5.7-4.4-.6-3.7,1.8s6.2,6.5,6.7,6.5c1.1.1,2.6-1,3.7-.7,3.5.8,6.5,2.4,10.6,2.7s1.3,0,2,0c-.3,2.5-1.9,2.1-3,5s0,.9,0,1c0,.6-.1,1.5,0,2s-1,.3-.6,1,2.4,2,2.6,2l-2,3c.9.8,19.1.4,21.3,0,4-.8,2.2-8.7,2.8-11.2s1.5-.7,1.6-1c1.3-3.2,1.5-6.4,6.3-6.7v16.5c0,3.3,12,5.7,15,4.5-.2.1.5,3.3-4,2,0,1.1,0,2,.5,3,2,3.6,23.6,7.9,28.5,10.5,2.6,1.2,1.6,4.4,2.6,6.4,2.2,4.4,13.5,0,17.5,3-38.5,3.6-76.7-2.5-114.5-1-1.9,0-4-1-3.5,2-1.3,0-2.7,0-4,0s-1.3,0-2,0c-4-.2-8,.2-12,0-12.3-.6-31.4-1.2-43-3,.7-2.4-1.2-2.4-3.5-2.1s-1.1,1.1-1.5,2.1-1.6,1.3-1,3l50,2,3,1c-2.2.3-4.6.7-7,1-12.3,1.6-18.9.9-31,1l-25-4c-.4-4.1,4.5-2.6,5-3,2-1.8-4.1-2.2-2-4s21.7-.5,25.5-1,3-.6,1.5-2-18.9-2.1-20.8-3.2-.7-2.1-1.7-2.8c-11.6-8.8-14-13.4-18.3-27.8s-5.2-31.7-4.3-47.7c1.5-24.9,2.3-50,3-75s.1-17.4-1-18.4-3.1.3-4.3,0-.6-2-.7-2c2.1.9,4.1,0,6,0,3.1,0,10,1.3,9-2,.7,0,1.3,0,2,0,8.8-.3,20.6-2.6,28-2ZM326.3,404.8c-.2.3-3.4-.9-1.9,5.3s3.7,2.5,3.9,2.7c1.4,1.4.4,3.1,4,4,.1,2.8,4.4,4.5,5.7,6.3s0,2.4.7,3.3c1.5,2.3,3.3,1.9,5.3,2.7s.4,1.5,1,1.6c2.5.6,20.7.5,23.9.1s1.3-1.9,2.1-2.1c2.2-.5,5,.3,7.3,0,2-3.7-3.7-5.4-4-6.7-.7-3.2.7-7.6,0-10.6s-1.5-.7-1.6-1c-.5-1.2-.2-2.6-.7-3.4s-3.7-3.9-3.9-4c-2.4-.9-11.3.2-11.7-.3s1-3.7-2.9-5.8-7.1-2.2-12.1-2.1-11.8,0-14.5,6-.3,3.7-.5,4ZM378.3,436.8c-4.5-1.3-4.2-2.6-10-1.5s-17,7.6-18.6,10.9-5.2,14.5-5.3,15.3c-.1,1.8.9,6.3,2,7.4-4.4-.4-.7,4.1,0,5.2,2.3,3.3,4.3,4.4,7.9,4.8.5.7,2.3,4.9,2.6,5.1,1.7,1.2,22.6,1.4,26,1s1.3-1.9,2.1-2.1c3.5-.8,9.2.8,12.6,0s.6-1.8,1.4-2c3.1-.7,5.7.4,8.4-3.4,3.5-4.9,0-7.5-4.6-8.5s-4.2.4-5.8,0-.5-3.4-2.6-1.9.5,2.6-2.1,1.9c.4-4.7,1.9-3.9,2.1-5.4s.3-8.4-.1-9.9-3.9-7.7-4.3-8.4-7.4-7.8-8-8c-1.5-.6-2.9,0-3.7-.3Z"/>
  <path class="st12" d="M443.3,211.8c.8,0,3.7,1.9,6.4,1.1s.4-2.8,1.5-3.6,12.3-2.9,14.4-2.4.6,1.8,1.4,2c1.9.5,4.3-.2,6.3,0,.2.1,1.2-.3,1.8.2s.1,1.6.2,1.8c-3.5,3.3.9,5.3,1,5.7,2.4,9.7.3,20.4,2.1,27.6.1.6,3.8,8.8,4,9.4.5,2.2-.7,5,.5,7.3s5.1,1.7,5.5,2,.3,5.7,0,6c-1.9,1.9-3.3-2-3.5-2-3-.7-2.2,1.8-3.2,2s-10.9.4-11.3,0,.4-7.4,0-9.3c-1.2-5.3-1-9.7-2-14s-1.8-.3-2.1-2.1c-1.3-9.8.9-9.6-3.8-19.4s.2-2.2-.3-2.9-1.6-.1-1.8-.2.5-1.7-.7-2-6.5-.3-7.9,0-1.1,1.5-2.2,2-3-.6-3.3.6c-.4,2.2-.2,9.4,0,11.9.7,6.1,1.1,12.9,1.9,19.1s1.9,1.3,2.1,2.1c.5,2.3-.4,5.2,0,7.6s7.3,3.6,3,10.7c1.7-.1,3.2-.9,5-1s.7,0,1,0c.4.6.6,1.4,1,2-1.2,1-2.7.7-4,1-2.4.5-4.8,1-7,2-3.9-.8-7.1-.7-11,0-.2-5.2,3.8-5-.4-9.7s-1.5-.2-1.6-.3-.3-1.6-1-2c0-.7,0-1.4,0-2,2,0,.5-11.8,1.1-13.6-4.5-4.2-.8-12.3-2.1-17.8s-1.9-.6-2-1.3c-.2-1.7,1.1-5.7-2.3-7.1s-3.5,1.5-3.8,1.7c-.4.2-3-.1-4,0s-1.4,0-2,0c-1,.2-1.5-.3-2,1s0,.6,0,1h-1c-.8,1.6-2.8,1.5-3.1,3.5-.8,5.8,1.9,5.5,2,6.2.6,2.4-.3,5.8,0,8.3-2.4,1-2.1-1.6-3-2s-.6,0-1,0c.7-4.1-6.5-.9-7.9-2.1s-1.6-8.9-2.1-10.4-3,.4-4,.5c-.2-.5-.9-1.9-1-2,4.6.8-1.1-4.7-4-4,0-.5,0-1.9,0-2,.1-.1,1.4.3,1.8-.2,1-1.1-.4-5,.3-5.8s3.8,1,2.9-2.1c1.6-.1,3.4,0,5,0,5.1.2,7.9,2.6,11.6,2.1s1.3-1.9,2.1-2.1c2.4-.5,5.5,1.2,8.5,0,4.3-1.8,10.5-2.8,15.8-2.9s1.3,0,2,0ZM446.3,272.8c-.7,0-1.3,0-2,0-.3,2.1,0,2.3,2,2,0-.7,0-1.3,0-2,2.5-.1,4.7,1,4-2h-4c0,.7,0,1.3,0,2Z"/>
  <path class="st3" d="M508.3,249.8c2.1-.8,3.8,4.7,3.9,5.6,1.4,9.5.4,20,2.1,30.9s.2,25,1.8,37.1,2,1.3,2.1,2.1c.3,2-.6,10.5-1.1,12.9s1.1,2.8-3,2.5c-.4-.6-3-1.9-4-2-1.6-6.4-10-9.5-16-10,0-1,.2-2.1,0-3,5.1-2.9.1-5.3,0-5.7-.6-2.5.6-6.3,0-8.7s-2-.6-2-.7c-.7-1.1-1.8-5.5-2.2-5.8s-1.5,0-1.8-.2c-.7-2.4-1-4.7-2.1-7.2s-6.5-11.4-8.2-12.5-6.3-2-7.4-2.7-2.9-2.5-2.3-3.7h14c.1,0-.4-1.7.7-2,4-1.1,11.4,2.6,12.3-3s0-.7,0-1c.4-.2.7-.9,1-1,1.2-.4,1.7,1,2.1-1.5s.4-4.2-2.1-3.5c0-2.7.5-7.1,0-9.3s-4-.6-1-4.7c1.3,0,2.7,0,4,0,1.9,0,4.6.3,6.3,0s1.5-2.2,2.7-3Z"/>
  <path class="st12" d="M344.3,221.8c3.9,2.3,9.1.4,13.4,1.1s4.9,3.1,7.6,3.9c.5.9.6.8,1,2v5c0,4,.1,8,0,12s0,5.3,0,8c0,5.3-1.3,6.6,0,13s-.3,2.3,0,3.3,1.9.6,2,.7-.3,1.3.2,1.8c.8.7,2.3,0,2.8.2s.9.7,1,1c.2.5-.5,2.1.2,2.8s4.8,1.8,5.8,4.2h1c0,.3,0,.7,0,1s0,.7,0,1c-2.9-1-2.6,1.9-4.4,2.1s-15.7.7-17.6,0c0-1,0-2,0-3,.2-2.4,1.8-4.7,1-8.5s-2-2.8-2-3v-15c0-.2-1.7-2.3-2-4-.5-3.1.6-7,0-9.7s-3-4.4-4-3.7c0-.3.1-.8,0-1,0-1.7.4-2.3-1.5-2l-.5,1c-1.4-.3-5.4-.2-7,0l-.5-1-.5,1c-.5.1-.7.8-1,1s-.7.7-1,1-.9.7-1,1c-.8,1.5,0,.9,0,1-.2.8.1,2,0,3-.2,1.9-3.3,6.6,1,6,.2,1.8.8,3.4,1,5-1.5.9-1.3,10.6-1,11s1.4,0,2,0c0,.3,0,.7,0,1,.2,3.7-.6,8.9,0,12.3s3.7,1.5,4,5.1c.8,8.9-2.2,4.3-4.1,5.6s.1,1.4,0,2c-.7,0-1.3,0-2,0,.9-3.9-5.2-1.2-6-2s.3-4.7-.2-6.3-3.4-2.1-3.8-3.4c-1.6-5.3.8-9.2-2.4-14.9s-1.6-.3-1.6-.3v-16c0-.1-1.7.4-2-.7-.4-1.5.4-5.9,0-6.4s-2.2.1-3,0-.7,0-1,0c1.7-5.5-3.9-6.1-4-6.5-1.4-4.3,3-4.7,5.2-5.6s.2-1.8,3.3-2,3.4,1.9,4.2,2.1,6.6.3,7.7,0,.4-1.8.6-2c.6-.7,1.3-1.4,2-2,6.1,1,4.2-1.1,5-2s1.4-.7,2-1Z"/>
  <path class="st2" d="M335.3,226.8c-.2.2.6,1.8-.6,2s-6.5.2-7.7,0,.2-2.3-4.2-2.1-2,1.5-3.3,2c-2.2.9-6.6,1.3-5.2,5.6s5.7,1,4,6.5c-4.9-.8-7.8-2.4-11,2s-1.2.3-1.5,1c-.5,1-1,10.8,2.5,10,.4,3.8,2.9,29.1,4.2,29.9,3.1,1.9,3.6-3.3,3.8,5.1s0,.7,0,1c0,1,.2,3.8,0,4s-3-.2-4,0c-2.2.4-8.6.7-9,1s.1,1.6,0,2c-2,.1-3.8.5-6,0s-2.3-1.5-3.9-1.1c-.2-3,0-6,0-8.9s0-5.3,0-8c0-6.7.4-8-1-15.5s1.3-4.1-2-3.5c-.3-2.9-1.3-6.2-1-9s3.2-3.4-1-3c-.3-1.6-.8-3.5-1-5-.4-3.5-.7-1.5-1-2.7-.6-2.5.4-6.6,0-9.3,10.3-1.5,16.3-1.3,26-4.5s14.3-1.1,23,.5Z"/>
  <path class="st2" d="M390.3,228.8c0,0-.2,1.2.3,1.6,2.8,2.2,4.4,2.7,4.7,6.9.6,8.2-10.6,12.5,3.9,16.5.2-6.7,4.4-6.2,10-6,1.5,5.9-1.3,5.2-2.9,7.6-4.5,6.8,4.4,5,4.9,5.4s.2,5.8,0,6c-2,1.9-16.1-2.3-18,4-1.2.2-2,.7-3,1s-2.4-.4-3,1c-1.7,0-4.5.3-6,0s-6.5-3-8-4.5c-8.6-8.5,2.3-17.2,2-18.9s-2.9-2.7-3.7-4.4c-3-5.9-.2-10,3.8-14.3,3.2-.5,11.7-3.8,15-2ZM387.1,235.9c-1.4-2.2-9.3-1.5-7.7,4.1s11.2,1.3,7.7-4.1ZM392.3,260.8c-.7-.9-10.7-6.8-11.9-6-2.7,6.2.1,11.1,7.2,9.8s6.2-2,4.7-3.8Z"/>
  <path class="st10" d="M460.3,220.8c2.3,1.4,5.8,46.9,8,53,2.2-1.3,4.6-1,7-1s.6.8,1.5.9c2,0,6.3-2.8,5.5,1.1-5-.5-11.1.7-16,0s-3.6-2.9-7-3-.7,0-1,0c.5-1.5-.7-2.2-1-3v-3c0-1.4-3-1.8-3.8-3.7s-5.4-32.7-5.3-35.8c.2-6.2,8.9-7.5,12.1-5.5Z"/>
  <path class="st2" d="M503.3,211.8c6.9-.6,4.8,3.8,5,9-2.2,2.2-13.6-6.2-15,.5,0,5,15.7,1.5,18.6,10.4s-2.7,13-9.1,14c-3.4.5-6.5-.9-8.8-.6s-3.4,2.3-5.6,1.7c-.4-5.1-4.2-12.7,3.3-11s2.6,3.7,6.3,4c5,.3,7-5.1,4.3-6.8s-12.3.8-15.7-4.8-1.4-11.2,1.9-13.4,12.2-2.8,15-3Z"/>
  <path class="st9" d="M393.3,222.8c0,0,0,1.5,0,2,.3,3.6,2.8,2.7,4,4s.8,1.5,1,2c2.1,4.1,2.2,8.7,1,13,4.4.7,8.6-1.5,13-1s.8,0,1,0l3,28-16,2c0-1,0-2,0-3-2.3.4-4.8.6-7,1,1.9-6.3,16-2.1,18-4s.2-5.8,0-6c-.5-.4-9.4,1.4-4.9-5.4,1.6-2.4,4.4-1.6,2.9-7.6-5.6-.2-9.8-.7-10,6-14.6-4-3.4-8.3-3.9-16.5s-1.9-4.7-4.7-6.9-.3-1.6-.3-1.6c2.6-1,1.8-3.3,2-6h1Z"/>
  <path class="st2" d="M475.3,272.8c-2.4,0-4.7-.3-7,1-2.2-6.1-5.8-51.6-8-53s-11.9-.6-12.1,5.5,4.3,33.5,5.3,35.8,3.8,2.3,3.8,3.7-1.3,0,0,3,1.5,1.5,1,3c-1.8,0-3.3.9-5,1,4.3-7.1-2.7-9.2-3-10.7-.5-2.4.5-5.3,0-7.6s-1.8-.3-2.1-2.1c-.8-6.2-1.1-13-1.9-19.1s-.5-9.7,0-11.9,2.3-.1,3.3-.6.4-1.8,2.2-2,6.7-.2,7.9,0,.5,1.9.7,2,1.4-.3,1.8.2,0,2.3.3,2.9c4.7,9.8,2.5,9.6,3.8,19.4s1.9,1.3,2.1,2.1c1,4.3.8,8.7,2,14,.4,1.9-.4,8.9,0,9.3s10.2.2,11.3,0,.2-2.7,3.2-2,1.6,3.9,3.5,2,.2-5.8,0-6c-.4-.4-4.2.6-5.5-2s0-5.1-.5-7.3-3.8-8.8-4-9.4c-1.7-7.2.3-18-2.1-27.6s-4.5-2.4-1-5.7c2.3,3.1,2.5,2.6,3.5,7,1.9,7.7,3.4,36.7,6.4,40.6s2.9,1.4,3.6,2.4,1.5,6.8,1.5,7.6c0,4.2-12.2,2.1-14.9,4.4Z"/>
  <path class="st9" d="M375.3,230.8c-3.9,4.3-6.7,8.4-3.8,14.3s3.6,3.5,3.7,4.4c.3,1.7-10.6,10.4-2,18.9s6.1,4.1,8,4.5c0,1.4-2.9,2.8-3,3l-6-2c-.1-.3-.7-.9-1-1-.2-1.6-2.9-1.9-3-2-.4-.6.3-3.7-2-4-1.3-6.4,0-7.7,0-13,3.6-2,3.7-5.9,0-8,.1-4,0-8,0-12,1.2-.4,1.2-2,1-3,2.5-.3,5.6.4,8,0Z"/>
  <path class="st13" d="M495.3,273.8c-.9,5.6-8.3,1.9-12.3,3s-.6,2-.7,2h-14c-.6,1.2,1.7,3.3,2.3,3.7,1,.6,6.5,2.1,7.4,2.7,1.7,1.2,7.3,10.6,8.2,12.5s1.4,4.7,2.1,7.2c.4.1,1.3-.4,1.8.2s1.5,4.8,2.2,5.8c0,1.3,0,2.7,0,4-.6,0-1.7.2-1.9,0-.4-.6-1.7-8.4-2.1-9.9-3.5-1.4-1.2-1.3-2.6-2.9s-3.1-2.7-4.4-4.1c-.1-1.3-.9-2.3-1-3-1-6.6-.9-6.3-8-8,.6-3.2-1.9-1.5-3.7-2.3s-4.4-4.6-4.3-5.7c1.4,0,3.3-.8,5-1h3c7.7-1,15.3-2.9,23-4Z"/>
  <path class="st13" d="M516.3,238.8c0,0,.7.5.7,1.3-.2,6.1-4.6,7.2-8.7,9.7s-2.1,2.8-2.7,3c-1.7.4-4.4,0-6.3,0,.7-3.5-2.5-2-4,0-3,4.1.8,3.8,1,4.7.5,2.2,0,6.7,0,9.3v5c-.3,0-.6.8-1,1-.1-3.3-1.5-14.2-2.7-16.8s-6.8-2.9-4.3-5.2,14.8-.6,17.3-1.2c4.8-1.2,8.7-6.5,10.7-10.8Z"/>
  <path class="st2" d="M441.3,211.8c-5.3.1-11.5,1.1-15.8,2.9-3,1.3-6.1-.4-8.5,0s-.2,1.8-2.1,2.1c-3.7.6-6.5-1.8-11.6-2.1.4-1,1.2-.8,2-1,2.1-.6,4.4-1.3,6.5-1.1s1,2.5,2.9,2.2,5.7-3.4,8.7-4.4c4.9-1.5,13.8-3,17.8,1.3Z"/>
  <path class="st2" d="M473.3,208.8c-2-.2-4.5.4-6.3,0s-.6-1.8-1.4-2c-2.1-.5-12.9,1.4-14.4,2.4s-.4,3.3-1.5,3.6c-2.7.8-5.6-1.1-6.4-1.1,9.2-6.9,20.3-10.4,30-3Z"/>
  <path class="st9" d="M495.3,202.8c-.2,0-1.8,1.6-2,2-4.2,7.1,4.9,4.8,7,5s2.3,1.6,3,2c-2.8.2-13.1,1.7-15,3-.2-.6-1-1.6-1-2,.2-2.7,3.9-6.6,3-10,1.7-.2,3.4.2,5-1v1Z"/>
  <path class="st2" d="M490.3,202.8c.9,3.4-2.8,7.3-3,10h-5c-.3-.3.7-8.1,1-9,.9-.1,2.2.2,3,0s.7-1,1-1c1-.1,2,.1,3,0Z"/>
  <path class="st14" d="M286.3,230.8c.4,2.8-.6,6.9,0,9.3s.6-.8,1,2.7c-5.5,0-5.7-6.2-6-10.5s3-1.2,5-1.5Z"/>
  <path class="st5" d="M331.3,296.8c1-.1,2,.1,3,0v2c-7.4-.6-19.2,1.7-28,2,5-1.3,10.9-2.4,16-3s4.9-.8,7-1,1.3,0,2,0Z"/>
  <path class="st6" d="M458.3,278.8c2,0,4,.1,6,0-.2,1.1,4,5.6,4.3,5.7,1.9.8,4.4-.9,3.7,2.3-1.7-.4-4.1,0-6-1-1-2-3.5-3.3-5.7-3.3l-4.3-3.7c.7,0,1.3,0,2,0Z"/>
  <path class="st14" d="M293.3,286.8c0,3-.1,6,0,8.9,1.6-.4,2.9.8,3.9,1.1l-1,1c-1.3-.2-5.7.3-6,0s-1.2-8.9-1.1-9.4c.3-1.1,3.3-.7,4.1-1.6Z"/>
  <path class="st13" d="M511.3,206.8c5,1.3,2.4,12.4,2.9,16.6s1.7,3.2,2.1,8.4c-4.6-7.1-3.2-16.8-5-25Z"/>
  <path class="st8" d="M500.3,209.8c-2.1-.2-11.2,2.1-7-5,2.9-.7,2,3.6,5,3-.3-1.9.2-3.2,2-4,1.9,1.7,1.1,4.1,0,6Z"/>
  <path class="st10" d="M309.3,295.8l.5,1,.5-1c.7,0,1.3,0,2,0,.2.7,1.6,1.4,1,3-4.8-.3-9.8.4-14.6,0s-2.1-1-2.4-1l1-1c2.2.5,4,.1,6,0s3.9-.7,6-1Z"/>
  <path class="st2" d="M344.3,221.8c5.1-2.4,16.8-1.4,20.8,3.3s.1,1.5.2,1.7c-2.6-.8-4.6-3.5-7.6-3.9-4.3-.7-9.5,1.2-13.4-1.1Z"/>
  <path class="st14" d="M290.3,259.8c3.3-.6,1.6,1.7,2,3.5,1.4,7.5,1.1,8.8,1,15.5-1.4-6.2-2.4-12.7-3-19Z"/>
  <path class="st2" d="M398.3,214.8c.9,3.1-2.3,1.5-2.9,2.1s.6,4.6-.3,5.8-1.7,0-1.8.2h-1c.2-1.7-.4-4.7,0-6s2.5-1.9,3-2,.7,0,1,0c.6,0,1.3,0,2,0Z"/>
  <path class="st9" d="M456.3,274.8l2,4c-.7,0-1.3,0-2,0-3.7-.4-5-1.6-7-2,2.2-1,4.6-1.5,7-2Z"/>
  <path class="st10" d="M495.3,201.8c-1.6,1.2-3.3.8-5,1s-2-.1-3,0l-1,1c-.8.2-2.1-.1-3,0,1.3-3.5,9.4-4.2,12-2Z"/>
  <path class="st14" d="M500.3,203.8c-1.8.8-2.3,2.1-2,4-3,.6-2.1-3.7-5-3,.2-.4,1.8-2,2-2,1.2-.3,4.1.2,5,1Z"/>
  <path class="st9" d="M459.3,271.8c3.4,0,3.9,2.6,7,3l-.5,2c-2.6-.6-3.9-.8-5.5-3s-.6-1.4-1-2Z"/>
  <path class="st9" d="M405.3,213.8c-.8.2-1.6,0-2,1-1.6,0-3.4-.1-5,0s-1.4,0-2,0c-1.2-3.2,7-2.6,9-1Z"/>
  <path class="st5" d="M304.3,300.8c1,3.3-5.9,1.9-9,2,2.4-2,6-1.9,9-2Z"/>
  <path class="st2" d="M342.3,222.8c-.8.9,1.1,3-5,2,1.6-1.4,2.6-2.2,5-2Z"/>
  <path class="st13" d="M337.3,218.8c-.4.1-1.2.7-2,1l-1-3c1.5.2,2.5.4,3,2Z"/>
  <path class="st5" d="M277.3,236.8c-.2-1.8-.8-3.4-1-6,1.8,1.1.9,4.1,1,6Z"/>
  <path class="st14" d="M288.3,247.8c4.2-.4,1,2.7,1,3-1-.8-.8-1.9-1-3Z"/>
  <path class="st2" d="M367.3,230.8c.2,1,.2,2.6-1,3v-5c.1.4.8.8,1,2Z"/>
  <path class="st5" d="M298.3,223.8c-.7,1.5-2.7,1-4,1,.7-1.5,2.7-1,4-1Z"/>
  <path class="st9" d="M395.3,214.8c-.5.1-2.9,1.6-3,2l-1-.5c1-1.4,2.3-1.7,4-1.5Z"/>
  <path class="st9" d="M472.3,277.8h-3c1.7-.2,2.8,0,3,0Z"/>
  <path class="st5" d="M302.3,223.8c-.7,0-1.3,0-2,0l.5-1,1.5,1Z"/>
  <path class="st3" d="M514.3,366.8c-.9,29.9,2.9,58.4,1,88-1.2-1.4-.6-3.7-3-3,0-1,0-2,0-3s0-2.9,0-4c0-1.7,0-3.3,0-5-.1-7.5.9-15.9-1-23,0-1,0-2,0-3,0-1.9-1-10.9-1.5-12-3.2-6.9-12,7.1-14.4,9.5s-3.9,2-5.6,3.4c-13,11.1-5.7,28.3-1.3,41.8,7.3,1.3,11.9,6.2,17.8,9.7s3.1.9,3,3.5c-8.6-.9-11,.5-12.6,9-1.6,8.7,7,2.1,6.6,9-.3,0-.7,0-1,0-4-3-15.3,1.4-17.5-3s0-5.3-2.6-6.4c-4.9-2.6-26.5-7-28.5-10.5s-.5-1.9-.5-3c4.5,1.3,3.8-1.9,4-2,.5-.3,8.5-.3,9-2.7s.3-15,0-16.8c-.7-3.3-3.4-2.9-3.8-3.7-.6-1.1,0-2.8-.2-4.1s-1.8-.7-2-1.4c-.4-1.7-.4-9.9-.1-11.9s1.9-1.3,2.1-2.1c.8-3.7,1.5-5.2,2-7,2.2-8.2,4.1-17.7,6-26,.9-4-.1-4.1,1.7-8.6s1.9-7,9.6-5.4,5.3,3.7,6.3,3.8c3.2.2,1.9-1.9,3.9-2.2s14.1.6,14.6,0-.3-2.3,0-3.2,1.6-.7,1.9-1.5c1.4-3.5-1.9-3.7,6-3.2Z"/>
  <path class="st13" d="M514.3,366.8c-7.9-.5-4.7-.3-6,3.2s-1.6.7-1.9,1.5.2,2.9,0,3.2c-.5.6-12.2-.4-14.6,0s-.7,2.4-3.9,2.2-3.8-3.3-6.3-3.8c-7.7-1.7-7.4,0-9.6,5.4s-.8,4.7-1.7,8.6c-1.9,8.2-3.8,17.7-6,26-.5,1.8-1.2,3.4-2,7s-1.8.2-2.1,2.1-.3,10.2.1,11.9,1.7.6,2,1.4c.3,1.2-.4,3,.2,4.1s3.1.4,3.8,3.7.4,15.2,0,16.8c-.6,2.4-8.5,2.4-9,2.7-3,1.2-15-1.2-15-4.5v-16.5c-4.8.3-5.1,3.5-6.3,6.7s-1.5.4-1.6,1c-.6,2.5,1.3,10.5-2.8,11.2s-20.4.8-21.3,0l2-3c1.5.4,11.1,1.2,12.5,1.1,7.5-.8,8.4-12.9,10.3-18.8s3.8-4,3.2-9.3c-.4-3.6-3.5-6.4-4-10.5-.9-7-.9-27.1,0-34.1s2.6-1.2,2.1-3.4c4.5.4,7.8-.5,12-1,6.6,4.5,3.1,6.8,2,13-1.4,8.4-1.9,17-3.1,25.4s-5.4,15.7-1.9,23.6c0,.3,0,.7,0,1,0,2,0,4,0,6s-.2,3.5,0,5c.6,4.2,1.7,2,2,2,1.3,0,2.7.1,4,0,4.3-.4,7.4-1.4,12,0,2-2-4.7-24-6-28-.6-12.6,6-24.4,5-37,1.4-.5.9,4.1,3,2s.4-12.6,1-15.3,1.6-.6,2-1.4-.2-2,0-2.3c1.2-1.9,4.9-5.3,7-6s3.8-1,4-1c3.7-.4,2.6.9,4,2s.7.7,1,1,.1.6.5.7l.5-.7c.6,0,1.4,0,2,0,2.7-.4,8.1-.6,7-3,.7,0,1.3,0,2,0,.6,3.8,1.8,5.6,6,5,0-1.7,0-3.3,0-5,2.4,0,3.1-2.7,4.8-3.9s3-.4,4-1.3.9-5.6,3.2-6.8c.3,4.2.1,6.1,0,10ZM448.3,384.8h-10c-.5.5.5,9.2,0,11.3s-1.8.3-2.1,2.1c-.5,4.2-.4,24.8,3.6,26.6s2.5.4,2.5-.5c-2.3-5,3.8-7.3,4-8.2,1.2-4.8-.8-14.3-.1-19.9s1.9-1.3,2.1-2.1c.6-2.6-.4-6.5,0-9.3Z"/>
  <path class="st14" d="M494.3,328.8c0,1,0,2,0,3-1.2-.1-2.7,0-4,0s-1.4,0-2,0c-3.5.5-2.2.6-4,2s-2.8-1-2,3c-.2,0-.6,0-1,0-.8-.1-2.2-.1-3,0-1.1,2.7-2.7,6.6-3,9.5s-.9,11.9,4,10.5c-.3-4.3-1.9-7.7,0-12l6,2c.1.3-.1.7,0,1,.5,1.5,1.8,3.4,1.9,4.5.4,6.9-7.5,8.9,7.1,10.5-2.5-4.5,1.8-2.1,2-6l-4-2h17.5c.2,0,1,1.2,1.4.9,0-2.2,2.4-3.6,3.1-4.9,0,2-.1,4,0,6-2.3,1.2-1.9,5.6-3.2,6.8s-3.1.6-4,1.3c-1.7,1.2-2.4,4-4.8,3.9-.3-9.9-2.1-4.8-6-4s-4-.9-6-1v5c1.3,0,2.7,0,4,0,1.1,2.4-4.3,2.6-7,3l1-8c-4.5-.5-5.5,3.2-5,7-1.4-1.1-.3-2.4-4-2l1-7h-4c0-4.1-3.2-8.1-3-13.4s1.5-11.1,5-11.6c.2-.5,0-1.7.5-2.9,1.7-3.5,6.9-4.7,10.5-5.1s3.5-.1,5,0Z"/>
  <path class="st8" d="M514.3,340.8c1.3,2.3,1.3,7.5,0,10s-3,2.8-3.1,4.9c-.4.3-1.2-.9-1.4-.9h-17.5l4,2c-.2,3.9-4.5,1.5-2,6-14.6-1.7-6.7-3.7-7.1-10.5,0-1-1.4-3-1.9-4.5,1.9.3,3.1,1.6,5,2s2.2-.2,3,0h1c1.8.5,3.2,1.5,5,2s4.2,1.8,6.6,1.5c5.2-.5,7.7-3.7,6.4-8.8s-1.2-1.5-2-4.7,0-.7,0-1c1,.1,3.6,1.4,4,2ZM492.3,358.8c-4.2-.5-4.2,1.5,0,1v-1Z"/>
  <path class="st15" d="M512.3,451.8c2.4-.7,1.8,1.6,3,3,0,.7,0,1.3,0,2-2.7.7-3-2.9-3-5Z"/>
  <path class="st15" d="M515.3,459.8c.2.2,1.6-.3,1.9,0s-.2,2.3,0,2.9c-2.7.5-2-.6-2-3Z"/>
  <path class="st4" d="M384.3,488.8c14.8.6,29.8.8,44.5,2,25.9,2.7,56.9-4,82.1-1.1s5.4.8,5.5,4c-.2,0-1.6,1.1-3.4,1.1-14.5.1-29.1-.2-43.6,0-11.7-2.1-27,.7-39,1s-12.2.6-16.6,0c-6.3-.9-7.4-3.8-15.4-2.1-4.7-.8-11.8-.3-16.1-1.5s-2.1-1.3-1.9-3.5c1.3,0,2.7,0,4,0Z"/>
  <path class="st1" d="M524.3,494.8c-.4,1.5,1.4,3.8-1.5,4-12.8.9-27.3-1.9-40-3s-8.3,0-13.5-1c14.5-.2,29.1.2,43.6,0,1.8,0,3.2-1.1,3.4-1.1,2.4,0,5.1.9,8,1Z"/>
  <path class="st5" d="M380.3,488.8c-.2,2.3-.5,2.9,1.9,3.5,4.3,1.2,11.3.6,16.1,1.5-2.8.6-3.7.8-7,1-6.7.3-14.3.2-21,0s-7.9,1.2-7-2c2.4-.3,4.8-.7,7-1s7.9,1.6,8-3c.7,0,1.3,0,2,0Z"/>
  <path class="st13" d="M430.3,495.8l.5,1c-12-.3-24.1.4-36.1,0s-4,1-3.5-2c3.3-.2,4.2-.4,7-1,8.1-1.7,9.1,1.2,15.4,2.1s11.8,0,16.6,0Z"/>
  <path class="st0" d="M400.3,512.8h-20.5c-.9,0-3.6-1.8-5.5-1v-2h24.5c.7,0,1.9,2.1,1.5,3Z"/>
  <path class="st15" d="M302.3,488.8l-.5,1-1.5-1c.2,0,.4-.2,2,0Z"/>
  <path class="st13" d="M321.3,216.8c0,.9.5,1.8-.6,2-2.2.5-9.1,0-11.9,0s-4,1-3.5-2c5.3,0,10.7,0,16,0Z"/>
  <path class="st6" d="M321.3,214.8c2.8,0,6.9-1.1,6,2-2,0-4,0-6,0,0-.7,0-1.3,0-2Z"/>
  <path class="st13" d="M302.3,216.8c.3,0,.7,0,1,0l-.5,1-.5-1Z"/>
  <path class="st15" d="M511.3,413.8c-3.3.8-2.1-4.2-3.1-4.9-3.6-2.5-11,9.5-12,12.4-1.3,3.9-.8,8-1.9,12l13.2,25.9,10.8,13.7c-2.8-1.2-6-2.7-9-3,.1-2.5-1.4-2.6-3-3.5-5.9-3.5-10.5-8.5-17.8-9.7-4.4-13.5-11.7-30.7,1.3-41.8s3.9-1.9,5.6-3.4c2.5-2.4,11.2-16.5,14.4-9.5s1.5,10.1,1.5,12Z"/>
  <path class="st4" d="M509.3,469.8c3,.3,6.2,1.8,9,3,4.1,1.8,5.2,3.5,6,4,.8,2.7-2,1.6-3.4,3s-2.5,4.3-3.6,6c-4.8,1.5-9.3,1.5-14,2,.5-7-8.2-.3-6.6-9,1.6-8.5,4-9.8,12.6-9Z"/>
  <path class="st15" d="M512.3,439.8c-3,.6-1.9-1.5-2-3.5-.2-6.6,1-13.6,1-19.5,1.9,7.1.9,15.5,1,23Z"/>
  <path class="st15" d="M524.3,476.8c.7.4,5.1-.9,2.8,2.8s-1.7.5-2.3,1.2c-3,3.5-2.6,3.5-7.5,5,1-1.7,2.2-4.7,3.6-6s4.2-.3,3.4-3Z"/>
  <path class="st15" d="M512.3,448.8c-1.5-.3-1.6-3.6,0-4,0,1.1,0,3.1,0,4Z"/>
  <path class="st9" d="M321.3,191.8c1.3,0,2.7,0,4,0v14c-.7,0-1.3,0-2,0-2-.5-1.4-3.3-3-3v4c-1,.1-2.1-.1-3,0v-15c1.2.2,2.7,0,4,0Z"/>
  <path class="st9" d="M330.3,191.8c2.3,0,4.7,0,7,0,.9,3.1-3.7,2.5-4,3.5-.9,2.6,5.3,1.6,4,4s-4,1.1-4,2c0,3.3,6.4,1.3,3.4,5.5-2.1-.1-4.3.1-6.4,0v-15Z"/>
  <path class="st9" d="M314.3,192.8c0,.6,1.1,2.5,1,5s0,7.2-1,8c-1.7,1.4-2.5-2.2-3-4s.2-2.1,0-3h-1c.5,4.8-.8,2.5-4,2-.1-1.3,0-2.7,0-4l3,1c.2-1.5-.3-3.6,0-5s.9-.8,1-1l4,1Z"/>
  <path class="st8" d="M329.3,191.8v15c-1.1,0-2.5-1-3-1v-14c1,0,2,0,3,0Z"/>
  <path class="st14" d="M330.3,206.8c-.3,0-.7,0-1,0v-15c.3,0,.7,0,1,0v15Z"/>
  <path class="st14" d="M317.3,191.8v6h-2c0-2.5-1-4.4-1-5,0-1.2.8-1.5,1-2,.6.2,1.4.9,2,1Z"/>
  <path class="st14" d="M326.3,205.8c-.3,0-.7,0-1,0v-14c.3,0,.7,0,1,0v14Z"/>
  <path class="st2" d="M321.3,191.8c-1.3,0-2.8.2-4,0s-1.4-.8-2-1c.3-.6-.6-2.1.6-2,2,.7,4.6,1,5.4,3Z"/>
  <path class="st2" d="M323.3,205.8c-.2,0-1.5.8-3,1v-4c1.6-.3,1,2.5,3,3Z"/>
  <path class="st9" d="M303.3,192.8c1.4,2.4,1.1,5.3,1,8s.6,4.2-.6,5.1c-3.2,2.4-4.8-.8-6.4-1.1v-12c1.8,0,3-.3,6,0ZM302.3,194.8h-3s0,9,0,9c4.6,0,2.7-5.9,3-9Z"/>
  <path class="st14" d="M297.3,192.8v12c-.2,0-1,0-1,0-2.8-4,1.5-8.2-1-12,.7,0,1.3,0,2,0Z"/>
  <path class="st8" d="M309.3,192.8c-.3,1.4.2,3.5,0,5l-3-1c0-.6-1.4-2.3,0-4h3Z"/>
  <path class="st14" d="M306.3,192.8c-1.4,1.7,0,3.4,0,4,0,1.3-.1,2.7,0,4-.6-.1-1.4,0-2,0,0-2.7.4-5.6-1-8,1,0,2,0,3,0Z"/>
  <path class="st8" d="M311.3,201.8l-.8.7c-.3,2.5.6,5.7-2.7,4.3s-1.3-4.2-1.5-6c3.2.5,4.5,2.8,4-2h1c.2.9-.2,2.2,0,3Z"/>
  <path class="st3" d="M359.3,292.8c8.7-.7,17.3-2,26-3l-1.6-12,11.6-3c.4,3.4.8,6.8,1.4,10.1s1.5,2.6,1.6,2.9c.4,2.7.5,11.8,0,14.3s-3.7,2.6-3.9,3.5c-.3,1.5.3,3.2,0,4.6s-1.8.6-2,1.4c-.8,3.7.8,2.9-1.6,6.7s-.3,2.2-.5,2.4c-.4.4-8.9.4-10.2.2s-2.1-3.9-6.2-4-6.4.5-5.5,3c-.2,0-1.2.8-2,1-.5-5.6-4.4,0-4.7,0-2.6.6-7.6,1.1-10,2.3s-6.7,5.6-7,6c-.5.8,0,2.2-.4,2.9-.4,1-1.7.9-1.9,1.5-.7,2.8,1.9,13.7,4.3,15,5,2.7,2.7,1.8,6.8,5.6s5.2,2.2,6.6,3.1,2.1,3.2,2.6,3.4c1.3.6,3.5.1,3.7.3.4.4-.3,3.7,0,4s3.9-.3,5.3,0,.3,1.8,2.1,2.1c6.9.9,16.2-1.1,23.1-.2s1.3,1.9,2.1,2.1c1.8.4,8.9-.4,9.3,0s-.2,2.4.3,3.7,9.3,4.2,9.7,7.8c1.4,11.1-1.2,25.1,0,36.5-1.6-.8-4,0-5,0s-1.8-1-4-1c1.1-5.2-3.1-1.9-4.9-3.1s-.3-2.6-1.8-3.9-5.1-2.9-6.3-3.5c-24.1-11.6-32.6-15.6-52-35s-8.2-3.5-9.1-10.9-.5-17.3,0-20.9,4.5-7.4,4.8-11.3-.9-12.4-.8-17.8,3.8-9.8-5-10.5v-2c8.4-1,17-1,25-4Z"/>
  <path class="st13" d="M413.3,416.8c1,0,3.4-.8,5,0-1.1-11.4,1.5-25.5,0-36.5s-9.1-6.2-9.7-7.8-.2-3.5-.3-3.7c-.4-.5-7.5.4-9.3,0s-.3-1.8-2.1-2.1c-6.9-.9-16.2,1.1-23.1.2s-1.3-1.9-2.1-2.1c-1.4-.3-5,.3-5.3,0s.4-3.6,0-4-2.4.3-3.7-.3-1.9-2.9-2.6-3.4c-1.3-.8-4.6-1.2-6.6-3.1-4.1-3.8-1.7-2.9-6.8-5.6s-5-12.2-4.3-15,1.4-.5,1.9-1.5-.1-2,.4-2.9,6.6-5.8,7-6c2.4-1.2,7.4-1.8,10-2.3s4.2-5.5,4.7,0c-2.4.5-3.3,1.3-5,2-6.9,2.6-9.3,2.4-14,9s-1.4.3-1.6,1.4.5,1.8.6,2.6c-4.3,1.5,1.5,9,3,10.5s4.7,4.3,5,4.5c1.6,1.2,8.3,2.5,10,4s2.2,4.8,3.5,6,2.9.7,3.5,1,1.1.7,2,1,1.1.8,2,1c4.1.9,5.6-.9,9-1,6.1-.2,12.9-.3,19,0s1.3,0,2,0c2.2,6.6,11.1,11.6,17,15,0,.3,0,.7,0,1s0,2.4,0,3,0,.7,0,1c-1.6.7-.9,2.7-1,4-.3,3.3-.5,6.8-1,10s-2.7,4.3,0,6c0,6.4,1.6,11.1,2,17s.7,8.9-3.5,12-11.2,5.9-16.5,5c-.6,8.8.2,4.8,5.3,6s4.4,3,3.7,4c-4.2-.3-7.1-2-10.6-2.7s-2.6.8-3.7.7-6.6-6.1-6.7-6.5c-.7-2.4,2.2-1.1,3.7-1.8s3.4-4.3,4.3-5c2.8-2.1,6.7-2.7,8.4-3.8s3.2-4.6,3.5-5.9c1.6-.5,3.1-1.4,5-1,.4-1.8-1.2-2.5-2-4Z"/>
  <path class="st8" d="M422.3,381.8c1.9-.2,3.7-.2,5.1,1.4,5.2,6,2.1,24.7,2.9,33.1.7,7.1,5.1,12.8,2,20.5,3.3.7,1.4-1.9,2.3-3.7s2.8-2.8,3.7-2.3c.6,5.3-2,5.7-3.2,9.3-1.9,5.9-2.8,18-10.3,18.8s-11-.7-12.5-1.1-2.4-1.8-2.6-2c-.5-.7.6-.9.6-1,5.4,3.9,6.4-1.3,8.7-3s3.6-1.3,5.3-2,7.8-2.1,2.5-3-4.4.9-3.5-1.5,2.8-3.4,3.7-5.3c3.1-6.4,6.7-12.8-2.7-15.2-.1-1.7-.7-3.8-2-5-.4-5.9-2-10.6-2-17s0-4,0-6c.5-3.2.7-6.7,1-10,1.4-.7,1.1-2.7,1-4s0-.7,0-1Z"/>
  <path class="st8" d="M378.3,436.8c1,1.9,2,4.1,3,6s.6,3.4,1,4c-.2,3.1-4.7,10.3-4.6,12.5,0,3.5,7.1,6.2,4.6,11.5-.5-.6-5,2.9-6,4-2.1,0-6-3.7-6-5.5.4-.8,7.9-3.9,6-5.5-8.3,3.9-16.4,8.8-26,7s-3.8-1.8-4-2c-1.1-1.1-2.1-5.6-2-7.4s4.7-14.2,5.3-15.3c1.6-3.3,14.7-10.2,18.6-10.9,5.9-1.1,5.6.2,10,1.5ZM360.3,442.8c-.9,0-2.4-.2-3,0l-2,2c-.3.3-.7.6-1,1s-.7.6-1,1c-.9,1.5-1.8,4.9-3,7s-5.1,3.9,0,4c-.3,2.1-1.5,2.7-2,4-1.1,2.6-1.1,4.5,2,6s6.4,1.2,9,1,2.7.2,3,0-.2-1.5,0-2c6-2.2,10.2-3.3,14-9.5s1.6-5.3,2.2-7.8.3-1.5-2.3-1.8c.2-.8,0-2,0-3,.1-1.5,1.7-3.5.6-5.1s-2.9-.6-3.6-.9-.4-1.3-1.1-1.5c-1.9-.8-12.1,1.8-11.9,5.5ZM379.3,467.8c-1.4-.3-2.7.5-3,2h3s0-2,0-2ZM375.3,471.8c.7-1.4-.6-2.7-1-2-.7,1.4.6,2.7,1,2Z"/>
  <path class="st14" d="M341.3,394.8c5,0,7.6-.4,12.1,2.1s2.6,5.5,2.9,5.8c.5.5,9.3-.6,11.7.3s3.8,3.8,3.9,4c.5.8.2,2.2.7,3.4s1.5.4,1.6,1c.7,3-.6,7.4,0,10.6s5.9,3,4,6.7c-2.3.3-5.2-.5-7.3,0s-.3,1.8-2.1,2.1c-3.2.4-21.3.5-23.9-.1s-.7-1.5-1-1.6c-2-.8-3.9-.4-5.3-2.7s-.1-2.6-.7-3.3c-1.3-1.8-5.5-3.5-5.7-6.3,2,.5,3.7-1.3,4.5,2l1.5-2c.3,7.5.4,5.6,5.2,8.1s.8,1.7,1.5,1.9c3.1.7,21,.4,23-1.3,4.7-3.8,5.3-9.3,3.3-14.7s-10.6-7.2-15.5-7.1-14.9,4-16.5,9.1c-2.5-.4-6.1.6-8.4,0s-2.2-5.3-2.6,0c-.3-.3-3.6-1.4-3.9-2.7-1.4-6.1,1.8-5,1.9-5.3,3.5.4,6.4-1.9,9-4,6.1.2,4.6-1.1,7-2-1,4.6,2.9,3.7,3,0s-.3-1.3-1-2-2.2-1.2-3-2Z"/>
  <path class="st13" d="M392.3,468.8c2.6.7,1.8-1.7,2.1-1.9,2.1-1.5,1.8,1.8,2.6,1.9,1.6.4,3.9-.4,5.8,0,4.6,1,8.1,3.6,4.6,8.5-2.7,3.8-5.2,2.7-8.4,3.4s-.6,1.8-1.4,2c-3.5.8-9.1-.8-12.6,0s-.3,1.8-2.1,2.1c-3.3.4-24.2.2-26-1s-2.1-4.4-2.6-5.1c-3.6-.4-5.7-1.5-7.9-4.8s-4.5-5.6,0-5.2c.2.2,3.8,2,4,2-1.5,4.2,2.6,4.5,3.7,6.3s.2,1.6.3,1.7c5,.6,7.3,2,12,2-.6,3,1.5,1.9,3.4,2s5.2.3,7.1,0,1.3-1.9,2.1-2.1c2-.4,4.5.3,6.6,0s6.3-5.8,6.4-6.2c.7-2,.1-3.8.3-5.7Z"/>
  <path class="st14" d="M378.3,436.8c.8.3,2.2-.3,3.7.3s7.7,7.5,8,8,4.2,7.9,4.3,8.4c.4,1.5.3,8.1.1,9.9s-1.7.7-2.1,5.4c-.7-.2-1.4-1.4-2-2s.1-1.2-1-1c0,4.2-2.3,3.9-4.7,5.4s.1,2.4-2.3,1.6c-.1-.6.2-1.8,0-2,2.4-5.3-4.6-8-4.6-11.5s4.5-9.4,4.6-12.5c0,.1,1.5-.3,2.4,1.2,1.6,2.7,2.9,5.7,3.6,8.8-.5.7.3,5.5,0,7,4.4-2.6,2.8-6.2,2-10s-2.8-10.5-9-11c-1-1.9-2-4.1-3-6Z"/>
  <path class="st2" d="M424.3,424.8c.5,6.5-3.2,10.8-6.4,16.1s-.4,2.6-.6,2.9c-.8,1.3-2.8,2.1-4,3-.7,0-1.3,0-2,0,.6-1-3.5-3.9-3.7-4-5.1-1.2-5.9,2.8-5.3-6,5.3.9,12.3-1.9,16.5-5s3.8-7.1,3.5-12c1.3,1.2,1.9,3.3,2,5Z"/>
  <path class="st13" d="M323.3,485.8c11.6,1.8,30.7,2.4,43,3l1,2-50-2c-.6-1.6.6-2.2,1-3,1.6.2,3.5-.2,5,0Z"/>
  <path class="st7" d="M417.3,443.8c.9,5.5,7.4,2.1,7,6-1.6.6-3.8.9-5.3,2-2.3,1.8-3.4,6.9-8.7,3-.1-.5,0-1.4,0-2v-1c1.1-2.9,2.7-2.5,3-5,1.2-.9,3.2-1.7,4-3Z"/>
  <path class="st9" d="M406.3,416.8c1.3,0,2.7,0,4,0v4c-4.4-3.1-5.2,1-5.6,1-1.5,0-3.1-1.6-5.7-.9s-3.9,3.8-4.7,5.8c-4.2.6-.8-4.6,0-7,2.2-1.1,9.3-2.8,12-3Z"/>
  <path class="st8" d="M409.3,415.8c2.2,0,3.3.9,4,1,.8,1.5,2.4,2.2,2,4-1.9-.4-3.4.5-5,1-3.6,1.1-8,.8-10,1.4s-3,3.2-6,3.6c-.2.4.2,1.1,0,1.6-2.7,7.2-8-4.5,0-8.6-.8,2.4-4.2,7.6,0,7,.9-2,2.3-5.2,4.7-5.8s4.2.9,5.7.9,1.1-4.2,5.6-1v-4c-1.3,0-2.7,0-4,0,.5-1.3,1.9-1,3-1Z"/>
  <path class="st8" d="M341.3,394.8c.8.8,2.3,1.2,3,2-4.6.2-12.5-2.3-14,4,1.7,0,3.3,0,5,0-2.6,2.1-5.5,4.4-9,4,.2-.3-.1-2.7.5-4,2.8-6,8.8-5.9,14.5-6Z"/>
  <path class="st2" d="M328.3,412.8c.4-5.3,2.4,0,2.6,0,2.2.6,5.9-.4,8.4,0,0,.3,0,.7,0,1-1.2.5-1,1.9-1,3l-1.5,2c-.8-3.3-2.5-1.5-4.5-2-3.6-.9-2.6-2.6-4-4Z"/>
  <path class="st4" d="M378.3,488.8c0,4.6-5,2.6-8,3l-3-1-1-2c4,.2,8-.2,12,0Z"/>
  <path class="st5" d="M318.3,485.8c.4-.9-1.1-1.7,1.5-2.1s4.2-.4,3.5,2.1c-1.5-.2-3.4.2-5,0Z"/>
  <path class="st8" d="M410.3,452.8c0,0-.4.2,0-1v1Z"/>
  <path class="st2" d="M436.3,266.8c.2.1,1.2-.1,1.6.3,4.2,4.7.2,4.4.4,9.7,3.9-.7,7.1-.8,11,0s3.3,1.6,7,2l4.3,3.7c2.2,0,4.7,1.4,5.7,3.3s-.4,2.7,0,3,3.8-.2,5.3,0,2.3,4.8,5.2,4-.2-2.5,1.5-2l2,4c.1.7.9,1.7,1,3s-1.2,1.1-1.1,2.3,3.2,2.2,3.7,3,2,4.8,2.3,5.7c-2.6-.5-2.1,1.2-2.7,2.8-3.9,10-9.4,14.4-17.8,21.3-1,.8-3.1.8-3.4,1.1-.9,1,.5,8-.2,8.9s-1.6,0-2,0c0-4.2.9-9.6-2-13s-1.5-.7-2-1c-8-4.7-8.3-.2-13.6,0s-3.7-1.7-6.4-2-2.7,0-4,0-1.3,0-2,0-.7,0-1,0c-.9-4.2,3.2-2.8,4-6.5s.7-6.6-2-8.5-.7-.7-1-1c.2,0,1.2-1.5,2.7-1.8,2.6-.5,8.8-.9,10.3,1.8h-6c4.1,5.5,10.7,2,15.7-.8s1.7.1,1.3-2.2c-3.8,1.3-7.2-2.8-10-3l-1-6c3.1.2,4.8-1.7,2.9-3.9s-5.5,2-.9-7.1c.5-.9,4.8-2.2-.5-4l-2.5,4c-.2,0-4,2.4-4.1,2.6-1,3.7,2.8,8.1-3.9,8.4,0-.6-.1-1.4,0-2s1.5-.6,1-2h-6c2.3,3.8-.3,2.3-2,5-.3-.1-.8.2-1,0-.9-.9-.9-2.5-1.2-2.8-1-.8-2.7,0-3.8-.2.3-.9-.7-1.5,1.2-2.3s5.3-.7,7.8-.7l-2-2,3-3-5-.5c0-1.2,4.9.5,6-2,.7-1.8-1.4-1.3-1.7-1.7-.9-1.4,0-4-.3-5.8,2.4-.2,4.6-.6,7-1,0-2.1-.8-4-1-6s0-2,0-3v-2ZM474.3,296.8c-8.8,1.4-15.1-4.6-24-3-1.1,4.2,4.3-.8,5,2.5s-3.8,2.3-4,2.5c-.6.6.8,2.9,1.5,3,2.8.5,6.6-4.9,7-5,1.2-.3,12.8,9.7,14.5,0Z"/>
  <path class="st10" d="M426.3,224.8c-2.1,2.1,1.9,1.9,2,2,.4.3-1.1,2.7,2,2-.2,5.7,1.1,12.1,2,18,.3,1.9,0,3.8,2,5,.3,3.3.8,6.9,1,10l-1,.5c.2.5.5.5,1,.5,0,.6,0,1.3,0,2,0,1.4-.2,2.8-1,4-2.8,0-6.5.4-9,0s-2.9-.9-3-1-1-.9-1-1c-.3-1.3-.1-4.5,0-6s3.2-4.5-1-4c-.2-2,0-4,0-6s.7-.5.7-1.3c0-2.5-.2-9-2.7-7.7-.4-3.3-.7-6.7-1-10,1.7-.9.8-3.4,1-5s0-.7,0-1c.6.1,1.5-.2,2,0,1.3.4,2.2,2.7,2-1,1-.1,3.6.2,4,0Z"/>
  <path class="st2" d="M417.3,231.8c.3,3.3.6,6.7,1,10s.9,6.7,2,9c0,2-.2,4,0,6s.8,2.7,1,4c-.1,1.5-.3,4.7,0,6-5-1-2,2.2-3.2,3.8s-1.7,0-1.8.2.5,1.7-.7,2c-2.3.6-6.1-.6-8.6,0s-.5,1.6-1.5,1.9c-3.4,1.3-3.7-2-3.2,6,4,1.3,7.5-1.6,10.6-1.9s6.3.1,9.4,0c.7,2.7-1.7,1.7-2,2-1.9.2-4.1-.3-6,0s-2.7.8-4,1h-5c-.9-.2-2,.3-3.2,0s-1.4-1.9-1.8-2v-5c0-.7,0-1.3,0-2l16-2-3-28c.9.4.6,3,3,2-.3-2.6.5-5.9,0-8.3s-2.9-.4-2-6.2,2.2-1.9,3.1-3.5c.1,1.6-.2,3.4,0,5Z"/>
  <path class="st2" d="M426.3,224.8c.2-.1-.8-3.5,3.8-1.7s2.1,5.3,2.3,7.1,1.8.5,2,1.3c1.3,5.4-2.4,13.5,2.1,17.8-.5,1.8.9,13.6-1.1,13.6,0-.3,0-.7,0-1-.2-3.1-.7-6.7-1-10s.5-4.2-2-5c-.9-5.9-2.2-12.3-2-18s-1.5-1.4-2-2,.1-4.1-2-2Z"/>
  <path class="st2" d="M398.3,230.8c1,0,3.6-1.8,4-.5s1.2,9.6,2.1,10.4c1.4,1.2,8.6-2,7.9,2.1-4.4-.5-8.6,1.7-13,1,1.2-4.3,1.1-8.9-1-13Z"/>
  <path class="st2" d="M393.3,224.8c2.9-.7,8.6,4.8,4,4-1.2-1.3-3.7-.4-4-4Z"/>
  <path class="st2" d="M446.3,272.8c0-.6,0-1.3,0-2h4c.7,3-1.5,1.9-4,2,0,.6,0,1.3,0,2-2.1.3-2.3,0-2-2,.7,0,1.3,0,2,0Z"/>
  <path class="st14" d="M436.3,266.8v2h-2c.8-1.2.9-2.6,1-4,.7.4.8,1.8,1,2Z"/>
  <path class="st9" d="M417.3,231.8c-.2-1.6.1-3.4,0-5h1c-.2,1.6.7,4.1-1,5Z"/>
  <path class="st9" d="M422.3,224.8c.2,3.7-.7,1.4-2,1v-1c.6,0,1.4,0,2,0Z"/>
  <path class="st2" d="M420.3,224.8v1c-.5-.2-1.4.1-2,0,.5-1.3,1-.8,2-1Z"/>
  <path class="st0" d="M481.3,297.8c1.3,1.4,3.2,2.8,4.4,4.1s-.9,1.5,2.6,2.9c.4,1.5,1.7,9.4,2.1,9.9s1.4,0,1.9,0c0,4.9,1.3,7,2,11s0,2,0,3c-1.5-.1-3.5-.1-5,0,.9-3.2,1.7-8.2,1-11.3s-3.3-7.1-4-8.7-2.1-5.4-2.3-5.7c-.6-.9-3.7-2.4-3.7-3-.2-1.2,1.1-2.2,1.1-2.3Z"/>
  <path class="st5" d="M510.3,338.8c0,.3,0,.7,0,1-6.9-4.5-7-7.2-16-8,0-1,0-2,0-3,6,.5,14.4,3.6,16,10Z"/>
  <path class="st4" d="M492.3,310.8c0,0,1.7-.5,2,.7.6,2.3-.6,6.1,0,8.7s5.1,2.8,0,5.7c-.7-4-2-6.1-2-11s0-2.7,0-4Z"/>
  <path class="st4" d="M496.3,266.8c2.4-.7,2.4,1.2,2.1,3.5s-.9,1.1-2.1,1.5v-5Z"/>
  <path class="st4" d="M495.3,252.8c1.5-2,4.7-3.5,4,0-1.3,0-2.7,0-4,0Z"/>
  <path class="st10" d="M318.3,240.8c.3,0,.7,0,1,0,1.2,14.3,4.9,28.7,6,43-2,1.6-.2,2.3,0,3,.4,1.4.8,5.8,1,6,.8.8,5.5-.8,7-1,.4,1.5,6.7,1.2,7,1s0-1.5,0-2c2.6-.2,5.4.2,8,0h1c-.3.7-.7,1.3-1,2-5.1.4-8.3,1.6-13.5,2s-4-1.1-3.5,2c-.7,0-1.3,0-2,0h-7c-2.3,0-4.7,0-7,0-.2-1.7,2.3-.9,2.9-2.6s.7-4.9-.9-5.4h-1c-.2-8.5-.8-3.2-3.8-5.1s-3.7-26.1-4.2-29.9-1.7-7.1-1-11c3.2-4.4,6.1-2.8,11-2Z"/>
  <path class="st7" d="M393.3,270.8c2.2-.4,4.7-.5,7-1,0,1,0,2,0,3s0,1.3,0,2c-3.5-.8-1.6,3.6-2,6,.8.3,1.7-1,2-1,.4,0,1,1.7,1.8,2s2.3-.1,3.2,0,1.1,1.1,2.5,1.1,2.2-1.1,2.5-1.1c1.3-.2,2.6-.8,4-1l-1,5c-1.2.2-3.3-.7-4,1-3.9,0-7.2.9-11,1,0-.3-1.3-1.6-1.6-2.9-.6-3.3-1.1-6.7-1.4-10.1l-11.6,3,1.6,12c-8.7,1-17.3,2.3-26,3s-4.7-.1-7,0c-.9-4.9,9.9.9,9-4,2.9.1,10.1,1.1,9-2,1.3,0,2.7,0,4,0s1,1.7,1.8.9,0-1.8.2-1.9c1.6-1.1,2.3,2.5,3-3s0-.7,0-1c2.2-1.6.5-5.5,0-1h-1c.3-1.4-.4-4,0-5s2.9-1.6,3-3c1.5.3,4.3,0,6,0s2.5.3,3-1c1-.3,1.8-.8,3-1Z"/>
  <path class="st2" d="M319.3,240.8c.8.1,2.8-.2,3,0,.4.5-.4,4.8,0,6.4s2,.5,2,.7v16c0,0,1.3-.2,1.6.3,3.1,5.7.8,9.6,2.4,14.9s3.1,1.2,3.8,3.4,0,6.1.2,6.3c.8.8,6.9-1.9,6,2-1,.1-3.2.7-5,1s-6.2,1.8-7,1-.7-4.5-1-6c0-1,0-2,0-3-1.1-14.3-4.8-28.7-6-43Z"/>
  <path class="st2" d="M350.3,237.8c1-.6,3.9,3.5,4,3.7.7,2.7-.4,6.7,0,9.7s2,3.8,2,4v15c0,.2,1.6,1.2,2,3,.8,3.8-.8,6.1-1,8.5l-1-1c0-1.6.2-3.4,0-5s-.9-2.7-1-4c-.4-3.7-.8-7.3-1-11s0-1.7-1-2c.3-2.7-.7-6.1-1-9s-.4-7.2-2-10c0-.3,0-.7,0-1s0-.7,0-1Z"/>
  <path class="st2" d="M344.3,278.8c.2.2.8-.2,1,0l2,2c.1.2,0,.7,0,1,.2.8,0,1.7,1,2-.1,1.6,0,3.4,0,5v2c-2.6.2-5.4-.2-8,0,0-.6-.2-1.9,0-2,1.9-1.3,4.9,3.3,4.1-5.6s-3.8-3.8-4-5.1c-.7-3.3.2-8.5,0-12.3,2.4,3.8,0,10.4,4,13Z"/>
  <path class="st2" d="M379.3,282.8c-.7,5.5-1.4,1.9-3,3l-2,1c-1.3,0-2.7,0-4,0-2.9.2-7.4.8-10,2-1,0-2,0-3,0,0-1.3,0-2.7,0-4,1.8.8,15.1.4,17.6,0s1.5-3.1,4.4-2.1Z"/>
  <path class="st9" d="M341.3,235.8c1.6-.2,5.6-.3,7,0s1.9.9,2,1c.1.2,0,.7,0,1s0,.7,0,1c-2.8.1-7.9-1.7-9.8,1.2s1.2,4.5-2.2,3.8c0-.5-.5-.9-1-1,.1-1-.2-2.2,0-3v-1c.1-.3.7-.7,1-1l1-1c.3-.2.5-.9,1-1s.7,0,1,0Z"/>
  <path class="st9" d="M340.3,261.8c3.6-.6,1.6,5.2,2,7.5s3.3,5.6,2,9.5c-3.9-2.6-1.6-9.2-4-13,0-.3,0-.7,0-1,0-1,0-2,0-3Z"/>
  <path class="st2" d="M378.3,275.8c-.4,1,.3,3.6,0,5-1-2.4-5.5-3.8-5.8-4.2-.7-.7,0-2.3-.2-2.8l6,2Z"/>
  <path class="st9" d="M338.3,246.8c.6,0,1.9-.2,2,0,.3.5.8,10.1,0,11,0-.3-.8-2.4-1-4s-.8-3.2-1-5,0-1.3,0-2Z"/>
  <path class="st2" d="M340.3,257.8c0,1.3,0,2.7,0,4s0,2,0,3c-.6,0-1.9.2-2,0-.3-.5-.5-10.1,1-11,.2,1.6,1,3.7,1,4Z"/>
  <path class="st2" d="M366.3,253.8c0-2.7,0-5.3,0-8,3.7,2.1,3.6,6,0,8Z"/>
  <path class="st2" d="M338.3,243.8c.1,1,0,2,0,3s0,1.3,0,2c-4.3.6-1.2-4.1-1-6,.5.1.9.5,1,1Z"/>
  <path class="st9" d="M340.3,290.8c0,.5.2,1.9,0,2-.3.2-6.6.5-7-1,1.8-.3,4-.9,5-1s1.3,0,2,0Z"/>
  <path class="st2" d="M368.3,270.8c.1.1,2.8.4,3,2-.5-.2-2,.5-2.8-.2s0-1.6-.2-1.8-1.6.5-2-.7.2-2.4,0-3.3c2.3.3,1.6,3.4,2,4Z"/>
  <path class="st9" d="M357.3,281.8c0,1,0,2,0,3-2.9-1.2-1-3.8-1-4l1,1Z"/>
  <path class="st2" d="M348.3,235.8l.5-1c1.8-.3,1.6.3,1.5,2,0,0-1.9-1-2-1Z"/>
  <path class="st9" d="M379.3,281.8c0-.3,0-.7,0-1,.5-4.5,2.2-.6,0,1Z"/>
  <path class="st2" d="M337.3,239.8c0,0-.8.5,0-1v1Z"/>
  <path class="st2" d="M338.3,237.8c.3-.3.7-.8,1-1l-1,1Z"/>
  <path class="st2" d="M341.3,235.8c-.3,0-.7,0-1,0l.5-1,.5,1Z"/>
  <path class="st14" d="M308.3,253.8c-3.5.8-3-9-2.5-10s1.4-.8,1.5-1c-.7,3.9.6,7.4,1,11Z"/>
  <path class="st14" d="M312.3,293.8c.1.6-.2,1.5,0,2-.7,0-1.3,0-2,0s-.7,0-1,0c-2.1.3-3.7.9-6,1,.1-.4-.2-1.9,0-2,.4-.3,6.8-.6,9-1Z"/>
  <path class="st14" d="M316.3,289.8c0-.3,0-.7,0-1h1l-1,1Z"/>
  <path class="st7" d="M392.3,260.8c1.4,1.7-3.6,3.6-4.7,3.8-7.1,1.3-9.9-3.5-7.2-9.8,1.2-.9,11.2,5.1,11.9,6Z"/>
  <path class="st9" d="M387.1,235.9c3.5,5.5-5.6,11.8-7.7,4.1s6.3-6.3,7.7-4.1Z"/>
  <path class="st9" d="M390.3,271.8c-.5,1.3-1.9,1-3,1,.6-1.4,2.1-.8,3-1Z"/>
  <path class="st12" d="M457.3,268.8c-1.3-3.1,0-2.1,0-3v3Z"/>
  <path class="st0" d="M472.3,286.8c7.1,1.7,7,1.4,8,8l-2-4c-1.7-.4-.6,1.8-1.5,2-2.9.8-3.8-3.7-5.2-4s-4.8.3-5.3,0,.3-2.4,0-3c1.9.9,4.3.6,6,1Z"/>
  <path class="st9" d="M486.3,203.8l1-1c-.3,0-.7.9-1,1Z"/>
  <path class="st9" d="M348.3,292.8c1.3,0,2.7,0,4,0,2.3-.1,4.7.2,7,0-8,3-16.6,3-25,4s-2-.1-3,0c-.6-3.1,1.5-1.9,3.5-2,5.3-.4,8.4-1.6,13.5-2Z"/>
  <path class="st9" d="M329.3,296.8c-2.1.2-4.7.7-7,1v-1h7Z"/>
  <path class="st7" d="M309.3,295.8c.3,0,.7,0,1,0l-.5,1-.5-1Z"/>
  <path class="st12" d="M486.3,308.8c.7,1.6,3.8,8,4,8.7.8,3.1-.1,8.1-1,11.3-3.6.3-8.7,1.6-10.5,5.1s-.3,2.4-.5,2.9c-3.5.5-4.9,8.2-5,11.6-.2,5.4,3,9.4,3,13.4s-1.8,5.3-1,8c-2.1.7-5.8,4.1-7,6-4.5,1.3-9.2,4.7-13.7,5.8s-4.3,0-6.3.2c-4.2.5-7.5,1.4-12,1s-9-3.3-14-4c0-.3,0-.7,0-1,0-2.5-4.1-6.9-6.3-8.7s-2.6,0-3.4-.6c-3-2.3-2.6-5.2-7.3-5.7s-1.3,0-2,0l-1-4c.4-.2,5.8-5.3,5.9-5.7.4-1.2.1-2.5-.9-3.3v-1c.3,0,.7,0,1,0,3.2-.4,5.4-2.4,7-5l5,3c0,.7,0,1.3,0,2-3.5,0-3,4.6,0,4-.4,3.7-3,3.5-2,8,1.3.3,5.5-.4,6,0s-.1,1.4,0,2c1.1.4,1.9-1,2-1,2.6-.2,5.4.1,8,0v-4c.5.1,1.4,0,2,0,0,1.4-1.9,3.1.6,3.9s7.3,0,10.4.1.6,1.5,2,1c.5-1.3-1-1.9-1-2-.9-5.3-1.3-3.1-3-7,6.2-.8-.2-8.2,6-7,.1,4-.1,8,0,12s0,2,0,3c4.8-.5,15,2.3,13-5.3s-2.9-1.3-4-1.7c.6-2.2,0-9.1,0-12,.4,0,1.9.1,2,0,.6-.8-.7-7.9.2-8.9s2.3-.3,3.4-1.1c8.4-6.9,13.9-11.2,17.8-21.3s0-3.3,2.7-2.8Z"/>
  <path class="st8" d="M457.3,429.8c1.3,4,7.9,26,6,28-4.6-1.4-7.7-.4-12,0-.4-3.3,3.5-1.6,6-3.6s4-5.6,4-6c-.1-3-4.7-.5-5-.5-.7,0-1.3,0-2,0,4.1-9.6-3.6-14.5-4-23-1.5-1.9-3.6,4-3.8,4.7-.6,3.6-1,10.7-1.2,14.3-3.5-7.9.8-16,1.9-23.6s1.7-17,3.1-25.4c10.5-10.7,8.8,2.9,7.9,10.4s-3.8,13.9-3.8,18.3,2.3,4.4,3,6.4Z"/>
  <path class="st3" d="M448.3,384.8c-.4,2.8.6,6.7,0,9.3s-1.8.3-2.1,2.1c-.7,5.5,1.3,15,.1,19.9s-6.3,3.1-4,8.2c0,.9-2.1.7-2.5.5-4-1.8-4.1-22.4-3.6-26.6s1.9-1.3,2.1-2.1c.5-2.1-.5-10.8,0-11.3h10Z"/>
  <path class="st14" d="M468.3,375.8c-.2.3.3,1.5,0,2.3s-1.8.7-2,1.4c-.7,2.8.7,13.6-1,15.3s-1.6-2.5-3-2c1,12.6-5.6,24.4-5,37-.6-2-3-3.4-3-6.4,0-4.4,3.1-12.9,3.8-18.3s2.7-21-7.9-10.4c1.1-6.2,4.6-8.5-2-13,2-.3,4.1.3,6.3-.2,4.5-1,9.3-4.4,13.7-5.8Z"/>
  <path class="st14" d="M436.3,382.8c.5,2.3-1.8,1.4-2.1,3.4-.8,7-.8,27.1,0,34.1s3.6,6.9,4,10.5c-.9-.5-3.5,2-3.7,2.3-.9,1.8,1,4.4-2.3,3.7,3.1-7.7-1.3-13.4-2-20.5-.8-8.3,2.3-27.1-2.9-33.1s-3.2-1.6-5.1-1.4c0-.6,0-2.8,0-3,5,.7,8.8,3.5,14,4Z"/>
  <path class="st9" d="M445.3,443.8c.2-3.6.6-10.7,1.2-14.3s2.3-6.7,3.8-4.7c.4,8.5,8.1,13.4,4,23-5.9.2-4.8-.4-9-3,0-.3,0-.7,0-1Z"/>
  <path class="st7" d="M445.3,444.8c4.2,2.6,3.1,3.2,9,3s1.3,0,2,0c4,2.1.6,1.7-.7,3.4s.7,3-4,3.5-3.6-4.3-6.2-3.8c0-2,0-4,0-6Z"/>
  <path class="st9" d="M456.3,447.8c.3,0,4.8-2.5,5,.5s-3.4,5.5-4,6c-2.5,2-6.3.2-6,3.6-1.3.1-2.7,0-4,0l-2-2c-.2-1.5,0-3.4,0-5,2.6-.5,4.9,4,6.2,3.8,4.8-.5,3-2.2,4-3.5s4.7-1.2.7-3.4Z"/>
  <path class="st9" d="M502.3,368.8c0,1.7,0,3.3,0,5-4.2.6-5.4-1.2-6-5s.1-2.7,0-4c3.9-.8,5.7-5.9,6,4Z"/>
  <path class="st9" d="M476.3,361.8h4s-1,7-1,7c-.2,0-3.8.9-4,1-.8-2.7,1-5.8,1-8Z"/>
  <path class="st9" d="M483.3,370.8c-.5-3.8.5-7.5,5-7l-1,8c-.6,0-1.4,0-2,0h-1c-.3-.3-.7-.8-1-1Z"/>
  <path class="st2" d="M496.3,364.8c.1,1.3-.2,2.8,0,4-.7,0-1.3,0-2,0-1.3,0-2.7,0-4,0v-5c2,.1,4,1.4,6,1Z"/>
  <path class="st8" d="M447.3,457.8c-.3,0-1.4,2.2-2-2l2,2Z"/>
  <path class="st14" d="M484.3,371.8h1l-.5.7c-.3-.1-.3-.5-.5-.7Z"/>
  <path class="st8" d="M481.3,336.8c0,.8,1,1.7,1,2,.1.9-.2,2.3,0,3,.8,2.5,1.8,2.3,3,5l-6-2c-1.9,4.3-.3,7.7,0,12-4.9,1.4-4.4-6.9-4-10.5s1.9-6.8,3-9.5c.8-.1,2.2-.1,3,0Z"/>
  <path class="st0" d="M483.3,340.8c0,0,1.3-.2,1.6.3,1.9,3.1,4.3,5.3,5.4,8.7-1.9-.4-3.1-1.7-5-2-.1-.3.1-.7,0-1-1.2-2.7-2.2-2.5-3-5l1-1Z"/>
  <path class="st12" d="M490.3,331.8c1.1,1.1,0,4.6.2,4.8,1.1,1.7,6.9,1,4.8,7.2,3.5,1.5,4.7-3.8,5.5-4,3.7-1,1.9,1.7,2.7,2.8s2.5.6,3.5,1.5,4.3,7.4.8,6.7-1.6-3.4-3.7-4.4-5.2.6-7.8.4c-3.6,2.9,7.7,1.7,8,2,1,5.5-2.2,1.1-5,3-1.8-.5-3.2-1.5-5-2s-1,0-1,0c-.8-.2-2.1.2-3,0-1-3.4-3.4-5.6-5.4-8.7s-1.6-.3-1.6-.3c-.2-.3.2-1.5,0-2-.3-.8.5-1.4-1-2-.8-4,1.4-2.6,2-3,1.1,1.2,2.3,2.3,4,2v-4c.6,0,1.4,0,2,0Z"/>
  <path class="st0" d="M494.3,331.8c9,.8,9.1,3.5,16,8,.8,3.2,1.9,4.4,2,4.7,1.3,5.2-1.2,8.3-6.4,8.8s-4.6-1-6.6-1.5c2.8-1.9,6,2.5,5-3-.3-.3-11.6.9-8-2,2.6.2,5.1-1.5,7.8-.4s.5,3.8,3.7,4.4.4-5.7-.8-6.7-3-.8-3.5-1.5c-.8-1.1,1-3.8-2.7-2.8s-2,5.5-5.5,4c2.1-6.2-3.7-5.4-4.8-7.2s.9-3.7-.2-4.8c1.3,0,2.8-.1,4,0Z"/>
  <path class="st14" d="M492.3,358.8v1c-4.2.5-4.2-1.5,0-1Z"/>
  <path class="st0" d="M494.3,349.8h-1s-.2-.3,1,0Z"/>
  <path class="st2" d="M302.3,194.8c-.3,3.1,1.6,9-3,9v-9s3,0,3,0Z"/>
  <path class="st13" d="M409.3,286.8c2,0,5.8-1.1,5,2-6.2-1.4-2.7,3.5-7,4s-2.7-.1-4,0c-.7,2.8,1.1,4.1,2,6s1.4,1.6,1,3c-1.3.5-4.5-1.4-5-1s-.3,2.3-1,3.3c-1.5,2.3-2.7,4.6-3.7,7-1.9,4.7-1.8,5.4-2.3,10.7s.4,2.9-2,4c-6.2-2.1-17.9-6.6-24-6-.9-2.6,4.3-3.1,5.5-3,4.1.1,5.5,3.9,6.2,4,1.3.3,9.8.2,10.2-.2s0-1.6.5-2.4c2.4-3.9.8-3,1.6-6.7s1.8-.6,2-1.4c.3-1.4-.3-3.1,0-4.6s3.7-2.6,3.9-3.5c.5-2.5.4-11.6,0-14.3,3.8,0,7.1-1,11-1Z"/>
  <path class="st8" d="M392.3,325.8c7.7,2.6,15.4,5.9,23,9-.2,2.1.2,2,2,2,.3,2.6-.7,4.9-2,7s-3.8,4.6-7,5c-.7-4.7,6.4-6.3,6.1-10.5s-5.7-3.5-8.1-4.5-4.3-1.3-6-2c-11.4-4.6-24.4-12.6-37-8l-2-1c1.7-.7,2.6-1.5,5-2s1.8-1,2-1c6.1-.6,17.8,3.9,24,6Z"/>
  <path class="st14" d="M400.3,331.8l-1,3,7-1c2.4,1,7.8,1.1,8.1,4.5s-6.8,5.8-6.1,10.5c-.3,0-.7,0-1,0s-.3-1.9-1.5,0,.6.8.5,1c-1.3,4.4-5.3,3.3-8.9,5.6s-3.3,3.4-5.1,4.9c1.8,1.4,8.3-.5,10-1.5l1,4c-6.1-.3-12.9-.2-19,0,1.2-3.3-5.2-2.2-5.9-3.1s-.2-3.7-1.1-5.9.6-1.8-.6-2.1c-7.1-1-2.3,6.5-3.4,11.1-.9-.3-1.3-.6-2-1-1.5-2.4-3.8-5.1-4-8,3.6.2,1.6-.6,1-2s.3-1.4-.2-1.8-1.4,0-1.8-.2c-4.7-1.2-5-2.7-10-1-.5-4.8-8.8-2.6-8-9,5,2.8,13.9,4.9,19.5,7s15.1,6.7,20.2,7.8,9.4.5,11.3-2.8c-4,1.9-26.4-4-27-7,3.7.5,13.9,2.8,12.1-3.4s-13.4-3-12.1,3.4c-9.7-1.2-16.6-5.7-26-7-.2-.5,0-1.4,0-2s-.8-1.8-.6-2.6c.2-1.1,1.4-1.1,1.6-1.4,3-.2,6.5-1.6,9-3,3.1,2.2,7.4,2.1,11,2l2-1-7-5c.3-.2.6-.9,1-1,12.6-4.6,25.6,3.4,37,8ZM361.3,332.8c-.3-.5-5.2-1.2-6.4-1s-6.2,2.1-5.6,3.5c2.3,3.3,4.4.2,6.6-.2s7.9,1.2,5.4-2.3ZM373.3,336.8c-4.2,1-8.8-5.4-8,1-6.5-2.5-6.3,3.1.5,4l-.5-2c1.2-.8,8.5,1.9,8-3ZM399.2,340.7c.9-2.1-9.2-6.2-10.4-6s-.5,2.1-1.1,2.1c-1,0-4.6-1.9-5.4-1s-.4,2.2.7,3,12,4.3,13.6,4,2.6-1.9,2.7-2ZM380.8,336.8v1c.6-.3.6-.7,0-1ZM395.3,348.8c.6-4.6-4.7-6.9-8-3.5l8,3.5Z"/>
  <path class="st1" d="M405.3,362.8c4.7.5,4.3,3.4,7.3,5.7s2.6,0,3.4.6c2.2,1.8,6.2,6.1,6.3,8.7-5.9-3.4-14.8-8.4-17-15Z"/>
  <path class="st9" d="M361.3,322.8l2,1c-.4.1-.7.8-1,1-3.2,1.5-4.2,3-6,4-2.5,1.4-6,2.8-9,3,4.7-6.6,7.1-6.4,14-9Z"/>
  <path class="st8" d="M377.3,353.8c.9,2.2.9,5.7,1.1,5.9.7.9,7.1-.2,5.9,3.1-3.4.1-4.9,1.9-9,1,0-3.4-.5-7.3,2-10Z"/>
  <path class="st8" d="M366.3,349.8v1.3c-1.8,1-2.5,1.4-2,3.7-1.7-1.5-8.4-2.8-10-4-.5-2.9.9-1.6,2-2,5-1.7,5.3-.2,10,1Z"/>
  <path class="st5" d="M346.3,337.8c.4,1.2,1,1.4,2,2-.8,6.4,7.5,4.2,8,9-1.1.4-2.5-.9-2,2-.3-.2-4.2-3.8-5-4.5-1.6-1.4-7.3-9-3-10.5,0,.6-.2,1.5,0,2Z"/>
  <path class="st9" d="M366.3,349.8c.5.1,1.3-.3,1.8.2s0,1.5.2,1.8c-1,.1-1.1,1.2-1,2,.2,2.9,2.5,5.6,4,8-.6-.3-1.9.4-3.5-1s-2.6-5.1-3.5-6c-.5-2.3.2-2.7,2-3.7v-1.3Z"/>
  <path class="st9" d="M373.3,362.8c1.2-4.6-3.6-12,3.4-11.1,1.1.2.4,1.5.6,2.1-2.5,2.7-2,6.6-2,10-.9-.2-1.5-.8-2-1Z"/>
  <path class="st15" d="M420.3,402.8c-2.7-1.7-.2-4.7,0-6,0,2,0,4,0,6Z"/>
  <path class="st14" d="M421.3,386.8c.1-1.3-.6-3.3,1-4,0,1.3.4,3.3-1,4Z"/>
  <path class="st9" d="M424.3,424.8c9.4,2.4,5.9,8.8,2.7,15.2-.9,1.9-3.3,4.2-3.7,5.3-.9,2.3,2.3,1.3,3.5,1.5,5.3.9-1.3,2.5-2.5,3,.4-3.9-6.1-.5-7-6,.2-.3,0-1.9.6-2.9,3.2-5.3,6.9-9.6,6.4-16.1Z"/>
  <path class="st0" d="M360.3,442.8c1.7-.1,3.3,0,5,0-.6.7-.9,2.9-1,3-.6.6-3.8.2-3,3,1.6-.1,3.4.2,5,0,2.7-.3,1.9-1.2,3-2s1,.2,1.7-.3.2-1.5.3-1.7c1.1-1.3.2,2.5,2.5,2s.3-2.9,2.5-2c0,1,.2,2.2,0,3-2.6,10.9-11.6,12.7-14,19-1.2.5-2.6.1-3,2-2.6.2-6.7.1-9-1,5.3-3.8.2-3.3-2-6,.5-1.3,1.7-1.9,2-4s-.1-2.7,0-4c1.2-2.1,2.1-5.5,3-7l1-1c.3-.4.7-.7,1-1,.7-.6,1.9-2,2-2,.6-.2,2.1,0,3,0ZM360.3,448.8c-5.9-.7-3.1.7-4.2,4.2s-2.2,1.9-1.8,3.7h6c-.5-3-1.2-5.1,0-8ZM358.3,457.8c-1.1-1.1-3.1.9-2,2s3.1-.9,2-2ZM360.3,460.8c-1.1-1.1-3.1.9-2,2s3.1-.9,2-2Z"/>
  <path class="st14" d="M350.3,470.8c9.6,1.8,17.7-3,26-7,1.8,1.6-5.6,4.7-6,5.5,0,1.8,3.9,5.5,6,5.5-.1.2-1.8,3.8-2,4-2.5,2.3-4.9,2-8,2-4.7,0-7-1.4-12-2-.1-.2.1-1-.3-1.7-1.1-1.7-5.2-2.1-3.7-6.3Z"/>
  <path class="st0" d="M390.3,466.8l-2.3,7.7c-3.9,3.3-8.2,5.1-13.7,4.3.2-.2,1.9-3.8,2-4,1-1.1,5.5-4.6,6-4s-.1,1.4,0,2c2.5.8,1.8-1.2,2.3-1.6,2.3-1.5,4.6-1.2,4.7-5.4,1.1-.2.9.9,1,1Z"/>
  <path class="st14" d="M376.3,447.8c2.6.3,3.1-1.7,2.3,1.8s-.9,5.6-2.2,7.8c-3.8,6.2-8.1,7.2-14,9.5-.2.5.3,1.7,0,2s-2.2,0-3,0c.4-1.9,1.8-1.5,3-2,2.4-6.3,11.4-8.1,14-19Z"/>
  <path class="st14" d="M373.3,438.8c-3.2,2.3-3.3,4.2-4,8-1.1.8-.3,1.7-3,2,.3-1.7-.8-2.2-2-3,.1-.1.4-2.3,1-3-1.7,0-3.3-.1-5,0-.1-3.8,10-6.4,11.9-5.5s.8,1.4,1.1,1.5Z"/>
  <path class="st9" d="M390.3,453.8c1.1,3.5-1.9,2.8-2,3-.8-3.1-2.1-6.1-3.6-8.8s-2.3-1.1-2.4-1.2c-.4-.6-.5-3-1-4,6.2.5,8,6.2,9,11Z"/>
  <path class="st2" d="M376.3,444.8c-2.2-.9-1.6,1.8-2.5,2-2.2.5-1.4-3.3-2.5-2s.2,1.3-.3,1.7c-.7.6-1.5.2-1.7.3.7-3.8.8-5.7,4-8,.6.3,2.7-.3,3.6.9s-.5,3.6-.6,5.1Z"/>
  <path class="st14" d="M348.3,461.8c2.2,2.7,7.3,2.2,2,6-3.1-1.5-3.1-3.4-2-6Z"/>
  <path class="st14" d="M350.3,457.8c-5.1-.1-.7-2.8,0-4-.1,1.3.2,2.8,0,4Z"/>
  <path class="st14" d="M379.3,467.8v2s-3,0-3,0c.3-1.4,1.6-2.3,3-2Z"/>
  <path class="st14" d="M375.3,471.8c-.3.7-1.7-.6-1-2s1.7.6,1,2Z"/>
  <path class="st14" d="M353.3,446.8c.3-.4.8-.7,1-1l-1,1Z"/>
  <path class="st14" d="M355.3,444.8l2-2c-.1,0-1.3,1.4-2,2Z"/>
  <path class="st8" d="M339.3,413.8c-.6,4-.8,9,4.5,8,.5-4.1,7.6-5.8,11.7-7.3s3.8-.3,5.2-.9,1.4-2.6,2.4-2.8c6.6-1.7,3.5,3,4.3,4s2.7.4,2-1.4l1,1.4,1-4c2,5.4,1.5,10.9-3.3,14.7s-20,2-23,1.3-.7-1.5-1.5-1.9c-4.8-2.5-4.9-.6-5.2-8.1s-.2-2.5,1-3Z"/>
  <path class="st9" d="M339.3,412.8c1.6-5.1,11.5-9,16.5-9.1s13.8,2.3,15.5,7.1l-1,4-1-1.4c.7,1.8-1.7,1.8-2,1.4-.8-1.1,2.3-5.7-4.3-4s-.9,2.2-2.4,2.8-3.5.2-5.2.9c-4.1,1.6-11.2,3.2-11.7,7.3-5.3,1-5.1-4-4.5-8s0-.7,0-1Z"/>
  <path class="st9" d="M344.3,396.8c.7.7,1,.6,1,2-.9.2-2.3-.3-3,0-2.4.9-.9,2.2-7,2s-3.3,0-5,0c1.5-6.3,9.4-3.8,14-4Z"/>
  <path class="st8" d="M345.3,398.8c-.1,3.7-4,4.6-3,0,.7-.3,2.1.2,3,0Z"/>
  <path class="st6" d="M392.3,468.8c-.2,1.9.4,3.8-.3,5.7s-6,6.1-6.4,6.2c-2.1.4-4.6-.4-6.6,0s-.3,1.8-2.1,2.1-5,0-7.1,0-4,1-3.4-2c3.1,0,5.5.3,8-2,5.5.8,9.7-1,13.7-4.3l2.3-7.7c.6.6,1.3,1.8,2,2Z"/>
  <path class="st8" d="M390.3,453.8c.8,3.8,2.5,7.4-2,10,.3-1.5-.5-6.3,0-7s3.1.5,2-3Z"/>
  <path class="st14" d="M434.3,298.8c0,.8-.4,2,.5,2,2.4,0,5.2-2.5,7.2-2.8s1.2.8,1.3.8l1,6c-4.7-.4-15.1,2.5-20,4s-2.4-1.1-2,3c.3.4,3.1-.9,4-1,.1,1-1.2,2.7-.8,4.3,1.3,5.1,7.1,1.7,5.8-3.3,2.6,1.9,2.6,5.3,2,8.5s-4.9,2.4-4,6.5c-1.6,0-3.6-.3-5,0-1.4-1.9-4.8-.8-7-1,0,1.7,0,3.3,0,5-1.8.6-12.9-3.4-14.9-4.6s-3.7-5.5-8.1-4.4c.5-5.3.4-6,2.3-10.7,1-2.4,2.2-4.7,3.7-7s.9-3.2,1-3.3c.5-.4,3.7,1.5,5,1,.4-1.4-.5-2-1-3,1,.2,3.5-.3,4,0s-1.1,2.9,5,2c0,.8.7,1.4,1,2s-.4,1.4.2,1.8c.8.6,3.2-.3,3.8,1.2-.3,0-1.1,1-2.4,1.1-6.8.4-8.3-5.2-15.5-2,0,3.8,1.5,16,6.4,16s13.7-10.7,13.5-15c3.7-.5,7.3-1.5,11-2-.6-1.9-5.3-1-7-1l1-3c.2.2.7-.1,1,0,4.2,1.9,3.5-1.1,7-3-.1.6,0,1.4,0,2Z"/>
  <path class="st7" d="M456.3,328.8l2,1c2.9,3.4,1.9,8.8,2,13-3.4.3-6.7,2.3-7.7-1h-1.3c-.2-2,.3-4.4-2-5.6-6.7-3.4-5.3,9.5-5,13.6-2.9-.2-5.8-.6-6,3h-1s-1-2-1-2c0-4.7.6-9.5-1-14,.8,0,4-3.5,6.1-3.6,0-.8-.7-4-1.2-4.3-1.3-.9-4.6,1.4-3.8-2.1,2.8.3,4.6,2.1,6.4,2,5.3-.3,5.6-4.7,13.6,0Z"/>
  <path class="st14" d="M427.3,278.8c1,0,2,0,3,0,.2,1.7-.6,4.3.3,5.8s2.4,0,1.7,1.7c-1.1,2.5-6,.9-6,2l5,.5-3,3,2,2c-2.5,0-5.4-.3-7.8.7s-.9,1.4-1.2,2.3c-.3,0-.7,0-1,0-4.3-.3-5.4.5-10,1,.3-2.3-1.8-2.4-3-3.7v-1.3c4.3-.5.9-5.4,7-4,.8-3.1-3-2-5-2,.7-1.7,2.8-.8,4-1,4.8-1,4.3-2.6,7-5s2.7.7,2-2c1.7-.1,3.3,0,5,0Z"/>
  <path class="st10" d="M429.3,326.8c.3,0,.7,0,1,0-.6,3,2.6,3.1,2,0,1.3,0,2.7-.2,4,0-.7,3.5,2.5,1.2,3.8,2.1s1.3,3.5,1.2,4.3c-2,0-5.3,3.5-6.1,3.6s-3-2-5.1-.6-.9,4.8-.9,6.6c-3.2.6-5.9,1.5-9,0-.2-2.7.5-3.3-1-6s-.9-1.6-2-2c0-1.3,0-2.7,0-4,.8-.3,3.1-3.3,7-4s3.4,0,5,0Z"/>
  <path class="st12" d="M421.3,266.8c0,0,.9.9,1,1,.6,1.7,1.8,2.6,3,1,2.5.4,6.2,0,9,0h2c0,1-.1,2,0,3h-9s0,7,0,7c-1.7,0-3.3-.1-5,0-3.1.2-6.3-.3-9.4,0s-6.5,3.3-10.6,1.9c-.5-8-.2-4.7,3.2-6s.8-1.8,1.5-1.9c2.5-.6,6.3.6,8.6,0s.5-1.9.7-2,1.4.3,1.8-.2c1.2-1.6-1.7-4.8,3.2-3.8Z"/>
  <path class="st12" d="M444.3,304.8c2.8.2,6.2,4.3,10,3,.4,2.3-.2,1.6-1.3,2.2-5,2.8-11.6,6.2-15.7.8h6c-1.5-2.8-7.8-2.3-10.3-1.8s-2.5,1.8-2.7,1.8c-1.2.2-2.8-.2-4,0,0-.6-1.5-1.5-2-2,4.9-1.5,15.3-4.4,20-4Z"/>
  <path class="st12" d="M474.3,296.8c-1.6,9.7-13.3-.3-14.5,0s-4.2,5.5-7,5-2.1-2.4-1.5-3,4.5.1,4-2.5-6.1,1.7-5-2.5c8.8-1.6,15.2,4.4,24,3Z"/>
  <path class="st12" d="M445.3,287.8c-4.6,9.1-.1,6,.9,7.1,1.9,2.2.2,4.1-2.9,3.9s-.5-.8-1.3-.8c-2,.2-4.8,2.7-7.2,2.8-.9,0-.5-1.2-.5-2,6.7-.3,2.9-4.7,3.9-8.4s3.8-2.5,4.1-2.6c.6-.3,2.1.2,3,0Z"/>
  <path class="st7" d="M436.3,271.8c.2,2,.9,3.9,1,6-2.4.4-4.6.8-7,1s-2,0-3,0v-7s9,0,9,0Z"/>
  <path class="st8" d="M430.3,310.8c.3.3.6.7,1,1,1.2,5-4.6,8.4-5.8,3.3s1-3.2.8-4.3c1.2-.2,2.8.2,4,0Z"/>
  <path class="st7" d="M421.3,296.8c1.1.2,2.8-.5,3.8.2s.3,1.9,1.2,2.8l-1,3c-1,0-2,0-3,0v-1.3c-2.8-1-2-2.1-1-4.7Z"/>
  <path class="st12" d="M427.3,299.8c1.7-2.7,4.3-1.2,2-5h6c.5,1.4-1,1.9-1,2-3.5,1.9-2.8,4.9-7,3Z"/>
  <path class="st14" d="M445.3,287.8c-.9.2-2.4-.3-3,0l2.5-4c5.3,1.8,1,3.1.5,4Z"/>
  <path class="st7" d="M432.3,326.8c.6,3.1-2.6,3-2,0,.7,0,1.3,0,2,0Z"/>
  <path class="st8" d="M458.3,329.8l-2-1c.5.3,1.3.2,2,1Z"/>
  <path class="st9" d="M418.3,241.8c2.5-1.3,2.6,5.2,2.7,7.7s-.7,1.2-.7,1.3c-1.1-2.3-1.7-6.4-2-9Z"/>
  <path class="st14" d="M434.3,251.8c-2-1.2-1.7-3.1-2-5,2.5.8,1.8,3,2,5Z"/>
  <path class="st9" d="M420.3,256.8c4.2-.5,1.1,2.8,1,4-.2-1.3-.9-2.7-1-4Z"/>
  <path class="st14" d="M425.3,268.8c-1.2,1.6-2.4.7-3-1,.1,0,2.8,1,3,1Z"/>
  <path class="st9" d="M426.3,224.8c2.1-2.1,1.9,1.9,2,2,.5.6,2.1-1.5,2,2-3.1.7-1.6-1.7-2-2s-4.1.1-2-2Z"/>
  <path class="st14" d="M435.3,262.8c-.5,0-.8,0-1-.5l1-.5c0,.3,0,.7,0,1Z"/>
  <path class="st11" d="M350.3,238.8c0,.3,0,.7,0,1,.2,3.3-1.4,10.9,2,10,.3,2.9,1.3,6.3,1,9s-2.9,2.4,1,2c.2,3.7.6,7.3,1,11-1.9,1.7-1.7,4.8,1,4,.2,1.6,0,3.4,0,5s-1.9,2.8,1,4c0,1.3,0,2.7,0,4,1,0,2,0,3,0s.7,0,1,0c.9,4.9-9.9-.9-9,4-1.3,0-2.7,0-4,0,.3-.7.7-1.3,1-2,.6-1.2,2.7-2.2-1-2,0-1.6-.1-3.4,0-5s3-2.4-1-2c0-.3.1-.8,0-1-.7-1.4-1.1-1.2-2-2s-.8.2-1,0c1.3-4-1.4-6.8-2-9.5s1.5-8.1-2-7.5c0-1.3,0-2.7,0-4,.8-1,.3-10.6,0-11s-1.4,0-2,0c0-1,.1-2,0-3,3.4.7,1.3-2.2,2.2-3.8,1.8-3,7-1.1,9.8-1.2Z"/>
  <path class="st9" d="M348.3,288.8c3.7-.2,1.6.8,1,2h-1v-2Z"/>
  <path class="st9" d="M325.3,286.8c-.2-.7-2-1.4,0-3,0,1,0,2,0,3Z"/>
  <path class="st9" d="M420.3,280.8c-2.7,2.4-2.2,4-7,5l1-5c1.9-.3,4.1.2,6,0Z"/>
  <path class="st9" d="M370.3,286.8c1.1,3.1-6.1,2.1-9,2s-.7,0-1,0c2.6-1.2,7.1-1.8,10-2Z"/>
  <path class="st9" d="M400.3,274.8v5c-.3,0-1.1,1.3-2,1,.4-2.4-1.5-6.8,2-6Z"/>
  <path class="st9" d="M410.3,281.8c-.2,0-.9,1.1-2.5,1.1s-2.1-1-2.5-1.1h5Z"/>
  <path class="st9" d="M376.3,285.8c-.1,0,.3,1.4-.2,1.9-.8.8-1.7-.9-1.8-.9l2-1Z"/>
  <path class="st9" d="M352.3,249.8c-3.4.9-1.8-6.7-2-10,1.6,2.8,1.7,6.9,2,10Z"/>
  <path class="st9" d="M356.3,275.8c-2.7.8-2.9-2.3-1-4,.1,1.3.9,2.7,1,4Z"/>
  <path class="st9" d="M354.3,260.8c-3.9.4-1.1-1.4-1-2,1,.3.9,1.2,1,2Z"/>
  <path class="st9" d="M347.3,281.8c4-.4,1,1.5,1,2-1-.3-.8-1.2-1-2Z"/>
  <path class="st9" d="M347.3,280.8l-2-2c.9.8,1.3.6,2,2Z"/>
  <path class="st9" d="M451.3,341.8h1.3c1,3.3,4.3,1.3,7.7,1,0,2.9.6,9.8,0,12s-7.2,6.6-9,4c-.1-4,.1-8,0-12s.2-3.4,0-5Z"/>
  <path class="st9" d="M444.3,349.8c.2,2.2.1,2,1,4,1.7,3.9,2.1,1.7,3,7l-1,1c-3.1-.2-7.7.6-10.4-.1s-.7-2.5-.6-3.9,0-2,0-3,0-2.7,0-4l1,2h1c.2-3.6,3.2-3.2,6-3Z"/>
  <path class="st7" d="M429.3,342.8c-.2,4-.7,9.6,1,13v1c-.2,0-1.5,1.7-3.4.9s-1.2-2-2-2.7-2.2,0-2.5-.4c-1.5-1.5,2.1-6-2.1-5.9,0-.7,0-1.3,0-2,0-1.3,0-2.7,0-4,3.1,1.5,5.8.6,9,0Z"/>
  <path class="st2" d="M451.3,341.8c.2,1.6,0,3.4,0,5-6.2-1.2.2,6.2-6,7-.9-2-.8-1.8-1-4-.3-4.1-1.8-16.9,5-13.6s1.8,3.6,2,5.6Z"/>
  <path class="st9" d="M420.3,348.8c4.3,0,.7,4.4,2.1,5.9s1.9-.1,2.5.4.8,2.2,2,2.7c1.9.7,3.2-.9,3.4-.9,1.9,0,2.6.6,4,1v4c-2.6.1-5.4-.2-8,0l-2-1c-.5-.4-4.7.3-6,0-1-4.5,1.6-4.3,2-8,.1-1.3,0-2.7,0-4Z"/>
  <path class="st0" d="M402.3,358.8c-1.7,1-8.2,2.9-10,1.5,1.7-1.5,3.2-3.7,5.1-4.9,3.6-2.2,7.6-1.2,8.9-5.6h1c1,.8,1.4,2.1.9,3.3s-5.6,5.5-5.9,5.7Z"/>
  <path class="st8" d="M460.3,354.8c1.1.4,3.7.4,4,1.7,1.9,7.6-8.3,4.9-13,5.3,0-1,0-2,0-3,1.8,2.6,8.6-2.6,9-4Z"/>
  <path class="st2" d="M419.3,336.8c1.5,2.7.8,3.3,1,6s0,2.7,0,4l-5-3c1.3-2.1,2.3-4.4,2-7,.7,0,1.3,0,2,0Z"/>
  <path class="st14" d="M436.3,354.8c0,1,0,2,0,3-.6,0-1.4.1-2,0-1.4-.4-2.1-1-4-1v-1l6-1Z"/>
  <path class="st2" d="M420.3,348.8c0,1.3.1,2.7,0,4-3,.6-3.5-4,0-4Z"/>
  <path class="st2" d="M448.3,360.8c0,.1,1.4.7,1,2-1.3.5-1.9-1-2-1l1-1Z"/>
  <path class="st14" d="M426.3,361.8c-.1,0-.9,1.4-2,1-.1-.6.2-1.9,0-2l2,1Z"/>
  <path class="st8" d="M407.3,348.8v1h-1c0-.2-1.2,0-.5-1,1.2-2,1.4,0,1.5,0Z"/>
  <path class="st0" d="M483.3,338.8h-1c0-.3-1.1-1.2-1-2,.4,0,.8,0,1,0,1.5.6.7,1.2,1,2Z"/>
  <path class="st14" d="M483.3,340.8l-1,1c-.2-.7.1-2.1,0-3h1c.2.5-.2,1.7,0,2Z"/>
  <path class="st0" d="M488.3,331.8v4c-1.7.3-2.9-.8-4-2,1.8-1.4.5-1.5,4-2Z"/>
  <path class="st2" d="M417.3,330.8c0,1.3,0,2.7,0,4-.5-.2-1.5.2-2,0-7.6-3.1-15.3-6.4-23-9,2.4-1.1,1.8-2,2-4,4.4-1.1,5.4,2.9,8.1,4.4s13.1,5.2,14.9,4.6Z"/>
  <path class="st0" d="M407.3,292.8v1.3c1.2,1.3,3.3,1.4,3,3.7-.5,0-.9.5-1,1-.5-.3-3,.2-4,0-.9-1.9-2.8-3.2-2-6,1.3-.1,2.7.1,4,0Z"/>
  <path class="st2" d="M406.3,333.8l-7,1,1-3c1.7.7,3.5,1,6,2Z"/>
  <path class="st14" d="M417.3,334.8c1.1.4,1.5,1,2,2-.7,0-1.3,0-2,0-1.8,0-2.2.1-2-2,.5.2,1.5-.2,2,0Z"/>
  <path class="st8" d="M372.3,344.8c-1.3-6.5,11.5-5.3,12.1-3.4,1.9,6.3-8.3,3.9-12.1,3.4.6,3,23,8.9,27,7-1.9,3.3-8.1,3.5-11.3,2.8-5-1.2-14.8-5.9-20.2-7.8s-14.6-4.2-19.5-7-1.6-.8-2-2c9.4,1.3,16.3,5.8,26,7Z"/>
  <path class="st8" d="M399.2,340.7c0,.2-2.5,2-2.7,2-1.6.3-12.1-3-13.6-4s-.9-2.8-.7-3c.8-.8,4.4,1.1,5.4,1s.5-2,1.1-2.1c1.1-.2,11.2,3.9,10.4,6Z"/>
  <path class="st8" d="M362.3,324.8l7,5-2,1c-3.6,0-7.9.2-11-2,1.8-1,2.8-2.5,6-4Z"/>
  <path class="st8" d="M373.3,336.8c.5,4.9-6.8,2.2-8,3l.5,2c-6.8-.9-7.1-6.5-.5-4-.8-6.4,3.8,0,8-1Z"/>
  <path class="st8" d="M361.3,332.8c2.5,3.5-5,2.2-5.4,2.3-2.2.4-4.3,3.5-6.6.2-.6-1.4,4.8-3.4,5.6-3.5,1.2-.2,6.1.5,6.4,1Z"/>
  <path class="st8" d="M395.3,348.8l-8-3.5c3.3-3.5,8.6-1.1,8,3.5Z"/>
  <path class="st8" d="M368.3,351.8c.6,1.4,2.6,2.2-1,2,0-.8,0-1.9,1-2Z"/>
  <path class="st8" d="M380.8,336.8c.6.3.6.7,0,1v-1Z"/>
  <path class="st2" d="M360.3,448.8c-1.2,2.9-.5,5,0,8h-6c-.5-1.8,1.3-2.3,1.8-3.7,1.1-3.5-1.7-4.9,4.2-4.2Z"/>
  <path class="st2" d="M364.3,445.8c1.2.8,2.3,1.3,2,3-1.6.2-3.4-.1-5,0-.8-2.8,2.4-2.4,3-3Z"/>
  <path class="st2" d="M360.3,460.8c1.1,1.1-.9,3.1-2,2s.9-3.1,2-2Z"/>
  <path class="st2" d="M358.3,457.8c1.1,1.1-.9,3.1-2,2s.9-3.1,2-2Z"/>
  <path class="st8" d="M419.3,305.8c.6,0,1.4,0,2,0,.2,4.3-10.4,15-13.5,15-5,0-6.4-12.2-6.4-16,7.2-3.2,8.7,2.4,15.5,2s2.2-1,2.4-1.1Z"/>
  <path class="st2" d="M422.3,302.8c1,0,2,0,3,0,1.6,0,6.4-.9,7,1-3.7.5-7.3,1.5-11,2s-1.4,0-2,0c-.7-1.5-3-.6-3.8-1.2s0-1.5-.2-1.8c2.3.9,4.6,0,7,0Z"/>
  <path class="st12" d="M420.3,296.8c-1.7,2.3-3,3.6-6,4-6.1.9-4.7-1.8-5-2,0-.5.5-.9,1-1,4.6-.5,5.7-1.3,10-1Z"/>
  <path class="st8" d="M421.3,296.8c-1,2.6-1.8,3.6,1,4.7v1.3c-2.3,0-4.7.9-7,0-.3-.6-1-1.2-1-2,3-.4,4.3-1.7,6-4,.3,0,.7,0,1,0Z"/>
  <path class="st7" d="M424.3,326.8c-3.9.7-6.2,3.7-7,4,0-1.7,0-3.3,0-5,2.2.2,5.6-.9,7,1Z"/>
  <path class="st2" d="M424.3,308.8c.5.5,1.9,1.4,2,2-.9.1-3.7,1.4-4,1-.4-4.1.2-2.4,2-3Z"/>
  <path class="st2" d="M435.3,336.8c1.6,4.5.9,9.3,1,14s0,2.7,0,4l-6,1c-1.7-3.4-1.2-9-1-13s-.6-5.5.9-6.6,4.2.6,5.1.6Z"/>
</svg>