<?xml version="1.0" encoding="UTF-8"?>
<svg id="Layer_1" xmlns="http://www.w3.org/2000/svg" version="1.1" viewBox="0 0 792 612">
  <!-- Generator: Adobe Illustrator 29.0.0, SVG Export Plug-In . SVG Version: 2.1.0 Build 186)  -->
  <defs>
    <style>
      .st0 {
        fill: #c8303b;
      }

      .st1 {
        fill: #ee6514;
      }

      .st2 {
        fill: #af0303;
      }

      .st3 {
        fill: #f4ca5b;
      }

      .st4 {
        fill: #f9d705;
      }

      .st5 {
        fill: #2a2627;
      }

      .st6 {
        fill: #ce0804;
      }

      .st7 {
        fill: #efccc2;
      }

      .st8 {
        fill: #ad8b04;
      }

      .st9 {
        fill: #eb3711;
      }

      .st10 {
        fill: #f7b518;
      }

      .st11 {
        fill: #fefefe;
      }

      .st12 {
        fill: #f00707;
      }

      .st13 {
        fill: #f74205;
      }

      .st14 {
        fill: #fb1f03;
      }

      .st15 {
        fill: #c49b93;
      }
    </style>
  </defs>
  <g id="mFkKDq">
    <g>
      <path class="st8" d="M463.2,86.4c.5.4,2.3-.2,2.9,1.6,1,3-.1,10.1.1,13.9s1,2.3,1,2.4c.4,7.9-.2,16,0,24v1c-.4.2-.9.6-1,1-7.7-1.6-15.8,3.3-23,3s-4.5-3.2-4,1c-.7,0-1.4-.1-2,0-.2-.8.3-2.7,0-3s-1.4.1-2,0c.4-.5.7-1.8,1-2s1.5.3,1.8-.1c1.1-1.3-.6-5.5-.6-7.4,0-3.8-1.3-9.5-1.2-10.9s1.6-.6,2-1.3c1.6-3.9,3.8-20.7,1.1-22.7s-3.9,1.8-2-5.5c8.7,1.3,17.3,3.2,25.9,5Z"/>
      <path class="st9" d="M352.4,136.3c-4.8-.4-10.8.3-15.5-.2-5-.5-9.8-6.5-10.5,3.6-1,14.8,0,32.6,0,47.9-.4,109.4,2.8,218.8,1.1,328.4,0,5.3-3.2,9.5,3.6,13.3s13.5.5,15.3,6.1c-.7,0-1.3,0-2,0-4.2-.3-16.7-3.2-19-6.4s-.9-15.4-.9-19.5,0-2.7,0-4c-.1-11.6,0-23.3,0-34.9s0-4,0-6c-.3-111.4.2-222.9,0-334.3l27.9,6Z"/>
      <path class="st5" d="M467.1,311.9c0,50.5,0,101.1,0,151.7s0,4.7,0,7v1c0,11.6,0,23.3,0,34.9l-1,.5,1,.5c0,3,0,6,0,9s-.8,6.3,1,8c0,2.7.5,6.5-1.3,8.7-2.7,3.3-12.5,5.2-16.7,6.3v-4c1.6,0,3.4.2,5,0s2.3.7,2-2c1.2-.4,9-3.5,9-4v-16c-3.8-2-11.7,3.9-14,2.4s-3-6-1.9-7.3,8.4-3.3,9.9-3.1l-4-2c2.7-3.1,1.7-3.1,1-6,2.8.4,10.2-1.5,9-5.5-5-4.9-5.6,1.5-10,1.5-.9-5.1-1.4-17,1-21.3.5-.8,1.9-.6,2-.7,1.2-1-3.5-.6-2-3s2.4,1,4.3-.1.8-4.2,4.7-1.9v-156.7s1-1,1-1c0,1,0,2,0,3Z"/>
      <path class="st7" d="M324.4,130.3c.2,111.4-.3,222.9,0,334.3-3,.6-1.9-1.5-2-3.4-4.8-120.2,3.6-243.4,0-363.8h1c1.8,10.5,1,22.1,1,32.9Z"/>
      <path class="st7" d="M423.2,68.4c-1.1,3.6,6.5,1.4,9,3v1s-16,0-16,0v2s4,1,4,1c-4-.5-7.9,1-10.5,1h-34.9c-6.2,0-15.9,1.2-22.5,2l4-4c-2.8,0-5.6-.1-8.3.1-6.9.6-11.6,4-17.6,6.9-.3-1.2,1.7-5.6,2.1-5.9.7-.5,2.4.9,3.3,1s.6-1.6,1.3-2c16-9.2,67.1-7.4,86.1-6ZM406.3,69.4c-13.9.8-30.1-1.8-43.6,1.9-1.7.5-2.8-.7-2.3,2.1,13-2.1,26.4,0,39.4-1s7.4-.3,6.5-3Z"/>
      <path class="st3" d="M420.2,75.4c4.7.6,7.5,2.7,14,2,7.1,2.5,14.8,2.9,22,5s3.4.9,5,2c.3.4.7.7,1,1s.7.8,1,1c-8.6-1.8-17.2-3.7-25.9-5-4.9-.7-6.4-1.1-11-1-1.7-1.8-5.5-1-8-1s-5.3,0-8,0c-11.5,0-23.5-.5-34.9,0s-3.3,0-5,0l-4,1c-12.3.9-26.8,1.2-37.9,7-.9.3-2.8.8-3,1.7,0,2.4-.1,4.9,0,7.3h-1c.5-2.2.8-9.4-2-8,.7-3.7,2.8-3.9,6-5,6.5-2.3,17-4.1,24-5s16.2-2,22.5-2h34.9c2.6,0,6.4-1.5,10.5-1Z"/>
      <path class="st7" d="M324.4,509.5c0,4.2-.9,17.1.9,19.5s14.9,6.1,19,6.4c9.9,3.7,20.4,3,30.9,6s.5,1.1,1.5,1,1.3-1,1.5-1c11.9-2.4,27.4-.7,39.9-1l-3,3c-5.9.3-13.2,1.9-19.5,1.1s-1.3-1.9-2.1-2.1c-6.3-1.5-10.6,2.1-11.8,2.1-12.6.4-36.3-2.6-48.4-6.6-13.5-4.5-11.4-12.4-11-25s-1-4,2-3.4Z"/>
      <path class="st15" d="M468.1,97.3c.5-3.8,1.7-6.2,2-8.6,1-7.6-3.9-6.3-9-8.4-13.8-5.7-13-4.6-26.9-3s-9.2-1.4-14-2l-4-1v-2h16v-1c-2.5-1.6-10.1.6-9-3,11.4.9,34.7,2.5,44.3,8.1s9,17.4.6,20.8Z"/>
      <path class="st15" d="M463.2,144.2c.9,1.2.5,3.1,1.5,4l2.5-5c0,7.3,0,15.7,0,23h-1c.2-2-.1-4,0-6-3.1-.4-1.5,2.5-4,4.5s-8,1.8-9.5-.5-.4-4.3-.5-6l3.5-1c-4.6-3.2-6-10.4-2.5-15s.9-1,1-1c2.5-.6,7.5,1,9,3Z"/>
      <path class="st0" d="M346.4,535.5c6,.4,11.9.5,18,1,18.5,1.5,32.9,2.7,51.9,1,4.9-.4,8.7-1.6,12-2s7.5.1,11,0,2.7,0,4,0c2.3,0,4.7,0,7,0v4c-3.7.9-7.3,1.4-11,2-4.9-3.1-12.8-2.2-18.5-2s-2.3,1-2.4,1c-12.5.3-28-1.4-39.9,1h-3c-10.5-3-21-2.3-30.9-6,.7,0,1.3,0,2,0Z"/>
      <path class="st15" d="M467.1,463.6c0-50.5,0-101.1,0-151.7v151.7Z"/>
      <path class="st5" d="M467.1,184.2c0,27.9,0,55.9,0,83.8s0,8,0,12,0,5.3,0,8,0,2.7,0,4h-1c-.6-3.8.9-9.9,0-13.3s-4.5-1.4-2.6-3.7,2.8-.4,2.5-1.9c-7.1.3-.1-3.7,0-5.4v-87.4c0,0,.9,0,.9,0,0,1.3,0,2.7,0,4Z"/>
      <path class="st15" d="M330.4,81.4c6-2.8,10.7-6.2,17.6-6.9s5.6-.1,8.3-.1l-4,4c-6.9.9-17.4,2.7-24,5,.6-.5,1.3-1.7,2-2Z"/>
      <path class="st8" d="M466.1,292.9h1c0,1.7,0,3.3,0,5-5.5-3.5-6,8.3,0,7,0,1.3,0,2.7,0,4l-1,1c-8.7,4.2-6.3-15.5-5.4-16.1s3.9-.9,5.4-.9Z"/>
      <path class="st5" d="M461.2,80.4c5.1,2.1,9.9.8,9,8.4-.3,2.4-1.5,4.7-2,8.6s-1.5,4.5-1,7c0-.1-1-1.1-1-2.4-.2-3.8.9-10.9-.1-13.9s-2.4-1.3-2.9-1.6-.7-.7-1-1c-.3-.3-.6-.7-1-1-1.6-1.1-3.2-1.5-5-2l5-2Z"/>
      <path class="st15" d="M467.1,268c0-27.9,0-55.9,0-83.8v83.8Z"/>
      <path class="st15" d="M439.2,541.5c-8.7,1.3-15.3,1.6-24,2l3-3c.1,0,1.1-1,2.4-1,5.8-.1,13.7-1,18.5,2Z"/>
      <path class="st7" d="M324.4,470.6c0,11.6-.1,23.3,0,34.9-3,.6-1.9-1.5-2-3.4-.4-9-.3-19,0-28s-1-4,2-3.4Z"/>
      <path class="st0" d="M467.1,180.2h-1c-.4-2.2-2.9-1.8-3-2-.2-.3.3-1.6-.1-2.4-1.1-1.9-3.5-1-2.9-3.1s2.1,0,2.8-.7,0-2.6.2-2.8c.9-.9,2.6,2.4,3-3h1c0,4.7,0,9.7,0,14Z"/>
      <path class="st5" d="M467.1,132.3c0,3,0,6,0,9s0,1.3,0,2l-2.5,5c-1-.9-.6-2.7-1.5-4v-3c1.1.3,2,.5,3,1,.5-.7-.3-9.7,0-12s.6-.8,1-1c0,1,0,2,0,3Z"/>
      <path class="st5" d="M467.1,297.9c0,2.3,0,4.7,0,7-6,1.3-5.5-10.5,0-7Z"/>
      <path class="st15" d="M322.4,96.3c-6.5-.6-4.4-4.3,0-7-.2,2.2,0,4.7,0,7Z"/>
      <path class="st8" d="M322.4,88.4c2.8-1.4,2.4,5.8,2,8s-.3,1-1,1h-1c0-.3,0-.7,0-1,0-2.3-.2-4.8,0-7s0-.7,0-1Z"/>
      <path class="st15" d="M467.1,141.3c0-3,0-6,0-9,1.7,1.9,1.7,7.1,0,9Z"/>
      <path class="st15" d="M467.1,288c0-2.7,0-5.3,0-8,1.7,1.6,1.7,6.5,0,8Z"/>
      <path class="st15" d="M468.1,524.5c-1.8-1.7-1-5.5-1-8,1.7,1.6,1,5.5,1,8Z"/>
      <path class="st15" d="M467.1,129.3v-1c0,.4,0,.7,0,1Z"/>
      <path class="st15" d="M467.1,471.6v-1c0,.3,0,.7,0,1Z"/>
      <path class="st15" d="M467.1,507.5l-1-.5,1-.5c0,.3,0,.7,0,1Z"/>
      <path class="st15" d="M467.1,292.9h-1v-1h1c0,.3,0,.7,0,1Z"/>
      <path class="st10" d="M418.2,79.4c1.6,1.7,5.5,1,8,1,4.6,0,6.1.3,11,1-1.9,7.3-.4,3.7,2,5.5s.6,18.8-1.1,22.7-1.9.8-2,1.3c0,1.4,1.2,7.1,1.2,10.9s1.7,6,.6,7.4-1.6,0-1.8.1c1.5-3.9-5-5.3-5.9-2.4-1.5,4.8,2.3,3.9,4.9,4.4s1.8-.2,2,0c.3.3-.1,2.2,0,3-.9.2-3,1.4-4,2-.7,0-1.3,0-2,0-4.3.5-8.6,1.4-13,2,1.6-3.1,7.4-.4,6-4.5s-5.5-2.4-6-2.5c.3-1,1.1-1,2-1s.7,0,1,0,.5.7,1.3.7c7.1-.2,4.3-2.8,4.7-8.7-3.5-1.2-.7,4-3.5,3s1.4-2.4-2.5-3-.7,0-1,0c-6.9.2-6.3,3.9-3,9-3.6-.4-7.2.6-10.7.7s-3.7,1.5-3.2-1.7c6.3-1.1,12.7.9,11-8-7.1,1-14.7.3-21.9,0v6c-1.2-.4-3.9-.9-4-1-1.3-1.5.5-4,3-3-2.2-7.3-9.5,1.3-4,6-1.7,0-3.3,0-5,0-.6,4.9-3.9,1.7-7.5,1.9s-14.5.3-14.5,4.1c6.9-1.3,12.7,2.4,18.7,3.8s8.4-1.7,7.3,3.2c-9.8-.6-21.5-6.1-31.9-7s-1.3,0-2,0l-27.9-6c0-10.8.8-22.4-1-32.9.7,0,.9-.4,1-1h1c.5,8.4.1,18.1,1,26.4s1,6.4,4.7,7.3,15.1,2.2,18.8,2.3,3.9-1,4.4-1c7.1-.3,14.2-.7,21-1s1.3,0,2,0c1.7,0,3.3,0,5,0,.2-2-1.6-5.4,0-8-1.8-1-4.4,1-5,1s-1.3,0-2,0c-1.7.2-1.9,0-4.5.5s-4.1-2.6-3.5,2.5c-2.3-1.4-1.7-4.1-5.4-3s-.6,3.5-2.6,2,.1-4-5-.9c0-1.3,0-2.7,0-4,1.8,4.1,2.7.6,4.7.3s3.9-.2,5.3-.3,4.4.1,7,0,1.3,0,2,0c3.5-.2,6.3-.8,9.9,0l2.1-9.9c-2.3-.8-3.4,1.5-4.5,2s-3-5.7-4.5,0c-1.8.2,0-1.8-2.4-2.1-3.7-.4-7,.7-10.6,1.1s-6.1.4-9,1c0-1,0-2,0-3,11.3-2.4,22.1-.4,33.3-.4s9.9-1.6,13.2-1.5,10.4,2,15,1.8,6.1-1.6,9.4-.9c1.1-8.8-2-17.5-1-25.9-3.5-1.5-6.9-.9-10.5-1s-4,1-3.4-2c2.7,0,5.3,0,8,0ZM407.3,113.3c-2.5.4-2.3-2.3-4.2-3.3-9.9-4.9-8.5,16.5,1.6,9.4,1.2-.9-.5-3.8,2.6-3.1.2,1.5-.3,1.7,1,3s1.4.9,3,1,.7,0,1,0c1.6-.3,1.9-1,2-1,5-1.4,2.3.7,3.5,1,3,.8,2.3-1.6,2.6-1.9,2.5-1.7,1.8,3.6,4.9,2.8-.7-4.3-3.5-5.7,0-10-5.2,2.3-5.1-.9-5.5-1-3.2-.9-2.3,1.9-2.5,2s-1.9,0-2,0c-.5-.4.8-3.2-5.5-2s-2.1,1-2.5,3ZM392.3,110.3h-3s0,10,0,10h6c1.2-4.6-2.7-2.1-3.1-3.5s.5-6,0-6.5ZM435.2,124.2c1.2-1.1,2.9-14-4.3-11.9-2.7.8.5,9.4-.6,11.9,1.2-.2,4.5.4,4.9,0Z"/>
      <path class="st2" d="M466.1,130.3c-.3,2.3.5,11.3,0,12-1-.5-1.9-.7-3-1-2.8-.7-6.7-2.2-9,0,0,0-.8.8-1,1-1.7,0-3.3,0-5,0s-.7,0-1,0c-.6-2.6,1.3-2,3-2.5,2.7-.7,9.9-.8,9-5s-5.8,1.3-7.4,1.4c-2.3.1-6.6-1.7-8.5-1.9v-1c7.2.3,15.3-4.6,23-3Z"/>
      <path class="st9" d="M435.2,131.3c-2.6-.4-6.4.4-4.9-4.4s7.4-1.5,5.9,2.4c-.3.2-.6,1.5-1,2Z"/>
      <path class="st2" d="M439.2,134.3c.6,0,1.3,0,2,0,.9,3.4-4.9,1.7-8,2,1-.6,3.1-1.8,4-2s1.3,0,2,0Z"/>
      <path class="st10" d="M443.2,133.3v1c-.7,0-1.3,0-2,0s-1.3,0-2,0c-.6-4.2,2.9-1,4-1Z"/>
      <path class="st14" d="M352.4,136.3c.7,0,1.3,0,2,0-.7,3.2,1.7,1.5,4.2,2.3s2.2,1.3,3.8,1.7c2.8,7.9-.7,13.6-1.7,20.6s.7,1.2.7,1.3c-.3,2-.6,4-1,6s-.7,4-1,6c-.7.3-2,2.2-3,3s-.6,1.4-2,2-2.9-.5-4.6.9-.9,4.2-2,6.1-1.9.8-2.1,1.3c-6.4,13.7-8.9,29.2-4.3,43.9s2.1,1.1,2.8,2.4c1.1,2.1,2.2,5,3.2,7.3-1.5-.4-8.4-1.6-9-1v69.9c2,2,26.7-8,31.1-9.3s11.3-2.6,16.8-3.7c.3,3.6.3,2.5-2.3,3.1-4.3,1.1-18.5,2.5-20.8,5.2s.1,5.8,0,8.1-1.5,2.2-1.6,3.1c-.1,1.6-.2,5.9.7,7.3-1,.7,2.1,1.2-4,2s-.7,0-1,0c.6-3.2-1.6-1.6-4-2-3.5-.5-9.1-1.8-12.3-1s-.5,1.8-.6,2-1.5.5-1.8,1.7-.5,9.9-.2,10.3,1.6,0,2,0c1,0,2,0,3,0,2.1.2,3.3,0,4,0s1.3,0,2,0c1.8,0,4.8,1,8,1s.7,0,1,0c.3.9,1.2,1,2,1,.8,1.6-.1,8.4.1,8.8s2.7.7,2.9,1.7-1.9,2.9-2.1,4.9c-.3,3,.9,5.1,1.1,7.5-2.2-.8-4.5-1.4-6.8-.3s-.9,2.1-1.5,3-2.1.9-2.6,2c-1.3,3.6,1.4,4.7,2.6,7.1,3.2,6.5-.2,3.1-2.6,4.4s-.7,2.1-1.1,2.8-1.6.3-2,2.5-.2,6,1,8.5h-4c.7,7.9,3.2,11.2,10,5l2,6c-.2.4-.2,7.5,0,8.5.4,2.3,2.8,3,3,5s-2.6,5.6-2.8,8.2-.3,8.8-.2,9.7c.3,3.5,4.9,5.7,3,10.5-9,2.3-4.8-.7-6.1-1.9-3.3-2.9-8.1,3.2-7.6,7.3s3.7,8.9,4.2,9.6c1,1.3,3,1.8,3.3,2.2.7,1.2,0,3.4.2,3.8s2.5-1.2,4-.6,2.8,3.6,2,4.5-2.7-.6-2,1.5l1,.5-1,13c-.2,2.6-.8,5.8,2,5,0,2,0,4,0,6h2s1,0,1,0c0,.7,0,1.3,0,2,0,1,0,2,0,3,.6,10.4.6,20.1,1.5,31s.9,3.2-.5,5c-6-.5-11.9-.6-18-1-1.8-5.7-10.4-3.3-15.3-6.1s-3.7-8-3.6-13.3c1.7-109.7-1.5-219-1.1-328.4,0-15.3-1-33.1,0-47.9s5.5-4.2,10.5-3.6c4.7.5,10.7-.2,15.5.2ZM332.4,168.2v-21.5c0-.6-2.1-1.9-3-1.5-1,2.1,1,5.4,1,6.5v16.5h2ZM332.4,232.1c-1.2-1.6-1.8,0-2,1.5-.5,3.6.3,7.8,0,11.5,1.2,1.6,1.8,0,2-1.5.5-3.6-.3-7.8,0-11.5Z"/>
      <path class="st2" d="M446.2,153.2c5.3,2.8,5.8-1.9,6,5s-.5,4.6.5,6c1.5,2.3,7.2,2.3,9.5.5s.9-4.9,4-4.5c0,2,.2,4,0,6-.4,5.4-2.1,2.1-3,3-6.8-5.4-7.1,13.1,0,9,.1.2,2.6-.2,3,2v87.4c-.1,1.8-7.1,5.8,0,5.4.3,1.5-1.8,1.1-2.5,1.9-1.9,2.3,2.2,2.4,2.6,3.7.8,3.4-.6,9.5,0,13.3v1c-1.5,0-4.3,0-5.4.9s-3.3,20.3,5.4,16.1v156.7c-3.9-2.4-2.4.5-4.7,1.9s-4.2,0-4.3.1c-1.6,2.4,3.2,1.9,2,3s-1.6-.2-2,.7c-2.4,4.3-1.9,16.2-1,21.3s.7,2.6,1,4c.7,2.8,1.7,2.9-1,6l4,2c-1.5-.2-9.5,2.7-9.9,3.1-1.1,1.3,0,6.1,1.9,7.3s10.2-4.4,14-2.4v16c0,.5-7.8,3.6-9,4s-2.5-1.1-2,2c-1.6.2-3.4,0-5,0-2.3,0-4.7,0-7,0,4.3-6.1,2.3-8.5,1.9-14.5s1.3-4.2.9-5.7-3.9-2.9-3.7-5,3.4-6,3.8-8.3c.6-3.8-1.9-5.8-1.8-7.7s3.5-5.4,3.8-8.2c.4-4.2-2.8-12-2.1-18.9s2.2-4.9,2.2-7.9c0-7.5-3.2-22.5-4-31.1-.3-3.1,2.9-11.7-4.1-11.4,0-.3,0-.7,0-1,2.1-1.4,7.6-4.4,8-6.5s-2-.6-3.1-2.1c-1.6-2.2,2.3-13.8,2.2-17.9s-6.1-7.9.9-7.4c-1.9-3.6.4-7.6,0-10.4-.3-2.2-6-7.8-6.1-9-.2-3,1.6-2,2.6-4.4s1.2-6.9,1.7-10.3,3.1-3.4.7-7.1c-2.8-4.3-5.8-1.2-8.2-1.8s-1.5-1.8-1.7-1.8l1-2c.3,0,.7,0,1,0,0,.7,0,1.3,0,2,4.4,1.9,6.2-2,6.6-2,1.3-.2,4.7,1.7,5.4,1s-.7-14.2-6-11c2.5-3.6,4.4-.3,5-1s-.2-2.9.3-4.2c1.3-3.8,3.4-6.8,3.8-11.2s.8-5.4-2-4.5c-1.4,1.7,1.7,9-2,8,1.5-7.8-1.9-4.9-4.1-7.4s-.7-3.3-.9-3.6c0-1.4,2.9-3.4,3-3.7,1.3-6.1.7-16.2-1.7-22s-3.4-.3-2-5.5,1.5-2,1.7-2.7.9-1.4,1-2c1.5-4.3,2.9-16.7-3-17,0-5.2,8.3-8.3,5.8-12.8s-4.1-2.9-4.5-3c-4.5-1.6-4.6,3.9-5.4,4.6s-2.2,0-2.8.2c.4-1.6,5.7-7.3,7-10,2.6.6,1.9-1.4,2.5-2.9,3.8-9.4,4.4-18.3,3.5-28.5s-.3-3.4-2-4.5c0-.3,0-.7,0-1-.2-1.3-.6-2.7-1-4,6.2,1.3,1.2-6.5,2.4-8s4.2-.7,4.5-1,.3-6.3.1-7.5c-.2-2.1-2.8-1.9-3.6-4.4s0-8.7-.4-9.1-4.3.5-5,0,.2-2.4,0-2.9h1Z"/>
      <path class="st15" d="M457.2,497.5c-.3-1.3-.7-2.2-1-4,4.4,0,4.9-6.4,10-1.5,1.2,3.9-6.2,5.9-9,5.5Z"/>
      <path class="st0" d="M457.2,533.5c.3,2.7,0,1.8-2,2-.5-3.1.8-1.6,2-2Z"/>
      <path class="st11" d="M406.3,69.4c.9,2.7-5,2.9-6.5,3-13,1.1-26.4-1.1-39.4,1-.5-2.8.6-1.7,2.3-2.1,13.5-3.6,29.7-1.1,43.6-1.9Z"/>
      <path class="st4" d="M410.3,79.4c-.6,3,1.5,1.9,3.4,2,3.6.2,7-.4,10.5,1-1,8.4,2.1,17.1,1,25.9-3.3-.7-6.4.8-9.4.9-4.6.2-11.4-1.6-15-1.8s-9.5,1.5-13.2,1.5c-11.2,0-22-2-33.3.4,0,1,0,2,0,3,0,2.6,0,5.3,0,8s0,2.7,0,4v7c-.5,0-2,1.1-4.4,1-3.7,0-15.3-1.4-18.8-2.3s-4.3-3.8-4.7-7.3c-.9-8.4-.5-18.1-1-26.4s0-4.9,0-7.3c.2-.8,2.2-1.3,3-1.7,10.6-3.8,31.6-4.7,43.4-6,1.9-.2,4,1.2,3.5-2,11.5-.5,23.4,0,34.9,0Z"/>
      <path class="st8" d="M461.2,80.4l-5,2c-7.2-2-14.9-2.5-22-5,14-1.6,13.1-2.7,26.9,3Z"/>
      <path class="st10" d="M375.3,79.4c.6,3.2-1.6,1.8-3.5,2-11.8,1.3-32.8,2.2-43.4,6,11.1-5.7,25.6-6,37.9-7s3.7-1,4-1c1.7,0,3.3,0,5,0Z"/>
      <path class="st4" d="M426.2,80.4c-2.5,0-6.4.7-8-1,2.5,0,6.3-.8,8,1Z"/>
      <path class="st4" d="M370.3,79.4c-.3,0-2.1.9-4,1l4-1Z"/>
      <path class="st8" d="M462.2,85.4c-.3-.3-.7-.6-1-1,.4.3.7.7,1,1Z"/>
      <path class="st11" d="M378.3,541.5c-.2,0-.6,1-1.5,1s-1.3-1-1.5-1h3Z"/>
      <path class="st0" d="M453.2,142.3c-3.5,4.5-2.1,11.8,2.5,15l-3.5,1c-.2-6.9-.7-2.2-6-5,.9-3.4,6.6-7.9,2-11,1.7,0,3.3,0,5,0Z"/>
      <path class="st0" d="M463.2,141.3v3c-1.4-2-6.5-3.6-9-3,2.3-2.2,6.2-.7,9,0Z"/>
      <path class="st13" d="M363.4,500.5c4.2-.9,2.4,1.6,3.3,2.7s1.6.2,1.7.3-.1,1.2.4,1.6c2.6,2.4,8.2,4.1,8.5,4.5,2.7,3.2-.9,3.6-2.9,3.9-6.1.7-3.6,3.8-4,9,2,.1,4-.1,6,0,6.1.4,6.4,0,11-1s.7,0,1,0,.7,0,1,0c.9-.1,2,.1,3,0s.7,0,1,0c.7,0,1.3,0,2,0,.9,1.6,5,1.6,6,0,1,0,2,0,3,0s.7,0,1,0c.7,0,1.3,0,2,0,3.4.1,3.9.4,8,0,2.4,5.3-.3,10.7,1,16-19,1.7-33.4.5-51.9-1,1.5-1.7.7-3.2.5-5-.9-10.9-.9-20.5-1.5-31Z"/>
      <path class="st6" d="M443.2,535.5c-1.3,0-2.7,0-4,0,3.3-5.2.7-8.7.9-13.4s2-5.1,1.8-6.9-2-3.2-1.8-6.2,2.1-3.5,2.1-5-2-.4-2.1-1.1c-.1-1.5,2.6-10.8,2-11.4l-7,1c.3-.9.7-2.1,1-3s-.1-1.4,0-2c4.1-.4,4.3-10.8,4-13.6s-1-2.3-1-2.4c-.2-1.4-.7-3.4-1-5s1.2-.3-1-4c4.9.7,3.1-15.2,2.5-16s-3.2-1.9-3.5-2c-.2-2.8,1.8-5.3,2-8h1c1.7-.6.8-3.3,1-5s0-3.3,0-5c0-3.1.4-6.6,0-10,7-.3,3.8,8.3,4.1,11.4.8,8.6,4.1,23.6,4,31.1s-1.8,4.6-2.2,7.9c-.8,7,2.5,14.7,2.1,18.9s-3.6,6.1-3.8,8.2,2.4,3.9,1.8,7.7-3.6,6.1-3.8,8.3,3.2,3.2,3.7,5-1,3.7-.9,5.7c.3,6,2.4,8.4-1.9,14.5Z"/>
      <path class="st12" d="M435.2,492.6l7-1c.6.6-2.2,9.9-2,11.4s2.1.4,2.1,1.1c0,1.4-2,2.5-2.1,5s1.7,4.4,1.8,6.2-1.7,4.4-1.8,6.9c-.3,4.7,2.4,8.3-.9,13.4-3.5.1-7.7-.4-11,0-.8-1.7-.6-3-.4-4.8.7-6.3,1.4-11.9.4-18.2,0-.3,0-.7,0-1,2.8.6,3.6-2.8,0-3s-1.3,0-2,0c-3.1-6.4.5-4.1,2.5-6s1-4,1.5-5,1.4-1.5,2-2c1,.1,1.4-.2,2-1s.9-1.7,1-2Z"/>
      <path class="st14" d="M428.2,512.5c1.1,6.3.4,11.9-.4,18.2-.2,1.8-.5,3,.4,4.8-3.3.4-7.1,1.6-12,2-1.3-5.3,1.4-10.7-1-16,1.6-.1,14.6,0,11.5-4.1-.6-.7-2.4-.8-2.5-.9-.3-.5.2-3,0-4,1.3.2,2.7-.1,4,0Z"/>
      <path class="st15" d="M463.2,169.2c-.2.2.5,2.2-.2,2.8s-2.5-.4-2.8.7c-.7,2.1,1.8,1.2,2.9,3.1s0,2.1.1,2.4c-7.1,4.1-6.8-14.4,0-9Z"/>
      <path class="st6" d="M443.2,134.3c1.9.2,6.2,2,8.5,1.9s6.7-5.1,7.4-1.4-6.3,4.3-9,5-3.5-.1-3,2.5c-.3,0-.7,0-1,0l-.5-1-.5,1c-.7,0-1.3,0-2,0-.8,5.2.2,7,2,11s-.4,2.6,0,2.9c.7.6,4.5-.3,5,0s-.3,6.7.4,9.1,3.4,2.3,3.6,4.4.1,7.2-.1,7.5-3.4-.5-4.5,1,3.8,9.4-2.4,8c-1-3.2-6-12.3-10-12-.3-.3-.7-.7-1-1-.1-.6.2-1.6,0-2l2.9-7.6c.6-4.2-2-11.6-2-14.8,0-6.2,7.7-10.3-5.9-9.5v-3c.7,0,1.3,0,2,0,3.1-.3,8.9,1.5,8-2,.7,0,1.3,0,2,0Z"/>
      <path class="st4" d="M387.3,130.3c.3,0,.7,0,1,0,0,.6-.2,1.9,0,2,1.1.8,10.9-1.7,13-2s1.4.1,2,0c-.5,3.2,1.4,1.8,3.2,1.7,3.5-.1,7.1-1.1,10.7-.7s.7,0,1,0c.5,0,5.9,2.2,6,2.5,1.4,4.1-4.4,1.4-6,4.5-1,.1-2-.1-3,0-9.1,1.3-18.4,5.3-26.9,5-.7,0-1.3,0-2,0,1.1-4.9-4.2-2.5-7.3-3.2-6-1.4-11.8-5.1-18.7-3.8,0-3.8,11.2-3.9,14.5-4.1s6.9,3,7.5-1.9c1.7,0,3.3,0,5,0Z"/>
      <path class="st9" d="M363.4,111.3c3.5-.4,6.8-1.5,10.6-1.1s.6,2.3,2.4,2.1c1.5-5.7,4.2.1,4.5,0,1.1-.5,2.1-2.8,4.5-2l-2.1,9.9c-3.6-.7-6.4-.2-9.9,0l-1-8-4,1c-.3,1.5,3,1.4,3,2.5s-3.3.9-3,2.5l3,2c-2.6.1-5.7,0-7,0l-1-9Z"/>
      <path class="st9" d="M375.3,123.3v7c-6.8.3-13.9.7-21,1v-7c5.1-3.1,4.5.5,5,.9,2,1.6,1.9-1.7,2.6-2,3.7-1.1,3.1,1.6,5.4,3-.6-5.1,1.2-2,3.5-2.5s2.8-.4,4.5-.5Z"/>
      <path class="st9" d="M392.3,128.3v-6c7.3.3,14.8,1,21.9,0,1.7,8.9-4.6,6.9-11,8s-1.4,0-2,0l-2-5c-3.4,3.4-.3,2.9-5,4-.4-.9-1.3-.8-2-1Z"/>
      <path class="st6" d="M407.3,113.3c.4-2,.1-2.5,2.5-3,6.3-1.2,5,1.6,5.5,2v5s1.5,0,1.5,0l.5-5c.2-.1-.6-3,2.5-2s.3,3.3,5.5,1c-3.5,4.3-.7,5.6,0,10-3.1.7-2.4-4.6-4.9-2.8s.3,2.7-2.6,1.9,1.5-2.5-3.5-1l-2,1c-.3,0-.7,0-1,0l-3-1c-1.3-1.3-.8-1.5-1-3s-.1-2.2,0-3ZM413.2,112.3h-4c-1.3,7.3,5.1,8,4,0Z"/>
      <path class="st9" d="M407.3,116.3c-3.1-.8-1.4,2.2-2.6,3.1-10.1,7.1-11.5-14.2-1.6-9.4,2,1,1.7,3.7,4.2,3.3-.1.7,0,2.2,0,3Z"/>
      <path class="st6" d="M363.4,111.3l1,9c-1.5,0-4.3.2-5.3.3-2,.3-2.8,3.8-4.7-.3,0-2.7,0-5.3,0-8,2.9-.6,6-.7,9-1Z"/>
      <path class="st9" d="M431.2,136.3v3c-4.9.3-8.3.9-13,2s-9.4,2.6-14,4v-2c.5-.1,1.6-1.2,2.9-1.6,3.1-.9,6.7.5,8.1-3.4,1-.1,2,.1,3,0,4.4-.6,8.7-1.5,13-2Z"/>
      <path class="st6" d="M435.2,124.2c-.5.4-3.8-.1-4.9,0,1.1-2.5-2.1-11.1.6-11.9,7.2-2.1,5.5,10.8,4.3,11.9Z"/>
      <path class="st9" d="M421.2,122.3c3.9.6,1,2.5,2.5,3,2.8,1,0-4.2,3.5-3-.4,5.9,2.4,8.4-4.7,8.7s-1.2-.7-1.3-.7v-8Z"/>
      <path class="st1" d="M387.3,130.3c-5.5-4.6,1.7-13.3,4-6-2.5-1-4.3,1.5-3,3s2.8.6,4,1,1.6.1,2,1c-1.9.4-4.1.9-6,1s-.7,0-1,0Z"/>
      <path class="st9" d="M392.3,110.3c.5.4-.4,5.2,0,6.5s4.3-1,3.1,3.5h-6s0-10,0-10h3Z"/>
      <path class="st9" d="M377.3,123.3c.6,0,3.2-2,5-1-1.6,2.6.2,6,0,8-1.7,0-3.3,0-5,0v-7Z"/>
      <path class="st9" d="M420.2,122.3c.7,2.5-3,2.8-3,3.5,0,2.5,3.7,1.7,3,4.5-.9,0-1.7,0-2,1-.3,0-.7,0-1,0-3.3-5-3.9-8.7,3-9Z"/>
      <path class="st1" d="M373.3,120.3c-.7,0-1.3,0-2,0l-3-2c-.3-1.6,3-1.4,3-2.5s-3.3-.9-3-2.5l4-1,1,8Z"/>
      <path class="st1" d="M421.2,130.3c-.3,0-.7,0-1,0,.7-2.8-3.1-2-3-4.5s3.7-1,3-3.5c.3,0,.7,0,1,0v8Z"/>
      <path class="st1" d="M377.3,123.3v7c-.7,0-1.3,0-2,0v-7c.7,0,1.3,0,2,0Z"/>
      <path class="st9" d="M417.2,112.3l-.5,5h-1.5s0-5,0-5c0,0,1.9,0,2,0Z"/>
      <path class="st9" d="M411.3,120.3c-1.6,0-1.8.2-3-1l3,1Z"/>
      <path class="st9" d="M414.3,119.3c-.1,0-.4.7-2,1l2-1Z"/>
      <path class="st15" d="M445.2,142.3c.3,0,.7,0,1,0s.7,0,1,0,.7,0,1,0c4.6,3.1-1.1,7.6-2,11h-1c-1.8-4-2.8-5.8-2-11,.7,0,1.3,0,2,0Z"/>
      <path class="st11" d="M372.3,168.2c10.7-3.7,23.9-6,35.4-5s9.6,2.4,14.5,3l-1,3c4.6-.7,2.5,1.2,3,4-8.4-8.4-10.1,10.3-1,10,0,.2,1.3,1.3,1.1,2.3s-3.7,1.2-3.1,3.7c-5.4,0-11.8,5.2-11,11-4.3-1.6-6.7-5.6-11.4-7-19.7-6.1-27.5,16.6-41,17.1-5.4.2-5.5-3.5-5.5-8-2.8.2-3.5,5.6-4,6s-1.5-.3-1.9.1c-.8.8.9,1.8.9,1.9.5,8.1-1.1,11.2,3.6,18.9s11.4,12.1,16.9,13c18.5,2.9,43.4-5.3,44.4-26.9,3.4.7,4.8,3.8,7.9,5.5s5,1.9,8,2.4c.8,3-.9,7.3-.7,9.7s3,3.5,1.3,6.3-6.5,4.8-8,6-1.2,2.5-1.7,2.8c-1.9,1.1-13.3,2.6-16.3,3.2s-3.5,0-3.5,3c-1.5.2-3.4-.1-5,0-2.4-1.7-6.6-1.7-9,0-1.6-.1-3.5.2-5,0,.6-2.9-1.4-1.8-3.2-2.3-4.5-1.2-10.5-2.3-14.8-3.7s-.7.1-1,0c-1.2-5.3-7.9-4.1-7.2-9.7l-7.8-6.2c-.3-.7-.7-1.1-1-2,2.1-3.3-1.4-7.6-1.9-11.6-.9-7.4,1.7-19.1,3.9-26.3s0-.7,0-1c4.2-1,3.9-3.7,5.1-6.2s1.5-.2,1.9-2.8-.1-2,0-3c1.4-.6,1.5-1.6,2-2,2.7,0,3.5-1.4,5-3s.8-.6,1-1c3.5-2.1,6.1-3.6,10-5ZM383,175.5c-8-6.7-10.3,12.7-2,13.4,6.1.6,5.5-10.6,2-13.4Z"/>
      <path class="st12" d="M347.4,241.1c3.1.8,3.8,2.1,6,3s.7-.1,1,0c-.3,4.1,8.1,5.3,9,7.5,1.3,3.2-4.5.1-5,.5,0,.7,0,1.3,0,2-1.3-.3-2.7-.7-4-1-.1-.3.3-1.2-.2-1.8-1.4-1.8-10.6-3.8-11.7-.6s-.7,11.6-.8,14c-.1,10.8,1.4,21.9.5,32.8-.3,2,1.9,1.3,2.1,1.4s-.8,2.1,1.5,2.1c7.9,0,3-12.1,4.6-16.5s3.1-1.2,3.7-1.9c1-1.1-1.3-3.7,3.2-2.8l1,15c.1,1.3,1.1.9,2,1,3.8.4,3.3-1.2,6-2,.1,3.2.5,1.9,4,2,0-1,0-2,0-3,.3,0,.7,0,1,0,1.7,0,6.7,1.3,7,1s-.3-2.7,0-3c.7-.7,6.3,1.9,7.8-.3s-1.9-2.2,3.2-2.7c.2.7-.5,1.7.5,2,2.6.8,2.4-.2,2.5-2,.3,0,.7,0,1,0,1,0,2-.1,3,0,.6,5.8,9.5,1.5,12.3,2.1s1.4,1.7,1.6,1.9.3.6,1,1,1.4-.2,2,0,.3.9,1,1,1.3,0,2,0c-.9,3.2,4.1,1.9,7,2s4.7-.1,7,0,.7,0,1,0c-.4,2.9,2.3,3.5,2.9,4.8s-.3,2.3.2,3,3.3.2,4.4,2.2c1.5,2.9-1.1,13.3-.5,16.9-4.7-2.3-3.6.7-4.7,1s-2.2,0-3.3,0c-1.1-4.8,1.9-16.6,0-19.3s-9.6-2.9-12.1-3.7c-13.7-4.4-17.3-6.9-31.9-4-5.5,1.1-11.4,2.1-16.8,3.7s-29.1,11.3-31.1,9.3v-69.9c.5-.5,7.5.6,9,1Z"/>
      <path class="st13" d="M418.2,300.9c1.3,5.1-.7,10.7,0,15.5s1.5,5.2,2,8.4c-3.3,0-8.3-1.4-12-1,1.3-9.1-1.6-9.9-10-10,0,.7,0,1.3,0,2-.7,0-1.3,0-2,0s-.7,0-1,0l-.5-1-.5,1c-.7,0-1.3,0-2,0-.9-1.6-5-1.6-6,0-1.2.3-.8,1.5-1,2-1.3,2.6-.6,3.7-1,5s-2.5,1.3-2,3c-.3,0-.7,0-1,0-2.8-.4-17.6-2.9-19-2-.9-1.4-.8-5.7-.7-7.3s1.5-1.8,1.6-3.1c.1-2.4-2.4-5.3,0-8.1s16.5-4.1,20.8-5.2,2.6.4,2.3-3.1c14.7-2.9,18.3-.4,31.9,4Z"/>
      <path class="st13" d="M386.3,143.2c.7,0,1.3,0,2,0,4.3,3.1,11.1,1.2,16,0v2c-1.2.4-2.3,1.5-4,1l3,8-4,2,10-1h1c-.1.3,0,1.6,0,2s.5.9,1,1v3c-12.2-1.3-28.7-.2-38.9,7-3.9,1.4-6.5,2.9-10,5,.5-.8,2.6-4.4,2-5h-4c.3-2,.7-4,1-6,.7-.6,1.3-1.4,2-2l-1,7c1.5,1.8,4-3.9,4-5,2.4-1.3,4.5-3.5,7-4.5,4-1.6,7.7-.7,11-3-4-4.3-8.5-4.3-14-2.5.2-.4-.4-2,.2-2.8s7.4-2.4,4.8-6.1-10.8-2.5-12.9-3.1-2.6-1.3-3.8-1.7c-2.5-.8-4.9.9-4.2-2.3,10.4.9,22.2,6.4,31.9,7Z"/>
      <path class="st10" d="M414.3,459.6c-.4.2-.9,1.4-2.6,1.7-3,.6-8.8.2-11.4.7s-7.7,3.7-8.5,4.5c-2.5,2.3-.5,2.5-.5,3s-.2,1.6,0,2,.7.7,1,1c2.4,2.8,4.5,1.3,6,4-1.8-.1-5.6-.4-7,.5-3.3,2,.6,2.6.7,2.8.5.8.2,1.5.3,1.7.8,1.4,5,8.9,5.5,9,5.4,1,3.4-6.1.4-8,1,.2,3-.5,3.8.1,1.9,1.4,2.7,12.6,2,15.1s-4.9,1.7-3.7,5,4.4,2.7,6.8,1.7c-.8,2.4-.8,2.7-4.7,2.9-5,.3-2.8-1.4-4.3-2.4-2.2-1.5-5.3,1.6-8,2.5.3-4.3.5-4.4-4-4v4c-2.9-.4-16.3-2.7-18-4s-2.3-7-5-6c0-.7,0-1.3,0-2s0-1.3,0-2c0-1,0-2,0-3l2-3c.4-.3.7-.7,1-1,.9-.7,1.7-1.8,2-2,.8-.5,4.2-2.7,5-2,2.2,2-9.7,6.6-7.5,11.9,2.5,6,18.6,4.3,24.5,5,.9-2.5-1.3-6.7-1.1-8.3s2.8-1.1,3.1-2.2c.5-2-2.5-3.7-3-4.4s-1.9-5.9-3-7c2.5-2.8-1-5.4-1-9s.9-2.2,1-3,0-1.3,0-2,0-.7,0-1v-1c9.5-.6,14-1.9,23-4,1.1,1.7,3.1,2,5,2Z"/>
      <path class="st13" d="M376.3,336.9c0,1.1,1.9,2.6,2,3,.1.6,0,1.3,0,2-2.4-1.3-2.6,3.1-2,4s1.4,0,2,0,1.3,0,2,0c1.2,0,1.2,0,2,0s1.3,0,2,0c-1.3,4,6.9,1,8,2,.1,1.4-.7,2.6-1,4s-1.4,1.2-1.1,3.4,1.8,2.2,2.1,2.5-.1,1.4,0,2h-1c-.4-2-3.5-4.2-4.5-6-2.2,1.6-4,3.8-5.9,5.6s-1.9,0-2.7,1-3.1,8.8-5.9,6.3,1.4-2.8,1.8-3.8,0-2.7.2-3.2c1.3-3.5,6.6-7.7-2-9-.8-1.1-.7-.9-2-1-7.8-.7-7.6,8.9,0,10,1.4,2.5.2,5.8,0,9-.4,6.9-1.2,9.5,3,16-2.3,1.6-2.6,1.3-3.6-1h-1.3c-2.8-2-5-2.6-8-4,1.5-.4,1.8.4,4-1s2.3-7.9,2.1-10.5-1.5-5.9-4.1-5.5c0-.3,0-.7,0-1-.2-2.4-1.4-4.5-1.1-7.5s2.3-4.2,2.1-4.9-2.6-1.2-2.9-1.7.7-7.3-.1-8.8c2.1,0,3.8-1,4-1,.7,0,1.3,0,2,0s2.2.3,5,0,3.5-.9,5-1Z"/>
      <path class="st13" d="M370.3,400.7c.1.1.4.8,2,2s1.3,1.4,2,2c1.8,5.7-3,13-2.7,17.7s1.8,2.4,1.6,4.5-2.4,4.2-2.8,6.3.4,4.8,0,6.7-8.4,4.3-10,4.7c1.9-4.8-2.7-7-3-10.5s0-8.5.2-9.7c.2-2.6,3.1-5.6,2.8-8.2s-2.6-2.7-3-5-.2-8.1,0-8.5,1.5.4,2-.7c1-2.4.5-5.7,0-8.2,1.1.5,9.9,6.2,11,7ZM369.3,427.7c-2.7-7.5,2.9-20.1-8-21.9,2.7,5.2,2,11.4,3,16.3s1.6.7,1.7.9c.4,1.3-1.3,4.8,3.3,4.8Z"/>
      <path class="st7" d="M357.4,325.9c.3,0,.7,0,1,0-.7,1.8.7,3,1,4s.2,3.4.9,4.4,5,1.2,4.1-.9c-1.1-.5-2.5-3.2-3-3.5-1.2-7.2,10.5-3.3,8-1l-4,.5c.6,1,2.4,1.3,3,2,1.2,1.5.3,3.6,2,3.5.1-8.2,7.1-14,8.1-2.8l2.9,3.8v-10c.3,0,.7,0,1,0,.8,0,2.9-.2,3,0,1.3,1.5-3,9,4,9,1-3.8,1.4-10.4,7-9,0,.3.8,1.1,1,2,.7,3,2.2,5.8,2,9-1.9.3-3.8-1.1-5.6-1.1s-1.2,1.9-2.1,2.1c-4.1.8-11.5-1.3-15.3-1s-3.3.8-5,1c-1.6-1.2-3.4-1.2-5,0-.7,0-1.3,0-2,0-2.2-1.4-4.2,0-6,0s-.7,0-1,0c.3-5.1-6-.2-6-3.5s1.6-7.9,6-8.5Z"/>
      <path class="st0" d="M354.4,179.2c-.1,1,.2,2.1,0,3-2.6,1.6-6.1,6.1-7,9s0,.7,0,1c-6.5,9.9-7.2,23.2-4,34.4s1.7,2.7,2,3.5.7,1.3,1,2,.1,2.6,1.1,4.3,4.7,4.7,5.9,7.6c-2.2-.9-2.9-2.2-6-3-1-2.3-2.1-5.2-3.2-7.3s-2.4-1.4-2.8-2.4c-4.6-14.7-2.1-30.2,4.3-43.9s1.8-.7,2.1-1.3c1.1-1.9,0-4.5,2-6.1s3.6-.5,4.6-.9Z"/>
      <path class="st13" d="M364.4,468.6c.2,0,2.7.8,3,1-.3,2.8.2,1.7,2,2s1.4-.1,2,0c.4,3.9-4.8,0-2.9,5.4s6.3,1.5-.1,6.6v-4s-6,0-6,0c-.6,3.9.6,3,4,3v4c-.3.2-.6.7-1,1s-1.8,0-2.6,1c-1.1,1,.6,1.9.6,2,0,1,0,2,0,3l-1,2h-2c0-2,0-4,0-6s1.7-3.4-2-5l1-13c.9-.3.9-1.9,1-2,.2-.2,3.5-1,4-1Z"/>
      <path class="st9" d="M362.4,140.3c2.1.6,12.1,1.8,12.9,3.1,2.6,3.7-4.5,5.8-4.8,6.1-.6.8,0,2.4-.2,2.8-.6,1-4.2,6.1-5,7s-1.5.6-2,1-1.3,1.4-2,2c0,0-.8-.6-.7-1.3,1-7,4.5-12.7,1.7-20.6Z"/>
      <path class="st9" d="M350.4,380.8c2.3-.2,2.1-.1,2,2s0,.7,0,1c-.3,2.8,0,2.2,0,4,0,3.1-1.7,4.2-2,7,2.6,0,3.9-3,6-3,.2.5-.2,1.8,0,2s1.5-.2,2,0,.7-.1,1,0c.5,2.5,1,5.8,0,8.2s-1.9.6-2,.7l-2-6c-6.8,6.2-9.3,2.9-10-5h4c-1.1-2.5-1.5-5.9-1-8.5s1.7-2,2-2.5Z"/>
      <path class="st12" d="M362.4,361.8c0,.3,0,.7,0,1,0,4.6-1.5,2.4-2,3,2.7-4.7-6-2.6-6,.5s4.8,1.7,6,1.5c.1.8,1.3,1.7.9,3.3-1.1,4-6.9,3,3.1,7.7-2.2,1.4-2.5.6-4,1-2.8.7-5.4.2-8,3,.1-2.1.3-2.2-2-2,.4-.7.7-2.6,1.1-2.8,2.3-1.3,5.8,2.1,2.6-4.4s-3.9-3.5-2.6-7.1,2-1.2,2.6-2-.2-2.2,1.5-3,4.6-.4,6.8.3Z"/>
      <path class="st7" d="M344.4,325.9c.2.2-.5,2,.5,2l3.5-2c.6,0,1.4,0,2,0-.2,3.6.8,7.6-1,11-.7,0-1.3,0-2,0l-1-4-3,4c-1,0-2,0-3,0v-11c.9.2,3.6-.3,4,0Z"/>
      <path class="st0" d="M381.3,325.9v10s-2.9-3.8-2.9-3.8c-1-11.3-7.9-5.4-8.1,2.8-1.7,0-.8-2-2-3.5s-2.4-1-3-2l4-.5c2.6-2.3-9.1-6.2-8,1-.3-.2-1.4.1-2,0-.3-1-1.7-2.2-1-4,6.1-.8,3-1.3,4-2s16.1,1.5,19,2Z"/>
      <path class="st9" d="M360.4,469.6c.8-1-.7-3.9-2-4.5s-3.7.9-4,.6.5-2.6-.2-3.8-2.3-.9-3.3-2.2-4.1-9-4.2-9.6c-.5-4.1,4.3-10.2,7.6-7.3s-2.9,4.2,6.1,1.9c-.5,1.2-2.1,2.3-2,4-.3,0-.7,0-1,0-4.7,0-4.5-5.6-8-3-.3.9.7,8.1,1.1,9.2s3.9,5.3,4.2,5.5c.6.5,1.6.1,1.7.2.9.7,2.1,1.3,3,2s1.5,3.3,4,3c0,.7,1.1,2,1,3-.5,0-3.8.8-4,1s-.1,1.7-1,2l-1-.5c-.7-2.1,1.9-1.3,2-1.5Z"/>
      <path class="st9" d="M332.4,168.2h-2v-16.5c0-1.1-2-4.3-1-6.5.9-.4,3,.8,3,1.5v21.5Z"/>
      <path class="st0" d="M353.4,323.9c2.4.4,4.6-1.2,4,2-4.4.5-6,4.1-6,8.5s6.4-1.6,6,3.5c-3.2,0-6.2-.9-8-1,1.8-3.3.8-7.3,1-11,1.5-.2,2.5-.4,3-2Z"/>
      <path class="st9" d="M353.4,323.9c-.5,1.6-1.5,1.8-3,2s-1.4,0-2,0-3-2.6-4,0c-.4-.3-3.1.2-4,0v-1c.2-.3-.6-1.7.6-2,3.2-.8,8.9.5,12.3,1Z"/>
      <path class="st9" d="M332.4,232.1c-.3,3.7.5,7.9,0,11.5s-.8,3.1-2,1.5c.3-3.7-.5-7.9,0-11.5s.8-3.1,2-1.5Z"/>
      <path class="st0" d="M340.4,325.9v11c-.4,0-1.9.1-2,0-.3-.4-.1-9,.2-10.3s1.6-1.3,1.8-1.7v1Z"/>
      <path class="st9" d="M360.4,168.2h4c.6.5-1.5,4.2-2,5s-.7.7-1,1c-.6.1-1.6-.2-2,0,.3-2,.6-4,1-6Z"/>
      <path class="st0" d="M347.4,336.9c-.7,0-1.9.2-4,0l3-4,1,4Z"/>
      <path class="st9" d="M360.4,489.6c-2.8.8-2.2-2.4-2-5,3.7,1.6,2,3.6,2,5Z"/>
      <path class="st0" d="M364.4,337.9c-.2,0-1.9,1-4,1s-1.7,0-2-1c1.8,0,3.8-1.4,6,0Z"/>
      <path class="st1" d="M363.4,497.5c2.6-1,4.3,5.5,5,6,1.7,1.3,15,3.6,18,4s1.1.9,4,0,5.8-4,8-2.5c1.5,1-.7,2.7,4.3,2.4,3.8-.2,3.8-.5,4.7-2.9s0-.7,0-1c.4-.2.9-.5,1-1s-.1-.7,0-1c3.1,0,4.9-2.4,8-4,.7,2.8-.8,2.7-2,4s-2.3.7-2,2.5,4.5,1.7,6,1.5l-1,3c3,.1,6-.2,9,0s1.3,0,2,0c0,1,0,2,0,3s0,.7,0,1c-1.3-.1-2.7.2-4,0-3.2-.4-1-1.7-3-2-.9,4-9.6,3.7-13,3-.5,3.2,2.1,1.1,4,4s-.3,1.6,0,2,7.5.2,7.8,0c.4-.4,0-1.7.1-1.9.7-.8,2.8-1,4-1,.1.2,2,.2,2.5.9,3.1,4-9.9,3.9-11.5,4.1-4.1.4-4.6.1-8,0-2.1-6.8-10.5-4.2-15.5-3.9-3.4.2-3.7-3.5-4.5,3.9-4.6,1.1-4.9,1.4-11,1,1.5-3.8,2.6-7.9-2-9,2-.2,5.5-.7,2.9-3.9s-5.9-2-8.5-4.5-.2-1.5-.4-1.6-1.2.3-1.7-.3c-.9-1.1,1-3.6-3.3-2.7,0-1,0-2,0-3ZM405.8,514.5v1c.6-.3.6-.7,0-1ZM386.3,517.5c-.2-.3-5.9-.6-7-1,.2,1.2-.4,3,0,3.9.8,1.4,9.9.3,6.9-2.9Z"/>
      <path class="st13" d="M361.4,174.2c-1.5,1.6-2.3,2.9-5,3,1-.8,2.3-2.7,3-3s1.4.1,2,0Z"/>
      <path class="st1" d="M363.4,495.5h-1l1-2c0,.7,0,1.3,0,2Z"/>
      <path class="st6" d="M437.2,336.9c.1,0,.5,1.6,1.7,1.8,2.5.5,5.4-2.5,8.2,1.8,2.4,3.7-.2,4.5-.7,7.1s-.4,7-1.7,10.3-2.8,1.4-2.6,4.4,5.8,6.8,6.1,9c.3,2.8-1.9,6.8,0,10.4-7-.5-.9,5.3-.9,7.4,0,4.1-3.8,15.8-2.2,17.9s3.5-.6,3.1,2.1-5.9,5.1-8,6.5c-.2-1-1.1-1.6-2-2,0-.7,0-1.3,0-2,0-1.2,3.2-4.5-1-4,0-.7-.1-1.4,0-2,.4-2.4,4.8-13,3.9-13.9s-1.8.2-2.6-.3-.2-1.7-.3-1.7c2.9.6,3.2-.5,4-3s.8-3.6,0-6-.9-3-1.6-3.1c-8,1.1-6.6,4.2-6.4,11.1h-1c-6.5-2.9,2.1-8.6-6.3-6.8s-3.4.5-5.7.8c7.7-3.2,16.1-8.9,10-18,.3,0,4.6-.8,5.3-1s1.6-2.1,1.7-2.5c.4-2.7-2-.6-3.1-2.1s-.7-3.1-.9-4.4c-.9-.2-1.6-.9-2-1-.1-.6.2-1.5,0-2,3.1-.5,1.6.9,2,3,2.4.5,8.1,2.4,8-1.5s-3.8-10.3-4.1-10.9c-1.4-2.3-4.4-2-3.9-4.6.5,0,.9-.5,1-1,.6,0,1.5-.1,2,0Z"/>
      <path class="st6" d="M432.2,295.9c2.5.5,5.5,4.1,7.7,4.8s4.6-.6,5.2.2-.2,2.4.9,3.6c2.2,2.5,5.6-.4,4.1,7.4,3.7,1,.6-6.3,2-8,2.9-.8,2.2,2.6,2,4.5-.4,4.5-2.5,7.4-3.8,11.2s-.1,4.1-.3,4.2c-.6.7-2.5-2.6-5,1s-.9.8-1,1c-.9-.1-2.2.2-3,0s-1.1-1.3-2.4-1.1-.4,1.2-2.6,2.1c0-.6,0-1.3,0-2-1-.1-2.5.1-3,1-1.4.2-2.7-.6-3-2,1,0,2.2.3,3.3,0s0-3.3,4.7-1c-.5-3.7,2-14,.5-16.9s-4-1.7-4.4-2.2.1-2.4-.2-3c-.7-1.3-3.4-1.9-2.9-4.8.3,0,.7,0,1,0Z"/>
      <path class="st7" d="M446.2,201.1c1.7,7.7,0,7.1-.9,13.6s-1,4,1.9,3.4c-.6,1.9-2.3,7.5-3,9-1.3,2.7-6.6,8.4-7,10-4.4,1.5-10.5,8.3-16,11s-1.6.8-2,1c-5.5,2.3-14,4.1-20,5,0-3,1.4-2.6,3.5-3s14.3-2.1,16.3-3.2.7-2,1.7-2.8c1.5-1.2,7.4-5.1,8-6,1.8-2.8-1.1-4.2-1.3-6.3s1.6-6.7.7-9.7c1.2.2,2.7-.1,4,0s2.4,2.9,2-1c10-5,11.4-9.8,12-21Z"/>
      <path class="st6" d="M437.2,237.1c.7-.2,2.1.5,2.8-.2s.9-6.2,5.4-4.6,4.4,2.8,4.5,3c2.5,4.4-5.7,7.6-5.8,12.8-5-.2-6.3,2.4-9,3-2-4.9,1.2-5.5,2-10,.2-1.2-.3-2.9,0-4Z"/>
      <path class="st0" d="M444.2,248c5.9.3,4.5,12.7,3,17,0-.3,0-.7,0-1,.2-2.1.2-5.9,0-8s-.2-1.6-1-3c-1.6-2.8-6.2-2.8-9-1.5s-3,6.6-3,9.5c-3.3-.5-5.3,0-7,3,0-1-.3-3.4.1-3.9,1.4-1.6,6.8,1.4,4.9-7.1l-10,2c1-5.2,8.9-3.1,13-4s4-3.2,9-3Z"/>
      <path class="st0" d="M442.2,260c-.1,1-.2,3.1,0,4,.5,2.7,1,3.2,4,3-.2.7-1.4,1.6-1.7,2.7-1.4,5.2,1.3,3.7,2,5.5,2.3,5.8,2.9,15.9,1.7,22s-2.9,2.3-3,3.7c-.6-.8-4.3,0-5.2-.2-2.2-.7-5.3-4.3-7.7-4.8,2.5-7.3-4.9-7-5-7.5-.2-1.3-.3-11.9,0-12.4s1.5,0,2,0c-1.3,5.4-3.5,13.6,5,12,.1,3.3-.5,6.6,2.5,9s8.2,3.1,9.5,0,1-16.7-1-20.3-1.8-.5-2-.7.2-.9,0-1c0-2.4.7-3.5-2-3-.6-2.3-1.8-4.2-2.1-6.5s.8-4.5,1.1-6.5l2,1Z"/>
      <path class="st15" d="M448.2,190.2c0,.3,0,.7,0,1,1.4,9.9,1.8,17.3-1,26.9-2.9.6-2.2-1.5-1.9-3.4,1-6.5,2.7-5.9.9-13.6s-2.1-5.2-2-8c.9,1.2.5,3.1,2,3,1.9-4.2-5.5-7.9-1-10,.7,1.2,2.1,2.8,3,4Z"/>
      <path class="st15" d="M445.2,324.9c5.3-3.2,6.5,10.5,6,11s-4.1-1.2-5.4-1-2.2,3.9-6.6,2c0-.7,0-1.3,0-2,6.6,1.2,3.7-4.6,5-9s.7-.6,1-1Z"/>
      <path class="st0" d="M448.2,191.2c1.7,1,1.9,2.7,2,4.5.9,10.2.3,19.1-3.5,28.5-.6,1.5.1,3.5-2.5,2.9.7-1.4,2.4-7,3-9,2.8-9.6,2.4-17.1,1-26.9Z"/>
      <path class="st7" d="M436.2,326.9c0,.6,0,1.3,0,2,2.4-.8,3.3-2.2,3,1,0,.2,0,3.7,0,5-.3,0-.7,0-1,0s-1.2-2.5-2-2l-2,3c.3-1.7-.5-8.3,0-9s1.5.2,2,0Z"/>
      <path class="st15" d="M433.2,325.9c.4-.9,2-1.1,3-1,0,.7,0,1.3,0,2,2.2-.9,2.4-2.1,2.6-2.1,1.3-.2,2,1,2.4,1.1,1,2.2-1.9,3.8-2,4,.4-3.2-.6-1.8-3-1,0-.7,0-1.3,0-2-.5.2-1.8-.2-2,0-.5.7.3,7.3,0,9l2-3c.8-.5,1.7,1.9,2,2l-1,2c-.5-.1-1.4,0-2,0s-.7,0-1,0c-1.6-.1-3.3,0-5,0,4.8-2.1,5.4-5.2,2-9,3.2.5,1.5-1,2-2Z"/>
      <path class="st9" d="M440.2,415.7c0,.3,0,.7,0,1,.4,3.3,0,6.9,0,10h-2c.1-2.1-1-1.9-1-2,.1-3.4.7-7.5,1-11,.9.4,1.8,1,2,2Z"/>
      <path class="st15" d="M447.2,264c0,.3,0,.7,0,1-.1.6-.8,1.3-1,2-2.9.2-3.5-.3-4-3h5Z"/>
      <path class="st0" d="M437.2,174.2c4-.4,9,8.8,10,12s.8,2.7,1,4c-.9-1.2-2.3-2.8-3-4-2.6-4.8-3.8-7.8-8-12Z"/>
      <path class="st3" d="M387.3,521.5c.8-7.4,1.1-3.8,4.5-3.9,5-.2,13.3-2.9,15.5,3.9-.7,0-1.3,0-2,0l-.5-1-.5,1c-1,0-2,0-3,0-2.3,0-3.6,0-6,0s-1.3,0-2,0c.4-2.8-1.4-2.8-1,0-1,.1-2.1-.1-3,0l-.5-1-.5,1c-.3,0-.7,0-1,0Z"/>
      <path class="st10" d="M374.3,513.5c4.6,1.1,3.5,5.2,2,9-2-.1-4,.1-6,0,.4-5.2-2.2-8.3,4-9ZM376.3,515.5c-3.4-.5-6.5,3.7-4,6s4-4.9,4-6Z"/>
      <path class="st1" d="M401.3,521.5c-1,1.6-5,1.6-6,0,2.4,0,3.7,0,6,0Z"/>
      <path class="st1" d="M393.3,521.5c-.3,0-.7,0-1,0-.4-2.8,1.4-2.8,1,0Z"/>
      <path class="st1" d="M389.3,521.5c-.3,0-.7,0-1,0l.5-1,.5,1Z"/>
      <path class="st1" d="M405.3,521.5c-.3,0-.7,0-1,0l.5-1,.5,1Z"/>
      <path class="st5" d="M430.2,431.7c-1,3,3.2,1.8,4,3s-1.6,3.2,4,1c0,.3,0,.7,0,1-.2,2.7-2.2,5.1-2,8-4.2-.9-3.3,1.9-4,5-.9.1-5.7.9-6,1-.5-.4-1.6-.6-2-1,0-2.7,2.7-5.7-1-5-.1-.6.1-1.4,0-2-.9-4.9-2.7-2-5.7-2.3s-6.2-4.8-1.3-5.7c1.2.2,3.7.1,5,0-2.9,5.2,2,6.2,1,0,.8-.2,7.2-2.6,8-3ZM427.2,436.7c-.9-1.1-4.1,2-3,3,1.7,1.5,4.5-1.3,3-3Z"/>
      <path class="st12" d="M436.2,444.6c.3,0,3.4,1.8,3.5,2,.6.8,2.4,16.7-2.5,16-2.9-4.9-.9-2.4-1.1-6.5s-2.7-3.9-1.9-6.4c-.7,0-1.3,0-2,0,.7-3.1-.2-5.9,4-5Z"/>
      <path class="st1" d="M435.2,467.6c2.7,1.7,1,4.6,4,4,0,.1.9,1,1,2.4.3,2.8,0,13.2-4,13.6.4-1.7.7-3.3,1-5,.4-2.6,1.8-5.6,1-9-.7-.7-8.8,3.1-8,6-.4,0-.8-.1-1,0,1.5-9.3-4.2-6.8-11-7,.2,0,1.1-.9,2.4-1,3.1-.3,8.4,1.5,7.6-2,2.5.3,4.3,2.3,7,2v-4Z"/>
      <path class="st9" d="M432.2,449.6c.6,0,1.3,0,2,0-.8,2.5,1.8,4.8,1.9,6.4.2,4.2-1.8,1.7,1.1,6.5s.8,3.1,1,4c-1.5-3.5-5.7-1.6-9-2s-.2-.8-1-1-1.4,0-2,0v-1c.8-.8,4.7-5.9,5-7,.5-1.7.6-4.2,1-6Z"/>
      <path class="st3" d="M437.2,482.6c-.3,1.7-.6,3.3-1,5s.2,1.5,0,2c-3.1-.9-1.5,2.3-2.1,2.9s-4.2-.3-4.9.1c-3.3-6.7,1.1-4.2,2.1-5.6s.9-5.4.9-7.4c2.5.2,5-.7,5,3Z"/>
      <path class="st10" d="M426.2,463.6c.6,0,1.4-.1,2,0l1,1c3.3.3,7.5-1.5,9,2,.3,1.6.8,3.5,1,5-3,.6-1.2-2.3-4-4s-4.8-1.3-7-1l-1,1c-.5.2-1.4-.1-2,0-.2-.7-1.4-1.7-1-3,.3-.3.7-.7,1-1h1Z"/>
      <path class="st1" d="M440.2,426.7c0,1.6.1,3.4,0,5-1.6.9-.9,3.4-1,5h-1c0-.3,0-.7,0-1,0-1.3-1-3.2-1-5s1-3.2,1-4h2Z"/>
      <path class="st9" d="M439.2,436.7c0-1.6-.6-4.1,1-5-.2,1.6.7,4.4-1,5Z"/>
      <path class="st1" d="M436.2,489.6c-.3.9-.7,2.1-1,3s-.9,1.8-1,2c-.9,0-1.4.5-2,1s-1.7,1.5-2,2c-1.9-.2-4.2.3-6,0-2.9-.5-2.3-2.5-7-1v-3c4.4-.7,9.5,2.3,10.4,2s1.4-2.9,1.5-3c.7-.4,4.2.6,4.9-.1s-1-3.8,2.1-2.9Z"/>
      <path class="st9" d="M430.2,497.5c-.5,1,0,3.5-1.5,5s-5.6-.5-2.5,6c-3-.2-6,.1-9,0l1-3c-1.5.1-5.6.2-6-1.5s1.4-1.8,2-2.5c-.5,2.9,1.3,2.1,3.2,1.8s12.3-4,6.7-5.8c1.7.3,4.1-.2,6,0Z"/>
      <path class="st9" d="M428.2,508.5c3.6.2,2.8,3.6,0,3,0-1,0-2,0-3Z"/>
      <path class="st9" d="M434.2,494.5c-.6.8-1,1.1-2,1,.6-.5,1.1-1.1,2-1Z"/>
      <path class="st9" d="M412.3,517.5c-1.8-2.9-4.4-.7-4-4,3.4.7,12.1,1,13-3,2,.3-.3,1.5,3,2,.2,1-.3,3.5,0,4-1.2,0-3.2.2-4,1-3.5,1.5-4.2-2-4.5-2-.5,0-.5,3.3-3.5,2Z"/>
      <path class="st7" d="M411.3,161.2c.3,0,.7,0,1,0l2,1c1.6.4,4.4,1.4,6,2,5.8,2.2,11.3,4.8,16,9s.7.7,1,1c4.2,4.2,5.4,7.1,8,12-4.5,2.1,2.9,5.7,1,10-1.5.1-1.1-1.7-2-3s-2.1-3.3-4-4c1.3,13.2-12.9.1-19,0-.6-2.5,2.9-2.6,3.1-3.7s-1.1-2.2-1.1-2.3c.1-2.9,2.4-2.6,1-10s1.6-4.7-3-4l1-3c-4.9-.6-9.5-2.5-14.5-3-11.5-1-24.7,1.3-35.4,5,10.2-7.1,26.8-8.2,38.9-7Z"/>
      <path class="st12" d="M431.2,139.3c13.6-.8,5.9,3.2,5.9,9.5,0,3.3,2.6,10.6,2,14.8l-2.9,7.6c-1.3-2.6-9-4.8-9-6.5s3-.6,3-2.9c0-5.1-1.7-5.3-5-7.6s-.7-.8-1-1c1-3.2-3.2-5-6-5v-7c4.7-1.1,8.1-1.7,13-2Z"/>
      <path class="st0" d="M425.2,154.2c3.3,2.3,4.9,2.5,5,7.6s-3,1.9-3,2.9c0,1.6,7.7,3.9,9,6.5s-.1,1.4,0,2c-4.7-4.2-10.2-6.7-16-9,5.7-1.5,4.5-2,2-7,3.2.7,3.6,3.4,6,5l-3-8Z"/>
      <path class="st2" d="M446.2,142.3c-.3,0-.7,0-1,0l.5-1,.5,1Z"/>
      <path class="st10" d="M415.2,138.3c-1.4,3.9-5,2.6-8.1,3.4s-2.4,1.5-2.9,1.6c-4.9,1.2-11.7,3.1-16,0,8.5.3,17.8-3.7,26.9-5Z"/>
      <path class="st10" d="M401.3,130.3c-2.1.3-11.9,2.8-13,2s0-1.4,0-2c1.9-.1,4.1-.6,6-1,4.7-1.1,1.6-.6,5-4l2,5Z"/>
      <path class="st9" d="M413.2,112.3c1.2,8-5.3,7.3-4,0h4Z"/>
      <path class="st14" d="M418.2,141.3v7c-3,0-9.9,3.2-9,7l-10,1,4-2-3-8c1.7.5,2.8-.6,4-1,4.6-1.4,9.3-2.9,14-4Z"/>
      <path class="st5" d="M421.2,189.2c6.1.1,20.3,13.2,19,0,1.8.7,2.9,2.5,4,4-.1,2.8,1.4,5.5,2,8-.6,11.2-2,15.9-12,21-.6.3-1.5.1-2,1-1.3-.1-2.8.2-4,0-3-.6-5.3-.9-8-2.4s-4.6-4.9-7.9-5.5c-1,21.5-25.8,29.8-44.4,26.9-5.5-.9-14.1-8.3-16.9-13-4.6-7.6-3-10.8-3.6-18.9l1-2c.4-.4,1.2-5.8,4-6,0,4.6,0,8.2,5.5,8,13.5-.4,21.3-23.2,41-17.1,4.7,1.5,7.1,5.5,11.4,7-.8-5.8,5.6-11.1,11-11Z"/>
      <path class="st0" d="M361.4,248c.3.1.7,0,1,0,5,4,11.8,5.1,18,6s3.4-.1,5,0c4.4.3,4.5.3,9,0s3.5.2,5,0c6-.9,14.5-2.7,20-5,.5,2.6-1.3,2-3,2.5-11.2,3.3-17.1,5-29.5,4.9-3.1,0-6.4-1.5-9-1.5s-1.6,1.4-3.4,2.1c0-.8.2-2.8,0-3s-5.8-1.2-6-1c-1.7,1.5,1.6,2,2,2.8,1.1,2.3-1.2,3.2,4,1.2,0,.3,0,.7,0,1,0,1,0,2,0,3-1.7,4.3-1.7,11.9,0,16,0,1,0,2,0,3-1.7,2.5-1.7,8.6,0,11,1,2,3.5,1.1,4-1s0-2.8,0-4c.5-9.3-.3-18.7,0-27.9,1.6,0,7.5-.3,7.9.1s-.2,2.6,0,2.9c.4.4,10.4-.8,12-1-.4.7-1.7,1.4-2,2-2.1,4.7-1.3,16.6,0,22,0,1.3-.1,2.7,0,4,6.1.7,10.5,5.8,11.9-3.6.8-5.5,1.4-12-5.9-10.4l1,11c-.9.4-3-.9-3-1.5v-19.5h3s0,5,0,5c6.5,1.5,3.4-4.2,4-9-2.6,0-5.3-.1-8,0,2.4-2.3,6.6-.2,9.4-1.1s.2-4.7,5.6-1.8c-2.7,0-2.8,1.2-3,3.4-.4,3.3-1.1,30.4,0,31.5s6.3.9,7.5,1c2.2.1,1.2-.1,1.5-1.5,1.1-5.5-3.6-3.2-4-5.1-1.3-5.5,1.9-26-1-29.3,2.3.7,1.9,2.6,2.1,4.4.4,5.3-1.3,20,.9,23.5s2.8,2.3,3,2v-29.9c.2-.4.7-.7,1-1-1,11.5.7,24.6.1,36.3.9,2.6,6,1.6,7.8,3.6-2.3-.1-4.7,0-7,0,.9-3.4-4-1.7-7-2s-1.4,0-2,0l-1-1c-.6-.2-1.6.2-2,0l-1-1c-.2-.1-.4-1.6-1.6-1.9-2.8-.6-11.7,3.7-12.3-2.1-1-.1-2,0-3,0-.5-7.9,1.1-16.4-1-24s1.6-3.6-3-3c-.4.4.8,7.6-2,8-.4-2.4-.9-9.4-3.5-10s-2.5,1.1-2.5,1.5v27.9c0,1.1,2.8,1.9,4,1.5v-15h1c.8,4.3,1.7,8.8,3,13,1-.1,2,0,3,0,0,1.8.1,2.8-2.5,2s-.3-1.3-.5-2c-5.1.5-1.8.7-3.2,2.7s-7.1-.4-7.8.3.3,2.7,0,3-5.3-1-7-1c-.3-4.5.4-9.1,0-13.6s-1-2.3-1-2.4c-.2-4.3.8-18-.9-20.3s-8.8-2.1-11.1-2.6c-1.3,12.9,1,27.8,0,40.9l-1-15c-4.5-.9-2.2,1.7-3.2,2.8s-3,0-3.7,1.9c-1.6,4.4,3.2,16.4-4.6,16.5-2.3,0-1.2-1.9-1.5-2.1,7.9,1,1.8-14.5,4.4-18s3.6-.8,5.1-1.9c4.4-3.1,2.7-21.2.4-26-3.3-.7-6.5-1.9-10-2v47.9c-.2-.2-2.4.6-2.1-1.4.9-10.9-.7-22-.5-32.8s.3-12.7.8-14c1.1-3.2,10.2-1.3,11.7.6s0,1.5.2,1.8c1.3.3,2.7.7,4,1,0-.7,0-1.3,0-2,.4-.4,6.2,2.7,5-.5s-9.3-3.4-9-7.5c2.5,1.1,4.6,3.2,7,4Z"/>
      <path class="st5" d="M383,175.5c3.4,2.8,4,14-2,13.4-8.2-.7-5.9-20.1,2-13.4Z"/>
      <path class="st5" d="M423.2,183.2c-9.1.3-7.4-18.4,1-10,1.4,7.4-.9,7.1-1,10Z"/>
      <path class="st7" d="M345.4,230.1c-.3-.8-1.4-1.5-2-3.5-3.2-11.3-2.6-24.5,4-34.4-2.2,7.3-4.8,18.9-3.9,26.3s4,8.3,1.9,11.6Z"/>
      <path class="st7" d="M346.4,232.1l7.8,6.2c-.7,5.6,6,4.4,7.2,9.7-2.4-.8-4.5-2.9-7-4s-.7.1-1,0c-1.1-3-4.5-5.2-5.9-7.6s-.7-3.5-1.1-4.3Z"/>
      <path class="st7" d="M362.4,248c4.3,1.4,10.3,2.5,14.8,3.7s3.8-.6,3.2,2.3c-6.2-.9-12.9-2-18-6Z"/>
      <path class="st7" d="M394.3,254c-4.5.3-4.6.3-9,0,2.4-1.7,6.6-1.7,9,0Z"/>
      <path class="st7" d="M354.4,182.2c-.4,2.7-1.3,1.5-1.9,2.8-1.1,2.4-.9,5.1-5.1,6.2.9-2.9,4.3-7.4,7-9Z"/>
      <path class="st7" d="M348.4,208.1l-1,2c0-.1-1.7-1.1-.9-1.9s1.7,0,1.9-.1Z"/>
      <path class="st7" d="M358.4,254c2.2.5,9.9,1,11.1,2.6,1.7,2.4.7,16,.9,20.3,0,5.3.1,10.7,0,16-1,0-2.9.7-4,1-.2-5.6.2-11.3,0-17h-3c-.6.6.4,13.9,0,16.5s-1.9,1.2-3.1,2.4c-.9-.1-1.9.3-2-1,1-13.1-1.3-28,0-40.9ZM365.3,260c-1.5-1.4-1.8,0-2,1.5-.5,3.6.3,7.8,0,11.5,4.9.9,2.9-12.1,2-13Z"/>
      <path class="st7" d="M422.2,255l10-2c1.9,8.5-3.5,5.5-4.9,7.1s0,2.8-.1,3.9c-.6,9.4,2.8,4.7,3.9,7.6s.5,4-1.9,4.4-1.9-.2-2,0c-.4.5-.3,11.1,0,12.4s7.6.2,5,7.5c-.3,0-.7,0-1,0s-.7,0-1,0c-1.8-2-7-1-7.8-3.6.5-11.7-1.2-24.8-.1-36.3s0-.7,0-1Z"/>
      <path class="st14" d="M418.2,300.9c2.4.8,11.1,2.3,12.1,3.7,1.8,2.7-1.2,14.5,0,19.3-3,.3-7.3,1-10,1-.6-3.2-1.7-6-2-8.4-.7-4.9,1.4-10.4,0-15.5Z"/>
      <path class="st0" d="M360.4,295.9c1.2-1.2,2.8-.2,3.1-2.4s-.7-16,0-16.5h3c.2,5.6-.2,11.3,0,17,1.1-.3,3-1,4-1,0,1,0,2,0,3-3.5-.1-3.9,1.2-4-2-2.7.8-2.2,2.4-6,2Z"/>
      <path class="st15" d="M393.3,288c-.3,0-.7,0-1,0,.3-7.9-.2-16,0-24,2.1,7.5.5,16,1,24Z"/>
      <path class="st15" d="M371.3,292.9c-.3,0-.7,0-1,0,.1-5.3,0-10.7,0-16,0,.1,1,1,1,2.4.3,4.5-.3,9.1,0,13.6Z"/>
      <path class="st6" d="M416.2,293.9c2.9.3,7.9-1.4,7,2-2.9,0-7.9,1.2-7-2Z"/>
      <path class="st6" d="M414.3,293.9c-.7,0-.9-1-1-1l1,1Z"/>
      <path class="st6" d="M411.3,292.9c-.7-.4-.9-1-1-1l1,1Z"/>
      <path class="st1" d="M398.3,315.9c0-.7,0-1.3,0-2,8.4.1,11.3.8,10,10,3.6-.4,8.7,1,12,1,.2.9-.1,2,0,3-1.9-2-3.5-1.8-6-2s-1.3,0-2,0c-3-.1-10.1-1.1-9,2-.8-1.5-.9-3.6-1.1-3.9-.4-.5-1.5,0-1.9-.1,2.1-2.5,5.1-.9,3.9-5.3s-4.2-2.5-5.9-2.7Z"/>
      <path class="st7" d="M392.3,315.9c.7,0,1.3,0,2,0s.7,0,1,0,.7,0,1,0c-.5,2.5-.2,4.5,0,7-.6,0-1.7.8-2.7.7-1.9-.1-4.3-2.1-7.3-.7-.1-1.2-1.6-3.2-1-5,.2-.5-.2-1.7,1-2s4.2,0,6,0Z"/>
      <path class="st0" d="M396.3,322.9c0,1-.2,2.1,0,3-5.6-1.4-6,5.2-7,9-7,0-2.7-7.5-4-9s-2.2,0-3,0c-.5-1.7,1.9-2.8,2-3,.6.2,1.4.9,2,1,.2,2.9-.6,6.2.5,9,2-2.4,1.4-5.7,4.5-7.5-1.3-2.1-3.2-1.2-5-1.5,0-.3,0-.7,0-1,3-1.4,5.4.6,7.3.7s2.1-.8,2.7-.7Z"/>
      <path class="st15" d="M398.3,315.9c-.3,5.2,2,3.8,2,4.5s-2.9.2-2,2.5c-.7,0-1.3,0-2,0-.2-2.5-.5-4.5,0-7,.7,0,1.3,0,2,0Z"/>
      <path class="st1" d="M386.3,322.9c0,.3,0,.7,0,1-.6,0-1.3-.8-2-1,.4-1.3-.3-2.4,1-5-.6,1.8.9,3.8,1,5Z"/>
      <path class="st1" d="M392.3,315.9c-1.7,0-4.6-.4-6,0,1-1.6,5-1.6,6,0Z"/>
      <path class="st1" d="M395.3,315.9c-.3,0-.7,0-1,0l.5-1,.5,1Z"/>
      <path class="st5" d="M370.3,152.2c5.5-1.8,10-1.8,14,2.5-3.3,2.3-6.9,1.4-11,3s-4.6,3.2-7,4.5c0-.2-1.5-1.9-1-3,.8-.8,4.4-5.9,5-7Z"/>
      <path class="st5" d="M424.2,153.2c.3.1.6.7,1,1l3,8c-2.4-1.6-2.8-4.3-6-5s-.7,0-1,0c-1.5-1.7-6.4-1.7-8,0-.6,0-1.3,0-2,0h-1c0-.4-.1-1.7,0-2,2.1-5.9,9.8-4,14-2Z"/>
      <path class="st9" d="M413.3,157.2c3.3.4,4.8-.2,8,0s.7,0,1,0c2.6,4.9,3.7,5.5-2,7-1.6-.6-4.4-1.6-6-2s-.8-.8-2-1-.7,0-1,0v-4c.7,0,1.3,0,2,0Z"/>
      <path class="st0" d="M418.2,148.2c2.8,0,7,1.8,6,5-4.1-2-11.9-3.9-14,2h-1c-.9-3.8,6-6.9,9-7Z"/>
      <path class="st2" d="M366.3,162.2c0,1.1-2.5,6.8-4,5l1-7c.5-.4,1.7-.6,2-1-.5,1.1,1,2.8,1,3Z"/>
      <path class="st0" d="M411.3,158.2c-.5-.1-.9-.5-1-1h1v1Z"/>
      <path class="st1" d="M378.3,466.6c1,.1,2.2-.3,3.2,0s1.3,3,3.7,2c0,3.6,3.5,6.2,1,9-.5-.5-4.3-2.2-4,.5.5,4.3,2.9,3.2,5,5.5-1.8-.4-7.6,2.4-8.7,3.3s-1.1,2.4-2.2,3.3-9.9,4.4-6,7.3,19-6,17.9-12.9h1c.4.8,3.5,2.4,3,4.4s-2.9,1.2-3.1,2.2c-.3,1.7,2,5.9,1.1,8.3-5.9-.7-22,1-24.5-5-2.2-5.3,9.8-9.9,7.5-11.9s-4.1,1.5-5,2v-1c6.4-5.1.7-4.8.1-6.6-1.9-5.4,3.3-1.5,2.9-5.4,2,.5,4.1,1.9,5.6,2s1.1-1.3,1.8-1.7,4.6-.3,2.6-3.3-4.3-.5-5-2c.6,0,1.4,0,2,0Z"/>
      <path class="st3" d="M398.3,476.6c.3,0,.7,0,1,0l1,1c.9.2,2-.1,3,0,.2.4.8.7,1,1,2.4,4.2,9.2,8.5,10,10.5s-3.4.8-4.6,2.4-.3,3.7.6,5.1c-.2.2-1.7,4.1-2,5s0,.7,0,1c-.5.1-.9.5-1,1s0,.7,0,1c-2.5,1-5.6,1.7-6.8-1.7s2.8-2.2,3.7-5,0-13.8-2-15.1-2.8,0-3.8-.1c-1.9-.4-3.7-1.6-6-1,0-.2.2-.9-.3-1.7s-3.9-.8-.7-2.8,5.2-.6,7-.5Z"/>
      <path class="st1" d="M415.2,468.6c-3.6-.1-5.8-1.1-5,3-1.5-.7-.5-3-1.5-3-1.7-.1-7,2.5-8.5,4-.3-.4-7.6-2.5-9-3,0-.6-2-.7.5-3s7.5-4.3,8.5-4.5c2.6-.6,8.4,0,11.4-.7,1.7-.4,2.2-1.6,2.6-1.7s.7,0,1,0c1.6,4.1,2.4,5,0,9Z"/>
      <path class="st7" d="M363.4,460.6c3,.3,5.3.9,9,1s1.4,0,2,0c3.6,0,7.4.2,11,0l1,1c0,.3,0,.7,0,1l-3,1c-1.6-.2-3.4.2-5,0-2.7-.3-5.3-.7-8-1s-4.7-.6-7-1c1.2,1.4,0,2.8,0,3-2.5.3-3-2.2-4-3,.6-1.9,2.2-2.2,4-2Z"/>
      <path class="st0" d="M410.3,457.6c-.3,0-.7,0-1,0-8.9,2-13.5,3.4-23,4s-.7,0-1,0c-3.6.2-7.3,0-11,0l-2-1c0-.3.1-.8,0-1,2.5-.1,4.6,1,4-2,1,.3,1.1-.4,2,1s-.3,1.6,0,1.9c1.6,1.3,10.3-1.6,12.9-1.9s2.7,1.1,4.4.9c4.1-.5,8.6-2.3,12.6-2.9s2.1,0,2,1Z"/>
      <path class="st1" d="M398.3,482.6c2.9,2,5,9-.4,8s-4.8-7.6-5.5-9c2.3-.6,4.1.6,6,1Z"/>
      <path class="st9" d="M400.3,472.6c1.1,1.3-2.7,5.8,4,3,.1.6-.2,1.5,0,2h-1c-1-.1-2.1.2-3,0s-.3-.9-1-1-.7,0-1,0c-1.5-2.7-3.6-1.2-6-4l-1-1c-.2-.4,0-1.4,0-2,1.3.5,8.7,2.6,9,3Z"/>
      <path class="st9" d="M366.3,486.6v-4c-3.4,0-4.6.9-4-3h6s0,4,0,4v1c-.3.2-1.1,1.3-2,2Z"/>
      <path class="st3" d="M386.3,477.6c1.1,1.1,2.5,6.1,3,7h-1c0-.5-.7-.7-1-1-2.1-2.3-4.5-1.1-5-5.5s3.5-1,4-.5Z"/>
      <path class="st3" d="M417.2,455.6c-.1,2.5,1,4.6-2,4-.3,0-.7-.1-1,0-1.9,0-3.9-.3-5-2,.3,0,.7,0,1,0,2.4-.6,4.3-1.4,7-2Z"/>
      <path class="st9" d="M383.3,464.6c.4,0,1.8,1.5,3,1-.1.8-1,1.9-1,3-2.5,1-3-1.7-3.7-2s-2.3,0-3.2,0v-2c1.6.2,3.4-.2,5,0Z"/>
      <path class="st3" d="M386.3,507.5v-4c4.5-.4,4.3-.3,4,4-2.9.9-2.5.2-4,0Z"/>
      <path class="st1" d="M365.3,487.6l-2,3c0-.1-1.6-1-.6-2,.8-1,2.2-.7,2.6-1Z"/>
      <path class="st1" d="M386.3,463.6c0,.7,0,1.4,0,2-1.2.5-2.6-.9-3-1l3-1Z"/>
      <path class="st1" d="M392.3,472.6c-.3-.3-.8-.6-1-1l1,1Z"/>
      <path class="st15" d="M386.3,462.6l-1-1c.3,0,.7,0,1,0v1Z"/>
      <path class="st10" d="M409.3,364.8c-.4,3.1-.2,3.1,0,6-2.6,1.7-6.6,8.7-4,11s1.8-1.1,2-1c-1.8,12,6.9,6.7,15,9,.2.1.7-.1,1,0,.3.4.6.7,1,1,.9.8,1.3.6,2,1,.7,4.8,1.7,6.8,7,6,.2,1.2,3.4,6.2,4,8-.1.6,0,1.3,0,2,0,1.3-.4,3.3,1,4,0,.7,0,1.3,0,2-.3,3.5-.9,7.6-1,11-1.3.7-2,2-3,3-2.4-1.9-6.4-1-9.2-2.1s-1.4-1.8-2.6-2.6-5.9-1.3-4.2-3.3,1.6.2,1.9,0c1.4-1.6-5.7-5.9-7.4-5.9-5.7-.1-2,10.5-2.5,11-.8.9-7.9-.5-7,3-4.1-2.5-7.9-6.2-12.5-8-.2,1.2,1.4,7.5,1.7,7.8.4.5,3.7.5,5.4,2.1s1.4,3.9,2.4,4.6,4.9,1.5,8,3.5c4.6,2.9,8.3,7.2,15,5,.1.6-.1,1.4,0,2,.2.9-.2,2.1,0,3l-1.9,1.4.9,2.1c-2.5-.5-3.4.8-5,1.5l1-5-6,3c-.6-1.2,4.3-1.2,2-3s-2.1.4-2.7-.2-.9-5-4.8-4.7-2.8,11.9,1.5,12.9v1c-4,.6-8.5,2.4-12.6,2.9s-3.4-1-4.4-.9c-.7-1.9-4.3.7-5,0s1.4-5.2.5-7.9c-1.4-3.9-4-8.2-8.5-8.1s-5.6.7-7,1c2.4-3.8,1.3-7.9,2.1-11.4s3.5-9.9,4-14,.8-9.4.7-9.9c-.3-1.6-2.7-2.6-3.8-3.6s-1.6-1.7-2-2c.8-2.4-1.9-1.8-2-2-.3-.6.4-3.5,0-4s-3.6.5-4.5-1c-1.8-2.8,2.5-5-6.4-4.1l.9-7.9h-7.9c0-.4,0-.8,0-1.1,2.6-2.8,5.2-2.3,8-3,3,1.4,5.2,2,8,4s7.1,9.6,10,10c-1.9,6.8,6.8,5.7,7.8,7.2s-.2,2.9,1.1,4.3,14.1,6.4,15,5.5v-6c3.7-1,5.9,1.8,8.9,2.6,5.7,1.5,3.1-.5,4.7-2.5s2.2-.9,2.4-1.8c2-7.2-5.8-4.3-9.7-5.6s-4-5.7-2.2-7.7c-5.7,1.4-12.4,1.1-18,2-.1-6.3,3.5-4.9,5.7-6.3s.5-1.4,1-1.7c.9-.6,6.8-2.2,1.6-3.8s-4.2,1.2-5.8,1.8-.6-1.6-1.5-2c-.9-3.4,1.7-7.4,2-10,1.8.8,5.9,8.4,8,7,.7-3.5,3.8-6.2,5.5-9s-1.6-5.4,4.5-2.9ZM381.3,428.7c5.9,7.2,8.4-12.2,2-10,1.5,5.3-1.8,4.7-2,5-5.2-4.6-3.3,1.5-3.1,4.5s-1.7,0-2,1.9.4,5.5,0,8.1c3.1,2,4.5-6.7,5-9.5ZM395.3,436.7c.7-.8,2.3-.7,2-2l-5,.6c.4,2.7-1.7,8.7,3,5.4,0,.2.8.6,1,1s-.5,2.2.2,2.8,1.7,0,2,.3c1.1,1,.6,1.7,1.4,1.9,2.5.8,1.4-3.7,1.5-5s.9-.3.9-.5c-.7-2-4-1-4.7-1.7s.9-3.7-2.1-2.8ZM390.3,439.7c-3.3-3-1.6,7.6,1,5s-.8-4.8-1-5ZM395.3,448.6c-.2-4.3-3.8-3.6-6-.5l6,.5ZM398.3,449.6c.7-1.4-.6-2.7-1-2-.7,1.4.6,2.7,1,2Z"/>
      <path class="st1" d="M374.3,359.8c-.2.6.2,2-.2,3.2s-2.6,3-1.8,3.8c2.9,2.5,4.9-5.2,5.9-6.3s2.2-.5,2.7-1c1.9-1.8,3.6-4,5.9-5.6,1,1.8,4.1,4,4.5,6s-.7,3.5-1,4c-.2-.5-1.5-1.4-2-2s.1-2.4-1.6-2.9c-3.9-1.2-8,3.5-8.9,6.9s1.7,7.1,4.6,10,3.6,2.9,5,4,.9,0,1,0c.2.1.7-.1,1,0,.9.4.8,2.2,1.5,2,1.6-.6,2.2-3,5.8-1.8,5.2,1.7-.7,3.2-1.6,3.8s-.6,1.5-1,1.7c-2.2,1.3-5.8,0-5.7,6.3-.2,0-1.2,1.6-2.6,1.8-2.1.3-5.3.5-7.3.2s-6.6-7.6-10-10h1.3c1.1,2.3,1.3,2.6,3.6,1,1,1.5,3.5,3.8,3,.5s-2.9-5.7-3.7-8.3.7-6.3-2.3-8.2c.2-3.1,1.4-6.5,0-9,1.3.2,2.7-.1,4,0ZM377.8,387.8v1c.6-.3.6-.7,0-1Z"/>
      <path class="st1" d="M397.3,327.9c1-.6,3.9,3.4,4,3.7,1,4.4-2.6,8.5,4,7.3l-1-9c.1.1,1.8-.5,2,.6,1.3,5.2-3.2,6.3,3.9,6.4s1.4,0,2,0c3.2-.5,6.6-3.9,6,0-7.6,1.3-2.5,3.7-5,8,0-.2,0-1.8,0-2-.3-.7-.1-.7-1-1s-1.4.1-2,0c-.6-2.2-3.8-3-5-1-1.6-.2-8.4-1.2-9.4-.9s-.6,1.9-1.1,1.9c-1.2,0-4.6-2.2-6-1.8s-1.3,4.5-3.5,4.9c-.6-5.8-1.5-5.4-7-5,0-.4-2-1.9-2-3,3.8-.3,11.2,1.8,15.3,1s.3-2.1,2.1-2.1,3.6,1.4,5.6,1.1c.3-3.2-1.3-6-2-9Z"/>
      <path class="st7" d="M378.3,339.9c5.5-.4,6.4-.8,7,5,2.3-.4,1.7-4.4,3.5-4.9s4.7,1.8,6,1.8.3-1.6,1.1-1.9,7.8.7,9.4.9,3.3.7,5,1,1.5-.2,2,0l1,1c0,.2,0,1.8,0,2-.3.8-.2.7-1,1l-1.5-1-.5,1c-.6,0-1.4,0-2,0,.4-2.8-1.4-2.8-1,0-2.9-.5-1.8-2.2-2.5-2s-1.8,1.5-2.5,2c-4.7-1.5-9.6,2.3-10.5-4-.1,6-2.4,3.7-7.5,4-.7,0-1.3,0-2,0l-1.5-1-.5,1c-.7,0-1.3,0-2,0,0-1.3,0-2.7,0-4s.1-1.4,0-2Z"/>
      <path class="st9" d="M362.4,362.8c2.5-.4,3.9,3.7,4.1,5.5.2,2.6,0,9.2-2.1,10.5-10-4.7-4.3-3.7-3.1-7.7s-.7-2.4-.9-3.3,0-1.9,0-2c.5-.6,1.9,1.6,2-3Z"/>
      <path class="st8" d="M370.3,349.8l-3,6c1.4.8,6.2,1.1,7,0s-1.4-4.2-2-4.9c8.6,1.2,3.3,5.5,2,9-1.3-.1-2.7.2-4,0-7.6-1-7.8-10.7,0-10Z"/>
      <path class="st0" d="M393.3,351.8c.1,0,.7.7,1,1s-.3,1.5,1.7,2.8,11.2,4.4,14.3,4.2c0,.5,0,1.4,0,2-1.7.1-3.5.1-5.2-.2l-12.7-3.8c-.2-.4-1.7-.5-2.1-2.5s.9-2.7,1.1-3.4c.6.1,1.7-.2,2,0Z"/>
      <path class="st1" d="M402.3,345.8c-2.1,1.3-3.7.7-3,4-2.3,0-6.5-1.8-6,2-.3-.2-1.4.1-2,0,.3-1.3,1.1-2.5,1-4-1.1-1-9.3,2-8-2,5-.3,7.4,2,7.5-4,.9,6.3,5.8,2.5,10.5,4Z"/>
      <path class="st3" d="M370.3,368.8c2.9,1.9,1.4,5.6,2.3,8.2s3.3,5.4,3.7,8.3-2,1-3-.5c-4.2-6.5-3.4-9.1-3-16Z"/>
      <path class="st3" d="M372.3,350.8c.5.7,2.6,4.1,2,4.9s-5.5.8-7,0l3-6c1.3.1,1.2,0,2,1Z"/>
      <path class="st0" d="M371.3,337.9c-2.8.3-4.1,0-5,0,1.6-1.2,3.4-1.2,5,0Z"/>
      <path class="st1" d="M378.3,341.9c0,1.3,0,2.7,0,4-.6,0-1.9.1-2,0-.6-.9-.5-5.3,2-4Z"/>
      <path class="st1" d="M382.3,345.8c-.8,0-.8,0-2,0l.5-1,1.5,1Z"/>
      <path class="st1" d="M371.3,443.6c-.3,0-.7,0-1,0-1.1.3-1.6.9-2,1-3.5,1.1-7.3,3.4-10,4,0-1.7,1.5-2.8,2-4,1.6-.4,9.7-3.4,10-4.7.4-1.9-.4-4.5,0-6.7s2.6-4.1,2.8-6.3-1.5-2.9-1.6-4.5c-.2-4.7,4.6-11.9,2.7-17.7,1.1,1,3.4,2,3.8,3.6s-.5,8.6-.7,9.9c-.5,4.1-3.2,10.2-4,14s.3,7.6-2.1,11.4Z"/>
      <path class="st1" d="M352.4,383.8h7.9c0,.1-.9,8-.9,8,8.9-1,4.6,1.2,6.4,4.1s4.1.6,4.5,1-.3,3.3,0,4,2.8-.4,2,2c-1.6-1.2-1.9-1.9-2-2-1.1-.8-9.9-6.5-11-7s-.7.1-1,0c.2-2.4,0-2-2-2-.6-1.7-1.5-4-4-4,0-1.8-.3-1.2,0-4Z"/>
      <path class="st1" d="M369.3,427.7c-4.7,0-2.9-3.5-3.3-4.8s-1.5-.2-1.7-.9c-1-4.9-.3-11.1-3-16.3,10.9,1.9,5.3,14.5,8,21.9Z"/>
      <path class="st9" d="M398.3,322.9c.1,0,1.4.7,2,1s1.5-.4,1.9.1.3,2.3,1.1,3.9.6,1.6,1,2l1,9c-6.6,1.2-3-2.9-4-7.3s-2.9-4.3-4-3.7c-.2-.9-.9-1.7-1-2-.2-.9,0-2,0-3,.7,0,1.3,0,2,0Z"/>
      <path class="st15" d="M361.4,329.9c.5.3,1.9,3,3,3.5.9,2.1-3.3,2.1-4.1.9s-.6-3.2-.9-4.4c.6.1,1.6-.2,2,0Z"/>
      <path class="st3" d="M370.3,463.6c-.6,3.3,3.7,2.7,6,3,.7,1.5,4.8,1.7,5,2,2,3-1.7,2.8-2.6,3.3s-.1,1.9-1.8,1.7-3.6-1.6-5.6-2-1.4.1-2,0c-.4-1.1-1-1.5-2-2s-2.8-1-3-1c0-1-.9-2.2-1-3s1.2-1.6,0-3c2.3.4,4.6.7,7,1ZM371.3,469.6c.5-.4-1.7-2.6-3-2-.5.4,1.7,2.6,3,2Z"/>
      <path class="st1" d="M369.3,471.6c-1.8-.3-2.3.9-2-2,1,.5,1.6.9,2,2Z"/>
      <path class="st13" d="M352.4,387.8c2.5,0,3.4,2.3,4,4,2.1,0,2.2-.4,2,2-.5-.2-1.8.2-2,0s.2-1.5,0-2c-2,0-3.4,3-6,3,.3-2.8,2-3.8,2-7Z"/>
      <path class="st1" d="M360.4,365.8c0,0,0,1.6,0,2-1.2.2-6-.6-6-1.5,0-3.1,8.7-5.2,6-.5Z"/>
      <path class="st0" d="M348.4,325.9l-3.5,2c-1,0-.3-1.8-.5-2,1-2.6,3.6,0,4,0Z"/>
      <path class="st5" d="M368.3,444.6c2.5,5.9-5.4,8.3-5.8,10.6s3.2,4.1.9,5.3c-1.8-.2-3.4,0-4,2-.9-.7-2.1-1.3-3-2-1.5-4.5-3.8-4.3-1-9s2.4-1.1,2-3c.3,0,.7,0,1,0,2.7-.6,6.5-2.9,10-4Z"/>
      <path class="st1" d="M349.4,445.6c2.9-.3,2.4,4.6,6,6-2.8,4.7-.5,4.5,1,9-.2-.1-1.2.2-1.7-.2s-4.1-5.2-4.2-5.5c-.4-1.1-1.4-8.3-1.1-9.2Z"/>
      <path class="st3" d="M349.4,445.6c3.5-2.6,3.3,3,8,3,.4,1.9-1.7,2.4-2,3-3.6-1.3-3.1-6.3-6-6Z"/>
      <path class="st1" d="M431.2,364.8c6.1,9.1-2.3,14.8-10,18-2.7.3-5.3.9-8,1-1.3-.9-4.6-2.7-6-3s-1.7,1.2-2,1c-2.6-2.3,1.4-9.3,4-11,0,0,.9-.2,1,1s-1.1,2.6-1,3.4,2,.5,2,.6c1.3,1.9-2.8,2.7,4,3s10.8-.6,14.4-6.1,2-4.3-2.4-4.9v-4c.4-.4,3,1,4,1Z"/>
      <path class="st12" d="M434.2,337.9c-.5,2.6,2.5,2.3,3.9,4.6s4.1,10.3,4.1,10.9c0,3.9-5.6,1.9-8,1.5-.4-2.1,1.1-3.5-2-3-1.4-4.5-.6-8.7-3-13,1.8-.4,2.6-.7,5-1Z"/>
      <path class="st14" d="M421.2,382.8c2.4-.2,2.4,0,5.7-.8,8.4-1.9-.2,3.9,6.3,6.8-3.5,2.8,1.4,7.1-7,3s-1.1-.2-2-1c-.1-.5-.5-.8-1-1s-.7.1-1,0c-4.5-2.5-5.9-3.8-9-6,2.7-.1,5.3-.7,8-1Z"/>
      <path class="st9" d="M438.2,389.8c0,0-.2,1.4.3,1.7.9.6,2.4.1,2.6.3.9,1-3.5,11.5-3.9,13.9-.6-1.8-3.8-6.8-4-8-.6-3.3,2-6.1,2-8,.8.2,2.6-.3,3,0Z"/>
      <path class="st2" d="M432.2,353.8c.4.1,1,.8,2,1,.2,1.3.2,3.4.9,4.4,1,1.5,3.5-.6,3.1,2.1s-1,2.4-1.7,2.5-5,1-5.3,1c-1,0-3.6-1.4-4-1,2.1-2.3,3.6-2.9,3-7-1.2-.4-2.2.8-3,1l3-4c.5.2,1.4-.2,2,0Z"/>
      <path class="st8" d="M434.2,388.8c-.2-6.9-1.6-10,6.4-11.1.6,0,1.4,2.4,1.6,3.1-7.5-4.4-5.4,9.5,0,6-.8,2.5-1.1,3.6-4,3-.3-.3-2.2.2-3,0,0-.8-.2-1.1-1-1Z"/>
      <path class="st1" d="M435.2,389.8c0,1.8-2.6,4.7-2,8-5.3.8-6.3-1.2-7-6,8.4,4.1,3.5-.2,7-3h1c.8,0,1,.2,1,1Z"/>
      <path class="st5" d="M442.2,380.8c.8,2.4.7,3.8,0,6-5.4,3.5-7.5-10.4,0-6Z"/>
      <path class="st9" d="M437.2,407.7c4.2-.5,1.1,2.8,1,4-1.4-.7-1.1-2.7-1-4Z"/>
      <path class="st2" d="M434.2,337.9v-1c.3,0,.7,0,1,0,0,.5-.5.9-1,1Z"/>
      <path class="st0" d="M430.2,323.9c.3,1.4,1.6,2.2,3,2-.5,1,1.2,2.5-2,2-.2-.2.6-1.8-.6-2s-7.1-.2-7.4,0c-.5.5,1.2,6.4-2,7-.4-1.7-.8-3.3-1-5s.2-2.1,0-3c2.6,0,6.9-.7,10-1Z"/>
      <path class="st0" d="M444.2,325.9c-1.3,4.4,1.6,10.2-5,9,0-1.3,0-4.8,0-5s3-1.8,2-4c.8.2,2.1-.1,3,0Z"/>
      <path class="st12" d="M374.3,257c-5.2,2-2.9,1.1-4-1.2s-3.7-1.3-2-2.8,5.8.8,6,1,0,2.2,0,3Z"/>
      <path class="st12" d="M437.2,241.1c-.8,4.5-3.9,5.1-2,10-4.1.9-11.9-1.2-13,4s0,.7,0,1c-.3.3-.8.6-1,1-2.2,3.7-.8,18.9-1,24.5s1,4-2,3.4c-2.3-3.5-.6-18.2-.9-23.5s.2-3.7-2.1-4.4c-.1-.2-.7.1-1,0-5.4-2.8-3.4,1.1-5.6,1.8s-7-1.2-9.4,1.1c-.3,0-.7,0-1,0-1.6.2-11.6,1.4-12,1s.4-2.5,0-2.9-6.4-.1-7.9-.1-.7,0-1,0c-1,0-2,0-3,0,0-.3,0-.7,0-1,1.8-.7,2.5-2.1,3.4-2.1,2.7,0,5.9,1.5,9,1.5,12.4,0,18.3-1.7,29.5-4.9,1.6-.5,3.4,0,3-2.5.4-.2,1.4-.7,2-1,2.1-.4,5.6.5,7.4,0s.2-2,1.2-3.1,5.1-4.2,7.3-3.9Z"/>
      <path class="st0" d="M437.2,237.1c-.3,1.1.2,2.8,0,4-2.2-.3-5.9,2.5-7.3,3.9s-.2,2.8-1.2,3.1c-1.8.5-5.3-.4-7.4,0,5.4-2.6,11.6-9.5,16-11Z"/>
      <path class="st11" d="M434.2,222.1c.4,3.9-1.5,1-2,1,.4-.9,1.4-.7,2-1Z"/>
      <path class="st7" d="M434.2,261c0-2.9-.2-8,3-9.5s7.4-1.3,9,1.5l1,3c.2,2.1.2,5.9,0,8h-5c-.2-.9-.1-3,0-4s1.6-1.5,1-3l-3.5-1c-.7.8.6,2,.5,3-.2,2-1.4,3.5-1.1,6.5s1.4,4.2,2.1,6.5-.3,2.6,0,3,1.6-.2,2,0-.2.9,0,1c-2.6,1.6-2.3,3.2-4,0-.6-1.2-2.1-2.9-3-4-.9-4.3-2-6.2-2-11Z"/>
      <path class="st6" d="M434.2,261c0,4.8,1.1,6.7,2,11s1.4,4.7,2,8h-4c0,2.6-.1,5.3,0,8-8.5,1.6-6.3-6.5-5-12,2.4-.3,3.1-1,1.9-4.4s-4.4,1.8-3.9-7.6c1.7-2.9,3.7-3.5,7-3Z"/>
      <path class="st15" d="M447.2,256l-1-3c.8,1.4.8,1.2,1,3Z"/>
      <path class="st7" d="M438.2,280c.2.9.8,2,1,3.4.3,2.6-1.4,11.5,2.8,8.3.4-.3,0-1.6.2-1.7s2.2-.3,3-1c.8,1.1-1.3,6.8,1,8-1.3,3.2-7.3,1.8-9.5,0s-2.3-5.8-2.5-9c-.1-2.6,0-5.3,0-8h4Z"/>
      <path class="st15" d="M439.2,276c1.7,3.2,1.4,1.6,4,0,.2.2,1.4-.4,2,.7,2,3.6,2.5,16.4,1,20.3-2.3-1.2-.2-6.8-1-8-.7.6-2.8.9-3,1,.6-4.9-.8-9.7-3-14Z"/>
      <path class="st15" d="M440.2,259c.1-1-1.2-2.2-.5-3l3.5,1c.6,1.5-1,2.6-1,3l-2-1Z"/>
      <path class="st15" d="M441.2,272c2.7-.5,2,.6,2,3-.4-.2-1.8.3-2,0s.2-2.2,0-3Z"/>
      <path class="st9" d="M429.2,336.9c1.6,0,3.4-.1,5,0v1c-2.4.2-3.1.6-5,1s-10,1.1-10.9,2.1-.3,5.3,0,6.2,3,1,2,7.2c-.4,2.8-5.2,8.1-4,9.4s3.8-1.8,4-2c.3-.3-.7-3,3-2-.1.3.1.7,0,1s-.8.6-1,1c-.6,0-1.8-.1-2,0s-.1,1.8-.9,2.5c-2.9,2.5-5.7,5.5-9,7.5,0-1.2-1-.9-1-1-.2-2.9-.4-2.9,0-6s.8-1.3,1-3c1,0,2,0,3,0,0-1,0-2,0-3-.2-5.8-5.7-7.6-11-9s-.9,0-1,0c-.6,0-1.3,0-2,0-.7-3.3.9-2.7,3-4s1.9-1.8,2.5-2-.4,1.5,2.5,2,.7,0,1,0c.6,0,1.4,0,2,0s1.5.2,2,0c.8-.3.7-.2,1-1,2.5-4.3-2.6-6.6,5-8,2.1-.4,8.4,0,11,0Z"/>
      <path class="st7" d="M420.2,327.9c.2,1.7.6,3.3,1,5,3.2-.5,1.5-6.5,2-7s6.6-.2,7.4,0c1.2.3.4,1.8.6,2,3.4,3.8,2.8,6.9-2,9-2.6,0-8.8-.4-11,0,.6-3.9-2.8-.5-6,0l2-11c2.4.2,4,0,6,2Z"/>
      <path class="st2" d="M438.2,426.7c0,.8-.9,2.3-1,4-2.6-.6-2.5,1.9-3,4-.8-1.2-5,0-4-3,.8-.5,3.1-3.1,4-4s1.7-2.3,3-3c0,.1,1.1,0,1,2Z"/>
      <path class="st14" d="M424.2,497.5c5.5,1.7-5,5.4-6.7,5.8s-3.8,1.2-3.2-1.8c1.2-1.3,2.7-1.2,2-4,.4-.2.7-.9,1-1,4.7-1.5,4.1.5,7,1Z"/>
      <path class="st10" d="M417.2,493.5v3c-.3,0-.6.8-1,1-3.1,1.6-4.9,4-8,4,.3-.8,1.8-4.8,2-5,.3-.3,6.3-2.9,7-3Z"/>
      <path class="st3" d="M386.3,517.5c3,3.2-6.1,4.3-6.9,2.9s0-2.7,0-3.9c1.1.4,6.7.7,7,1Z"/>
      <path class="st3" d="M412.3,517.5c3,1.3,3-2,3.5-2s.9,3.5,4.5,2c-.2.2.3,1.5-.1,1.9s-7.6.4-7.8,0,.2-1.7,0-2Z"/>
      <path class="st10" d="M407.3,503.5c.1-.5.5-.9,1-1-.1.5-.6.8-1,1Z"/>
      <path class="st9" d="M405.8,514.5c.6.3.6.7,0,1v-1Z"/>
      <path class="st3" d="M376.3,515.5c0,1.1-2.1,7.6-4,6s.6-6.4,4-6Z"/>
      <path class="st3" d="M403.3,427.7c-.9-3.5,6.2-2.1,7-3s-3.2-11.1,2.5-11,8.8,4.3,7.4,5.9-1.7-.1-1.9,0c-1.7,2,2.6,2.2,4.2,3.3s1.8,2.3,2.6,2.6c2.7,1.1,6.8.2,9.2,2.1-.9.9-3.2,3.5-4,4s-7.2,2.8-8,3-.7,0-1,0c-1.3.1-3.8.2-5,0s-5.4-1.7-6-2c-1.4-.6-5.3-3.9-7-5Z"/>
      <path class="st0" d="M416.2,434.7c-4.9.9-2.7,5.3,1.3,5.7s4.8-2.6,5.7,2.3c-6.6,2.2-10.4-2.1-15-5l2-5c.6.3,5.6,1.9,6,2Z"/>
      <path class="st8" d="M423.2,447.6c.3,1.2,0,1.1,1,2s1.5.6,2,1c-.3.1-3.8,3.5-5,4-2,0-2.7.7-4,1-2.6.6-4.6,1.4-7,2,.1-.9-1.3-1.1-2-1v-1c3.2-.3,6.1-1.8,9-3s2.5-2,5-1.5l-.9-2.1,1.9-1.4Z"/>
      <path class="st2" d="M431.2,455.6c-2.5-.1-5.1.2-7.6,0s-2.3-1-2.4-1c1.2-.5,4.7-3.9,5-4s5.1-.9,6-1c-.4,1.8-.5,4.3-1,6Z"/>
      <path class="st0" d="M437.2,430.7c0,1.8,1,3.7,1,5-5.6,2.3-3.3,0-4-1,.5-2,.4-4.6,3-4Z"/>
      <path class="st0" d="M427.2,436.7c1.5,1.7-1.3,4.5-3,3s2-4.1,3-3Z"/>
      <path class="st0" d="M423.2,444.6c3.7-.7.9,2.3,1,5-.9-.9-.7-.8-1-2s.2-2.1,0-3Z"/>
      <path class="st0" d="M422.2,434.7c1,6.2-3.9,5.2-1,0,.3,0,.7,0,1,0Z"/>
      <path class="st4" d="M406.3,478.6c3.4.5,7.6,6.6,9.5,7s8.7-1,10.8-2.2,1.4-2.5,1.6-2.8.3-.7,1-1,.6,0,1,0c.6,0,1.4,0,2,0,0,2,.2,5.8-.9,7.4s-5.3-1.1-2.1,5.6c-.1,0-.2,2.6-1.5,3s-6-2.7-10.4-2-6.7,2.7-7,3c-.9-1.4-1.6-3.7-.6-5.1s5.6.1,4.6-2.4-7.6-6.3-10-10.5c.2.1,1.4,0,2,0Z"/>
      <path class="st14" d="M400.3,472.6c1.5-1.5,6.7-4.1,8.5-4s0,2.3,1.5,3,.7,0,1,0c.5,1.3,1.9.9,3,1s2.7.1,4,0c6.8.2,12.5-2.4,11,7-.7.3-.7.7-1,1-7.7,3.2-12.9-2.1-20.7-2.7s-1.2.7-1.3.7c-.6,0-1.8.1-2,0s.1-.7,0-1c-.2-.5.1-1.4,0-2-6.7,2.8-2.9-1.7-4-3Z"/>
      <path class="st10" d="M415.2,468.6c1,0,2-.1,3,0,2.6.3,3.7.8,7,1s2-.1,3,0c.9,3.5-4.5,1.6-7.6,2s-2.3,1-2.4,1c-1.3.1-2.7,0-4,0-.5-1.5-2.1-.7-3-1s-.8.1-1,0c-.8-4.1,1.4-3.1,5-3Z"/>
      <path class="st10" d="M430.2,479.6c-.8-2.8,7.3-6.7,8-6,.8,3.3-.6,6.4-1,9,0-3.6-2.5-2.8-5-3s-1.4,0-2,0Z"/>
      <path class="st9" d="M435.2,467.6v4c-2.7.3-4.5-1.7-7-2s-2,0-3,0c-.1-.6.2-1.5,0-2,.6-.1,1.5.2,2,0s.7-1,1-1c2.1-.3,5.1-.2,7,1Z"/>
      <path class="st6" d="M421.2,454.6c.1,0,1.1.9,2.4,1,2.5.2,5.1-.2,7.6,0-.3,1.1-4.2,6.1-5,7s-.7.7-1,1-.7.7-1,1c-1.8,1.6-4,2.7-6,4-1-.1-2,0-3,0,2.4-4,1.6-4.9,0-9,3,.6,1.9-1.5,2-4,1.3-.3,2-1,4-1Z"/>
      <path class="st1" d="M429.2,464.6l-1-1c.8.2.9,1,1,1Z"/>
      <path class="st1" d="M426.2,463.6h-1c.3-.3.7-.7,1-1v1Z"/>
      <path class="st1" d="M425.2,467.6c.2.5-.1,1.4,0,2-3.3-.2-4.4-.7-7-1,2-1.3,4.2-2.4,6-4-.5,1.3.8,2.3,1,3Z"/>
      <path class="st1" d="M427.2,467.6l1-1c-.2,0-.6.9-1,1Z"/>
      <path class="st13" d="M414.3,162.2l-2-1c1.2.2,1.7.9,2,1Z"/>
      <path class="st0" d="M365.3,260c.9.9,2.9,13.8-2,13,.3-3.7-.5-7.9,0-11.5s.5-2.9,2-1.5Z"/>
      <path class="st7" d="M399.3,260c2.6-.1,5.3,0,8,0-.6,4.8,2.5,10.5-4,9v-5s-3,0-3,0v19.5c0,.6,2.1,1.9,3,1.5l-1-11c7.3-1.6,6.7,4.9,5.9,10.4-1.4,9.4-5.8,4.2-11.9,3.6-.1-1.3,0-2.7,0-4-.3-7.3.2-14.7,0-22,.3-.6,1.6-1.3,2-2,.3,0,.7,0,1,0Z"/>
      <path class="st7" d="M414.3,257c.3.1.9-.2,1,0,2.9,3.3-.4,23.7,1,29.3s5.1-.3,4,5.1.7,1.7-1.5,1.5-7.2-.8-7.5-1c-1.1-1.1-.4-28.2,0-31.5s.3-3.5,3-3.4Z"/>
      <path class="st7" d="M389.3,288c-1.3-4.1-2.2-8.7-3-13h-1s0,15,0,15c-1.2.4-4-.4-4-1.5v-27.9c0-.4,1.5-1.7,2.5-1.5,2.6.5,3.1,7.6,3.5,10,2.8-.4,1.6-7.6,2-8,4.6-.6,2.4.8,3,3-.2,8,.3,16,0,24-1,0-2-.1-3,0Z"/>
      <path class="st11" d="M377.3,258c.6,9.1-1.3,19.1,1,27.9,0,1.2.2,3,0,4h-4c-.4-2.9,0-6.9,0-10s0-2,0-3c0-5.3.1-10.7,0-16s0-2,0-3c1,0,2,0,3,0Z"/>
      <path class="st7" d="M378.3,286c-2.3-8.8-.4-18.8-1-27.9.3,0,.7,0,1,0-.3,9.3.5,18.7,0,27.9Z"/>
      <path class="st7" d="M378.3,290c-.5,2.1-3,3-4,1s0-.6,0-1h4Z"/>
      <path class="st7" d="M354.4,253c2.2,4.9,3.9,22.9-.4,26s-4.3.8-5.1,1.9c-2.6,3.6,3.5,19-4.4,18v-47.9c3.4,0,6.6,1.3,10,2ZM348.4,275c6.1,1.8,6-18.2,0-18v18Z"/>
      <path class="st15" d="M374.3,277c-1.7-4-1.7-11.7,0-16,.1,5.3,0,10.7,0,16Z"/>
      <path class="st15" d="M374.3,290c0,.4-.1.8,0,1-1.7-2.3-1.7-8.4,0-11,0,3.1-.4,7.1,0,10Z"/>
      <path class="st6" d="M421.2,257v29.9c-.2.3-2.6-1.4-3-2,3,.6,1.9-1.5,2-3.4.2-5.6-1.2-20.8,1-24.5Z"/>
      <path class="st15" d="M396.3,284c-1.3-5.3-2.1-17.2,0-22,.2,7.3-.3,14.7,0,22Z"/>
      <path class="st7" d="M412.3,325.9c1.2,2.7-1.8,3-2,3.7-.5,2.1.3,5,0,7.3-7.1,0-2.7-1.1-3.9-6.4s-1.9-.5-2-.6c-.4-.4-.7-1.4-1-2-1.1-3.1,6-2.1,9-2Z"/>
      <path class="st7" d="M398.3,315.9c1.7.2,5.3.3,5.9,2.7,1.1,4.3-1.8,2.8-3.9,5.3-.6-.3-1.9-1-2-1-.9-2.3,2-1.7,2-2.5s-2.3.7-2-4.5Z"/>
      <path class="st0" d="M414.3,325.9l-2,11c-.6,0-1.4,0-2,0,.3-2.3-.5-5.2,0-7.3s3.1-1,2-3.7c.7,0,1.3,0,2,0Z"/>
      <path class="st13" d="M386.3,323.9c1.7.3,3.7-.6,5,1.5-3.1,1.8-2.4,5.1-4.5,7.5-1.1-2.8-.3-6.1-.5-9Z"/>
      <path class="st0" d="M421.2,157.2c-3.2-.2-4.7.4-8,0,1.6-1.7,6.5-1.7,8,0Z"/>
      <path class="st14" d="M387.3,483.6c.3.3.9.5,1,1,1.1,6.9-14.7,15.3-17.9,12.9s4.6-6.3,6-7.3,1.5-2.7,2.2-3.3c1.1-.9,6.9-3.7,8.7-3.3Z"/>
      <path class="st0" d="M378.3,464.6v2c-.6,0-1.4,0-2,0-2.3-.3-6.6.3-6-3,2.7.3,5.3.7,8,1Z"/>
      <path class="st1" d="M404.3,478.6c-.2-.3-.8-.6-1-1h1c.1.3-.1.9,0,1Z"/>
      <path class="st10" d="M400.3,477.6l-1-1c.7,0,.9,1,1,1Z"/>
      <path class="st2" d="M370.3,443.6c-.8,3,2.1,1.3,3.1,2.6s0,3.9-.1,5.4c-2.2-1.1-2.8,2.9-2.7,4.7s1.2,2.2,1.7,3.3,0,.7,0,1v1c-3.7,0-6-.7-9-1,2.4-1.2-1.2-3.6-.9-5.3s8.3-4.7,5.8-10.6c.4-.1.9-.7,2-1Z"/>
      <path class="st15" d="M374.3,461.6c-.6,0-1.3,0-2,0v-1l2,1Z"/>
      <path class="st1" d="M378.3,442.7c4.5-.1,7.1,4.1,8.5,8.1s-1.2,7.2-.5,7.9,4.2-1.9,5,0c-2.6.3-11.3,3.2-12.9,1.9s.1-1.6,0-1.9l4-1c-.7.1-1.7,0-2-.7-1.5-3.7-4.1-10.8-2-14.3Z"/>
      <path class="st9" d="M378.3,442.7c-2.1,3.5.5,10.6,2,14.3s1.3.8,2,.7l-4,1c-.9-1.4-1-.7-2-1s-2.2.4-2.9,0c-1.2-.8-.1-4.6-.1-5.9s1-4.2.1-5.4-3.9.4-3.1-2.6c.3,0,.7,0,1,0,1.4-.3,5.3-1,7-1Z"/>
      <path class="st1" d="M373.3,451.6c0,1.3-1.1,5.1.1,5.9s2.1-.1,2.9,0c.6,3-1.5,1.9-4,2-.5-1-1.6-.9-1.7-3.3s.5-5.8,2.7-4.7Z"/>
      <path class="st3" d="M388.3,391.8c5.6-.8,12.2-.6,18-2-1.8,2,.6,7.2,2.2,7.7,3.9,1.2,11.8-1.6,9.7,5.6-.3.9-1.8,1-2.4,1.8-1.5,2,1,3.9-4.7,2.5s-5.2-3.6-8.9-2.6v6c-.9,1-13.9-4.3-15-5.5s-.6-3.5-1.1-4.3c-1-1.5-9.7-.4-7.8-7.2,2.1.3,5.2.1,7.3-.2s2.5-1.8,2.6-1.8Z"/>
      <path class="st1" d="M410.3,361.8c0-.6,0-1.5,0-2,1.1,0,2.1-.5,3-1,0,1,0,2,0,3-1,0-2,0-3,0-.2,1.7-1,2.7-1,3-6.1-2.5-2.9.2-4.5,2.9s-4.8,5.5-5.5,9c-2.1,1.4-6.2-6.2-8-7,.1-1,.2-3.1,0-4,3.7-3.6,6.5-1.4,1-6-.1-.6.2-1.6,0-2l12.7,3.8c1.7.4,3.5.4,5.2.2Z"/>
      <path class="st1" d="M403.3,427.7c1.7,1.1,5.6,4.3,7,5l-2,5c-3.2-2-6.9-2.7-8-3.5s-1.1-3.2-2.4-4.6-5-1.7-5.4-2.1-1.8-6.6-1.7-7.8c4.5,1.7,8.4,5.5,12.5,8Z"/>
      <path class="st4" d="M408.3,455.6c-4.3-1-3.7-12.7-1.5-12.9,3.9-.3,4.2,4.2,4.8,4.7s2.5,0,2.7.2c2.3,1.7-2.6,1.8-2,3l6-3-1,5c-2.9,1.2-5.8,2.7-9,3Z"/>
      <path class="st3" d="M390.3,363.8c.3.6,1,1.9,1,2,.2.9.1,3,0,4-.3,2.6-2.9,6.6-2,10-.3-.1-.8.1-1,0h-1c-1.4-1.1-3.9-2.9-5-4,2.4-.3,3.1,1.4,4-1.5,1.2-4.2,2.7-8,2-12.4.5.6,1.8,1.5,2,2Z"/>
      <path class="st3" d="M381.3,423.7c-.3.5.2,3.7,0,5-.5,2.8-1.9,11.5-5,9.5.3-2.6-.4-5.6,0-8.1s2-1.3,2-1.9c-.2-3-2-9.1,3.1-4.5Z"/>
      <path class="st13" d="M413.3,383.8c3,2.2,4.5,3.5,9,6-8.1-2.3-16.7,3-15-9,1.4.3,4.7,2,6,3Z"/>
      <path class="st4" d="M381.3,428.7c.2-1.2-.3-4.5,0-5s3.5.3,2-5c6.4-2.3,3.9,17.2-2,10Z"/>
      <path class="st8" d="M395.3,436.7c3-.9,1.5,2.2,2.1,2.8s4.1-.4,4.7,1.7c0,.2-.9.4-.9.5h-5c-.2-.4-.9-.8-1-1-.5-1.9-1.9-1.8,0-4Z"/>
      <path class="st4" d="M401.3,441.7c-.1,1.3,1,5.8-1.5,5s-.2-1-1.4-1.9-1.5.1-2-.3c-.7-.6,0-2.4-.2-2.8h5Z"/>
      <path class="st4" d="M395.3,440.7c-4.7,3.3-2.6-2.7-3-5.4l5-.6c.3,1.3-1.3,1.2-2,2-1.9,2.2-.5,2.1,0,4Z"/>
      <path class="st4" d="M395.3,448.6l-6-.5c2.2-3.1,5.8-3.8,6,.5Z"/>
      <path class="st4" d="M390.3,439.7c.2.2,1.2,4.8,1,5-2.6,2.6-4.3-8-1-5Z"/>
      <path class="st4" d="M398.3,449.6c-.3.7-1.7-.6-1-2s1.7.6,1,2Z"/>
      <path class="st13" d="M424.2,390.8c-.4-.3-.7-.6-1-1,.5.2.9.5,1,1Z"/>
      <path class="st7" d="M388.3,361.8c.7,4.5-.8,8.2-2,12.4s-1.6,1.2-4,1.5c-2.8-2.9-5.7-5.6-4.6-10s5-8.1,8.9-6.9,1.3,2.5,1.6,2.9Z"/>
      <path class="st3" d="M377.8,387.8c.6.3.6.7,0,1v-1Z"/>
      <path class="st10" d="M387.3,379.8h1c0,0,.4,1.1-1,0Z"/>
      <path class="st15" d="M410.3,341.9c-1.7-.3-3.6-.8-5-1,1.2-2,4.4-1.2,5,1Z"/>
      <path class="st15" d="M413.3,342.9l-1-1c.8.3.7.3,1,1Z"/>
      <path class="st15" d="M412.3,345.8c-.5.2-1.4,0-2,0l.5-1,1.5,1Z"/>
      <path class="st15" d="M408.3,345.8c-.3,0-.7,0-1,0-.4-2.8,1.4-2.8,1,0Z"/>
      <path class="st7" d="M399.3,349.8c.7,0,1.4,0,2,0h1c5.2,1.4,10.7,3.2,11,9-.9.5-1.9.9-3,1-.2-1.2-.6-1.3-1-2-2.9-5.1-6.1-4.4-11-5s-2.1-1.9-4,0c-.3-.3-.9-.9-1-1-.5-3.8,3.7-2.1,6-2Z"/>
      <path class="st15" d="M398.3,352.8c-1.2,4.9,7.5,4.7,11,5,.4.7.8.8,1,2-3.1.2-11.7-2.5-14.3-4.2s-1.4-2.6-1.7-2.8c1.9-1.9,3.2,0,4,0Z"/>
      <path class="st10" d="M392.3,359.8c5.5,4.6,2.7,2.4-1,6,0-.1-.7-1.4-1-2,.3-.5,1-3.8,1-4h1Z"/>
      <path class="st1" d="M371.3,469.6c-1.3.7-3.5-1.6-3-2,1.3-.7,3.5,1.6,3,2Z"/>
      <path class="st6" d="M424.2,367.8c.3,0,.7,0,1,0,.6,0,1.4,0,2,0,4.4.6,5,1,2.4,4.9s-8.2,6.3-14.4,6.1c-1-4.6,2.8-2.4,5.7-3.7s3-3.2,5.2-3.3l-7-1c2-2.4-.9-2.4,5-3Z"/>
      <path class="st7" d="M422.2,361.8h2c.2,1-.4,2.4,1,3-.4.4-.6,1.4-1,2v1c-5.9.6-3,.6-5,3s-4.2,3.8-8,5c0,0-1.9.4-2-.6s1.1-2.3,1-3.4c3.3-2,6.1-4.9,9-7.5s.8-2.4.9-2.5,1.4,0,2,0Z"/>
      <path class="st9" d="M419.2,370.8l7,1c-2.3,0-3.5,2.5-5.2,3.3-2.9,1.3-6.7-.9-5.7,3.7-6.8-.3-2.7-1.1-4-3,3.8-1.2,5.5-2,8-5Z"/>
      <path class="st3" d="M427.2,363.8v4c-.6,0-1.4,0-2,0l-1-1c.4-.5.6-1.6,1-2,.8-.9,1.9-.9,2-1Z"/>
      <path class="st14" d="M429.2,338.9c2.4,4.3,1.6,8.4,3,13s-.1,1.4,0,2c-.6-.2-1.5.2-2,0-.8-.3-3.6-2.3-4-2-.1,2.2-1.2,4.1-2,6s-.7,1.4-1,2c-3.7-1-2.7,1.7-3,2s-3.6,2.5-4,2c-1.2-1.3,3.6-6.7,4-9.4,1-6.2-1.8-6.4-2-7.2s-.2-6,0-6.2c.9-.9,9.3-1.7,10.9-2.1Z"/>
      <path class="st8" d="M427.2,357.8c.8-.2,1.7-1.3,3-1,.6,4-.9,4.7-3,7s-1.2.1-2,1c-1.4-.6-.8-2-1-3s-.6-.8-1-1c.1-.3-.1-.7,0-1,.3-.6.7-1.2,1-2,.9-.1,2.1.2,3,0Z"/>
      <path class="st6" d="M430.2,353.8l-3,4c-.9.2-2-.1-3,0,.8-1.9,1.9-3.8,2-6,.3-.3,3.2,1.7,4,2Z"/>
      <path class="st0" d="M439.2,276c2.2,4.3,3.6,9.1,3,14-.2.1.2,1.5-.2,1.7-4.2,3.2-2.5-5.7-2.8-8.3s-.9-2.5-1-3.4c-.5-3.3-1.4-5.2-2-8,.9,1.1,2.4,2.8,3,4Z"/>
      <path class="st1" d="M402.3,349.8h-1s-.2-.3,1,0Z"/>
      <path class="st1" d="M428.2,480.6c-.3.3.3,1.7-1.6,2.8s-8.5,2.7-10.8,2.2-6.1-6.5-9.5-7c.1,0,.5-.7,1.3-.7,7.7.6,13,5.8,20.7,2.7Z"/>
      <path class="st1" d="M414.3,472.6c-1.1,0-2.5.3-3-1,.9.3,2.5-.5,3,1Z"/>
      <path class="st0" d="M348.4,275v-18c6-.3,6.1,19.8,0,18Z"/>
      <path class="st1" d="M409.3,357.8c-3.5-.3-12.2-.1-11-5,4.9.6,8.1-.1,11,5Z"/>
      <path class="st1" d="M425.2,367.8c-.3,0-.7,0-1,0v-1l1,1Z"/>
      <path class="st3" d="M424.2,361.8h-2c.2-.4.9-.7,1-1,.4.2.9.6,1,1Z"/>
    </g>
  </g>
</svg>